<?xml version="1.0" encoding="UTF-8" standalone="no"?>
<svg
   xml:space="preserve"
   fill-rule="evenodd"
   clip-rule="evenodd"
   image-rendering="optimizeQuality"
   shape-rendering="geometricPrecision"
   text-rendering="geometricPrecision"
   version="1.1"
   viewBox="0 0 14330.53 2886.24"
   fill="#000000"
   data-color-origin="#000000"
   data-color-type="fill"
   id="svg5"
   width="14330.53"
   height="2886.24"
   xmlns:inkscape="http://www.inkscape.org/namespaces/inkscape"
   xmlns:sodipodi="http://sodipodi.sourceforge.net/DTD/sodipodi-0.dtd"
   xmlns="http://www.w3.org/2000/svg"
   xmlns:svg="http://www.w3.org/2000/svg"><sodipodi:namedview
   id="namedview1"
   pagecolor="#ffffff"
   bordercolor="#000000"
   borderopacity="0.25"
   inkscape:showpageshadow="2"
   inkscape:pageopacity="0.0"
   inkscape:pagecheckerboard="0"
   inkscape:deskcolor="#d1d1d1" />
    <defs
   id="defs2">
        <linearGradient
   id="9854b533-7ac0-4c58-be73-2dd7ae25ee28a"
   x1="844.48999"
   x2="1525.9"
   y1="1358.52"
   y2="1189.2"
   gradientUnits="userSpaceOnUse">
            <stop
   offset="0"
   stop-color="#f5a105"
   stop-opacity="1"
   class=" bl-stopColor-0"
   data-color-origin="#f5a105"
   data-color-type="stopColor"
   id="stop1" />
            <stop
   offset="1"
   stop-color="#f2c784"
   stop-opacity="1"
   class=" bl-stopColor-1"
   data-color-origin="#f2c784"
   data-color-type="stopColor"
   id="stop2" />
        </linearGradient>
    </defs>
    <g
   transform="translate(-0.01,0.01)"
   id="g5">
        <metadata
   id="metadata2" />
        <path
   fill="#24394b"
   d="m 4858.4,2032.54 c 0,43.42 -14.64,81.16 -43.88,113.24 -29.29,32.09 -65.63,48.11 -109.06,48.11 -24.55,0 -48.16,-6.12 -70.82,-18.39 -22.66,-12.26 -41.54,-27.8 -56.66,-46.68 l -458.9,-546.33 -458.9,546.33 c -15.09,18.89 -33.99,34.42 -56.66,46.68 -22.66,12.26 -46.25,18.39 -70.8,18.39 -43.44,0 -79.79,-16.02 -109.05,-48.11 -29.29,-32.08 -43.91,-69.82 -43.91,-113.24 0,-32.02 10.38,-63.16 31.16,-93.4 l 501.38,-597.26 -371.08,-444.5 c -11.33,-13.2 -19.36,-27.8 -24.09,-43.88 -4.71,-15.98 -7.08,-32.54 -7.08,-49.52 0,-43.42 14.63,-81.15 43.9,-113.24 29.29,-32.09 65.63,-48.11 109.08,-48.11 24.55,0 48.14,6.12 70.8,18.4 22.66,12.26 41.56,27.87 56.66,46.73 l 328.59,401.96 328.59,-401.96 c 15.12,-18.87 34,-34.47 56.66,-46.73 22.67,-12.27 46.27,-18.4 70.82,-18.4 43.43,0 79.78,16.02 109.06,48.11 29.27,32.09 43.9,69.82 43.9,113.24 0,16.99 -2.36,33.54 -7.08,49.52 -4.71,16.08 -12.74,30.68 -24.07,43.88 l -371.08,444.5 501.37,597.26 c 20.77,30.24 31.15,61.38 31.15,93.4 z m 2041.92,-631.25 c 0,105.69 -17.94,207.56 -53.81,305.75 -35.89,98.12 -89.71,184.44 -161.47,259 -71.77,74.54 -162.89,133.98 -273.33,178.34 -110.47,44.35 -240.3,66.56 -389.51,66.56 -98.2,0 -190.25,-16.56 -276.19,-49.54 -85.93,-33.05 -161.92,-77.87 -228.03,-134.5 v 714.93 c 0,37.74 -14.16,71.26 -42.48,100.51 -28.32,29.28 -62.33,43.89 -101.98,43.89 h -17 c -39.62,0 -73.64,-14.11 -101.97,-42.49 -28.33,-28.25 -42.49,-62.27 -42.49,-101.91 V 784.16 c 0,-41.51 14.16,-75.92 42.49,-103.3 28.31,-27.38 62.33,-41.04 101.97,-41.04 h 17 c 39.66,0 73.65,14.12 101.98,42.47 28.33,28.27 42.48,62.29 42.48,101.87 v 19.83 c 73.65,-66.03 154.38,-117.96 242.19,-155.72 87.84,-37.73 175.16,-56.62 262.03,-56.62 151.06,0 281.85,22.23 392.33,66.52 110.47,44.36 201.58,103.36 273.34,176.94 71.75,73.6 125.12,159.47 160.05,257.65 34.93,98.13 52.4,200.96 52.4,308.53 z m -317.24,0 c 0,-69.84 -11.34,-135.87 -34,-198.16 -22.66,-62.27 -56.64,-116.97 -101.96,-164.2 -45.33,-47.15 -103.38,-84.92 -174.21,-113.24 -70.82,-28.31 -154.38,-42.44 -250.7,-42.44 -117.07,0 -219.52,27.37 -307.33,82.08 -87.82,54.74 -153.45,124.56 -196.88,209.47 -5.67,20.78 -11.33,43.46 -17,67.99 -3.77,20.72 -7.55,45.73 -11.33,74.97 -3.78,29.29 -5.67,59.97 -5.67,92.06 0,33.94 2.37,69.3 7.1,106.14 4.72,36.74 13.69,74.02 26.9,111.77 43.43,84.96 109.06,154.8 196.88,209.51 87.81,54.72 190.26,82.11 307.33,82.11 96.33,0 179.42,-14.17 249.29,-42.51 69.87,-28.29 127.94,-66.52 174.21,-114.61 46.25,-48.11 80.71,-103.36 103.37,-165.65 22.66,-62.21 34,-127.37 34,-195.3 v 0 z m 1639.7,-608.62 c 0,35.84 -7.56,63.24 -22.66,82.1 -15.12,18.89 -32.11,33.04 -51,42.45 -20.77,11.31 -45.31,17.92 -73.64,19.84 -83.07,0 -156.27,12.26 -219.53,36.8 -63.26,24.52 -116.59,55.18 -160.05,91.98 -43.42,36.8 -76.47,75.98 -99.15,117.47 -22.66,41.51 -33.98,79.26 -33.98,113.24 v 753.02 c 0,39.58 -14.63,73.6 -43.9,101.87 -29.27,28.35 -62.79,42.45 -100.57,42.45 h -19.83 c -39.65,0 -73.65,-14.1 -101.98,-42.45 -28.31,-28.27 -42.49,-62.29 -42.49,-101.87 V 784.15 c 0,-41.51 14.18,-75.93 42.49,-103.31 28.33,-27.39 62.33,-41.03 101.98,-41.03 h 17.01 c 39.65,0 73.65,14.11 101.96,42.47 28.35,28.27 42.51,62.29 42.51,101.87 v 65.13 c 64.2,-79.25 127.94,-136.35 191.2,-171.3 63.27,-34.88 144.92,-52.33 245.01,-52.33 13.23,0 26.45,0 39.67,0 13.21,0 27.39,0.96 42.49,2.8 41.54,3.8 76.01,18.87 103.37,45.29 27.37,26.44 41.08,59.49 41.08,99.07 v 19.85 0 z M 8856.9,189.68 c 0,54.72 -18.9,100.52 -56.66,137.31 -37.78,36.79 -82.14,55.19 -133.15,55.19 -54.77,0 -100.08,-19.35 -135.95,-58.04 -35.89,-38.64 -53.84,-83.48 -53.84,-134.46 0,-50.98 17.95,-95.31 53.84,-133.06 35.86,-37.76 81.18,-56.63 135.95,-56.63 54.77,0 100.09,17.98 135.98,53.83 35.86,35.82 53.83,81.15 53.83,135.87 z m -34,1859.9 c 0,37.69 -14.16,71.19 -42.49,100.5 -28.33,29.25 -62.31,43.82 -101.97,43.82 h -22.67 c -39.66,0 -73.64,-14.1 -101.97,-42.45 -28.33,-28.27 -42.49,-62.29 -42.49,-101.87 V 787.02 c 0,-41.51 14.16,-75.98 42.49,-103.36 28.33,-27.34 62.31,-41.03 101.97,-41.03 h 22.67 c 39.66,0 73.64,14.16 101.97,42.44 28.33,28.35 42.49,62.29 42.49,101.95 z m 1985.28,0 c 0,41.49 -14.16,75.9 -42.49,103.3 -28.31,27.38 -62.31,41.02 -101.98,41.02 h -19.82 c -39.66,0 -73.64,-14.1 -101.97,-42.45 -28.34,-28.27 -42.49,-62.29 -42.49,-101.87 v -781.35 c 0,-35.85 -7.08,-73.6 -21.26,-113.18 -14.16,-39.67 -37.29,-76.46 -69.4,-110.44 -32.09,-33.96 -75.54,-61.81 -130.31,-83.48 -54.75,-21.74 -122.75,-32.58 -203.93,-32.58 -52.91,0 -104.83,11.3 -155.82,34.01 -50.99,22.61 -96.3,51.85 -135.95,87.7 -39.65,35.91 -71.76,75.49 -96.31,118.92 -24.55,43.4 -36.82,85.91 -36.82,127.4 v 753.02 c 0,39.58 -14.64,73.6 -43.91,101.87 -29.26,28.36 -62.78,42.45 -100.56,42.45 h -22.66 c -39.65,0 -73.65,-14.09 -101.98,-42.45 -28.33,-28.27 -42.49,-62.29 -42.49,-101.87 V 784.18 c 0,-41.51 14.16,-75.92 42.49,-103.3 28.33,-27.4 62.33,-41.04 101.98,-41.04 h 17.01 c 39.65,0 73.63,14.12 101.96,42.47 28.33,28.27 42.49,62.29 42.49,101.87 v 65.13 c 54.77,-67.93 117.54,-122.65 188.36,-164.22 70.82,-41.49 152.49,-62.27 245.03,-62.27 132.19,0 244.55,16.54 337.08,49.54 92.53,33.03 168.08,78.83 226.62,137.28 58.55,58.55 101.04,126.97 127.48,205.24 26.44,78.36 39.65,162.78 39.65,253.36 v 781.35 0 z M 12337.4,803.97 c 0,37.74 -14.16,71.28 -42.49,100.5 -28.31,29.25 -62.31,43.9 -101.98,43.9 h -416.39 v 418.97 c 0,109.45 13.68,199.51 41.08,270.33 27.37,70.74 58.07,127.82 92.07,171.24 39.65,49.06 84.97,87.76 135.95,116.1 20.78,13.16 36.83,29.7 48.16,49.52 11.32,19.78 17,45.72 17,77.81 0,47.21 -19.36,82.58 -58.08,106.17 -38.71,23.58 -79.79,35.36 -123.22,35.36 -37.76,0 -83.55,-16.49 -137.39,-49.52 -53.82,-32.98 -105.28,-84.43 -154.38,-154.28 -49.09,-69.84 -91.12,-157.13 -126.05,-261.86 -34.91,-104.75 -52.41,-229.77 -52.41,-375.04 V 948.35 h -351.24 c -37.76,0 -71.28,-14.65 -100.56,-43.89 -29.27,-29.23 -43.91,-62.77 -43.91,-100.51 v -16.96 c 0,-39.66 14.64,-73.6 43.91,-101.95 29.28,-28.28 62.8,-42.45 100.56,-42.45 h 351.24 V 192.52 c 0,-43.39 14.64,-78.37 43.89,-104.79 29.28,-26.38 62.8,-39.58 100.56,-39.58 h 28.33 c 37.78,0 71.3,13.19 100.57,39.58 29.28,26.42 43.9,61.4 43.9,104.79 v 450.07 h 416.39 c 39.67,0 73.67,14.17 101.98,42.45 28.33,28.35 42.49,62.29 42.49,101.95 v 16.96 0 z m 1721.86,1245.61 c 0,37.69 -14.18,71.19 -42.5,100.5 -28.33,29.25 -62.32,43.82 -101.97,43.82 h -17.02 c -39.64,0 -73.64,-14.1 -101.97,-42.45 -28.33,-28.27 -42.49,-62.29 -42.49,-101.87 v -79.3 c -37.76,22.68 -82.14,48.14 -133.13,76.44 -51,28.29 -107.65,54.72 -169.96,79.24 -62.33,24.54 -128.41,44.83 -198.3,60.92 -69.87,16 -142.54,24.06 -218.1,24.06 -79.29,0 -152.49,-12.74 -219.52,-38.23 -67.04,-25.49 -124.16,-61.32 -171.36,-107.6 -47.23,-46.2 -84.03,-100.97 -110.47,-164.14 -26.45,-63.24 -39.67,-133.56 -39.67,-210.95 0,-75.43 13.23,-142.95 39.67,-202.38 26.44,-59.42 63.24,-109.9 110.47,-151.41 47.2,-41.55 104.32,-72.7 171.36,-93.43 67.04,-20.77 140.23,-31.13 219.52,-31.13 h 710.99 c -7.54,-90.64 -50.02,-164.7 -127.46,-222.28 -77.42,-57.52 -186.03,-86.35 -325.76,-86.35 -69.87,0 -133.15,8.05 -189.78,24.08 -56.66,16.06 -106.69,33.03 -150.13,50.95 -43.43,17.95 -81.66,34.96 -114.73,50.98 -33.04,16.01 -59.94,24.06 -80.72,24.06 -43.43,0 -81.21,-12.75 -113.3,-38.24 -32.1,-25.47 -48.16,-59.88 -48.16,-103.28 0,-54.72 26.92,-101 80.73,-138.75 53.84,-37.73 118.51,-68.89 194.05,-93.42 75.53,-24.52 152.49,-41.97 230.87,-52.34 78.34,-10.41 142.08,-15.6 191.19,-15.6 105.75,0 205.36,12.27 298.84,36.81 93.49,24.53 174.69,64.67 243.6,120.34 68.93,55.67 123.7,129.27 164.31,220.79 40.6,91.57 60.92,204.3 60.92,338.32 v 721.86 0 z m -305.95,-560.52 h -719.48 c -58.53,0 -112.36,15.07 -161.46,45.31 -49.1,30.18 -73.65,80.2 -73.65,149.98 0,66.08 22.66,121.75 68,167 45.31,45.31 101.02,67.99 167.11,67.99 84.99,0 160.98,-7.55 228.03,-22.68 67.04,-15.07 128.87,-34.42 185.52,-58 56.66,-23.64 109.53,-49.54 158.64,-77.89 49.09,-28.27 98.21,-56.62 147.29,-84.9 v -186.82 -0.01 z m 328.36,-1172.1 c 7,-1.21 15.61,-1.21 27.91,-1.21 33.62,0 47.93,15.05 47.93,35.02 0,24.05 -22.55,33.82 -52.05,33.82 h -23.8 v -67.63 0 z m -49.56,-31.78 v 234.27 h 49.56 v -96.57 h 23.38 c 25.01,0 40.6,10.6 43.87,36.28 5.34,31.78 8.59,51.75 14.35,60.29 h 52.47 c -4.08,-7.31 -8.59,-21.19 -13.5,-57.84 -3.7,-34.65 -16.84,-53.79 -38.16,-57.47 v -1.63 c 25.42,-6.92 45.54,-26.47 45.54,-54.59 0,-24.05 -7.38,-39.93 -20.96,-50.53 -15.56,-12.21 -40.12,-19.14 -81.15,-19.14 -35.66,0 -56.97,4.08 -75.41,6.92 h 0.01 z m 86.9,281.55 c -89.8,0 -161.53,-74.17 -161.53,-168.7 0,-94.1 71.73,-169.88 160.7,-169.88 h 0.83 c 90.19,0 162.35,75.78 162.35,169.88 0,94.03 -71.4,168.7 -160.9,168.7 -0.48,0 -0.98,0 -1.45,0 z m 0,-381.38 c -117.22,0 -212.35,94.93 -212.35,211.9 0,117.71 95.13,211.45 212.35,211.45 118.04,0 211.53,-93.74 211.53,-211.45 0,-116.98 -93.49,-211.9 -210.7,-211.9 z M 6103.13,2674.49 v 98.28 c 0,7.83 -3.52,14.25 -9.84,18.85 -5.87,4.16 -12.56,6.19 -19.77,6.19 h -4.3 c -7.21,0 -13.91,-2.03 -19.77,-6.19 -6.32,-4.59 -9.87,-11.01 -9.87,-18.85 v -98.29 l -106.67,-118.79 c -4.3,-4.39 -6.39,-9.93 -6.39,-16.14 0,-7.69 3.3,-14.2 8.98,-19.35 6.03,-5.34 13.45,-7.7 21.5,-7.7 4.9,0 9.66,0.86 14.21,2.85 4.05,1.7 7.91,4.12 11.19,7.4 l 89.83,99.47 88.99,-99.12 c 6.89,-7.31 15.86,-10.6 25.83,-10.6 8.04,0 15.5,2.27 21.9,7.22 6.32,4.82 10.3,11.36 10.3,19.49 0,6.35 -2.55,11.9 -6.7,16.7 l -109.41,118.58 v 0 z m 1114.34,-129.24 c 0,6.41 -1.34,11.32 -4.05,14.71 -2.71,3.37 -5.77,5.96 -9.13,7.64 -3.76,2.04 -8.16,3.19 -13.24,3.52 -14.93,0 -28.04,2.21 -39.38,6.6 -11.37,4.41 -20.93,9.91 -28.73,16.51 -7.8,6.65 -13.75,13.63 -17.8,21.12 -4.08,7.43 -6.09,14.2 -6.09,20.34 v 135.14 c 0,7.09 -2.62,13.15 -7.89,18.3 -5.26,5.06 -11.27,7.58 -18.03,7.58 h -3.58 c -7.13,0 -13.2,-2.52 -18.33,-7.58 -5.06,-5.14 -7.6,-11.2 -7.6,-18.3 v -227.14 c 0,-7.47 2.54,-13.64 7.6,-18.57 5.11,-4.87 11.19,-7.31 18.33,-7.31 h 3.04 c 7.12,0 13.24,2.5 18.32,7.61 5.07,5.08 7.6,11.14 7.6,18.27 v 11.67 c 11.54,-14.19 22.99,-24.42 34.33,-30.71 11.34,-6.3 26.03,-9.41 43.97,-9.41 2.37,0 4.76,0 7.1,0 2.39,0 4.93,0.2 7.64,0.54 7.45,0.67 13.64,3.36 18.56,8.08 4.91,4.74 7.37,10.7 7.37,17.8 v 3.58 h -0.01 z m -285.68,225.6 c 0,7.4 -2.55,13.59 -7.63,18.53 -5.1,4.89 -11.19,7.35 -18.31,7.35 h -3.04 c -7.13,0 -13.23,-2.53 -18.31,-7.58 -5.09,-5.14 -7.61,-11.2 -7.61,-18.3 v -11.22 c -9.85,11.89 -21.14,21.55 -33.83,28.97 -12.69,7.42 -27.38,11.15 -43.96,11.15 -23.73,0 -43.88,-2.94 -60.51,-8.88 -16.6,-5.94 -30.17,-14.14 -40.68,-24.64 -10.47,-10.46 -18.12,-22.8 -22.86,-36.82 -4.74,-14.06 -7.12,-29.23 -7.12,-45.45 v -140.25 c 0,-7.47 2.55,-13.64 7.63,-18.57 5.09,-4.87 11.19,-7.31 18.31,-7.31 h 3.04 c 7.12,0 13.21,2.49 18.31,7.61 5.09,5.08 7.61,11.14 7.61,18.27 v 140.25 c 0,10.8 1.29,20.03 3.83,27.65 2.52,7.63 6.77,13.91 12.71,18.8 5.93,4.93 13.8,8.6 23.64,10.96 9.81,2.4 22.02,3.54 36.59,3.54 9.49,0 18.89,-1.79 28.23,-5.31 9.29,-3.6 17.61,-8.21 24.89,-14.01 7.3,-5.75 13.14,-12.27 17.55,-19.52 4.41,-7.28 6.63,-14.7 6.63,-22.11 v -140.25 c 0,-7.12 2.62,-13.18 7.86,-18.27 5.26,-5.11 11.26,-7.61 18.07,-7.61 h 3.03 c 7.11,0 13.2,2.49 18.31,7.61 5.08,5.08 7.63,11.14 7.63,18.27 v 227.14 0.01 z m -412.31,-116.34 c 0,-12.58 -2.03,-24.41 -6.07,-35.6 -4.09,-11.17 -10.18,-20.98 -18.33,-29.49 -8.12,-8.42 -18.55,-15.2 -31.27,-20.31 -12.68,-5.1 -27.67,-7.6 -44.95,-7.6 -17.3,0 -32.29,2.5 -45,7.6 -12.7,5.1 -23.13,11.87 -31.25,20.31 -8.14,8.51 -14.24,18.42 -18.33,29.75 -4.04,11.36 -6.08,23.1 -6.08,35.34 0,12.14 2.04,23.83 6.08,35.05 4.08,11.13 10.25,21.05 18.57,29.68 8.3,8.67 18.73,15.5 31.27,20.58 12.52,5.09 27.45,7.64 44.74,7.64 17.29,0 32.19,-2.55 44.71,-7.64 12.54,-5.07 22.95,-11.9 31.27,-20.58 8.29,-8.63 14.47,-18.55 18.57,-29.68 4.04,-11.22 6.07,-22.91 6.07,-35.05 z m 56.94,0 c 0,18.9 -3.2,37.2 -9.65,54.85 -6.43,17.64 -16.09,33.07 -28.97,46.45 -12.88,13.37 -29.25,24.05 -49.06,31.99 -19.81,7.99 -43.11,11.95 -69.87,11.95 -26.79,0 -50.09,-3.96 -69.9,-11.95 -19.84,-7.94 -36.2,-18.62 -49.06,-31.99 -12.86,-13.38 -22.56,-28.82 -28.98,-46.45 -6.45,-17.65 -9.64,-35.95 -9.64,-54.85 0,-19.34 3.11,-37.7 9.39,-55.18 6.27,-17.44 15.92,-32.85 28.96,-46.19 13.05,-13.39 29.43,-24.09 49.06,-32.04 19.67,-7.97 43.05,-11.94 70.17,-11.94 27.09,0 50.56,3.97 70.39,11.94 19.81,7.95 36.17,18.56 49.05,31.78 12.88,13.18 22.44,28.59 28.72,46.2 6.28,17.65 9.39,36.09 9.39,55.44 z m 1199.71,31.77 c 0,17.88 -3.27,33.59 -9.82,47.16 -6.55,13.56 -15.49,24.89 -26.83,33.99 -11.34,9.09 -24.76,15.95 -40.24,20.59 -15.49,4.63 -32.34,6.94 -50.54,6.94 h -185.89 c -7.34,0 -13.73,-2.71 -19.16,-8.14 -5.43,-5.42 -8.15,-11.8 -8.15,-19.15 l 0.48,-319.34 c 0,-7.34 2.64,-13.72 7.91,-19.16 5.26,-5.42 11.57,-8.13 18.92,-8.13 h 185.89 c 13.73,0 27.15,1.99 40.24,5.98 13.09,3.99 24.76,10.21 34.97,18.68 10.22,8.45 18.45,19.07 24.68,31.84 6.23,12.76 9.34,27.93 9.34,45.48 0,10.21 -1.12,19.23 -3.35,27.05 -2.24,7.82 -4.95,14.76 -8.15,20.83 -3.19,6.06 -6.78,11.33 -10.77,15.79 -3.99,4.47 -7.59,8.3 -10.78,11.49 5.11,2.55 10.7,6.3 16.76,11.25 6.07,4.95 11.66,11.17 16.77,18.68 5.11,7.5 9.34,16.11 12.69,25.85 3.35,9.74 5.03,20.51 5.03,32.32 z m -71.86,-163.26 c 0,-15 -4.47,-26.66 -13.41,-34.95 -8.94,-8.3 -23,-12.45 -42.16,-12.45 h -159.53 v 102.46 h 159.53 c 18.53,0 32.42,-4.95 41.68,-14.84 9.26,-9.89 13.89,-23.3 13.89,-40.21 v 0 z m 18.21,163.26 c 0,-8.3 -1.2,-15.8 -3.59,-22.51 -2.4,-6.7 -6.47,-12.44 -12.22,-17.24 -5.75,-4.78 -13.33,-8.45 -22.76,-11.01 -9.42,-2.55 -21.16,-3.82 -35.21,-3.82 h -159.53 v 109.15 h 159.53 c 25.23,0 43.83,-4.54 55.82,-13.64 11.97,-9.09 17.97,-22.74 17.97,-40.93 z m 491.54,-158 c 0,20.11 -3.04,37.02 -9.1,50.76 -6.07,13.72 -13.49,24.74 -22.28,33.03 -8.78,8.3 -18.13,14.36 -28.03,18.2 -9.9,3.83 -18.69,6.06 -26.35,6.7 l 60.36,124.01 c 1.92,3.83 2.88,7.81 2.88,11.96 0,7.34 -2.72,13.64 -8.15,18.92 -5.42,5.26 -11.81,7.9 -19.16,7.9 -5.43,0 -10.38,-1.44 -14.85,-4.31 -4.47,-2.87 -7.82,-6.54 -10.06,-11.01 l -69.94,-145.54 h -138.45 v 136.45 c 0,6.38 -2.4,12.04 -7.19,17 -4.79,4.94 -10.54,7.42 -17.25,7.42 h -4.79 c -6.39,0 -12.13,-2.48 -17.25,-7.42 -5.11,-4.95 -7.66,-10.61 -7.66,-17 v -326.53 c 0,-7.34 2.71,-13.72 8.14,-19.16 5.43,-5.42 11.81,-8.13 19.17,-8.13 h 193.07 c 14.68,0 29.06,1.99 43.11,5.98 14.05,3.99 26.59,10.29 37.61,18.91 11.01,8.62 19.8,19.64 26.35,33.04 6.55,13.4 9.82,29.69 9.82,48.83 v 0 z m -54.14,0 c 0,-10.53 -1.84,-19.23 -5.51,-26.09 -3.67,-6.87 -8.46,-12.29 -14.37,-16.28 -5.91,-3.99 -12.61,-6.78 -20.12,-8.37 -7.51,-1.6 -15.09,-2.4 -22.76,-2.4 h -166.24 v 110.12 h 166.24 c 20.12,0 35.61,-4.95 46.46,-14.84 10.86,-9.89 16.29,-23.94 16.29,-42.13 v 0 z m 448.89,247.05 c 0,7.34 -2.47,13.24 -7.42,17.72 -4.95,4.46 -10.62,6.7 -17.01,6.7 h -4.79 c -6.39,0 -12.06,-2.24 -17.02,-6.7 -4.94,-4.47 -7.42,-10.37 -7.42,-17.72 v -131.67 h -210.79 v 131.67 c 0,7.34 -2.48,13.24 -7.42,17.72 -4.95,4.46 -10.62,6.7 -17.02,6.7 h -4.79 c -6.38,0 -12.05,-2.24 -17.01,-6.7 -4.95,-4.47 -7.42,-10.37 -7.42,-17.72 v -214.01 c 0,-17.56 1.83,-35.27 5.51,-53.15 3.67,-17.88 11.17,-33.83 22.52,-47.88 11.33,-14.03 27.46,-25.53 48.38,-34.47 20.92,-8.93 48.46,-13.4 82.63,-13.4 34.18,0 61.73,4.47 82.64,13.4 20.92,8.94 37.05,20.44 48.38,34.47 11.34,14.04 18.85,30.01 22.52,47.88 3.68,17.88 5.51,35.59 5.51,53.15 v 214.01 z m -53.66,-214.01 c 0,-13.72 -1.6,-26.42 -4.79,-38.06 -3.19,-11.65 -8.86,-21.71 -17.01,-30.17 -8.14,-8.45 -19.01,-15.08 -32.58,-19.87 -13.57,-4.79 -30.58,-7.18 -51.03,-7.18 -20.76,0 -37.84,2.39 -51.26,7.18 -13.41,4.79 -24.2,11.41 -32.34,19.87 -8.14,8.46 -13.81,18.52 -17.01,30.17 -3.2,11.64 -4.79,24.34 -4.79,38.06 v 28.72 h 210.79 v -28.72 z m 494.41,211.61 c 0,7.34 -2.71,13.64 -8.14,18.92 -5.42,5.26 -11.81,7.9 -19.16,7.9 h -9.1 c -8.94,0 -15.97,-3.35 -21.09,-10.05 l -218.45,-278.17 h -0.96 v 263.81 c 0,6.38 -2.39,12.04 -7.18,17 -4.79,4.94 -10.54,7.42 -17.25,7.42 h -4.8 c -6.38,0 -12.05,-2.48 -17.01,-7.42 -4.95,-4.95 -7.42,-10.61 -7.42,-17 v -326.05 c 0,-7.34 2.71,-13.72 8.14,-19.16 5.43,-5.42 11.81,-8.14 19.17,-8.14 h 13.41 c 3.83,0 7.66,0.96 11.49,2.88 3.83,1.91 7.03,4.46 9.58,7.66 l 213.67,272.9 h 1.44 v -259.5 c 0,-6.7 2.47,-12.45 7.42,-17.24 4.95,-4.79 10.61,-7.18 17.01,-7.18 h 4.79 c 6.71,0 12.45,2.39 17.25,7.18 4.79,4.78 7.19,10.53 7.19,17.24 l -0.01,327 z m 474.29,-166.61 c 0,26.17 -4.55,50.66 -13.65,73.49 -9.1,22.82 -21.8,42.77 -38.08,59.85 -16.29,17.08 -35.61,30.56 -57.97,40.45 -22.36,9.89 -46.79,14.84 -73.3,14.84 h -144.68 c -7.34,0 -13.65,-2.71 -18.93,-8.14 -5.27,-5.42 -7.9,-11.8 -7.9,-19.15 V 2448.8 c 0,-7.34 2.63,-13.72 7.9,-19.16 5.27,-5.42 11.58,-8.13 18.93,-8.13 h 144.68 c 32.58,0 60.44,5.66 83.59,17 23.16,11.32 42.08,25.85 56.78,43.56 14.68,17.72 25.47,37.59 32.34,59.61 6.86,22.03 10.29,43.57 10.29,64.64 z m -53.66,0.48 c 0,-19.8 -3.19,-37.75 -9.58,-53.87 -6.38,-16.11 -15.32,-29.92 -26.83,-41.41 -11.49,-11.49 -25.15,-20.35 -40.96,-26.58 -15.8,-6.22 -33.13,-9.33 -51.98,-9.33 h -117.85 v 265.24 h 117.85 c 23,0 42.63,-4.38 58.93,-13.16 16.28,-8.77 29.7,-19.79 40.24,-33.03 10.53,-13.25 18.21,-27.7 23,-43.33 4.79,-15.64 7.18,-30.48 7.18,-44.52 v 0 z m 538.98,163.85 c 0,7.54 -2.57,13.79 -7.71,18.77 -5.15,4.97 -11.32,7.46 -18.53,7.46 h -3.09 c -7.2,0 -13.37,-2.57 -18.53,-7.72 -5.14,-5.14 -7.71,-11.31 -7.71,-18.51 v -11.31 c -9.95,11.99 -21.36,21.77 -34.22,29.31 -12.86,7.54 -27.71,11.31 -44.51,11.31 -24.02,0 -44.42,-3 -61.24,-9 -16.8,-5.99 -30.53,-14.31 -41.16,-24.94 -10.64,-10.63 -18.36,-23.06 -23.16,-37.28 -4.8,-14.23 -7.21,-29.57 -7.21,-46.03 v -141.93 c 0,-7.54 2.58,-13.79 7.72,-18.77 5.15,-4.97 11.32,-7.46 18.53,-7.46 h 3.09 c 7.2,0 13.37,2.57 18.53,7.71 5.14,5.14 7.71,11.31 7.71,18.52 v 141.93 c 0,10.97 1.29,20.32 3.86,28.03 2.57,7.71 6.86,14.05 12.86,19.03 6,4.97 13.98,8.66 23.93,11.06 9.95,2.4 22.3,3.6 37.05,3.6 9.6,0 19.13,-1.8 28.56,-5.4 9.43,-3.6 17.85,-8.31 25.22,-14.14 7.37,-5.83 13.29,-12.42 17.76,-19.8 4.46,-7.37 6.69,-14.83 6.69,-22.38 v -141.93 c 0,-7.2 2.65,-13.37 7.97,-18.52 5.32,-5.14 11.4,-7.71 18.27,-7.71 h 3.09 c 7.2,0 13.37,2.57 18.53,7.71 5.14,5.14 7.71,11.31 7.71,18.52 v 229.88 z m 380.28,0 c 0,7.54 -2.57,13.79 -7.72,18.77 -5.14,4.97 -11.32,7.46 -18.53,7.46 h -3.6 c -7.2,0 -13.37,-2.57 -18.53,-7.72 -5.14,-5.14 -7.72,-11.31 -7.72,-18.51 v -141.94 c 0,-6.51 -1.28,-13.36 -3.85,-20.57 -2.58,-7.2 -6.78,-13.88 -12.61,-20.06 -5.83,-6.17 -13.71,-11.23 -23.67,-15.17 -9.95,-3.94 -22.3,-5.91 -37.05,-5.91 -9.6,0 -19.04,2.06 -28.3,6.17 -9.26,4.11 -17.5,9.43 -24.71,15.94 -7.2,6.51 -13.03,13.71 -17.5,21.6 -4.45,7.88 -6.68,15.59 -6.68,23.14 v 136.8 c 0,7.19 -2.66,13.36 -7.98,18.51 -5.31,5.15 -11.4,7.72 -18.27,7.72 h -4.12 c -7.2,0 -13.37,-2.57 -18.52,-7.72 -5.15,-5.14 -7.72,-11.31 -7.72,-18.51 v -229.88 c 0,-7.54 2.57,-13.79 7.72,-18.77 5.14,-4.97 11.31,-7.46 18.52,-7.46 h 3.09 c 7.2,0 13.38,2.57 18.53,7.71 5.15,5.14 7.72,11.31 7.72,18.52 v 11.83 c 9.94,-12.34 21.36,-22.29 34.22,-29.83 12.86,-7.54 27.7,-11.31 44.51,-11.31 24.01,0 44.42,3 61.23,8.99 16.81,6 30.54,14.31 41.17,24.95 10.63,10.62 18.36,23.06 23.16,37.28 4.8,14.22 7.2,29.57 7.2,46.02 v 141.94 z m 399.32,0 c 0,7.19 -2.58,13.36 -7.72,18.51 -5.15,5.15 -11.32,7.72 -18.53,7.72 h -3.09 c -7.2,0 -13.37,-2.66 -18.53,-7.97 -5.14,-5.32 -7.71,-11.4 -7.71,-18.26 v -4.12 c -12.01,10.29 -25.82,18.44 -41.42,24.43 -15.61,6 -32.34,9 -50.17,9 -27.1,0 -50.69,-4.03 -70.75,-12.08 -20.08,-8.06 -36.62,-18.86 -49.66,-32.4 -13.03,-13.54 -22.81,-29.23 -29.33,-47.05 -6.52,-17.83 -9.77,-36.34 -9.77,-55.54 0,-19.55 3.17,-38.23 9.51,-56.06 6.35,-17.83 16.04,-33.43 29.08,-46.79 13.03,-13.37 29.59,-24.09 49.65,-32.15 20.07,-8.05 43.82,-12.08 71.27,-12.08 17.84,0 34.56,3 50.17,9 15.6,6 29.42,14.14 41.42,24.43 v -136.79 c 0,-7.2 2.57,-13.37 7.72,-18.52 5.14,-5.14 11.31,-7.71 18.52,-7.71 h 3.09 c 7.2,0 13.38,2.48 18.53,7.45 5.15,4.97 7.72,11.23 7.72,18.78 v 368.21 z m -49.4,-116.22 c 0,-5.83 -0.34,-11.4 -1.03,-16.71 -0.68,-5.31 -1.37,-9.85 -2.06,-13.62 -1.03,-4.46 -2.05,-8.57 -3.08,-12.34 -7.89,-15.42 -19.82,-28.12 -35.77,-38.06 -15.94,-9.93 -34.56,-14.9 -55.83,-14.9 -17.5,0 -32.68,2.57 -45.54,7.71 -12.86,5.14 -23.41,11.99 -31.65,20.57 -8.23,8.57 -14.4,18.52 -18.53,29.83 -4.11,11.31 -6.17,23.32 -6.17,36 0,12.34 2.06,24.17 6.17,35.48 4.12,11.31 10.38,21.35 18.79,30.08 8.4,8.74 18.96,15.69 31.65,20.84 12.69,5.14 27.79,7.71 45.28,7.71 21.27,0 39.88,-4.97 55.84,-14.91 15.94,-9.94 27.87,-22.63 35.76,-38.06 2.4,-6.85 4.03,-13.62 4.89,-20.31 0.85,-6.69 1.28,-13.11 1.28,-19.29 v 0 z m 449.23,86.4 c 0,10.62 -5.58,19.63 -16.72,27 -11.15,7.37 -24.36,13.45 -39.62,18.26 -15.26,4.8 -30.71,8.31 -46.31,10.54 -15.61,2.23 -27.88,3.34 -36.79,3.34 -21.96,0 -42.45,-3.17 -61.5,-9.51 -19.04,-6.34 -35.68,-15.68 -49.91,-28.03 -14.23,-12.34 -25.47,-27.68 -33.7,-46.02 -8.23,-18.35 -12.35,-39.51 -12.35,-63.51 0,-24 4.12,-45.17 12.35,-63.51 8.23,-18.35 19.47,-33.69 33.7,-46.03 14.23,-12.34 30.88,-21.69 49.91,-28.03 19.05,-6.34 39.54,-9.51 61.5,-9.51 20.93,0 39.96,2.83 57.12,8.49 17.16,5.65 31.82,13.71 43.99,24.17 12.18,10.45 21.62,23.32 28.31,38.57 6.68,15.25 10.03,32.48 10.03,51.68 0,15.43 -5.49,27.95 -16.47,37.54 -10.97,9.6 -24.18,14.4 -39.62,14.4 h -183.7 c 5.83,21.6 17.93,38.31 36.28,50.13 18.36,11.83 39.88,17.75 64.58,17.75 9.26,0 18.53,-0.94 27.79,-2.83 9.26,-1.88 18.1,-4.28 26.5,-7.19 8.4,-2.92 16.29,-6.17 23.68,-9.77 7.37,-3.6 13.63,-6.94 18.78,-10.03 4.46,-2.74 9.09,-4.11 13.89,-4.11 7.89,0 14.58,2.4 20.08,7.2 5.48,4.8 8.23,11.14 8.23,19.03 v 0 z m -59.7,-127.54 c -0.34,-10.28 -3,-19.03 -7.97,-26.23 -4.97,-7.2 -11.32,-13.02 -19.05,-17.49 -7.71,-4.45 -16.2,-7.62 -25.47,-9.51 -9.26,-1.88 -18.01,-2.83 -26.24,-2.83 -12.35,0 -24.02,1.72 -35,5.14 -10.97,3.43 -20.93,8.4 -29.84,14.91 -8.92,6.51 -16.47,14.23 -22.65,23.15 -6.17,8.91 -10.63,18.86 -13.37,29.83 h 168.26 c 5.15,0 8.32,-1.55 9.52,-4.63 1.2,-3.09 1.8,-7.2 1.8,-12.34 v 0 z m 354.55,-70.97 c 0,6.52 -1.38,11.49 -4.12,14.91 -2.74,3.43 -5.83,6 -9.26,7.71 -3.77,2.06 -8.23,3.26 -13.38,3.6 -15.09,0 -28.38,2.23 -39.87,6.69 -11.49,4.45 -21.19,10.02 -29.08,16.7 -7.89,6.69 -13.89,13.8 -18.01,21.35 -4.12,7.54 -6.18,14.4 -6.18,20.57 v 136.8 c 0,7.19 -2.65,13.36 -7.97,18.51 -5.32,5.15 -11.4,7.72 -18.27,7.72 h -3.6 c -7.21,0 -13.38,-2.57 -18.53,-7.72 -5.15,-5.14 -7.72,-11.31 -7.72,-18.51 v -229.88 c 0,-7.54 2.57,-13.79 7.72,-18.77 5.14,-4.97 11.32,-7.46 18.53,-7.46 h 3.08 c 7.2,0 13.38,2.57 18.53,7.71 5.15,5.14 7.72,11.31 7.72,18.52 v 11.83 c 11.66,-14.4 23.24,-24.78 34.73,-31.12 11.49,-6.34 26.33,-9.51 44.51,-9.51 2.4,0 4.8,0 7.2,0 2.4,0 4.98,0.17 7.72,0.52 7.54,0.68 13.8,3.42 18.79,8.22 4.97,4.8 7.46,10.8 7.46,18 v 3.6 z m 514.88,198.32 c 0,6.86 -2.57,13.11 -7.71,18.77 -5.15,5.65 -11.92,10.7 -20.32,15.16 -8.4,4.45 -17.75,8.22 -28.04,11.3 -10.28,3.09 -20.57,5.66 -30.86,7.71 -10.28,2.06 -20.06,3.6 -29.31,4.63 -9.26,1.02 -16.8,1.54 -22.64,1.54 -21.94,0 -42.51,-3.17 -61.72,-9.51 -19.2,-6.34 -35.91,-15.67 -50.14,-28.01 -14.22,-12.34 -25.46,-27.68 -33.69,-46 -8.22,-18.34 -12.34,-39.49 -12.34,-63.48 0,-24.33 4.2,-45.66 12.6,-64 8.4,-18.33 19.81,-33.66 34.2,-46 14.4,-12.33 31.12,-21.59 50.14,-27.75 19.04,-6.17 39.35,-9.25 60.95,-9.25 6.86,0 14.91,0.6 24.18,1.8 9.25,1.2 18.86,2.91 28.8,5.13 9.94,2.23 19.72,5.06 29.32,8.48 9.6,3.43 18.26,7.37 25.98,11.82 7.71,4.45 13.96,9.42 18.77,14.9 4.8,5.48 7.2,11.48 7.2,18 0,7.88 -2.74,14.21 -8.22,19.02 -5.49,4.8 -12.17,7.19 -20.07,7.19 -4.8,0 -9.43,-1.37 -13.88,-4.11 -5.14,-3.08 -10.97,-6.33 -17.49,-9.76 -6.52,-3.43 -13.54,-6.59 -21.09,-9.51 -7.54,-2.91 -15.69,-5.31 -24.44,-7.19 -8.74,-1.88 -17.92,-2.83 -27.51,-2.83 -18.87,0 -34.81,2.91 -47.83,8.74 -13.03,5.82 -23.49,13.27 -31.38,22.36 -7.88,9.08 -13.62,19.28 -17.23,30.58 -3.6,11.31 -5.4,22.62 -5.4,33.93 0,10.27 1.71,20.9 5.14,31.87 3.43,10.96 9.17,20.99 17.24,30.07 8.05,9.07 18.52,16.52 31.37,22.36 12.86,5.82 28.55,8.73 47.06,8.73 9.25,0 18.52,-0.85 27.77,-2.57 9.26,-1.71 18.09,-4.02 26.49,-6.93 8.4,-2.91 16.2,-6.08 23.41,-9.51 7.2,-3.42 13.37,-6.68 18.52,-9.76 4.45,-2.74 9.08,-4.11 13.88,-4.11 7.88,0 14.57,2.4 20.06,7.19 5.49,4.8 8.23,11.13 8.23,19.02 v 0 z m 388.31,-87.89 c 0,19.19 -3.26,37.69 -9.77,55.51 -6.52,17.83 -16.28,33.5 -29.32,47.03 -13.03,13.53 -29.58,24.33 -49.63,32.38 -20.06,8.05 -43.63,12.08 -70.72,12.08 -27.09,0 -50.65,-4.03 -70.71,-12.08 -20.07,-8.05 -36.61,-18.85 -49.63,-32.38 -13.03,-13.53 -22.81,-29.21 -29.32,-47.03 -6.51,-17.82 -9.77,-36.32 -9.77,-55.51 0,-19.54 3.17,-38.12 9.51,-55.78 6.34,-17.65 16.11,-33.23 29.32,-46.77 13.2,-13.53 29.75,-24.33 49.63,-32.38 19.89,-8.05 43.54,-12.07 70.97,-12.07 27.44,0 51.18,4.02 71.24,12.07 20.06,8.05 36.6,18.77 49.62,32.13 13.03,13.36 22.72,28.95 29.06,46.77 6.35,17.82 9.52,36.49 9.52,56.03 z m -57.61,0 c 0,-12.68 -2.06,-24.68 -6.17,-35.98 -4.11,-11.31 -10.28,-21.25 -18.52,-29.82 -8.23,-8.56 -18.78,-15.41 -31.63,-20.56 -12.86,-5.14 -28.03,-7.71 -45.52,-7.71 -17.49,0 -32.66,2.57 -45.51,7.71 -12.85,5.14 -23.4,11.99 -31.63,20.56 -8.23,8.57 -14.4,18.6 -18.52,30.07 -4.11,11.48 -6.17,23.39 -6.17,35.73 0,12.33 2.06,24.16 6.17,35.46 4.11,11.31 10.37,21.34 18.78,30.07 8.39,8.74 18.94,15.67 31.63,20.82 12.68,5.14 27.77,7.71 45.25,7.71 17.5,0 32.58,-2.57 45.26,-7.71 12.68,-5.14 23.23,-12.07 31.63,-20.82 8.4,-8.73 14.66,-18.76 18.78,-30.07 4.11,-11.3 6.17,-23.13 6.17,-35.46 z m 427.4,117.7 c 0,7.53 -2.57,13.79 -7.71,18.76 -5.14,4.97 -11.31,7.45 -18.52,7.45 h -3.6 c -7.2,0 -13.37,-2.57 -18.52,-7.7 -5.14,-5.14 -7.71,-11.31 -7.71,-18.51 v -141.86 c 0,-6.51 -1.29,-13.36 -3.86,-20.57 -2.57,-7.19 -6.77,-13.87 -12.59,-20.05 -5.83,-6.16 -13.71,-11.22 -23.67,-15.16 -9.94,-3.93 -22.29,-5.9 -37.03,-5.9 -9.59,0 -19.03,2.05 -28.28,6.16 -9.26,4.11 -17.5,9.42 -24.7,15.93 -7.19,6.51 -13.02,13.7 -17.49,21.59 -4.45,7.88 -6.68,15.59 -6.68,23.13 v 136.73 c 0,7.19 -2.66,13.36 -7.97,18.5 -5.31,5.14 -11.4,7.71 -18.26,7.71 h -4.12 c -7.19,0 -13.37,-2.57 -18.52,-7.71 -5.14,-5.13 -7.71,-11.3 -7.71,-18.5 v -229.76 c 0,-7.54 2.57,-13.79 7.71,-18.77 5.14,-4.96 11.31,-7.45 18.52,-7.45 h 3.09 c 7.2,0 13.37,2.57 18.52,7.71 5.14,5.14 7.71,11.3 7.71,18.51 v 11.82 c 9.94,-12.34 21.35,-22.28 34.2,-29.82 12.86,-7.53 27.69,-11.3 44.49,-11.3 24.01,0 44.4,3 61.21,8.99 16.79,6 30.51,14.3 41.14,24.93 10.63,10.62 18.35,23.05 23.15,37.27 4.8,14.21 7.2,29.55 7.2,46 l -0.01,141.86 z m 316.31,-226.16 c 0,6.85 -2.57,12.93 -7.71,18.25 -5.15,5.31 -11.31,7.96 -18.52,7.96 h -75.61 v 76.07 c 0,19.88 2.49,36.24 7.46,49.08 4.97,12.85 10.54,23.22 16.71,31.1 7.2,8.91 15.43,15.93 24.69,21.08 3.77,2.4 6.69,5.39 8.74,8.99 2.06,3.6 3.09,8.31 3.09,14.13 0,8.57 -3.52,14.99 -10.54,19.28 -7.03,4.28 -14.49,6.42 -22.38,6.42 -6.86,0 -15.17,-2.99 -24.95,-8.99 -9.77,-5.99 -19.12,-15.33 -28.03,-28.01 -8.91,-12.68 -16.54,-28.53 -22.89,-47.54 -6.34,-19.03 -9.51,-41.72 -9.51,-68.11 v -73.5 h -63.78 c -6.85,0 -12.94,-2.65 -18.26,-7.96 -5.31,-5.31 -7.97,-11.39 -7.97,-18.25 v -3.09 c 0,-7.19 2.66,-13.36 7.97,-18.51 5.31,-5.13 11.4,-7.7 18.26,-7.7 h 63.78 v -81.72 c 0,-7.88 2.66,-14.22 7.97,-19.03 5.31,-4.79 11.4,-7.19 18.26,-7.19 h 5.14 c 6.86,0 12.94,2.4 18.27,7.19 5.31,4.8 7.97,11.14 7.97,19.03 v 81.72 h 75.6 c 7.2,0 13.37,2.57 18.52,7.7 5.14,5.14 7.71,11.31 7.71,18.51 v 3.09 z m 263.33,-2.06 c 0,6.51 -1.37,11.48 -4.11,14.9 -2.74,3.43 -5.83,6 -9.25,7.71 -3.77,2.06 -8.23,3.25 -13.37,3.6 -15.08,0 -28.38,2.22 -39.86,6.68 -11.48,4.45 -21.18,10.02 -29.06,16.7 -7.88,6.68 -13.88,13.78 -18.01,21.33 -4.11,7.54 -6.17,14.39 -6.17,20.56 v 136.73 c 0,7.19 -2.65,13.36 -7.97,18.5 -5.31,5.14 -11.39,7.71 -18.26,7.71 h -3.6 c -7.2,0 -13.37,-2.57 -18.52,-7.71 -5.14,-5.13 -7.71,-11.3 -7.71,-18.5 v -229.76 c 0,-7.54 2.57,-13.79 7.71,-18.77 5.14,-4.96 11.31,-7.45 18.52,-7.45 h 3.09 c 7.19,0 13.36,2.57 18.52,7.71 5.14,5.14 7.71,11.3 7.71,18.51 v 11.82 c 11.65,-14.39 23.23,-24.76 34.71,-31.1 11.49,-6.34 26.32,-9.51 44.49,-9.51 2.4,0 4.8,0 7.2,0 2.4,0 4.97,0.17 7.71,0.52 7.54,0.68 13.8,3.42 18.78,8.22 4.97,4.79 7.45,10.79 7.45,17.99 v 3.6 z m 380.6,110.51 c 0,19.19 -3.26,37.69 -9.77,55.51 -6.51,17.83 -16.28,33.5 -29.32,47.03 -13.02,13.53 -29.57,24.33 -49.62,32.38 -20.07,8.05 -43.63,12.08 -70.72,12.08 -27.09,0 -50.66,-4.03 -70.72,-12.08 -20.06,-8.05 -36.6,-18.85 -49.63,-32.38 -13.02,-13.53 -22.8,-29.21 -29.32,-47.03 -6.51,-17.82 -9.76,-36.32 -9.76,-55.51 0,-19.54 3.17,-38.12 9.51,-55.78 6.34,-17.65 16.11,-33.23 29.31,-46.77 13.2,-13.53 29.75,-24.33 49.63,-32.38 19.89,-8.05 43.55,-12.07 70.98,-12.07 27.43,0 51.18,4.02 71.23,12.07 20.06,8.05 36.6,18.77 49.63,32.13 13.02,13.36 22.72,28.95 29.06,46.77 6.34,17.82 9.51,36.49 9.51,56.03 z m -57.61,0 c 0,-12.68 -2.05,-24.68 -6.17,-35.98 -4.11,-11.31 -10.28,-21.25 -18.52,-29.82 -8.22,-8.56 -18.77,-15.41 -31.63,-20.56 -12.85,-5.14 -28.03,-7.71 -45.51,-7.71 -17.49,0 -32.66,2.57 -45.52,7.71 -12.85,5.14 -23.4,11.99 -31.63,20.56 -8.23,8.57 -14.39,18.6 -18.52,30.07 -4.11,11.48 -6.17,23.39 -6.17,35.73 0,12.33 2.06,24.16 6.17,35.46 4.11,11.31 10.37,21.34 18.78,30.07 8.4,8.74 18.95,15.67 31.63,20.82 12.68,5.14 27.78,7.71 45.26,7.71 17.49,0 32.57,-2.57 45.25,-7.71 12.69,-5.14 23.24,-12.07 31.64,-20.82 8.39,-8.73 14.65,-18.76 18.77,-30.07 4.12,-11.3 6.17,-23.13 6.17,-35.46 z m 278.76,118.21 c 0,8.57 -3.51,14.99 -10.54,19.28 -7.02,4.28 -14.48,6.42 -22.37,6.42 -6.86,0 -15.17,-2.99 -24.95,-8.99 -9.77,-5.99 -19.12,-15.33 -28.03,-28.01 -8.91,-12.68 -16.54,-28.53 -22.89,-47.54 -6.34,-19.03 -9.51,-41.72 -9.51,-68.11 v -241.58 c 0,-7.87 2.65,-14.21 7.96,-19.02 5.32,-4.79 11.4,-7.19 18.27,-7.19 h 5.14 c 6.86,0 12.94,2.4 18.26,7.19 5.32,4.8 7.97,11.14 7.97,19.02 v 244.15 c 0,19.88 2.49,36.24 7.46,49.08 4.97,12.85 10.54,23.22 16.71,31.1 7.2,8.91 15.42,15.93 24.69,21.08 3.77,2.4 6.68,5.39 8.74,8.99 2.06,3.6 3.08,8.31 3.08,14.13 v 0 z"
   class=" bl-fill-2"
   data-color-origin="#24394b"
   data-color-type="fill"
   id="path2" />
        <path
   fill="#fefefe"
   fill-rule="nonzero"
   d="m 2808.96,1443.12 c 0,45.96 -2.25,91.83 -6.76,137.57 -4.51,45.75 -11.25,91.17 -20.23,136.25 -8.97,45.09 -20.14,89.63 -33.49,133.62 -13.35,43.98 -28.83,87.22 -46.43,129.69 -17.61,42.47 -37.24,83.97 -58.93,124.52 -21.69,40.54 -45.3,79.92 -70.86,118.14 -25.55,38.22 -52.92,75.1 -82.1,110.63 -29.18,35.53 -60.03,69.55 -92.56,102.06 -32.53,32.5 -66.57,63.34 -102.12,92.5 -35.56,29.17 -72.46,56.52 -110.71,82.05 -38.24,25.54 -77.65,49.14 -118.21,70.81 -40.57,21.68 -82.1,41.3 -124.6,58.9 -42.5,17.59 -85.76,33.06 -129.78,46.4 -44.01,13.34 -88.58,24.5 -133.69,33.47 -45.12,8.96 -90.57,15.7 -136.34,20.21 -45.77,4.51 -91.67,6.76 -137.66,6.76 -46,0 -91.89,-2.25 -137.67,-6.76 -45.77,-4.5 -91.22,-11.24 -136.33,-20.21 -45.12,-8.97 -89.69,-20.13 -133.7,-33.47 -44.02,-13.34 -87.28,-28.82 -129.78,-46.4 -42.49,-17.6 -84.02,-37.22 -124.6,-58.9 -40.56,-21.67 -79.97,-45.27 -118.21,-70.81 -38.25,-25.54 -75.15,-52.89 -110.7,-82.05 -35.56,-29.16 -69.6,-60 -102.13,-92.5 -32.52,-32.51 -63.38,-66.53 -92.56,-102.06 -29.18,-35.53 -56.55,-72.41 -82.1,-110.63 -25.56,-38.22 -49.17,-77.6 -70.86,-118.14 -21.69,-40.54 -41.32,-82.04 -58.93,-124.52 C 89.31,1937.78 73.84,1894.54 60.49,1850.56 47.14,1806.57 35.97,1762.03 27,1716.94 18.03,1671.86 11.29,1626.44 6.77,1580.69 2.26,1534.95 0.01,1489.08 0.01,1443.12 c 0,-45.97 2.25,-91.83 6.76,-137.58 4.51,-45.74 11.25,-91.16 20.23,-136.25 8.97,-45.08 20.14,-89.62 33.49,-133.61 13.35,-43.99 28.83,-87.23 46.43,-129.69 17.61,-42.47 37.24,-83.97 58.93,-124.52 21.69,-40.54 45.3,-79.92 70.86,-118.14 25.56,-38.22 52.93,-75.1 82.1,-110.63 29.18,-35.54 60.04,-69.56 92.56,-102.06 32.53,-32.51 66.57,-63.34 102.13,-92.51 35.55,-29.16 72.45,-56.51 110.7,-82.05 38.24,-25.54 77.65,-49.13 118.21,-70.81 40.57,-21.67 82.1,-41.3 124.6,-58.89 42.5,-17.6 85.76,-33.06 129.78,-46.4 44.01,-13.34 88.59,-24.51 133.7,-33.47 45.11,-8.97 90.56,-15.7 136.33,-20.22 45.78,-4.5 91.67,-6.75 137.67,-6.75 45.99,0 91.89,2.25 137.66,6.75 45.77,4.51 91.22,11.24 136.33,20.22 45.12,8.96 89.69,20.13 133.7,33.47 44.02,13.34 87.28,28.81 129.78,46.4 42.49,17.59 84.02,37.22 124.6,58.89 40.56,21.68 79.97,45.27 118.21,70.81 38.25,25.55 75.15,52.9 110.71,82.05 35.55,29.17 69.59,60 102.12,92.51 32.53,32.5 63.38,66.52 92.56,102.06 29.19,35.53 56.56,72.41 82.1,110.63 25.56,38.22 49.17,77.6 70.86,118.14 21.69,40.54 41.32,82.04 58.93,124.52 17.61,42.46 33.08,85.7 46.43,129.69 13.35,43.99 24.52,88.53 33.49,133.61 8.97,45.09 15.71,90.51 20.23,136.25 4.51,45.75 6.76,91.61 6.76,137.58 z"
   class=" bl-fill-3"
   data-color-origin="#fefefe"
   data-color-type="fill"
   id="path3" />
        <path
   fill="#ff6b05"
   d="m 1404.49,120.61 c 379.2,0 721.15,159.47 962.44,414.98 -81.83,159.77 -170.38,315.61 -265.37,466.93 -222.76,-313.87 -470.83,-608.53 -741.12,-881.14 14.63,-0.47 29.29,-0.77 44.04,-0.77 v 0 z m 1155.95,678.42 c 106.59,190.63 167.41,410.28 167.41,644.1 0,162.4 -29.39,317.98 -83.04,461.72 -110.41,-219.25 -232,-431.92 -364.06,-637.23 99.6,-151.84 192.89,-308.21 279.69,-468.59 z m -276.97,1632.48 c -233.76,207.78 -541.62,334.13 -878.98,334.13 -141.43,0 -277.63,-22.3 -405.39,-63.37 342.2,-284.26 654.59,-603.11 931.81,-951.19 130.47,218.79 248.28,445.91 352.56,680.43 z M 702.53,2564.23 C 329.37,2330.37 81.12,1915.68 81.12,1443.13 c 0,-490.78 267.59,-919.16 664.86,-1147.38 385.61,353.62 728.08,753.56 1018.51,1190.98 -308.62,401.08 -665.55,763.06 -1061.95,1077.5 z"
   class=" bl-fill-4"
   data-color-origin="#ff6b05"
   data-color-type="fill"
   id="path4" />
        <path
   fill="url(#9854b533-7ac0-4c58-be73-2dd7ae25ee28a)"
   d="M 520.95,2427.36 C 673.41,1878.72 981.87,1382.03 1408.94,1001.79 1205.82,750.16 984.09,514.15 745.96,295.75 348.69,523.97 81.1,952.35 81.1,1443.13 c 0,390.88 169.92,742.12 439.83,984.23 h 0.01 z M 1854.11,674.6 c 137.41,-82.33 282.89,-154.22 435.67,-214.41 -234.49,-211.1 -544.9,-339.58 -885.3,-339.58 -14.75,0 -29.41,0.3 -44.04,0.77 174.03,175.53 338.91,360.16 493.68,553.22 v 0 z"
   id="path5"
   style="fill:url(#9854b533-7ac0-4c58-be73-2dd7ae25ee28a)" />
    </g>
</svg>
