<?xml version="1.0" encoding="utf-8"?>
<!-- Generator: Adobe Illustrator 25.2.1, SVG Export Plug-In . SVG Version: 6.00 Build 0)  -->
<svg version="1.1"
	 id="svg5" shape-rendering="geometricPrecision" image-rendering="optimizeQuality" text-rendering="geometricPrecision" xmlns:inkscape="http://www.inkscape.org/namespaces/inkscape" xmlns:sodipodi="http://sodipodi.sourceforge.net/DTD/sodipodi-0.dtd" xmlns:svg="http://www.w3.org/2000/svg"
	 xmlns="http://www.w3.org/2000/svg" xmlns:xlink="http://www.w3.org/1999/xlink" x="0px" y="0px" viewBox="0 0 14425.5 3061.5"
	 style="enable-background:new 0 0 14425.5 3061.5;" xml:space="preserve">
<style type="text/css">
	.st0{fill-rule:evenodd;clip-rule:evenodd;fill:#FFFFFF;}
	.st1{fill:#FEFEFE;}
	.st2{fill-rule:evenodd;clip-rule:evenodd;fill:#FF6B05;}
	.st3{fill-rule:evenodd;clip-rule:evenodd;fill:url(#path5_1_);}
</style>
<sodipodi:namedview  bordercolor="#000000" borderopacity="0.25" id="namedview1" inkscape:deskcolor="#d1d1d1" inkscape:pagecheckerboard="0" inkscape:pageopacity="0.0" inkscape:showpageshadow="2" pagecolor="#ffffff">
	</sodipodi:namedview>
<path id="path2" class="st0" d="M4905.9,2120.2c0,43.4-14.6,81.2-43.9,113.2c-29.3,32.1-65.6,48.1-109.1,48.1
	c-24.5,0-48.2-6.1-70.8-18.4c-22.7-12.3-41.5-27.8-56.7-46.7l-458.9-546.3l-458.9,546.3c-15.1,18.9-34,34.4-56.7,46.7
	c-22.7,12.3-46.2,18.4-70.8,18.4c-43.4,0-79.8-16-109.1-48.1c-29.3-32.1-43.9-69.8-43.9-113.2c0-32,10.4-63.2,31.2-93.4l501.4-597.3
	L3588.7,985c-11.3-13.2-19.4-27.8-24.1-43.9c-4.7-16-7.1-32.5-7.1-49.5c0-43.4,14.6-81.2,43.9-113.2c29.3-32.1,65.6-48.1,109.1-48.1
	c24.6,0,48.1,6.1,70.8,18.4c22.7,12.3,41.6,27.9,56.7,46.7l328.6,402l328.6-402c15.1-18.9,34-34.5,56.7-46.7
	c22.7-12.3,46.3-18.4,70.8-18.4c43.4,0,79.8,16,109.1,48.1c29.3,32.1,43.9,69.8,43.9,113.2c0,17-2.4,33.5-7.1,49.5
	c-4.7,16.1-12.7,30.7-24.1,43.9l-371.1,444.5l501.4,597.3C4895.5,2057,4905.9,2088.2,4905.9,2120.2z M6947.8,1489
	c0,105.7-17.9,207.6-53.8,305.8c-35.9,98.1-89.7,184.4-161.5,259c-71.8,74.5-162.9,134-273.3,178.3
	c-110.5,44.4-240.3,66.6-389.5,66.6c-98.2,0-190.2-16.6-276.2-49.5c-85.9-33.1-161.9-77.9-228-134.5v714.9
	c0,37.7-14.2,71.3-42.5,100.5c-28.3,29.3-62.3,43.9-102,43.9h-17c-39.6,0-73.6-14.1-102-42.5c-28.3-28.2-42.5-62.3-42.5-101.9V871.8
	c0-41.5,14.2-75.9,42.5-103.3c28.3-27.4,62.3-41,102-41h17c39.7,0,73.6,14.1,102,42.5c28.3,28.3,42.5,62.3,42.5,101.9v19.8
	c73.6-66,154.4-118,242.2-155.7c87.8-37.7,175.2-56.6,262-56.6c151.1,0,281.9,22.2,392.3,66.5c110.5,44.4,201.6,103.4,273.3,176.9
	c71.8,73.6,125.1,159.5,160,257.7C6930.3,1278.6,6947.8,1381.4,6947.8,1489L6947.8,1489z M6630.6,1489c0-69.8-11.3-135.9-34-198.2
	c-22.7-62.3-56.6-117-102-164.2c-45.3-47.2-103.4-84.9-174.2-113.2c-70.8-28.3-154.4-42.4-250.7-42.4
	c-117.1,0-219.5,27.4-307.3,82.1c-87.8,54.7-153.5,124.6-196.9,209.5c-5.7,20.8-11.3,43.5-17,68c-3.8,20.7-7.5,45.7-11.3,75
	c-3.8,29.3-5.7,60-5.7,92.1c0,33.9,2.4,69.3,7.1,106.1c4.7,36.7,13.7,74,26.9,111.8c43.4,85,109.1,154.8,196.9,209.5
	c87.8,54.7,190.3,82.1,307.3,82.1c96.3,0,179.4-14.2,249.3-42.5c69.9-28.3,127.9-66.5,174.2-114.6c46.2-48.1,80.7-103.4,103.4-165.7
	C6619.2,1622,6630.6,1556.9,6630.6,1489L6630.6,1489L6630.6,1489z M8270.3,880.3c0,35.8-7.6,63.2-22.7,82.1
	c-15.1,18.9-32.1,33-51,42.5c-20.8,11.3-45.3,17.9-73.6,19.8c-83.1,0-156.3,12.3-219.5,36.8c-63.3,24.5-116.6,55.2-160,92
	c-43.4,36.8-76.5,76-99.1,117.5c-22.7,41.5-34,79.3-34,113.2v753c0,39.6-14.6,73.6-43.9,101.9c-29.3,28.4-62.8,42.4-100.6,42.4H7446
	c-39.6,0-73.6-14.1-102-42.4c-28.3-28.3-42.5-62.3-42.5-101.9V871.8c0-41.5,14.2-75.9,42.5-103.3c28.3-27.4,62.3-41,102-41h17
	c39.6,0,73.6,14.1,102,42.5c28.4,28.3,42.5,62.3,42.5,101.9v65.1c64.2-79.2,127.9-136.3,191.2-171.3c63.3-34.9,144.9-52.3,245-52.3
	c13.2,0,26.5,0,39.7,0c13.2,0,27.4,1,42.5,2.8c41.5,3.8,76,18.9,103.4,45.3c27.4,26.4,41.1,59.5,41.1,99.1L8270.3,880.3
	L8270.3,880.3L8270.3,880.3z M8904.4,277.3c0,54.7-18.9,100.5-56.7,137.3c-37.8,36.8-82.1,55.2-133.2,55.2
	c-54.8,0-100.1-19.4-136-58c-35.9-38.6-53.8-83.5-53.8-134.5s18-95.3,53.8-133.1c35.9-37.8,81.2-56.6,136-56.6
	c54.8,0,100.1,18,136,53.8C8886.4,177.3,8904.4,222.6,8904.4,277.3L8904.4,277.3z M8870.4,2137.2c0,37.7-14.2,71.2-42.5,100.5
	c-28.3,29.2-62.3,43.8-102,43.8h-22.7c-39.7,0-73.6-14.1-102-42.4c-28.3-28.3-42.5-62.3-42.5-101.9V874.7c0-41.5,14.2-76,42.5-103.4
	c28.3-27.3,62.3-41,102-41h22.7c39.7,0,73.6,14.2,102,42.4c28.3,28.3,42.5,62.3,42.5,102V2137.2z M10855.7,2137.2
	c0,41.5-14.2,75.9-42.5,103.3c-28.3,27.4-62.3,41-102,41h-19.8c-39.7,0-73.6-14.1-102-42.4c-28.3-28.3-42.5-62.3-42.5-101.9v-781.3
	c0-35.8-7.1-73.6-21.3-113.2c-14.2-39.7-37.3-76.5-69.4-110.4c-32.1-34-75.5-61.8-130.3-83.5c-54.8-21.7-122.8-32.6-203.9-32.6
	c-52.9,0-104.8,11.3-155.8,34c-51,22.6-96.3,51.8-136,87.7c-39.7,35.9-71.8,75.5-96.3,118.9c-24.5,43.4-36.8,85.9-36.8,127.4v753
	c0,39.6-14.6,73.6-43.9,101.9c-29.3,28.4-62.8,42.4-100.6,42.4H9530c-39.7,0-73.7-14.1-102-42.4c-28.3-28.3-42.5-62.3-42.5-101.9
	V871.8c0-41.5,14.2-75.9,42.5-103.3c28.3-27.4,62.3-41,102-41h17c39.7,0,73.6,14.1,102,42.5c28.3,28.3,42.5,62.3,42.5,101.9V937
	c54.8-67.9,117.5-122.7,188.4-164.2c70.8-41.5,152.5-62.3,245-62.3c132.2,0,244.5,16.5,337.1,49.5c92.5,33,168.1,78.8,226.6,137.3
	c58.5,58.5,101,127,127.5,205.2c26.4,78.4,39.7,162.8,39.7,253.4L10855.7,2137.2L10855.7,2137.2L10855.7,2137.2z M12384.9,891.6
	c0,37.7-14.2,71.3-42.5,100.5c-28.3,29.2-62.3,43.9-102,43.9H11824v419c0,109.4,13.7,199.5,41.1,270.3
	c27.4,70.7,58.1,127.8,92.1,171.2c39.7,49.1,85,87.8,136,116.1c20.8,13.2,36.8,29.7,48.2,49.5c11.3,19.8,17,45.7,17,77.8
	c0,47.2-19.4,82.6-58.1,106.2c-38.7,23.6-79.8,35.4-123.2,35.4c-37.8,0-83.5-16.5-137.4-49.5c-53.8-33-105.3-84.4-154.4-154.3
	c-49.1-69.8-91.1-157.1-126-261.9c-34.9-104.8-52.4-229.8-52.4-375V1036h-351.2c-37.8,0-71.3-14.7-100.6-43.9
	c-29.3-29.2-43.9-62.8-43.9-100.5v-17c0-39.7,14.6-73.6,43.9-102c29.3-28.3,62.8-42.5,100.6-42.5h351.2V280.2
	c0-43.4,14.6-78.4,43.9-104.8c29.3-26.4,62.8-39.6,100.6-39.6h28.3c37.8,0,71.3,13.2,100.6,39.6c29.3,26.4,43.9,61.4,43.9,104.8
	v450.1h416.4c39.7,0,73.7,14.2,102,42.5c28.3,28.3,42.5,62.3,42.5,102L12384.9,891.6L12384.9,891.6L12384.9,891.6z M14106.7,2137.2
	c0,37.7-14.2,71.2-42.5,100.5c-28.3,29.2-62.3,43.8-102,43.8h-17c-39.6,0-73.6-14.1-102-42.4c-28.3-28.3-42.5-62.3-42.5-101.9v-79.3
	c-37.8,22.7-82.1,48.1-133.1,76.4c-51,28.3-107.7,54.7-170,79.2c-62.3,24.5-128.4,44.8-198.3,60.9c-69.9,16-142.5,24.1-218.1,24.1
	c-79.3,0-152.5-12.7-219.5-38.2c-67-25.5-124.2-61.3-171.4-107.6c-47.2-46.2-84-101-110.5-164.1c-26.5-63.2-39.7-133.6-39.7-210.9
	c0-75.4,13.2-142.9,39.7-202.4c26.4-59.4,63.2-109.9,110.5-151.4c47.2-41.6,104.3-72.7,171.4-93.4c67-20.8,140.2-31.1,219.5-31.1
	h711c-7.5-90.6-50-164.7-127.5-222.3c-77.4-57.5-186-86.4-325.8-86.4c-69.9,0-133.2,8-189.8,24.1c-56.7,16.1-106.7,33-150.1,51
	c-43.4,17.9-81.7,35-114.7,51c-33,16-59.9,24.1-80.7,24.1c-43.4,0-81.2-12.8-113.3-38.2c-32.1-25.5-48.2-59.9-48.2-103.3
	c0-54.7,26.9-101,80.7-138.8c53.8-37.7,118.5-68.9,194-93.4c75.5-24.5,152.5-42,230.9-52.3c78.3-10.4,142.1-15.6,191.2-15.6
	c105.8,0,205.4,12.3,298.8,36.8c93.5,24.5,174.7,64.7,243.6,120.3c68.9,55.7,123.7,129.3,164.3,220.8
	c40.6,91.6,60.9,204.3,60.9,338.3L14106.7,2137.2L14106.7,2137.2L14106.7,2137.2z M13800.8,1576.7h-719.5
	c-58.5,0-112.4,15.1-161.5,45.3c-49.1,30.2-73.7,80.2-73.7,150c0,66.1,22.7,121.8,68,167c45.3,45.3,101,68,167.1,68
	c85,0,161-7.6,228-22.7c67-15.1,128.9-34.4,185.5-58c56.7-23.6,109.5-49.5,158.6-77.9c49.1-28.3,98.2-56.6,147.3-84.9
	L13800.8,1576.7L13800.8,1576.7L13800.8,1576.7z M14129.2,404.6c7-1.2,15.6-1.2,27.9-1.2c33.6,0,47.9,15,47.9,35
	c0,24-22.5,33.8-52,33.8h-23.8L14129.2,404.6L14129.2,404.6L14129.2,404.6z M14079.6,372.8v234.3h49.6v-96.6h23.4
	c25,0,40.6,10.6,43.9,36.3c5.3,31.8,8.6,51.8,14.3,60.3h52.5c-4.1-7.3-8.6-21.2-13.5-57.8c-3.7-34.7-16.8-53.8-38.2-57.5v-1.6
	c25.4-6.9,45.5-26.5,45.5-54.6c0-24-7.4-39.9-21-50.5c-15.6-12.2-40.1-19.1-81.2-19.1C14119.3,365.9,14098,370,14079.6,372.8
	L14079.6,372.8L14079.6,372.8z M14166.5,654.4c-89.8,0-161.5-74.2-161.5-168.7c0-94.1,71.7-169.9,160.7-169.9h0.8
	c90.2,0,162.3,75.8,162.3,169.9c0,94-71.4,168.7-160.9,168.7C14167.5,654.4,14167,654.4,14166.5,654.4L14166.5,654.4z M14166.5,273
	c-117.2,0-212.3,94.9-212.3,211.9c0,117.7,95.1,211.4,212.3,211.4c118,0,211.5-93.7,211.5-211.5c0-117-93.5-211.9-210.7-211.9
	L14166.5,273z M6150.6,2762.2v98.3c0,7.8-3.5,14.2-9.8,18.9c-5.9,4.2-12.6,6.2-19.8,6.2h-4.3c-7.2,0-13.9-2-19.8-6.2
	c-6.3-4.6-9.9-11-9.9-18.9v-98.3l-106.7-118.8c-4.3-4.4-6.4-9.9-6.4-16.1c0-7.7,3.3-14.2,9-19.4c6-5.3,13.5-7.7,21.5-7.7
	c4.9,0,9.7,0.9,14.2,2.9c4,1.7,7.9,4.1,11.2,7.4l89.8,99.5l89-99.1c6.9-7.3,15.9-10.6,25.8-10.6c8,0,15.5,2.3,21.9,7.2
	c6.3,4.8,10.3,11.4,10.3,19.5c0,6.4-2.5,11.9-6.7,16.7L6150.6,2762.2L6150.6,2762.2L6150.6,2762.2z M7265,2632.9
	c0,6.4-1.3,11.3-4,14.7c-2.7,3.4-5.8,6-9.1,7.6c-3.8,2-8.2,3.2-13.2,3.5c-14.9,0-28,2.2-39.4,6.6c-11.4,4.4-20.9,9.9-28.7,16.5
	c-7.8,6.6-13.8,13.6-17.8,21.1c-4.1,7.4-6.1,14.2-6.1,20.3v135.1c0,7.1-2.6,13.1-7.9,18.3c-5.3,5.1-11.3,7.6-18,7.6h-3.6
	c-7.1,0-13.2-2.5-18.3-7.6c-5.1-5.1-7.6-11.2-7.6-18.3v-227.1c0-7.5,2.5-13.6,7.6-18.6c5.1-4.9,11.2-7.3,18.3-7.3h3
	c7.1,0,13.2,2.5,18.3,7.6c5.1,5.1,7.6,11.1,7.6,18.3v11.7c11.5-14.2,23-24.4,34.3-30.7c11.3-6.3,26-9.4,44-9.4c2.4,0,4.8,0,7.1,0
	c2.4,0,4.9,0.2,7.6,0.5c7.5,0.7,13.6,3.4,18.6,8.1c4.9,4.7,7.4,10.7,7.4,17.8L7265,2632.9L7265,2632.9L7265,2632.9z M6979.3,2858.5
	c0,7.4-2.5,13.6-7.6,18.5c-5.1,4.9-11.2,7.4-18.3,7.4h-3c-7.1,0-13.2-2.5-18.3-7.6c-5.1-5.1-7.6-11.2-7.6-18.3v-11.2
	c-9.9,11.9-21.1,21.6-33.8,29s-27.4,11.1-44,11.1c-23.7,0-43.9-2.9-60.5-8.9c-16.6-5.9-30.2-14.1-40.7-24.6
	c-10.5-10.5-18.1-22.8-22.9-36.8c-4.7-14.1-7.1-29.2-7.1-45.4v-140.2c0-7.5,2.5-13.6,7.6-18.6c5.1-4.9,11.2-7.3,18.3-7.3h3
	c7.1,0,13.2,2.5,18.3,7.6c5.1,5.1,7.6,11.1,7.6,18.3v140.2c0,10.8,1.3,20,3.8,27.6c2.5,7.6,6.8,13.9,12.7,18.8
	c5.9,4.9,13.8,8.6,23.6,11c9.8,2.4,22,3.5,36.6,3.5c9.5,0,18.9-1.8,28.2-5.3c9.3-3.6,17.6-8.2,24.9-14c7.3-5.8,13.1-12.3,17.5-19.5
	c4.4-7.3,6.6-14.7,6.6-22.1v-140.2c0-7.1,2.6-13.2,7.9-18.3c5.3-5.1,11.3-7.6,18.1-7.6h3c7.1,0,13.2,2.5,18.3,7.6
	c5.1,5.1,7.6,11.1,7.6,18.3L6979.3,2858.5L6979.3,2858.5L6979.3,2858.5z M6567,2742.2c0-12.6-2-24.4-6.1-35.6
	c-4.1-11.2-10.2-21-18.3-29.5c-8.1-8.4-18.5-15.2-31.3-20.3c-12.7-5.1-27.7-7.6-45-7.6c-17.3,0-32.3,2.5-45,7.6
	c-12.7,5.1-23.1,11.9-31.2,20.3c-8.1,8.5-14.2,18.4-18.3,29.8c-4,11.4-6.1,23.1-6.1,35.3c0,12.1,2,23.8,6.1,35.1
	c4.1,11.1,10.2,21.1,18.6,29.7c8.3,8.7,18.7,15.5,31.3,20.6c12.5,5.1,27.5,7.6,44.7,7.6s32.2-2.6,44.7-7.6
	c12.5-5.1,23-11.9,31.3-20.6c8.3-8.6,14.5-18.6,18.6-29.7C6564.9,2766,6567,2754.3,6567,2742.2L6567,2742.2z M6623.9,2742.2
	c0,18.9-3.2,37.2-9.6,54.9c-6.4,17.6-16.1,33.1-29,46.4c-12.9,13.4-29.2,24.1-49.1,32c-19.8,8-43.1,11.9-69.9,11.9
	c-26.8,0-50.1-4-69.9-11.9c-19.8-7.9-36.2-18.6-49.1-32c-12.9-13.4-22.6-28.8-29-46.4c-6.5-17.6-9.6-35.9-9.6-54.9
	c0-19.3,3.1-37.7,9.4-55.2c6.3-17.4,15.9-32.9,29-46.2c13-13.4,29.4-24.1,49.1-32c19.7-8,43-11.9,70.2-11.9c27.1,0,50.6,4,70.4,11.9
	c19.8,7.9,36.2,18.6,49,31.8c12.9,13.2,22.4,28.6,28.7,46.2C6620.8,2704.4,6623.9,2722.8,6623.9,2742.2L6623.9,2742.2z
	 M7823.6,2773.9c0,17.9-3.3,33.6-9.8,47.2c-6.5,13.6-15.5,24.9-26.8,34c-11.3,9.1-24.8,15.9-40.2,20.6c-15.5,4.6-32.3,6.9-50.5,6.9
	h-185.9c-7.3,0-13.7-2.7-19.2-8.1c-5.4-5.4-8.1-11.8-8.1-19.1l0.5-319.3c0-7.3,2.6-13.7,7.9-19.2c5.3-5.4,11.6-8.1,18.9-8.1h185.9
	c13.7,0,27.1,2,40.2,6c13.1,4,24.8,10.2,35,18.7c10.2,8.4,18.5,19.1,24.7,31.8c6.2,12.8,9.3,27.9,9.3,45.5c0,10.2-1.1,19.2-3.4,27.1
	c-2.2,7.8-5,14.8-8.1,20.8c-3.2,6.1-6.8,11.3-10.8,15.8c-4,4.5-7.6,8.3-10.8,11.5c5.1,2.6,10.7,6.3,16.8,11.2
	c6.1,4.9,11.7,11.2,16.8,18.7c5.1,7.5,9.3,16.1,12.7,25.9S7823.6,2762.1,7823.6,2773.9L7823.6,2773.9z M7751.8,2610.7
	c0-15-4.5-26.7-13.4-34.9c-8.9-8.3-23-12.4-42.2-12.4h-159.5v102.5h159.5c18.5,0,32.4-4.9,41.7-14.8
	C7747.1,2641,7751.8,2627.6,7751.8,2610.7L7751.8,2610.7L7751.8,2610.7z M7770,2773.9c0-8.3-1.2-15.8-3.6-22.5
	c-2.4-6.7-6.5-12.4-12.2-17.2c-5.8-4.8-13.3-8.4-22.8-11c-9.4-2.6-21.2-3.8-35.2-3.8h-159.5v109.1h159.5c25.2,0,43.8-4.5,55.8-13.6
	C7764,2805.8,7770,2792.1,7770,2773.9L7770,2773.9z M8261.5,2615.9c0,20.1-3,37-9.1,50.8c-6.1,13.7-13.5,24.7-22.3,33
	c-8.8,8.3-18.1,14.4-28,18.2c-9.9,3.8-18.7,6.1-26.4,6.7l60.4,124c1.9,3.8,2.9,7.8,2.9,12c0,7.3-2.7,13.6-8.1,18.9
	c-5.4,5.3-11.8,7.9-19.2,7.9c-5.4,0-10.4-1.4-14.9-4.3c-4.5-2.9-7.8-6.5-10.1-11l-69.9-145.5h-138.5V2863c0,6.4-2.4,12-7.2,17
	c-4.8,4.9-10.5,7.4-17.2,7.4h-4.8c-6.4,0-12.1-2.5-17.2-7.4c-5.1-4.9-7.7-10.6-7.7-17v-326.5c0-7.3,2.7-13.7,8.1-19.2
	c5.4-5.4,11.8-8.1,19.2-8.1h193.1c14.7,0,29.1,2,43.1,6s26.6,10.3,37.6,18.9c11,8.6,19.8,19.6,26.3,33
	C8258.2,2580.5,8261.5,2596.8,8261.5,2615.9L8261.5,2615.9L8261.5,2615.9z M8207.4,2615.9c0-10.5-1.8-19.2-5.5-26.1
	c-3.7-6.9-8.5-12.3-14.4-16.3c-5.9-4-12.6-6.8-20.1-8.4c-7.5-1.6-15.1-2.4-22.8-2.4h-166.2v110.1h166.2c20.1,0,35.6-4.9,46.5-14.8
	C8201.9,2648.2,8207.4,2634.1,8207.4,2615.9L8207.4,2615.9L8207.4,2615.9z M8656.3,2863c0,7.3-2.5,13.2-7.4,17.7
	c-5,4.5-10.6,6.7-17,6.7h-4.8c-6.4,0-12.1-2.2-17-6.7c-4.9-4.5-7.4-10.4-7.4-17.7v-131.7h-210.8V2863c0,7.3-2.5,13.2-7.4,17.7
	c-5,4.5-10.6,6.7-17,6.7h-4.8c-6.4,0-12-2.2-17-6.7c-5-4.5-7.4-10.4-7.4-17.7v-214c0-17.6,1.8-35.3,5.5-53.1
	c3.7-17.9,11.2-33.8,22.5-47.9c11.3-14,27.5-25.5,48.4-34.5c20.9-8.9,48.5-13.4,82.6-13.4c34.2,0,61.7,4.5,82.6,13.4
	c20.9,8.9,37,20.4,48.4,34.5c11.3,14,18.8,30,22.5,47.9c3.7,17.9,5.5,35.6,5.5,53.1L8656.3,2863L8656.3,2863z M8602.6,2649
	c0-13.7-1.6-26.4-4.8-38.1c-3.2-11.6-8.9-21.7-17-30.2c-8.1-8.4-19-15.1-32.6-19.9s-30.6-7.2-51-7.2c-20.8,0-37.8,2.4-51.3,7.2
	c-13.4,4.8-24.2,11.4-32.3,19.9c-8.1,8.5-13.8,18.5-17,30.2c-3.2,11.6-4.8,24.3-4.8,38.1v28.7h210.8L8602.6,2649L8602.6,2649z
	 M9097,2860.6c0,7.3-2.7,13.6-8.1,18.9c-5.4,5.3-11.8,7.9-19.2,7.9h-9.1c-8.9,0-16-3.4-21.1-10.1l-218.5-278.2h-1V2863
	c0,6.4-2.4,12-7.2,17c-4.8,4.9-10.5,7.4-17.2,7.4h-4.8c-6.4,0-12-2.5-17-7.4c-5-4.9-7.4-10.6-7.4-17V2537c0-7.3,2.7-13.7,8.1-19.2
	c5.4-5.4,11.8-8.1,19.2-8.1h13.4c3.8,0,7.7,1,11.5,2.9c3.8,1.9,7,4.5,9.6,7.7l213.7,272.9h1.4v-259.5c0-6.7,2.5-12.4,7.4-17.2
	s10.6-7.2,17-7.2h4.8c6.7,0,12.5,2.4,17.2,7.2c4.8,4.8,7.2,10.5,7.2,17.2L9097,2860.6L9097,2860.6z M9571.3,2694
	c0,26.2-4.5,50.7-13.7,73.5c-9.1,22.8-21.8,42.8-38.1,59.9c-16.3,17.1-35.6,30.6-58,40.4c-22.4,9.9-46.8,14.8-73.3,14.8h-144.7
	c-7.3,0-13.7-2.7-18.9-8.1c-5.3-5.4-7.9-11.8-7.9-19.1v-318.9c0-7.3,2.6-13.7,7.9-19.2c5.3-5.4,11.6-8.1,18.9-8.1h144.7
	c32.6,0,60.4,5.7,83.6,17c23.2,11.3,42.1,25.9,56.8,43.6c14.7,17.7,25.5,37.6,32.3,59.6C9567.9,2651.4,9571.3,2672.9,9571.3,2694
	L9571.3,2694z M9517.6,2694.5c0-19.8-3.2-37.8-9.6-53.9c-6.4-16.1-15.3-29.9-26.8-41.4c-11.5-11.5-25.2-20.4-41-26.6
	c-15.8-6.2-33.1-9.3-52-9.3h-117.8v265.2h117.8c23,0,42.6-4.4,58.9-13.2c16.3-8.8,29.7-19.8,40.2-33c10.5-13.2,18.2-27.7,23-43.3
	C9515.2,2723.4,9517.6,2708.5,9517.6,2694.5L9517.6,2694.5L9517.6,2694.5z M10056.6,2858.3c0,7.5-2.6,13.8-7.7,18.8
	c-5.2,5-11.3,7.5-18.5,7.5h-3.1c-7.2,0-13.4-2.6-18.5-7.7c-5.1-5.1-7.7-11.3-7.7-18.5V2847c-10,12-21.4,21.8-34.2,29.3
	c-12.9,7.5-27.7,11.3-44.5,11.3c-24,0-44.4-3-61.2-9c-16.8-6-30.5-14.3-41.2-24.9c-10.6-10.6-18.4-23.1-23.2-37.3
	c-4.8-14.2-7.2-29.6-7.2-46v-141.9c0-7.5,2.6-13.8,7.7-18.8c5.2-5,11.3-7.5,18.5-7.5h3.1c7.2,0,13.4,2.6,18.5,7.7
	c5.1,5.1,7.7,11.3,7.7,18.5v141.9c0,11,1.3,20.3,3.9,28s6.9,14.1,12.9,19c6,5,14,8.7,23.9,11.1c10,2.4,22.3,3.6,37,3.6
	c9.6,0,19.1-1.8,28.6-5.4c9.4-3.6,17.8-8.3,25.2-14.1c7.4-5.8,13.3-12.4,17.8-19.8c4.5-7.4,6.7-14.8,6.7-22.4v-141.9
	c0-7.2,2.7-13.4,8-18.5c5.3-5.1,11.4-7.7,18.3-7.7h3.1c7.2,0,13.4,2.6,18.5,7.7c5.1,5.1,7.7,11.3,7.7,18.5L10056.6,2858.3
	L10056.6,2858.3z M10436.9,2858.3c0,7.5-2.6,13.8-7.7,18.8c-5.1,5-11.3,7.5-18.5,7.5h-3.6c-7.2,0-13.4-2.6-18.5-7.7
	c-5.1-5.1-7.7-11.3-7.7-18.5v-141.9c0-6.5-1.3-13.4-3.8-20.6c-2.6-7.2-6.8-13.9-12.6-20.1c-5.8-6.2-13.7-11.2-23.7-15.2
	c-10-3.9-22.3-5.9-37-5.9c-9.6,0-19,2.1-28.3,6.2c-9.3,4.1-17.5,9.4-24.7,15.9c-7.2,6.5-13,13.7-17.5,21.6
	c-4.5,7.9-6.7,15.6-6.7,23.1v136.8c0,7.2-2.7,13.4-8,18.5c-5.3,5.1-11.4,7.7-18.3,7.7h-4.1c-7.2,0-13.4-2.6-18.5-7.7
	c-5.2-5.1-7.7-11.3-7.7-18.5v-229.9c0-7.5,2.6-13.8,7.7-18.8c5.1-5,11.3-7.5,18.5-7.5h3.1c7.2,0,13.4,2.6,18.5,7.7
	s7.7,11.3,7.7,18.5v11.8c9.9-12.3,21.4-22.3,34.2-29.8c12.9-7.5,27.7-11.3,44.5-11.3c24,0,44.4,3,61.2,9c16.8,6,30.5,14.3,41.2,24.9
	c10.6,10.6,18.4,23.1,23.2,37.3s7.2,29.6,7.2,46L10436.9,2858.3L10436.9,2858.3z M10836.2,2858.3c0,7.2-2.6,13.4-7.7,18.5
	c-5.2,5.1-11.3,7.7-18.5,7.7h-3.1c-7.2,0-13.4-2.7-18.5-8c-5.1-5.3-7.7-11.4-7.7-18.3v-4.1c-12,10.3-25.8,18.4-41.4,24.4
	c-15.6,6-32.3,9-50.2,9c-27.1,0-50.7-4-70.8-12.1c-20.1-8.1-36.6-18.9-49.7-32.4c-13-13.5-22.8-29.2-29.3-47.1
	c-6.5-17.8-9.8-36.3-9.8-55.5c0-19.6,3.2-38.2,9.5-56.1c6.3-17.8,16-33.4,29.1-46.8c13-13.4,29.6-24.1,49.7-32.1
	c20.1-8.1,43.8-12.1,71.3-12.1c17.8,0,34.6,3,50.2,9c15.6,6,29.4,14.1,41.4,24.4v-136.8c0-7.2,2.6-13.4,7.7-18.5
	c5.1-5.1,11.3-7.7,18.5-7.7h3.1c7.2,0,13.4,2.5,18.5,7.4s7.7,11.2,7.7,18.8L10836.2,2858.3L10836.2,2858.3z M10786.8,2742.1
	c0-5.8-0.3-11.4-1-16.7c-0.7-5.3-1.4-9.9-2.1-13.6c-1-4.5-2-8.6-3.1-12.3c-7.9-15.4-19.8-28.1-35.8-38.1
	c-15.9-9.9-34.6-14.9-55.8-14.9c-17.5,0-32.7,2.6-45.5,7.7s-23.4,12-31.7,20.6c-8.2,8.6-14.4,18.5-18.5,29.8
	c-4.1,11.3-6.2,23.3-6.2,36c0,12.3,2.1,24.2,6.2,35.5c4.1,11.3,10.4,21.4,18.8,30.1c8.4,8.7,19,15.7,31.7,20.8
	c12.7,5.1,27.8,7.7,45.3,7.7c21.3,0,39.9-5,55.8-14.9c15.9-9.9,27.9-22.6,35.8-38.1c2.4-6.9,4-13.6,4.9-20.3
	C10786.4,2754.7,10786.8,2748.3,10786.8,2742.1L10786.8,2742.1L10786.8,2742.1z M11236,2828.5c0,10.6-5.6,19.6-16.7,27
	c-11.2,7.4-24.4,13.4-39.6,18.3c-15.3,4.8-30.7,8.3-46.3,10.5c-15.6,2.2-27.9,3.3-36.8,3.3c-22,0-42.5-3.2-61.5-9.5
	c-19-6.3-35.7-15.7-49.9-28c-14.2-12.3-25.5-27.7-33.7-46c-8.2-18.4-12.3-39.5-12.3-63.5s4.1-45.2,12.3-63.5
	c8.2-18.4,19.5-33.7,33.7-46s30.9-21.7,49.9-28c19-6.3,39.5-9.5,61.5-9.5c20.9,0,40,2.8,57.1,8.5c17.2,5.6,31.8,13.7,44,24.2
	c12.2,10.4,21.6,23.3,28.3,38.6c6.7,15.2,10,32.5,10,51.7c0,15.4-5.5,27.9-16.5,37.5c-11,9.6-24.2,14.4-39.6,14.4h-183.7
	c5.8,21.6,17.9,38.3,36.3,50.1c18.4,11.8,39.9,17.8,64.6,17.8c9.3,0,18.5-0.9,27.8-2.8c9.3-1.9,18.1-4.3,26.5-7.2
	c8.4-2.9,16.3-6.2,23.7-9.8c7.4-3.6,13.6-6.9,18.8-10c4.5-2.7,9.1-4.1,13.9-4.1c7.9,0,14.6,2.4,20.1,7.2
	C11233.3,2814.3,11236.1,2820.6,11236,2828.5L11236,2828.5L11236,2828.5z M11176.3,2701c-0.3-10.3-3-19-8-26.2s-11.3-13-19-17.5
	c-7.7-4.4-16.2-7.6-25.5-9.5c-9.3-1.9-18-2.8-26.2-2.8c-12.3,0-24,1.7-35,5.1c-11,3.4-20.9,8.4-29.8,14.9
	c-8.9,6.5-16.5,14.2-22.7,23.1c-6.2,8.9-10.6,18.9-13.4,29.8h168.3c5.2,0,8.3-1.6,9.5-4.6
	C11175.7,2710.2,11176.3,2706.1,11176.3,2701L11176.3,2701L11176.3,2701z M11530.9,2630c0,6.5-1.4,11.5-4.1,14.9
	c-2.7,3.4-5.8,6-9.3,7.7c-3.8,2.1-8.2,3.3-13.4,3.6c-15.1,0-28.4,2.2-39.9,6.7c-11.5,4.4-21.2,10-29.1,16.7
	c-7.9,6.7-13.9,13.8-18,21.4c-4.1,7.5-6.2,14.4-6.2,20.6v136.8c0,7.2-2.7,13.4-8,18.5c-5.3,5.1-11.4,7.7-18.3,7.7h-3.6
	c-7.2,0-13.4-2.6-18.5-7.7c-5.2-5.1-7.7-11.3-7.7-18.5v-229.9c0-7.5,2.6-13.8,7.7-18.8c5.1-5,11.3-7.5,18.5-7.5h3.1
	c7.2,0,13.4,2.6,18.5,7.7s7.7,11.3,7.7,18.5v11.8c11.7-14.4,23.2-24.8,34.7-31.1s26.3-9.5,44.5-9.5c2.4,0,4.8,0,7.2,0s5,0.2,7.7,0.5
	c7.5,0.7,13.8,3.4,18.8,8.2c5,4.8,7.5,10.8,7.5,18L11530.9,2630L11530.9,2630z M12045.8,2828.3c0,6.9-2.6,13.1-7.7,18.8
	c-5.2,5.6-11.9,10.7-20.3,15.2c-8.4,4.4-17.8,8.2-28,11.3c-10.3,3.1-20.6,5.7-30.9,7.7c-10.3,2.1-20.1,3.6-29.3,4.6
	c-9.3,1-16.8,1.5-22.6,1.5c-21.9,0-42.5-3.2-61.7-9.5c-19.2-6.3-35.9-15.7-50.1-28c-14.2-12.3-25.5-27.7-33.7-46
	c-8.2-18.3-12.3-39.5-12.3-63.5c0-24.3,4.2-45.7,12.6-64c8.4-18.3,19.8-33.7,34.2-46c14.4-12.3,31.1-21.6,50.1-27.8
	c19-6.2,39.3-9.2,61-9.2c6.9,0,14.9,0.6,24.2,1.8c9.2,1.2,18.9,2.9,28.8,5.1c9.9,2.2,19.7,5.1,29.3,8.5c9.6,3.4,18.3,7.4,26,11.8
	c7.7,4.4,14,9.4,18.8,14.9c4.8,5.5,7.2,11.5,7.2,18c0,7.9-2.7,14.2-8.2,19c-5.5,4.8-12.2,7.2-20.1,7.2c-4.8,0-9.4-1.4-13.9-4.1
	c-5.1-3.1-11-6.3-17.5-9.8c-6.5-3.4-13.5-6.6-21.1-9.5c-7.5-2.9-15.7-5.3-24.4-7.2c-8.7-1.9-17.9-2.8-27.5-2.8
	c-18.9,0-34.8,2.9-47.8,8.7c-13,5.8-23.5,13.3-31.4,22.4c-7.9,9.1-13.6,19.3-17.2,30.6c-3.6,11.3-5.4,22.6-5.4,33.9
	c0,10.3,1.7,20.9,5.1,31.9c3.4,11,9.2,21,17.2,30.1c8,9.1,18.5,16.5,31.4,22.4c12.9,5.8,28.5,8.7,47.1,8.7c9.2,0,18.5-0.9,27.8-2.6
	c9.3-1.7,18.1-4,26.5-6.9s16.2-6.1,23.4-9.5c7.2-3.4,13.4-6.7,18.5-9.8c4.5-2.7,9.1-4.1,13.9-4.1c7.9,0,14.6,2.4,20.1,7.2
	C12043,2814.1,12045.8,2820.4,12045.8,2828.3L12045.8,2828.3L12045.8,2828.3z M12434.1,2740.4c0,19.2-3.3,37.7-9.8,55.5
	c-6.5,17.8-16.3,33.5-29.3,47c-13,13.5-29.6,24.3-49.6,32.4c-20.1,8.1-43.6,12.1-70.7,12.1s-50.7-4-70.7-12.1
	c-20.1-8.1-36.6-18.9-49.6-32.4c-13-13.5-22.8-29.2-29.3-47c-6.5-17.8-9.8-36.3-9.8-55.5c0-19.5,3.2-38.1,9.5-55.8
	c6.3-17.6,16.1-33.2,29.3-46.8c13.2-13.5,29.8-24.3,49.6-32.4c19.9-8.1,43.5-12.1,71-12.1c27.4,0,51.2,4,71.2,12.1
	c20.1,8.1,36.6,18.8,49.6,32.1c13,13.4,22.7,28.9,29.1,46.8C12430.9,2702.2,12434.1,2720.9,12434.1,2740.4z M12376.5,2740.4
	c0-12.7-2.1-24.7-6.2-36c-4.1-11.3-10.3-21.2-18.5-29.8c-8.2-8.6-18.8-15.4-31.6-20.6c-12.9-5.1-28-7.7-45.5-7.7
	c-17.5,0-32.7,2.6-45.5,7.7s-23.4,12-31.6,20.6c-8.2,8.6-14.4,18.6-18.5,30.1c-4.1,11.5-6.2,23.4-6.2,35.7c0,12.3,2.1,24.2,6.2,35.5
	c4.1,11.3,10.4,21.3,18.8,30.1c8.4,8.7,18.9,15.7,31.6,20.8c12.7,5.1,27.8,7.7,45.2,7.7c17.5,0,32.6-2.6,45.3-7.7
	s23.2-12.1,31.6-20.8c8.4-8.7,14.7-18.8,18.8-30.1C12374.4,2764.6,12376.5,2752.7,12376.5,2740.4L12376.5,2740.4z M12803.9,2858.1
	c0,7.5-2.6,13.8-7.7,18.8s-11.3,7.4-18.5,7.4h-3.6c-7.2,0-13.4-2.6-18.5-7.7c-5.1-5.1-7.7-11.3-7.7-18.5v-141.9
	c0-6.5-1.3-13.4-3.9-20.6c-2.6-7.2-6.8-13.9-12.6-20.1c-5.8-6.2-13.7-11.2-23.7-15.2c-9.9-3.9-22.3-5.9-37-5.9
	c-9.6,0-19,2.1-28.3,6.2c-9.3,4.1-17.5,9.4-24.7,15.9c-7.2,6.5-13,13.7-17.5,21.6c-4.5,7.9-6.7,15.6-6.7,23.1v136.7
	c0,7.2-2.7,13.4-8,18.5s-11.4,7.7-18.3,7.7h-4.1c-7.2,0-13.4-2.6-18.5-7.7c-5.1-5.1-7.7-11.3-7.7-18.5v-229.8
	c0-7.5,2.6-13.8,7.7-18.8c5.1-5,11.3-7.4,18.5-7.4h3.1c7.2,0,13.4,2.6,18.5,7.7c5.1,5.1,7.7,11.3,7.7,18.5v11.8
	c9.9-12.3,21.3-22.3,34.2-29.8c12.9-7.5,27.7-11.3,44.5-11.3c24,0,44.4,3,61.2,9c16.8,6,30.5,14.3,41.1,24.9
	c10.6,10.6,18.3,23.1,23.2,37.3c4.8,14.2,7.2,29.6,7.2,46L12803.9,2858.1L12803.9,2858.1z M13120.2,2632c0,6.9-2.6,12.9-7.7,18.2
	c-5.2,5.3-11.3,8-18.5,8h-75.6v76.1c0,19.9,2.5,36.2,7.5,49.1c5,12.9,10.5,23.2,16.7,31.1c7.2,8.9,15.4,15.9,24.7,21.1
	c3.8,2.4,6.7,5.4,8.7,9c2.1,3.6,3.1,8.3,3.1,14.1c0,8.6-3.5,15-10.5,19.3c-7,4.3-14.5,6.4-22.4,6.4c-6.9,0-15.2-3-25-9
	c-9.8-6-19.1-15.3-28-28s-16.5-28.5-22.9-47.5c-6.3-19-9.5-41.7-9.5-68.1v-73.5h-63.8c-6.8,0-12.9-2.6-18.3-8
	c-5.3-5.3-8-11.4-8-18.2v-3.1c0-7.2,2.7-13.4,8-18.5c5.3-5.1,11.4-7.7,18.3-7.7h63.8v-81.7c0-7.9,2.7-14.2,8-19
	c5.3-4.8,11.4-7.2,18.3-7.2h5.1c6.9,0,12.9,2.4,18.3,7.2c5.3,4.8,8,11.1,8,19v81.7h75.6c7.2,0,13.4,2.6,18.5,7.7
	c5.1,5.1,7.7,11.3,7.7,18.5L13120.2,2632L13120.2,2632z M13383.5,2629.9c0,6.5-1.4,11.5-4.1,14.9c-2.7,3.4-5.8,6-9.2,7.7
	c-3.8,2.1-8.2,3.2-13.4,3.6c-15.1,0-28.4,2.2-39.9,6.7c-11.5,4.4-21.2,10-29.1,16.7s-13.9,13.8-18,21.3c-4.1,7.5-6.2,14.4-6.2,20.6
	v136.7c0,7.2-2.7,13.4-8,18.5c-5.3,5.1-11.4,7.7-18.3,7.7h-3.6c-7.2,0-13.4-2.6-18.5-7.7c-5.1-5.1-7.7-11.3-7.7-18.5v-229.8
	c0-7.5,2.6-13.8,7.7-18.8c5.1-5,11.3-7.4,18.5-7.4h3.1c7.2,0,13.4,2.6,18.5,7.7c5.1,5.1,7.7,11.3,7.7,18.5v11.8
	c11.7-14.4,23.2-24.8,34.7-31.1c11.5-6.3,26.3-9.5,44.5-9.5c2.4,0,4.8,0,7.2,0s5,0.2,7.7,0.5c7.5,0.7,13.8,3.4,18.8,8.2
	c5,4.8,7.5,10.8,7.5,18L13383.5,2629.9L13383.5,2629.9z M13764.1,2740.4c0,19.2-3.3,37.7-9.8,55.5c-6.5,17.8-16.3,33.5-29.3,47
	c-13,13.5-29.6,24.3-49.6,32.4c-20.1,8.1-43.6,12.1-70.7,12.1s-50.7-4-70.7-12.1s-36.6-18.9-49.6-32.4c-13-13.5-22.8-29.2-29.3-47
	c-6.5-17.8-9.8-36.3-9.8-55.5c0-19.5,3.2-38.1,9.5-55.8c6.3-17.6,16.1-33.2,29.3-46.8c13.2-13.5,29.8-24.3,49.6-32.4
	c19.9-8.1,43.5-12.1,71-12.1c27.4,0,51.2,4,71.2,12.1c20.1,8.1,36.6,18.8,49.6,32.1c13,13.4,22.7,28.9,29.1,46.8
	S13764.1,2720.9,13764.1,2740.4z M13706.5,2740.4c0-12.7-2-24.7-6.2-36c-4.1-11.3-10.3-21.2-18.5-29.8c-8.2-8.6-18.8-15.4-31.6-20.6
	c-12.8-5.1-28-7.7-45.5-7.7c-17.5,0-32.7,2.6-45.5,7.7c-12.8,5.1-23.4,12-31.6,20.6c-8.2,8.6-14.4,18.6-18.5,30.1
	c-4.1,11.5-6.2,23.4-6.2,35.7c0,12.3,2.1,24.2,6.2,35.5c4.1,11.3,10.4,21.3,18.8,30.1c8.4,8.7,19,15.7,31.6,20.8
	c12.7,5.1,27.8,7.7,45.3,7.7c17.5,0,32.6-2.6,45.2-7.7c12.7-5.1,23.2-12.1,31.6-20.8c8.4-8.7,14.7-18.8,18.8-30.1
	C13704.5,2764.6,13706.5,2752.7,13706.5,2740.4L13706.5,2740.4z M13985.3,2858.6c0,8.6-3.5,15-10.5,19.3c-7,4.3-14.5,6.4-22.4,6.4
	c-6.9,0-15.2-3-25-9c-9.8-6-19.1-15.3-28-28s-16.5-28.5-22.9-47.5c-6.3-19-9.5-41.7-9.5-68.1v-241.6c0-7.9,2.7-14.2,8-19
	c5.3-4.8,11.4-7.2,18.3-7.2h5.1c6.9,0,12.9,2.4,18.3,7.2c5.3,4.8,8,11.1,8,19v244.1c0,19.9,2.5,36.2,7.5,49.1
	c5,12.9,10.5,23.2,16.7,31.1c7.2,8.9,15.4,15.9,24.7,21.1c3.8,2.4,6.7,5.4,8.7,9C13984.2,2848.1,13985.2,2852.8,13985.3,2858.6
	L13985.3,2858.6L13985.3,2858.6z"/>
<path id="path3" class="st1" d="M2856.4,1530.8c0,46-2.2,91.8-6.8,137.6c-4.5,45.8-11.2,91.2-20.2,136.2
	c-9,45.1-20.1,89.6-33.5,133.6c-13.4,44-28.8,87.2-46.4,129.7c-17.6,42.5-37.2,84-58.9,124.5c-21.7,40.5-45.3,79.9-70.9,118.1
	c-25.6,38.2-52.9,75.1-82.1,110.6c-29.2,35.5-60,69.6-92.6,102.1c-32.5,32.5-66.6,63.3-102.1,92.5c-35.6,29.2-72.5,56.5-110.7,82.1
	c-38.2,25.5-77.6,49.1-118.2,70.8c-40.6,21.7-82.1,41.3-124.6,58.9c-42.5,17.6-85.8,33.1-129.8,46.4c-44,13.3-88.6,24.5-133.7,33.5
	c-45.1,9-90.6,15.7-136.3,20.2s-91.7,6.8-137.7,6.8c-46,0-91.9-2.2-137.7-6.8c-45.8-4.5-91.2-11.2-136.3-20.2
	c-45.1-9-89.7-20.1-133.7-33.5c-44-13.3-87.3-28.8-129.8-46.4c-42.5-17.6-84-37.2-124.6-58.9c-40.6-21.7-80-45.3-118.2-70.8
	c-38.2-25.5-75.2-52.9-110.7-82.1c-35.6-29.2-69.6-60-102.1-92.5c-32.5-32.5-63.4-66.5-92.6-102.1s-56.5-72.4-82.1-110.6
	c-25.6-38.2-49.2-77.6-70.9-118.1c-21.7-40.5-41.3-82-58.9-124.5c-17.6-42.5-33.1-85.7-46.4-129.7c-13.3-44-24.5-88.5-33.5-133.6
	c-9-45.1-15.7-90.5-20.2-136.2c-4.5-45.7-6.8-91.6-6.8-137.6c0-46,2.2-91.8,6.8-137.6c4.5-45.7,11.2-91.2,20.2-136.2
	c9-45.1,20.1-89.6,33.5-133.6s28.8-87.2,46.4-129.7c17.6-42.5,37.2-84,58.9-124.5c21.7-40.5,45.3-79.9,70.9-118.1
	c25.6-38.2,52.9-75.1,82.1-110.6c29.2-35.5,60-69.6,92.6-102.1c32.5-32.5,66.6-63.3,102.1-92.5c35.5-29.2,72.5-56.5,110.7-82
	c38.2-25.5,77.7-49.1,118.2-70.8c40.6-21.7,82.1-41.3,124.6-58.9c42.5-17.6,85.8-33.1,129.8-46.4c44-13.3,88.6-24.5,133.7-33.5
	c45.1-9,90.6-15.7,136.3-20.2c45.8-4.5,91.7-6.8,137.7-6.8c46,0,91.9,2.3,137.7,6.8c45.8,4.5,91.2,11.2,136.3,20.2
	c45.1,9,89.7,20.1,133.7,33.5c44,13.3,87.3,28.8,129.8,46.4c42.5,17.6,84,37.2,124.6,58.9c40.6,21.7,80,45.3,118.2,70.8
	c38.2,25.5,75.1,52.9,110.7,82c35.6,29.2,69.6,60,102.1,92.5c32.5,32.5,63.4,66.5,92.6,102.1c29.2,35.5,56.6,72.4,82.1,110.6
	c25.6,38.2,49.2,77.6,70.9,118.1c21.7,40.5,41.3,82,58.9,124.5c17.6,42.5,33.1,85.7,46.4,129.7c13.4,44,24.5,88.5,33.5,133.6
	c9,45.1,15.7,90.5,20.2,136.2C2854.2,1439,2856.4,1484.8,2856.4,1530.8L2856.4,1530.8z"/>
<path id="path4" class="st2" d="M1452,208.3c379.2,0,721.2,159.5,962.4,415C2332.6,783,2244,938.9,2149,1090.2
	c-222.8-313.9-470.8-608.5-741.1-881.1C1422.6,208.6,1437.2,208.3,1452,208.3L1452,208.3L1452,208.3z M2607.9,886.7
	c106.6,190.6,167.4,410.3,167.4,644.1c0,162.4-29.4,318-83,461.7c-110.4-219.2-232-431.9-364.1-637.2
	C2427.8,1203.4,2521.1,1047.1,2607.9,886.7L2607.9,886.7z M2331,2519.2c-233.8,207.8-541.6,334.1-879,334.1
	c-141.4,0-277.6-22.3-405.4-63.4c342.2-284.3,654.6-603.1,931.8-951.2C2108.9,2057.5,2226.7,2284.7,2331,2519.2z M750,2651.9
	C376.9,2418,128.6,2003.3,128.6,1530.8c0-490.8,267.6-919.2,664.9-1147.4C1179.1,737,1521.5,1137,1812,1574.4
	C1503.4,1975.5,1146.4,2337.5,750,2651.9L750,2651.9z"/>
<linearGradient id="path5_1_" gradientUnits="userSpaceOnUse" x1="6719.4126" y1="7397.1133" x2="7400.8223" y2="7566.4331" gradientTransform="matrix(1 0 0 -1 -5841.54 8786.5537)">
	<stop  offset="0" style="stop-color:#F5A105"/>
	<stop  offset="1" style="stop-color:#F2C784"/>
</linearGradient>
<path id="path5" class="st3" d="M568.4,2515c152.5-548.6,460.9-1045.3,888-1425.6c-203.1-251.6-424.8-487.6-663-706
	C396.2,611.6,128.6,1040,128.6,1530.8C128.6,1921.7,298.5,2272.9,568.4,2515L568.4,2515L568.4,2515z M1901.6,762.3
	c137.4-82.3,282.9-154.2,435.7-214.4c-234.5-211.1-544.9-339.6-885.3-339.6c-14.8,0-29.4,0.3-44,0.8
	C1582,384.6,1746.8,569.2,1901.6,762.3L1901.6,762.3L1901.6,762.3z"/>
</svg>
