<svg version="1.1" xmlns="http://www.w3.org/2000/svg" style="display: block;" viewBox="0 0 2048 2048" width="1024" height="1024" preserveAspectRatio="none">
<path transform="translate(0,0)" fill="rgb(255,255,255)" d="M 0 0 L 2048 0 L 2048 2048 L 0 2048 L 0 0 z"/>
<path transform="translate(0,0)" fill="rgb(1,0,1)" d="M 768.812 660.343 C 770.771 659.082 776.7 655.045 778.832 655.03 C 846.715 654.56 914.164 649.384 982.107 652.841 C 994.519 653.472 1007.81 651.326 1020.3 651.285 L 1249.69 651.01 C 1257.99 658.808 1267.27 667.285 1275.06 675.479 C 1274.98 699.82 1276.2 723.82 1276.14 747.744 L 1273.14 1235.89 C 1273.1 1240.33 1273.05 1250.97 1271.22 1254.74 C 1260.99 1258.87 1183.11 1260.07 1170.7 1258.72 C 1184.54 1293.55 1200.19 1319.02 1224.81 1347.7 C 1230 1353.74 1235.81 1358.59 1240.48 1363.93 C 1223.45 1356.87 1213.78 1356.49 1196.44 1352.51 C 1185.83 1350.07 1173.02 1343.59 1163.16 1338.64 C 1158.11 1336.51 1155.43 1335.42 1150.66 1332.5 C 1145.88 1330.35 1134.79 1324.42 1129.85 1327.32 C 1111.07 1338.36 1097.44 1361.51 1088.85 1381.13 C 1085.88 1387.91 1086.15 1390.9 1085.88 1397.8 L 1084.67 1398.89 C 1082.87 1398.38 1082.44 1398.7 1081.88 1397.25 C 1078.37 1388.18 1077.35 1376.37 1074.07 1367.23 C 1068.45 1351.58 1061.95 1336.23 1055.75 1320.81 C 1048.82 1303.57 1042.37 1280 1034.18 1264 C 1028.03 1261.94 1005 1264.13 997.848 1265.02 C 990.637 1275.76 981.647 1312.8 975.931 1327.21 C 969.09 1344.44 962.551 1359.54 953.885 1376.31 C 951.177 1381.55 948.54 1393.75 945.23 1397.46 C 941.102 1394.98 940.809 1378.95 938.965 1373.49 C 933.845 1358.35 920.023 1334.05 907.13 1325.04 C 905.664 1324.02 904.173 1323.04 902.658 1322.1 C 864.038 1333.97 856.057 1352.38 806.308 1353.98 C 836.962 1334.25 853.242 1292.06 865.867 1259.09 C 848.221 1258.86 811.778 1263.41 798.116 1255.33 C 788.2 1249.47 779.547 1239.51 771.612 1231.22 C 771.452 1231.06 771.298 1230.88 771.141 1230.71 C 769.902 1197.89 771.082 1162.02 771.298 1129.05 L 772.094 955.699 C 772.243 917.787 770.197 878.911 769.028 841.021 C 768.66 829.107 771.019 815.714 770.82 803.66 C 770.564 760.935 771.641 718.208 770.746 675.483 C 770.641 670.458 769.737 665.277 768.812 660.343 z"/>
<path transform="translate(0,0)" fill="rgb(255,255,255)" d="M 944.098 789.059 C 945.837 786.176 948.667 780.364 951.41 779.278 C 959.278 780.091 957.879 780.285 963.049 773.429 C 967.169 772.654 967.972 776.544 970.409 774.446 C 977.27 768.536 974.579 767.829 984.606 769.956 C 987.425 769.01 988.674 767.514 990.871 765.516 C 993.246 766.351 993.198 766.386 995.41 767.577 C 998.66 767.136 1000.1 765.301 1002.62 763.082 C 1008.06 762.694 1007.56 765.819 1010.14 765.202 C 1019.67 762.916 1015.24 759.116 1024.92 763.791 C 1028.52 763.581 1030.16 762.359 1033.34 760.678 C 1036.99 763.903 1037.23 765.138 1041.43 765.934 C 1044.08 764.351 1045.53 763.459 1048.42 762.216 C 1050.41 764.884 1051.19 766.284 1053.97 768.193 C 1057.3 768.099 1057.3 767.993 1060.52 766.968 C 1066.23 768.898 1063.82 772.528 1069.57 773.258 C 1069.34 773.229 1076.12 771.05 1076.41 771.287 C 1078.75 773.17 1078.83 777.735 1082.42 778.28 C 1082.81 778.34 1089.25 776.834 1090.38 777.347 C 1097.36 780.517 1093.26 787.689 1103.87 787.265 C 1105.06 787.217 1106.1 787.523 1107.25 787.9 C 1108.6 790.758 1108.57 791.39 1109.16 794.44 L 1110.93 795.951 C 1115.15 794.518 1114.82 793.79 1117.87 795.081 C 1120.85 800.499 1115.08 801.091 1118.96 804.766 L 1120.28 804.825 C 1123.51 804.995 1125.26 804.66 1127.64 806.67 C 1131.12 813.473 1128.04 814.412 1134.76 816.615 C 1135.58 816.881 1136.39 817.137 1137.21 817.383 C 1140.79 821.667 1138.73 826.576 1139.58 827.48 C 1144.73 832.936 1149.73 826.869 1147.28 839.442 C 1149.65 842.123 1153.78 845.001 1154.66 848.002 C 1151.18 858.824 1157.39 854.24 1159.26 861.95 C 1157.96 863.772 1157.21 864.911 1156.4 866.994 C 1159.04 872.982 1162.41 872.209 1162.2 876.463 L 1160.03 878.57 C 1161.45 884.044 1164.14 884.059 1163.91 888.632 L 1161.7 890.957 C 1161.9 897.855 1164.71 907.473 1164.64 914.997 C 1164.63 915.308 1162.05 918.922 1161.65 919.463 C 1161.55 928.924 1170.98 929.992 1160.64 940.081 C 1159.24 941.444 1162.92 946.926 1161.88 951.827 C 1160.13 953.292 1158.36 954.716 1156.55 956.098 C 1157.95 961.663 1162.85 956.409 1160.49 965.665 C 1156.4 969.199 1156.04 964.669 1152.73 968.542 C 1154.16 971.267 1153.57 970.354 1155.87 972.535 C 1155.73 975.998 1156.25 974.412 1153.93 977.335 L 1152.61 977.806 C 1149.13 979.075 1147.41 979.272 1145.3 982.243 C 1146.25 989.403 1150.54 984.39 1144.51 993.472 C 1139.03 1001.73 1128.99 1004.92 1129.28 1014.82 L 1127.83 1016.31 C 1122.94 1015.97 1122.15 1014.92 1119.36 1017.03 C 1119.12 1019.78 1119.2 1019.96 1119.6 1022.71 C 1117.84 1025.74 1117.86 1025.49 1114.74 1027.2 C 1112.22 1027.08 1112.03 1027.02 1109.57 1026.36 C 1104.93 1029.24 1108.99 1030.21 1104.27 1033.79 L 1100.15 1031.8 C 1095.98 1033.88 1097.78 1036.46 1092.82 1041.06 L 1091.97 1040.81 C 1088.4 1037.8 1090.27 1038.3 1086.51 1038 C 1083.2 1041.74 1083.25 1043.45 1078.86 1044.89 L 1077.37 1044.63 C 1075.59 1044.33 1075.07 1044.27 1073.32 1044.2 C 1071.5 1045.63 1069.78 1046.92 1068.11 1048.53 L 1076.31 1136.75 C 1080.1 1190.58 1101.31 1276.12 1127.64 1322.69 C 1124.78 1325.33 1126.41 1324.6 1122.62 1325.02 L 1120.28 1324.75 C 1120.87 1329.4 1120.66 1328.98 1116.53 1331.98 L 1114.32 1333.33 C 1113.52 1336.24 1112.8 1336.55 1110.95 1337.66 C 1103.45 1335.04 1096.34 1312.52 1093.3 1304.77 C 1073.04 1253.07 1060.75 1210.93 1055.36 1155.19 C 1054.2 1143.26 1050.08 1055.01 1048.79 1052.62 L 1046.89 1052.48 C 1034.81 1061.87 1041.14 1053.56 1031.24 1055.17 C 1030.12 1055.35 1028.63 1059.2 1024.67 1059.87 C 1017.73 1051.06 1014.19 1060.34 1010.57 1065.03 C 1009.87 1060.04 1009.56 1059.15 1005.5 1056.63 C 1000.6 1055.91 996.394 1060.22 994.217 1059.57 C 983.54 1056.4 977.535 1051.28 966.085 1051.22 C 959.219 1046.11 950.962 1041.73 942.257 1038.69 C 939.29 1037.65 942.238 1041.04 937.727 1039.4 C 936.028 1036.34 935.13 1033.67 932.096 1032.26 L 928.992 1034.99 L 927.817 1034.51 C 928.465 1032.32 928.604 1031.81 928.876 1029.56 L 927.057 1029.19 L 923.948 1031.85 L 923.267 1031.63 C 922.804 1027.88 922.939 1025.38 920.618 1022.46 C 917.424 1021.49 913.48 1020.96 911.482 1018.76 C 911.131 1015.38 911.281 1014.29 909.011 1011.52 C 892.85 1003.88 905.052 1004.22 900.123 996.084 C 896.815 995.68 896.226 995.802 892.992 996.045 C 888.991 993.66 890.875 990.801 891.92 986.453 C 890.738 983.007 887.548 982.633 884.119 981.44 C 881.972 977.637 885.029 975.179 885.29 970.977 C 885.344 970.108 878.391 964.352 878.426 963.04 C 878.728 951.591 880.796 954.985 870.326 946.573 C 872.386 943.162 874.498 939.783 876.358 936.262 C 873.095 934.14 871.063 933.324 869.419 929.828 C 869.459 925.671 870.715 925.213 874.211 921.652 C 874.143 918.067 869.769 914.407 867.461 907.978 C 870.762 905.126 872.819 904.328 873.962 900.65 C 872.697 897.186 871.107 895.401 868.944 892.457 L 877.939 886.589 L 871.233 875.568 C 874.641 872.969 878.011 870.312 881.566 867.924 C 879.338 865.77 876.66 863.845 876.048 861.011 C 879.439 855.948 882.492 859.684 884.484 854.608 C 883.617 850.54 882.194 847.234 883.453 843.801 C 886.043 843.118 886.838 843.056 889.526 842.797 C 892.345 838.9 890.422 832.931 891.167 831.924 C 895.796 825.668 902.045 833.676 899.969 819.446 C 902.587 816.007 905.178 816.917 908.092 815.209 C 911.989 812.924 906.241 806.406 914.48 804.832 C 919.217 803.928 919.329 805.565 922.792 803.112 C 923.359 798.131 922.496 798.538 925.205 795.502 C 927.929 795.007 928.918 795.643 931.597 796.497 C 938.022 793.715 933.003 790.182 937.446 786.692 L 944.098 789.059 z"/>
<path transform="translate(0,0)" fill="rgb(255,255,255)" d="M 1061.64 1074.17 C 1066.64 1109.32 1066.89 1145.43 1073.09 1179.87 C 1078.91 1219.6 1093.72 1268.57 1109.94 1305.38 C 1112.04 1310.16 1117.18 1321.54 1120.28 1324.75 C 1120.87 1329.4 1120.66 1328.98 1116.53 1331.98 C 1089.49 1280.41 1077.99 1239.06 1067.38 1182.87 C 1062.53 1150.55 1060.02 1117.92 1059.89 1085.24 C 1060.13 1081.06 1059.97 1078.01 1061.64 1074.17 z"/>
<path transform="translate(0,0)" fill="rgb(1,0,1)" d="M 1057.6 1051.51 L 1058.57 1051.44 C 1060.66 1057.42 1061.11 1067.55 1061.64 1074.17 C 1059.97 1078.01 1060.13 1081.06 1059.89 1085.24 C 1060.02 1117.92 1062.53 1150.55 1067.38 1182.87 L 1065.11 1182.2 C 1059.29 1151.49 1054.04 1088.16 1052.27 1054.23 C 1052.22 1053.24 1056.08 1052.11 1057.6 1051.51 z"/>
<path transform="translate(0,0)" fill="rgb(255,255,255)" d="M 1057.6 1051.51 L 1058.57 1051.44 C 1060.66 1057.42 1061.11 1067.55 1061.64 1074.17 C 1059.97 1078.01 1060.13 1081.06 1059.89 1085.24 C 1059.03 1080.69 1058.11 1057.79 1057.6 1051.51 z"/>
<path transform="translate(0,0)" fill="rgb(1,0,1)" d="M 1058.57 1051.44 C 1061.54 1048.59 1059.87 1049.39 1063.49 1048.48 C 1064.92 1049.47 1065.48 1049.23 1065.68 1050.8 C 1071.1 1092.99 1068.42 1137.26 1075 1179.19 L 1073.09 1179.87 C 1066.89 1145.43 1066.64 1109.32 1061.64 1074.17 C 1061.11 1067.55 1060.66 1057.42 1058.57 1051.44 z"/>
<path transform="translate(0,0)" fill="rgb(22,21,22)" d="M 1065.11 1182.2 L 1067.38 1182.87 C 1077.99 1239.06 1089.49 1280.41 1116.53 1331.98 L 1114.32 1333.33 C 1090.52 1294.29 1073.01 1226.64 1065.11 1182.2 z"/>
<path transform="translate(0,0)" fill="rgb(22,21,22)" d="M 1073.09 1179.87 L 1075 1179.19 C 1081.73 1219.71 1092.43 1258.96 1109.3 1296.42 C 1112.95 1304.54 1118.26 1317.51 1122.62 1325.02 L 1120.28 1324.75 C 1117.18 1321.54 1112.04 1310.16 1109.94 1305.38 C 1093.72 1268.57 1078.91 1219.6 1073.09 1179.87 z"/>
<path transform="translate(0,0)" fill="rgb(1,0,1)" d="M 1010.55 870.077 C 1033.76 865.958 1055.97 881.304 1060.32 904.478 C 1064.67 927.652 1049.55 950.009 1026.42 954.595 C 1011.25 957.603 995.634 952.233 985.522 940.531 C 975.411 928.829 972.362 912.598 977.538 898.024 C 982.714 883.451 995.318 872.779 1010.55 870.077 z"/>
<path transform="translate(0,0)" fill="rgb(248,155,76)" d="M 1010.25 873.682 C 1031.68 869.391 1052.56 883.215 1056.97 904.623 C 1061.38 926.03 1047.68 946.983 1026.3 951.52 C 1004.74 956.093 983.581 942.253 979.132 920.671 C 974.682 899.089 988.644 878.008 1010.25 873.682 z"/>
<path transform="translate(0,0)" fill="rgb(22,21,22)" d="M 1113.91 828.745 L 1117.42 828.992 C 1125.2 833.512 1133.96 849.727 1138.18 857.332 C 1152.26 883.2 1156.53 923.789 1146.57 951.61 C 1124.71 1012.66 1049.74 1054.89 987.05 1034.15 C 986.212 1033.04 986.485 1033.73 986.626 1031.96 C 1002.77 1035.15 1011.27 1037.64 1028.08 1036.59 C 1063.08 1034.4 1096.14 1017.44 1119.25 991.206 C 1142.34 964.992 1150.51 941.898 1148.92 907.028 C 1147.68 879.708 1134.46 846.929 1113.91 828.745 z"/>
<path transform="translate(0,0)" fill="rgb(22,21,22)" d="M 1075.15 811.973 C 1091.54 814.013 1115.73 838.829 1123.95 852.562 C 1158.76 910.714 1139.29 980.786 1082.11 1015.9 C 1054.01 1033.15 1019.79 1033.79 988.309 1025.65 L 987.548 1024.14 C 989.101 1023.24 1015.06 1026.95 1020.29 1027.47 C 1049.92 1030.43 1073.21 1021.77 1096 1002.92 C 1121.47 981.863 1136.01 954.474 1138.84 921.44 C 1141.55 889.726 1126.04 846.953 1099.53 827.888 C 1092.82 823.058 1082.29 818.445 1076.01 813.124 C 1075.73 812.74 1075.44 812.356 1075.15 811.973 z"/>
<path transform="translate(0,0)" fill="rgb(22,21,22)" d="M 997.644 793.185 C 1001.07 792.866 1001.2 792.625 1004.47 793.985 C 1003.54 795.409 995.086 795.549 991.02 796.765 C 954.115 807.796 926.765 821.259 908.225 857.174 C 889.436 893.573 892.779 923.612 904.153 960.791 C 905.202 963.9 905.347 962.518 904.732 965.259 C 900.26 962.285 896.42 945.393 895.394 939.816 C 881.188 862.589 922.753 808.272 997.644 793.185 z"/>
<path transform="translate(0,0)" fill="rgb(22,21,22)" d="M 963.889 808.077 L 964.138 808.28 C 964.047 809.937 954.177 816.055 952.264 817.368 C 905.122 849.728 888.366 905.225 910.058 958.248 C 913.809 967.416 921.702 977.073 924.302 985.408 C 898.948 961.546 891.588 903.116 904.625 871.82 C 914.876 847.211 938.957 818.59 963.889 808.077 z"/>
<path transform="translate(0,0)" fill="rgb(22,21,22)" d="M 1074.94 819.802 C 1079.34 820.415 1083.99 823.356 1087.47 826.105 C 1134.14 863.019 1141.54 928.412 1106.61 975.398 L 1105.62 975.505 C 1106.09 971.525 1113.36 961.915 1115.7 957.034 C 1134.19 918.47 1127.6 869.238 1097.89 838.099 C 1091.59 831.498 1080.07 826.245 1074.94 819.802 z"/>
<path transform="translate(0,0)" fill="rgb(1,0,1)" d="M 1096.88 858.511 L 1098.91 857.603 C 1100.51 861.547 1105.08 866.637 1107.25 871.009 C 1126.49 909.682 1115.25 969.523 1075.58 991.013 L 1074.48 990.66 C 1075.29 987.939 1088 979.406 1092.35 974.152 C 1102.39 962.034 1109.33 947.968 1112.08 932.32 C 1116.62 907.63 1113.63 883.938 1099.18 863.064 C 1097.77 861.024 1097.11 861.176 1096.88 858.511 z"/>
<path transform="translate(0,0)" fill="rgb(1,0,1)" d="M 909.94 877.518 C 910.465 878.193 910.989 878.868 911.513 879.543 C 910.968 885.984 908.919 894.158 908.154 900.408 C 907.474 906.118 907.265 911.874 907.529 917.617 C 908.25 934.575 916.434 956.298 924.662 971.101 C 927.56 976.316 932.254 978.622 934.258 985.057 C 928.952 981.978 922.329 972.417 919.407 966.949 C 904.538 939.567 901.134 907.406 909.94 877.518 z"/>
<path transform="translate(0,0)" fill="rgb(22,21,22)" d="M 1046.97 1018.2 C 1048.11 1018.04 1049.3 1018.06 1050.46 1018.03 L 1050.59 1019.14 C 1039.8 1023.69 1025.99 1024.17 1014.46 1023.93 C 1011.62 1023.25 1012.56 1023.74 1010.27 1021.94 C 1014.75 1020.15 1029.53 1021.41 1035.29 1020.63 C 1039.73 1020.02 1042.61 1019.32 1046.97 1018.2 z"/>
<path transform="translate(0,0)" fill="rgb(255,255,255)" d="M 1068.11 1048.53 C 1069.78 1046.92 1071.5 1045.63 1073.32 1044.2 C 1075.07 1044.27 1075.59 1044.33 1077.37 1044.63 L 1078.86 1044.89 C 1083.25 1043.45 1083.2 1041.74 1086.51 1038 C 1090.27 1038.3 1088.4 1037.8 1091.97 1040.81 C 1090.77 1046.72 1092.53 1051.26 1093.01 1057.34 L 1095.22 1057.97 C 1095.22 1062.22 1095.26 1064.95 1095.68 1069.17 C 1093.68 1072.69 1094 1079.09 1093.84 1083.42 C 1093.71 1112.47 1096.45 1134.66 1100.28 1163.42 L 1098.27 1164.84 C 1103.38 1203.1 1112.99 1239.35 1125.2 1275.96 C 1128.75 1286.59 1148.3 1324.32 1148.72 1328.79 C 1145.48 1326.26 1143.24 1323.93 1140.34 1321.05 L 1138.03 1322.99 C 1132.87 1322.77 1132.89 1323.59 1129.2 1321.2 L 1127.64 1322.69 C 1101.31 1276.12 1080.1 1190.58 1076.31 1136.75 L 1068.11 1048.53 z"/>
<path transform="translate(0,0)" fill="rgb(255,255,255)" d="M 1078.47 1130.69 C 1077.01 1109.39 1074.68 1070.36 1076.5 1049.56 C 1078.17 1052.85 1083.02 1120.05 1084.34 1130.79 C 1089.41 1185.65 1108.63 1276.44 1138.03 1322.99 C 1132.87 1322.77 1132.89 1323.59 1129.2 1321.2 L 1127.64 1322.69 C 1101.31 1276.12 1080.1 1190.58 1076.31 1136.75 C 1077.28 1134.96 1077.84 1132.68 1078.47 1130.69 z"/>
<path transform="translate(0,0)" fill="rgb(22,21,22)" d="M 1078.47 1130.69 C 1081.08 1179.21 1089.84 1220.25 1106.33 1266.34 C 1110.02 1276.65 1127.71 1313.35 1129.2 1321.2 L 1127.64 1322.69 C 1101.31 1276.12 1080.1 1190.58 1076.31 1136.75 C 1077.28 1134.96 1077.84 1132.68 1078.47 1130.69 z"/>
<path transform="translate(0,0)" fill="rgb(1,0,1)" d="M 1068.11 1048.53 C 1069.78 1046.92 1071.5 1045.63 1073.32 1044.2 C 1075.07 1044.27 1075.59 1044.33 1077.37 1044.63 L 1078.86 1044.89 C 1083.25 1043.45 1083.2 1041.74 1086.51 1038 C 1090.27 1038.3 1088.4 1037.8 1091.97 1040.81 C 1090.77 1046.72 1092.53 1051.26 1093.01 1057.34 L 1095.22 1057.97 C 1095.22 1062.22 1095.26 1064.95 1095.68 1069.17 C 1093.68 1072.69 1094 1079.09 1093.84 1083.42 C 1093.71 1112.47 1096.45 1134.66 1100.28 1163.42 L 1098.27 1164.84 C 1092.07 1128.16 1087.34 1077.66 1086.69 1040.3 C 1082.08 1058.2 1085.38 1100.99 1086.15 1121.54 C 1085.85 1124.62 1085.88 1128.28 1084.34 1130.79 C 1083.02 1120.05 1078.17 1052.85 1076.5 1049.56 C 1074.68 1070.36 1077.01 1109.39 1078.47 1130.69 C 1077.84 1132.68 1077.28 1134.96 1076.31 1136.75 L 1068.11 1048.53 z"/>
<path transform="translate(0,0)" fill="rgb(172,172,178)" d="M 1093.01 1057.34 L 1095.22 1057.97 C 1095.22 1062.22 1095.26 1064.95 1095.68 1069.17 C 1093.68 1072.69 1094 1079.09 1093.84 1083.42 C 1093.15 1074.91 1093.16 1065.91 1093.01 1057.34 z"/>
<path transform="translate(0,0)" fill="rgb(22,21,22)" d="M 1086.15 1121.54 C 1086.98 1129.3 1087.55 1137.46 1088.29 1144.85 C 1094.43 1205.98 1111.21 1266.56 1140.26 1320.83 C 1140.29 1320.9 1140.32 1320.97 1140.34 1321.05 L 1138.03 1322.99 C 1108.63 1276.44 1089.41 1185.65 1084.34 1130.79 C 1085.88 1128.28 1085.85 1124.62 1086.15 1121.54 z"/>
<path transform="translate(0,0)" fill="rgb(255,255,255)" d="M 1095.68 1069.17 C 1097.62 1088.4 1098.97 1107.43 1101.19 1126.66 C 1104.13 1152.13 1108.93 1176.13 1114.14 1201.2 L 1116.49 1201.93 C 1123.52 1241.32 1144.99 1304.11 1168.92 1335.63 C 1166.33 1337.29 1166 1337.52 1163.16 1338.64 C 1158.11 1336.51 1155.43 1335.42 1150.66 1332.5 C 1149.87 1329.59 1150.71 1330.67 1148.72 1328.79 C 1148.3 1324.32 1128.75 1286.59 1125.2 1275.96 C 1112.99 1239.35 1103.38 1203.1 1098.27 1164.84 L 1100.28 1163.42 C 1096.45 1134.66 1093.71 1112.47 1093.84 1083.42 C 1094 1079.09 1093.68 1072.69 1095.68 1069.17 z"/>
<path transform="translate(0,0)" fill="rgb(22,21,22)" d="M 1100.28 1163.42 C 1108.24 1220.73 1125.56 1282.74 1156.21 1332.16 C 1159.39 1333.88 1161.34 1335.46 1164.8 1335.81 C 1162.94 1331.7 1153.53 1317.19 1149.92 1309.95 C 1132.59 1275.71 1120.52 1239.05 1114.14 1201.2 L 1116.49 1201.93 C 1123.52 1241.32 1144.99 1304.11 1168.92 1335.63 C 1166.33 1337.29 1166 1337.52 1163.16 1338.64 C 1158.11 1336.51 1155.43 1335.42 1150.66 1332.5 C 1149.87 1329.59 1150.71 1330.67 1148.72 1328.79 C 1148.3 1324.32 1128.75 1286.59 1125.2 1275.96 C 1112.99 1239.35 1103.38 1203.1 1098.27 1164.84 L 1100.28 1163.42 z"/>
<path transform="translate(0,0)" fill="rgb(255,255,255)" d="M 917.443 1067.21 L 919.413 1070.93 C 908.49 1168.85 906.138 1256.56 848.473 1341.58 C 845.696 1342.96 842.805 1343.95 839.898 1345.06 C 848.745 1331.44 857.084 1318.47 864.387 1303.85 C 901.965 1228.59 902.284 1147.66 917.443 1067.21 z"/>
<path transform="translate(0,0)" fill="rgb(255,255,255)" d="M 1101.47 1071.83 C 1102.37 1069.65 1101.64 1070.55 1103.74 1069.21 C 1107.39 1094.64 1108.79 1121.42 1112.97 1146.58 C 1122.28 1202.68 1133.98 1261.36 1160.75 1311.98 C 1163.49 1317.16 1175.74 1336.38 1176.08 1339.6 C 1172.92 1339.31 1171.95 1337.81 1168.92 1335.63 C 1144.99 1304.11 1123.52 1241.32 1116.49 1201.93 C 1106.16 1152.27 1105 1122.62 1101.47 1071.83 z"/>
<path transform="translate(0,0)" fill="rgb(229,228,229)" d="M 923.267 1031.63 L 923.948 1031.85 C 922.571 1044.91 920.77 1057.91 919.413 1070.93 L 917.443 1067.21 C 919.384 1054.41 919.764 1044.51 923.267 1031.63 z"/>
<path transform="translate(0,0)" fill="rgb(172,172,178)" d="M 1101.47 1071.83 C 1100.4 1067.99 1100.03 1044.63 1100.34 1040.27 C 1102.13 1048.28 1102.94 1060.73 1103.74 1069.21 C 1101.64 1070.55 1102.37 1069.65 1101.47 1071.83 z"/>
<path transform="translate(0,0)" fill="rgb(59,57,57)" d="M 1091.97 1040.81 L 1092.82 1041.06 C 1093.37 1045.97 1095.12 1053.83 1095.22 1057.97 L 1093.01 1057.34 C 1092.53 1051.26 1090.77 1046.72 1091.97 1040.81 z"/>
<path transform="translate(0,0)" fill="rgb(255,255,255)" d="M 775.052 1226.21 C 774.503 1195.43 775.778 1168.21 775.853 1138.3 L 775.945 951.016 C 775.945 913.578 773.487 873.836 774.099 836.287 C 774.667 801.409 775.76 765.845 776.618 730.995 C 776.89 719.94 776.363 668.851 779.346 662.175 C 791.309 658.802 814.877 659.998 828.332 659.179 C 867.971 656.768 907.516 656.676 947.21 656.369 C 976.194 656.145 1005.97 657.747 1034.84 657.607 L 1157.83 656.007 C 1177.66 655.752 1197.01 655.879 1216.83 656.862 C 1224.33 657.235 1236.92 657.214 1244.01 658.377 L 1249.61 668.458 C 1247.25 678.393 1247.84 702.905 1247.74 714.438 C 1247.58 733.482 1247.28 752.525 1246.85 771.565 C 1245.62 828.604 1245.19 885.658 1245.56 942.71 C 1245.57 959.276 1246.89 976.571 1246.63 993.002 C 1245.77 1032.23 1244.89 1071.41 1244.62 1110.65 C 1244.54 1122.68 1246.68 1135.56 1246.38 1147.09 C 1245.74 1172.34 1247.44 1199.45 1246.07 1224.41 C 1231.98 1225.99 1158.93 1232.32 1154 1219.95 L 1154.36 1218.18 C 1158.61 1218.94 1161.51 1220.44 1165.42 1219.85 L 1165.53 1218.92 L 1164.58 1213.12 C 1158.66 1207.93 1150.77 1209.51 1151.55 1202.85 C 1154.61 1201.84 1158.38 1202.91 1161.71 1203.49 C 1155.94 1198.53 1151.39 1203.81 1148.15 1193.71 L 1149.12 1190.32 C 1147.54 1188.24 1147.35 1188.34 1146.95 1185.81 C 1149.61 1184.67 1153.99 1185.52 1156.82 1186.27 C 1152.61 1184.06 1145.92 1181.28 1144.52 1176.81 L 1145.22 1175.5 L 1147.41 1175.9 L 1149.52 1174.4 L 1147.6 1172.08 L 1147.79 1170.62 C 1152.31 1170.36 1155.1 1173.88 1160.87 1173.55 C 1160.07 1171.55 1145.14 1168.83 1142.83 1162.61 C 1146.84 1160.84 1153.79 1164.02 1157.89 1165.56 L 1158.29 1164.71 C 1152.7 1161.76 1147.17 1161.01 1142.57 1157.03 L 1142.61 1154.88 L 1144.98 1154.26 L 1147.7 1152.63 C 1143.43 1151.26 1142.4 1151.49 1140.44 1147.67 C 1143.61 1145.05 1149.73 1150.84 1157.41 1150.79 C 1155.24 1147.71 1140.45 1146.13 1139.54 1139.8 L 1141.22 1139.43 L 1143.63 1137.8 C 1141.07 1136.24 1141.06 1136.33 1139.08 1134.11 C 1141.52 1132.95 1147.31 1135.74 1152.37 1135.68 C 1151.23 1133.04 1141.5 1133.81 1137.96 1128.43 L 1138.55 1127.32 C 1141.33 1128.77 1141.61 1129.26 1144.63 1129.71 C 1140.87 1125.59 1137.28 1122.68 1136.31 1117.4 L 1135.89 1114.56 L 1136.23 1113.44 C 1138.25 1112.06 1142.74 1114.01 1147.28 1114.35 L 1148.22 1114.42 L 1147.79 1113.12 C 1141.26 1111.35 1138.06 1110.74 1134.73 1105.06 C 1134.31 1104.35 1133.26 1103.06 1132.71 1102.35 L 1131.64 1103.75 C 1131.62 1103.72 1129.08 1086.38 1128.72 1084.21 C 1126.45 1070.45 1123.82 1056.76 1120.84 1043.13 L 1123.78 1040.26 L 1125.18 1039.97 L 1125.58 1037.59 L 1124.79 1036.81 L 1125.01 1035.58 C 1127.55 1036.14 1128.76 1036.65 1131.18 1037.55 C 1129.64 1032.38 1126.69 1035.91 1122.74 1031.58 C 1122.29 1028.04 1122.19 1026.26 1124.97 1024.14 C 1128.53 1024.81 1129.06 1025.77 1131.45 1028.23 L 1133.24 1028.06 L 1133.47 1024.55 C 1136.41 1022.59 1134.43 1022.12 1137.89 1021.89 L 1139.25 1021.86 C 1138 1018.63 1136.76 1016.43 1137.05 1013.02 C 1139.48 1011.21 1138.13 1011.93 1142.19 1012.16 C 1144.6 1013.17 1146.66 1014.06 1149.14 1014.9 L 1150.04 1012.89 C 1148.23 1010.39 1145.94 1008.12 1146.05 1005.27 C 1149.47 1005.81 1153.83 1010.64 1156.21 1013.3 C 1160.77 1016.36 1164.02 1018.59 1168.97 1021.12 L 1169.68 1020.58 C 1164 1016.33 1158.49 1010.43 1152.15 1007.54 L 1152.08 1006.36 C 1154.33 1006.8 1154.62 1006.92 1156.88 1006.84 C 1155.48 1004.2 1153.99 1004.03 1150.97 1002.2 C 1153.51 1000.92 1169.64 1013.38 1175.88 1014.52 C 1174.94 1012.21 1165.82 1008.14 1159.9 1001.43 L 1158.95 1000.33 L 1162.04 999.531 C 1164.87 1001 1167.84 1002.96 1170.8 1003.21 C 1169.91 1002.05 1170.39 1002.33 1169.67 1002 C 1170.37 999.102 1170.15 999.14 1169.48 996.162 C 1165.59 989.562 1156.94 982.786 1160.91 975.895 C 1162.09 976.408 1163.43 979.337 1164.29 980.778 C 1169.08 982.454 1170.06 984.287 1173.67 985.878 L 1172.07 983.673 L 1176.09 980.613 L 1175.52 979.362 L 1176.45 978.53 C 1169.43 973.073 1168.54 972.849 1166.54 964.416 C 1165.13 961.823 1164.92 960.464 1166.53 958.244 L 1169.79 957.903 L 1170.05 957.261 L 1169.77 955.396 L 1170.74 955.034 C 1170.79 952.888 1170.79 951.888 1170.51 949.799 L 1170.28 948.114 L 1172.31 946.459 L 1172.21 943.301 C 1173.02 935.54 1169.85 938.608 1175.91 932 L 1176.41 929.612 C 1182.86 929.111 1189.59 940.052 1195.38 941.168 L 1195.88 940.054 C 1190.36 933.184 1180.21 931.147 1176.33 922.694 L 1176.98 921.197 C 1180.83 921.46 1180.1 921.758 1183.83 924.138 L 1184.56 921.432 C 1184.72 921.659 1178.14 915.656 1177.57 915.097 L 1177.02 915.266 C 1174.69 914.143 1169.79 907.959 1170 904.982 C 1169.66 901.335 1168.67 900.021 1168.3 896.269 L 1170.52 894.935 C 1169.95 891.964 1170.95 890.146 1169.11 887.339 C 1168.07 885.755 1167.93 884.776 1167.71 882.911 L 1169.36 882.358 C 1169.88 882.108 1171.7 881.72 1172.35 881.562 C 1175.51 883.208 1180.26 885.883 1183.39 887.223 L 1183.19 884.942 L 1179.07 881.797 C 1175.08 878.228 1171.02 874.16 1167.14 870.422 C 1171.97 873.104 1174.64 874.4 1178.86 878.124 L 1180.6 877.065 C 1177.05 873.502 1173.38 871.093 1169.3 868.167 L 1167.78 864.363 C 1166.4 863.776 1166.36 863.414 1165.19 862.235 L 1166.09 860.63 L 1169.89 859.712 L 1170.86 858.289 C 1167.72 856.812 1165.49 856.493 1164.01 854.064 C 1168.91 852.355 1177.77 854.794 1182.84 856.114 C 1172.7 848.15 1169.59 852.653 1160.48 848.185 C 1161.49 847.497 1165.63 844.802 1166.67 844.605 C 1168.26 844.307 1170.27 846.09 1171.61 844.361 C 1166.07 838.774 1159.82 841.107 1152.1 839.231 L 1153 837.906 C 1159.69 837.783 1160.68 839.899 1164.51 837.305 L 1162.92 836.464 C 1157.83 833.729 1157.02 833.493 1153.67 828.734 C 1150.3 827.577 1148.44 826.968 1145.28 825.37 C 1140.58 814.551 1144.75 815.093 1133.69 810.672 C 1132.47 808.203 1132.58 807.752 1132.14 804.981 C 1128.01 801.078 1122.62 802.56 1122.43 801.496 C 1121.12 793.912 1124.47 791.224 1112.93 790.855 C 1110.99 788.945 1111.01 786.982 1110.51 784.234 C 1106.63 781.281 1106.01 783.393 1100.98 783.395 C 1097.61 783.397 1096.3 775.598 1095.87 775.267 C 1086.69 768.125 1086.7 779.933 1079.54 768.072 C 1075.19 765.859 1074.33 767.045 1069.93 768.975 C 1067.25 767.242 1067.44 766.597 1065.78 763.521 C 1059.23 759.768 1058.75 768.538 1050.71 758.535 C 1042.88 756.835 1045.74 765.946 1035.41 757.056 C 1032 756.317 1030.22 757.629 1026.98 759.109 C 1021.97 758.316 1022.43 755.726 1021.44 755.831 C 1011.57 756.87 1015.34 762.834 1005.63 756.787 C 1000.74 756.882 1000.3 758.791 997.372 762.593 C 993.391 761.578 990.731 760.133 987.43 761.327 C 983.257 766.347 983.617 765.575 976.921 763.073 C 973.653 763.888 971.314 767.575 969.278 770.364 C 967.448 769.177 967.297 768.968 965.755 767.396 C 962.841 767.182 962.987 767.358 960.331 768.718 C 958.899 771.097 958.358 772.106 957.235 774.641 C 954.607 775.25 953.585 774.572 950.964 773.721 C 945.442 775.288 943.373 782.462 942.543 782.793 C 937.275 784.891 934.963 774.108 930.18 788.973 C 924.158 794.614 921.818 786.191 918.469 799.5 C 914.527 801.446 906.81 800.683 906.666 804.264 C 906.184 816.288 899.887 810.82 895.967 816.479 C 895.375 819.934 895.364 820.533 895.383 824.065 C 890.808 827.829 889.9 825.036 886.963 828.929 C 887.227 837.418 888.363 837.104 880.356 840.739 C 878.52 843.853 879.838 848.204 880.536 852.082 C 877.385 854.278 873.712 856.326 871.813 859.545 C 872.17 862.198 872.509 862.331 873.886 864.699 C 873.857 870.058 872.225 871.22 868.45 874.54 C 867.808 878.66 869.637 880.975 871.804 884.579 C 868.992 887.35 866.603 889.062 865.498 892.775 C 866.928 895.535 868.903 898.718 868.679 901.85 L 867.956 902.761 C 862.402 909.886 863.145 911.328 868.385 918.068 C 867.35 926.933 859.86 927.444 869.504 937.643 C 869.705 941.84 868.329 942.885 866.204 947.009 C 869.369 949.913 872.185 952.369 875.01 955.629 C 874.013 961.436 872.463 961.024 873.68 965.64 C 885.869 978.461 876.01 973.168 879.249 983.65 C 881.561 985.445 882.562 985.353 885.456 985.938 C 888.219 988.811 886.875 991.007 886.113 994.924 C 887.584 998.699 886.424 997.204 889.73 999.565 C 893.577 999.991 894.662 999.36 896.777 1001.48 C 897.035 1006.48 896.378 1008.41 899.257 1011.76 C 907.723 1013.83 908.149 1016.06 906.515 1025.13 C 896.358 1081.47 893.052 1138.16 884.569 1194.69 C 883.244 1203.52 881.203 1212.99 877.786 1221.21 C 875.412 1222.94 872.567 1224.91 870.301 1226.7 C 853.563 1229.41 792.758 1228.45 775.052 1226.21 z"/>
<path transform="translate(0,0)" fill="rgb(22,21,22)" d="M 1120.84 1043.13 L 1123.78 1040.26 C 1132.17 1053.21 1131.3 1047.75 1142.57 1055.87 C 1138.63 1054.69 1130.26 1051.67 1126.84 1052.02 C 1130.1 1057.81 1141.35 1062.18 1146.97 1065.55 C 1142.73 1064.41 1130.17 1059.63 1128.03 1059.84 C 1127.02 1065.02 1139.29 1066.37 1142.56 1071.19 C 1138.58 1070.36 1132.17 1067.65 1129.41 1068.31 C 1131.86 1073.93 1142.27 1075.38 1144.33 1079.67 L 1143.52 1080.24 L 1142.53 1083.96 C 1144.26 1085.99 1144.18 1085.08 1144.21 1086.98 C 1144.21 1088.57 1144.15 1090.7 1144.28 1092.23 L 1144.94 1094.95 L 1144.67 1099 L 1146.81 1100.73 L 1145.84 1101.42 C 1142.81 1100.32 1136.96 1097.66 1134.2 1098.3 C 1134.96 1101.11 1135.74 1101.32 1138 1103.23 L 1136.42 1104.24 L 1134.73 1105.06 C 1134.31 1104.35 1133.26 1103.06 1132.71 1102.35 L 1131.64 1103.75 C 1131.62 1103.72 1129.08 1086.38 1128.72 1084.21 C 1126.45 1070.45 1123.82 1056.76 1120.84 1043.13 z"/>
<path transform="translate(0,0)" fill="rgb(229,228,229)" d="M 1144.28 1092.23 C 1140.86 1090.34 1134.37 1087.29 1132.28 1084.42 L 1132.89 1082.71 C 1136.75 1082.69 1140.02 1085.83 1144.21 1086.98 C 1144.21 1088.57 1144.15 1090.7 1144.28 1092.23 z"/>
<path transform="translate(0,0)" fill="rgb(229,228,229)" d="M 1127.77 1087.47 C 1135.45 1089.93 1137.79 1091.1 1144.94 1094.95 L 1144.67 1099 C 1137.22 1096.3 1133.16 1093.13 1127.77 1087.47 z"/>
<path transform="translate(0,0)" fill="rgb(229,228,229)" d="M 1142.53 1083.96 C 1139.41 1082.56 1131.38 1078.73 1130.91 1075.33 C 1136.28 1076.27 1137 1077.84 1141.9 1079.65 L 1143.52 1080.24 L 1142.53 1083.96 z"/>
<path transform="translate(0,0)" fill="rgb(22,21,22)" d="M 1169.36 882.358 C 1169.88 882.108 1171.7 881.72 1172.35 881.562 C 1175.51 883.208 1180.26 885.883 1183.39 887.223 L 1183.68 887.723 C 1182.41 889.065 1181.47 889.852 1180.5 891.388 C 1185.58 894.021 1193.66 897.759 1198.1 900.594 C 1191.75 898.784 1180.29 893.78 1176.11 893.209 L 1175.7 894.446 C 1183.64 905.389 1191.49 903.65 1195.05 909.152 C 1189.94 909.377 1183.3 903.887 1176.61 903.699 C 1175.21 910.499 1193.3 915.09 1196.51 920.808 C 1193.14 922.119 1189.74 922.395 1187.36 923.292 L 1184.56 921.432 C 1184.72 921.659 1178.14 915.656 1177.57 915.097 L 1177.02 915.266 C 1174.69 914.143 1169.79 907.959 1170 904.982 C 1169.66 901.335 1168.67 900.021 1168.3 896.269 L 1170.52 894.935 C 1169.95 891.964 1170.95 890.146 1169.11 887.339 C 1168.07 885.755 1167.93 884.776 1167.71 882.911 L 1169.36 882.358 z"/>
<path transform="translate(0,0)" fill="rgb(229,228,229)" d="M 1177.57 915.097 L 1178.19 911.428 C 1183.32 912.063 1188.43 919.145 1196.51 920.808 C 1193.14 922.119 1189.74 922.395 1187.36 923.292 L 1184.56 921.432 C 1184.72 921.659 1178.14 915.656 1177.57 915.097 z"/>
<path transform="translate(0,0)" fill="rgb(229,228,229)" d="M 1172.35 881.562 C 1175.51 883.208 1180.26 885.883 1183.39 887.223 L 1183.68 887.723 C 1182.41 889.065 1181.47 889.852 1180.5 891.388 C 1176.98 888.496 1173.57 885.993 1172.35 881.562 z"/>
<path transform="translate(0,0)" fill="rgb(119,119,121)" d="M 1170.52 894.935 C 1169.95 891.964 1170.95 890.146 1169.11 887.339 C 1168.07 885.755 1167.93 884.776 1167.71 882.911 L 1169.36 882.358 C 1171.76 886.322 1173.49 891.107 1173.32 895.775 C 1171.05 895.35 1171.95 895.732 1170.52 894.935 z"/>
<path transform="translate(0,0)" fill="rgb(172,172,178)" d="M 1170 904.982 C 1176.13 907.629 1175.51 908.72 1177.02 915.266 C 1174.69 914.143 1169.79 907.959 1170 904.982 z"/>
<path transform="translate(0,0)" fill="rgb(22,21,22)" d="M 1172.21 943.301 C 1175.5 945.716 1190.47 957.349 1192.6 958.501 L 1194.61 958.679 L 1195.27 959.867 L 1192.61 962.243 L 1192.76 963.276 L 1195.07 965.899 L 1194.53 966.74 C 1186.45 961.346 1178.41 956.211 1170.45 950.627 C 1175.45 957.153 1190.52 971.609 1192.74 976.062 C 1185.11 969.55 1177.27 963.976 1170.05 957.261 L 1169.77 955.396 L 1170.74 955.034 C 1170.79 952.888 1170.79 951.888 1170.51 949.799 L 1170.28 948.114 L 1172.31 946.459 L 1172.21 943.301 z"/>
<path transform="translate(0,0)" fill="rgb(229,228,229)" d="M 1172.21 943.301 C 1175.5 945.716 1190.47 957.349 1192.6 958.501 L 1194.61 958.679 L 1195.27 959.867 L 1192.61 962.243 L 1192.76 963.276 C 1184.53 957.726 1179.1 953.842 1172.31 946.459 L 1172.21 943.301 z"/>
<path transform="translate(0,0)" fill="rgb(22,21,22)" d="M 1122.74 1031.58 C 1122.29 1028.04 1122.19 1026.26 1124.97 1024.14 C 1128.53 1024.81 1129.06 1025.77 1131.45 1028.23 L 1133.24 1028.06 C 1135.3 1033.62 1138.77 1040.57 1141.37 1045.99 C 1143.81 1047.19 1147.84 1048.74 1149.25 1050.66 C 1143.14 1049.49 1129.25 1044.81 1125.18 1039.97 L 1125.58 1037.59 L 1124.79 1036.81 L 1125.01 1035.58 C 1127.55 1036.14 1128.76 1036.65 1131.18 1037.55 C 1129.64 1032.38 1126.69 1035.91 1122.74 1031.58 z"/>
<path transform="translate(0,0)" fill="rgb(229,228,229)" d="M 1122.74 1031.58 C 1130.95 1031.44 1133.66 1033.45 1137.22 1041.38 L 1136.89 1043.72 C 1132.5 1044.14 1129.09 1040.49 1125.58 1037.59 L 1124.79 1036.81 L 1125.01 1035.58 C 1127.55 1036.14 1128.76 1036.65 1131.18 1037.55 C 1129.64 1032.38 1126.69 1035.91 1122.74 1031.58 z"/>
<path transform="translate(0,0)" fill="rgb(255,255,255)" d="M 1166.54 964.416 C 1165.13 961.823 1164.92 960.464 1166.53 958.244 L 1169.79 957.903 C 1172.14 963.302 1181.28 972.707 1185.58 977.468 C 1187.62 980.338 1187.64 980.329 1188.88 983.608 C 1183.86 984.24 1180.78 981.343 1176.45 978.53 C 1169.43 973.073 1168.54 972.849 1166.54 964.416 z"/>
<path transform="translate(0,0)" fill="rgb(22,21,22)" d="M 1166.54 964.416 C 1165.13 961.823 1164.92 960.464 1166.53 958.244 L 1169.79 957.903 C 1172.14 963.302 1181.28 972.707 1185.58 977.468 C 1183.26 976.509 1176.08 970.78 1173.63 968.936 C 1172.81 970.818 1173.33 969.941 1172.08 971.568 C 1168.28 968.86 1171.76 968.281 1166.54 964.416 z"/>
<path transform="translate(0,0)" fill="rgb(229,228,229)" d="M 1164.29 980.778 C 1169.08 982.454 1170.06 984.287 1173.67 985.878 C 1177.47 986.72 1185.63 989.736 1185.64 994.258 C 1177.38 1000.17 1164.86 991.325 1164.29 980.778 z"/>
<path transform="translate(0,0)" fill="rgb(22,21,22)" d="M 1139.25 1021.86 C 1138 1018.63 1136.76 1016.43 1137.05 1013.02 C 1139.48 1011.21 1138.13 1011.93 1142.19 1012.16 C 1143.97 1016.69 1147.72 1018.15 1148.94 1021.44 L 1148.12 1023.46 C 1150.71 1027.16 1157.19 1030.32 1161.46 1033.04 L 1161.62 1034.44 C 1155.69 1032.39 1143.73 1026.05 1139.25 1021.86 z"/>
<path transform="translate(0,0)" fill="rgb(22,21,22)" d="M 1172.21 943.301 C 1173.02 935.54 1169.85 938.608 1175.91 932 C 1181.42 939.466 1190.53 943.067 1195.05 950.632 L 1194.87 951.634 C 1187.44 947.521 1183.86 938.963 1175.17 938.475 L 1174.8 939.67 C 1179.52 947.509 1186.76 951.274 1192.6 958.501 C 1190.47 957.349 1175.5 945.716 1172.21 943.301 z"/>
<path transform="translate(0,0)" fill="rgb(22,21,22)" d="M 1133.47 1024.55 C 1136.41 1022.59 1134.43 1022.12 1137.89 1021.89 C 1139.8 1027.42 1152.54 1035.8 1157.38 1039.76 C 1151.95 1038.84 1143.88 1032.51 1140.15 1028.48 L 1139.05 1029.76 C 1140.48 1037.76 1151.76 1041.17 1152.83 1045.68 C 1135.59 1036.88 1138.69 1027.71 1133.47 1024.55 z"/>
<path transform="translate(0,0)" fill="rgb(255,255,255)" d="M 1138 1103.23 C 1143.38 1105.09 1144.25 1105.45 1148.88 1108.72 L 1147.79 1113.12 C 1141.26 1111.35 1138.06 1110.74 1134.73 1105.06 L 1136.42 1104.24 L 1138 1103.23 z"/>
<path transform="translate(0,0)" fill="rgb(59,57,57)" d="M 1138 1103.23 C 1143.38 1105.09 1144.25 1105.45 1148.88 1108.72 C 1144.49 1108.41 1140.52 1106.12 1136.42 1104.24 L 1138 1103.23 z"/>
<path transform="translate(0,0)" fill="rgb(229,228,229)" d="M 1142.19 1012.16 C 1144.6 1013.17 1146.66 1014.06 1149.14 1014.9 C 1152.72 1018.16 1156.53 1021.52 1160.03 1024.84 L 1157.44 1026.17 C 1153.31 1025.29 1152.4 1024.13 1148.94 1021.44 C 1147.72 1018.15 1143.97 1016.69 1142.19 1012.16 z"/>
<path transform="translate(0,0)" fill="rgb(22,21,22)" d="M 1135.89 1114.56 L 1136.23 1113.44 C 1138.25 1112.06 1142.74 1114.01 1147.28 1114.35 L 1148.22 1114.42 C 1145.09 1115.7 1144.75 1115.23 1143.06 1117.56 C 1145.71 1118.99 1148.97 1120.21 1150.26 1122.69 C 1146.85 1122.53 1139.95 1118.97 1136.31 1117.4 L 1135.89 1114.56 z"/>
<path transform="translate(0,0)" fill="rgb(229,228,229)" d="M 1135.89 1114.56 L 1136.23 1113.44 C 1138.25 1112.06 1142.74 1114.01 1147.28 1114.35 L 1148.22 1114.42 C 1145.09 1115.7 1144.75 1115.23 1143.06 1117.56 C 1140.94 1116.54 1138.12 1115.48 1135.89 1114.56 z"/>
<path transform="translate(0,0)" fill="rgb(229,228,229)" d="M 1150.04 1012.89 C 1148.23 1010.39 1145.94 1008.12 1146.05 1005.27 C 1149.47 1005.81 1153.83 1010.64 1156.21 1013.3 L 1155.14 1017.54 L 1150.04 1012.89 z"/>
<path transform="translate(0,0)" fill="rgb(59,57,57)" d="M 1167.78 864.363 C 1172.86 865.662 1187.94 870.429 1191.41 873.413 C 1184.51 874.863 1175.77 866.062 1169.3 868.167 L 1167.78 864.363 z"/>
<path transform="translate(0,0)" fill="rgb(22,21,22)" d="M 1150.04 1012.89 L 1155.14 1017.54 C 1157.57 1019.82 1163.4 1024.61 1164.37 1027.23 C 1162.55 1026.31 1161.73 1025.94 1160.03 1024.84 C 1156.53 1021.52 1152.72 1018.16 1149.14 1014.9 L 1150.04 1012.89 z"/>
<path transform="translate(0,0)" fill="rgb(22,21,22)" d="M 1170.86 858.289 C 1174.96 858.849 1182.37 859.653 1185.57 862.294 C 1182.02 863.69 1173.98 860.846 1169.89 859.712 L 1170.86 858.289 z"/>
<path transform="translate(0,0)" fill="rgb(59,57,57)" d="M 1183.19 884.942 C 1186.88 886.618 1197.38 890.88 1199.56 893.213 L 1198.86 893.233 L 1198.82 892.408 L 1197.95 891.874 L 1196.86 892.743 C 1192.08 891.115 1188.31 889.636 1183.68 887.723 L 1183.39 887.223 L 1183.19 884.942 z"/>
<path transform="translate(0,0)" fill="rgb(22,21,22)" d="M 1184.56 921.432 L 1187.36 923.292 C 1191.05 925.52 1191.82 925.807 1194.66 928.918 L 1194.07 929.81 C 1189.32 928.437 1187.86 927.022 1183.83 924.138 L 1184.56 921.432 z"/>
<path transform="translate(0,0)" fill="rgb(22,21,22)" d="M 1149.12 1190.32 L 1158.93 1193.95 L 1159.25 1195.26 L 1160.86 1195.45 C 1155.36 1195.7 1153.22 1194.24 1148.15 1193.71 L 1149.12 1190.32 z"/>
<path transform="translate(0,0)" fill="rgb(229,228,229)" d="M 1167.14 870.422 C 1171.97 873.104 1174.64 874.4 1178.86 878.124 L 1184.14 880.741 L 1179.07 881.797 C 1175.08 878.228 1171.02 874.16 1167.14 870.422 z"/>
<path transform="translate(0,0)" fill="rgb(22,21,22)" d="M 1143.63 1137.8 C 1146.93 1138.97 1152.24 1140.29 1154.27 1142.81 C 1150.86 1143.62 1144.57 1140.8 1141.22 1139.43 L 1143.63 1137.8 z"/>
<path transform="translate(0,0)" fill="rgb(94,92,92)" d="M 1176.45 978.53 C 1180.78 981.343 1183.86 984.24 1188.88 983.608 L 1189.76 985.657 L 1188.89 986.397 C 1183.76 985.227 1180.69 983.148 1176.09 980.613 L 1175.52 979.362 L 1176.45 978.53 z"/>
<path transform="translate(0,0)" fill="rgb(94,92,92)" d="M 1180.6 877.065 C 1184.86 878.792 1190.16 880.464 1193.43 883.45 C 1190.05 883.418 1187.33 881.998 1184.14 880.741 L 1178.86 878.124 L 1180.6 877.065 z"/>
<path transform="translate(0,0)" fill="rgb(59,57,57)" d="M 1147.7 1152.63 C 1150.77 1153.83 1155.44 1155.21 1157.55 1157.49 C 1153.01 1157.33 1149.32 1155.73 1144.98 1154.26 L 1147.7 1152.63 z"/>
<path transform="translate(0,0)" fill="rgb(59,57,57)" d="M 1149.52 1174.4 C 1153.04 1176.12 1156.82 1177.34 1159.02 1180.16 C 1155.01 1179.96 1151.09 1177.73 1147.41 1175.9 L 1149.52 1174.4 z"/>
<path transform="translate(0,0)" fill="rgb(22,21,22)" d="M 853.806 672.817 C 860.486 671.717 886.675 672.028 894.56 672.153 C 927.24 672.209 958.222 674.463 990.482 675.158 L 991.288 676.015 C 986.922 678.415 948.833 675.859 941.862 675.578 C 914.989 674.37 888.08 674.199 861.195 675.067 L 807.588 676.933 C 801.779 677.105 795.66 678.579 790.454 677.692 L 789.935 676.645 C 794.116 673.268 844.654 673.302 853.806 672.817 z"/>
<path transform="translate(0,0)" fill="rgb(94,92,92)" d="M 853.806 672.817 C 860.486 671.717 886.675 672.028 894.56 672.153 C 884.855 674.208 864.338 673.684 853.806 672.817 z"/>
<path transform="translate(0,0)" fill="rgb(1,0,1)" d="M 874.128 684.444 C 881.007 684.364 922.445 684.553 926.894 685.848 C 918.085 688.735 883.223 686.666 871.669 687.166 C 861.666 687.599 853.369 688.516 843.24 689.716 C 833.907 690.913 800.046 692.44 791.855 689.953 C 793.115 688.993 865.85 685.004 874.128 684.444 z"/>
<path transform="translate(0,0)" fill="rgb(22,21,22)" d="M 1139.75 670.458 C 1149.63 670.021 1225.58 668.902 1229.34 670.845 C 1230.9 671.649 1230.42 671.465 1230.94 673.324 C 1227.98 673.679 1230.38 673.566 1228.34 673.359 C 1215.38 672.043 1198.89 672.806 1185.75 672.921 L 1122.16 673.07 C 1116.47 673.092 1098.23 673.767 1094.2 672.769 C 1099.47 670.235 1130.88 670.787 1139.75 670.458 z"/>
<path transform="translate(0,0)" fill="rgb(59,57,57)" d="M 1149.23 683.569 C 1165.3 682.576 1220.61 682.355 1234.58 685.864 C 1230.51 688.004 1201.32 686.028 1194.25 685.738 C 1170.95 685.315 1127.92 687.382 1108.05 685.685 L 1107.47 684.947 C 1112.23 683.83 1141.17 684.021 1149.23 683.569 z"/>
<path transform="translate(0,0)" fill="rgb(1,0,1)" d="M 822.498 698.483 C 832.108 698.085 883.386 698.6 891.294 700.844 L 890.727 701.73 C 885.316 702.815 862.688 701.474 855.946 701.199 C 841.293 700.716 826.627 700.947 812.007 702.171 C 807.379 702.559 794.409 704.886 791.058 703.748 L 791.673 702.46 C 796.868 699.692 815.78 698.895 822.498 698.483 z"/>
<path transform="translate(0,0)" fill="rgb(22,21,22)" d="M 1171.56 695.43 C 1179.57 695.301 1230.68 695.043 1235.06 697.968 L 1234.46 698.922 C 1227.02 699.222 1216.59 698.44 1208.94 698.087 C 1203.77 698.009 1145.43 698.798 1143.71 698.11 C 1152.53 696.44 1162.53 696.042 1171.56 695.43 z"/>
<path transform="translate(0,0)" fill="rgb(22,21,22)" d="M 797.906 712.454 C 822.659 712.115 849.459 710.966 874.014 711.945 L 874.813 713.099 C 872.258 714.587 871.087 714.191 868.251 713.997 C 853.149 713.577 800.933 716.192 791.778 714.328 C 793.421 712.575 794.882 712.948 797.906 712.454 z"/>
<path transform="translate(0,0)" fill="rgb(22,21,22)" d="M 820.607 724.434 C 833.188 723.403 851.738 724.599 866.676 723.713 C 853.168 728.524 848.63 727.382 834.358 726.619 C 829.307 726.515 793.544 728.476 792.582 728.203 C 796.509 724.336 814.093 724.739 820.607 724.434 z"/>
<path transform="translate(0,0)" fill="rgb(22,21,22)" d="M 1193.23 708.569 C 1201.14 707.939 1227.03 707.811 1234.47 709.393 L 1233.9 710.332 C 1228.84 711.981 1215.65 710.509 1209.65 710.131 C 1202.54 710.325 1172.37 713.339 1168.32 709.567 C 1170.85 708.369 1187.94 708.878 1193.23 708.569 z"/>
<path transform="translate(0,0)" fill="rgb(22,21,22)" d="M 1182.04 723.462 C 1193.02 721.71 1213.99 722.994 1225.6 723.225 C 1230.14 723.315 1232.01 723.617 1234.65 726.684 C 1225.43 725.824 1186.34 725.544 1182.04 723.462 z"/>
<path transform="translate(0,0)" fill="rgb(59,57,57)" d="M 801.206 739.372 C 808.568 738.39 838.497 738.475 845.552 739.771 C 842.189 741.421 839.966 741.045 836.215 741.014 C 831.321 741.015 794.587 742.092 793.45 741.023 L 794.678 740.862 C 796.602 739.166 797.998 739.662 801.206 739.372 z"/>
<path transform="translate(0,0)" fill="rgb(59,57,57)" d="M 802.458 1058.9 L 801.216 1059.05 C 798.196 1059.39 796.618 1059.89 793.833 1058.77 C 800.001 1054.55 832.428 1056.57 840.263 1057.94 L 840.156 1058.85 L 835.102 1058.88 C 825.174 1059.27 812.579 1058.92 802.458 1058.9 z"/>
<path transform="translate(0,0)" fill="rgb(119,119,121)" d="M 802.458 1058.9 C 811.185 1057.26 826.414 1057.19 835.102 1058.88 C 825.174 1059.27 812.579 1058.92 802.458 1058.9 z"/>
<path transform="translate(0,0)" fill="rgb(22,21,22)" d="M 811.459 753.571 C 819.454 753.139 828.656 752.428 836.485 754.146 C 830.256 755.301 824.427 755.391 818.109 755.699 C 809.551 755.944 802.089 756.448 793.613 754.887 C 799.694 753.794 805.296 753.792 811.459 753.571 z"/>
<path transform="translate(0,0)" fill="rgb(59,57,57)" d="M 811.368 1145.5 C 818.22 1145.04 821.316 1144.82 828.199 1145.41 L 829.128 1147.03 L 829.648 1146.94 L 829.674 1145.66 L 830.306 1146.8 L 830.262 1145.8 L 831.119 1146.26 L 830.638 1146.83 C 824.899 1148.42 818.066 1147.87 812.027 1147.74 C 806.453 1147.93 801.639 1148.55 795.867 1148.6 L 794.733 1147.86 L 794.611 1148.53 L 792.783 1148.24 C 793.238 1148.19 793.693 1148.14 794.148 1148.1 C 797.73 1145.66 806.304 1145.81 811.368 1145.5 z"/>
<path transform="translate(0,0)" fill="rgb(59,57,57)" d="M 799.966 1044.9 C 804.871 1044.2 831.402 1043.1 834.599 1045.26 C 824.813 1046.09 816.693 1046.48 806.893 1046.74 C 801.87 1047.15 799.433 1047.76 794.667 1046.09 C 796.587 1044.54 796.909 1045.07 799.966 1044.9 z"/>
<path transform="translate(0,0)" fill="rgb(22,21,22)" d="M 806.893 1046.74 C 801.87 1047.15 799.433 1047.76 794.667 1046.09 C 796.587 1044.54 796.909 1045.07 799.966 1044.9 L 806.714 1045.39 L 807.176 1046.19 L 806.893 1046.74 z"/>
<path transform="translate(0,0)" fill="rgb(94,92,92)" d="M 810.525 1069.42 C 814.944 1068.79 825.482 1069.03 830.086 1069.24 L 831.408 1070.57 L 831.929 1070.49 L 832.092 1069.48 L 833.378 1069.81 L 832.51 1070.47 L 831.868 1069.56 L 831.314 1069.5 L 830.615 1070.81 C 827.042 1071.26 821.508 1071.22 817.752 1071.32 C 811.834 1071.92 800.573 1073.47 795.148 1071.56 L 796.575 1071.62 C 799.52 1069.37 806.203 1069.72 810.525 1069.42 z"/>
<path transform="translate(0,0)" fill="rgb(59,57,57)" d="M 1198.23 734.504 C 1206.99 734.421 1222.82 734.55 1231.39 736.141 L 1231.87 737.45 L 1228.76 737.685 C 1221.28 736.764 1205.05 736.806 1196.53 736.559 L 1195.29 735.76 L 1194.32 736.152 L 1194.22 735.015 L 1196.14 735.219 L 1196.35 734.465 L 1198.23 734.504 z"/>
<path transform="translate(0,0)" fill="rgb(59,57,57)" d="M 820.745 1082.44 C 825.838 1082.14 827.517 1082.23 832.595 1082.84 L 832.889 1083.53 C 824.164 1085.1 816.543 1085 807.751 1085.15 C 802.94 1085.56 800.827 1085.77 796.071 1085.46 L 795.841 1084.62 C 804.784 1082.94 811.717 1082.81 820.745 1082.44 z"/>
<path transform="translate(0,0)" fill="rgb(59,57,57)" d="M 792.451 1017.41 C 799.781 1016.65 823.985 1016.68 831.43 1017.43 L 831.575 1018.93 C 824.039 1019.04 799.103 1020.33 793.693 1019.47 L 792.451 1017.41 z"/>
<path transform="translate(0,0)" fill="rgb(59,57,57)" d="M 793.637 1030.12 C 802.845 1031.49 830.657 1029.68 834.03 1032.52 C 826.369 1033.7 804.428 1033.78 796.115 1032.83 C 794.347 1032.62 794.581 1032.01 793.637 1030.12 z"/>
<path transform="translate(0,0)" fill="rgb(59,57,57)" d="M 790.575 962.387 C 794.489 961.711 824.427 961.797 828.125 963.085 L 828.02 964.163 C 816.859 964.542 801.381 965.412 790.649 963.845 L 790.575 962.387 z"/>
<path transform="translate(0,0)" fill="rgb(59,57,57)" d="M 809.767 767.441 C 814.893 767.116 823.996 766.184 828.485 768.06 C 824.947 769.658 820.532 769.428 816.554 769.579 C 810.912 769.831 800.966 770.529 795.864 768.916 C 799.571 767.478 805.591 767.609 809.767 767.441 z"/>
<path transform="translate(0,0)" fill="rgb(22,21,22)" d="M 801.191 976.476 C 806.714 976.33 822.742 977.11 827.723 978.024 L 827.077 978.91 L 821.628 979.198 C 815.261 979.087 797.895 979.193 792.373 977.913 C 795.246 976.167 797.447 976.643 801.191 976.476 z"/>
<path transform="translate(0,0)" fill="rgb(94,92,92)" d="M 808.533 1134.45 C 813.697 1134.31 823.056 1134.09 827.843 1135.13 C 824.499 1136.44 820.863 1136.48 817.25 1136.76 C 812.308 1136.89 798.578 1137.54 794.327 1136.11 C 799.433 1134.5 803.2 1134.67 808.533 1134.45 z"/>
<path transform="translate(0,0)" fill="rgb(59,57,57)" d="M 1213.24 762.571 L 1214.12 762.503 C 1218.47 762.18 1228.55 761.101 1231.87 763.961 C 1227.65 765.304 1225.48 764.874 1220.95 764.686 C 1215.68 764.837 1207.14 765.238 1202.32 763.922 C 1205.58 762.608 1209.63 762.73 1213.24 762.571 z"/>
<path transform="translate(0,0)" fill="rgb(59,57,57)" d="M 1195.29 749.528 C 1203.03 748.615 1223.06 748.586 1230.53 749.95 L 1231.07 751.012 C 1219.62 751.194 1207.48 751.449 1196.07 751.258 L 1195.29 749.528 z"/>
<path transform="translate(0,0)" fill="rgb(94,92,92)" d="M 793.817 1109.46 C 800.582 1108.82 819.841 1108.32 825.969 1109.36 L 826.41 1110.97 C 815.871 1110.86 805.269 1111.46 794.713 1111.6 L 793.817 1109.46 z"/>
<path transform="translate(0,0)" fill="rgb(94,92,92)" d="M 824.815 1156.78 L 826.262 1156.43 L 827.005 1157.26 C 825.232 1158.55 799.742 1160.06 794.876 1160.51 C 793.988 1160.59 794.575 1160.6 793.185 1160.02 L 794.388 1158.75 C 802.782 1156.69 815.724 1156.97 824.815 1156.78 z"/>
<path transform="translate(0,0)" fill="rgb(59,57,57)" d="M 806.969 1120.57 C 814.368 1120.05 818.11 1119.81 825.473 1120.31 L 825.129 1121.28 L 827.225 1120.67 L 824.285 1121.46 L 827.233 1120.81 C 823.872 1121.93 817.077 1121.95 813.267 1122.13 C 808.75 1122.63 798.552 1124 794.739 1122.62 C 798.513 1120.8 802.693 1120.9 806.969 1120.57 z"/>
<path transform="translate(0,0)" fill="rgb(59,57,57)" d="M 793.209 989.544 C 797.832 988.71 823.805 988.272 828.349 989.673 C 823.876 991.651 797.342 992.302 793.209 989.544 z"/>
<path transform="translate(0,0)" fill="rgb(59,57,57)" d="M 812.733 778.438 C 816.411 777.736 820.209 778.01 823.748 779.232 C 821.281 781.038 807.805 780.825 803.75 780.966 C 799.971 781.726 798.558 782.108 794.759 782.104 L 794.319 781.239 C 802.098 778.735 804.495 778.773 812.733 778.438 z"/>
<path transform="translate(0,0)" fill="rgb(59,57,57)" d="M 1200.6 1063.47 C 1204.88 1061.81 1226.18 1062.22 1230.05 1064.49 C 1224.01 1065.55 1207.69 1065.07 1201.22 1064.95 L 1200.6 1063.47 z"/>
<path transform="translate(0,0)" fill="rgb(59,57,57)" d="M 794.475 1097.57 C 802.999 1096.68 815.927 1096.4 824.335 1097.55 L 824.471 1098.93 C 815.324 1098.92 804.393 1099.8 795.662 1099.45 L 794.475 1097.57 z"/>
<path transform="translate(0,0)" fill="rgb(59,57,57)" d="M 809.948 1003.72 C 817.248 1003.1 828.114 1004.04 835.517 1004.82 C 827.794 1006.36 817.16 1006.02 809.204 1005.95 L 809.948 1003.72 z"/>
<path transform="translate(0,0)" fill="rgb(59,57,57)" d="M 1201.39 1074.41 C 1208.85 1075.48 1219.74 1074.53 1228.31 1075.46 L 1228.66 1077.28 C 1221.92 1077.65 1208.95 1077.65 1202.58 1076.31 L 1201.39 1074.41 z"/>
<path transform="translate(0,0)" fill="rgb(94,92,92)" d="M 1202.16 1036.41 C 1208.15 1036.56 1225.45 1035.93 1229.76 1037.41 C 1224.01 1040.28 1207.31 1040.38 1202.16 1036.41 z"/>
<path transform="translate(0,0)" fill="rgb(94,92,92)" d="M 790.014 949.486 C 795.573 948.834 807.239 947.66 811.503 951.187 C 805.366 951.936 794.474 953.821 790.014 949.486 z"/>
<path transform="translate(0,0)" fill="rgb(22,21,22)" d="M 791.262 924.528 C 797.24 923.571 811.051 922.418 816.438 924.894 C 811.767 926.477 795.538 927.072 791.262 924.528 z"/>
<path transform="translate(0,0)" fill="rgb(59,57,57)" d="M 790.366 937.507 C 795.496 936.851 811.571 935.539 815.357 938.624 C 808.876 938.971 794.471 940.961 790.366 937.507 z"/>
<path transform="translate(0,0)" fill="rgb(59,57,57)" d="M 808.698 792.481 C 810.817 792.379 813.854 792.321 815.405 793.524 C 811.531 795.139 807.54 794.763 803.249 794.814 C 798.563 795.177 797.476 795.12 792.822 794.432 C 798.524 792.451 802.743 792.64 808.698 792.481 z"/>
<path transform="translate(0,0)" fill="rgb(59,57,57)" d="M 793.448 806.396 C 798.196 806.294 808.38 805.833 812.393 807.543 L 811.727 809.098 C 807.392 808.984 795.372 809.397 792.634 807.769 L 793.448 806.396 z"/>
<path transform="translate(0,0)" fill="rgb(59,57,57)" d="M 1218.29 1049.56 C 1222.41 1049.12 1223.15 1049.15 1227.3 1049.56 L 1227.74 1050.3 C 1221.31 1052.44 1218.04 1052.01 1211.27 1051.9 L 1200 1050.02 C 1206.1 1049.93 1212.19 1049.77 1218.29 1049.56 z"/>
<path transform="translate(0,0)" fill="rgb(94,92,92)" d="M 1205.05 1025.49 C 1211.69 1025.06 1223.6 1023.79 1229.42 1026.47 C 1223.1 1027.29 1210.62 1028.4 1205.05 1025.49 z"/>
<path transform="translate(0,0)" fill="rgb(59,57,57)" d="M 1231.55 1146.59 L 1233 1146.32 L 1232.78 1147.42 C 1227.04 1149.37 1223.97 1149.57 1218.06 1150.26 C 1216.02 1149.26 1216.84 1149.98 1215.58 1148.12 C 1218.46 1146.73 1227.83 1146.75 1231.55 1146.59 z"/>
<path transform="translate(0,0)" fill="rgb(22,21,22)" d="M 793.647 1170.5 C 797.653 1170.04 807.121 1169.03 810.703 1170.52 L 809.765 1171.45 C 806.018 1171.8 796.281 1173.51 793.485 1172.53 L 793.647 1170.5 z"/>
<path transform="translate(0,0)" fill="rgb(94,92,92)" d="M 1208.56 911.49 C 1212.6 911.285 1222.23 910.448 1225.48 912.048 L 1224.05 913.015 C 1219.86 913.356 1210.39 914.538 1207.37 912.512 L 1208.56 911.49 z"/>
<path transform="translate(0,0)" fill="rgb(1,0,1)" d="M 791.112 820.521 C 795.613 820.143 806.05 818.532 808.91 821.489 C 803.369 822.429 795.222 824.43 791.112 820.521 z"/>
<path transform="translate(0,0)" fill="rgb(59,57,57)" d="M 1226.09 933.521 L 1227.57 933.937 L 1226.75 935.037 C 1220.9 936.278 1217.86 936.042 1211.98 935.939 L 1211.08 935.709 L 1210.44 934.515 C 1213.59 933.298 1222.26 933.572 1226.09 933.521 z"/>
<path transform="translate(0,0)" fill="rgb(22,21,22)" d="M 1208.14 1004.49 C 1212.93 1004 1225.09 1002.46 1228.44 1005.72 C 1223.85 1005.98 1211.16 1007.41 1208.14 1004.49 z"/>
<path transform="translate(0,0)" fill="rgb(94,92,92)" d="M 1209.8 1014.55 C 1216.97 1013.98 1221.28 1013.58 1228.47 1014 L 1229.65 1015.51 C 1224.13 1016.45 1216.07 1016.12 1210.5 1015.67 L 1209.8 1014.55 z"/>
<path transform="translate(0,0)" fill="rgb(119,119,121)" d="M 792.098 912.467 C 796.646 911.844 804.096 911.558 808.556 912.536 L 809.195 914.168 C 803.859 913.957 798.456 914.687 792.734 914.524 L 792.098 912.467 z"/>
<path transform="translate(0,0)" fill="rgb(22,21,22)" d="M 1214.72 776.476 C 1219.35 776.134 1228.4 775.072 1232.17 776.93 L 1232.41 778.796 C 1227.98 777.902 1220.18 778.38 1214.64 777.764 L 1214.72 776.476 z"/>
<path transform="translate(0,0)" fill="rgb(94,92,92)" d="M 1205.48 904.493 C 1211.39 904.061 1221.34 902.965 1226.52 905.522 C 1220.52 906.463 1211.02 906.997 1205.48 904.493 z"/>
<path transform="translate(0,0)" fill="rgb(22,21,22)" d="M 1210.73 945.432 C 1216.04 944.977 1226.66 943.504 1230.78 946.467 C 1223.75 947.6 1217.46 947.789 1210.73 945.432 z"/>
<path transform="translate(0,0)" fill="rgb(22,21,22)" d="M 1226.61 954.457 L 1228.57 954.314 L 1228.56 955.754 C 1224.59 957.202 1221.4 957.292 1217.23 957.72 L 1214.77 957.802 L 1214.32 956.755 C 1219.49 954.749 1221.11 954.871 1226.61 954.457 z"/>
<path transform="translate(0,0)" fill="rgb(22,21,22)" d="M 804.721 1180.4 L 810.128 1180.36 C 808.451 1181.77 800.014 1183.2 797.243 1183.81 C 796.32 1184.09 794.669 1184.39 793.673 1184.59 L 792.956 1183.63 C 797.495 1180.75 799.281 1180.9 804.721 1180.4 z"/>
<path transform="translate(0,0)" fill="rgb(94,92,92)" d="M 794.132 842.552 C 800.724 841.927 805.551 840.637 810.769 844.624 C 805.532 844.811 798.707 845.079 794.132 842.552 z"/>
<path transform="translate(0,0)" fill="rgb(22,21,22)" d="M 1216.29 980.42 C 1220.86 980.069 1224.85 979.456 1229.33 980.298 L 1229.61 982.07 C 1225 982.637 1222 983.322 1217.41 982.443 L 1216.29 980.42 z"/>
<path transform="translate(0,0)" fill="rgb(22,21,22)" d="M 1218.8 1099.3 C 1222.99 1099.61 1223.44 1099.61 1227.35 1100.97 L 1227.23 1101.99 L 1224.25 1101.8 C 1219.54 1101.98 1217.99 1102.26 1213.51 1101.18 C 1215.72 1099.44 1215.68 1099.87 1218.8 1099.3 z"/>
<path transform="translate(0,0)" fill="rgb(94,92,92)" d="M 1208.94 1086.45 C 1215.31 1085.69 1219.38 1085.56 1225.38 1087.8 C 1220.48 1088.28 1212.3 1090.01 1208.94 1086.45 z"/>
<path transform="translate(0,0)" fill="rgb(22,21,22)" d="M 1213.94 968.452 C 1219.46 967.531 1225.87 966.825 1230.85 969.584 C 1225.66 970.462 1218.74 970.801 1213.94 968.452 z"/>
<path transform="translate(0,0)" fill="rgb(22,21,22)" d="M 809.204 1005.95 C 805.4 1006.18 802.417 1006.83 799.303 1005.13 C 802.559 1003.43 806.201 1003.78 809.948 1003.72 L 809.204 1005.95 z"/>
<path transform="translate(0,0)" fill="rgb(22,21,22)" d="M 1219.32 790.476 C 1224.81 789.663 1228.19 788.866 1232.98 791.516 C 1227.64 792.367 1224.29 792.438 1219.32 790.476 z"/>
<path transform="translate(0,0)" fill="rgb(94,92,92)" d="M 1216.69 1136.41 C 1221.94 1135.67 1224.98 1135.86 1229.85 1137.55 C 1224.52 1138.48 1221.57 1138.64 1216.69 1136.41 z"/>
<path transform="translate(0,0)" fill="rgb(255,255,255)" d="M 925.885 1230.18 C 933.447 1207.35 935.41 1181.37 938.946 1158.82 C 941.306 1143.77 950.559 1057.43 955.524 1050.29 L 956.903 1050.9 C 957.593 1055.79 955.762 1058.86 955.145 1063.55 C 951.062 1094.55 949.045 1125.72 945.549 1156.85 L 947.768 1157.11 C 951.011 1137.72 957.471 1071.55 964.43 1056.75 C 964.976 1061.12 962.958 1073.91 962.421 1079.38 L 957.265 1133.81 L 959.914 1134.88 C 961.086 1124.94 969.705 1063.04 973.214 1057.54 C 973.729 1066.29 971.702 1074.29 971.06 1082.91 C 969.258 1107.13 966.097 1131.23 963.631 1155.42 L 965.962 1155.01 C 967.744 1138.75 975.44 1072.86 981.673 1060.97 C 982.568 1073.39 977.52 1100.23 976.452 1113.43 C 971.103 1179.57 963.714 1244.35 938.956 1306.55 C 936.184 1313.51 930.312 1331.99 926.248 1337.06 L 924.584 1337.3 C 922.604 1335.02 922.696 1335.46 921.406 1332.87 L 919.831 1331.84 C 917.568 1328.89 916.297 1327.99 913.507 1325.65 L 911.298 1324.56 C 909.898 1321.44 908.781 1320.86 906.163 1318.71 L 904.187 1317.29 C 901.513 1318.24 898.822 1319.17 896.176 1320.19 L 894.742 1317.74 C 895.415 1314.13 906.322 1286.82 908.33 1281.33 C 914.468 1264.01 919.92 1246.46 924.674 1228.71 L 925.885 1230.18 z"/>
<path transform="translate(0,0)" fill="rgb(255,255,255)" d="M 965.962 1155.01 C 967.744 1138.75 975.44 1072.86 981.673 1060.97 C 982.568 1073.39 977.52 1100.23 976.452 1113.43 C 971.103 1179.57 963.714 1244.35 938.956 1306.55 C 936.184 1313.51 930.312 1331.99 926.248 1337.06 L 924.584 1337.3 C 922.604 1335.02 922.696 1335.46 921.406 1332.87 L 919.831 1331.84 C 921.28 1324.96 925.67 1315.23 928.293 1308.3 C 947.479 1257.62 957.919 1209.25 963.631 1155.42 L 965.962 1155.01 z"/>
<path transform="translate(0,0)" fill="rgb(22,21,22)" d="M 965.962 1155.01 C 960.344 1205.35 952.122 1246.38 935.974 1294.18 C 932.654 1304.01 926.497 1324.32 921.406 1332.87 L 919.831 1331.84 C 921.28 1324.96 925.67 1315.23 928.293 1308.3 C 947.479 1257.62 957.919 1209.25 963.631 1155.42 L 965.962 1155.01 z"/>
<path transform="translate(0,0)" fill="rgb(255,255,255)" d="M 959.914 1134.88 C 961.086 1124.94 969.705 1063.04 973.214 1057.54 C 973.729 1066.29 971.702 1074.29 971.06 1082.91 C 969.258 1107.13 966.097 1131.23 963.631 1155.42 C 957.919 1209.25 947.479 1257.62 928.293 1308.3 C 925.67 1315.23 921.28 1324.96 919.831 1331.84 C 917.568 1328.89 916.297 1327.99 913.507 1325.65 L 911.298 1324.56 C 941.034 1259.64 948.686 1203.01 957.265 1133.81 L 959.914 1134.88 z"/>
<path transform="translate(0,0)" fill="rgb(22,21,22)" d="M 957.265 1133.81 L 959.914 1134.88 C 954.949 1172.55 951.616 1201.03 942.662 1237.86 C 939.206 1252.12 935.128 1266.22 930.44 1280.12 C 927.969 1287.62 916.585 1318.19 916.481 1324.31 L 913.507 1325.65 L 911.298 1324.56 C 941.034 1259.64 948.686 1203.01 957.265 1133.81 z"/>
<path transform="translate(0,0)" fill="rgb(255,255,255)" d="M 925.885 1230.18 C 933.447 1207.35 935.41 1181.37 938.946 1158.82 C 941.306 1143.77 950.559 1057.43 955.524 1050.29 L 956.903 1050.9 C 957.593 1055.79 955.762 1058.86 955.145 1063.55 C 951.062 1094.55 949.045 1125.72 945.549 1156.85 C 940.179 1202.83 933.021 1238.62 917.566 1282.87 C 914.117 1292.75 908.936 1308.43 904.187 1317.29 C 901.513 1318.24 898.822 1319.17 896.176 1320.19 L 894.742 1317.74 C 895.415 1314.13 906.322 1286.82 908.33 1281.33 C 914.468 1264.01 919.92 1246.46 924.674 1228.71 L 925.885 1230.18 z"/>
<path transform="translate(0,0)" fill="rgb(22,21,22)" d="M 924.674 1228.71 L 925.885 1230.18 C 922.106 1245.92 917.597 1261.81 912.299 1277.11 C 907.381 1291.31 900.671 1305.96 896.176 1320.19 L 894.742 1317.74 C 895.415 1314.13 906.322 1286.82 908.33 1281.33 C 914.468 1264.01 919.92 1246.46 924.674 1228.71 z"/>
<path transform="translate(0,0)" fill="rgb(22,21,22)" d="M 947.768 1157.11 C 944.293 1197.7 925.067 1283.61 906.163 1318.71 L 904.187 1317.29 C 908.936 1308.43 914.117 1292.75 917.566 1282.87 C 933.021 1238.62 940.179 1202.83 945.549 1156.85 L 947.768 1157.11 z"/>
<path transform="translate(0,0)" fill="rgb(255,255,255)" d="M 1207.73 1350.53 C 1167.69 1340.21 1133.67 1206.37 1128.36 1167.22 C 1123.48 1131.18 1121.43 1092.38 1115.88 1056.09 C 1114.8 1049.04 1113.06 1038.97 1112.45 1031.92 C 1114.99 1030.25 1113.59 1030.87 1117.22 1030.99 C 1120.31 1033.83 1120.04 1038.19 1120.84 1043.13 C 1123.82 1056.76 1126.45 1070.45 1128.72 1084.21 C 1129.08 1086.38 1131.62 1103.72 1131.64 1103.75 C 1140.1 1190.67 1145.1 1230.14 1190.14 1306.79 C 1194.2 1313.69 1198.54 1320.41 1203.16 1326.95 C 1207.02 1332.31 1221.19 1349.46 1222.36 1352.98 L 1221.19 1354.06 C 1216.36 1353.33 1215.26 1352.8 1211.22 1349.52 L 1207.73 1350.53 z"/>
<path transform="translate(0,0)" fill="rgb(22,21,22)" d="M 1207.73 1350.53 C 1184.6 1326.47 1164.94 1293.47 1156.82 1261.04 C 1178.34 1302.94 1176.73 1313.79 1211.22 1349.52 L 1207.73 1350.53 z"/>
<path transform="translate(0,0)" fill="rgb(255,255,255)" d="M 1018.34 1060.55 C 1018.76 1060.97 1019.19 1061.39 1019.61 1061.81 C 1022.91 1139.62 1026.74 1217.54 1056.4 1290.65 C 1058.67 1297.9 1062.83 1305.36 1065.29 1312.37 C 1071.47 1329.97 1095.66 1368.24 1082.87 1384.56 C 1078.09 1369.29 1073.45 1354.62 1067.16 1339.87 C 1043.18 1283.67 1021.52 1222.32 1013.6 1161.55 C 1012.12 1150.2 1013.8 1068.82 1018.34 1060.55 z"/>
<path transform="translate(0,0)" fill="rgb(255,255,255)" d="M 911.62 1023.65 C 913.592 1024.31 918.432 1025.88 917.964 1028.82 C 902.651 1125.08 903.964 1228.13 854.761 1315.43 C 847.626 1328.09 840.408 1346.81 824.964 1348.23 L 824.012 1347.86 C 822.959 1345.33 830.602 1335.7 832.51 1333.38 C 851.149 1310.69 859.676 1283.7 870.579 1256.88 C 872.718 1251.62 871.809 1252.97 877.002 1250.8 L 874.59 1248.57 C 874.424 1243.08 882.454 1222.46 883.949 1214.88 C 893.89 1164.47 896.015 1112.88 905.623 1062.33 C 908.052 1049.56 908.898 1036.54 911.62 1023.65 z"/>
<path transform="translate(0,0)" fill="rgb(255,255,255)" d="M 1009.93 1116.05 C 1010.56 1149.05 1008.78 1195.02 1002.49 1227.22 C 998.123 1249.59 960.765 1373.15 945.777 1379.61 C 942.102 1373.68 957.087 1342.99 959.9 1334.73 C 971.833 1299.66 985.119 1264.67 991.267 1228.01 C 995.202 1204.55 998.435 1181.01 1001.23 1157.38 C 1002.85 1143.75 1006.24 1130.08 1007.89 1116.5 L 1009.93 1116.05 z"/>
<path transform="translate(0,0)" fill="rgb(255,255,255)" d="M 867.02 1333.35 C 910.478 1267.05 919.176 1174.62 928.478 1098.27 C 930.096 1084.99 933.22 1056.07 938.873 1045.52 C 932.105 1092.13 931.78 1140.1 924.354 1186.5 C 918.005 1226.17 904.849 1273.38 887.511 1309.55 C 885.612 1313.4 883.553 1317.85 881.439 1321.53 C 877.22 1328.9 874.57 1329.47 867.02 1333.35 z"/>
<path transform="translate(0,0)" fill="rgb(255,255,255)" d="M 889.604 1310.45 C 913.615 1258.66 926.354 1199.91 932.221 1143.41 C 934.18 1124.54 939.793 1065.32 945.292 1050.16 L 946.973 1049.59 L 948.303 1050.74 C 948.682 1053.55 945.357 1064.2 944.763 1069.4 C 939.297 1117.22 938.032 1183.06 924.674 1228.71 C 919.92 1246.46 914.468 1264.01 908.33 1281.33 C 906.322 1286.82 895.415 1314.13 894.742 1317.74 C 892.051 1322.28 889.225 1323.38 884.11 1324.36 L 883.399 1323.89 L 881.439 1321.53 C 883.553 1317.85 885.612 1313.4 887.511 1309.55 L 889.604 1310.45 z"/>
<path transform="translate(0,0)" fill="rgb(22,21,22)" d="M 887.511 1309.55 L 889.604 1310.45 C 887.85 1314.19 884.79 1320.22 883.399 1323.89 L 881.439 1321.53 C 883.553 1317.85 885.612 1313.4 887.511 1309.55 z"/>
<path transform="translate(0,0)" fill="rgb(255,255,255)" d="M 989.281 1061.55 L 990.254 1062.37 C 990.436 1062.91 979.735 1166.65 978.977 1175.86 C 974.399 1231.52 954.643 1296.34 931.913 1347.46 L 930.399 1345.43 C 929.961 1341.56 953.914 1270.41 957.254 1257.39 C 973.814 1192.89 975.006 1126.37 989.281 1061.55 z"/>
<path transform="translate(0,0)" fill="rgb(255,255,255)" d="M 1006.44 1066.79 L 1007.69 1068.95 C 1006.77 1089.07 1001.32 1107.23 999.781 1125.53 C 997.113 1159.26 995.495 1194.75 989.175 1228.01 C 980.317 1274.61 961.189 1321.09 942.418 1364.32 L 941.413 1363.21 C 940.977 1359.64 950.793 1334.59 952.787 1329.31 C 961.964 1305.69 967.989 1281.12 975.017 1256.8 C 989.477 1206.77 989.476 1154.44 999.7 1103.74 C 1001.98 1092.44 1002.58 1077.24 1006.44 1066.79 z"/>
<path transform="translate(0,0)" fill="rgb(255,255,255)" d="M 1109.84 1058.14 C 1118.44 1088.56 1118.07 1127.84 1124.09 1159.96 C 1134.63 1216.19 1148.51 1276.82 1177.83 1326.57 C 1181.44 1332.7 1186.76 1338.13 1189.82 1344.54 L 1189.01 1345.05 C 1171.96 1337.58 1152.21 1284.46 1144.99 1267.17 C 1117.87 1202.22 1117.17 1132.56 1108.66 1064.13 L 1109.84 1058.14 z"/>
<path transform="translate(0,0)" fill="rgb(255,255,255)" d="M 926.427 1059.55 L 928.461 1061.34 C 922.309 1100.21 920.977 1141.72 915.768 1180.92 C 910.695 1217.34 901.064 1252.99 887.101 1287.02 C 881.273 1301.04 872.28 1324.41 862.074 1335.24 C 860.05 1337.39 855.174 1339.31 852.376 1340.46 C 865.177 1322.11 876.382 1297.76 884.413 1276.62 C 897.816 1242.37 907.012 1206.61 911.8 1170.15 C 916.911 1133.81 919.263 1095.71 926.427 1059.55 z"/>
<path transform="translate(0,0)" fill="rgb(255,255,255)" d="M 1044.55 1094.95 C 1045.14 1090.96 1044.45 1090.23 1046.77 1088.41 C 1051.66 1164.32 1060.45 1234.41 1090.11 1305.25 C 1093.47 1313.29 1102.26 1333.61 1106.54 1342.48 C 1105.83 1343.37 1105.12 1344.25 1104.4 1345.14 L 1102.44 1345.29 C 1099.58 1341.56 1089.7 1318.95 1087.01 1312.96 C 1052.3 1235.74 1046.87 1177.49 1044.55 1094.95 z"/>
<path transform="translate(0,0)" fill="rgb(255,255,255)" d="M 999.268 1062.66 C 1000.66 1067.76 994.486 1097.79 993.979 1105.8 C 988.187 1197.23 975.082 1271.74 937.108 1356.59 C 936.956 1356.23 936.782 1355.87 936.653 1355.49 C 935.59 1352.36 954.683 1296.17 957.119 1287.86 C 964.296 1263.37 971.753 1239.03 976.132 1213.83 C 981.131 1185.08 989.305 1080.92 999.268 1062.66 z"/>
<path transform="translate(0,0)" fill="rgb(255,255,255)" d="M 1028.74 1099.79 C 1032.51 1122.56 1032.46 1148.55 1035.7 1172.25 C 1042.47 1221.82 1055.92 1269.74 1075.1 1315.9 C 1079.22 1325.8 1095.68 1358.26 1091.72 1365.48 L 1089.92 1366.02 C 1088.18 1363.45 1077.55 1331.87 1075.11 1325.88 C 1067.64 1307.52 1056.67 1286.39 1050.43 1267.96 C 1034.84 1221.91 1026.26 1154.68 1027.01 1106.33 L 1028.74 1099.79 z"/>
<path transform="translate(0,0)" fill="rgb(255,255,255)" d="M 1037.67 1095.16 C 1040.81 1123.5 1041.72 1152.09 1046.02 1180.75 C 1052.29 1222.55 1064.66 1263.91 1079.13 1303.58 C 1083.38 1315.24 1100.92 1347.17 1097.2 1355.2 C 1094.07 1353.77 1071.41 1297.04 1068.25 1288.9 C 1047.4 1235.25 1033.9 1165.95 1035.89 1108.18 C 1036.47 1103.11 1035.55 1099.94 1037.67 1095.16 z"/>
<path transform="translate(0,0)" fill="rgb(229,228,229)" d="M 1014.23 1210.84 C 1016.63 1210.74 1016.46 1210.7 1018.63 1211.75 C 1021.41 1215.83 1022.03 1221.17 1023.1 1226.16 C 1017.57 1225.15 1012.87 1225 1007.3 1224.69 C 1007.01 1224.4 1005.9 1222.42 1005.65 1221.99 L 1006.03 1221 C 1008.5 1219.57 1012.53 1220.38 1015.62 1220.64 C 1011.9 1216.2 1007.98 1219.54 1008.06 1212.94 C 1010.49 1211.21 1011.13 1211.47 1014.23 1210.84 z"/>
<path transform="translate(0,0)" fill="rgb(255,255,255)" d="M 1252.99 1031.94 C 1251.3 1029.06 1249.27 1021.15 1252.26 1018.65 L 1255.16 1020.71 L 1257.37 1022.68 C 1262.63 1026.49 1263.8 1031.5 1262.2 1037.82 L 1260.75 1038.81 C 1258.02 1037.03 1257.69 1035.82 1256.17 1032.96 L 1252.99 1031.94 z"/>
<path transform="translate(0,0)" fill="rgb(255,255,255)" d="M 1252.99 1031.94 C 1251.3 1029.06 1249.27 1021.15 1252.26 1018.65 L 1255.16 1020.71 L 1257.37 1022.68 C 1257.07 1025.74 1256.8 1030.05 1256.17 1032.96 L 1252.99 1031.94 z"/>
<path transform="translate(0,0)" fill="rgb(22,21,22)" d="M 1255.16 1020.71 L 1257.37 1022.68 C 1257.07 1025.74 1256.8 1030.05 1256.17 1032.96 L 1252.99 1031.94 C 1254.86 1027.13 1254.74 1025.99 1255.16 1020.71 z"/>
<path transform="translate(0,0)" fill="rgb(229,228,229)" d="M 1014.81 1251.01 C 1021.66 1252.18 1018.21 1251.08 1023.85 1255.96 C 1025.12 1253.67 1025.64 1252.83 1027.2 1250.74 L 1029.13 1250.74 C 1031.57 1253 1031.78 1254.37 1032.93 1257.47 L 1032.88 1259.42 L 1030.99 1261 C 1025 1261.59 1017.19 1256.24 1014.81 1251.01 z"/>
<path transform="translate(0,0)" fill="rgb(255,255,255)" d="M 1252.54 1165.46 C 1255 1167.63 1254.86 1167.44 1255.88 1170.57 C 1255.15 1173.6 1253.42 1178.49 1256.21 1180.75 C 1257.18 1177.52 1257.19 1175.2 1259.33 1173.52 C 1261.45 1176.15 1260.85 1176.36 1261.49 1180.25 L 1261.5 1185.95 L 1260.39 1186.83 C 1252.21 1183.86 1251.62 1172.64 1252.54 1165.46 z"/>
<path transform="translate(0,0)" fill="rgb(229,228,229)" d="M 1182.16 1244.18 C 1189.38 1243.63 1210.35 1243.12 1216.07 1246.8 C 1211.88 1248.71 1192.33 1247.19 1186.57 1247.06 C 1185.42 1247.03 1183.02 1244.92 1182.16 1244.18 z"/>
<path transform="translate(0,0)" fill="rgb(119,119,121)" d="M 1007.89 1116.5 C 1008.7 1110.01 1011.17 1071.26 1011.39 1070.87 L 1011.01 1070.03 L 1011.28 1069.84 C 1012.67 1081.37 1011.99 1104.41 1009.93 1116.05 L 1007.89 1116.5 z"/>
<path transform="translate(0,0)" fill="rgb(229,228,229)" d="M 1253.01 873.54 C 1259.41 878.548 1254.03 879.788 1256.68 885.738 C 1258.24 883.696 1258.59 882.954 1259.9 880.709 L 1261.17 880.629 C 1262.47 883.07 1262.16 887.142 1262.24 890.212 L 1261.4 892.345 L 1259.9 892.351 C 1253.69 886.215 1251.91 882.136 1253.01 873.54 z"/>
<path transform="translate(0,0)" fill="rgb(229,228,229)" d="M 1169.67 1002 C 1163.57 998.674 1158.29 991.945 1156.3 985.186 L 1156.92 984.399 C 1159.61 985.848 1165.78 992.964 1169.48 996.162 C 1170.15 999.14 1170.37 999.102 1169.67 1002 z"/>
<path transform="translate(0,0)" fill="rgb(255,255,255)" d="M 1256.65 1052.64 C 1264.29 1058.65 1262.72 1062.67 1262.05 1071.49 C 1254.57 1066.94 1256.76 1060.65 1256.65 1052.64 z"/>
<path transform="translate(0,0)" fill="rgb(255,255,255)" d="M 1264.06 1178.43 C 1266.32 1179.63 1266.92 1180.43 1268.76 1182.2 C 1270.66 1186.53 1269.91 1190.66 1269.68 1195.51 L 1265.81 1193.15 C 1263.13 1189.14 1263.96 1183.48 1264.06 1178.43 z"/>
<path transform="translate(0,0)" fill="rgb(255,255,255)" d="M 1264.45 868.575 C 1265.94 869.518 1267.28 870.675 1268.44 872.008 C 1271.34 875.424 1270.27 882.328 1270.02 886.914 C 1264.19 880.686 1264.1 876.944 1264.45 868.575 z"/>
<path transform="translate(0,0)" fill="rgb(255,255,255)" d="M 787.236 1239.04 C 797.821 1239.07 799.452 1238.47 808.701 1243.95 C 807.068 1244.08 805.434 1244.19 803.799 1244.29 C 795.102 1244.79 793.665 1244.75 787.236 1239.04 z"/>
<path transform="translate(0,0)" fill="rgb(255,255,255)" d="M 1257.81 1007.33 C 1260.11 1008.56 1259.45 1008.21 1261.36 1010.14 C 1263.2 1015.2 1262.7 1020.05 1262.66 1025.51 C 1256.7 1018.3 1255.91 1016.68 1257.81 1007.33 z"/>
<path transform="translate(0,0)" fill="rgb(255,255,255)" d="M 1264.05 901.309 C 1266.99 902.354 1266.78 902.363 1269.03 904.592 C 1270.5 908.482 1269.5 912.009 1268.93 916.266 C 1262.79 916.892 1263.95 904.94 1264.05 901.309 z"/>
<path transform="translate(0,0)" fill="rgb(172,172,178)" d="M 1044.55 1094.95 C 1044.13 1088.54 1042.17 1065.34 1043.62 1060.54 L 1043.39 1061.14 C 1044.48 1062.17 1046.5 1085.05 1046.77 1088.41 C 1044.45 1090.23 1045.14 1090.96 1044.55 1094.95 z"/>
<path transform="translate(0,0)" fill="rgb(229,228,229)" d="M 1172.07 983.673 C 1167.4 979.782 1164.03 977.949 1163.2 971.811 C 1165.72 971.859 1171.39 976.849 1174.76 978.907 L 1175.52 979.362 L 1176.09 980.613 L 1172.07 983.673 z"/>
<path transform="translate(0,0)" fill="rgb(255,255,255)" d="M 1265.55 1028.23 L 1268.35 1030.03 C 1269.9 1034.15 1269.61 1041.39 1270.05 1046.48 C 1267.57 1045.56 1267.74 1045.47 1265.94 1043.47 C 1264.27 1038.35 1265.13 1033.7 1265.55 1028.23 z"/>
<path transform="translate(0,0)" fill="rgb(255,255,255)" d="M 1256.71 1070.43 C 1263.88 1075.85 1262.38 1078.21 1262.21 1086.68 C 1259.62 1085.13 1260.05 1085.32 1257.79 1083.2 C 1255.92 1079.01 1256.56 1075.12 1256.71 1070.43 z"/>
<path transform="translate(0,0)" fill="rgb(229,228,229)" d="M 842.773 1237.34 C 845.468 1237.38 847.136 1238.41 848.299 1240.68 C 846.991 1244.41 847.654 1243.15 843.079 1245.54 C 840.536 1243.71 837.644 1242.19 836.527 1239.44 C 838.517 1237.2 838.871 1237.88 842.773 1237.34 z"/>
<path transform="translate(0,0)" fill="rgb(255,255,255)" d="M 1264.35 884.509 C 1270.78 888.602 1269.64 892.61 1269.38 899.376 L 1269.06 899.483 C 1266.01 898.847 1267.46 899.403 1264.95 896.965 C 1263.57 892.419 1264.1 889.253 1264.35 884.509 z"/>
<path transform="translate(0,0)" fill="rgb(229,228,229)" d="M 1242.22 1242.6 L 1246.5 1243.92 L 1247.68 1246.56 C 1245.35 1248.83 1244.59 1248.04 1240.27 1248.26 C 1237.62 1247.89 1234.71 1247.22 1233.58 1244.73 C 1237.05 1242.24 1237.2 1243.04 1242.22 1242.6 z"/>
<path transform="translate(0,0)" fill="rgb(255,255,255)" d="M 795.179 1231.3 C 804.72 1231.51 807.263 1231.01 815.629 1235.81 C 807.185 1238.64 801.997 1236.12 795.179 1231.3 z"/>
<path transform="translate(0,0)" fill="rgb(229,228,229)" d="M 1265.04 1059.55 C 1270.56 1065.62 1269.4 1069.46 1269.86 1078.21 C 1268.76 1078.43 1269.54 1078.36 1267.61 1077.51 C 1263.77 1072.52 1264.88 1066.01 1265.04 1059.55 z"/>
<path transform="translate(0,0)" fill="rgb(229,228,229)" d="M 1250.98 1250.45 C 1254.62 1250.76 1253.34 1249.95 1255.51 1252 L 1255.37 1252.86 C 1250.72 1255.56 1249.68 1255.14 1244.04 1255.06 C 1241.46 1253.83 1241.09 1254 1239.61 1251.67 C 1242.37 1250.11 1247.58 1250.5 1250.98 1250.45 z"/>
<path transform="translate(0,0)" fill="rgb(255,255,255)" d="M 805.975 1239.1 C 814.384 1238.66 816.924 1237.3 822.487 1244.24 C 813.956 1244.96 811.928 1245.51 805.975 1239.1 z"/>
<path transform="translate(0,0)" fill="rgb(229,228,229)" d="M 821.989 1238.47 C 824.696 1238.31 827.405 1238.18 830.116 1238.11 C 834.128 1240.11 832.868 1239.46 835.579 1243.85 C 831.281 1244.11 830.259 1244.27 826.096 1243.56 C 823.195 1241.65 823.452 1241.68 821.989 1238.47 z"/>
<path transform="translate(0,0)" fill="rgb(229,228,229)" d="M 1264.32 1093.45 C 1270.07 1096.58 1269.61 1103.74 1269.82 1109.48 L 1266.22 1107.6 C 1263.75 1103.96 1264.38 1098.1 1264.32 1093.45 z"/>
<path transform="translate(0,0)" fill="rgb(255,255,255)" d="M 1257.74 992.321 C 1259.06 993.092 1259.96 993.948 1261.15 994.926 C 1263.07 999.098 1262.62 1003.49 1262.68 1008.2 C 1256.39 1002.15 1256.42 1000.7 1257.74 992.321 z"/>
<path transform="translate(0,0)" fill="rgb(229,228,229)" d="M 1014.67 1202.58 C 1017.22 1203.22 1016 1202.73 1018.11 1204.83 C 1018.95 1208.15 1018.98 1206.51 1017.75 1209.91 L 1014.06 1211.09 C 1010.33 1209.29 1010.57 1210.1 1008.66 1207.14 C 1010.59 1204.08 1010.99 1204.6 1014.67 1202.58 z"/>
<path transform="translate(0,0)" fill="rgb(255,255,255)" d="M 1263.74 1208.39 C 1270.09 1212.86 1269.75 1216.25 1269.57 1223.41 C 1262.54 1218.73 1263.61 1216.08 1263.74 1208.39 z"/>
<path transform="translate(0,0)" fill="rgb(229,228,229)" d="M 796.167 1247.11 C 803.423 1247.01 807.954 1245.29 813.386 1250.73 C 804.638 1252.2 803.19 1253.39 796.167 1247.11 z"/>
<path transform="translate(0,0)" fill="rgb(229,228,229)" d="M 813.16 1230.91 C 822.624 1231.9 824.003 1229.82 830.634 1235.75 C 821.449 1236.68 819.875 1237.69 813.16 1230.91 z"/>
<path transform="translate(0,0)" fill="rgb(229,228,229)" d="M 1193.35 1249.66 C 1194.44 1249.49 1198 1249.86 1199.22 1250.03 C 1207.75 1251.26 1206.85 1250.17 1211.56 1256.01 C 1201.23 1256.55 1200.41 1251.05 1193.57 1251 L 1193.35 1249.66 z"/>
<path transform="translate(0,0)" fill="rgb(255,255,255)" d="M 788.226 1231.14 C 790.559 1231.44 795.689 1235.13 797.416 1237.09 L 795.929 1237.14 C 792.215 1237.16 786.087 1237.15 783.11 1234.91 L 783.395 1233.37 L 788.226 1231.14 z"/>
<path transform="translate(0,0)" fill="rgb(255,255,255)" d="M 1265.12 853.81 C 1270.8 859.134 1270.39 863.142 1270.32 870.387 C 1263.92 863.777 1264.66 862.723 1265.12 853.81 z"/>
<path transform="translate(0,0)" fill="rgb(229,228,229)" d="M 851.839 1244.87 C 854.53 1247.2 856.238 1246.12 859.601 1250.42 L 858.077 1250.84 L 858.156 1249.75 L 856.835 1250.66 L 854.042 1249.53 C 851.009 1250.74 847.73 1251.36 845.412 1248.63 L 846.211 1246.79 L 851.839 1244.87 z"/>
<path transform="translate(0,0)" fill="rgb(255,255,255)" d="M 1256.96 1087.46 C 1258.73 1088.31 1259.34 1088.9 1260.94 1090.06 C 1262.9 1093.96 1262.17 1097.8 1261.97 1102.32 C 1256.34 1096.97 1256.94 1095.14 1256.96 1087.46 z"/>
<path transform="translate(0,0)" fill="rgb(229,228,229)" d="M 1259.22 783.145 C 1260.56 783.644 1260.99 784.033 1262.21 784.802 C 1263.79 789.131 1263.17 793.999 1263.02 798.736 C 1257.27 791.946 1257.67 791.917 1259.22 783.145 z"/>
<path transform="translate(0,0)" fill="rgb(255,255,255)" d="M 1264.9 919.253 C 1266.75 920.178 1266.94 920.519 1268.58 921.835 C 1270.55 925.397 1270 928.756 1269.94 932.957 C 1263.52 927.737 1263.81 927.414 1264.9 919.253 z"/>
<path transform="translate(0,0)" fill="rgb(229,228,229)" d="M 1165.53 1218.92 C 1159.97 1217.6 1158.73 1217.64 1154.05 1214.49 L 1153.89 1213.03 C 1157.03 1211.68 1161.02 1212.66 1164.58 1213.12 L 1165.53 1218.92 z"/>
<path transform="translate(0,0)" fill="rgb(255,255,255)" d="M 1263.88 1194.91 C 1270.39 1200.42 1269.35 1202.11 1269.83 1210.21 C 1264.12 1205.24 1263.52 1202.12 1263.88 1194.91 z"/>
<path transform="translate(0,0)" fill="rgb(255,255,255)" d="M 1264.83 1046.27 C 1266.18 1046.98 1267.13 1047.79 1268.37 1048.7 C 1270.51 1052.43 1269.8 1055.98 1269.63 1060.45 L 1266.06 1057.4 C 1264.23 1053.64 1264.75 1050.52 1264.83 1046.27 z"/>
<path transform="translate(0,0)" fill="rgb(229,228,229)" d="M 1209.44 1250.27 C 1217.6 1250.37 1218.32 1250.21 1224.86 1255.03 C 1216.66 1257.61 1215.15 1255.74 1209.44 1250.27 z"/>
<path transform="translate(0,0)" fill="rgb(229,228,229)" d="M 827.781 1246.27 C 832.92 1245.87 836.276 1245 840.328 1247.7 L 840.627 1249.89 C 838.615 1250.56 836.965 1250.94 834.903 1251.44 C 831.417 1250.89 830.243 1248.92 827.781 1246.27 z"/>
<path transform="translate(0,0)" fill="rgb(255,255,255)" d="M 1264.89 1163.74 L 1267.85 1166.17 C 1269.77 1170 1269.46 1173.99 1269.65 1178.38 C 1268.52 1177.67 1266.82 1176.12 1265.73 1175.2 C 1263.94 1171.53 1264.66 1167.96 1264.89 1163.74 z"/>
<path transform="translate(0,0)" fill="rgb(229,228,229)" d="M 813.448 1246.68 C 821.394 1246.47 823.352 1245.15 828.904 1251.41 C 827.9 1251.5 826.895 1251.57 825.889 1251.63 C 819.141 1251.97 818.733 1251.33 813.448 1246.68 z"/>
<path transform="translate(0,0)" fill="rgb(229,228,229)" d="M 1249.91 1121.89 C 1255.97 1126.32 1256.28 1129.54 1256.2 1136.63 C 1251.05 1133.62 1250.08 1127.38 1249.91 1121.89 z"/>
<path transform="translate(0,0)" fill="rgb(255,255,255)" d="M 1257.08 1101.61 C 1263.31 1106.34 1262.28 1109.25 1261.91 1116.43 C 1256.38 1112.12 1257.1 1107.94 1257.08 1101.61 z"/>
<path transform="translate(0,0)" fill="rgb(172,172,178)" d="M 1158.95 1000.33 C 1153.99 997.611 1152.42 999.782 1149.76 996.374 L 1150.78 994.547 L 1153.8 993.696 C 1157.71 994.217 1159.21 996.59 1162.04 999.531 L 1158.95 1000.33 z"/>
<path transform="translate(0,0)" fill="rgb(229,228,229)" d="M 1265.02 944.893 C 1270.95 949.28 1270.34 951.287 1269.82 958.272 L 1266.43 956.262 C 1264.25 952.679 1264.91 949.264 1265.02 944.893 z"/>
<path transform="translate(0,0)" fill="rgb(229,228,229)" d="M 1258.94 797.861 C 1264.09 803.367 1263.11 805.13 1262.73 812.409 C 1257.13 807.231 1257.3 804.69 1258.94 797.861 z"/>
<path transform="translate(0,0)" fill="rgb(229,228,229)" d="M 1251.08 985.446 C 1252.25 986.144 1253.15 987.021 1254.21 987.922 C 1255.86 991.938 1254.93 995.009 1254.34 999.405 C 1252.74 999.321 1253.43 999.341 1251.75 998.061 C 1250.37 994.401 1250.95 989.491 1251.08 985.446 z"/>
<path transform="translate(0,0)" fill="rgb(229,228,229)" d="M 1255.46 1215.65 C 1262.26 1219.36 1262.1 1223.38 1261.84 1230.37 C 1257.27 1227.75 1256.67 1220.64 1255.46 1215.65 z"/>
<path transform="translate(0,0)" fill="rgb(229,228,229)" d="M 1224.32 1237.49 C 1231.45 1236.87 1234.99 1235.47 1240.22 1239.81 C 1233.8 1242.19 1229.42 1241.89 1224.32 1237.49 z"/>
<path transform="translate(0,0)" fill="rgb(255,255,255)" d="M 1250.91 1064.47 L 1253.59 1067.35 C 1255.21 1072.08 1254.31 1075.7 1253.77 1080.74 C 1249.34 1073.92 1249.98 1072.71 1250.91 1064.47 z"/>
<path transform="translate(0,0)" fill="rgb(229,228,229)" d="M 1259.1 863.715 L 1261.06 865.524 C 1262.89 870.403 1262.29 873.353 1260.82 878.303 C 1256.56 873.224 1256.89 869.491 1259.1 863.715 z"/>
<path transform="translate(0,0)" fill="rgb(229,228,229)" d="M 1223.4 1243.15 C 1226.28 1243.87 1227.73 1243.87 1229.54 1246.18 L 1228.64 1247.9 L 1224.5 1249.07 C 1221.6 1247.99 1219.86 1247.68 1217.88 1245.31 L 1218.8 1243.98 L 1223.4 1243.15 z"/>
<path transform="translate(0,0)" fill="rgb(229,228,229)" d="M 1266.23 789.653 L 1268.91 792.026 C 1270.72 796.01 1269.92 799.52 1269.57 804.015 L 1266.85 802.122 C 1265.2 797.966 1265.94 794.22 1266.23 789.653 z"/>
<path transform="translate(0,0)" fill="rgb(255,255,255)" d="M 1259.84 767.548 L 1262.28 769.902 C 1263.78 774.067 1263.11 777.685 1262.83 782.183 C 1257.28 777.422 1258.49 774.089 1259.84 767.548 z"/>
<path transform="translate(0,0)" fill="rgb(229,228,229)" d="M 1269.03 742.505 L 1270.08 743.356 C 1271.2 745.642 1270.5 754.198 1270.79 758.361 C 1264.76 753.176 1266.76 749.072 1269.03 742.505 z"/>
<path transform="translate(0,0)" fill="rgb(255,255,255)" d="M 1259.11 895.794 C 1263.58 899.609 1262.13 905.411 1260.88 910.404 C 1257.01 903.622 1256.46 903.188 1259.11 895.794 z"/>
<path transform="translate(0,0)" fill="rgb(229,228,229)" d="M 813.649 1253.39 C 816.269 1252.75 818.136 1253.66 820.066 1255.1 L 818.901 1256.66 L 813.465 1257.35 C 809.633 1256.78 809.661 1256.84 806.171 1255.23 C 807.88 1253.39 810.381 1253.79 813.649 1253.39 z"/>
<path transform="translate(0,0)" fill="rgb(255,255,255)" d="M 1257.73 1157.4 C 1258.98 1158.2 1259.81 1159.05 1260.93 1160.04 C 1262.65 1163.87 1261.96 1166.64 1261.61 1170.95 C 1256.37 1166.11 1256.95 1164.21 1257.73 1157.4 z"/>
<path transform="translate(0,0)" fill="rgb(229,228,229)" d="M 1265.32 971.374 C 1266.27 972.042 1267.91 973.502 1268.77 974.232 C 1270.32 977.862 1269.38 981.321 1268.85 985.295 C 1264.17 980.716 1264.96 977.525 1265.32 971.374 z"/>
<path transform="translate(0,0)" fill="rgb(94,92,92)" d="M 1108.66 1064.13 C 1108.12 1060.85 1106.65 1042.51 1107.31 1039.51 C 1109.62 1045.66 1109.98 1051.58 1109.84 1058.14 L 1108.66 1064.13 z"/>
<path transform="translate(0,0)" fill="rgb(229,228,229)" d="M 1258.01 834.521 C 1263.56 839.284 1262.85 840.211 1262.94 847.57 C 1261.28 846.627 1260.73 845.989 1259.26 844.737 C 1257.35 841.135 1257.89 838.788 1258.01 834.521 z"/>
<path transform="translate(0,0)" fill="rgb(255,255,255)" d="M 1250.78 1095.77 C 1255.78 1100.24 1254.89 1103.65 1255.03 1109.89 C 1249.75 1104.56 1249.34 1103.14 1250.78 1095.77 z"/>
<path transform="translate(0,0)" fill="rgb(255,255,255)" d="M 1265.93 1013.26 L 1268.08 1014.4 C 1269.9 1018.01 1269.52 1023.21 1269.6 1027.43 C 1268.99 1027.05 1267.2 1025.49 1266.58 1024.97 C 1264.83 1021.03 1265.59 1017.67 1265.93 1013.26 z"/>
<path transform="translate(0,0)" fill="rgb(229,228,229)" d="M 1034.82 1084.24 L 1035.93 1083.99 L 1036.91 1085.12 L 1037.67 1095.16 C 1035.55 1099.94 1036.47 1103.11 1035.89 1108.18 C 1034.86 1101.4 1034.96 1091.37 1034.82 1084.24 z"/>
<path transform="translate(0,0)" fill="rgb(255,255,255)" d="M 1266.82 775.792 C 1271.42 779.911 1270.5 784.88 1270.71 790.737 C 1265.53 785.858 1265.89 782.309 1266.82 775.792 z"/>
<path transform="translate(0,0)" fill="rgb(229,228,229)" d="M 1258.64 848.768 C 1259.15 849.114 1261.05 850.892 1261.58 851.372 C 1263.09 855.448 1262.3 857.583 1261.64 862.067 C 1256.67 857.305 1257.82 855.478 1258.64 848.768 z"/>
<path transform="translate(0,0)" fill="rgb(229,228,229)" d="M 1257.22 978.571 C 1262.72 982.382 1262 985.121 1262.19 991.486 C 1256.34 986.907 1256.94 985.942 1257.22 978.571 z"/>
<path transform="translate(0,0)" fill="rgb(255,255,255)" d="M 1256.78 1115.73 C 1262.15 1121.36 1262.23 1121.77 1262.08 1129.51 C 1256.4 1125.41 1257.19 1122.18 1256.78 1115.73 z"/>
<path transform="translate(0,0)" fill="rgb(255,255,255)" d="M 1265 1109.72 C 1266.12 1110.5 1267.14 1111.54 1268.17 1112.48 C 1269.83 1116.38 1269.25 1117.87 1268.75 1122.28 L 1266.01 1120.95 C 1264.25 1117.65 1264.87 1113.6 1265 1109.72 z"/>
<path transform="translate(0,0)" fill="rgb(229,228,229)" d="M 1265.93 805.38 C 1267.22 806.085 1268.07 806.924 1269.23 807.879 C 1271.06 811.894 1270.47 813.486 1270.04 818.093 C 1264.94 814.237 1265.99 811.265 1265.93 805.38 z"/>
<path transform="translate(0,0)" fill="rgb(255,255,255)" d="M 1251.11 1002.28 C 1251.87 1002.62 1253.23 1003.57 1253.98 1004.06 C 1255.65 1007.34 1254.83 1009.91 1254.36 1013.66 C 1253.11 1013.7 1253.96 1013.75 1251.89 1013 C 1250.34 1010.12 1250.97 1005.76 1251.11 1002.28 z"/>
<path transform="translate(0,0)" fill="rgb(172,172,178)" d="M 1034.82 1084.24 C 1034.11 1080.09 1033.41 1068.41 1034.58 1064.57 C 1035.5 1070.28 1036.8 1079.35 1036.91 1085.12 L 1035.93 1083.99 L 1034.82 1084.24 z"/>
<path transform="translate(0,0)" fill="rgb(255,255,255)" d="M 1259.93 752.487 L 1262.31 754.417 C 1264.04 758.476 1263.27 761.736 1262.89 766.229 C 1262.41 765.601 1261.95 764.963 1261.5 764.314 C 1258.35 759.741 1258.98 757.846 1259.93 752.487 z"/>
<path transform="translate(0,0)" fill="rgb(229,228,229)" d="M 1211.01 1237.44 C 1216.99 1237.13 1219.29 1236.02 1223.23 1240.62 C 1217.78 1241.4 1213.66 1242.96 1211.01 1237.44 z"/>
<path transform="translate(0,0)" fill="rgb(229,228,229)" d="M 1265.83 817.573 C 1270.9 821.385 1270.28 824.44 1270.8 830.398 C 1265.15 827.118 1265.96 823.493 1265.83 817.573 z"/>
<path transform="translate(0,0)" fill="rgb(229,228,229)" d="M 852.253 1251.89 C 856.297 1252.75 863.751 1254.35 867.542 1253.15 L 868.836 1254.13 C 860.554 1257.99 859.352 1257.68 852.253 1251.89 z"/>
<path transform="translate(0,0)" fill="rgb(229,228,229)" d="M 926.427 1059.55 C 927.138 1055.79 928.015 1050.18 929.166 1046.69 L 930.456 1046.26 L 930.344 1044.65 C 931.01 1049.34 929.293 1056.32 928.461 1061.34 L 926.427 1059.55 z"/>
<path transform="translate(0,0)" fill="rgb(255,255,255)" d="M 1251.21 957.556 C 1256.32 961.809 1255.12 964.453 1254.97 970.583 L 1252.6 968.89 C 1250.59 965.103 1251.13 961.934 1251.21 957.556 z"/>
<path transform="translate(0,0)" fill="rgb(255,255,255)" d="M 1253.2 778.363 L 1255.25 779.666 C 1256.74 783.55 1255.93 787.394 1255.57 791.667 C 1250.76 786.443 1251.83 785.286 1253.2 778.363 z"/>
<path transform="translate(0,0)" fill="rgb(229,228,229)" d="M 1265.18 959.414 L 1268.13 960.91 C 1270.19 964.29 1269.83 967.13 1269.97 971.147 C 1264.48 967.112 1265.14 966.223 1265.18 959.414 z"/>
<path transform="translate(0,0)" fill="rgb(255,255,255)" d="M 1259.86 737.374 L 1261.74 738.84 C 1263.52 742.644 1263.53 747.853 1263.88 752.201 C 1259.44 748.358 1259.8 742.715 1259.86 737.374 z"/>
<path transform="translate(0,0)" fill="rgb(255,255,255)" d="M 1264.9 1125.34 L 1267.47 1126.51 C 1269.58 1129.36 1269.52 1133.74 1269.9 1137.43 C 1264.71 1133.27 1265.34 1132.02 1264.9 1125.34 z"/>
<path transform="translate(0,0)" fill="rgb(94,92,92)" d="M 1026.97 1086.56 C 1025.93 1081.15 1025.99 1078.57 1025.89 1073.14 C 1027.74 1079.41 1029.27 1086.76 1029.11 1093.32 L 1026.97 1086.56 z"/>
<path transform="translate(0,0)" fill="rgb(255,255,255)" d="M 1253.75 730.571 L 1255.87 732.595 C 1257.68 736.922 1257.14 739.627 1256.94 744.303 C 1253.17 739.752 1253.61 736.416 1253.75 730.571 z"/>
<path transform="translate(0,0)" fill="rgb(255,255,255)" d="M 1266.94 701.51 L 1268.56 702.846 C 1270.62 706.877 1270.25 709.867 1270.35 714.409 C 1265.83 710.472 1266.8 707.121 1266.94 701.51 z"/>
<path transform="translate(0,0)" fill="rgb(229,228,229)" d="M 1251.1 1136.87 C 1255.66 1141.17 1255.13 1143.98 1255.73 1150.18 C 1251.19 1146.32 1251.64 1142.76 1251.1 1136.87 z"/>
<path transform="translate(0,0)" fill="rgb(255,255,255)" d="M 1254.15 763.671 C 1257.28 767.852 1256.36 771.944 1255.75 777.109 C 1252.16 771.471 1252.69 770.058 1254.15 763.671 z"/>
<path transform="translate(0,0)" fill="rgb(255,255,255)" d="M 1253.92 748.442 L 1255.68 749.848 C 1257.39 753.347 1256.81 755.906 1256.59 759.838 L 1254.62 758.878 C 1253.19 755.652 1253.75 752.056 1253.92 748.442 z"/>
<path transform="translate(0,0)" fill="rgb(172,172,178)" d="M 1026.97 1086.56 L 1029.11 1093.32 L 1028.74 1099.79 L 1027.01 1106.33 L 1026.97 1086.56 z"/>
<path transform="translate(0,0)" fill="rgb(255,255,255)" d="M 1265.82 986.529 L 1267.72 988.163 C 1268.95 991.95 1268.24 993.905 1267.61 997.99 C 1264.98 993.733 1265.09 991.221 1265.82 986.529 z"/>
</svg>