<svg version="1.1" xmlns="http://www.w3.org/2000/svg" style="display: block;" viewBox="0 0 2048 2048" width="1024" height="1024" preserveAspectRatio="none">
<defs>
	<linearGradient id="Gradient1" gradientUnits="userSpaceOnUse" x1="659.672" y1="952.148" x2="674.239" y2="871.672">
		<stop class="stop0" offset="0" stop-opacity="1" stop-color="rgb(38,31,32)"/>
		<stop class="stop1" offset="1" stop-opacity="1" stop-color="rgb(65,59,60)"/>
	</linearGradient>
</defs>
<path transform="translate(0,0)" fill="rgb(255,255,255)" d="M 0 0 L 2048 0 L 2048 2048 L 0 2048 L 0 0 z"/>
<path transform="translate(0,0)" fill="rgb(40,35,35)" d="M 853.031 665.569 C 857.553 664.747 861.284 663.763 865.851 664.145 C 865.706 665.256 865.549 666.205 865.36 667.305 C 867.993 666.269 870.416 664.458 872.102 663.516 C 875.199 661.783 893.92 659.687 896.267 660.417 L 895.718 662.152 C 904.088 659.544 922.767 653.574 930.69 656.691 C 952.677 649.201 992.136 648.039 1015.99 642.621 C 1020.53 641.588 1063.18 655.037 1071.4 657.342 L 1145.31 677.769 C 1152.16 679.71 1169.62 684.128 1175.05 686.785 C 1173.08 713.164 1174.33 739.777 1173.98 766.192 C 1173.89 773.612 1174.45 794.918 1173.11 801.537 C 1170.67 792.183 1171.3 764.82 1171.31 754.056 L 1171.28 686.916 C 1167.22 688.534 1162.19 690.015 1157.97 691.38 L 1155.76 692.167 C 1151.96 690.932 1147.5 693.377 1142.48 692.997 L 1141.74 691.874 L 1140.86 692.926 C 1134.94 695.05 1128.78 694.506 1126.13 697.044 L 1124.17 696.767 C 1119.24 697.189 1117.44 697.314 1112.72 698.682 L 1110.41 697.788 C 1105.65 699.169 1101.49 700.783 1096.59 700.577 L 1096.12 699.65 L 1094.41 699.23 C 1089.08 702.201 1085.06 703.726 1078.91 704.341 L 1077.51 702.52 C 1073.52 703.408 1069.68 705.289 1065.67 706.477 C 1062.03 708.616 1058.63 710.894 1054.34 709.471 C 1054.83 706.464 1056.23 706.161 1059.03 703.503 C 1046.29 708.865 1042.26 710.861 1028.89 713.251 C 1031.18 711.671 1036.01 708.88 1037.08 706.747 C 1022.14 712.427 1020.66 715.165 1004.54 717.119 C 1007.18 715.412 1012.48 712.365 1014.21 710.08 L 1013.03 710.297 L 1013.28 711.211 L 1011.5 712.618 L 1011.79 710.775 C 998.634 716.331 995.19 718.958 980.879 720.228 L 990.336 713.941 L 988.565 712.737 C 971.017 721.927 969.095 722.475 949.273 724.124 L 946.338 724.278 C 918.821 733.181 898.113 740.434 884.525 767.994 C 869.188 799.105 873.984 840.741 874.095 874.724 L 874.652 1009.02 L 875.882 1272.1 C 876.02 1293.03 870.671 1371.46 887.155 1384.22 C 888.812 1381.6 888.254 1382.65 888.624 1379.25 C 889.344 1381.33 889.818 1383.11 890.889 1385.01 C 891.354 1391.13 894.259 1393.06 898.246 1398.5 C 879.157 1392.44 843.339 1376.59 823.631 1368.7 L 768.771 1346.46 C 756.656 1341.66 744.62 1336.87 732.526 1331.99 C 713.49 1324.3 706.9 1304.83 703.743 1285.98 C 698.985 1257.58 699.872 1228.6 699.916 1199.83 C 699.797 1166.56 700.051 1133.28 700.679 1100.01 C 701.511 1036.45 700.597 972.066 702.225 908.684 C 704.718 906.011 705.109 886.767 701.501 882.83 C 702.016 854.36 702.215 825.885 702.097 797.41 C 702.156 763.97 699.476 710.082 732.961 690.178 C 719.973 706.088 711.568 725.238 708.652 745.568 C 706 764.286 706.99 797.743 707.018 817.809 C 707.212 858.875 707.197 899.942 706.974 941.008 L 705.012 1155.41 L 704.911 1212.4 C 704.892 1248.76 706.06 1253.09 717.092 1287.79 C 715.536 1275.17 711.858 1261.97 710.646 1250.6 C 709.395 1238.87 710.058 1218.94 710.117 1206.62 L 710.519 1137.26 L 711.062 931.968 L 711.574 826.833 C 711.538 807.077 710.586 769.407 713.237 751.186 C 716.528 728.06 725.699 706.166 739.872 687.599 C 740.661 686.584 741.46 685.577 742.268 684.577 C 747.388 682.965 751.078 681.818 756.404 680.715 C 726.823 706.206 717.599 736.622 717.677 774.938 C 717.728 800.316 717.432 825.888 717.465 851.29 L 716.843 998.502 L 716.512 1153.83 C 716.314 1184.55 715.77 1215.93 716.495 1246.63 C 716.699 1255.29 720.54 1268.04 723.08 1276.53 L 725.425 1276.83 C 720.06 1241.58 722.192 1197.08 722.391 1160.44 L 722.945 990.87 L 723.286 833.42 C 723.579 779.823 716.878 726.464 758.113 684.698 C 763.338 679.406 770.869 675.364 778.467 677.589 C 774.094 680.814 762.247 689.398 758.833 692.619 C 745.686 705.025 733.087 733.173 730.826 750.974 C 728.165 771.918 729.104 799.411 729.066 821.079 L 728.88 943.707 L 728.489 1143.78 C 728.382 1183.12 724.544 1247.24 733.975 1282.96 L 736.854 1281.79 C 734.11 1259.93 733.884 1244.07 733.946 1222.22 L 733.994 1162.33 L 734.518 951.506 L 734.808 825.329 C 734.904 770.91 729.459 708.523 787.119 676.397 C 792.241 673.543 798.412 673.284 804.217 672.617 C 769.266 692.395 742.909 719.723 741.164 762.38 C 740.049 789.612 740.876 817.481 740.838 844.792 L 740.117 997.784 L 739.917 1167.33 C 739.897 1196.75 739.622 1226.67 740.138 1256.1 C 740.389 1270.42 746.155 1292.3 751.819 1305.36 C 750.392 1293.17 745.91 1275.93 745.707 1264.38 C 745.118 1230.93 745.349 1196.76 745.36 1163.32 L 746.021 953.852 L 746.632 827.015 C 746.707 808.556 745.774 772.163 748.364 755.39 C 751.395 734.738 760.438 715.435 774.365 699.888 C 785.132 688.102 800.942 675.752 816.486 670.759 C 819.013 669.948 826.649 669.667 829.585 669.535 C 786.508 692.118 753.887 716.355 752.497 769.966 C 751.741 799.107 752.28 828.4 752.179 857.561 L 751.537 1030.7 L 751.406 1182.95 C 751.391 1210.57 751.035 1239.07 751.963 1266.64 C 752.341 1277.88 758.471 1296.58 762.38 1307.12 C 761.318 1297.15 757.52 1282.11 757.259 1272.86 C 756.297 1238.78 756.703 1203.81 756.757 1169.71 L 757.602 964.2 L 757.871 833.577 C 757.908 812.078 757.229 785.523 758.685 764.974 C 761.666 733.267 778.489 705.003 804.937 687.329 C 814.262 681.097 825.127 675.707 833.408 668.734 L 849.729 666.04 C 818.472 688.504 790.983 695.639 773.32 732.424 C 767.852 743.891 764.519 756.258 763.483 768.919 C 762 787.437 763.17 826.082 763.163 845.688 L 762.851 1001.25 L 762.559 1170.62 C 762.381 1202.31 761.798 1234.5 762.416 1266.19 C 762.687 1280.1 768.735 1299.2 773.317 1312.16 C 772.257 1299.33 768.508 1282.18 768.247 1270.14 C 767.658 1242.99 767.95 1214.97 767.987 1187.79 L 768.782 1016.63 L 768.963 858.989 C 768.988 832.856 768.711 805.427 769.207 779.728 C 769.849 746.389 785.493 711.839 813.836 693.179 C 825.692 685.373 841.777 676.124 851.981 666.562 L 853.031 665.569 z"/>
<path transform="translate(0,0)" fill="rgb(215,214,214)" d="M 989.087 703.248 C 976.706 712.116 965.844 717.051 951.733 722.75 C 950.214 723.364 950.886 723.044 949.273 724.124 L 946.338 724.278 C 951.81 719.779 981.114 706.946 989.087 703.248 z"/>
<path transform="translate(0,0)" fill="rgb(57,52,52)" d="M 1059.03 703.503 L 1061.63 702.085 C 1064.46 703.398 1063.7 703.279 1065.67 706.477 C 1062.03 708.616 1058.63 710.894 1054.34 709.471 C 1054.83 706.464 1056.23 706.161 1059.03 703.503 z"/>
<path transform="translate(0,0)" fill="rgb(215,214,214)" d="M 723.08 1276.53 L 725.425 1276.83 C 726.523 1281.28 727.491 1285.76 728.326 1290.26 L 727.479 1291.6 L 727.638 1292.1 L 728.54 1292.67 L 728.109 1293.37 L 728.002 1293.38 L 728.379 1292.55 C 725.647 1290.22 724.042 1280.54 723.08 1276.53 z"/>
<path transform="translate(0,0)" fill="rgb(215,214,214)" d="M 733.975 1282.96 L 736.854 1281.79 C 738.276 1288.65 738.736 1291.79 739.199 1298.77 C 737.02 1293.47 735.617 1288.43 733.975 1282.96 z"/>
<path transform="translate(0,0)" fill="rgb(176,175,176)" d="M 988.565 712.737 C 992.031 710.637 996.12 707.579 999.981 707.267 C 998.538 710.011 993.203 712.765 990.336 713.941 L 988.565 712.737 z"/>
<path transform="translate(0,0)" fill="rgb(255,255,255)" d="M 785.88 1319.98 C 769.367 1283.43 773.895 1227.59 773.987 1186.98 L 774.669 1015.68 L 774.97 855.841 C 774.986 835.764 775.634 813.209 774.851 793.356 C 772.992 746.227 788.606 713.338 831.068 690.064 L 832.997 691.886 C 808.589 706.058 786.258 736.739 782.511 764.566 C 779.567 786.434 780.961 817.442 780.933 840.041 L 780.826 981.067 L 780.027 1177.08 L 779.973 1243.2 C 779.97 1255.14 779.63 1270.3 780.427 1282.05 C 781.157 1292.81 784.105 1308.88 785.88 1319.98 z"/>
<path transform="translate(0,0)" fill="rgb(255,255,255)" d="M 888.402 693.44 C 866.734 704.503 849.502 713.459 834.824 733.525 C 810.955 766.156 814.778 797.404 814.716 835.343 L 814.753 942.553 L 814.261 1184.14 C 814.303 1221.86 814.041 1259.83 814.983 1297.5 C 815.274 1309.14 820.249 1321.61 820.846 1333.04 C 804.38 1308.92 808.645 1219.93 808.565 1188.68 C 808.225 1124.71 808.268 1060.75 808.695 996.788 L 809.097 854.553 C 809.119 824.428 805.647 786.46 814.476 757.791 C 825.643 721.531 855.216 707.137 887.098 691.51 L 888.402 693.44 z"/>
<path transform="translate(0,0)" fill="rgb(255,255,255)" d="M 843.489 1347.66 C 828.16 1302.48 832.074 1254.29 831.913 1207.07 C 831.659 1148.68 831.708 1090.29 832.06 1031.9 L 832.017 863.979 C 831.887 785.63 818.929 743.995 900.937 705.021 L 902.979 706.838 C 890.106 713.031 875.16 721.927 865.177 732.034 C 851.315 746.277 842.02 764.334 838.484 783.892 C 835.826 799.27 837.568 822.156 837.742 838.55 C 837.977 865.483 838.037 892.417 837.92 919.351 L 837.704 1291.82 C 837.846 1310.69 843.876 1331.09 843.489 1347.66 z"/>
<path transform="translate(0,0)" fill="rgb(255,255,255)" d="M 810.37 1332.28 C 792.783 1285.06 796.896 1256.77 796.93 1207.74 L 797.776 1053.09 L 797.862 862.147 C 797.883 836.316 796.919 810.228 797.481 784.469 C 798.549 735.565 829.268 710.38 868.973 690.317 L 868.997 693.231 C 851.901 703.045 837.935 710.819 825.373 726.565 C 797.95 760.939 803.361 806.034 803.364 847.326 L 803.678 979.239 L 802.921 1195.3 C 802.874 1228.25 802.299 1261.62 803.451 1294.51 C 803.833 1305.45 809.212 1320.12 810.37 1332.28 z"/>
<path transform="translate(0,0)" fill="rgb(255,255,255)" d="M 798.183 1321.9 C 781.062 1285.79 785.809 1241.19 785.88 1201.92 L 786.352 1051.43 L 786.716 867.616 C 786.913 787.243 770.188 731.531 852.053 689.064 L 854.049 690.916 C 837.694 699.241 820.346 713.101 810.153 728.465 C 800.891 742.475 795.008 758.443 792.968 775.114 C 790.977 792.73 792.051 830.156 792.042 849.454 L 792.324 994.247 L 791.603 1178.13 L 791.323 1244.05 C 791.127 1277.35 791.671 1288.88 798.183 1321.9 z"/>
<path transform="translate(0,0)" fill="rgb(255,255,255)" d="M 883.947 703.418 L 884.682 706.141 C 854.175 719.803 829.679 751.881 826.764 785.572 C 824.87 807.457 826.033 831.345 826.055 853.459 L 826.276 985.631 L 826.056 1189.3 L 826.277 1260 C 826.368 1282.9 825.668 1305.57 830.584 1327.96 C 831.893 1333.93 832.949 1340.11 834.145 1346.12 C 816.366 1303.45 820.502 1263.56 820.369 1218.37 L 820.607 1060.81 L 820.962 866.391 C 821.002 841.046 819.888 815.46 820.366 790.229 C 821.173 747.577 848.47 720.517 883.947 703.418 z"/>
<path transform="translate(0,0)" fill="rgb(255,255,255)" d="M 924.236 706.38 C 907.033 714.929 887.495 723.715 874.099 737.749 C 843.191 770.13 847.821 803.178 848.118 843.789 L 848.745 945.749 L 848.852 1206.53 C 848.98 1246.28 847.728 1287.99 851.164 1327.6 C 851.795 1334.87 854.412 1341.52 854.631 1349.38 L 853.77 1349.34 C 840.165 1307.41 843.742 1260.68 843.437 1216.8 C 842.909 1149.47 842.959 1082.12 843.587 1014.78 L 843.325 865.994 C 843.161 842.439 841.219 816.906 842.51 793.716 C 845.307 743.5 883.822 722.128 922.76 704.618 L 924.236 706.38 z"/>
<path transform="translate(0,0)" fill="rgb(255,255,255)" d="M 863.017 1348.86 C 851.806 1308.83 855.154 1246.89 855.068 1203.48 L 854.71 1026.1 L 854.01 870.347 C 853.807 841.658 849.576 802.018 858.148 775.088 C 869.317 740.003 893.68 728.534 925.103 713.992 L 926.942 715.857 C 894.701 731.224 876.654 740.423 863.893 776.366 C 860.626 785.737 858.801 795.55 858.48 805.469 C 857.705 825.903 859.089 855.211 859.299 876.559 C 859.955 924.718 860.199 972.882 860.03 1021.05 L 860.145 1213.67 C 860.121 1248.32 857.59 1317.79 865.308 1349.02 L 863.017 1348.86 z"/>
<path transform="translate(0,0)" fill="rgb(255,255,255)" d="M 901.627 735.081 L 904.325 737.853 C 863.45 768.294 868.814 812.963 868.946 858.2 L 869.74 971.731 L 871.068 1328.42 L 868.401 1331.14 C 864.711 1314.76 865.953 1262.2 865.745 1242.8 C 865.028 1165.77 864.747 1088.74 864.901 1011.71 C 864.339 960.602 864.046 909.491 864.022 858.38 C 863.913 817.933 858.183 778.068 888.304 745.827 C 892.639 741.187 896.331 738.479 901.627 735.081 z"/>
<path transform="translate(0,0)" fill="rgb(215,214,214)" d="M 901.627 735.081 C 914.027 728.087 929.029 721.974 942.057 715.885 C 951.359 711.537 962.667 705.588 972.144 702.374 C 950.513 715.866 924.573 725.406 904.325 737.853 L 901.627 735.081 z"/>
<path transform="translate(0,0)" fill="rgb(215,214,214)" d="M 831.068 690.064 C 841.089 683.629 852.593 677.852 861.72 670.74 C 861.864 670.955 862.008 671.171 862.152 671.386 C 850.329 681.598 846.438 684.019 832.997 691.886 L 831.068 690.064 z"/>
<path transform="translate(0,0)" fill="rgb(215,214,214)" d="M 883.947 703.418 C 888.021 700.854 909.221 690.567 912.643 691.208 C 904.198 696.755 893.707 701.024 884.682 706.141 L 883.947 703.418 z"/>
<path transform="translate(0,0)" fill="rgb(215,214,214)" d="M 925.103 713.992 C 936.44 708.385 948.842 701.656 960.811 697.937 C 949.878 704.561 938.569 710.544 926.942 715.857 L 925.103 713.992 z"/>
<path transform="translate(0,0)" fill="rgb(176,175,176)" d="M 900.937 705.021 C 905.252 702.854 923.724 694.058 927.602 693.29 C 920.223 698.44 911.067 702.795 902.979 706.838 L 900.937 705.021 z"/>
<path transform="translate(0,0)" fill="rgb(215,214,214)" d="M 852.053 689.064 C 857.004 686.186 868.447 678.835 873.421 678.045 C 872.854 680.527 856.864 689.273 854.049 690.916 L 852.053 689.064 z"/>
<path transform="translate(0,0)" fill="rgb(215,214,214)" d="M 868.973 690.317 C 873.906 687.821 881.862 683.454 886.828 682.114 C 882.202 686.094 874.509 690.457 868.997 693.231 L 868.973 690.317 z"/>
<path transform="translate(0,0)" fill="rgb(215,214,214)" d="M 947.909 693.098 C 940.403 698.788 932.841 702.577 924.236 706.38 L 922.76 704.618 L 947.909 693.098 z"/>
<path transform="translate(0,0)" fill="rgb(149,147,151)" d="M 868.953 1336.93 L 871.054 1338.07 C 872.079 1345.08 873.3 1351.45 872.899 1358.54 C 870.726 1349.96 869.959 1345.74 868.953 1336.93 z"/>
<path transform="translate(0,0)" fill="rgb(215,214,214)" d="M 887.098 691.51 C 890.646 689.944 894.763 687.931 898.402 686.834 L 898.233 688.204 L 899.896 687.001 L 900.028 687.09 C 895.745 690.176 893.106 691.266 888.402 693.44 L 887.098 691.51 z"/>
<path transform="translate(0,0)" fill="rgb(149,147,151)" d="M 863.017 1348.86 L 865.308 1349.02 C 866.044 1351.96 866.96 1354.15 866.199 1357.02 C 864.035 1355.15 863.744 1351.86 863.017 1348.86 z"/>
<path transform="translate(0,0)" fill="rgb(215,214,214)" d="M 868.401 1331.14 L 871.068 1328.42 L 871.054 1338.07 L 868.953 1336.93 L 868.401 1331.14 z"/>
<path transform="translate(0,0)" fill="rgb(40,35,35)" d="M 1275.99 945.398 C 1307.7 942.85 1339.11 955.773 1363.48 975.671 C 1397.77 1003.68 1414.67 1043.67 1418.43 1087.4 C 1422.58 1140.11 1405.75 1192.33 1371.6 1232.7 C 1342.93 1267.28 1301.63 1288.98 1256.89 1292.98 C 1225.89 1293.39 1195.73 1282.83 1171.77 1263.15 C 1139.3 1236.64 1114.65 1187.18 1111.36 1145.47 C 1107.13 1091.82 1121.01 1049.04 1155.4 1007.88 C 1183.21 974.602 1233.12 949.178 1275.99 945.398 z"/>
<path transform="translate(0,0)" fill="rgb(255,255,255)" d="M 1280.77 953.428 L 1281.83 953.41 C 1313.77 953.116 1345.27 968.416 1367.24 990.773 C 1464.83 1090.03 1387.76 1284.09 1248.49 1284.98 C 1222.91 1283.29 1198.49 1273.67 1178.62 1257.46 C 1147.22 1231.52 1123.09 1185.21 1119.15 1144.61 C 1109.54 1045.67 1181.69 961.816 1280.77 953.428 z"/>
<path transform="translate(0,0)" fill="rgb(40,35,35)" d="M 1267.86 978.414 C 1329.51 973.292 1376.35 1028.58 1381.71 1086.41 C 1385.94 1129.07 1372.6 1171.61 1344.76 1204.22 C 1321.52 1231.66 1293.84 1247.35 1257.95 1250.18 C 1231.44 1250.42 1207.27 1243.07 1186.94 1225.36 C 1098.26 1148.13 1150.33 988.507 1267.86 978.414 z"/>
<path transform="translate(0,0)" fill="rgb(255,255,255)" d="M 1262.66 982.341 C 1285.13 979.443 1310.36 986.02 1328.58 999.3 C 1422.09 1067.45 1376.51 1228.42 1265.13 1245.83 C 1199.86 1250.91 1155.51 1203.38 1146.9 1141.26 C 1136.8 1068.34 1188.2 992.479 1262.66 982.341 z"/>
<path transform="translate(0,0)" fill="rgb(40,35,35)" d="M 1261.6 998.323 C 1360.58 988.955 1393.11 1115.51 1340.12 1182.87 C 1318.23 1210.7 1299.7 1224.07 1264.25 1229.9 C 1120.44 1235.88 1126.65 1018.66 1261.6 998.323 z"/>
<path transform="translate(0,0)" fill="rgb(255,255,255)" d="M 1267.54 1001.39 C 1287.94 998.906 1309.48 1007.97 1325.04 1020.65 C 1347.39 1038.86 1358.54 1064.2 1361.3 1092.51 C 1364.82 1127.01 1354.17 1161.45 1331.8 1187.94 C 1311.66 1212.25 1287.22 1223.9 1256.25 1226.74 C 1235.73 1227.34 1215.63 1220.8 1199.41 1208.22 C 1130.28 1153.76 1162.42 1029.44 1244.03 1005.95 C 1252.53 1003.5 1258.73 1002.39 1267.54 1001.39 z"/>
<path transform="translate(0,0)" fill="rgb(40,35,35)" d="M 1262.9 1017.36 C 1263.4 1017.31 1263.9 1017.25 1264.4 1017.2 C 1283.04 1015.93 1301.45 1021.84 1315.87 1033.71 C 1376.94 1084.11 1344.7 1203.94 1259.83 1211.06 C 1140.46 1212.86 1148.25 1030.75 1262.9 1017.36 z"/>
<path transform="translate(0,0)" fill="rgb(255,255,255)" d="M 1266.74 1020.43 C 1346.52 1018.13 1364.94 1128.38 1317.97 1177.22 C 1299.34 1196.6 1282.75 1206.13 1255.73 1207.5 C 1211.45 1205.49 1180.96 1176.13 1177.2 1131.81 C 1175.06 1103.39 1184.35 1075.3 1203.02 1053.76 C 1220.24 1033.76 1240.44 1022.38 1266.74 1020.43 z"/>
<path transform="translate(0,0)" fill="rgb(40,35,35)" d="M 1234.25 1188.8 C 1230.71 1187.41 1226.96 1185.74 1223.72 1183.73 C 1206.57 1173.28 1194.35 1156.35 1189.85 1136.77 C 1178.62 1087.5 1216.88 1037.11 1267.96 1037.23 C 1277.88 1037.25 1286.63 1037.95 1295.24 1043.6 C 1311.89 1051.64 1324.6 1066.05 1330.5 1083.58 C 1350.46 1141.57 1296.76 1205.73 1234.25 1188.8 z"/>
<path transform="translate(0,0)" fill="rgb(255,255,255)" d="M 1295.24 1043.6 C 1311.89 1051.64 1324.6 1066.05 1330.5 1083.58 C 1350.46 1141.57 1296.76 1205.73 1234.25 1188.8 C 1236.94 1188.03 1235.66 1188.58 1237.83 1185.63 C 1269.76 1179.47 1300.81 1170.04 1314.3 1137.01 C 1322.71 1115.73 1321.67 1089.64 1310.55 1069.55 C 1307.49 1064.02 1298.46 1052.08 1297.21 1047.36 C 1295.46 1045.35 1295.97 1046.21 1295.24 1043.6 z"/>
<path transform="translate(0,0)" fill="rgb(13,11,11)" d="M 1295.24 1043.6 C 1311.89 1051.64 1324.6 1066.05 1330.5 1083.58 C 1350.46 1141.57 1296.76 1205.73 1234.25 1188.8 C 1236.94 1188.03 1235.66 1188.58 1237.83 1185.63 C 1241.85 1187.82 1251.95 1188.36 1256.67 1188.34 C 1281.47 1188.26 1304.09 1173.57 1317.3 1153.27 C 1329.39 1135.05 1333.58 1112.71 1328.93 1091.34 C 1324.62 1072.24 1313.56 1057.78 1297.21 1047.36 C 1295.46 1045.35 1295.97 1046.21 1295.24 1043.6 z"/>
<path transform="translate(0,0)" fill="rgb(215,214,214)" d="M 1266.88 1151.18 L 1267.19 1151.35 L 1266.78 1152.72 C 1255.29 1162.63 1233.82 1171.61 1219.05 1174.88 L 1218.15 1173.26 C 1219.32 1172.26 1219.15 1172.12 1220.39 1171.83 C 1235.05 1168.37 1254.46 1159.5 1266.88 1151.18 z"/>
<path transform="translate(0,0)" fill="rgb(215,214,214)" d="M 1272.83 1156.02 L 1273.41 1156.43 C 1269.23 1165.4 1235.64 1178.35 1226.14 1180.5 L 1225.08 1179.18 C 1227.24 1177 1236.87 1175.06 1241.42 1173.09 C 1253.75 1167.74 1261.83 1163.66 1272.83 1156.02 z"/>
<path transform="translate(0,0)" fill="rgb(215,214,214)" d="M 1257.89 1146.18 L 1258.25 1146.38 C 1250.48 1157.46 1225.54 1166.36 1212.26 1168.82 L 1211.57 1167.43 C 1214.3 1164.98 1245.34 1158.25 1257.89 1146.18 z"/>
<path transform="translate(0,0)" fill="rgb(215,214,214)" d="M 1278.36 1161.7 L 1279.05 1163.23 C 1266.46 1173.5 1249.96 1179.8 1234.51 1184.18 L 1233.51 1183.31 C 1237.44 1180.47 1249.89 1177.11 1255.54 1174.52 C 1264.62 1170.37 1269.86 1167.12 1278.36 1161.7 z"/>
<path transform="translate(0,0)" fill="rgb(176,175,176)" d="M 1247.05 1144.19 L 1247.56 1144.65 C 1240.42 1153.69 1217.9 1160.44 1207.32 1163.34 L 1206.57 1162 C 1209.14 1159.49 1222.82 1156.61 1228.03 1154.27 C 1235.64 1150.86 1239.77 1148.52 1247.05 1144.19 z"/>
<path transform="translate(0,0)" fill="rgb(176,175,176)" d="M 1237.08 1141.43 L 1237.4 1142.6 C 1227.27 1149.99 1214.87 1153.64 1203.04 1157.96 L 1202.27 1157.03 C 1204.03 1154.79 1230.15 1145.43 1237.08 1141.43 z"/>
<path transform="translate(0,0)" fill="rgb(84,83,85)" d="M 1278.36 1161.7 C 1280.96 1159.42 1285.59 1155.1 1288.35 1153.44 L 1289.06 1153.52 L 1290.73 1152.26 L 1290.76 1152.31 C 1288.2 1154.24 1282.37 1160.45 1279.05 1163.23 L 1278.36 1161.7 z"/>
<path transform="translate(0,0)" fill="rgb(40,35,35)" d="M 1301.21 966.959 C 1307.32 966.496 1323.55 974.345 1329.16 977.443 C 1360.13 994.753 1382.85 1023.77 1392.23 1057.99 C 1424.19 1172.69 1315.06 1317.72 1195.06 1251.04 C 1161.21 1232.23 1143.27 1199.28 1133.77 1163.22 C 1133.14 1160.65 1132.66 1159.65 1134.18 1157.63 C 1136.32 1160.14 1139.18 1169.83 1140.3 1173.58 C 1161.93 1245.74 1240.26 1288.2 1310.51 1249.54 C 1401.8 1199.31 1430.09 1047.72 1334.98 985.927 C 1324.57 979.16 1314.06 975.123 1302.86 969.988 C 1302.31 968.979 1301.76 967.969 1301.21 966.959 z"/>
<path transform="translate(0,0)" fill="rgb(40,35,35)" d="M 963.678 933.942 C 1011.83 877.747 1100.86 860.35 1164.98 898.767 C 1148.91 907.113 1130 916.219 1115.55 927.044 C 1017.95 1000.2 985.045 1159.09 1076.88 1249.67 C 1078.57 1251.33 1079.5 1363.05 1076.41 1368.79 L 1074.58 1369.55 L 1073.19 1368.94 C 1069.84 1355.11 1076.25 1253.56 1071.41 1250.75 C 1069.16 1249.44 1066.49 1248.91 1063.98 1248.26 L 1058.83 1246.91 L 1048.94 1243.84 L 1048.81 1331.58 C 1048.82 1339.1 1050.36 1371.63 1047.27 1374.83 L 1044.91 1375.01 C 1042.95 1372.05 1044.5 1256.15 1044.21 1242.24 L 1033.6 1238.57 C 1033.42 1254.19 1035.1 1372.72 1033.14 1377.36 L 1031.17 1378.57 L 1029.73 1378.12 C 1028.03 1370.9 1029.35 1355.17 1029.55 1347.04 C 1030.48 1310.47 1028.86 1273.41 1029.53 1236.92 L 1019.01 1233.74 C 1018.58 1267.82 1018.46 1301.9 1018.64 1335.99 C 1018.64 1344.52 1019.21 1374.09 1018.1 1381.22 C 1015.63 1381.16 1016.69 1381.58 1014.87 1380.07 L 1015.21 1273.57 C 1014.68 1260.83 1015.1 1245.47 1015.14 1232.54 C 1010.99 1231.04 1007.38 1229.44 1003 1229 C 1004.27 1266.51 1003.43 1342.08 1003.56 1383 C 1003.12 1383.51 1002.68 1384.03 1002.24 1384.54 L 1000.71 1384.38 C 999.428 1380.41 999.975 1376.78 1000.17 1372.55 C 999.499 1357.06 1000.02 1337.72 1000.02 1322 L 999.992 1226.93 L 987.714 1220.27 L 987.674 1254.75 C 984.78 1250.88 988.597 1227.97 985.428 1220.02 C 983.95 1217.18 975.352 1210.97 972.106 1210.79 L 970.876 1211.14 C 969.424 1206.12 964.146 1201.95 960.325 1198.42 C 898.393 1141.26 894.986 1051.23 927.824 977.917 C 932.888 966.613 947.649 944.224 957.752 936.086 C 959.675 933.739 959.638 934.486 963.678 933.942 z"/>
<path transform="translate(0,0)" fill="rgb(255,255,255)" d="M 957.752 936.086 C 959.675 933.739 959.638 934.486 963.678 933.942 C 939.904 969.298 918.372 1015.13 918.979 1058.65 L 916.705 1058.1 C 917.422 1000.51 927.764 982.397 957.752 936.086 z"/>
<path transform="translate(0,0)" fill="rgb(13,11,11)" d="M 1000.17 1372.55 C 1001.59 1366.49 1000.92 1343.39 1001.11 1335.65 C 1001.97 1300.63 999.774 1263.71 1001.55 1228.93 L 1003 1229 C 1004.27 1266.51 1003.43 1342.08 1003.56 1383 C 1003.12 1383.51 1002.68 1384.03 1002.24 1384.54 L 1000.71 1384.38 C 999.428 1380.41 999.975 1376.78 1000.17 1372.55 z"/>
<path transform="translate(0,0)" fill="rgb(13,11,11)" d="M 1015.21 1273.57 C 1017.84 1261.79 1014.32 1245.81 1016.81 1234.83 L 1017.59 1235.35 C 1017.93 1267.91 1017.42 1300.64 1017.63 1333.2 C 1017.71 1346.34 1016.89 1368.55 1018.1 1381.22 C 1015.63 1381.16 1016.69 1381.58 1014.87 1380.07 L 1015.21 1273.57 z"/>
<path transform="translate(0,0)" fill="rgb(149,147,151)" d="M 918.979 1058.65 C 918.941 1064.01 919.082 1066.76 918.023 1072.09 L 917.227 1071.83 C 916.296 1066.73 916.589 1063.24 916.705 1058.1 L 918.979 1058.65 z"/>
<path transform="translate(0,0)" fill="rgb(255,255,255)" d="M 1105.91 911.8 C 1040.12 968.889 1013.18 1019.72 1004.87 1107.31 C 1005.24 1110.09 1006.1 1122.01 1004.69 1123.79 C 1001.23 1115.48 1001.42 1092.43 1002.9 1083.63 C 1004.15 1032.03 1033.01 973.733 1070.09 938.422 C 1080.96 928.19 1092.98 919.256 1105.91 911.8 z"/>
<path transform="translate(0,0)" fill="rgb(215,214,214)" d="M 1004.87 1107.31 C 1005.24 1110.09 1006.1 1122.01 1004.69 1123.79 C 1001.23 1115.48 1001.42 1092.43 1002.9 1083.63 C 1003.22 1089.74 1002.23 1103.19 1004.87 1107.31 z"/>
<path transform="translate(0,0)" fill="rgb(255,255,255)" d="M 1012.88 1091.9 C 1013.95 1041.05 1044.75 978.03 1080.91 942.458 C 1090.86 932.673 1110.01 917.54 1123.16 912.632 C 1062.8 956.353 1024.71 1027.56 1014.6 1100.77 C 1013.11 1098.36 1013.16 1094.87 1012.88 1091.9 z"/>
<path transform="translate(0,0)" fill="rgb(255,255,255)" d="M 1050.99 916.481 L 1051.95 918.148 C 1002.64 965.761 977.908 1017.34 973.572 1086.24 C 973.874 1093 975.241 1114.12 973.602 1119.36 L 973.742 1118 C 972.669 1115.72 971.25 1106.17 971.323 1103.52 C 960.552 1032.07 995.196 960.426 1050.99 916.481 z"/>
<path transform="translate(0,0)" fill="rgb(215,214,214)" d="M 971.323 1103.52 C 975.319 1096.73 970.819 1092.4 973.572 1086.24 C 973.874 1093 975.241 1114.12 973.602 1119.36 L 973.742 1118 C 972.669 1115.72 971.25 1106.17 971.323 1103.52 z"/>
<path transform="translate(0,0)" fill="rgb(255,255,255)" d="M 1074.8 921.235 L 1075.84 924.184 C 1025.93 963.777 991.112 1049.21 995.92 1110.96 C 996.191 1114.44 996.175 1122.15 994.953 1125.28 C 990.224 1110.57 991.152 1075.94 993.41 1060.9 C 1001.12 1009.53 1032.67 952.08 1074.8 921.235 z"/>
<path transform="translate(0,0)" fill="rgb(255,255,255)" d="M 982.067 1109.32 C 976.052 1032.56 1004.04 961.271 1068.38 915.384 C 1070.81 913.644 1072.83 911.629 1075.63 911.254 C 1071.37 915.567 1065.18 919.695 1060.58 923.917 C 1054.93 929.114 1049.58 934.868 1044.48 940.615 C 1005.4 985.328 984.196 1042.9 984.945 1102.28 L 985.043 1111.8 L 982.067 1109.32 z"/>
<path transform="translate(0,0)" fill="rgb(255,255,255)" d="M 961.46 1104.78 C 960.398 1098.8 959.556 1093.49 959.128 1087.41 C 955.511 1035.46 972.647 984.19 1006.78 944.851 C 1013.28 937.442 1037.08 911.882 1045.42 911.301 C 987.57 962.404 959.811 1023.51 963.416 1101.24 L 961.46 1104.78 z"/>
<path transform="translate(0,0)" fill="rgb(255,255,255)" d="M 1027.54 911.989 L 1028.27 912.629 C 1027.69 913.121 1027.12 913.619 1026.55 914.124 C 984.933 951.934 958.753 1003.79 953.04 1059.73 C 951.552 1075.86 953.713 1091 952.663 1106.26 C 945.206 1086.4 947.589 1050.06 951.705 1029.46 C 960.218 986.852 990.74 936.025 1027.54 911.989 z"/>
<path transform="translate(0,0)" fill="rgb(255,255,255)" d="M 1005.64 917.033 L 1006.95 919.123 C 965.988 961.355 945.33 1006.69 940.872 1065.48 C 940.407 1068.47 940.415 1077.97 938.242 1078.69 C 937.008 1068.2 936.743 1057.62 937.449 1047.08 C 940.992 996.067 967.55 950.258 1005.64 917.033 z"/>
<path transform="translate(0,0)" fill="rgb(255,255,255)" d="M 927.262 1076.67 C 922.731 1027.43 936.329 980.748 967.228 941.904 C 971.561 936.457 990.762 915.197 996.839 913.34 C 996.516 915.242 989.195 922.146 987.222 924.349 C 978.256 934.358 969.957 945.326 962.782 956.67 C 943.88 986.571 932.599 1020.65 929.926 1055.92 C 929.944 1061.08 930.447 1082.87 929.022 1085.95 C 927.926 1081.98 927.706 1080.77 927.262 1076.67 z"/>
<path transform="translate(0,0)" fill="rgb(149,147,151)" d="M 929.926 1055.92 C 929.944 1061.08 930.447 1082.87 929.022 1085.95 C 927.926 1081.98 927.706 1080.77 927.262 1076.67 L 927.808 1076.6 C 929.644 1073.19 928.277 1063.02 929.926 1055.92 z"/>
<path transform="translate(0,0)" fill="rgb(215,214,214)" d="M 1094.66 909.179 L 1075.84 924.184 L 1074.8 921.235 C 1081.32 916.32 1087.36 912.871 1094.66 909.179 z"/>
<path transform="translate(0,0)" fill="rgb(215,214,214)" d="M 938.242 1078.69 C 940.415 1077.97 940.407 1068.47 940.872 1065.48 C 940.962 1075.94 941.217 1086.51 940.566 1096.95 C 939.456 1090.3 938.804 1085.4 938.242 1078.69 z"/>
<path transform="translate(0,0)" fill="rgb(215,214,214)" d="M 1012.88 1091.9 C 1013.16 1094.87 1013.11 1098.36 1014.6 1100.77 C 1014.39 1104.49 1013.13 1112.25 1012.6 1116.21 C 1011.81 1107.87 1011.63 1100.19 1012.88 1091.9 z"/>
<path transform="translate(0,0)" fill="rgb(215,214,214)" d="M 982.067 1109.32 L 985.043 1111.8 C 985.269 1114.58 986.051 1119.65 984.608 1121.65 C 982.525 1117.7 982.545 1113.83 982.067 1109.32 z"/>
<path transform="translate(0,0)" fill="rgb(149,147,151)" d="M 1050.99 916.481 C 1054.41 913.52 1055.13 912.609 1059.18 910.858 L 1060.35 911.356 C 1058.35 914.552 1055.17 916.108 1051.95 918.148 L 1050.99 916.481 z"/>
<path transform="translate(0,0)" fill="rgb(176,175,176)" d="M 963.416 1101.24 C 964.287 1106.51 964.179 1110.63 964.208 1115.92 C 962.457 1111.06 962.021 1109.87 961.46 1104.78 L 963.416 1101.24 z"/>
<path transform="translate(0,0)" fill="rgb(176,175,176)" d="M 1005.64 917.033 C 1010.37 913.103 1012.73 911.795 1017.93 908.802 C 1014.49 912.217 1010.75 916.208 1006.95 919.123 L 1005.64 917.033 z"/>
<path transform="translate(0,0)" fill="rgb(236,123,49)" d="M 1216.6 906.352 C 1250.79 901.103 1294.07 920.694 1323.69 935.585 C 1312.32 933.986 1300.65 932.343 1289.18 932.026 C 1242.55 930.687 1197.3 947.983 1163.46 980.086 C 1085.31 1054.68 1072.56 1177.41 1149.45 1257.38 C 1161.04 1268.16 1173.44 1276.77 1186.15 1286.14 C 1160.4 1280.27 1132.4 1266.89 1111.03 1251.5 C 1076.52 1226.68 1056.89 1188.92 1050.95 1147.35 C 1035.52 1039.29 1102.7 921.617 1216.6 906.352 z"/>
<path transform="translate(0,0)" fill="url(#Gradient1)" d="M 635.71 887.965 C 639.773 878.495 648.782 868.838 659.227 866.948 C 671.805 871.337 689.965 875.644 700.575 883.246 L 701.501 882.83 C 705.109 886.767 704.718 906.011 702.225 908.684 C 702.046 905.649 702.555 902.978 700.929 901.418 C 694.324 909.869 697.39 947.373 697.023 961.943 C 684.633 958.182 648.013 947.841 639.225 941.644 C 630.015 923.545 626.614 907.501 635.71 887.965 z"/>
<path transform="translate(0,0)" fill="rgb(57,52,52)" d="M 635.71 887.965 C 639.773 878.495 648.782 868.838 659.227 866.948 L 659.665 871.108 C 644.215 874.915 640.412 891.119 636.901 904.106 C 634.019 896.788 636.519 895.412 635.71 887.965 z"/>
<path transform="translate(0,0)" fill="rgb(215,214,214)" d="M 659.665 871.108 C 651.222 878.893 644.8 886.216 640.944 897.485 C 639.423 901.928 639.564 906.01 637.46 910.454 L 636.901 904.106 C 640.412 891.119 644.215 874.915 659.665 871.108 z"/>
<path transform="translate(0,0)" fill="rgb(255,255,255)" d="M 688.653 881.05 L 689.376 881.66 C 687.108 884.913 684.754 886.784 682.573 889.831 C 676.963 897.668 671.826 914.706 673.611 924.176 C 664.354 912.928 675.495 887.769 688.653 881.05 z"/>
<path transform="translate(0,0)" fill="rgb(255,255,255)" d="M 701.435 887.698 C 703.634 898.481 694.451 901.066 692.136 910.698 C 691.191 914.627 690.935 925.305 690.434 930.266 C 684.921 909.689 689.187 903.804 701.435 887.698 z"/>
<path transform="translate(0,0)" fill="rgb(255,255,255)" d="M 696.561 883.781 L 697.161 884.315 C 697.66 886.621 692.202 892.27 690.065 895.056 C 683.641 903.433 682.393 915.815 681.457 926.16 C 673.571 915.274 685.126 890.718 696.561 883.781 z"/>
<path transform="translate(0,0)" fill="rgb(255,255,255)" d="M 680.587 877.972 L 681.466 878.793 C 669.353 887.979 664.283 905.582 663.634 920.197 L 662.462 918.88 C 659.231 903.135 666.288 885.679 680.587 877.972 z"/>
<path transform="translate(0,0)" fill="rgb(255,255,255)" d="M 670.794 875.86 C 671.976 878.191 670.412 878.394 667.556 882.016 C 659.393 892.369 655.494 904.153 654.557 917.167 C 652.245 913.318 652.885 905.768 653.721 901.562 C 655.883 891.113 662 881.904 670.794 875.86 z"/>
<path transform="translate(0,0)" fill="rgb(215,214,214)" d="M 664.848 873.16 L 664.942 873.209 C 665.213 875.186 659.826 878.938 657.663 881.698 C 649.992 891.491 648.026 902.486 645.495 914.199 L 644.419 912.439 C 643.922 898.409 651.138 878.939 664.848 873.16 z"/>
<path transform="translate(0,0)" fill="rgb(40,35,35)" d="M 1062.56 764.412 C 1069.43 763.593 1080.57 764.233 1087.36 765.313 C 1116.01 770.013 1141.61 785.926 1158.51 809.539 C 1165.97 820.02 1175.34 839.223 1173.18 852.172 C 1171.02 855.256 1172.43 854.361 1168.91 855.126 C 1163.06 851.422 1161.42 832.492 1157.53 825.009 C 1135.41 782.449 1090.14 768.572 1044.68 777.344 C 1000.41 788.776 968.301 824.231 964.049 869 C 963.587 873.854 963.238 880.748 957.04 880.321 C 954.586 878.423 952.619 877.111 952.719 873.545 C 954.395 813.71 1005.21 769.007 1062.56 764.412 z"/>
<path transform="translate(0,0)" fill="rgb(40,35,35)" d="M 1147.17 1353.52 C 1144.13 1354.29 1143 1354.42 1139.96 1354.79 C 1138.18 1352.14 1138.98 1301.59 1139.85 1293.93 C 1142.26 1293.03 1144.02 1294.34 1147.18 1295.39 L 1151.92 1296.74 C 1154.62 1297.78 1157.33 1298.94 1160.15 1299.59 L 1164.19 1300.88 C 1166.55 1301.48 1171.01 1302.76 1173.24 1303.17 L 1176.63 1303.86 C 1180.04 1304.55 1183.15 1305.1 1186.48 1306.15 L 1189.32 1306.77 C 1192.36 1306.9 1197.67 1307.3 1200.5 1307.06 L 1202.17 1307.97 C 1207.07 1308.7 1208.06 1307.98 1211.21 1310.64 C 1211.73 1314.8 1211.12 1316.97 1211.27 1320.99 L 1211.06 1323.08 C 1207.8 1327.83 1205.9 1329.01 1201.45 1332.44 L 1199.96 1333.12 C 1196.79 1336.77 1194.06 1338.18 1190.02 1340.78 L 1186.15 1342.68 L 1176.79 1347.28 L 1173.2 1348.4 L 1164.06 1350.72 L 1160.78 1350.67 C 1157.08 1351.67 1155.04 1352.16 1151.27 1352.73 L 1147.17 1353.52 z"/>
<path transform="translate(0,0)" fill="rgb(40,35,35)" d="M 1147.17 1353.52 C 1144.13 1354.29 1143 1354.42 1139.96 1354.79 C 1138.18 1352.14 1138.98 1301.59 1139.85 1293.93 C 1142.26 1293.03 1144.02 1294.34 1147.18 1295.39 L 1151.92 1296.74 C 1154.62 1297.78 1157.33 1298.94 1160.15 1299.59 L 1164.19 1300.88 L 1164.06 1350.72 L 1160.78 1350.67 C 1157.08 1351.67 1155.04 1352.16 1151.27 1352.73 L 1147.17 1353.52 z"/>
<path transform="translate(0,0)" fill="rgb(40,35,35)" d="M 1151.92 1296.74 C 1154.62 1297.78 1157.33 1298.94 1160.15 1299.59 L 1164.19 1300.88 L 1164.06 1350.72 L 1160.78 1350.67 C 1157.08 1351.67 1155.04 1352.16 1151.27 1352.73 C 1152.71 1338.31 1151.92 1311.96 1151.92 1296.74 z"/>
<path transform="translate(0,0)" fill="rgb(215,214,214)" d="M 1160.15 1299.59 L 1164.19 1300.88 L 1164.06 1350.72 L 1160.78 1350.67 C 1160.75 1333.64 1160.54 1316.62 1160.15 1299.59 z"/>
<path transform="translate(0,0)" fill="rgb(255,255,255)" d="M 1147.18 1295.39 L 1151.92 1296.74 C 1151.92 1311.96 1152.71 1338.31 1151.27 1352.73 L 1147.17 1353.52 C 1147.04 1334.14 1147.04 1314.77 1147.18 1295.39 z"/>
<path transform="translate(0,0)" fill="rgb(40,35,35)" d="M 1189.32 1306.77 C 1192.36 1306.9 1197.67 1307.3 1200.5 1307.06 L 1202.17 1307.97 C 1207.07 1308.7 1208.06 1307.98 1211.21 1310.64 C 1211.73 1314.8 1211.12 1316.97 1211.27 1320.99 L 1211.06 1323.08 C 1207.8 1327.83 1205.9 1329.01 1201.45 1332.44 L 1199.96 1333.12 C 1196.79 1336.77 1194.06 1338.18 1190.02 1340.78 C 1188.53 1337.39 1189.26 1312.06 1189.32 1306.77 z"/>
<path transform="translate(0,0)" fill="rgb(40,35,35)" d="M 1202.17 1307.97 C 1207.07 1308.7 1208.06 1307.98 1211.21 1310.64 C 1211.73 1314.8 1211.12 1316.97 1211.27 1320.99 L 1211.06 1323.08 C 1207.8 1327.83 1205.9 1329.01 1201.45 1332.44 C 1202.06 1325.02 1202.01 1315.55 1202.17 1307.97 z"/>
<path transform="translate(0,0)" fill="rgb(215,214,214)" d="M 1200.5 1307.06 L 1202.17 1307.97 C 1202.01 1315.55 1202.06 1325.02 1201.45 1332.44 L 1199.96 1333.12 C 1198.46 1327.58 1199.31 1312.87 1200.5 1307.06 z"/>
<path transform="translate(0,0)" fill="rgb(40,35,35)" d="M 1176.63 1303.86 C 1180.04 1304.55 1183.15 1305.1 1186.48 1306.15 L 1189.32 1306.77 C 1189.26 1312.06 1188.53 1337.39 1190.02 1340.78 L 1186.15 1342.68 L 1176.79 1347.28 C 1176.92 1332.89 1176.71 1318.27 1176.63 1303.86 z"/>
<path transform="translate(0,0)" fill="rgb(215,214,214)" d="M 1186.48 1306.15 L 1189.32 1306.77 C 1189.26 1312.06 1188.53 1337.39 1190.02 1340.78 L 1186.15 1342.68 L 1186.48 1306.15 z"/>
<path transform="translate(0,0)" fill="rgb(215,214,214)" d="M 1173.24 1303.17 L 1176.63 1303.86 C 1176.71 1318.27 1176.92 1332.89 1176.79 1347.28 L 1173.2 1348.4 C 1173.12 1333.32 1173.13 1318.24 1173.24 1303.17 z"/>
<path transform="translate(0,0)" fill="rgb(57,52,52)" d="M 1058.83 1246.91 L 1063.98 1248.26 C 1062.78 1257.64 1063.59 1277.19 1063.55 1287.4 C 1063.47 1306.44 1063.62 1325.76 1063.26 1344.83 C 1063.11 1352.68 1064.16 1364.26 1062.69 1371.34 C 1060.32 1372.91 1061.58 1372.72 1058.92 1372.35 C 1057.74 1369.8 1058.79 1259.61 1058.83 1246.91 z"/>
<path transform="translate(0,0)" fill="rgb(40,35,35)" d="M 1100.72 1269.64 C 1102.01 1270.46 1106.68 1273.46 1106.71 1274.78 C 1107.34 1303.67 1106.95 1334.47 1106.99 1363.18 C 1102.91 1363.22 1104.19 1363.93 1101.32 1362.26 C 1099.42 1338.22 1100.92 1295.82 1100.72 1269.64 z"/>
<path transform="translate(0,0)" fill="rgb(40,35,35)" d="M 1087.03 1259.8 C 1087.96 1260.33 1092.16 1262.91 1092.19 1264.05 C 1092.82 1297.84 1091.85 1331.7 1092.58 1365.56 C 1090.08 1366.36 1089.95 1366.74 1087.53 1365.98 C 1086.69 1362.25 1087.11 1340.33 1087.11 1335.2 L 1087.03 1259.8 z"/>
<path transform="translate(0,0)" fill="rgb(40,35,35)" d="M 1113.19 1278.53 C 1121.53 1282.76 1120.81 1282.15 1120.67 1291.41 C 1120.32 1314.2 1120.29 1336.94 1120.47 1359.73 C 1116.82 1360.11 1116.87 1360.76 1114.4 1359.22 C 1112.02 1335.91 1116.25 1301.9 1113.19 1278.53 z"/>
<path transform="translate(0,0)" fill="rgb(40,35,35)" d="M 1203.34 698.806 C 1208.04 704.138 1204.69 848.943 1205.87 867.447 C 1206.06 870.343 1205.67 881.449 1205.54 884.963 C 1204.38 884.711 1205.12 884.939 1203.46 883.932 C 1202.55 878.628 1203.2 869.833 1203.2 863.932 L 1203.11 822.407 L 1202.92 743.689 C 1202.9 730.227 1202.38 711.987 1203.34 698.806 z"/>
<path transform="translate(0,0)" fill="rgb(40,35,35)" d="M 1127.04 1286.48 C 1134.28 1289.6 1134.31 1289.67 1134.19 1297.73 C 1133.88 1317.43 1133.94 1337.12 1134.06 1356.82 C 1130.93 1357.18 1130.38 1357.47 1127.31 1356.63 C 1125.92 1346.13 1126.97 1299.91 1127.04 1286.48 z"/>
<path transform="translate(0,0)" fill="rgb(40,35,35)" d="M 1187.21 688.68 C 1190.44 691.518 1189.14 709.457 1189.12 714.765 L 1189.18 762.427 L 1189.33 843.196 C 1189.35 856.555 1189.94 876.333 1188.9 889.333 C 1184.57 884.29 1188.16 724.922 1186.86 704.674 C 1186.7 702.184 1187.1 691.667 1187.21 688.68 z"/>
<path transform="translate(0,0)" fill="rgb(13,11,11)" d="M 985.428 1220.02 C 988.597 1227.97 984.78 1250.88 987.674 1254.75 C 988.023 1271.37 989.101 1381.74 986.086 1387.33 C 983.862 1378.6 983.983 1234.48 985.428 1220.02 z"/>
<path transform="translate(0,0)" fill="rgb(13,11,11)" d="M 970.876 1211.14 L 972.106 1210.79 C 970.871 1251.84 973.407 1296.88 972.188 1338.27 C 971.707 1354.6 973.852 1375.8 970.829 1390.96 L 970.336 1390.75 C 968.559 1353.83 970.628 1312.36 969.79 1275.07 C 969.572 1265.38 969.291 1218.96 970.876 1211.14 z"/>
<path transform="translate(0,0)" fill="rgb(40,35,35)" d="M 1218.95 721.464 C 1219.52 721.902 1220.23 722.91 1220.73 723.524 C 1222.02 740.099 1222.89 874.661 1219.41 882.257 L 1218.74 882.107 C 1217.37 879.361 1218.82 738.501 1218.95 721.464 z"/>
<path transform="translate(0,0)" fill="rgb(13,11,11)" d="M 940.408 1241.74 C 941.344 1257.76 940.613 1279.99 940.572 1296.55 C 940.422 1330.25 940.443 1363.96 940.632 1397.66 C 938.398 1396.79 939.27 1397.51 938.004 1395.5 L 937.929 1296.35 C 937.929 1286.66 936.559 1247.26 940.408 1241.74 z"/>
<path transform="translate(0,0)" fill="rgb(13,11,11)" d="M 954.435 1224.8 L 955.339 1225.66 C 956.372 1230.51 956.426 1275.37 956.203 1283.5 C 955.225 1319.06 957.881 1360.45 955.957 1395.37 L 954.378 1393.43 C 952.538 1371.05 953.933 1330.82 953.867 1306.32 L 953.76 1255.79 C 953.752 1246.44 953.361 1233.67 954.435 1224.8 z"/>
<path transform="translate(0,0)" fill="rgb(13,11,11)" d="M 922.15 1259.52 L 923.58 1260.82 C 924.638 1266.94 924.051 1308.48 924.042 1317.31 L 923.965 1371.08 C 923.946 1379.6 924.327 1393.42 923.342 1401.53 C 922.806 1400.89 922.27 1400.26 921.734 1399.62 C 921.826 1364.77 920.2 1290.33 922.15 1259.52 z"/>
<path transform="translate(0,0)" fill="rgb(40,35,35)" d="M 907.365 1281.72 L 908.61 1283.11 C 909.882 1298.83 909.026 1326.48 909.03 1342.91 C 909.033 1359.92 909.865 1387.69 908.527 1404 C 903.377 1397.09 907.942 1327.16 906.581 1314.58 C 906.117 1310.29 906.666 1286.68 907.365 1281.72 z"/>
<path transform="translate(0,0)" fill="rgb(13,11,11)" d="M 1157.97 691.38 L 1158.18 760.708 C 1158.72 766.423 1159.7 773.215 1157.74 778.635 C 1156.66 776.43 1156.27 772.335 1156.29 769.889 C 1155.2 755.141 1154.92 707.03 1155.76 692.167 L 1157.97 691.38 z"/>
<path transform="translate(0,0)" fill="rgb(84,83,85)" d="M 1158.18 760.708 C 1158.72 766.423 1159.7 773.215 1157.74 778.635 C 1156.66 776.43 1156.27 772.335 1156.29 769.889 L 1156.83 770.171 L 1157.61 769.691 L 1158.18 760.708 z"/>
<path transform="translate(0,0)" fill="rgb(40,35,35)" d="M 1140.86 692.926 L 1141.74 691.874 L 1142.48 692.997 C 1142.95 705.634 1142.99 748.187 1141.78 760.248 C 1138.7 754.784 1139.68 701.643 1140.86 692.926 z"/>
<path transform="translate(0,0)" fill="rgb(40,35,35)" d="M 888.624 1379.25 C 889.133 1368.35 887.046 1326.55 890.011 1321.29 C 891.738 1330.74 891.384 1374.38 890.889 1385.01 C 889.818 1383.11 889.344 1381.33 888.624 1379.25 z"/>
<path transform="translate(0,0)" fill="rgb(40,35,35)" d="M 1124.17 696.767 L 1126.13 697.044 C 1126.79 701.394 1126.62 736.121 1126.81 744.512 L 1126.12 745.073 C 1122.08 736.816 1123.99 707.252 1124.17 696.767 z"/>
<path transform="translate(0,0)" fill="rgb(57,52,52)" d="M 1110.41 697.788 L 1112.72 698.682 C 1111.95 710.943 1112.17 723.948 1111.32 735.608 C 1107.48 730.363 1110.02 705.658 1110.41 697.788 z"/>
<path transform="translate(0,0)" fill="rgb(40,35,35)" d="M 1211.27 1320.99 C 1212.99 1317.28 1212.93 1315.48 1213.21 1311.37 C 1215.69 1307.72 1219.57 1309.48 1223.82 1310.14 C 1219.47 1315.06 1216.24 1319.02 1211.06 1323.08 L 1211.27 1320.99 z"/>
<path transform="translate(0,0)" fill="rgb(57,52,52)" d="M 1094.41 699.23 L 1096.12 699.65 L 1096.59 700.577 C 1094.32 709.772 1097.39 719.29 1095.4 727.567 L 1094.05 726.745 C 1092.07 722.424 1092.75 704.349 1094.41 699.23 z"/>
<path transform="translate(0,0)" fill="rgb(84,83,85)" d="M 1077.51 702.52 L 1078.91 704.341 C 1078.9 708.816 1078.98 714.364 1076.95 718.379 L 1076.75 717.232 C 1076.03 712.996 1074.93 706.125 1077.51 702.52 z"/>
</svg>