<svg version="1.1" xmlns="http://www.w3.org/2000/svg" style="display: block;" viewBox="0 0 2048 2048" width="1024" height="1024" preserveAspectRatio="none">
<defs>
	<linearGradient id="Gradient1" gradientUnits="userSpaceOnUse" x1="1475.31" y1="964.48" x2="1476.97" y2="954.915">
		<stop class="stop0" offset="0" stop-opacity="1" stop-color="rgb(19,13,17)"/>
		<stop class="stop1" offset="1" stop-opacity="1" stop-color="rgb(40,42,38)"/>
	</linearGradient>
	<linearGradient id="Gradient2" gradientUnits="userSpaceOnUse" x1="540.113" y1="1215.51" x2="552.087" y2="1179.89">
		<stop class="stop0" offset="0" stop-opacity="1" stop-color="rgb(22,5,11)"/>
		<stop class="stop1" offset="1" stop-opacity="1" stop-color="rgb(33,39,31)"/>
	</linearGradient>
	<linearGradient id="Gradient3" gradientUnits="userSpaceOnUse" x1="925.918" y1="899.67" x2="917.693" y2="882.517">
		<stop class="stop0" offset="0" stop-opacity="1" stop-color="rgb(0,0,0)"/>
		<stop class="stop1" offset="1" stop-opacity="1" stop-color="rgb(28,14,12)"/>
	</linearGradient>
</defs>
<path transform="translate(0,0)" fill="rgb(255,255,255)" d="M 0 0 L 2048 0 L 2048 2048 L 0 2048 L 0 0 z"/>
<path transform="translate(0,0)" fill="rgb(21,17,16)" d="M 586.606 641.553 C 590.794 641.338 595.264 641.328 599.481 641.241 C 611.903 653.301 625.439 668.404 637.19 681.185 L 721.008 680.798 C 736.403 680.672 756.08 679.496 771.051 681.791 C 778.734 682.969 783.013 689.654 786.943 695.734 C 788.393 742.512 786.997 797.197 787.056 844.53 C 814.74 873.165 845.626 901.271 874.24 929.754 C 878.236 915.689 882.255 903.416 889.412 890.572 C 910.017 854.039 944.126 827.043 984.415 815.378 C 1024.23 804.526 1066.71 809.803 1102.65 830.065 C 1144.28 853.762 1164.89 885.649 1177.15 930.495 C 1199.07 911.002 1219.6 889.314 1240.91 869.136 C 1250.12 860.417 1259.4 851.382 1267.93 842.013 C 1268.58 802.547 1266.97 762.835 1267.57 723.17 C 1269.6 701.657 1260.15 664.243 1277.25 647.539 C 1284.97 639.997 1315.71 641.99 1326.9 641.999 C 1345.72 642.013 1366.3 640.928 1384.78 642.131 C 1388.99 645.997 1395.01 653.795 1399.26 658.233 C 1406.39 665.667 1413.48 672.843 1420.75 680.131 L 1503.49 680.24 C 1518.14 680.16 1537.01 679.183 1551.41 681.212 C 1558.56 682.22 1564.28 691.611 1567.86 697.415 C 1566.99 730.581 1568.36 763.81 1568.07 797.074 C 1567.91 815.528 1570.37 839.5 1564.63 857.098 C 1559.49 870.269 1549.45 871.308 1537.59 871.271 C 1457.35 871.021 1377.23 869.964 1297 872.037 C 1278.66 872.511 1274.02 870.741 1266.82 853.586 C 1257.26 862.259 1246.09 874.106 1236.72 883.388 C 1217.86 902.302 1198.55 920.747 1178.78 938.708 C 1179.12 970.485 1178.9 1003.1 1179.73 1034.78 C 1187.5 1035.1 1195.4 1035.27 1203.18 1035.2 C 1256.62 1034.69 1310.88 1037.15 1364.27 1035.54 C 1365.08 1008.03 1364.61 978.044 1364.47 950.957 C 1364.24 908.988 1382.55 912.631 1416.11 912.891 C 1437.19 913.055 1459.97 912.745 1481.38 913.01 C 1485.3 920.349 1507.64 943.575 1514.7 951.124 C 1547.25 951.066 1580.41 951.652 1612.79 951.061 C 1660.76 950.185 1671.53 945.655 1669.62 997.442 C 1668.05 1040.08 1671.27 1084.26 1668.87 1127.09 C 1664.06 1134.95 1658.86 1140.65 1649.34 1141.09 C 1613.75 1142.75 1576.74 1141 1541.12 1140.98 L 1439.19 1141 C 1420.76 1141.07 1400.83 1141.6 1382.48 1140.86 C 1361.59 1140.03 1365 1114.2 1364.9 1099.79 C 1364.77 1081.42 1365.72 1061.6 1364.55 1042.84 C 1342.98 1042.05 1318.54 1042.63 1296.72 1042.69 L 1179.4 1042.99 C 1179.49 1069.62 1180.72 1095.98 1176.29 1122.21 C 1197 1141.72 1218.08 1160.85 1238.33 1180.84 C 1247.76 1190.15 1257.13 1199.51 1266.92 1208.45 C 1269.34 1196.62 1272.33 1182.62 1286.68 1180.24 C 1299.3 1178.14 1312.75 1178.86 1325.57 1178.85 C 1345.23 1178.8 1364.9 1178.88 1384.56 1179.09 C 1390.51 1187.7 1409.18 1208.39 1417.16 1214.57 C 1447.69 1215.33 1479.56 1213.32 1510.27 1213.83 C 1525.29 1214.07 1541.51 1212.84 1556.3 1215.3 C 1560.85 1218.92 1562.47 1220.79 1566.24 1225.02 C 1567.03 1228.73 1567.51 1232.49 1567.66 1236.27 C 1568.98 1264.58 1567.66 1297.09 1568.6 1325.8 C 1568.97 1337.21 1569.46 1379.75 1567.74 1389.05 C 1567.02 1392.92 1565.14 1396.49 1562.36 1399.27 C 1553.16 1408.63 1527.16 1405.45 1514.24 1405.29 L 1458.35 1404.98 C 1401.94 1403.41 1344.98 1405.97 1288.53 1404.87 C 1266.49 1404.44 1268.99 1386.94 1268.59 1371.13 C 1267.31 1320.65 1269.07 1269.86 1267.64 1219.37 C 1245.33 1196.39 1222.26 1175.4 1199.01 1153.48 C 1190.81 1145.75 1183.24 1137.85 1174.8 1130.28 C 1172.59 1138.02 1169.79 1145.58 1166.43 1152.9 C 1131.32 1227.91 1033.01 1260.26 958.949 1224.35 C 915.505 1203.29 891.488 1172.98 875.632 1127.91 C 845.195 1158.43 808.019 1190.47 779.567 1222.23 C 787.12 1240.51 783.747 1246.37 783.783 1265.23 C 783.817 1283.04 783.847 1301.03 783.896 1318.85 C 783.87 1332.42 783.997 1345.99 784.278 1359.56 C 784.517 1368.59 785.255 1378.7 784.817 1387.6 C 784.293 1398.24 772.361 1406.22 762.456 1406.5 C 736.505 1407.24 710.575 1406.85 684.648 1406.42 L 578.187 1405.4 C 560.694 1405.4 543.201 1405.58 525.711 1405.94 C 505.935 1406.21 491.663 1410.47 479.287 1392.9 C 478.848 1389.51 478.592 1386.1 478.521 1382.68 C 478.044 1341.42 477.846 1300.15 477.927 1258.88 C 477.961 1237.33 470.745 1184.49 500.905 1181.1 C 531.553 1177.65 565.307 1179.84 596.514 1179.3 C 607.791 1190.48 619.144 1203.88 630.802 1214.32 C 672.205 1215.69 714.307 1213.08 755.781 1214.24 C 761.872 1214.41 766.114 1215.39 771.889 1217.31 C 780.037 1211.18 797.201 1193.89 804.984 1186.34 L 872.56 1120.01 C 869.645 1096.17 870.127 1066.95 870.197 1042.66 C 850.278 1041.88 825.113 1042.73 804.647 1042.71 L 688.378 1042.21 C 688.318 1057.62 688.44 1073.02 688.746 1088.43 C 689.064 1106.1 693.818 1139.37 667.257 1139.89 C 646.306 1140.29 625.136 1139.97 604.157 1139.95 L 486.6 1140.11 L 425.495 1140.1 C 415.636 1140.11 403.109 1140.58 393.47 1139.34 C 386.677 1138.46 383.668 1133.18 380.122 1127.89 C 379.678 1124.03 379.445 1120.14 379.422 1116.25 L 379.007 994.376 C 378.921 972.85 378.167 950.649 380.246 929.282 C 381.197 919.519 393.363 911.104 402.367 910.342 C 431.893 907.845 462.832 909.567 492.612 910.097 C 503.014 917.513 520.356 938.816 529.695 949.33 C 568.65 951.278 610.809 948.961 650.124 950.176 C 661.076 950.515 670.696 948.458 679.612 956.357 C 683.2 959.529 685.762 963.698 686.971 968.331 C 689.139 976.65 687.764 1021.4 688.225 1034.94 C 747.833 1036.18 810.815 1035.13 870.556 1034.98 C 870.939 1002.06 872.156 971.868 873.125 939.253 C 856.074 921.565 838.71 904.183 821.04 887.114 C 810.53 876.805 798.304 863.824 786.346 855.847 C 782.875 864.803 780.892 868.407 773.083 873.79 C 758.274 874.927 742.276 874.254 727.329 874.5 C 696.266 875.013 665.468 874.158 634.418 873.798 C 592.214 873.309 549.819 873.851 507.611 873.03 C 504.239 872.965 494.432 872.198 492.42 870.097 C 487.274 864.727 484.199 860.238 483.978 852.855 C 482.777 812.66 483.393 773.199 483.608 732.964 C 483.729 710.456 482.307 685.54 483.489 662.937 C 484.152 658.068 487.388 653.035 490.671 649.67 C 501.017 639.068 521.407 642.003 535.176 641.845 C 552.416 641.646 569.355 642.169 586.606 641.553 z"/>
<path transform="translate(0,0)" fill="rgb(255,255,255)" d="M 925.914 995.57 C 934.56 997.151 949.934 997.781 958.49 995.513 C 971.292 992.119 970.068 980.25 975.914 970.963 C 978.102 967.486 981.71 964.091 985.851 963.318 C 994.233 961.753 1062.7 961.758 1067.35 965.408 C 1076.15 972.315 1074.33 986.804 1084.61 994.031 C 1084.88 994.218 1085.15 994.397 1085.41 994.58 C 1091.91 994.48 1132.59 993.061 1134.46 994.933 C 1133.42 996.27 1132.46 997.53 1131.65 999.025 C 1134.47 999.637 1133.42 999.676 1136.2 999.171 L 1136.89 998.286 C 1138.32 996.475 1140.14 993.778 1142.34 993.695 C 1150.82 993.377 1160.6 994.197 1169 994.843 L 1170.12 995.92 C 1169.97 997.566 1169.56 999.837 1169.97 1001.29 C 1170.8 1005.77 1171.4 1004.1 1169.52 1006.94 C 1157.99 1010.69 1138.06 1004.06 1131.59 1008.51 L 1131.19 1010.58 C 1138.07 1015.48 1167.56 1007.29 1170.35 1014.85 C 1164.61 1019.89 1138.1 1015.9 1132.32 1019.17 L 1132.2 1021.52 C 1136.58 1025.31 1161.78 1019.52 1170.5 1023.14 C 1169.38 1036.22 1138.27 1024.82 1131.49 1031.38 L 1132.16 1032.75 C 1143.16 1036.25 1165.86 1029.59 1171.81 1038.24 C 1163.82 1045.17 1137.91 1038.91 1132.35 1043.47 L 1132.87 1045.34 L 1131.95 1043.97 L 1132.75 1045.28 C 1142.77 1047.01 1158.55 1044.76 1169.11 1045.9 C 1169.49 1046.44 1169.87 1046.98 1170.25 1047.53 C 1168.97 1060.38 1139.24 1048.27 1132.55 1055.03 L 1133.38 1056.74 C 1143.76 1060.19 1165.66 1052.74 1170.16 1061 L 1169.67 1063.04 C 1160.67 1065.95 1143.59 1063.61 1133.46 1064.51 C 1132.53 1067.01 1132.43 1065.81 1133.38 1068.19 C 1142.82 1070.71 1163.99 1065.7 1169.71 1069.8 C 1170.75 1072.67 1170.81 1071.3 1169.56 1074.03 C 1160.71 1079.15 1142.42 1074.32 1133.42 1075.33 C 1133.06 1078.69 1132.65 1077.2 1134.75 1079.92 C 1143.59 1083.3 1160.72 1078.41 1169.23 1082.06 C 1170.41 1084.91 1170.15 1083.72 1169.79 1087 L 1169.82 1090.31 C 1170.47 1094.57 1170.94 1093.52 1169.44 1096.9 C 1159.74 1101.84 1138.86 1094.75 1133.03 1100.35 L 1133.48 1101.72 C 1142.64 1105.22 1159.17 1101.1 1168.39 1103.72 C 1168.84 1104.48 1169.28 1105.23 1169.73 1105.99 L 1169.06 1108.6 C 1163.14 1112.01 1134.87 1107.42 1129.05 1112.8 L 1129.68 1114.41 C 1139.21 1114.36 1160.2 1112.43 1168.05 1115.36 L 1169.04 1117.01 C 1168.17 1120.35 1169.06 1118.96 1165.91 1121.09 C 1165.73 1121.58 1165.23 1122.79 1165.19 1123.25 C 1167.31 1126.38 1166.68 1124.68 1166.96 1128.61 C 1162.95 1133.59 1155.45 1132.44 1149.39 1132.36 C 1154.58 1133.77 1157.67 1133.54 1163 1133.62 L 1163.64 1134.78 C 1163.07 1138.37 1163.2 1139.49 1160.78 1142.23 C 1156.36 1144.45 1151.49 1143.67 1146.23 1143.7 L 1143.9 1147.48 C 1148.8 1147.32 1152.22 1146.63 1156.4 1148.94 L 1157.69 1150.87 C 1149.56 1157.72 1111.71 1148.39 1104.42 1157.11 C 1109.97 1159.81 1144.02 1155.77 1152.23 1158.68 C 1151.58 1161.46 1151.33 1161.33 1149.3 1163.46 C 1141.63 1165.01 1109.62 1163.83 1099.57 1163.65 C 1096.11 1165.47 1092.37 1167.34 1088.99 1169.24 C 1095.25 1169.13 1144.73 1167.69 1146.41 1169.01 C 1144.76 1172.1 1144.86 1171.88 1142 1173.95 C 1123.47 1177.65 1097 1167.15 1076.32 1178.36 L 1075.37 1179.79 C 1077.46 1181.15 1077.34 1181.08 1079.77 1181.66 C 1072.9 1185.12 1074.34 1180.93 1069.27 1183.57 C 1065.49 1183.86 1061.74 1183.6 1059.04 1186.02 C 1058.09 1188.57 1058.13 1188.39 1058.3 1191.11 L 1058.91 1192.11 C 1055.02 1193.08 1050.87 1193.61 1048 1196.25 L 1047.87 1197.98 C 1051.6 1199.48 1053.5 1199.52 1057.54 1200.04 C 1042.55 1202.52 1017.43 1199.41 1000.15 1200.31 L 999.954 1198.06 L 1000.33 1196.35 C 993.854 1188.81 927.306 1197.75 924.967 1189.79 C 933.082 1187.86 979.328 1192.03 985.003 1186.95 L 984.052 1185.58 C 978.999 1183.54 975.255 1183.99 969.783 1183.97 C 954.633 1183.58 934.877 1184.62 919.535 1183.61 C 917.062 1183.44 916.261 1181.41 915.246 1179.6 L 911.934 1175.95 C 909.827 1174.46 907.19 1170.77 905.465 1168.59 C 917.156 1167.88 946.394 1169.01 958.245 1169.79 C 956.146 1167.6 953.038 1165.37 950.6 1163.49 C 942.18 1163.48 901.198 1166.36 899.302 1159.04 C 904.541 1156.11 935.401 1158.47 944.983 1157.91 L 945.307 1157.03 L 941.231 1153.14 C 928.615 1153.26 909.905 1154.4 897.157 1152.42 C 894.326 1151.97 893.546 1149.05 892.337 1146.54 L 891.582 1144.3 C 893.381 1140.45 894.953 1145.4 899.66 1142.09 C 896.04 1142.11 894.356 1142.32 890.841 1141.25 C 888.88 1138.76 889.181 1140.12 889.333 1137.24 C 897.162 1131.78 924.001 1140.29 929.872 1134.54 L 929.024 1132.37 C 920.057 1126.54 893.21 1136.47 885.113 1127.87 L 885.304 1126.02 C 892.727 1121.24 916.925 1126.56 924.534 1123.77 L 923.673 1121.42 C 920.283 1119.11 893.842 1121.13 887.636 1119.78 C 883.479 1118.87 885.699 1120.84 882.439 1116.96 L 882.926 1115.18 C 891.364 1110.49 916.144 1116.41 920.125 1112.66 L 919.975 1110.65 C 911.92 1104.83 879.07 1115.78 879.259 1103.29 C 885.479 1098.12 917.171 1108.65 917.299 1098.35 C 912.193 1095.09 890.248 1098.41 881.113 1097.44 C 877.972 1095.16 879.075 1096.6 877.667 1093 C 883.814 1086 910.514 1095.03 916.417 1087.39 L 915.919 1086.51 C 903.77 1085.12 891.001 1086.96 879.603 1085.63 C 878.215 1082.67 878.2 1084.1 878.94 1081.28 C 885.932 1076.18 908.064 1084.58 915.71 1077.52 L 915.7 1075.25 C 908.629 1073.83 885.035 1076.52 879.736 1074.81 C 878.244 1072 878.204 1073.27 878.875 1070.87 C 887.463 1065.21 913.922 1074.47 915.904 1065.19 C 915.601 1064.84 915.298 1064.49 914.995 1064.13 C 905.631 1064.57 889.722 1065.65 880.977 1064.53 C 878.325 1062.72 879.261 1063.88 877.999 1061 L 878.763 1059.69 C 882.258 1057.23 883.086 1057.54 887.595 1057.42 C 884.74 1056.9 883.753 1056.71 880.902 1055.8 C 885.233 1055.48 887.744 1055.57 891.708 1053.84 C 885.532 1053.73 882.103 1055.37 878.124 1049.77 L 878.585 1048.2 C 881.291 1045.76 882.222 1045.9 885.794 1045.35 C 882.534 1044.78 882.975 1045.16 880.158 1043.61 C 884.981 1043.54 888.075 1043.86 892.616 1041.96 C 888.576 1041.79 883.745 1041.78 879.851 1040.99 C 879.197 1038.1 879.223 1039.56 880.143 1036.46 C 887.517 1031.58 908.445 1037.48 915.267 1034.04 L 916.013 1028.84 L 916.874 1022.79 L 915.97 1019.87 C 909.615 1014.62 883.097 1023.62 879.628 1015.2 C 880.062 1014.36 880.496 1013.52 880.93 1012.68 C 888.388 1010.64 912.56 1014.04 918.241 1011.7 L 918.575 1010.32 C 911.569 1004.43 889.526 1011.36 880.884 1007.17 C 879.505 1006.5 879.317 1004.14 878.792 1002.27 C 879.991 998.516 879.997 998.631 879.989 994.706 C 887.441 993.276 912.433 993.184 919.228 995.074 C 922.559 994.614 922.664 994.376 925.914 995.57 z"/>
<path transform="translate(0,0)" fill="rgb(17,13,12)" d="M 911.934 1175.95 C 919.202 1174.7 957.38 1173.44 965.371 1176.29 C 965.875 1176.47 968.561 1179.03 969.217 1179.69 L 968.114 1182.81 L 969.783 1183.97 C 954.633 1183.58 934.877 1184.62 919.535 1183.61 C 917.062 1183.44 916.261 1181.41 915.246 1179.6 L 911.934 1175.95 z"/>
<path transform="translate(0,0)" fill="rgb(231,228,230)" d="M 969.217 1179.69 L 968.114 1182.81 L 969.783 1183.97 C 954.633 1183.58 934.877 1184.62 919.535 1183.61 C 917.062 1183.44 916.261 1181.41 915.246 1179.6 C 926.089 1180.36 959.901 1183.46 969.217 1179.69 z"/>
<path transform="translate(0,0)" fill="rgb(53,42,35)" d="M 1085.41 994.58 C 1091.91 994.48 1132.59 993.061 1134.46 994.933 C 1133.42 996.27 1132.46 997.53 1131.65 999.025 C 1134.47 999.637 1133.42 999.676 1136.2 999.171 L 1136.89 998.286 C 1138.32 996.475 1140.14 993.778 1142.34 993.695 C 1150.82 993.377 1160.6 994.197 1169 994.843 L 1170.12 995.92 C 1169.97 997.566 1169.56 999.837 1169.97 1001.29 C 1156.89 1000.92 1143.11 1001.56 1130.05 1000.82 C 1126.94 1000.64 1122.69 996.461 1119.5 996.449 C 1106.8 996.398 1098.02 997.58 1085.41 994.58 z"/>
<path transform="translate(0,0)" fill="rgb(17,13,12)" d="M 878.792 1002.27 C 879.991 998.516 879.997 998.631 879.989 994.706 C 887.441 993.276 912.433 993.184 919.228 995.074 C 922.559 994.614 922.664 994.376 925.914 995.57 C 925.024 996.922 922.664 1000.71 921.766 1001.76 C 914.417 1001.74 884.042 1001.17 878.792 1002.27 z"/>
<path transform="translate(0,0)" fill="rgb(227,171,118)" d="M 879.989 994.706 C 887.441 993.276 912.433 993.184 919.228 995.074 C 912.454 996.66 884.554 998.862 879.989 994.706 z"/>
<path transform="translate(0,0)" fill="rgb(17,13,12)" d="M 899.66 1142.09 C 904.978 1141.87 927.788 1140.22 933.645 1141.7 C 934.558 1141.93 935.161 1144.03 935.487 1145.1 C 932.594 1146.99 898.837 1146.28 892.337 1146.54 L 891.582 1144.3 C 893.381 1140.45 894.953 1145.4 899.66 1142.09 z"/>
<path transform="translate(0,0)" fill="rgb(17,13,12)" d="M 1165.19 1123.25 C 1157.24 1124.77 1132.2 1126.16 1124.65 1123.39 L 1125.02 1122.45 C 1139.57 1121.18 1151.22 1120.64 1165.91 1121.09 C 1165.73 1121.58 1165.23 1122.79 1165.19 1123.25 z"/>
<path transform="translate(0,0)" fill="rgb(17,13,12)" d="M 892.616 1041.96 C 898.12 1041.61 910.181 1040.12 914.678 1042.94 L 914.275 1044.44 C 907.864 1047.72 892.209 1047.02 885.794 1045.35 C 882.534 1044.78 882.975 1045.16 880.158 1043.61 C 884.981 1043.54 888.075 1043.86 892.616 1041.96 z"/>
<path transform="translate(0,0)" fill="rgb(17,13,12)" d="M 1169.82 1090.31 C 1164.69 1090.63 1137.66 1091.38 1133.82 1089.6 L 1133.87 1088.67 C 1140.71 1085.84 1161.5 1086.9 1169.79 1087 L 1169.82 1090.31 z"/>
<path transform="translate(0,0)" fill="rgb(17,13,12)" d="M 1115.5 1135.17 C 1127.7 1131.64 1136.82 1132.21 1149.39 1132.36 C 1154.58 1133.77 1157.67 1133.54 1163 1133.62 L 1163.64 1134.78 C 1156.19 1136.95 1123.91 1136.23 1115.5 1135.17 z"/>
<path transform="translate(0,0)" fill="rgb(17,13,12)" d="M 891.708 1053.84 C 898.629 1053.19 906.259 1052.25 912.998 1053.7 L 914.578 1055.04 C 911.262 1059.85 892.577 1058.42 887.595 1057.42 C 884.74 1056.9 883.753 1056.71 880.902 1055.8 C 885.233 1055.48 887.744 1055.57 891.708 1053.84 z"/>
<path transform="translate(0,0)" fill="rgb(17,13,12)" d="M 1143.9 1147.48 C 1134.63 1147.09 1121.24 1148.69 1112.82 1147.45 L 1113.6 1145.52 C 1116.99 1142.79 1115.48 1142.85 1118.76 1143.26 C 1127.97 1144.42 1136.4 1143.29 1146.23 1143.7 L 1143.9 1147.48 z"/>
<path transform="translate(0,0)" fill="rgb(255,255,255)" d="M 670.125 1223.09 L 671.659 1221.18 C 676.331 1218.83 697.155 1221.19 704.127 1220.75 L 707.645 1221.92 C 712.733 1221.1 729.866 1221.22 733.966 1223.7 L 735.063 1223.87 C 738.353 1220.85 747.414 1221.99 752.063 1222.16 C 759.469 1223.93 767.56 1220.25 772.845 1224.83 L 769.362 1227.32 C 773.454 1228.59 773.86 1228.53 776.71 1231.52 L 776.431 1234.34 L 776.563 1236.93 C 773.559 1238.62 765.321 1238.16 761.371 1238.27 C 765.748 1239.58 766.907 1239.08 769.176 1243.05 C 770.67 1243.14 774.904 1243.12 775.686 1243.83 C 755.432 1246 736.634 1246.26 716.306 1246.2 C 714.03 1246.19 711.844 1246.49 709.934 1247.78 C 711.103 1250.42 714.168 1251.28 716.95 1251.72 L 716.321 1254.51 L 717.83 1260.26 L 718.39 1263.52 C 718.925 1265.55 719.177 1267.02 720.081 1268.92 L 719.519 1272.97 C 720.344 1276.06 720.084 1275.84 721.556 1278.64 L 722.573 1280.37 L 720.837 1282.96 L 720.585 1285.76 C 724.651 1288.57 750.699 1286.98 757.538 1286.82 C 763.136 1285.97 772.813 1284 777.338 1286.71 C 778.617 1290.6 779.184 1300.52 778.399 1304.91 L 777.35 1306.27 C 774.91 1306.11 775.729 1306.65 774.381 1305.32 C 763.889 1305.07 729.146 1303.71 721.47 1307.04 L 720.832 1308.73 L 722.012 1310.37 C 737.642 1309.86 761.452 1311.08 775.926 1309.48 L 776.885 1310.4 C 776.789 1314.38 777.559 1313.25 775.787 1315.77 C 765.414 1317.29 726.57 1315.17 720.757 1317.76 L 720.09 1319.7 C 723.134 1322.95 740.282 1320.39 745.349 1319.99 C 748.431 1318.14 772.423 1318.83 777.338 1319.31 C 779.658 1323.1 778.87 1333.57 778.837 1338.64 C 772.754 1342.43 731.19 1338.36 719.244 1340.84 C 726.613 1346.15 770.84 1338.57 776.967 1345.82 L 777.006 1348.18 C 771.663 1352.18 723.306 1347.49 717.493 1350 L 717.534 1352.11 C 727.002 1356.82 770.435 1350.17 776.744 1355.45 L 777.936 1361.3 L 778.675 1362.82 C 776.354 1363.88 774.489 1363.55 773.22 1364.26 L 776.236 1365.25 C 777.983 1368.69 778.031 1367.11 777.169 1370.11 C 773.2 1371.31 717.368 1371.72 711.713 1371.08 L 710.115 1369.83 C 708.148 1373.06 707.091 1373.44 707.359 1376.44 C 717.006 1376.57 773.465 1373.86 777.108 1376.24 L 777.174 1378.44 C 768.311 1387.3 707.006 1377.31 698.496 1384.34 C 698.572 1385.21 698.61 1386.45 698.837 1387.24 L 698.346 1390.44 C 690.491 1390.36 687.121 1389.26 681.496 1394.48 C 679.776 1396.1 678.459 1397.13 677.075 1399.04 C 663.982 1401.42 618.074 1399.3 602.99 1399.09 C 567.771 1398.61 528.101 1400.61 493.32 1399.37 C 489.303 1396.02 484.36 1392.14 484.353 1386.49 C 484.313 1354.32 484.142 1322.23 483.388 1290.06 C 483.05 1275.63 482.953 1258.54 485.152 1244.42 L 490.121 1235.06 C 495.028 1234.98 499.218 1234.58 504.072 1234.13 C 500.675 1233.52 498.531 1234.18 495.171 1233.31 L 496.157 1231.14 L 495.814 1229.52 C 497.818 1227.36 497.743 1227.57 500.656 1226.87 C 525.278 1226.87 569.958 1228.04 596.429 1228.13 C 597.433 1228.81 598.436 1229.49 599.439 1230.18 C 604.819 1226.7 614.686 1232.33 621.594 1229.15 C 623.459 1225.64 622.903 1226.83 622.649 1222.32 L 625.159 1222.32 C 631.513 1220.13 660.731 1220.33 667.733 1221.49 L 669.372 1222.91 L 670.125 1223.09 z"/>
<path transform="translate(0,0)" fill="rgb(17,13,12)" d="M 670.125 1223.09 L 671.659 1221.18 C 676.331 1218.83 697.155 1221.19 704.127 1220.75 L 707.645 1221.92 C 712.733 1221.1 729.866 1221.22 733.966 1223.7 L 735.063 1223.87 C 738.353 1220.85 747.414 1221.99 752.063 1222.16 C 759.469 1223.93 767.56 1220.25 772.845 1224.83 L 769.362 1227.32 C 773.454 1228.59 773.86 1228.53 776.71 1231.52 L 776.431 1234.34 L 776.563 1236.93 C 773.559 1238.62 765.321 1238.16 761.371 1238.27 C 765.748 1239.58 766.907 1239.08 769.176 1243.05 C 768.877 1243.11 767.143 1243.52 766.351 1243.43 C 745.426 1241.05 723.484 1243.18 702.873 1240.17 C 702.007 1239.3 701.141 1238.43 700.275 1237.56 L 700.327 1234.75 C 635.369 1233.99 568.88 1235.33 504.072 1234.13 C 500.675 1233.52 498.531 1234.18 495.171 1233.31 L 496.157 1231.14 L 495.814 1229.52 C 497.818 1227.36 497.743 1227.57 500.656 1226.87 C 525.278 1226.87 569.958 1228.04 596.429 1228.13 C 597.433 1228.81 598.436 1229.49 599.439 1230.18 C 604.819 1226.7 614.686 1232.33 621.594 1229.15 C 623.459 1225.64 622.903 1226.83 622.649 1222.32 L 625.159 1222.32 C 631.513 1220.13 660.731 1220.33 667.733 1221.49 L 669.372 1222.91 L 670.125 1223.09 z"/>
<path transform="translate(0,0)" fill="rgb(231,228,230)" d="M 500.656 1226.87 C 525.278 1226.87 569.958 1228.04 596.429 1228.13 C 597.433 1228.81 598.436 1229.49 599.439 1230.18 C 590.122 1231.37 574.852 1230.6 565 1230.64 L 496.157 1231.14 L 495.814 1229.52 C 497.818 1227.36 497.743 1227.57 500.656 1226.87 z"/>
<path transform="translate(0,0)" fill="rgb(231,228,230)" d="M 700.327 1234.75 C 709.597 1234.64 748.932 1233.62 754.909 1235.31 L 756.01 1236.54 L 755.428 1238 C 737.418 1240.64 715.308 1236.2 700.275 1237.56 L 700.327 1234.75 z"/>
<path transform="translate(0,0)" fill="rgb(231,228,230)" d="M 625.159 1222.32 C 631.513 1220.13 660.731 1220.33 667.733 1221.49 L 669.372 1222.91 C 664.01 1224.19 628.828 1224.77 625.159 1222.32 z"/>
<path transform="translate(0,0)" fill="rgb(231,228,230)" d="M 670.125 1223.09 L 671.659 1221.18 C 676.331 1218.83 697.155 1221.19 704.127 1220.75 C 696.92 1224.09 677.452 1225.8 670.125 1223.09 z"/>
<path transform="translate(0,0)" fill="rgb(202,200,194)" d="M 776.431 1234.34 L 776.563 1236.93 C 773.559 1238.62 765.321 1238.16 761.371 1238.27 C 758.088 1236.77 758.993 1237.94 757.596 1235.38 C 760.668 1234.04 772.315 1234.42 776.431 1234.34 z"/>
<path transform="translate(0,0)" fill="rgb(186,183,182)" d="M 707.645 1221.92 C 712.733 1221.1 729.866 1221.22 733.966 1223.7 C 726.01 1224.06 714.251 1225.53 707.645 1221.92 z"/>
<path transform="translate(0,0)" fill="rgb(140,137,135)" d="M 769.362 1227.32 C 773.454 1228.59 773.86 1228.53 776.71 1231.52 C 770.906 1231.51 765.056 1231.39 759.331 1230.43 L 759.254 1229.52 C 762.614 1228.74 765.984 1228.01 769.362 1227.32 z"/>
<path transform="translate(0,0)" fill="rgb(101,98,98)" d="M 752.063 1222.16 C 759.469 1223.93 767.56 1220.25 772.845 1224.83 C 768.867 1225.26 757.288 1224.05 752.163 1223.84 L 752.063 1222.16 z"/>
<path transform="translate(0,0)" fill="rgb(202,200,194)" d="M 735.063 1223.87 C 738.353 1220.85 747.414 1221.99 752.063 1222.16 L 752.163 1223.84 C 746.339 1224.26 740.888 1224.01 735.063 1223.87 z"/>
<path transform="translate(0,0)" fill="rgb(140,137,135)" d="M 692.178 1229.08 C 699.971 1228.81 751.051 1226.92 755.094 1229.58 C 750.419 1230.93 700.955 1230.91 692 1231.14 L 692.178 1229.08 z"/>
<path transform="translate(0,0)" fill="rgb(231,228,230)" d="M 692 1231.14 C 685.911 1231.21 681.449 1231.37 675.397 1230.56 L 674.164 1229.32 L 673.444 1230.18 L 672.595 1229.37 L 671.895 1229.71 L 672.941 1228.99 L 674.025 1229.79 L 674.871 1228.71 C 680.025 1227.98 686.84 1228.74 692.178 1229.08 L 692 1231.14 z"/>
<path transform="translate(0,0)" fill="rgb(202,200,194)" d="M 627.108 1228.38 C 631.397 1227.55 639.977 1227.67 644.313 1228.49 L 644.52 1229.87 C 638.258 1230.54 632.478 1231.75 627.108 1228.38 z"/>
<path transform="translate(0,0)" fill="rgb(186,183,182)" d="M 654.525 1228.51 C 657.335 1227.72 664.728 1227.96 667.155 1229.52 L 666.118 1230.44 C 661.482 1231.09 659.984 1230.68 655.236 1230.07 L 654.525 1228.51 z"/>
<path transform="translate(0,0)" fill="rgb(255,255,255)" d="M 710.115 1369.83 C 710.492 1368.02 711.311 1366.47 712.062 1364.75 C 723.826 1365.49 761.983 1365.98 773.22 1364.26 L 776.236 1365.25 C 777.983 1368.69 778.031 1367.11 777.169 1370.11 C 773.2 1371.31 717.368 1371.72 711.713 1371.08 L 710.115 1369.83 z"/>
<path transform="translate(0,0)" fill="rgb(17,13,12)" d="M 745.349 1319.99 C 748.431 1318.14 772.423 1318.83 777.338 1319.31 C 779.658 1323.1 778.87 1333.57 778.837 1338.64 C 772.754 1342.43 731.19 1338.36 719.244 1340.84 C 719.725 1340.25 720.205 1339.67 720.686 1339.08 C 734.605 1337.55 763.699 1339.9 776.033 1338.57 L 776.998 1337.36 C 776.793 1332.83 777.714 1334.34 775.473 1331.73 C 760.322 1331.59 734.776 1333.18 720.662 1332.1 L 719.766 1330.8 C 720.027 1330.13 720.287 1329.46 720.548 1328.79 C 729.26 1327.03 771.11 1329.9 776.804 1327.18 C 777.207 1323.62 777.518 1325.21 776.247 1322.18 C 771.017 1318.73 753.169 1320.16 745.349 1319.99 z"/>
<path transform="translate(0,0)" fill="rgb(17,13,12)" d="M 757.538 1286.82 C 763.136 1285.97 772.813 1284 777.338 1286.71 C 778.617 1290.6 779.184 1300.52 778.399 1304.91 L 777.35 1306.27 C 774.91 1306.11 775.729 1306.65 774.381 1305.32 C 777.332 1303.43 776.509 1304.71 777.737 1301.95 L 776.532 1299.51 C 769.256 1296.54 731.616 1297.82 722.043 1298.45 L 720.989 1297.48 L 721.105 1295.05 C 725.744 1291.58 768.838 1297.23 776.736 1293.11 C 777.011 1289.61 777.452 1291.12 775.653 1288.37 C 771.241 1286.34 763.101 1286.98 757.538 1286.82 z"/>
<path transform="translate(0,0)" fill="rgb(17,13,12)" d="M 712.062 1364.75 C 712.521 1363.97 714.756 1360.34 715.768 1360.36 C 736.469 1360.84 757.248 1360.56 777.936 1361.3 L 778.675 1362.82 C 776.354 1363.88 774.489 1363.55 773.22 1364.26 C 761.983 1365.98 723.826 1365.49 712.062 1364.75 z"/>
<path transform="translate(0,0)" fill="rgb(255,255,255)" d="M 386.581 969.142 C 388.783 968.952 390.986 968.776 393.19 968.616 C 429.068 966.013 480.985 967.991 518.065 967.962 L 571.439 967.951 C 580.139 967.966 589.549 967.817 598.256 968.313 C 601.507 968.498 601.451 969.154 603.813 971.202 L 605.942 969.079 C 614.952 967.276 667.311 967.311 679.776 969.067 C 680.708 969.198 680.71 970.657 680.967 971.861 L 680.68 974.807 C 681.073 978.468 681.696 978.202 680.094 980.553 C 670.56 982.057 617.349 980.649 615.419 981.897 C 616.621 991.259 675.938 978.836 681.199 988.719 L 680.541 990.582 C 671.78 992.076 629.729 992.179 620.961 990.422 L 620.2 991.531 C 627.352 999.206 675.773 992.249 681.073 996.514 L 681.085 999.967 C 674.165 1004.92 632.467 998.353 625.523 1004.16 L 625.561 1005.88 C 628.946 1007.71 671.243 1003.65 680.666 1007.12 C 681.102 1010.56 681.524 1009.08 679.557 1011.75 C 667.532 1017.25 632.142 1010.24 626.19 1015.64 L 626.752 1016.81 C 638.643 1019.75 677.448 1015.62 681.621 1018.4 C 681.778 1021.79 681.851 1020.16 679.921 1023.71 L 676.777 1024.73 C 678.075 1025.27 680.364 1026.08 681.424 1026.82 C 681.428 1031.69 682.251 1029.75 679.53 1033.1 C 675.436 1034.76 674.978 1034.68 670.473 1034.99 C 672.93 1037.28 671.447 1036.38 675.617 1036.76 L 675.156 1037.47 C 670.963 1037.48 663.534 1036.91 660.258 1038.52 C 667.838 1038.46 675.678 1037.76 682.437 1041.44 L 682.346 1043.61 C 677.416 1046.13 673.793 1045.89 668.333 1046.14 C 673.274 1047.69 674.867 1047.71 679.99 1047.63 C 676.328 1048.39 674.876 1048.63 671.161 1048.95 L 670.323 1049.82 C 675.698 1049.83 679.042 1048.81 682.158 1053.62 C 677.616 1060.16 631.844 1054.73 627.097 1057.65 L 627.026 1060.03 L 628.991 1061.09 C 643.127 1060.14 663.668 1061.49 678.366 1060.99 C 680.825 1060.9 680.958 1061.81 682.019 1063.29 C 681.653 1064.95 681.716 1066.63 679.98 1066.98 C 670.243 1068.95 633.842 1065.02 627.588 1069.25 L 627.795 1070.63 C 635.25 1073.83 674.25 1070.58 681.346 1072.56 L 681.697 1074.57 C 674.786 1084.68 633.513 1074.68 626.428 1079.3 L 626.185 1081.61 C 631.655 1087.81 672.357 1078.56 681.086 1084.26 L 680.651 1086.27 C 672.568 1091.46 631.174 1085.06 623.012 1089.92 L 622.933 1091.68 C 628.138 1093.96 669.653 1092.15 677.642 1092.85 C 679.944 1093.05 681.256 1095.19 682.297 1096.81 L 681.795 1098.53 C 671.649 1104.06 619.838 1094.73 615.528 1103.28 C 618.767 1105.76 669.513 1103.9 679.22 1104.54 C 681.446 1106.63 680.619 1105.32 680.837 1109.14 C 671.955 1114.61 611.746 1106.67 604.856 1114.02 C 607.934 1117.59 678.943 1112.2 681.876 1117.34 C 677.858 1124.6 602.038 1117.05 595.242 1122.17 C 595.511 1122.73 595.78 1123.28 596.05 1123.84 C 609.949 1127.53 670.048 1121.83 679.299 1125.37 L 679.131 1126.96 C 674.109 1130.67 670.903 1129.82 664.929 1129.76 C 642.421 1131.05 612.026 1126.24 590.144 1129.8 C 545.004 1137.14 500.696 1133.18 455.109 1134.13 C 436.006 1134.53 415.617 1134.64 396.586 1133.54 C 387.865 1132.3 385.596 1124.08 385.933 1116.88 C 388.154 1069.44 381.156 1015.82 386.581 969.142 z"/>
<path transform="translate(0,0)" fill="rgb(17,13,12)" d="M 605.942 969.079 C 614.952 967.276 667.311 967.311 679.776 969.067 C 680.708 969.198 680.71 970.657 680.967 971.861 L 680.68 974.807 C 676.722 975.257 672.751 975.587 668.772 975.798 C 651.791 976.658 633.64 976.145 616.582 975.812 C 611.282 975.709 607.721 974.74 603.813 971.202 L 605.942 969.079 z"/>
<path transform="translate(0,0)" fill="rgb(231,228,230)" d="M 605.942 969.079 C 614.952 967.276 667.311 967.311 679.776 969.067 C 680.708 969.198 680.71 970.657 680.967 971.861 C 666.701 971.917 614.846 973.504 605.942 969.079 z"/>
<path transform="translate(0,0)" fill="rgb(17,13,12)" d="M 670.323 1049.82 C 663.915 1050.11 630.64 1051.13 627.388 1048.64 L 627.142 1046.72 L 628.628 1045.33 C 634.225 1046.25 660.473 1045.91 668.333 1046.14 C 673.274 1047.69 674.867 1047.71 679.99 1047.63 C 676.328 1048.39 674.876 1048.63 671.161 1048.95 L 670.323 1049.82 z"/>
<path transform="translate(0,0)" fill="rgb(17,13,12)" d="M 681.424 1026.82 C 675.921 1028.31 633.005 1027.86 627.282 1025.08 C 635.66 1023.78 668.51 1023.05 676.777 1024.73 C 678.075 1025.27 680.364 1026.08 681.424 1026.82 z"/>
<path transform="translate(0,0)" fill="rgb(17,13,12)" d="M 660.258 1038.52 C 657.901 1038.92 630.43 1039.54 627.867 1039.18 L 627.066 1037.14 L 628.079 1035.26 C 636.378 1034.16 660.935 1034.84 670.473 1034.99 C 672.93 1037.28 671.447 1036.38 675.617 1036.76 L 675.156 1037.47 C 670.963 1037.48 663.534 1036.91 660.258 1038.52 z"/>
<path transform="translate(0,0)" fill="rgb(255,255,255)" d="M 1488.57 962.417 L 1495.06 960.503 C 1499.43 965.235 1514.3 963.736 1521.16 963.932 C 1524.54 961.577 1534.9 962.349 1539.38 962.705 L 1540.68 963.766 L 1554.16 964.076 C 1557.15 963.515 1593.47 963.588 1597.03 964.056 C 1606.75 964.46 1657.36 963.8 1661.63 966.785 L 1661.19 968.671 C 1655.66 969.608 1648.49 968.279 1645.3 969.699 C 1649.3 969.69 1659.18 969.007 1661.77 971.287 L 1661.46 972.876 C 1658.01 975.167 1597.48 971.795 1587.84 973.5 C 1599.26 983.038 1644.1 974.264 1661.63 978.991 L 1661.44 980.533 C 1647.83 986.182 1600.44 979.631 1597.75 983.032 C 1598.71 983.966 1599.68 984.899 1600.64 985.833 C 1609.88 988.368 1657.45 984.228 1662.51 989.278 C 1656.86 996.305 1610.71 988.005 1604.03 993.452 L 1604.4 995.108 C 1615.31 999.072 1655.82 992.003 1662.37 998.504 L 1662.12 1000.32 C 1652.79 1003.8 1613.9 999.156 1605.57 1003.16 L 1605.87 1004.81 C 1615.46 1009.25 1658.74 1002.53 1662.64 1006.52 C 1662.73 1010.17 1663.41 1008.83 1661.35 1011.04 C 1650.93 1011.5 1614.18 1011.13 1607.36 1012.63 L 1606.47 1014.03 L 1607.17 1015.43 C 1619.53 1017.68 1656.54 1014.21 1662.19 1016.33 L 1662.96 1018.03 C 1654.71 1027.24 1614.62 1016.8 1605.31 1024.47 C 1611.06 1026.97 1660.43 1022.57 1663.22 1028.54 C 1658.08 1032.09 1656.12 1031.5 1649.55 1031.88 C 1654.02 1032.14 1656.25 1032.2 1660.57 1033.14 C 1653.97 1033.73 1649.83 1034.01 1643.4 1035.61 C 1648.78 1035.51 1656.65 1034.65 1661.28 1036.11 C 1663.54 1038.71 1663.2 1039.53 1662.09 1043.14 L 1662.33 1045.98 C 1662.83 1050.4 1663.48 1049.63 1661.52 1052.31 C 1647.77 1054.55 1617.2 1051.41 1607.16 1053.46 L 1606.2 1054.94 L 1606.74 1056.68 C 1617.12 1058.71 1659.51 1054.13 1662.98 1058.8 C 1660.14 1069.62 1612.79 1059.11 1606.39 1065.71 L 1606.99 1067.24 C 1619.22 1071.48 1654.21 1061.81 1662.54 1070.72 L 1662.8 1073.43 C 1656.73 1077.95 1608.57 1070.91 1606.7 1078.27 C 1614.01 1081.29 1655.59 1077.08 1661.57 1080.08 L 1662.13 1081.98 C 1660.85 1083.68 1661.26 1083.91 1658.72 1083.99 C 1648.27 1084.33 1638.46 1083.93 1627.98 1084.85 L 1629.04 1084.96 C 1633.72 1085.44 1644.4 1085.09 1647.25 1086.27 C 1644.79 1088.45 1644.08 1087.98 1640.38 1088.79 C 1644.9 1088.81 1658.39 1088.44 1661.8 1089.79 L 1661.99 1092.18 C 1655.99 1099.03 1608.32 1091.06 1599.69 1097.03 L 1600.26 1098.46 C 1614.23 1100.96 1647.8 1097.13 1661.27 1099.44 L 1662.27 1101.1 L 1661.34 1103.84 L 1659.24 1104.72 L 1660.55 1106.02 L 1657.85 1107.26 L 1661.64 1108.62 L 1662.18 1111.32 C 1658.48 1116.18 1637.94 1113.83 1631.22 1113.95 C 1619.27 1114.17 1594.48 1112.16 1584.8 1116.06 C 1587.17 1120.6 1656.68 1116.99 1661.63 1120.26 C 1658.79 1129.32 1575.03 1116.78 1573.69 1126.55 C 1585.04 1130.7 1644.31 1125.85 1663.58 1128.58 L 1665.15 1128.81 C 1638.93 1135.35 1609.99 1130.47 1583.11 1131.12 C 1568.21 1131.49 1553.64 1134.49 1538.75 1135.11 C 1520.1 1135.88 1382.54 1136.41 1377.57 1133.58 C 1374.47 1131.81 1372.66 1129.67 1371.81 1126.19 C 1368.67 1113.18 1370.94 1081.12 1370.92 1066.28 C 1370.89 1039.07 1369.26 1010.89 1371.14 983.802 C 1371.44 979.497 1371.9 975.733 1374.16 972.011 C 1380.85 968.679 1447.81 969.905 1461.31 969.76 C 1464.14 966.793 1475.13 969.953 1478.99 967.852 L 1475.47 966.653 L 1480.28 964.758 L 1481.07 965.276 C 1485.05 964.371 1485 964.388 1488.57 962.417 z"/>
<path transform="translate(0,0)" fill="rgb(17,13,12)" d="M 1488.57 962.417 L 1495.06 960.503 C 1499.43 965.235 1514.3 963.736 1521.16 963.932 C 1524.54 961.577 1534.9 962.349 1539.38 962.705 L 1540.68 963.766 L 1554.16 964.076 C 1557.15 963.515 1593.47 963.588 1597.03 964.056 C 1606.75 964.46 1657.36 963.8 1661.63 966.785 L 1661.19 968.671 C 1655.66 969.608 1648.49 968.279 1645.3 969.699 C 1649.3 969.69 1659.18 969.007 1661.77 971.287 L 1661.46 972.876 C 1658.01 975.167 1597.48 971.795 1587.84 973.5 C 1587.81 972.156 1587.97 972.875 1587.08 971.421 C 1584.18 971.49 1582.73 971.836 1580.27 970.335 C 1539.56 967.917 1502.25 970.685 1461.31 969.76 C 1464.14 966.793 1475.13 969.953 1478.99 967.852 L 1475.47 966.653 L 1480.28 964.758 L 1481.07 965.276 C 1485.05 964.371 1485 964.388 1488.57 962.417 z"/>
<path transform="translate(0,0)" fill="rgb(231,228,230)" d="M 1645.3 969.699 C 1649.3 969.69 1659.18 969.007 1661.77 971.287 L 1661.46 972.876 C 1658.01 975.167 1597.48 971.795 1587.84 973.5 C 1587.81 972.156 1587.97 972.875 1587.08 971.421 C 1584.18 971.49 1582.73 971.836 1580.27 970.335 C 1601.55 969.981 1624.45 970.721 1645.3 969.699 z"/>
<path transform="translate(0,0)" fill="rgb(163,157,155)" d="M 1597.03 964.056 C 1606.75 964.46 1657.36 963.8 1661.63 966.785 C 1651.02 967.908 1599.49 967.484 1590.33 965.638 L 1590.46 964.848 L 1597.03 964.056 z"/>
<path transform="translate(0,0)" fill="rgb(101,98,98)" d="M 1488.57 962.417 L 1495.06 960.503 C 1499.43 965.235 1514.3 963.736 1521.16 963.932 C 1516.85 967.524 1493.04 965.375 1488.57 962.417 z"/>
<path transform="translate(0,0)" fill="rgb(186,183,182)" d="M 1540.68 963.766 L 1554.16 964.076 C 1548.32 967.614 1531.67 966.151 1525.09 964.888 C 1526.29 963.746 1538.14 963.835 1540.68 963.766 z"/>
<path transform="translate(0,0)" fill="rgb(17,13,12)" d="M 1631.79 1109.1 C 1624.29 1108.42 1598.47 1109.45 1593.98 1107.65 L 1593.88 1106.34 C 1599.54 1103.16 1649.77 1104.2 1659.24 1104.72 L 1660.55 1106.02 L 1657.85 1107.26 L 1661.64 1108.62 L 1662.18 1111.32 C 1658.48 1116.18 1637.94 1113.83 1631.22 1113.95 L 1631.79 1109.1 z"/>
<path transform="translate(0,0)" fill="rgb(231,228,230)" d="M 1657.85 1107.26 L 1661.64 1108.62 L 1662.18 1111.32 C 1658.48 1116.18 1637.94 1113.83 1631.22 1113.95 L 1631.79 1109.1 C 1639.88 1107.21 1648.57 1108.82 1657.85 1107.26 z"/>
<path transform="translate(0,0)" fill="rgb(17,13,12)" d="M 1662.33 1045.98 C 1652.01 1047.04 1616.46 1047.5 1606.36 1046.35 L 1605.9 1045.43 C 1611.61 1041.27 1619.64 1042.92 1626.48 1042.92 C 1638.28 1042.93 1650.33 1042.4 1662.09 1043.14 L 1662.33 1045.98 z"/>
<path transform="translate(0,0)" fill="rgb(17,13,12)" d="M 1640.38 1088.79 C 1633.88 1088.94 1608.1 1090.41 1603.55 1087.32 L 1604.27 1085.67 C 1608.36 1083.04 1622.04 1084.61 1627.98 1084.85 L 1629.04 1084.96 C 1633.72 1085.44 1644.4 1085.09 1647.25 1086.27 C 1644.79 1088.45 1644.08 1087.98 1640.38 1088.79 z"/>
<path transform="translate(0,0)" fill="rgb(17,13,12)" d="M 1643.4 1035.61 C 1637.28 1035.73 1609.51 1037.09 1605.8 1034.53 C 1610.04 1031.86 1642.94 1031.65 1649.55 1031.88 C 1654.02 1032.14 1656.25 1032.2 1660.57 1033.14 C 1653.97 1033.73 1649.83 1034.01 1643.4 1035.61 z"/>
<path transform="translate(0,0)" fill="rgb(255,255,255)" d="M 1286.46 1226.24 C 1310.53 1229.43 1352.65 1224.64 1374.52 1228.01 C 1378.91 1228.62 1391.89 1228.68 1393.06 1229.12 L 1394.84 1230.45 C 1400.13 1227.18 1423.82 1226.29 1428.55 1230.02 L 1429.17 1229.73 C 1432.8 1227.42 1431.89 1228.16 1436.8 1227.93 C 1445.51 1229.03 1466.39 1226.15 1470.76 1229.69 L 1471.43 1229.91 C 1480.83 1225.15 1539.6 1232.03 1556.05 1226.82 L 1558.38 1227.7 C 1558.35 1229.6 1558.63 1228.94 1558.15 1229.84 L 1559.84 1231.08 L 1555.13 1232.26 L 1554.75 1233.27 C 1557 1235.23 1557.29 1234.77 1558.01 1236.95 L 1558.62 1238.82 C 1554.9 1241.46 1513.55 1240.35 1507.53 1239.09 C 1503.39 1239.01 1496.6 1238.34 1493.16 1239.97 C 1495.54 1249.19 1554.28 1241.28 1559.01 1245.74 L 1558.83 1249.2 C 1554.48 1252.03 1505.28 1247.52 1500.03 1251.36 L 1500.19 1252.97 C 1510.97 1257.47 1552.82 1251.15 1559.21 1255.46 L 1560 1257.47 C 1558.72 1259.44 1559.04 1259.79 1556.59 1260.11 C 1546.85 1261.35 1511.45 1258.02 1504.43 1261.07 L 1504.5 1263.05 C 1511.77 1267.64 1554.05 1261.8 1559.69 1265.51 C 1559.9 1269.32 1560.51 1267.81 1558.88 1270.61 C 1550.83 1272.05 1544.96 1270.84 1537.28 1271.32 C 1540.72 1273.61 1553.39 1271.93 1558.56 1273.02 C 1554.07 1273.4 1529.69 1274.68 1528.26 1275.55 C 1535.44 1275.47 1553.25 1274.57 1558.92 1277.59 C 1555.62 1282.05 1532.71 1281.34 1526.27 1281.34 C 1530.3 1283.8 1550.42 1281.42 1558.17 1283.23 C 1551.99 1285.75 1547.28 1281.18 1544.19 1285.16 C 1548.82 1285.88 1556.16 1285.09 1559.53 1286.02 L 1560.32 1288.26 C 1554.53 1297.66 1515.4 1289.53 1506.18 1293.56 L 1506.09 1296.46 C 1511.81 1299.79 1553.48 1292.28 1560.91 1300.01 C 1560.64 1300.68 1560.05 1302.7 1559.53 1302.87 C 1549.32 1306.25 1511.04 1299.16 1505.49 1305.98 L 1505.47 1307.51 C 1513.61 1309.36 1552.59 1304.93 1559.88 1308.97 L 1560.21 1311.57 C 1555.73 1317.06 1509.54 1311.53 1504.23 1315.5 L 1505.52 1314.58 L 1504.93 1316.28 C 1516.99 1322.34 1552.53 1314.64 1559.78 1319.52 L 1559.9 1322.17 C 1551.62 1329.75 1510.79 1320.07 1505.01 1327.31 L 1505.52 1328.56 C 1516.71 1329.1 1552.33 1327.04 1559.55 1331.41 L 1560.29 1333.11 C 1553.06 1339.04 1512.23 1333.61 1504.96 1338.61 L 1505.55 1340.56 C 1517.2 1342.77 1550.28 1336.36 1559.32 1342.47 L 1560.15 1344.63 C 1555.93 1350.45 1513.82 1344.08 1504.16 1348.52 L 1504.29 1350.14 C 1514.17 1355.29 1556.67 1346.53 1560.17 1354.13 C 1555.53 1363.51 1511.56 1353.43 1501.3 1359.56 L 1501.01 1361.46 C 1509.16 1366.73 1552.48 1356.22 1560.16 1365.16 L 1559.84 1367.58 C 1550.25 1371.36 1504.45 1363.16 1493.01 1372.34 L 1493.03 1374.04 L 1492.44 1373.01 L 1492.83 1372.54 L 1494.04 1374.22 C 1503.89 1373.5 1553.37 1370.87 1559.41 1374.65 L 1560.12 1376.41 C 1551.79 1383.9 1487.65 1372.25 1485.12 1382.34 L 1486.13 1383.56 C 1500.11 1384.25 1549.31 1380.94 1558.48 1384.72 L 1559.39 1386.55 C 1553.53 1394.19 1486.33 1383.73 1470.55 1389.89 L 1468.66 1392.49 L 1468.24 1395.12 C 1463.06 1394.65 1458.54 1398.93 1449.44 1398.94 C 1417.37 1398.53 1385.05 1398.87 1353 1398.25 C 1343.14 1398.06 1276.5 1402.59 1275.78 1391.4 C 1273.11 1350.1 1274.11 1307.64 1273.2 1266.07 C 1273 1256.88 1275.49 1237.92 1284.35 1233.66 C 1289.69 1230.1 1305.98 1233.72 1315.57 1231.53 C 1309.26 1231.47 1288.17 1232.42 1284.9 1229.4 L 1286.46 1226.24 z"/>
<path transform="translate(0,0)" fill="rgb(17,13,12)" d="M 1286.46 1226.24 C 1310.53 1229.43 1352.65 1224.64 1374.52 1228.01 C 1378.91 1228.62 1391.89 1228.68 1393.06 1229.12 L 1394.84 1230.45 C 1400.13 1227.18 1423.82 1226.29 1428.55 1230.02 L 1429.17 1229.73 C 1432.8 1227.42 1431.89 1228.16 1436.8 1227.93 C 1445.51 1229.03 1466.39 1226.15 1470.76 1229.69 L 1471.43 1229.91 C 1480.83 1225.15 1539.6 1232.03 1556.05 1226.82 L 1558.38 1227.7 C 1558.35 1229.6 1558.63 1228.94 1558.15 1229.84 L 1559.84 1231.08 L 1555.13 1232.26 L 1554.75 1233.27 C 1557 1235.23 1557.29 1234.77 1558.01 1236.95 L 1558.62 1238.82 C 1554.9 1241.46 1513.55 1240.35 1507.53 1239.09 C 1513.7 1238.14 1517.29 1239.24 1523.26 1238.67 L 1523.81 1237.06 C 1519.67 1236.12 1513.33 1236.4 1508.92 1236.26 C 1445.57 1234.28 1382.05 1234.75 1318.66 1234.17 C 1307.9 1234.07 1294.89 1234.98 1284.35 1233.66 C 1289.69 1230.1 1305.98 1233.72 1315.57 1231.53 C 1309.26 1231.47 1288.17 1232.42 1284.9 1229.4 L 1286.46 1226.24 z"/>
<path transform="translate(0,0)" fill="rgb(231,228,230)" d="M 1286.46 1226.24 C 1310.53 1229.43 1352.65 1224.64 1374.52 1228.01 L 1375 1230.23 C 1356.29 1229.74 1335.13 1231.93 1315.57 1231.53 C 1309.26 1231.47 1288.17 1232.42 1284.9 1229.4 L 1286.46 1226.24 z"/>
<path transform="translate(0,0)" fill="rgb(186,183,182)" d="M 1471.43 1229.91 C 1480.83 1225.15 1539.6 1232.03 1556.05 1226.82 L 1558.38 1227.7 C 1558.35 1229.6 1558.63 1228.94 1558.15 1229.84 C 1537.58 1230.86 1490.3 1233.81 1471.43 1229.91 z"/>
<path transform="translate(0,0)" fill="rgb(231,228,230)" d="M 1523.81 1237.06 C 1530.81 1234.99 1549.45 1236.7 1558.01 1236.95 L 1558.62 1238.82 C 1554.9 1241.46 1513.55 1240.35 1507.53 1239.09 C 1513.7 1238.14 1517.29 1239.24 1523.26 1238.67 L 1523.81 1237.06 z"/>
<path transform="translate(0,0)" fill="rgb(231,228,230)" d="M 1429.17 1229.73 C 1432.8 1227.42 1431.89 1228.16 1436.8 1227.93 C 1445.51 1229.03 1466.39 1226.15 1470.76 1229.69 C 1453.9 1231.42 1446.01 1231.91 1429.17 1229.73 z"/>
<path transform="translate(0,0)" fill="rgb(202,200,194)" d="M 1394.84 1230.45 C 1400.13 1227.18 1423.82 1226.29 1428.55 1230.02 C 1417.1 1230.64 1406.29 1230.46 1394.84 1230.45 z"/>
<path transform="translate(0,0)" fill="rgb(163,157,155)" d="M 1374.52 1228.01 C 1378.91 1228.62 1391.89 1228.68 1393.06 1229.12 C 1388.53 1232.52 1380.97 1230.84 1375 1230.23 L 1374.52 1228.01 z"/>
<path transform="translate(0,0)" fill="rgb(17,13,12)" d="M 1528.26 1275.55 C 1521.37 1275.67 1514.89 1275.8 1508 1275.56 C 1505.4 1273.73 1506.05 1274.94 1505.42 1272.2 C 1510.02 1269.3 1530.69 1271.07 1537.28 1271.32 C 1540.72 1273.61 1553.39 1271.93 1558.56 1273.02 C 1554.07 1273.4 1529.69 1274.68 1528.26 1275.55 z"/>
<path transform="translate(0,0)" fill="rgb(17,13,12)" d="M 1544.19 1285.16 C 1535.46 1285.09 1512.79 1287.11 1506.38 1285.08 L 1506.14 1282.88 C 1510.23 1279.54 1520.45 1281.09 1526.27 1281.34 C 1530.3 1283.8 1550.42 1281.42 1558.17 1283.23 C 1551.99 1285.75 1547.28 1281.18 1544.19 1285.16 z"/>
<path transform="translate(0,0)" fill="rgb(255,255,255)" d="M 1278.94 700.767 C 1302.86 699.103 1330.86 700.608 1355.29 700.349 C 1399.69 699.876 1444.69 699.174 1489.03 701.014 C 1500.23 701.043 1553.12 700.206 1558.94 703.69 L 1559.54 706.069 C 1554.43 709.752 1541.88 705.504 1538.28 708.627 C 1544.1 708.644 1552.28 708.376 1557.78 709.454 L 1558.57 710.616 C 1551.21 717.509 1506.19 710.166 1498.36 713.56 C 1500.2 721.326 1552.02 715.323 1559.69 719.163 C 1556.19 723.86 1542.8 722.373 1537.28 722.322 C 1539.86 723.773 1553.45 723.635 1558.78 724.75 C 1555.68 724.284 1556.86 723.829 1554.85 725.291 C 1549.53 725.41 1543.16 725.474 1537.93 726.139 C 1543.55 726.537 1554.27 726.602 1559 727.449 L 1560.15 729.554 L 1559.65 727.723 L 1559.15 730.46 C 1548.41 735.527 1520.5 730.056 1506.04 732.805 L 1505.77 734.371 C 1514.42 739.571 1554.85 731.374 1559.84 739.774 C 1555 747.637 1518.02 739.444 1506.32 743.811 L 1506.15 745.1 C 1515.22 749.58 1555.95 744.476 1559.21 748.931 C 1556.44 756.675 1512.6 748.484 1506.11 754.693 L 1506.49 756.323 C 1513.79 758.707 1555.73 752.205 1560.53 759.211 C 1559.07 761.899 1559.48 761.932 1556.01 762.649 L 1559.39 763.935 L 1557.29 765.498 L 1559.79 766.59 C 1560.88 770.503 1561.18 768.816 1559.62 771.912 C 1550.09 776.106 1509.87 770.449 1506.79 776 C 1511.86 779.945 1556.16 772.362 1560.35 780.719 C 1560.12 783.714 1560.77 782.863 1559.29 784.557 L 1557.5 787.382 C 1560.56 790.295 1559.75 788.602 1560.43 792.416 C 1555.62 797.922 1517.05 794.021 1507.01 795.556 L 1506.05 797.05 C 1509.33 801.901 1555.75 796.038 1560.39 800.937 C 1560.04 804.274 1560.74 802.909 1558.11 805.116 C 1546.03 805.389 1533.56 804.864 1521.62 805.845 C 1527.34 806.51 1557.89 805.857 1559.53 807.028 C 1556.16 808.776 1554.3 807.013 1549.44 809.117 C 1553.97 809.163 1556.55 808.785 1560.55 810.733 L 1560.95 812.602 C 1553.11 819.829 1510.27 810.366 1504.14 816.341 L 1504.23 818.416 C 1514 821.77 1555.52 814.022 1560.44 822.32 L 1559.76 824.304 C 1545.81 826.65 1508.72 823.282 1500.24 826.874 L 1499.87 828.27 C 1504.81 831.14 1514.8 829.482 1521.96 830.06 C 1516.43 835.313 1507.87 833.028 1500.96 834.551 C 1496.82 835.966 1496.39 835.392 1493.83 838.183 C 1500.01 843.934 1554.3 834.396 1561.27 842.96 L 1560.4 842.416 L 1559.18 844.857 L 1556.19 845.812 C 1558.25 846.315 1558.08 846.206 1560.02 847.072 L 1560.16 848.689 L 1559.6 852.674 C 1555.51 855.441 1491.79 852.762 1479.13 854.01 C 1473.64 855.5 1471.71 856.761 1466.77 859.408 C 1477.45 859.688 1549.22 857.204 1553.13 859.916 C 1537.59 866.131 1490.67 859.769 1471.44 862.437 C 1451.16 864.923 1432.31 866.213 1411.88 865.351 C 1368.57 863.525 1324.94 866.272 1281.72 863.845 C 1278.32 863.654 1274.78 856.732 1273.14 853.976 C 1274.55 820.752 1273.09 787.704 1273.47 754.482 C 1273.69 735.64 1269.66 717.973 1278.94 700.767 z"/>
<path transform="translate(0,0)" fill="rgb(17,13,12)" d="M 1482.58 849.4 C 1493.2 841.379 1512.39 845.178 1525.66 844.727 C 1533.94 844.446 1548.48 844.501 1556.19 845.812 C 1558.25 846.315 1558.08 846.206 1560.02 847.072 L 1560.16 848.689 L 1559.6 852.674 C 1555.51 855.441 1491.79 852.762 1479.13 854.01 L 1482.58 849.4 z"/>
<path transform="translate(0,0)" fill="rgb(255,255,255)" d="M 1479.13 854.01 L 1482.58 849.4 C 1496.23 850.429 1545.47 849.916 1560.16 848.689 L 1559.6 852.674 C 1555.51 855.441 1491.79 852.762 1479.13 854.01 z"/>
<path transform="translate(0,0)" fill="rgb(231,228,230)" d="M 1489.03 701.014 C 1500.23 701.043 1553.12 700.206 1558.94 703.69 L 1559.54 706.069 C 1554.43 709.752 1541.88 705.504 1538.28 708.627 C 1526.7 709.362 1513 709.111 1501.32 708.876 C 1494.34 708.735 1493.92 708.653 1489.93 704.21 L 1489.03 701.014 z"/>
<path transform="translate(0,0)" fill="rgb(17,13,12)" d="M 1489.93 704.21 C 1502.86 705.298 1552.95 703.464 1559.54 706.069 C 1554.43 709.752 1541.88 705.504 1538.28 708.627 C 1526.7 709.362 1513 709.111 1501.32 708.876 C 1494.34 708.735 1493.92 708.653 1489.93 704.21 z"/>
<path transform="translate(0,0)" fill="rgb(17,13,12)" d="M 1537.93 726.139 C 1532.18 726.354 1507.92 728.094 1505.11 723.919 C 1511.26 721.025 1529.62 722.17 1537.28 722.322 C 1539.86 723.773 1553.45 723.635 1558.78 724.75 C 1555.68 724.284 1556.86 723.829 1554.85 725.291 C 1549.53 725.41 1543.16 725.474 1537.93 726.139 z"/>
<path transform="translate(0,0)" fill="rgb(17,13,12)" d="M 1557.29 765.498 C 1551 766.811 1513.28 767.065 1507.87 764.278 C 1515.31 762.06 1547.54 761.86 1556.01 762.649 L 1559.39 763.935 L 1557.29 765.498 z"/>
<path transform="translate(0,0)" fill="rgb(17,13,12)" d="M 1557.5 787.382 C 1548.45 789.009 1514.66 789.249 1506.19 786.143 L 1506.69 785.445 C 1523.27 784.344 1542.49 784.655 1559.29 784.557 L 1557.5 787.382 z"/>
<path transform="translate(0,0)" fill="rgb(17,13,12)" d="M 1549.44 809.117 C 1543.14 809.972 1509.32 811.395 1505.45 807.48 C 1509.04 804.915 1517.06 805.633 1521.62 805.845 C 1527.34 806.51 1557.89 805.857 1559.53 807.028 C 1556.16 808.776 1554.3 807.013 1549.44 809.117 z"/>
<path transform="translate(0,0)" fill="rgb(255,255,255)" d="M 495.566 701.155 C 562.174 699.227 632.244 700.447 699.064 700.801 L 700.78 703.335 C 708.406 711.621 710.036 706.713 718.712 708.666 L 719.203 710.536 C 714.805 711.521 714.76 710.726 712.616 713.446 C 718.293 719.489 768.244 713.048 779.981 718.035 L 779.981 719.452 C 770.169 725.101 725.489 717.893 720.46 722.868 C 721.258 725.9 720.554 724.506 723.352 726.709 C 735.585 724.625 766.841 724.963 779.297 726.52 L 780.156 728.31 C 775.596 735.741 736.958 727.364 725.643 732.699 L 724.769 734.426 L 725.611 735.904 C 734.556 735.893 775.265 733.689 779.826 737.281 L 779.592 739.417 C 771.673 745.707 729.205 738.428 725.771 744.988 C 732.949 751.015 775.746 739.873 780.358 750.133 C 775.937 757.01 731.403 750.489 726.175 754.507 L 726.593 756.366 C 735.48 759.967 774.94 752.107 780.259 761.067 L 779.632 762.736 C 767.816 766.326 735.219 761.632 727.062 765.526 L 727.037 766.836 C 738.144 771.482 773.402 764.62 779.897 770.62 C 777.583 780.132 735.394 770.838 726.195 776.777 L 725.986 778.496 C 733.519 781.625 770.4 775.299 779.675 780.927 L 780.412 782.839 C 774.261 789.948 736.935 782.662 727.003 787.603 L 727.005 788.89 C 732.655 791.237 770.433 790.851 776.752 789.041 L 776.931 788.02 L 781.374 788.135 C 782.377 793.666 782.109 800.778 782.133 806.525 L 781.25 807.259 L 780.942 807.164 C 770.217 807.01 733.061 805.535 725.13 808.301 L 724.428 809.426 C 727.747 812.907 769.119 809.736 778.557 811.651 C 780.351 813.711 779.817 812.533 779.76 815.424 C 771.346 820.493 730.332 813.104 721.621 818.736 C 727.355 824.66 774.125 818.159 779.896 821.472 L 780.119 823.781 C 770.895 832.882 730.611 821.529 717.862 829.08 L 717.783 830.556 C 725.577 833.015 776.151 828.193 780.047 832.848 L 779.542 834.618 C 769.295 839.358 720.339 832.616 711.659 838.363 L 711.338 840.082 C 717.374 843.741 776.477 836.872 779.998 843.488 L 779.758 847.019 C 775.799 850.285 771.616 847.296 764.384 849.812 C 769.022 849.76 775.253 849.165 779.291 850.864 L 780.086 852.501 L 779.064 854.283 C 764.88 857.9 697.127 848.627 690.439 859.485 C 689.811 860.589 688.49 863.1 687.759 863.952 C 676.93 863.937 665.897 866.957 654.995 866.966 C 606.253 866.994 557.211 868.108 508.508 866.581 C 501.583 865.67 491.048 864.346 490.364 855.148 C 487.409 815.404 491.751 774.572 489.613 734.555 C 488.918 721.532 488.868 712.348 495.566 701.155 z"/>
<path transform="translate(0,0)" fill="rgb(17,13,12)" d="M 776.752 789.041 L 776.931 788.02 L 781.374 788.135 C 782.377 793.666 782.109 800.778 782.133 806.525 L 781.25 807.259 L 780.942 807.164 C 780.644 803.954 780.821 803.295 779.342 800.403 C 769.129 799.288 733.647 802.207 727.212 800.312 L 726.717 798.396 C 732.301 792.891 773.198 799.874 780.189 794.418 C 780.772 791.25 780.876 792.791 779.668 789.648 L 776.752 789.041 z"/>
<path transform="translate(0,0)" fill="rgb(17,13,12)" d="M 764.384 849.812 C 758.032 850.46 705.951 850.859 704.03 849.604 L 705.364 847.472 C 710.123 844.424 767.908 846.897 779.758 847.019 C 775.799 850.285 771.616 847.296 764.384 849.812 z"/>
<path transform="translate(0,0)" fill="rgb(237,127,39)" d="M 937.906 858.776 C 932.46 858.931 931.464 859.262 926.562 857.347 L 926.212 856.157 C 928.77 854.875 972.503 856.127 979.616 856.157 C 1008.25 854.4 1037.43 856.293 1066.06 856.548 C 1074.67 856.624 1100.38 854.505 1106.55 857.817 C 1103.78 862.178 1070 860.255 1063.17 860.273 L 1073.02 866.1 C 1082.29 865.897 1126.93 865.954 1133.73 868.304 L 1133.75 869.487 C 1125.95 870.302 1092.03 869.492 1088.46 873.271 L 1089.31 873.053 L 1088.29 874.833 L 1088.01 874.478 L 1089.65 873.56 L 1090.31 876.136 L 1093.37 876.753 L 1094.69 878.886 C 1096.45 882.234 1097.64 884.826 1101.91 885.018 L 1102.25 887.854 C 1104.21 891.845 1104.79 893.287 1109.32 894.655 C 1111.46 896.873 1110.87 895.548 1110.84 898.881 C 1111.01 901.728 1110.49 900.506 1112.61 902.597 C 1126.16 904.638 1150.44 900.67 1160.37 906.251 L 1161.24 908.056 C 1155.06 913.439 1119.19 906.929 1115.81 910.895 C 1119.73 919.01 1157.49 907.821 1165.72 918.257 L 1165.65 920.35 C 1158.23 923.011 1122.74 918.443 1119.94 922.797 C 1126.57 929.577 1159.72 922.833 1166.06 927.204 L 1166.92 928.699 C 1163.41 935.622 1129.67 926.566 1121.25 931.697 L 1120.87 933.461 C 1131.4 937.678 1160.88 934.719 1168.25 938.968 L 1167.86 940.449 C 1161.61 943.558 1158.39 942.657 1151.39 942.324 L 1152.44 942.633 C 1157.78 944.164 1161.06 944.5 1166.48 945.169 C 1160.76 945.342 1155.36 945.436 1149.66 946.116 C 1155.7 946.793 1163.43 946.297 1168.07 947.817 C 1169.64 950.248 1169.76 951.519 1167.89 954.319 L 1168.23 956.092 C 1155.99 958.202 1134.43 955.75 1121.81 957.097 C 1132.26 958.952 1163.58 955.803 1169.13 960.272 L 1169.24 962.31 C 1163.83 967.799 1133.01 965.213 1122.53 966.47 L 1121.92 967.299 C 1126.7 972.244 1159.08 970.475 1167.57 970.43 L 1169.09 972.021 C 1168.93 975.237 1169.51 973.851 1167.15 976.246 C 1162.61 976.916 1157.59 976.645 1152.95 976.584 C 1156.37 977.374 1159.23 978.162 1162.75 978.41 L 1163.65 979.211 L 1167.23 978.685 C 1164.17 980.207 1163.29 978.743 1161.31 980.788 C 1165.67 980.864 1166.43 980.286 1169.08 983.454 L 1168.5 984.878 C 1161.62 987.669 1129.74 985.769 1120.15 987.255 C 1112.86 987.959 1085.76 989.671 1083.36 980.187 C 1077.88 958.562 1074.02 952.945 1049.26 953.723 C 1029.98 954.329 1006.3 952.857 986.159 954.807 C 965.638 955.873 969.266 989.855 947.12 987.639 C 936.882 986.614 885.97 989.158 881.299 985.234 L 881.577 983.67 C 889.026 980.32 914.38 982.369 924.9 981.553 L 925.972 980.086 C 919.394 973.826 887.078 982.636 880.729 974.995 L 881.199 973.142 C 884.377 970.611 885.591 970.873 889.856 970.428 C 885.925 968.875 884.566 970.596 882.484 968.83 C 884.117 968.4 903.232 968.24 908.161 967.792 C 899.484 966.824 890.907 968.347 882.789 966.622 C 881.377 963.786 881.907 965.257 882.272 961.524 C 887.445 956.724 922.217 964.438 925.903 957.898 C 925.503 957.326 925.103 956.753 924.703 956.181 C 917.098 955.454 886.672 957.844 882.26 953.964 L 882.108 951.122 L 883.935 949.689 L 883.208 948.622 C 885.281 945.254 887.12 949.375 891.59 946.051 C 887.176 945.951 885.46 946.531 882.446 943.92 C 882.581 941.007 882.784 941.152 884.484 938.696 C 884.619 936.798 884.667 937.572 886.753 935.564 L 884.717 934.368 C 883.357 930.869 883.964 931.512 885.064 927.033 L 885.959 922.364 C 886.152 921.437 886.622 918.415 887.456 917.773 C 896.257 911.004 924.522 921.529 930.498 912.945 C 927.737 907.761 896.694 915.082 890.216 909.423 L 890.841 905.834 C 892.594 903.213 892.834 902.866 894.039 899.975 C 897.951 893.61 898.785 894.474 906.266 894.572 C 904.2 893.864 902.84 893.23 900.851 892.317 L 900.226 889.758 L 903.889 883.358 L 907.196 878.711 C 908.187 877.518 910.065 875 911.697 874.511 C 924.744 870.602 963.144 878.918 971.426 869.221 L 972.244 865.687 C 977.966 863.891 985.454 867.063 990.099 861.863 L 989.43 860.869 C 984.005 859.297 946.73 859.118 937.906 858.776 z"/>
<path transform="translate(0,0)" fill="rgb(39,21,14)" d="M 890.841 905.834 C 892.594 903.213 892.834 902.866 894.039 899.975 C 903.421 900.215 929.226 899.155 936.188 902.245 L 936.661 903.112 C 935.748 903.782 934.835 904.453 933.922 905.123 C 921.512 906.153 902.708 905.853 890.841 905.834 z"/>
<path transform="translate(0,0)" fill="rgb(39,21,14)" d="M 903.889 883.358 L 907.196 878.711 C 914.878 881.866 948.63 876.241 955.963 879.789 C 952.816 886.77 912.119 883.562 903.889 883.358 z"/>
<path transform="translate(0,0)" fill="url(#Gradient3)" d="M 900.226 889.758 C 906.887 889.659 942.738 887.964 945.912 890.352 C 944.554 892.521 942.411 894.082 939.93 894.71 C 937.218 895.412 910.302 894.86 906.266 894.572 C 904.2 893.864 902.84 893.23 900.851 892.317 L 900.226 889.758 z"/>
<path transform="translate(0,0)" fill="rgb(39,21,14)" d="M 885.959 922.364 C 899.169 922.702 913.544 922.904 926.753 922.347 L 927.685 923.533 C 926.837 926.658 927.728 925.517 924.996 927.122 L 885.064 927.033 L 885.959 922.364 z"/>
<path transform="translate(0,0)" fill="rgb(17,13,12)" d="M 886.753 935.564 C 894.042 934.213 919.966 933.317 926.72 935.656 L 927.459 937.506 L 927.092 935.812 L 927.182 937.635 C 917.869 940.345 894.998 938.933 884.484 938.696 C 884.619 936.798 884.667 937.572 886.753 935.564 z"/>
<path transform="translate(0,0)" fill="rgb(17,13,12)" d="M 1161.31 980.788 C 1149.14 981.251 1133.43 982.671 1122.48 978.733 L 1122.59 977.84 C 1134.52 976.481 1141.09 976.457 1152.95 976.584 C 1156.37 977.374 1159.23 978.162 1162.75 978.41 L 1163.65 979.211 L 1167.23 978.685 C 1164.17 980.207 1163.29 978.743 1161.31 980.788 z"/>
<path transform="translate(0,0)" fill="rgb(17,13,12)" d="M 891.59 946.051 C 896.451 945.905 922.6 944.839 925.598 946.757 L 925.922 948.324 C 921.793 951.243 891.157 949.881 883.935 949.689 L 883.208 948.622 C 885.281 945.254 887.12 949.375 891.59 946.051 z"/>
<path transform="translate(0,0)" fill="rgb(17,13,12)" d="M 1149.66 946.116 C 1142.97 946.486 1128.15 947.817 1122.63 944.777 L 1124.35 943.766 L 1124.35 945.22 L 1125.34 943.536 L 1126.35 943.345 L 1126.45 945.455 L 1127.36 943.183 C 1135.75 942.054 1142.95 942.242 1151.39 942.324 L 1152.44 942.633 C 1157.78 944.164 1161.06 944.5 1166.48 945.169 C 1160.76 945.342 1155.36 945.436 1149.66 946.116 z"/>
<path transform="translate(0,0)" fill="rgb(17,13,12)" d="M 908.161 967.792 C 912.502 967.734 920.515 967.36 924.477 968.113 L 925.998 969.737 L 925.15 971.172 C 919.085 972.086 895.402 971.578 889.856 970.428 C 885.925 968.875 884.566 970.596 882.484 968.83 C 884.117 968.4 903.232 968.24 908.161 967.792 z"/>
<path transform="translate(0,0)" fill="rgb(17,13,12)" d="M 1121.81 957.097 L 1122.15 955.186 C 1125.53 952.735 1161.33 954.11 1167.89 954.319 L 1168.23 956.092 C 1155.99 958.202 1134.43 955.75 1121.81 957.097 z"/>
<path transform="translate(0,0)" fill="rgb(201,93,29)" d="M 937.906 858.776 C 932.46 858.931 931.464 859.262 926.562 857.347 L 926.212 856.157 C 928.77 854.875 972.503 856.127 979.616 856.157 C 967.419 859.818 948.291 855.248 937.906 858.776 z"/>
<path transform="translate(0,0)" fill="url(#Gradient2)" d="M 533.228 1191.39 L 535.358 1193.02 C 541.756 1189.12 588.579 1190.81 598.577 1191.24 C 600.253 1191.32 601.624 1193.37 602.299 1194.64 L 600.92 1196.48 L 604.394 1198.95 L 604.189 1199.47 L 605.097 1200.12 C 608.265 1200.59 610.09 1202.04 612.121 1204.39 L 611.206 1205.27 C 592.985 1202.8 491.297 1208.43 485.213 1204.7 L 485.148 1202.89 C 487.654 1199.48 486.046 1200.54 490.103 1199.54 L 488.434 1198.06 L 490.754 1196.84 L 490.029 1196.29 L 489.831 1194.81 L 491.654 1193.33 C 507.017 1192.55 517.119 1190.59 533.228 1191.39 z"/>
<path transform="translate(0,0)" fill="rgb(231,228,230)" d="M 490.103 1199.54 C 503.407 1200.67 597.912 1202.33 605.097 1200.12 C 608.265 1200.59 610.09 1202.04 612.121 1204.39 L 611.206 1205.27 C 592.985 1202.8 491.297 1208.43 485.213 1204.7 L 485.148 1202.89 C 487.654 1199.48 486.046 1200.54 490.103 1199.54 z"/>
<path transform="translate(0,0)" fill="rgb(255,255,255)" d="M 533.228 1191.39 L 535.358 1193.02 C 541.756 1189.12 588.579 1190.81 598.577 1191.24 C 600.253 1191.32 601.624 1193.37 602.299 1194.64 C 597.512 1196.27 538.445 1195.52 531.816 1194.63 L 533.228 1191.39 z"/>
<path transform="translate(0,0)" fill="rgb(231,228,230)" d="M 490.754 1196.84 L 490.029 1196.29 L 489.831 1194.81 L 491.654 1193.33 C 507.017 1192.55 517.119 1190.59 533.228 1191.39 L 531.816 1194.63 C 518.007 1196 503.98 1195.28 490.754 1196.84 z"/>
<path transform="translate(0,0)" fill="rgb(17,13,12)" d="M 1370.76 939.441 C 1371.43 937.15 1371.37 937.182 1372.67 935.201 C 1378.58 932.801 1406.15 933.236 1412.04 934.969 C 1413.79 935.116 1415.27 934.783 1415.5 934.791 C 1432.68 935.433 1478.64 933.05 1492.86 937.027 L 1493.28 938.11 C 1490.73 939.151 1490.36 938.941 1487.55 939.012 C 1489.16 940.605 1492.89 941.535 1495.54 942.965 L 1490.49 942.458 C 1493.27 944.175 1495.76 943.903 1499.09 944.061 L 1501.46 947.408 L 1500.85 948.504 L 1499.4 948.359 C 1488.79 947.355 1471.33 948.104 1459.89 948.026 C 1451.09 949.678 1411.48 949.688 1402.75 948.301 L 1402.03 946.243 C 1399.25 946.618 1397.4 949.622 1396.54 952.178 L 1393.13 951.945 C 1393.55 950.422 1393.23 948.566 1393.12 946.886 C 1393.58 946.08 1396.36 943.403 1397.18 942.567 L 1398.69 939.719 C 1389.38 939.72 1380.07 939.627 1370.76 939.441 z"/>
<path transform="translate(0,0)" fill="rgb(255,255,255)" d="M 1370.76 939.441 C 1371.43 937.15 1371.37 937.182 1372.67 935.201 C 1378.58 932.801 1406.15 933.236 1412.04 934.969 C 1413.79 935.116 1415.27 934.783 1415.5 934.791 C 1432.68 935.433 1478.64 933.05 1492.86 937.027 L 1493.28 938.11 C 1490.73 939.151 1490.36 938.941 1487.55 939.012 C 1471.82 938.737 1456.21 938.976 1440.5 938.848 C 1426.46 938.734 1412.75 937.374 1398.69 939.719 C 1389.38 939.72 1380.07 939.627 1370.76 939.441 z"/>
<path transform="translate(0,0)" fill="rgb(255,255,255)" d="M 1402.75 948.301 C 1403.98 946.2 1403.98 946.358 1406.01 944.954 C 1420.88 943.195 1440.18 941.778 1454.62 945.28 C 1456.22 946.069 1458.47 947.075 1459.89 948.026 C 1451.09 949.678 1411.48 949.688 1402.75 948.301 z"/>
<path transform="translate(0,0)" fill="rgb(231,228,230)" d="M 1454.62 945.28 C 1472.44 942.607 1484.73 946.583 1499.09 944.061 L 1501.46 947.408 L 1500.85 948.504 L 1499.4 948.359 C 1488.79 947.355 1471.33 948.104 1459.89 948.026 C 1458.47 947.075 1456.22 946.069 1454.62 945.28 z"/>
<path transform="translate(0,0)" fill="rgb(255,255,255)" d="M 514.144 680.997 C 536.951 680.368 560.19 680.234 583.013 680.185 C 590.74 680.169 621.593 678.168 627.159 679.675 L 627.817 681.096 L 627.586 681.547 L 625.686 683.621 C 628.577 686.165 629.835 686.39 633.384 687.717 L 633.792 688.85 C 630.967 690.017 608.279 690.414 605.299 689.451 L 604.237 689.118 C 594.205 690.486 585.862 689.676 576.03 689.922 C 551.805 690.528 528.043 688.675 503.882 689.639 C 507.285 685.741 510.433 685.617 514.144 680.997 z"/>
<path transform="translate(0,0)" fill="rgb(17,13,12)" d="M 627.586 681.547 L 625.686 683.621 C 628.577 686.165 629.835 686.39 633.384 687.717 L 633.792 688.85 C 630.967 690.017 608.279 690.414 605.299 689.451 L 604.237 689.118 C 601.941 687.509 600.955 687.199 599.792 684.696 L 600.683 683.176 C 607.683 680.865 619.179 683.034 627.586 681.547 z"/>
<path transform="translate(0,0)" fill="rgb(255,255,255)" d="M 1370.76 939.441 C 1370.1 918.254 1390.73 914.837 1407.05 916.834 C 1411.73 917.407 1419.36 916.336 1422.99 919.623 C 1418.48 920.977 1417.38 917.138 1411.07 920.716 C 1402 922.725 1393.29 920.552 1382.49 922.094 L 1382.97 923.442 C 1385.25 923.602 1387.17 923.316 1388.74 924.412 C 1404.42 927.775 1475.84 922.377 1484.91 927.051 C 1478.01 931.845 1429.42 930.049 1416.69 930.119 C 1412.34 932.557 1413.14 931.236 1412.04 934.969 C 1406.15 933.236 1378.58 932.801 1372.67 935.201 C 1371.37 937.182 1371.43 937.15 1370.76 939.441 z"/>
<path transform="translate(0,0)" fill="rgb(17,13,12)" d="M 1370.76 939.441 C 1370.1 918.254 1390.73 914.837 1407.05 916.834 C 1411.73 917.407 1419.36 916.336 1422.99 919.623 C 1418.48 920.977 1417.38 917.138 1411.07 920.716 C 1402 922.725 1393.29 920.552 1382.49 922.094 L 1382.97 923.442 C 1385.25 923.602 1387.17 923.316 1388.74 924.412 C 1382.26 925.317 1381.94 924.153 1376.4 927.183 L 1375.96 928.588 C 1380.75 930.665 1409.87 930.309 1416.69 930.119 C 1412.34 932.557 1413.14 931.236 1412.04 934.969 C 1406.15 933.236 1378.58 932.801 1372.67 935.201 C 1371.37 937.182 1371.43 937.15 1370.76 939.441 z"/>
<path transform="translate(0,0)" fill="rgb(186,183,182)" d="M 1382.49 922.094 L 1384.77 919.758 C 1392.72 917.247 1402.66 919.488 1411.07 920.716 C 1402 922.725 1393.29 920.552 1382.49 922.094 z"/>
<path transform="translate(0,0)" fill="rgb(255,255,255)" d="M 1275.58 658.887 C 1313.33 659.562 1351.36 658.394 1389.1 660.906 C 1392.25 661.116 1394.66 661.771 1396.68 664.324 L 1395.14 665.306 C 1378.78 665.391 1360.78 665.342 1344.52 665.568 C 1331.1 665.755 1286.34 669.008 1275.67 666.683 C 1274.26 664.175 1275.1 661.881 1275.58 658.887 z"/>
<path transform="translate(0,0)" fill="rgb(255,255,255)" d="M 1274.76 1202.84 C 1275.21 1201.63 1275.22 1200.35 1276.52 1199.85 C 1283.03 1197.34 1394.01 1198.94 1397.71 1201.17 C 1397.97 1201.33 1398.19 1201.56 1398.43 1201.75 L 1398.52 1203.24 C 1393.83 1205 1381.94 1203.6 1376.74 1203.92 C 1362.7 1204.76 1299.25 1203.24 1291.64 1205.58 L 1293.68 1210.08 C 1295.35 1210.47 1296.11 1210.6 1297.87 1210.83 L 1299.51 1211.04 L 1299.1 1211.8 L 1299.34 1211 L 1298.51 1211.97 C 1291.93 1213.38 1278.02 1216.29 1274 1210.18 C 1274.85 1206.7 1272.82 1207.24 1274.76 1202.84 z"/>
<path transform="translate(0,0)" fill="rgb(231,228,230)" d="M 1274 1210.18 C 1274.85 1206.7 1272.82 1207.24 1274.76 1202.84 C 1278.72 1207.41 1285.71 1205.85 1291.64 1205.58 L 1293.68 1210.08 C 1295.35 1210.47 1296.11 1210.6 1297.87 1210.83 L 1299.51 1211.04 L 1299.1 1211.8 L 1299.34 1211 L 1298.51 1211.97 C 1291.93 1213.38 1278.02 1216.29 1274 1210.18 z"/>
<path transform="translate(0,0)" fill="rgb(17,13,12)" d="M 1274 1210.18 C 1274.85 1206.7 1272.82 1207.24 1274.76 1202.84 C 1278.72 1207.41 1285.71 1205.85 1291.64 1205.58 L 1293.68 1210.08 C 1287.67 1208.63 1280.05 1208.77 1274 1210.18 z"/>
<path transform="translate(0,0)" fill="rgb(255,255,255)" d="M 1396.54 952.178 L 1453.57 951.932 C 1460.86 951.899 1476.6 951.403 1483.19 952.304 L 1483.62 953.38 L 1484.53 956.726 C 1477.32 961.116 1474.13 960.221 1465.65 959.988 C 1438.12 959.397 1410.66 960.808 1383.13 960.289 C 1386.49 956.718 1388.65 953.797 1393.13 951.945 L 1396.54 952.178 z"/>
<path transform="translate(0,0)" fill="rgb(255,255,255)" d="M 1295.43 681.942 C 1325.48 681.16 1357.68 683.919 1385.79 680.535 L 1386.84 682.699 L 1381.83 688.844 C 1372.78 690.277 1364.08 688.626 1355.29 689.265 C 1332.57 690.917 1309.78 689.123 1287.22 689.566 C 1289.92 686.59 1292.4 684.554 1295.43 681.942 z"/>
<path transform="translate(0,0)" fill="rgb(39,21,14)" d="M 1093.37 876.753 C 1098.5 875.605 1135.15 874.223 1141.11 876.473 C 1141.54 876.635 1143.56 878.807 1143.89 879.164 L 1145.99 884.343 L 1148.69 885.826 L 1149.18 887.715 C 1143.11 890.431 1110.27 888.834 1102.25 887.854 L 1101.91 885.018 C 1097.64 884.826 1096.45 882.234 1094.69 878.886 L 1093.37 876.753 z"/>
<path transform="translate(0,0)" fill="rgb(237,127,39)" d="M 1145.99 884.343 L 1148.69 885.826 L 1149.18 887.715 C 1143.11 890.431 1110.27 888.834 1102.25 887.854 L 1101.91 885.018 C 1117.48 884.141 1130.45 884.152 1145.99 884.343 z"/>
<path transform="translate(0,0)" fill="rgb(237,127,39)" d="M 1093.37 876.753 C 1098.5 875.605 1135.15 874.223 1141.11 876.473 C 1141.54 876.635 1143.56 878.807 1143.89 879.164 C 1127.77 878.803 1110.88 878.973 1094.69 878.886 L 1093.37 876.753 z"/>
<path transform="translate(0,0)" fill="rgb(255,255,255)" d="M 447.129 948.858 C 452.646 948.739 459.412 948.376 464.812 948.841 C 468.981 949.215 473.155 949.53 477.333 949.785 L 472.935 951.538 C 473.92 952.814 473.244 952.282 475.167 952.837 C 471.236 954.355 469.029 954.381 464.79 953.13 L 463.985 956.984 C 458.111 958.337 404.276 958.255 396.51 957.996 L 405.004 951.176 L 419.097 950.694 C 423.394 948.243 439.57 949.74 447.129 948.858 z"/>
<path transform="translate(0,0)" fill="rgb(17,13,12)" d="M 447.129 948.858 C 452.646 948.739 459.412 948.376 464.812 948.841 C 468.981 949.215 473.155 949.53 477.333 949.785 L 472.935 951.538 C 473.92 952.814 473.244 952.282 475.167 952.837 C 471.236 954.355 469.029 954.381 464.79 953.13 C 462.696 951.376 426.21 951.631 419.097 950.694 C 423.394 948.243 439.57 949.74 447.129 948.858 z"/>
<path transform="translate(0,0)" fill="rgb(255,255,255)" d="M 1342.18 671.406 C 1353.28 671.118 1397.5 670.088 1405.16 674.862 C 1401.05 677.735 1374.06 676.841 1366.23 677.87 C 1348.6 678.183 1316.7 679.312 1300.17 676.5 C 1316.58 671.892 1325.92 673.619 1342.18 671.406 z"/>
<path transform="translate(0,0)" fill="rgb(255,255,255)" d="M 447.129 948.858 L 445.932 948.744 C 436.678 947.943 418.589 948.992 411.616 947.456 C 416.092 938.565 434.029 944.788 440.391 944.793 C 443.342 942.389 445.121 942.442 448.539 942.491 C 468.239 942.769 487.473 942.316 507.103 944.157 C 511.775 944.595 508.471 937.199 521.131 948.629 C 504.889 947.949 480.731 947.213 464.812 948.841 C 459.412 948.376 452.646 948.739 447.129 948.858 z"/>
<path transform="translate(0,0)" fill="rgb(255,255,255)" d="M 388.33 932.444 C 425.939 930.993 464.344 933.997 502.053 932.298 C 506.129 932.115 506.998 933.036 509.633 935.756 L 509.075 936.947 L 506.25 937.111 C 476.71 936.791 446.984 934.891 417.386 936.848 C 410.998 937.27 388.994 941.011 385.575 935.931 L 386.267 933.552 L 388.33 932.444 z"/>
<path transform="translate(0,0)" fill="rgb(255,255,255)" d="M 1289 1223.76 C 1290.9 1222.12 1294.57 1218.94 1297.13 1218.63 C 1316.55 1216.28 1336.72 1219.31 1356.32 1218.35 C 1362.94 1218.03 1370.14 1218.43 1376.58 1218.96 C 1375.45 1221.06 1374.82 1223.46 1372.51 1223.61 C 1360.75 1224.36 1296.66 1226.38 1289 1223.76 z"/>
<path transform="translate(0,0)" fill="rgb(255,255,255)" d="M 503.935 1222.09 C 512.948 1217.56 597.756 1218.1 602.336 1221.01 L 603.034 1223.04 C 598.843 1225.83 512.843 1225.43 503.566 1223.17 L 503.935 1222.09 z"/>
<path transform="translate(0,0)" fill="rgb(255,255,255)" d="M 491.6 657.896 C 493.214 654.563 491.996 655.413 494.677 654.313 C 499.5 654.879 501.668 655.056 506.504 654.902 C 508.174 656.213 508.641 656.454 510.053 658.015 C 516.32 657.728 548.09 657.314 552.16 660.084 L 552.279 661.517 L 553.194 664.456 C 549.028 664.965 546.781 665.081 542.582 665.068 C 524.069 666.262 507.127 665.2 488.959 666.317 C 490.104 663.643 490.812 660.711 491.6 657.896 z"/>
<path transform="translate(0,0)" fill="rgb(17,13,12)" d="M 491.6 657.896 C 493.214 654.563 491.996 655.413 494.677 654.313 C 499.5 654.879 501.668 655.056 506.504 654.902 C 508.174 656.213 508.641 656.454 510.053 658.015 C 506.745 659.271 495.93 658.131 491.6 657.896 z"/>
<path transform="translate(0,0)" fill="rgb(255,255,255)" d="M 529.68 672.655 C 543.831 667.922 581.519 670.223 598.266 670.193 C 598.677 670.457 599.088 670.722 599.499 670.986 C 608.88 672.739 610.253 664.689 619.739 672.381 L 619.888 673.586 C 614.056 675.187 599.002 674.468 592.283 675.252 C 586.341 675.944 580.157 673.949 574.326 673.892 C 572.079 673.87 568.736 676.308 565.408 676.413 C 553.134 676.8 535.216 677.719 523.266 676.305 C 524.963 675.142 527.799 673.697 529.68 672.655 z"/>
<path transform="translate(0,0)" fill="rgb(255,255,255)" d="M 494.677 654.313 C 501.598 648.491 515.358 648.206 524.016 649.162 C 541.245 651.063 588.03 645.82 602.248 650.657 L 601.419 650.197 L 601.373 651.491 C 585.77 656.357 551.515 653.386 534.136 653.934 C 524.953 654.224 515.684 654.957 506.504 654.902 C 501.668 655.056 499.5 654.879 494.677 654.313 z"/>
<path transform="translate(0,0)" fill="rgb(255,255,255)" d="M 1287.31 649.088 C 1315.28 647.413 1346.74 650.228 1375 649.31 C 1379.6 649.161 1383.77 649.539 1387.42 652.485 L 1386.99 653.613 L 1383.24 654.119 C 1377.14 653.333 1372.18 653.329 1366.06 653.394 C 1338.04 653.695 1309.65 655.925 1281.64 653.904 C 1282.65 651.154 1284.14 651.075 1287.31 649.088 z"/>
<path transform="translate(0,0)" fill="rgb(255,255,255)" d="M 1317.5 1210.57 C 1332.67 1209.62 1395.27 1208.51 1406.74 1212.2 L 1406.84 1213.39 C 1401.15 1215.08 1396.69 1214.5 1390.75 1214.29 C 1370.1 1214.14 1319.67 1218.4 1303.2 1211.07 L 1317.5 1210.57 z"/>
<path transform="translate(0,0)" fill="rgb(237,127,39)" d="M 976.998 827.016 C 988.354 826.422 1075.63 827 1082.3 829.715 C 1079.82 831.419 1077.49 831.025 1074.38 831.056 C 1056.55 830.335 1037.53 831.409 1019.66 831.797 C 1000.91 832.044 982.155 832.075 963.403 831.889 L 976.998 827.016 z"/>
<path transform="translate(0,0)" fill="rgb(231,228,230)" d="M 963.248 1208.5 C 997.945 1209.89 1033.81 1206.24 1068.64 1208.91 C 1075.21 1209.41 1095.84 1205.93 1099.86 1209.34 L 1096.18 1211.01 C 1076.07 1211.33 965.429 1213.47 953.64 1209.53 C 956.104 1208.17 960.12 1208.55 963.248 1208.5 z"/>
<path transform="translate(0,0)" fill="rgb(237,127,39)" d="M 1046.23 840.131 C 1043.63 841.214 957.571 841.97 952.326 840.712 L 952.017 839.747 C 959.81 835.926 971.82 837.771 980.793 837.539 L 1045.09 835.969 C 1045.42 837.118 1046.02 839.019 1046.23 840.131 z"/>
<path transform="translate(0,0)" fill="rgb(255,255,255)" d="M 591.05 1210.52 C 597.772 1210.13 602.516 1209.28 608.172 1213.42 C 599.843 1217.8 549.235 1215.95 538.75 1215.55 C 533.674 1215.5 529.874 1215.45 524.765 1214.9 L 524.687 1214.05 C 536.75 1209.4 575.291 1211.23 591.05 1210.52 z"/>
<path transform="translate(0,0)" fill="rgb(255,255,255)" d="M 1451.51 966.887 C 1438.86 966.78 1385.73 968.717 1377.41 966.762 L 1377.72 965.601 C 1380.57 964.243 1385.77 962.377 1388.88 962.571 C 1408.09 963.767 1427.58 961.991 1446.71 962.544 C 1451.54 962.737 1456.97 962.824 1461.74 963.201 L 1460.82 965.276 C 1456.82 966.287 1454.87 966.189 1451.51 966.887 z"/>
<path transform="translate(0,0)" fill="rgb(231,228,230)" d="M 690.439 859.485 C 703.194 863.278 772.946 856.478 777.003 860.704 L 776.585 862.705 C 762.482 864.95 748.861 864.042 734.536 863.916 C 718.944 863.837 703.351 863.849 687.759 863.952 C 688.49 863.1 689.811 860.589 690.439 859.485 z"/>
<path transform="translate(0,0)" fill="rgb(17,13,12)" d="M 483.08 1213.43 C 486.314 1210.14 516.034 1209.95 523.932 1209.7 C 519.843 1211.01 513.264 1213.36 509.241 1213.98 C 507.202 1217.04 504.782 1218.37 501.773 1220.51 L 499.126 1220.16 L 494.13 1222.58 C 490.594 1227.82 488.523 1231.77 482.286 1227.92 C 482.572 1222.39 482.361 1219.17 483.08 1213.43 z"/>
<path transform="translate(0,0)" fill="rgb(231,228,230)" d="M 483.08 1213.43 C 486.314 1210.14 516.034 1209.95 523.932 1209.7 C 519.843 1211.01 513.264 1213.36 509.241 1213.98 C 500.434 1214.14 491.988 1214.9 483.08 1213.43 z"/>
<path transform="translate(0,0)" fill="rgb(231,228,230)" d="M 494.13 1222.58 C 490.536 1223.01 486.912 1224.15 484.677 1220.96 L 485.993 1219.47 C 491.377 1217.35 493.702 1217.97 499.126 1220.16 L 494.13 1222.58 z"/>
<path transform="translate(0,0)" fill="rgb(237,127,39)" d="M 956.726 846.752 C 967.909 845.689 1030.13 843.914 1035.96 847.749 L 1036.23 848.764 C 1022.05 851.931 973.797 849.612 957.74 850.236 L 956.726 846.752 z"/>
<path transform="translate(0,0)" fill="rgb(255,255,255)" d="M 1369.9 695.859 C 1357.92 695.956 1285.35 698.653 1281.92 695.74 L 1283.21 694.265 C 1284.34 693.708 1286.57 692.528 1287.78 692.614 C 1302.96 693.683 1357.98 691.189 1369.17 694.214 L 1369.9 695.859 z"/>
<path transform="translate(0,0)" fill="rgb(237,127,39)" d="M 1035.96 847.749 C 1042.25 843.384 1100.8 848.511 1112.19 847.038 C 1113.48 846.87 1115.6 848.594 1116.55 849.608 L 1115.74 850.621 C 1089.61 850.399 1061.4 851.869 1036.23 848.764 L 1035.96 847.749 z"/>
<path transform="translate(0,0)" fill="rgb(255,255,255)" d="M 698.837 1387.24 C 711.507 1389.05 772.051 1384.31 777.209 1388.09 C 767.924 1393.99 712.993 1389.86 698.346 1390.44 L 698.837 1387.24 z"/>
<path transform="translate(0,0)" fill="rgb(255,255,255)" d="M 717.83 1260.26 C 728.062 1258.88 769.571 1256.89 777.259 1261.44 L 776.978 1262.45 C 766.516 1265.76 731.095 1263.78 718.39 1263.52 L 717.83 1260.26 z"/>
<path transform="translate(0,0)" fill="rgb(255,255,255)" d="M 1274.61 677.224 L 1274.38 673.393 C 1278.44 668.824 1295.96 671.001 1302.06 671.265 C 1298.36 674.442 1296.75 676.465 1291.98 677.343 C 1291.44 677.853 1288.23 680.982 1287.87 681.186 C 1284.58 684.117 1281.41 687.615 1277.37 688.88 C 1273.19 687.542 1273.75 686.504 1273.42 682.191 C 1274.48 679.756 1274.22 679.955 1274.61 677.224 z"/>
<path transform="translate(0,0)" fill="rgb(17,13,12)" d="M 1274.61 677.224 C 1279.6 677.2 1287.25 676.957 1291.98 677.343 C 1291.44 677.853 1288.23 680.982 1287.87 681.186 C 1284.58 684.117 1281.41 687.615 1277.37 688.88 C 1273.19 687.542 1273.75 686.504 1273.42 682.191 C 1274.48 679.756 1274.22 679.955 1274.61 677.224 z"/>
<path transform="translate(0,0)" fill="rgb(255,255,255)" d="M 1273.42 682.191 C 1278.24 681.908 1283.06 681.573 1287.87 681.186 C 1284.58 684.117 1281.41 687.615 1277.37 688.88 C 1273.19 687.542 1273.75 686.504 1273.42 682.191 z"/>
<path transform="translate(0,0)" fill="rgb(255,255,255)" d="M 720.081 1268.92 C 726.318 1267.79 772.4 1267.52 776.74 1269.41 L 777.018 1272.12 C 774.531 1274.64 758.636 1273.47 754.301 1273.37 C 742.683 1273.09 731.14 1272.98 719.519 1272.97 L 720.081 1268.92 z"/>
<path transform="translate(0,0)" fill="rgb(237,127,39)" d="M 1014.9 819.425 C 1027.53 817.484 1049.78 818.77 1061.95 823.588 L 1037.25 823.993 C 1021.28 824.455 1005.94 825.03 989.989 823.563 C 1000.01 820.738 1004.62 820.3 1014.9 819.425 z"/>
<path transform="translate(0,0)" fill="rgb(255,255,255)" d="M 721.556 1278.64 C 730.584 1277.27 766.893 1277.83 775.492 1279.52 L 776.825 1280.85 C 772.477 1285.22 730.146 1282.96 720.837 1282.96 L 722.573 1280.37 L 721.556 1278.64 z"/>
<path transform="translate(0,0)" fill="rgb(255,255,255)" d="M 435.754 923.38 C 444.058 922.86 495.147 922.03 499.297 924.876 L 499.535 926.84 C 488.982 927.095 443.507 929.307 436.436 926.168 L 435.754 923.38 z"/>
<path transform="translate(0,0)" fill="rgb(231,228,230)" d="M 916.874 1022.79 L 916.013 1028.84 C 910.705 1031.53 901.903 1030.55 895.788 1030.7 C 890.32 1030.84 879.945 1031.95 879.081 1024.68 C 882.338 1022.53 910.373 1023.07 916.874 1022.79 z"/>
<path transform="translate(0,0)" fill="rgb(231,228,230)" d="M 699.064 700.801 C 712.402 699.816 768.185 698.505 778.814 702.121 L 778.772 702.833 C 760.864 705.488 721.957 702.475 700.78 703.335 L 699.064 700.801 z"/>
<path transform="translate(0,0)" fill="rgb(255,255,255)" d="M 1521.96 830.06 C 1529.6 830.57 1554.3 826.537 1559.68 830.277 L 1560.44 832.762 C 1559.76 833.981 1559.58 834.993 1558.47 834.949 C 1546.08 834.456 1511.29 836.17 1500.96 834.551 C 1507.87 833.028 1516.43 835.313 1521.96 830.06 z"/>
<path transform="translate(0,0)" fill="rgb(255,255,255)" d="M 562.837 696.825 C 554.412 696.994 503.969 699.025 500.043 696.459 C 506.436 688.982 551.922 693.963 562.836 694.843 L 562.837 696.825 z"/>
<path transform="translate(0,0)" fill="rgb(231,228,230)" d="M 677.075 1399.04 C 678.459 1397.13 679.776 1396.1 681.496 1394.48 C 693.912 1401.58 753.589 1392.34 770.285 1397.38 C 766.11 1401.31 687.968 1398.55 677.075 1399.04 z"/>
<path transform="translate(0,0)" fill="rgb(231,228,230)" d="M 552.279 661.517 C 553.076 660.883 553.873 660.249 554.67 659.615 C 562.882 659.076 606.807 657.956 611.252 663.05 C 609.12 664.596 561.677 662.897 553.194 664.456 L 552.279 661.517 z"/>
<path transform="translate(0,0)" fill="rgb(231,228,230)" d="M 718.712 708.666 C 725.596 707.468 772.535 707.745 778.237 709.453 L 778.742 710.471 C 772.301 712.567 723.576 713.335 719.203 710.536 L 718.712 708.666 z"/>
<path transform="translate(0,0)" fill="rgb(17,13,12)" d="M 506.213 680.212 L 514.144 680.997 C 510.433 685.617 507.285 685.741 503.882 689.639 C 500.869 689.495 493.887 689.863 491.04 690.71 C 492.651 691.505 493.01 691.61 494.824 692.201 L 496.477 692.724 L 496.671 693.98 C 494.846 696.194 494.973 696.031 492.242 696.976 L 490.676 696.079 C 488.14 691.43 488.517 685.006 488.931 679.829 C 494.523 680.734 500.5 680.332 506.213 680.212 z"/>
<path transform="translate(0,0)" fill="rgb(255,255,255)" d="M 506.213 680.212 C 502.345 684.138 498.945 688.513 493.318 688.709 C 488.583 686.435 489.373 685.015 488.931 679.829 C 494.523 680.734 500.5 680.332 506.213 680.212 z"/>
<path transform="translate(0,0)" fill="url(#Gradient1)" d="M 1484.53 956.726 C 1489.61 956.32 1491.63 956.177 1495.06 960.503 L 1488.57 962.417 C 1485 964.388 1485.05 964.371 1481.07 965.276 L 1480.28 964.758 L 1475.47 966.653 C 1467.7 967.189 1459.35 966.954 1451.51 966.887 C 1454.87 966.189 1456.82 966.287 1460.82 965.276 L 1461.74 963.201 C 1456.97 962.824 1451.54 962.737 1446.71 962.544 C 1453.64 961.532 1459.04 963.119 1465.65 959.988 C 1474.13 960.221 1477.32 961.116 1484.53 956.726 z"/>
<path transform="translate(0,0)" fill="rgb(140,137,135)" d="M 1461.74 963.201 C 1466.3 963.513 1476.04 963.949 1480.28 964.758 L 1475.47 966.653 C 1467.7 967.189 1459.35 966.954 1451.51 966.887 C 1454.87 966.189 1456.82 966.287 1460.82 965.276 L 1461.74 963.201 z"/>
<path transform="translate(0,0)" fill="rgb(231,228,230)" d="M 1322.41 1191 C 1339.71 1188.86 1369.27 1189.87 1386.85 1191.47 L 1386.94 1192.13 C 1378.32 1193.9 1329.72 1194.8 1322.89 1193.02 L 1322.41 1191 z"/>
<path transform="translate(0,0)" fill="rgb(237,127,39)" d="M 1109.32 894.655 C 1117.82 893.354 1148.18 892.847 1155.48 897.285 C 1150.81 900.102 1118.26 899.366 1110.84 898.881 C 1110.87 895.548 1111.46 896.873 1109.32 894.655 z"/>
<path transform="translate(0,0)" fill="rgb(231,228,230)" d="M 1079.77 1181.66 C 1088.36 1180.64 1129.08 1177.4 1134.97 1181.05 C 1135.28 1181.24 1135.48 1181.57 1135.73 1181.82 L 1134.23 1183.4 C 1122.8 1183.29 1111.37 1183.35 1099.95 1183.6 C 1091.11 1183.83 1077.93 1184.73 1069.27 1183.57 C 1074.34 1180.93 1072.9 1185.12 1079.77 1181.66 z"/>
<path transform="translate(0,0)" fill="rgb(231,228,230)" d="M 716.95 1251.72 C 729.269 1250.8 767.414 1248.73 777.418 1253.18 L 777.685 1253.6 C 765.043 1256.25 733.017 1252.5 716.321 1254.51 L 716.95 1251.72 z"/>
<path transform="translate(0,0)" fill="rgb(231,228,230)" d="M 1058.3 1191.11 C 1065.06 1190.24 1123.21 1189.2 1127.86 1190.32 L 1127.31 1192.76 C 1117.77 1193.98 1068.32 1193.35 1058.91 1192.11 L 1058.3 1191.11 z"/>
<path transform="translate(0,0)" fill="rgb(231,228,230)" d="M 1412.84 1221.04 C 1421.61 1220.9 1478.49 1219.29 1481.49 1221.81 L 1483.2 1221.82 L 1481.36 1221.7 C 1482.49 1222.34 1481.9 1222.27 1483.14 1221.93 C 1479.61 1221.61 1482.94 1221.67 1479.75 1222.58 C 1469.41 1225.51 1442.9 1220.33 1435.73 1225.61 C 1428.31 1221.28 1419.49 1226.62 1412.84 1221.04 z"/>
<path transform="translate(0,0)" fill="rgb(255,255,255)" d="M 388.689 965.893 L 394.449 960.76 C 409.061 961.23 425.16 960.966 439.888 961.028 L 443.661 963.68 C 432.997 965.709 402.429 965.151 388.689 965.893 z"/>
<path transform="translate(0,0)" fill="rgb(255,255,255)" d="M 489.56 675.898 C 490.249 671.171 489.167 672.907 492.139 670.083 C 499.881 667.563 515.798 668.273 523.192 670.587 L 519.366 673.413 C 507.854 676.585 501.623 676.093 489.56 675.898 z"/>
<path transform="translate(0,0)" fill="rgb(255,255,255)" d="M 1322.89 1193.02 C 1318.16 1195.5 1284.57 1195.99 1279.42 1193.95 L 1279.14 1191.82 C 1286.82 1188.82 1313.56 1190.17 1322.41 1191 L 1322.89 1193.02 z"/>
<path transform="translate(0,0)" fill="rgb(231,228,230)" d="M 965.396 1216.46 C 978.85 1216.05 995.019 1216.29 1008.58 1217.1 C 1011.66 1217.28 1012.24 1218.81 1013.53 1220.78 C 1004.06 1220.94 969.832 1223.31 965.396 1216.46 z"/>
<path transform="translate(0,0)" fill="rgb(255,255,255)" d="M 385.794 943.837 C 389.13 941.088 404.472 941.701 409.296 941.686 C 405.624 944.109 401.833 946.828 397.879 948.685 C 394.149 952.518 390.155 957.783 384.811 953.661 C 384.212 949.88 384.416 947.475 385.794 943.837 z"/>
<path transform="translate(0,0)" fill="rgb(17,13,12)" d="M 397.879 948.685 C 394.149 952.518 390.155 957.783 384.811 953.661 C 384.212 949.88 384.416 947.475 385.794 943.837 C 387.708 951.444 391.769 945.919 397.879 948.685 z"/>
<path transform="translate(0,0)" fill="rgb(140,137,135)" d="M 1468.66 1392.49 C 1481.74 1393.45 1494.86 1393.89 1507.98 1393.81 C 1512.92 1393.8 1545.56 1392.47 1547.65 1393.76 C 1550.74 1393.79 1553.56 1393.36 1555.99 1394.99 C 1552.69 1397.96 1544.76 1396.82 1541.21 1395.02 C 1528.05 1396.51 1483.25 1395.79 1468.24 1395.12 L 1468.66 1392.49 z"/>
<path transform="translate(0,0)" fill="rgb(231,228,230)" d="M 1541.21 1395.02 C 1542.85 1393.6 1544.93 1393.98 1547.65 1393.76 C 1550.74 1393.79 1553.56 1393.36 1555.99 1394.99 C 1552.69 1397.96 1544.76 1396.82 1541.21 1395.02 z"/>
<path transform="translate(0,0)" fill="rgb(237,127,39)" d="M 1065.56 836.028 C 1074.53 835.846 1090.86 834.542 1098.54 837.808 L 1099.72 839.418 C 1095 842.362 1062.68 841.217 1057.16 838.739 C 1059.78 837.351 1062.64 836.823 1065.56 836.028 z"/>
<path transform="translate(0,0)" fill="rgb(186,183,182)" d="M 1485.95 694.449 C 1493.21 693.516 1550.87 694.149 1558.25 695.473 L 1556.86 696.958 C 1546.61 697.569 1492.57 697.026 1485.95 694.449 z"/>
<path transform="translate(0,0)" fill="rgb(101,98,98)" d="M 963.3 1199.26 C 973.39 1197.72 981.169 1202.23 999.954 1198.06 L 1000.15 1200.31 C 995.075 1201.64 959.926 1202.26 953.443 1201.9 C 948.621 1202.19 936.75 1204.08 934.673 1198.74 C 938.977 1197.92 957.911 1199.11 963.3 1199.26 z"/>
<path transform="translate(0,0)" fill="rgb(231,228,230)" d="M 953.443 1201.9 C 948.621 1202.19 936.75 1204.08 934.673 1198.74 C 938.977 1197.92 957.911 1199.11 963.3 1199.26 C 965.425 1200.67 965.135 1200.51 967.561 1200.67 L 966.404 1200.83 L 967.629 1200.88 C 964.581 1199.63 956.69 1201.06 953.443 1201.9 z"/>
<path transform="translate(0,0)" fill="rgb(255,255,255)" d="M 1022.02 1215.07 L 1027.01 1215.49 C 1032.23 1219.12 1031.82 1225.96 1029.72 1231.29 C 1026.6 1231.3 1024.54 1231.69 1021.99 1230.01 C 1018.53 1225.1 1017.8 1219.75 1022.02 1215.07 z"/>
<path transform="translate(0,0)" fill="rgb(151,84,47)" d="M 962.169 866.061 L 972.244 865.687 L 971.426 869.221 C 968.095 868.802 962.126 869.046 958.573 869.082 C 952.343 869.021 919.085 869.765 915.956 869.05 C 917.139 867.911 919.653 866.784 921.044 866.795 C 934.404 866.903 948.976 866.361 962.169 866.061 z"/>
<path transform="translate(0,0)" fill="rgb(237,127,39)" d="M 962.169 866.061 L 972.244 865.687 L 971.426 869.221 C 968.095 868.802 962.126 869.046 958.573 869.082 C 956.352 868.279 957.199 868.898 955.873 867.466 L 962.169 866.061 z"/>
<path transform="translate(0,0)" fill="rgb(101,98,98)" d="M 701.462 686.5 C 713.691 686.559 758.004 685.534 767.262 688.453 C 757.86 689.891 707.283 689.782 701.462 686.5 z"/>
<path transform="translate(0,0)" fill="rgb(231,228,230)" d="M 1369.17 694.214 C 1379.31 693.164 1416.22 691.477 1424.42 695.347 C 1409.67 696.332 1384.88 696.453 1369.9 695.859 L 1369.17 694.214 z"/>
<path transform="translate(0,0)" fill="rgb(202,200,194)" d="M 1036.87 1217.37 C 1039.9 1217 1085.91 1216.62 1087.58 1217.17 L 1086.65 1218.23 C 1081.54 1220.03 1043.49 1220.55 1038.26 1219.5 L 1036.87 1217.37 z"/>
<path transform="translate(0,0)" fill="rgb(186,183,182)" d="M 476.378 953.07 C 484.712 951.483 515.823 951.915 524.544 953.024 L 522.088 955.248 C 514.319 956.407 488.386 954.302 478.588 954.57 C 477.851 954.07 477.115 953.57 476.378 953.07 z"/>
<path transform="translate(0,0)" fill="rgb(140,137,135)" d="M 1060.61 1199.39 C 1065.68 1198.9 1076.16 1199.36 1081.82 1199.36 C 1092.73 1199.26 1103.64 1199.01 1114.54 1198.59 L 1115.35 1200.25 C 1108.41 1202.33 1066.68 1203.09 1060.61 1199.39 z"/>
<path transform="translate(0,0)" fill="rgb(255,255,255)" d="M 1397.18 942.567 C 1396.36 943.403 1393.58 946.08 1393.12 946.886 C 1388.86 948.472 1375.61 949.23 1371.81 946.814 L 1371.49 945.148 C 1375.43 941.844 1391.21 942.62 1397.18 942.567 z"/>
<path transform="translate(0,0)" fill="rgb(255,255,255)" d="M 412.911 927.947 C 404.828 928.376 396.846 929.461 389.223 926.831 L 389.033 925.531 C 394.935 922.46 405.916 922.633 411.795 925.257 L 412.911 927.947 z"/>
<path transform="translate(0,0)" fill="rgb(231,228,230)" d="M 462.193 960.381 C 469.219 961.605 480.438 959.216 485.103 963.026 C 472.513 963.719 453.968 962.03 443.661 963.68 L 439.888 961.028 C 447.143 961.021 454.899 960.627 462.193 960.381 z"/>
<path transform="translate(0,0)" fill="rgb(231,228,230)" d="M 562.836 694.843 C 569.287 693.534 603.774 693.684 609.414 694.999 L 609.727 695.475 C 596.89 696.804 577.002 696.201 562.837 696.825 L 562.836 694.843 z"/>
<path transform="translate(0,0)" fill="rgb(237,127,39)" d="M 957.74 850.236 C 952.513 851.217 943.215 851.924 938.449 849.205 L 938.309 847.81 C 943.629 844.433 950.542 845.996 956.726 846.752 L 957.74 850.236 z"/>
<path transform="translate(0,0)" fill="rgb(231,228,230)" d="M 411.795 925.257 C 417.023 923.656 429.471 922.085 433.983 925.411 C 429.961 929.061 418.557 928.007 412.911 927.947 L 411.795 925.257 z"/>
<path transform="translate(0,0)" fill="rgb(101,98,98)" d="M 397.219 918.466 C 401.61 917.876 432.752 917.322 435.374 919.337 L 434.03 920.121 C 428.711 920.003 399.249 921.514 397.321 920.552 L 397.219 918.466 z"/>
<path transform="translate(0,0)" fill="rgb(186,183,182)" d="M 540.255 960.499 C 553.413 960.574 555.386 958.949 568.923 962.74 C 561.998 962.972 555.069 963.067 548.14 963.024 L 547.148 962.051 C 542.357 963.844 532.079 963.216 526.875 962.71 C 530.152 962.449 536.559 961.056 540.255 960.499 z"/>
<path transform="translate(0,0)" fill="rgb(186,183,182)" d="M 451.089 918.512 C 459.002 917.822 485.473 916.671 491.652 919.459 C 483.556 920.265 458.069 921.063 451.089 918.512 z"/>
<path transform="translate(0,0)" fill="rgb(202,200,194)" d="M 1460.04 693.259 C 1465.81 692.897 1479.18 692.397 1484.24 694.609 L 1483.47 695.455 L 1480.84 695.048 C 1474.16 695.755 1461.57 696.682 1455.2 695.197 L 1455.5 694.216 L 1460.04 693.259 z"/>
<path transform="translate(0,0)" fill="rgb(186,183,182)" d="M 630.151 962.47 C 637.571 961.662 652.777 961.478 659.97 963.299 L 660.364 964.915 C 659.634 964.92 658.903 964.922 658.172 964.92 C 652.823 964.908 633.047 965.367 630.151 962.47 z"/>
<path transform="translate(0,0)" fill="rgb(140,137,135)" d="M 629.147 694.499 C 635.513 694.081 659.985 693.089 664.379 695.935 C 658.671 696.349 633.596 696.871 628.918 695.888 L 629.147 694.499 z"/>
<path transform="translate(0,0)" fill="rgb(101,98,98)" d="M 684.849 694.506 C 691.536 693.567 713.803 694.09 720.83 694.493 C 716.637 696.947 689.358 697.409 684.849 694.506 z"/>
<path transform="translate(0,0)" fill="rgb(231,228,230)" d="M 1426.27 693.491 C 1431.78 692.809 1448.59 691.365 1452.25 695.673 C 1445.78 695.515 1439.78 696.071 1433.41 696.135 C 1428.51 696.185 1428.57 696.049 1426.27 693.491 z"/>
<path transform="translate(0,0)" fill="rgb(140,137,135)" d="M 665.629 686.101 C 675.671 687.175 683.09 685.62 694.222 687.546 C 689.661 691.677 681.632 688.429 675.432 689.095 C 671.384 689.53 669.008 688.339 665.629 686.101 z"/>
<path transform="translate(0,0)" fill="rgb(231,228,230)" d="M 1487.74 1221.34 C 1494.22 1220.16 1511.43 1219.44 1516.34 1223.87 C 1505.44 1222.62 1495.84 1225.58 1487.74 1221.34 z"/>
<path transform="translate(0,0)" fill="rgb(101,98,98)" d="M 1484.34 686.475 C 1491.23 685.332 1513.28 685.356 1519.42 687.424 C 1511.15 687.864 1490.83 689.766 1484.34 686.475 z"/>
<path transform="translate(0,0)" fill="rgb(140,137,135)" d="M 749.765 694.4 C 757.59 694.121 768.371 694.819 776.478 694.189 C 777.126 694.703 777.774 695.216 778.422 695.729 C 773.267 697.473 756.41 697.272 750.999 696.312 L 749.765 694.4 z"/>
<path transform="translate(0,0)" fill="rgb(202,200,194)" d="M 596.503 961.319 C 604.382 962.619 615.076 961.044 626.584 962.592 C 620.885 965.939 602.233 964.985 596.503 961.319 z"/>
<path transform="translate(0,0)" fill="rgb(237,127,39)" d="M 1107.42 857.452 C 1113.31 856.77 1123.51 853.913 1125.7 860.565 C 1120.64 860.576 1112.88 860.931 1108.3 859.489 L 1107.42 857.452 z"/>
<path transform="translate(0,0)" fill="rgb(163,157,155)" d="M 1036.55 1224.92 C 1040.92 1225.07 1055.15 1226.17 1058.13 1228.51 C 1048.66 1229.07 1041.9 1233.34 1036.55 1224.92 z"/>
<path transform="translate(0,0)" fill="rgb(163,157,155)" d="M 1447.89 686.489 C 1453.62 685.892 1473.39 686.232 1478.34 687.65 C 1471.69 688.324 1452.07 691.169 1447.89 686.489 z"/>
<path transform="translate(0,0)" fill="rgb(140,137,135)" d="M 1415.84 686.535 C 1422.42 686.265 1443.09 684.326 1447.29 687.843 C 1439.85 688.571 1424.03 688.204 1416.5 687.667 L 1415.84 686.535 z"/>
<path transform="translate(0,0)" fill="rgb(202,200,194)" d="M 1385.79 680.535 C 1394.6 679.787 1402.21 679.882 1411.05 680.6 C 1401.78 682.697 1392.01 681.424 1386.84 682.699 L 1385.79 680.535 z"/>
<path transform="translate(0,0)" fill="rgb(202,200,194)" d="M 567.522 961.372 C 574.059 961.129 585.08 960.712 591.297 962.502 L 590.703 963.823 C 583.83 964.182 573.256 964.104 566.625 962.435 L 567.522 961.372 z"/>
<path transform="translate(0,0)" fill="rgb(163,157,155)" d="M 498.556 963.111 C 506.957 959.552 515.366 961.254 523.76 963.066 C 517.999 964.395 504.116 964.533 498.556 963.111 z"/>
<path transform="translate(0,0)" fill="rgb(140,137,135)" d="M 626.605 955.439 C 630.111 955.297 633.621 955.263 637.13 955.336 C 640.192 955.419 647.689 955.438 649.458 957.333 L 648.078 957.846 C 641.175 958.114 631.699 958.334 625.11 956.42 L 626.605 955.439 z"/>
<path transform="translate(0,0)" fill="rgb(53,42,35)" d="M 1427.18 919.75 C 1432.17 919.58 1435.63 918.942 1439.21 922.16 L 1438.75 924 C 1434.66 923.892 1430.67 925.104 1427.64 923.565 C 1427.89 922.287 1427.44 921.011 1427.18 919.75 z"/>
<path transform="translate(0,0)" fill="rgb(101,98,98)" d="M 658.583 686.571 C 660.465 686.512 662.347 686.484 664.229 686.488 L 665.286 687.657 C 662.072 689.338 662.274 688.624 657.868 688.132 C 655.181 688.771 649.429 690.147 647.511 687.823 C 650.496 686.045 654.928 686.563 658.583 686.571 z"/>
<path transform="translate(0,0)" fill="rgb(151,84,47)" d="M 1045.09 835.969 C 1051.51 836.095 1059.22 836.418 1065.56 836.028 C 1062.64 836.823 1059.78 837.351 1057.16 838.739 C 1052.89 837.916 1052.89 837.964 1048.52 838.315 C 1047.53 838.997 1046.93 839.241 1046.23 840.131 C 1046.02 839.019 1045.42 837.118 1045.09 835.969 z"/>
<path transform="translate(0,0)" fill="rgb(140,137,135)" d="M 727.002 694.461 C 730.577 694.127 738.765 693.152 741.463 695.065 L 740.782 696.331 C 735.835 696.562 731.411 696.894 726.6 695.773 L 727.002 694.461 z"/>
<path transform="translate(0,0)" fill="rgb(101,98,98)" d="M 1534.63 1221.38 C 1538.28 1221.11 1544.98 1220.6 1548.2 1221.93 L 1547.64 1223.42 C 1543.23 1223.59 1540.29 1223.6 1535.9 1223.33 L 1534.63 1221.38 z"/>
<path transform="translate(0,0)" fill="rgb(101,98,98)" d="M 1555.87 957.954 C 1559.89 958.04 1564.71 958.004 1568.66 958.347 L 1569.37 959.585 L 1570.97 959.271 L 1570.17 959.506 L 1569.95 958.558 L 1568.72 959.742 C 1564.02 959.95 1559.76 960.146 1555.04 960.082 L 1555.87 957.954 z"/>
<path transform="translate(0,0)" fill="rgb(140,137,135)" d="M 995.195 1225.4 C 999.878 1225.11 1008.59 1225.2 1012.65 1227.58 C 1007.91 1229.18 999.719 1227.45 995.195 1225.4 z"/>
<path transform="translate(0,0)" fill="rgb(101,98,98)" d="M 1517.49 1222.48 C 1522.52 1221.81 1529.24 1220.8 1533.6 1223.49 C 1528.01 1224.11 1522.47 1225.05 1517.49 1222.48 z"/>
<path transform="translate(0,0)" fill="rgb(101,98,98)" d="M 1494.2 951.911 C 1498.99 951.56 1500.06 951.283 1504.64 952.289 L 1505.08 953.313 C 1500.74 954.637 1498.63 954.224 1493.99 954.037 L 1494.2 951.911 z"/>
<path transform="translate(0,0)" fill="rgb(140,137,135)" d="M 664.451 962.333 C 667.725 962.049 673.971 961.212 676.42 962.994 L 675.705 964.307 C 671.792 964.308 667.02 964.621 663.376 963.509 L 664.451 962.333 z"/>
<path transform="translate(0,0)" fill="rgb(186,183,182)" d="M 665.476 694.585 C 669.784 694.113 672.529 693.508 676.741 694.426 L 677.277 696.157 C 672.82 696.465 670.807 696.592 666.39 696.284 L 665.476 694.585 z"/>
<path transform="translate(0,0)" fill="rgb(101,98,98)" d="M 1582.01 958.529 C 1586.05 957.25 1590.51 957.956 1594.37 959.513 C 1590.31 960.069 1584.98 961.472 1582.01 958.529 z"/>
<path transform="translate(0,0)" fill="rgb(186,183,182)" d="M 609.75 1213.41 C 612.856 1212.8 620.633 1211.9 622.068 1215.28 C 617.88 1215.26 613.643 1215.49 609.618 1214.5 L 609.75 1213.41 z"/>
<path transform="translate(0,0)" fill="rgb(163,157,155)" d="M 1469.41 918.487 C 1472.79 917.957 1475.15 917.184 1478.29 918.373 L 1478.67 920.385 C 1474.76 920.665 1474.38 920.696 1470.53 920.19 L 1469.41 918.487 z"/>
<path transform="translate(0,0)" fill="rgb(140,137,135)" d="M 660.183 1132.36 C 664.003 1132.37 667.401 1131.86 670.418 1133.98 C 666.069 1135.31 662.57 1136.69 660.183 1132.36 z"/>
<path transform="translate(0,0)" fill="rgb(101,98,98)" d="M 606.952 955.277 C 610.994 955.384 612.621 955.201 616.395 956.425 L 616.511 958.236 C 611.374 957.626 609.501 958.433 606.952 955.277 z"/>
<path transform="translate(0,0)" fill="rgb(163,157,155)" d="M 1532.19 958.495 C 1537.23 957.784 1539.43 957.68 1544.3 958.597 C 1539.24 960.439 1537.04 961.072 1532.19 958.495 z"/>
<path transform="translate(0,0)" fill="rgb(202,200,194)" d="M 1483.19 952.304 C 1486.87 952.054 1490.52 951.7 1494.2 951.911 L 1493.99 954.037 C 1489.65 954.299 1488.19 952.925 1483.62 953.38 L 1483.19 952.304 z"/>
<path transform="translate(0,0)" fill="rgb(202,200,194)" d="M 664.104 956.575 C 667.717 955.197 669.724 956.128 672.945 957.553 C 669.415 958.169 668.949 958.11 665.505 958.037 L 664.104 956.575 z"/>
<path transform="translate(0,0)" fill="rgb(163,157,155)" d="M 1555.04 960.082 C 1552.11 960.139 1550.03 960.571 1547.66 958.996 C 1550.1 957.372 1552.79 957.887 1555.87 957.954 L 1555.04 960.082 z"/>
<path transform="translate(0,0)" fill="rgb(101,98,98)" d="M 1525.86 686.5 C 1530.55 685.761 1532.01 685.715 1536.23 687.52 C 1531.39 688.279 1529.92 688.786 1525.86 686.5 z"/>
</svg>