<svg version="1.1" xmlns="http://www.w3.org/2000/svg" style="display: block;" viewBox="0 0 2048 2048" width="1024" height="1024" preserveAspectRatio="none">
<defs>
	<linearGradient id="Gradient1" gradientUnits="userSpaceOnUse" x1="1178.89" y1="1359.78" x2="1182.57" y2="1399.95">
		<stop class="stop0" offset="0" stop-opacity="1" stop-color="rgb(0,0,0)"/>
		<stop class="stop1" offset="1" stop-opacity="1" stop-color="rgb(36,31,30)"/>
	</linearGradient>
	<linearGradient id="Gradient2" gradientUnits="userSpaceOnUse" x1="1071.63" y1="1228.96" x2="1205.08" y2="1214.36">
		<stop class="stop0" offset="0" stop-opacity="1" stop-color="rgb(0,0,0)"/>
		<stop class="stop1" offset="1" stop-opacity="1" stop-color="rgb(48,42,42)"/>
	</linearGradient>
</defs>
<path transform="translate(0,0)" fill="rgb(255,255,255)" d="M 0 0 L 2048 0 L 2048 2048 L 0 2048 L 0 0 z"/>
<path transform="translate(0,0)" fill="rgb(4,2,3)" d="M 863.253 872.482 C 843.947 879.479 830.354 884.549 809.483 885.192 C 770.645 886.509 732.878 872.32 704.514 845.757 C 676.352 819.071 661.963 787.188 660.989 748.452 C 660.108 711.195 673.927 675.088 699.457 647.939 C 726.987 619.155 765.016 604.101 804.602 603.299 C 841.558 602.693 877.186 617.07 903.372 643.155 C 930.518 670.255 945.648 707.119 945.369 745.476 C 945.416 791.257 930.842 817.777 899.086 849.3 C 902.39 859.558 909.614 868.467 915.187 877.724 C 931.089 904.331 948.414 927.538 968.406 951.176 C 994.464 981.986 1010.73 1003.47 1054.03 986.041 C 1084.44 973.794 1109.59 956.758 1137.87 940.892 C 1191.45 910.832 1243.22 877 1297.03 847.498 C 1287.01 823.877 1282.32 802.515 1288.45 777.287 C 1294.55 752.302 1310.48 730.838 1332.63 717.772 C 1355.13 704.469 1382.02 700.703 1407.31 707.313 C 1490.71 729.437 1508.9 841.053 1431.08 885.884 C 1407.34 898.889 1381.43 901.923 1355.29 894.355 C 1349.91 892.763 1344.71 890.601 1339.78 887.906 C 1330.73 882.955 1325.28 879.453 1317.1 873.064 C 1306.21 880.298 1294.81 886.254 1283.55 892.866 C 1237.18 920.099 1193.01 951.399 1148.84 982.01 C 1122.07 1000.56 1091.75 1019.4 1070.43 1044.04 C 1061.6 1054.52 1058.17 1060.53 1059.41 1075.53 C 1060.66 1090.57 1068.17 1110.24 1074.51 1123.87 C 1090.89 1157.11 1127.83 1207.47 1152.76 1235.08 C 1178.02 1234.54 1197.5 1231.28 1220.16 1245.3 C 1216.94 1244.76 1213.89 1243.75 1210.75 1242.84 L 1209.81 1244.2 C 1197.86 1241.41 1187.19 1241.73 1175 1241.61 C 1162.32 1241.14 1152.75 1240.29 1140.89 1246.12 C 1115.44 1258.65 1100.47 1285.19 1098.47 1312.96 C 1098.24 1316.17 1100.27 1320.27 1101.47 1323.27 C 1099.76 1323.95 1100.77 1323.68 1098.37 1323.82 L 1098.45 1325.24 C 1100.92 1325.98 1101.57 1326.05 1104.15 1326.37 L 1104.6 1327.7 C 1102.21 1328.6 1100.11 1329.27 1097.9 1330.57 L 1096.11 1335.15 C 1091.84 1312.27 1095.72 1290.84 1107.84 1271.13 C 1111.06 1265.89 1114.71 1261.78 1114.95 1256.48 L 1114.15 1253.64 C 1110.05 1238.74 1098.73 1219.58 1089.78 1206.55 C 1022.88 1109.21 1004.05 1072.66 893.928 1147.73 C 888.584 1151.65 883.178 1155.49 877.712 1159.23 C 868.578 1167.69 855.552 1178.86 850.687 1190.26 C 847.658 1197.36 850.139 1208.96 850.015 1216.98 C 849.569 1245.86 836.632 1276.2 818.198 1297.91 C 796.729 1323.44 765.792 1339.12 732.513 1341.35 C 697.651 1343.82 663.574 1334.22 637.149 1310.88 C 611.394 1288.28 595.876 1256.22 594.125 1222.01 C 592.402 1188.85 603.941 1156.37 626.197 1131.74 C 649.55 1106.13 682.105 1090.82 716.724 1089.18 C 757.167 1087.26 787.453 1102.48 816.756 1128.84 C 821.04 1129.12 827.47 1129.57 831.481 1128.68 C 863.331 1121.65 927.818 1084.87 952.248 1064.54 C 951.947 1048.86 955.374 1031.79 952.61 1016.41 C 946.655 983.253 886.08 901.672 863.253 872.482 z"/>
<path transform="translate(0,0)" fill="rgb(255,255,255)" d="M 957.109 1066.85 C 956.861 1057.92 955.815 1044.98 957.825 1036.86 C 966.89 1000.26 1019.44 990.192 1043.31 1018.23 C 1047.63 1023.31 1049.73 1027.4 1052.75 1033.09 C 1062.99 1062.02 1049.01 1086.61 1024.14 1101.45 C 994.788 1109.3 982.674 1104.12 963.597 1081.72 C 954.956 1085.82 940.943 1093.78 932.299 1098.66 C 931.773 1101.52 932.59 1102.74 933.664 1105.45 C 931.327 1104.91 931.016 1104.1 929.053 1102.3 C 926.169 1101.93 927.551 1101.75 924.791 1103.02 C 925.64 1105.04 926.732 1104.93 929.347 1106.2 C 926.291 1107.67 922.794 1107.38 919.639 1108.3 C 915.377 1109.54 909.736 1113.53 905.998 1116.09 L 903.189 1117.25 L 900.132 1120.49 C 900.823 1126.26 904.848 1122.85 902.914 1126.86 C 899.181 1127.5 899.452 1127.49 895.831 1126.35 L 895.281 1125.02 L 897.095 1123.04 C 894.197 1123.84 878.78 1131.7 877.967 1133.61 L 871.989 1135.48 L 871.632 1136.96 L 874.549 1140.83 C 871.067 1142.64 869.063 1138.16 864.062 1139.92 C 863.899 1142.53 863.826 1142.36 865.027 1144.66 L 861.451 1146.08 L 859.778 1144.57 C 856.176 1145.34 856.024 1146.77 852.904 1150.18 C 847.683 1145.17 838.816 1138.86 832.828 1134.33 C 868.469 1123.45 927.619 1089.88 957.109 1066.85 z"/>
<path transform="translate(0,0)" fill="rgb(243,129,47)" d="M 1003.27 1028.29 C 1014.63 1026.05 1025.66 1033.42 1027.95 1044.77 C 1030.24 1056.12 1022.92 1067.19 1011.57 1069.53 C 1000.16 1071.88 989.012 1064.5 986.711 1053.08 C 984.409 1041.66 991.833 1030.54 1003.27 1028.29 z"/>
<path transform="translate(0,0)" fill="url(#Gradient2)" d="M 1069.52 1129.33 C 1071.33 1127.59 1072.14 1125.95 1074.51 1123.87 C 1090.89 1157.11 1127.83 1207.47 1152.76 1235.08 C 1178.02 1234.54 1197.5 1231.28 1220.16 1245.3 C 1216.94 1244.76 1213.89 1243.75 1210.75 1242.84 L 1209.81 1244.2 C 1197.86 1241.41 1187.19 1241.73 1175 1241.61 C 1162.32 1241.14 1152.75 1240.29 1140.89 1246.12 C 1115.44 1258.65 1100.47 1285.19 1098.47 1312.96 C 1098.24 1316.17 1100.27 1320.27 1101.47 1323.27 C 1099.76 1323.95 1100.77 1323.68 1098.37 1323.82 L 1098.45 1325.24 C 1100.92 1325.98 1101.57 1326.05 1104.15 1326.37 L 1104.6 1327.7 C 1102.21 1328.6 1100.11 1329.27 1097.9 1330.57 L 1096.11 1335.15 C 1091.84 1312.27 1095.72 1290.84 1107.84 1271.13 C 1111.06 1265.89 1114.71 1261.78 1114.95 1256.48 C 1117.48 1256.79 1116.33 1257.1 1118.51 1256 C 1122.07 1255.32 1129.65 1248.66 1132.86 1245.97 L 1133 1244.04 C 1129.03 1241.51 1128.17 1239.68 1126.55 1235.49 L 1125.68 1235.51 C 1122.75 1233.57 1116.89 1223.97 1114.55 1220.44 L 1108.65 1212.42 L 1104.11 1204.63 C 1101.25 1200.07 1098.31 1195.55 1095.31 1191.08 C 1094.16 1190.45 1092.94 1188.52 1092.05 1187.35 L 1091.18 1185.42 C 1091.99 1183.3 1092.77 1181.46 1093.68 1179.38 L 1092.99 1178.68 C 1091.63 1180.35 1090.92 1181.2 1089.38 1182.7 L 1085.08 1178.23 C 1083.31 1175.61 1081.73 1174.03 1081.8 1170.96 C 1082.66 1169.96 1083.25 1169.25 1084.05 1168.18 L 1084.76 1167.22 C 1079.73 1167.31 1080.94 1170.09 1076.62 1166.26 C 1078.54 1163.18 1080.71 1165.23 1083.05 1161.83 L 1081.04 1160.85 C 1075.53 1161.91 1076.02 1162.52 1072.1 1159.06 C 1070.86 1155.65 1069.86 1154.66 1067.68 1151.82 C 1062.02 1142.92 1067.72 1145.1 1067.44 1139.11 L 1062.55 1144.47 C 1060.19 1143.2 1060.4 1142.23 1058.94 1139.23 C 1064.88 1135.81 1065.69 1135.12 1069.52 1129.33 z"/>
<path transform="translate(0,0)" fill="rgb(4,2,3)" d="M 1067.68 1151.82 C 1070.66 1145.68 1072.45 1142.8 1079.47 1143.78 C 1081.9 1146.15 1081.17 1144.71 1081.33 1148.43 C 1079.86 1151.39 1074.55 1157.05 1072.1 1159.06 C 1070.86 1155.65 1069.86 1154.66 1067.68 1151.82 z"/>
<path transform="translate(0,0)" fill="rgb(25,24,23)" d="M 1126.55 1235.49 C 1129.6 1237 1129.64 1237.75 1132.04 1237.02 C 1132.23 1234.44 1132.31 1235.74 1130.66 1233 C 1133.75 1230.34 1134.2 1230.27 1138.04 1228.69 L 1140.92 1230.32 L 1141.31 1232.21 L 1138.43 1236.27 C 1140.34 1242.18 1141.84 1236.12 1141.51 1241.81 L 1139.33 1242.77 C 1137.52 1241.83 1136.33 1241.21 1134.63 1240.11 C 1132.66 1242.09 1133.4 1240.92 1133 1244.04 C 1129.03 1241.51 1128.17 1239.68 1126.55 1235.49 z"/>
<path transform="translate(0,0)" fill="rgb(4,2,3)" d="M 1095.31 1191.08 L 1098.92 1190.95 C 1101.56 1194.07 1099.57 1196.97 1102.53 1197.87 C 1107.07 1199.25 1113.66 1196.8 1113.3 1203.26 C 1109.61 1205.6 1109.27 1203.78 1104.11 1204.63 C 1101.25 1200.07 1098.31 1195.55 1095.31 1191.08 z"/>
<path transform="translate(0,0)" fill="rgb(4,2,3)" d="M 1084.76 1167.22 L 1086.27 1169.92 C 1088.04 1169.71 1089.75 1169.6 1091.53 1169.65 L 1092.33 1170.49 C 1091.05 1171.32 1089.87 1172.15 1088.69 1173.12 L 1089.41 1175.83 C 1088.26 1177.66 1088.01 1177.1 1085.08 1178.23 C 1083.31 1175.61 1081.73 1174.03 1081.8 1170.96 C 1082.66 1169.96 1083.25 1169.25 1084.05 1168.18 L 1084.76 1167.22 z"/>
<path transform="translate(0,0)" fill="rgb(4,2,3)" d="M 1108.65 1212.42 L 1112.01 1212.61 C 1115.29 1214.57 1119.07 1213.64 1123.85 1213.87 L 1125.7 1214.7 C 1120.4 1217.58 1118.73 1215.58 1114.55 1220.44 L 1108.65 1212.42 z"/>
<path transform="translate(0,0)" fill="rgb(4,2,3)" d="M 1093.68 1179.38 C 1097.53 1179.52 1098.98 1178.79 1101.02 1180.79 C 1099.1 1183.65 1095.13 1185.52 1092.05 1187.35 L 1091.18 1185.42 C 1091.99 1183.3 1092.77 1181.46 1093.68 1179.38 z"/>
<path transform="translate(0,0)" fill="rgb(86,86,84)" d="M 1112.01 1212.61 C 1115.21 1211.74 1120.64 1211.37 1123.65 1213.04 L 1123.85 1213.87 C 1119.07 1213.64 1115.29 1214.57 1112.01 1212.61 z"/>
<path transform="translate(0,0)" fill="rgb(255,255,255)" d="M 1118.51 1256 C 1107.91 1212.64 1035.33 1130.35 1033.99 1122.86 L 1036.59 1121.69 C 1042.2 1122.31 1039 1125.8 1042.42 1125.74 C 1046.48 1125.66 1051.53 1123.35 1055.57 1125.65 L 1055.89 1127.78 C 1051.11 1128.7 1054.79 1124.98 1049.85 1126.99 C 1050.7 1130.71 1055.39 1137.64 1058.94 1139.23 C 1060.4 1142.23 1060.19 1143.2 1062.55 1144.47 L 1067.44 1139.11 C 1067.72 1145.1 1062.02 1142.92 1067.68 1151.82 C 1069.86 1154.66 1070.86 1155.65 1072.1 1159.06 C 1076.02 1162.52 1075.53 1161.91 1081.04 1160.85 L 1083.05 1161.83 C 1080.71 1165.23 1078.54 1163.18 1076.62 1166.26 C 1080.94 1170.09 1079.73 1167.31 1084.76 1167.22 L 1084.05 1168.18 C 1083.25 1169.25 1082.66 1169.96 1081.8 1170.96 C 1081.73 1174.03 1083.31 1175.61 1085.08 1178.23 L 1089.38 1182.7 C 1090.92 1181.2 1091.63 1180.35 1092.99 1178.68 L 1093.68 1179.38 C 1092.77 1181.46 1091.99 1183.3 1091.18 1185.42 L 1092.05 1187.35 C 1092.94 1188.52 1094.16 1190.45 1095.31 1191.08 C 1098.31 1195.55 1101.25 1200.07 1104.11 1204.63 L 1108.65 1212.42 L 1114.55 1220.44 C 1116.89 1223.97 1122.75 1233.57 1125.68 1235.51 L 1126.55 1235.49 C 1128.17 1239.68 1129.03 1241.51 1133 1244.04 L 1132.86 1245.97 C 1129.65 1248.66 1122.07 1255.32 1118.51 1256 z"/>
<path transform="translate(0,0)" fill="rgb(25,24,23)" d="M 1052.75 1033.09 C 1055.47 1030.71 1055.75 1029.66 1058.8 1029.03 C 1060.37 1034.97 1054.63 1039.76 1058.52 1046.7 C 1061.44 1042.14 1058.92 1042.55 1062.36 1040.07 C 1065.92 1039.75 1068.16 1041.52 1070.43 1044.04 C 1061.6 1054.52 1058.17 1060.53 1059.41 1075.53 C 1060.66 1090.57 1068.17 1110.24 1074.51 1123.87 C 1072.14 1125.95 1071.33 1127.59 1069.52 1129.33 C 1065.98 1130.74 1065.1 1130.03 1061.18 1129.04 C 1059.51 1127.09 1059.76 1126.78 1059.36 1124.14 C 1056.48 1122.15 1056.07 1122.42 1054.71 1119.54 C 1057.12 1117.8 1057.61 1117.85 1059.14 1115.43 C 1056.83 1114.25 1057.47 1114.68 1055.41 1112.94 C 1056.75 1110.11 1055.86 1111.42 1059.38 1109.6 L 1058.44 1108.41 C 1055.19 1108.3 1054.65 1108.78 1051.88 1110.2 L 1050.66 1109.58 C 1051.3 1106.52 1051.71 1106.61 1050.96 1103.94 C 1047.94 1102.83 1046.81 1102.05 1043.68 1101.95 C 1043.93 1104.53 1044.32 1103.81 1043.45 1105.7 C 1034.61 1101.98 1033.95 1101.08 1024.14 1101.45 C 1049.01 1086.61 1062.99 1062.02 1052.75 1033.09 z"/>
<path transform="translate(0,0)" fill="rgb(238,235,237)" d="M 1059.36 1124.14 C 1061.23 1121.56 1061.52 1120.9 1064 1118.82 L 1065.43 1119.22 C 1064.86 1123.53 1063.45 1125.18 1061.18 1129.04 C 1059.51 1127.09 1059.76 1126.78 1059.36 1124.14 z"/>
<path transform="translate(0,0)" fill="rgb(238,235,237)" d="M 903.189 1117.25 L 905.998 1116.09 C 909.483 1116.17 929.871 1116.63 931.558 1117.66 C 927.963 1120.8 912.814 1119.47 907.534 1120.05 C 906.427 1120.17 904.127 1118.18 903.189 1117.25 z"/>
<path transform="translate(0,0)" fill="rgb(200,193,189)" d="M 861.451 1146.08 L 865.027 1144.66 C 865.036 1146.98 865 1145.99 865.11 1147.68 C 868.456 1150.89 872.234 1153.5 873.037 1157.81 C 867.646 1154.11 866.129 1152.95 861.346 1148.36 L 861.451 1146.08 z"/>
<path transform="translate(0,0)" fill="rgb(255,255,255)" d="M 678.912 804.159 C 672.016 791.347 679.818 796.046 679.398 788.522 L 677.886 787.277 C 675.971 789.305 675.888 789.999 674.603 792.508 L 673.258 791.836 L 672.55 789.343 C 673.385 786.911 673.69 786.57 673.72 784.045 C 671.355 783.165 671.486 783.02 669.736 781.127 C 663.483 760.673 664.033 733.882 668.806 713.2 C 676.887 678.315 698.484 648.063 728.854 629.09 C 755.698 612.53 777.249 608.562 807.923 609.471 C 825.242 609.984 833.299 609.399 850.958 613.578 C 836.652 614.351 804.407 613.103 793.5 614.923 C 795.981 618.766 839.222 616.175 846.432 616.7 C 858.318 617.567 860.687 617.787 870.686 624.333 C 860.556 623.905 818.829 622.506 810.654 624.608 L 810.948 625.722 L 815.088 627.23 L 818.532 630.765 C 821.754 632.684 822.543 633.363 826.29 634.196 L 827.774 637.315 C 831.567 646.558 890.371 635.498 898.317 644.664 C 892.981 649.668 843.114 644.024 837.383 646.63 L 837.961 648.039 C 851.389 651.807 897.985 645.671 906.929 652.546 L 907.56 654.679 C 893.607 656.968 855.493 652.391 843.816 656.673 C 853.095 662.589 909.857 653.011 913.583 661.908 C 908.935 664.592 856.063 661.15 849.492 663.577 C 851.098 665.924 851.252 665.728 853.858 667.038 C 854.623 668.652 854.652 668.291 854.861 669.985 L 854.786 672.282 C 860.18 676.096 917.25 667.597 923.943 675.827 L 923.557 677.425 C 917.393 678.789 869.06 678.207 859.64 678.5 L 859.219 680.123 C 866.092 685.68 920.182 674.836 927.983 684.851 L 927.824 686.989 C 922.215 690.376 867.283 685.191 863.649 690.053 L 864.861 691.614 C 876.264 691.277 925.616 688.312 931.527 693.235 L 931.433 695.19 C 921.235 697.519 871.584 694.637 866.638 698.7 L 867.381 700.272 L 867.674 705.798 C 881.635 710.29 931.634 700.855 937.73 709.851 C 937.141 712.944 937.823 711.668 935.75 713.884 C 924.924 714.964 876.756 712.851 871.423 715.248 L 871.697 716.786 C 880.771 718.99 930.568 713.22 938.28 719.458 L 937.972 721.051 C 928.141 726.67 876.151 718.875 870.222 726.229 L 870.942 733.228 L 871.999 734.683 C 886.172 736.16 930.323 731.759 939.902 735.753 L 941.074 737.37 L 940.668 739.519 C 931.061 741.197 873.807 738.36 870.774 742.421 C 875.287 746.898 931.686 739.899 940.925 743.731 C 941.288 747.136 941.455 747 940.381 750.191 C 931.634 753.29 874.784 749.167 869.648 751.959 L 870.353 753.377 C 881.866 755.949 936.697 751.698 940.352 754.94 C 940.143 757.753 940.357 759.303 938.599 761.468 C 926.635 763.542 871.053 760.241 865.507 762.942 L 865.941 764.233 C 876.987 766.127 935.261 763.443 939.485 765.689 C 939.681 768.477 940.076 767.284 938.308 769.399 C 928.003 770.044 864.917 767.961 861.727 771.143 L 862.259 772.915 L 862.361 775.093 L 857.829 776.811 C 856.169 782.004 857.404 780.786 853.61 783.225 L 852.674 785.646 L 851.688 788.809 L 847.837 791.715 L 846.797 795.351 C 844.13 796.77 844.208 796.535 841.973 798.433 L 838.112 803.639 L 834.628 805.35 L 834.597 806.335 C 840.905 807.555 854.97 806.917 862.186 806.91 L 905.5 807.212 C 910.473 807.249 921.172 806.875 925.241 808.155 L 925.736 809.514 C 923.962 812.475 925.157 811.511 922.355 812.851 L 920.918 812.676 C 910.654 811.497 833.466 811.432 824.915 813.739 L 824.241 814.89 C 836.002 818.782 914.464 811.293 921.143 816.773 C 920.403 819.645 916.38 821.341 913.653 821.206 C 906.317 820.844 899.15 820.632 891.805 820.687 C 865.501 820.885 839.277 821.277 813.006 819.615 C 811.109 819.495 808.599 820.83 807.125 821.967 L 804.559 821.957 C 802.963 823.783 802.699 823.918 801.664 826.071 L 801.198 826.146 C 801.378 826.594 801.646 827.017 801.738 827.491 C 802.478 831.269 773.288 869.52 768.68 873.7 C 766.722 875.477 765.464 874.93 763.008 874.742 L 762.534 873.488 C 764.464 868.533 795.027 829.331 799.738 825.829 C 797.777 826.013 794.089 826.165 792.805 827.791 C 781.242 842.436 770.063 857.535 758.646 872.303 C 756.168 873.278 757.499 873.122 754.487 871.922 C 750.656 862.969 779.975 837.889 781.789 828.831 C 773.698 831.041 755.853 861.594 748.806 868.417 C 744.763 868.543 746.655 868.965 742.984 866.866 C 741.202 862.267 767.567 833.271 768.294 828.964 C 756.569 831.825 742.446 869.794 733.393 862.536 C 733.081 857.88 750.187 839.077 754.833 828.367 L 754.326 827.578 C 746.655 834.19 734.015 857.247 729.235 859.006 L 726.406 857.471 C 723.218 851.449 743.388 835.643 745.163 826.899 L 742.815 825.567 C 735.915 834.174 728.782 846.529 721.662 853.784 C 718.937 853.005 720.1 853.685 718.369 851.328 C 719.361 844.634 732.978 828.757 737.99 823.327 L 734.942 822.133 C 729.871 828.178 719.008 844.82 713.666 847.837 C 710.999 846.357 711.978 847.398 710.71 844.532 C 711.874 837.04 722.771 825.779 728.373 820.424 L 724.065 817.602 C 722.408 823.415 712.315 838.876 705.039 839.268 L 703.725 837.783 C 704.361 830.664 714.486 820.306 719.95 816.095 L 715.814 814.52 C 712.324 818.861 703.312 831.761 697.951 831.775 C 697.553 825.696 706.805 816.233 711.242 812.541 L 707.546 810.216 C 703.051 815.893 699.061 822.259 693.411 826.258 L 692.058 825.997 C 692.354 818.72 697.809 812.682 701.775 806.535 L 699.523 805.204 L 695.175 801.766 C 693.317 801.375 693.028 800.714 691.269 799.348 L 688.075 795.857 L 685.845 794.682 C 682.25 796.348 681.004 800.245 678.912 804.159 z"/>
<path transform="translate(0,0)" fill="rgb(255,255,255)" d="M 607.096 1226.74 L 604.848 1224.78 C 601.895 1224.78 602.478 1225.15 599.568 1227.52 L 598.344 1226.27 C 598.981 1220.01 601.367 1222.82 602.024 1217.56 C 600.033 1217.41 601.13 1217.4 598.701 1217.67 C 594.219 1154.76 650.099 1097.82 711.84 1093.26 C 723.558 1092.4 724.674 1092.45 734.881 1097.74 L 737.856 1101.23 L 739.59 1104.52 L 742.968 1109.9 L 746.632 1112.79 L 750.958 1118.56 C 760.55 1125.98 796.674 1115.34 805.147 1124.39 C 800.835 1127.07 762.32 1124.56 759.315 1127 C 767.439 1132.84 808.461 1124.62 811.143 1131.78 C 800.859 1136.29 768.026 1131.73 765.189 1135.46 L 766.088 1136.75 C 778.658 1138.66 801.943 1135.33 815.171 1137.63 C 817.459 1138.03 817.959 1139.31 819.335 1141.04 L 819.026 1142.37 C 812.278 1142.3 774.196 1141.39 770.448 1144.15 L 771.112 1145.67 L 773.71 1153.16 C 782.902 1160.6 825.644 1147.44 830.847 1158.84 C 824.64 1164.51 779.416 1157.75 777.331 1162.16 L 777.869 1163.11 L 779.483 1168.7 L 779.485 1171.91 L 781.013 1177.26 L 780.257 1180.07 L 779.845 1187.25 C 786.579 1192.2 836.052 1186.77 844.204 1190.96 L 844.128 1192.6 C 834.73 1199.09 785.392 1192.33 780.557 1197.79 C 791.562 1201.08 841.03 1195.75 844.969 1200.15 C 844.841 1201.68 845.127 1202.53 844.076 1203.18 C 834.92 1208.78 784.835 1201.15 778.898 1206.36 L 779.201 1207.71 C 784.4 1208.78 791.831 1207.97 797.314 1208.09 C 811.725 1208.41 830.022 1206.91 844.171 1208.51 C 845.779 1211.03 845.15 1211.12 845.023 1214.74 C 839.177 1219.12 780.921 1213.02 775.515 1217.38 C 783.73 1221.82 841.896 1215.26 845.221 1221.12 L 844.599 1224.96 C 837.054 1227.83 777.402 1222.15 770.127 1226.04 L 770.303 1227.62 C 782.976 1230.35 837.566 1225.64 843.645 1229.71 L 843.065 1231.24 C 833.879 1234.89 780.452 1230.86 766.614 1233.11 C 766.453 1233.14 765.251 1235.46 765.044 1236 C 763.397 1240.22 764.732 1238.54 760.668 1241.03 L 757.139 1243.73 L 754.232 1249.31 C 751.156 1251.18 751.566 1250.12 750.538 1252.56 C 777.902 1251.55 806.382 1253.41 833.929 1252.08 C 836.474 1251.96 836.817 1251.92 838.642 1253.39 C 837.696 1257.24 838.659 1255.78 836.283 1258.29 C 817.581 1259.95 748.883 1256.72 738.419 1260.84 L 736.862 1261.45 C 734.218 1262.72 732.918 1264.25 731.541 1266.94 C 726.414 1267.72 725.51 1267.6 721.171 1270.13 L 719.331 1271.54 C 719.859 1272.53 720.986 1274.8 721.56 1275.61 C 721.437 1278.57 691.635 1324.39 686.639 1331.92 C 683.531 1331.93 683.608 1331.73 680.707 1330.43 C 681.279 1322.71 714.338 1282.79 716.026 1272.32 C 704.601 1276.66 684.708 1326.6 673.28 1329.52 L 671.088 1328.05 L 672.967 1329.52 L 671.094 1327.76 C 675.991 1315.26 703.355 1282.34 701.764 1275.78 C 701.002 1275.99 700.241 1276.2 699.479 1276.41 C 689.321 1292.95 679.197 1310.33 667.262 1325.53 C 665.035 1324.41 662.808 1323.28 660.581 1322.16 C 663.793 1317.37 689.15 1278.09 689.324 1276.21 C 681.782 1278.12 664.366 1315.19 656.527 1320.12 C 653.639 1318.17 654.547 1319.49 653.847 1315.95 C 656.137 1307.36 672.886 1285.37 678.525 1275.52 L 677.494 1274.14 C 671.539 1276.39 656.048 1309.13 648.375 1313.98 C 645.234 1312.03 646.141 1313.35 644.672 1310.48 C 646.832 1302.59 664.717 1282.45 669.001 1272.08 C 662.052 1273.02 648.54 1299.86 641.807 1307.91 C 639.283 1307.55 638.573 1306.11 636.257 1304 C 637.957 1301.59 659.505 1268.52 659.451 1269 L 657.608 1268.62 C 650.129 1272.57 641.554 1293.33 634.261 1300.75 C 631.176 1300.47 632.653 1300.94 630.049 1298.46 C 627.955 1289.58 645.216 1274.72 649.54 1265.27 L 648.413 1263.4 C 643.742 1264.64 630.152 1288.26 626.475 1294.31 L 621.349 1287.35 C 626.625 1279.77 635.98 1267.03 640.331 1259.43 L 637.241 1256.85 L 631.984 1253.1 L 629.21 1250.26 C 627.511 1248.53 626.375 1248.08 624.279 1246.81 C 622.567 1245.14 623.556 1245.67 621.363 1245.12 C 616.221 1252.05 614.12 1257.76 609.531 1264.69 L 608.067 1263.63 C 602.164 1252.68 617.978 1248.86 617.331 1238.78 L 615.961 1238.08 L 614.059 1239.34 C 611.074 1245.8 608.634 1249.84 604.912 1255.94 L 601.884 1245.04 C 608.377 1237.61 612.854 1235.7 607.096 1226.74 z"/>
<path transform="translate(0,0)" fill="rgb(255,255,255)" d="M 1301.8 819.322 C 1296.15 814.286 1293.19 817.73 1290 813.116 L 1290.45 811.705 L 1295.39 812.644 L 1296.15 811.579 C 1294.78 808.519 1293.91 808.849 1290.22 806.854 L 1290.3 805.122 L 1292.46 804.864 L 1292.93 803.563 L 1289.63 799.703 C 1288.75 757.204 1325.85 712.876 1368.79 709.851 L 1369.5 710.595 C 1386.47 717.005 1406.9 708.691 1423.93 718.02 C 1418.44 721.419 1389.08 715.111 1387.72 719.195 C 1401.95 727.385 1428.29 716.976 1435.66 725.637 C 1428.11 728.721 1401.22 723.773 1398.25 727.49 C 1404.52 733.214 1438.18 725.249 1445.28 733.469 C 1438.41 736.405 1409.04 732.377 1405.14 734.677 C 1409.32 742.974 1444.01 732.808 1454.56 741.309 L 1454.84 742.797 C 1447.29 743.964 1415.33 741.585 1412.16 743.663 C 1415.26 751.244 1454.21 741.339 1460.34 749.541 L 1459.91 750.721 C 1450.66 751.762 1423.6 749.072 1417.62 752.045 C 1417.61 754.484 1417.31 753.391 1418.35 755.362 L 1419.56 759.049 C 1420.08 759.836 1421.7 762.424 1422.21 762.98 C 1422.36 764.578 1422.46 766.651 1422.82 768.163 C 1428.59 773.4 1464.06 763.853 1471.2 772.216 C 1467.95 776.682 1431.89 772.121 1423.98 776.074 L 1424.32 777.579 C 1435.96 779.031 1468.29 774.073 1473.87 780.077 L 1473.83 782.09 C 1467.9 785.891 1425.94 779.329 1423.81 786.043 L 1423.65 791.08 L 1422.45 794.948 L 1422.6 799.011 L 1421.33 801.45 L 1419.3 805.092 L 1418.37 809.012 C 1417.57 811.506 1417.59 812.363 1416.05 814.384 L 1414.79 816.548 C 1419.95 820.582 1472.66 815.446 1475.11 819.61 C 1471.7 829.493 1416.62 817.389 1409.04 825.287 L 1409.37 826.614 L 1410.35 826.518 C 1424.61 825.268 1457 826.387 1472.44 826.969 L 1473.45 828.407 C 1471.12 839.75 1412.34 825.668 1399.82 836.045 C 1398.86 837.503 1397.86 838.936 1397.03 840.465 C 1392.61 841.795 1391.75 842.085 1387.84 844.497 L 1389.09 848.27 C 1381.84 848.151 1378.44 848.964 1371.33 850.328 C 1363.64 850.581 1354.4 849.755 1346.61 849.265 C 1343.54 849.038 1340.51 848.631 1337.45 848.267 C 1335.36 846.238 1335.53 846.329 1332.84 845.232 C 1329.68 843.368 1326.17 842.194 1322.73 840.89 L 1319.56 837.335 L 1313.34 833.023 C 1311.54 830.139 1311.72 830.09 1309.04 828.088 L 1304.49 824.542 C 1303.51 821.674 1303.65 821.659 1301.8 819.322 z"/>
<path transform="translate(0,0)" fill="rgb(255,255,255)" d="M 1053.41 991.852 C 1084.64 977.752 1107.56 963.685 1136.69 946.658 L 1242.91 884.143 C 1250.43 879.738 1293.42 854.047 1298.25 852.735 C 1300.73 854.3 1300.55 854.181 1301.84 856.829 C 1297.52 861.529 1268.46 877.726 1263.52 883.086 L 1269.88 885.93 C 1268.16 887.356 1259.6 884.862 1257.24 886.701 C 1254.41 888.905 1237.45 898.196 1236.55 899.86 C 1237.69 902.639 1238.99 903.103 1241.53 904.767 L 1242.49 905.381 L 1240.09 905.571 C 1236.35 903.456 1231.39 900.56 1228.11 904.713 L 1229.23 908.391 L 1227.78 909.186 C 1224.96 908.032 1224.66 907.663 1221.57 907.764 L 1221.02 909.188 L 1223.9 913.452 L 1222.41 913.553 C 1208.52 914.584 1205.67 919.304 1193.09 926.047 C 1197.19 926.567 1201.05 926.505 1204.15 929.085 L 1203.94 930.347 L 1203.5 928.879 L 1203.1 928.662 L 1201.52 931.055 C 1197.4 930.582 1196.98 930.846 1194.44 927.106 C 1190.31 927.625 1192.28 926.988 1188.54 929.669 L 1188.36 931.308 C 1190.3 932.168 1192 932.872 1193.98 933.637 L 1193.87 934.688 C 1190.67 935.236 1187.23 936.052 1184.05 935.757 L 1184 934.583 L 1186.54 932.456 C 1182.52 932.16 1180.37 933.757 1177.56 936.685 C 1180.3 941.402 1183.29 942.459 1186.79 946.727 C 1182.01 943.834 1177.97 940.276 1173.02 939.198 C 1170.09 940.243 1171.03 939.612 1168.75 941.606 L 1167.92 942.106 L 1165.4 943.451 C 1166.2 946.092 1167.53 945.98 1170.79 947.855 C 1168.48 950.332 1164.22 947.872 1161.44 946.75 C 1157.26 947.444 1158.99 946.58 1155.91 949.12 L 1154.85 952.563 C 1150.27 953.25 1147.22 953.077 1144.59 956.379 L 1145.84 960.097 L 1144.51 961.017 L 1141.03 959.093 C 1136.22 961.561 1131.58 964.448 1127.04 967.383 L 1125.89 968.127 C 1122.7 969.533 1121.35 970.03 1118.44 972.078 C 1114.96 974.33 1114.1 974.961 1111.08 977.769 C 1107.9 978.935 1109.04 977.92 1107.49 980.84 L 1107.64 982.925 L 1107.85 984.328 C 1103.98 982.845 1104.56 982.422 1100.98 982.902 C 1099.88 985.887 1100.07 984.317 1100.93 987.794 L 1099.87 989.464 C 1094.72 987.909 1095.86 987.371 1091.77 988.845 L 1091.12 990.591 C 1093.23 993.326 1096.5 995.889 1096.29 998.009 C 1090.73 998.115 1090.89 993.689 1084.52 993.568 C 1082.77 994.619 1082.13 994.968 1080.5 996.214 L 1080.9 999.769 C 1073.29 1001.23 1075.06 1002.83 1069.02 1005.85 C 1065.63 1005.44 1063.11 1002.3 1060.49 999.808 L 1053.41 991.852 z"/>
<path transform="translate(0,0)" fill="rgb(255,255,255)" d="M 866.332 869.418 C 870.029 866.484 876.11 861.998 880.46 860.536 C 886.517 863.708 881.045 874.271 895.27 879.816 L 896.758 880.385 L 897.306 881.695 L 893.585 881.635 C 893.605 883.93 895.14 885.614 896.496 887.954 L 897.918 890.433 C 899.945 893.552 899.609 894.366 902.227 894.929 C 903.098 893.959 903.8 893.152 904.623 892.129 L 905.328 891.242 L 907.27 892.421 L 907.418 894.284 C 905.456 897.086 904.546 897.981 903.781 901.363 C 907.346 906.196 904.627 900.298 909.304 903.749 C 908.447 906.394 907.959 906.694 908.797 909.21 L 911.026 910.214 L 912.882 909.411 C 913.662 906.152 914.098 901.541 916.926 899.946 L 919.375 901.364 C 918.339 906.733 909.338 912.167 913.717 917.078 C 917.736 915.275 918.471 909.617 922.455 908.142 L 923.407 909.244 C 921.465 915.637 920.661 912.302 917.036 918.559 C 918.329 921.493 926.328 935.079 929.047 936.07 C 930.357 934.68 930.708 934.371 932.228 933.212 L 933.712 934.472 C 932.885 936.5 932.012 938.509 931.093 940.498 L 931.948 942.137 C 934.707 943.085 935.202 942.913 937.08 945.008 C 936.549 947.225 936.454 947.529 936.382 949.791 C 939.906 949.623 941.937 938.562 947.49 936.031 L 948.485 936.872 C 946.457 940.531 939.393 952.348 939.628 955.883 C 942.71 957.171 942.226 956.465 946.555 954.718 L 947.693 955.92 L 944.338 959.283 L 944.446 961.212 C 946.963 962.457 946.941 961.752 950.532 960.787 L 951.399 961.698 C 950.216 964.482 950.005 964.641 949.641 967.59 C 952.208 972.434 954.53 978.275 959.517 980.363 L 961.865 978.769 L 963.48 979.305 L 963.941 980.868 C 960.989 982.167 961.871 981.148 960.339 983.4 L 969.105 989.966 C 968.471 992.243 968.397 992.295 968.379 994.635 L 970.44 996.218 C 973.256 996.084 974.762 995.519 977.428 994.753 L 977.753 995.67 L 972.458 999.365 C 973.859 1001.88 976.486 1001.99 980.058 1003.29 C 969.439 1010.37 966.325 1013.25 958.156 1023.07 C 956.056 1011.3 952.277 999.888 946.936 989.189 C 937.025 968.994 921.768 947.723 908.974 929.135 C 895.391 909.4 881.335 887.974 866.332 869.418 z"/>
<path transform="translate(0,0)" fill="rgb(238,235,237)" d="M 801.664 826.071 C 802.699 823.918 802.963 823.783 804.559 821.957 L 807.125 821.967 C 830.782 825.433 864.283 822.815 888.539 823.659 C 894.888 823.88 908.997 822.796 913.927 823.822 C 914.812 825.884 914.649 824.753 913.619 827.384 C 908.493 830.659 905.904 829.366 900.601 827.284 C 887.336 829.8 874.159 827.392 860.929 828.423 C 848.538 844.097 835.506 862.897 822.455 877.756 C 820.998 879.416 817.827 880.139 815.667 880.647 L 814.399 880.236 C 816.558 875.005 848.638 831.958 855.145 829.122 L 855.114 828.338 C 850.218 827.689 849.29 827.574 844.429 828.264 L 844.251 829.181 L 846.743 830.071 C 846.881 833.29 812.011 880.399 803.721 881.853 L 802.027 880.855 C 806.471 870.38 835.104 838.241 839.902 828.254 L 839.489 827.31 C 830.526 831.754 806.047 870.7 797.647 880.185 C 796.054 881.983 793.867 881.151 792.166 880.801 C 792.554 874.843 821.349 841.512 825.449 832.998 C 825.84 832.187 831.018 830.287 832.282 829.769 L 833.333 827.859 C 828.545 827.548 824.751 827.287 819.909 827.437 C 814.254 825.776 807.629 826.106 801.664 826.071 z"/>
<path transform="translate(0,0)" fill="rgb(238,235,237)" d="M 1346.61 849.265 C 1354.4 849.755 1363.64 850.581 1371.33 850.328 L 1371.11 852.401 C 1381.99 851.213 1450.78 850.514 1460.29 852.286 L 1460.81 853.449 L 1459.17 855.345 C 1453.07 857.19 1408.41 855.994 1398.23 855.979 C 1368.45 855.83 1338.67 855.991 1308.89 856.462 C 1306.56 854.498 1306.65 854.654 1305.17 852.012 C 1307.21 850.505 1310.76 851.11 1313.84 851.124 C 1324.41 850.411 1335.16 851.66 1346 850.495 L 1346.61 849.265 z"/>
<path transform="translate(0,0)" fill="rgb(86,86,84)" d="M 1346.61 849.265 C 1354.4 849.755 1363.64 850.581 1371.33 850.328 L 1371.11 852.401 C 1366.53 852.925 1318.92 851.727 1313.84 851.124 C 1324.41 850.411 1335.16 851.66 1346 850.495 L 1346.61 849.265 z"/>
<path transform="translate(0,0)" fill="rgb(238,235,237)" d="M 1316.09 859.454 C 1342.23 858.015 1373.9 859.617 1400.56 859.046 C 1411.04 858.821 1447.06 858.65 1455.29 860.048 L 1455.3 861.648 L 1451.43 864.975 C 1435.62 864.08 1316.36 864.976 1312.65 861.923 L 1313.06 860.417 L 1316.09 859.454 z"/>
<path transform="translate(0,0)" fill="rgb(238,235,237)" d="M 731.541 1266.94 C 732.918 1264.25 734.218 1262.72 736.862 1261.45 L 737.845 1261.52 C 748.957 1262.21 830.996 1260.67 834.21 1261.85 C 834.3 1264.39 833.673 1264.4 832.09 1267.01 C 824.761 1269.41 786.993 1267.65 776.253 1267.87 C 763.82 1268.48 750.237 1268.28 737.703 1268.29 L 737.804 1268.13 C 741.947 1270.1 740.865 1268.37 744.642 1269.8 C 736.697 1269.73 729.097 1269.98 721.171 1270.13 C 725.51 1267.6 726.414 1267.72 731.541 1266.94 z"/>
<path transform="translate(0,0)" fill="rgb(86,86,84)" d="M 731.541 1266.94 C 743.688 1267.41 766.007 1266.2 776.253 1267.87 C 763.82 1268.48 750.237 1268.28 737.703 1268.29 L 737.804 1268.13 C 741.947 1270.1 740.865 1268.37 744.642 1269.8 C 736.697 1269.73 729.097 1269.98 721.171 1270.13 C 725.51 1267.6 726.414 1267.72 731.541 1266.94 z"/>
<path transform="translate(0,0)" fill="rgb(238,235,237)" d="M 1317.34 867.19 C 1332.05 866.137 1353.07 867.159 1368.41 866.985 C 1392.41 866.713 1417 867.346 1441.03 867.349 C 1444.6 867.349 1445.1 867.089 1446.89 868.963 L 1445.82 871.492 C 1441.06 872.601 1434.93 872.839 1430.02 872.704 C 1394.43 871.726 1358.4 873.646 1322.94 870.875 C 1321.04 870.726 1318.69 868.484 1317.34 867.19 z"/>
<path transform="translate(0,0)" fill="rgb(255,255,255)" d="M 791.988 1277.94 C 795.116 1278.01 798.163 1277.63 800.641 1279.27 C 798.379 1285.85 772.537 1325.52 766.624 1329.82 C 764.344 1330.67 762.269 1331.24 759.942 1331.92 L 759.349 1331.16 C 768.95 1313.48 781.037 1294.89 791.988 1277.94 z"/>
<path transform="translate(0,0)" fill="rgb(238,235,237)" d="M 1342.14 880.994 C 1336.14 880.705 1333.96 880.039 1329.39 876.138 L 1329.95 875.117 C 1335.75 874.607 1352.98 875.767 1360.36 875.814 L 1439.89 875.941 C 1438.01 877.064 1432.93 880.153 1430.94 880.375 C 1402.36 883.556 1371.41 877.748 1342.79 880.939 L 1342.14 880.994 z"/>
<path transform="translate(0,0)" fill="rgb(238,235,237)" d="M 1050.71 992.932 L 1053.41 991.852 L 1060.49 999.808 L 1059.47 1002.16 C 1062.35 1006.54 1064.5 1008.55 1063.8 1013.6 L 1063.66 1014.1 L 1065.3 1016.88 C 1064.09 1019.42 1063.76 1019.22 1061.22 1020.65 C 1050.81 1016.43 1050.02 1008 1032.32 1000.66 C 1042.12 1007.32 1045.66 1011.19 1052.9 1020.37 C 1048.31 1015.67 1030.31 1003.34 1031.52 997.397 C 1036.08 996.021 1034.37 995.895 1038.68 997.015 L 1040.79 995.064 L 1050.71 992.932 z"/>
<path transform="translate(0,0)" fill="rgb(238,235,237)" d="M 1050.71 992.932 L 1053.41 991.852 L 1060.49 999.808 L 1059.47 1002.16 C 1062.35 1006.54 1064.5 1008.55 1063.8 1013.6 C 1054.97 1005.92 1050.61 1001.76 1040.79 995.064 L 1050.71 992.932 z"/>
<path transform="translate(0,0)" fill="rgb(25,24,23)" d="M 1050.71 992.932 L 1053.41 991.852 L 1060.49 999.808 L 1059.47 1002.16 L 1050.71 992.932 z"/>
<path transform="translate(0,0)" fill="rgb(25,24,23)" d="M 1038.68 997.015 L 1040.79 995.064 C 1050.61 1001.76 1054.97 1005.92 1063.8 1013.6 L 1063.66 1014.1 L 1065.3 1016.88 C 1064.09 1019.42 1063.76 1019.22 1061.22 1020.65 C 1057.58 1011.38 1046.51 1003.17 1038.68 997.015 z"/>
<path transform="translate(0,0)" fill="rgb(238,235,237)" d="M 754.232 1249.31 L 757.139 1243.73 C 776.847 1244.82 827.765 1240.81 841.637 1245.8 L 840.909 1248.56 C 810.307 1250.37 783.561 1248.73 754.232 1249.31 z"/>
<path transform="translate(0,0)" fill="rgb(255,255,255)" d="M 752.256 1275.09 C 753.962 1276.19 753.419 1275.42 753.889 1277.39 C 747.501 1291.14 726.193 1320.26 717.961 1335.89 C 717.005 1337.7 713.688 1337.18 711.373 1337.2 L 710.651 1336.06 C 712.948 1328.96 744.768 1279.16 750.821 1274.57 L 752.256 1275.09 z"/>
<path transform="translate(0,0)" fill="rgb(238,235,237)" d="M 758.99 1276.44 C 762.987 1277.29 761.901 1276.32 764.371 1278.57 C 756.19 1294.2 738.168 1321.05 728.362 1337.52 C 726.361 1337.51 724.641 1337.43 722.639 1337.35 L 721.604 1336.15 C 727.811 1322.86 749.889 1289.64 758.99 1276.44 z"/>
<path transform="translate(0,0)" fill="rgb(255,255,255)" d="M 769.514 1276.6 C 773.76 1277.03 772.519 1276.08 774.877 1278.28 C 774.224 1281.22 742.643 1334.45 739.701 1336.78 C 736.524 1336.96 736.638 1337 733.564 1336.22 C 734.927 1330.31 764.437 1284.32 769.514 1276.6 z"/>
<path transform="translate(0,0)" fill="rgb(255,255,255)" d="M 733.402 1273.94 C 732.874 1279.96 705.985 1317.61 701.601 1325.98 C 698.631 1331.66 697.139 1334.64 690.973 1333.66 L 690.568 1332.43 C 693.029 1326.36 723.57 1278.65 727.994 1274.04 L 733.402 1273.94 z"/>
<path transform="translate(0,0)" fill="rgb(238,235,237)" d="M 838.112 803.639 L 841.973 798.433 C 850.896 798.489 927.548 799.032 930.754 800.603 C 923.624 806.296 901.219 804.191 891.732 804.094 C 873.963 803.913 855.845 804.319 838.112 803.639 z"/>
<path transform="translate(0,0)" fill="rgb(255,255,255)" d="M 744.985 1274.03 C 743.996 1277.99 711.993 1326.56 706.798 1334.66 C 703.744 1336.33 705.377 1335.69 701.058 1335.4 L 700.546 1334.14 C 706.111 1324.75 734.623 1278.32 739.962 1273.92 L 744.985 1274.03 z"/>
<path transform="translate(0,0)" fill="rgb(238,235,237)" d="M 765.044 1236 C 780.893 1235.9 832.414 1232.81 843.584 1237.85 L 842.365 1240.25 C 817.898 1241.75 785.733 1241.01 760.668 1241.03 C 764.732 1238.54 763.397 1240.22 765.044 1236 z"/>
<path transform="translate(0,0)" fill="rgb(255,255,255)" d="M 780.236 1277.86 C 782.826 1277.77 784.238 1278.01 786.802 1278.3 L 787.228 1279.12 C 775.867 1297.61 764.853 1314.71 753.705 1333.55 C 750.997 1334.28 749.697 1334.95 747.039 1334.1 C 749.167 1327.27 775.055 1286.28 780.236 1277.86 z"/>
<path transform="translate(0,0)" fill="rgb(255,255,255)" d="M 864.81 829.869 C 868.158 830.605 868.141 830.169 870.506 832.28 C 868.389 837.003 841.217 869.126 837.15 876.198 C 836.683 877.012 834.561 878.14 833.688 878.628 C 831.864 878.74 830.469 878.732 828.647 878.73 L 828.201 877.606 C 834.881 865.524 855.48 840.474 864.81 829.869 z"/>
<path transform="translate(0,0)" fill="rgb(255,255,255)" d="M 809.279 826.743 C 811.239 827.499 811.403 827.603 813.216 828.584 C 812.711 832.113 783.473 870.431 778.919 877.849 L 778.035 879.305 C 774.309 878.068 774.303 878.696 772.038 876.189 C 774.489 870.507 804.076 832.4 809.279 826.743 z"/>
<path transform="translate(0,0)" fill="rgb(255,255,255)" d="M 819.909 827.437 C 821.224 828.088 822.267 828.684 823.541 829.405 C 823.33 833.815 790.414 875.775 785.438 881.349 L 782.181 879.635 C 782.799 874.379 814.182 833.225 819.909 827.437 z"/>
<path transform="translate(0,0)" fill="rgb(238,235,237)" d="M 780.257 1180.07 C 788.395 1180.11 837.873 1179.43 841.884 1181.91 L 842.279 1183.87 C 836.011 1190.75 790.074 1182.39 779.845 1187.25 L 780.257 1180.07 z"/>
<path transform="translate(0,0)" fill="rgb(238,235,237)" d="M 875.877 830.871 C 878.338 830.926 880.588 831.105 883.037 831.278 L 883.466 832.378 C 872.443 845.856 862.281 859.56 851.002 873.03 C 848.347 873.876 846.915 874.609 844.16 874.164 C 845.671 868.037 870.369 837.581 875.877 830.871 z"/>
<path transform="translate(0,0)" fill="rgb(238,235,237)" d="M 870.222 726.229 C 881.833 727.519 933.977 724.052 939.453 726.988 L 940.915 729.219 L 940.162 731.001 C 924.328 732.229 883.714 728.813 870.942 733.228 L 870.222 726.229 z"/>
<path transform="translate(0,0)" fill="rgb(238,235,237)" d="M 1399.82 836.045 C 1416.07 835.263 1452.67 834.821 1468.84 836.539 L 1469.7 837.379 C 1460.7 842.085 1409.1 841.572 1397.03 840.465 C 1397.86 838.936 1398.86 837.503 1399.82 836.045 z"/>
<path transform="translate(0,0)" fill="rgb(238,235,237)" d="M 853.61 783.225 C 857.404 780.786 856.169 782.004 857.829 776.811 C 861.076 780.167 862.802 778.846 867.986 779.203 C 878.186 779.906 930.16 777.782 936.263 780.548 L 936.27 781.983 C 931.25 785.362 864.178 782.477 853.61 783.225 z"/>
<path transform="translate(0,0)" fill="rgb(238,235,237)" d="M 1379.71 883.715 C 1394.23 884.009 1408.74 884.428 1423.25 884.971 C 1417.46 891.497 1349.39 889.389 1343.66 885.289 L 1344.01 884.312 C 1350.86 883.335 1371.42 883.756 1379.71 883.715 z"/>
<path transform="translate(0,0)" fill="rgb(255,255,255)" d="M 810.81 1277.99 L 811.275 1278.7 C 811.24 1284.9 789.362 1314.37 784.361 1320.83 C 783.565 1321.86 778.993 1324.41 777.519 1325.2 C 776.803 1324.56 777.204 1325.04 776.807 1323.48 C 785.14 1309.86 793.74 1296.41 802.602 1283.13 C 805.935 1278.17 805.796 1278.97 810.81 1277.99 z"/>
<path transform="translate(0,0)" fill="rgb(238,235,237)" d="M 852.674 785.646 C 869.024 786.094 922.039 784.733 934.049 788.655 C 928.368 791.395 860.056 789.963 851.688 788.809 L 852.674 785.646 z"/>
<path transform="translate(0,0)" fill="rgb(238,235,237)" d="M 862.259 772.915 C 883.682 772.643 917.209 771.349 937.474 773.942 C 932.184 779.295 869.965 775.637 857.829 776.811 L 862.361 775.093 L 862.259 772.915 z"/>
<path transform="translate(0,0)" fill="rgb(238,235,237)" d="M 777.869 1163.11 C 793.001 1166.49 816.789 1161.76 832.41 1163.82 C 833.932 1164.02 834.45 1165.39 835.334 1166.56 L 835.386 1168.22 C 827.478 1169.95 789.448 1169.2 779.483 1168.7 L 777.869 1163.11 z"/>
<path transform="translate(0,0)" fill="rgb(238,235,237)" d="M 779.485 1171.91 C 794.175 1172.16 808.845 1172.46 823.538 1172.4 C 828.565 1172.38 835.394 1171.52 839.298 1174.57 L 839.428 1176.66 C 836.373 1178.78 790.233 1176.4 781.013 1177.26 L 779.485 1171.91 z"/>
<path transform="translate(0,0)" fill="rgb(238,235,237)" d="M 802.289 1145.62 C 808.017 1145.56 821.778 1144.22 825.467 1149.18 C 819.974 1154.25 778.602 1148.27 773.71 1153.16 L 771.112 1145.67 C 780.865 1146.31 792.386 1145.8 802.289 1145.62 z"/>
<path transform="translate(0,0)" fill="rgb(238,235,237)" d="M 1389.09 848.27 L 1387.84 844.497 C 1411.49 847.354 1441.82 840.078 1465.71 845.404 L 1465.24 846.451 C 1446.59 849.226 1409.82 847.878 1389.09 848.27 z"/>
<path transform="translate(0,0)" fill="rgb(255,255,255)" d="M 888.317 831.067 C 890.891 831.04 892.504 831.206 895.041 831.415 L 895.455 832.256 C 889.214 840.257 870.886 862.75 863.66 868.251 C 861.294 869.417 862.138 869.171 859.631 869.481 C 859.887 864.29 883.869 836.48 888.317 831.067 z"/>
<path transform="translate(0,0)" fill="rgb(238,235,237)" d="M 867.381 700.272 C 876.649 700.071 927.819 697.884 933.046 700.198 L 933.395 701.75 C 927.584 706.608 876.61 700.502 867.674 705.798 L 867.381 700.272 z"/>
<path transform="translate(0,0)" fill="rgb(238,235,237)" d="M 846.797 795.351 L 847.837 791.715 C 853.878 793.421 859.697 792.184 865.523 792.847 C 883.605 794.904 915.117 789.951 931.838 793.597 L 932.347 794.738 C 927.146 797.129 856.546 796.28 846.797 795.351 z"/>
<path transform="translate(0,0)" fill="rgb(238,235,237)" d="M 1419.3 805.092 L 1421.33 801.45 C 1432.98 803.939 1470.05 800.519 1476.26 804.158 L 1476.15 805.942 C 1470.72 808.281 1423.82 807.924 1419.3 805.092 z"/>
<path transform="translate(0,0)" fill="rgb(238,235,237)" d="M 1416.05 814.384 C 1417.59 812.363 1417.57 811.506 1418.37 809.012 C 1430.66 813.895 1459.21 806.679 1475.96 812.682 L 1475.51 814.362 L 1477.35 813.778 L 1476.08 812.825 L 1474.92 814.441 C 1455.8 815.096 1433.61 813.428 1416.05 814.384 z"/>
<path transform="translate(0,0)" fill="rgb(238,235,237)" d="M 721.171 1270.13 C 729.097 1269.98 736.697 1269.73 744.642 1269.8 C 751.004 1269.82 776.539 1269.34 780.877 1271.98 C 776.38 1278.47 763.896 1275.3 756.695 1273.65 C 755.212 1274.23 753.811 1274.73 752.256 1275.09 L 750.821 1274.57 C 748.282 1272.47 747.513 1273 744.985 1274.03 L 739.962 1273.92 C 737.132 1271.72 735.989 1272.16 733.402 1273.94 L 727.994 1274.04 L 726.35 1272.52 C 723.147 1273.05 724.596 1272.76 721.56 1275.61 C 720.986 1274.8 719.859 1272.53 719.331 1271.54 L 721.171 1270.13 z"/>
<path transform="translate(0,0)" fill="rgb(238,235,237)" d="M 826.29 634.196 C 830.637 631.659 886.549 632.421 890.365 637.33 C 874.134 639 846.004 636.391 827.774 637.315 L 826.29 634.196 z"/>
<path transform="translate(0,0)" fill="rgb(238,235,237)" d="M 746.632 1112.79 C 761.354 1112.44 783.226 1110.27 796.022 1116.55 L 797.61 1117.32 C 797.924 1117.48 798.238 1117.64 798.552 1117.8 C 787.576 1117.83 761.27 1117.31 750.958 1118.56 L 746.632 1112.79 z"/>
<path transform="translate(0,0)" fill="rgb(238,235,237)" d="M 1423.81 786.043 C 1433.59 787.99 1470.39 785.186 1475.24 787.499 C 1475.9 790.399 1476.22 789.166 1474.89 791.408 C 1458.02 791.415 1440.31 790.73 1423.65 791.08 L 1423.81 786.043 z"/>
<path transform="translate(0,0)" fill="rgb(238,235,237)" d="M 1422.6 799.011 L 1422.45 794.948 C 1429.18 794.5 1471.46 794.756 1476.55 796.036 L 1476.27 797.3 C 1462.9 800.929 1437.76 799.17 1422.6 799.011 z"/>
<path transform="translate(0,0)" fill="rgb(255,255,255)" d="M 815.657 1278.58 C 818.704 1278.53 819.664 1278.28 822.531 1279.3 L 822.587 1281.14 C 817.51 1291.98 806.989 1303.25 798.23 1311.25 L 794.753 1313.45 L 794.475 1312.66 C 802.58 1300.19 808.501 1291.68 815.657 1278.58 z"/>
<path transform="translate(0,0)" fill="rgb(238,235,237)" d="M 853.858 667.038 C 863.574 665.319 910.699 664.232 918.716 668.048 C 902.868 670.572 872.344 668.644 854.861 669.985 C 854.652 668.291 854.623 668.652 853.858 667.038 z"/>
<path transform="translate(0,0)" fill="rgb(238,235,237)" d="M 631.984 1253.1 L 637.241 1256.85 C 635.238 1262.45 624.268 1281 618.001 1281.58 L 617.346 1279.48 C 619.383 1269.99 626.404 1261.17 631.984 1253.1 z"/>
<path transform="translate(0,0)" fill="rgb(238,235,237)" d="M 780.877 1271.98 C 785.672 1269.91 824.644 1270.9 829.272 1272.45 L 829.719 1274.56 C 828.701 1275.17 827.682 1275.78 826.664 1276.39 C 818.531 1275.12 787.027 1277.13 781.38 1274.2 L 780.877 1271.98 z"/>
<path transform="translate(0,0)" fill="rgb(238,235,237)" d="M 1418.35 755.362 C 1424.52 753.822 1458.1 753.288 1463.22 755.389 L 1463.93 757.089 C 1459.57 760.3 1427.51 759.004 1419.56 759.049 L 1418.35 755.362 z"/>
<path transform="translate(0,0)" fill="rgb(238,235,237)" d="M 815.088 627.23 C 825.637 626.562 871.567 625.041 878.755 629.863 C 864.307 632.222 832.304 627.977 818.532 630.765 L 815.088 627.23 z"/>
<path transform="translate(0,0)" fill="rgb(238,235,237)" d="M 739.59 1104.52 C 756.236 1104.58 770.533 1101.05 784.883 1109.86 C 771.627 1109.44 756.249 1109.04 742.968 1109.9 L 739.59 1104.52 z"/>
<path transform="translate(0,0)" fill="rgb(255,255,255)" d="M 900.721 830.631 C 904.72 831.04 904.98 830.326 907.127 832.545 C 906.701 837.984 891.573 849.931 886.927 854.151 C 884.785 855.108 884.783 855.043 882.433 855.349 C 882.337 851.969 896.922 835.843 900.721 830.631 z"/>
<path transform="translate(0,0)" fill="rgb(238,235,237)" d="M 624.279 1246.81 C 626.375 1248.08 627.511 1248.53 629.21 1250.26 C 626.317 1255.87 617.441 1271.02 612.436 1274.06 L 610.767 1272.89 C 611.129 1264.49 619.464 1253.79 624.279 1246.81 z"/>
<path transform="translate(0,0)" fill="rgb(238,235,237)" d="M 1422.21 762.98 C 1431.41 761.663 1458.82 761.152 1467.25 763.528 L 1467.92 764.743 C 1461.52 769.213 1428.33 762.674 1422.82 768.163 C 1422.46 766.651 1422.36 764.578 1422.21 762.98 z"/>
<path transform="translate(0,0)" fill="rgb(238,235,237)" d="M 1337.45 848.267 C 1337.14 848.313 1335.65 848.555 1335.19 848.521 C 1328.35 848.01 1305.46 849.331 1301.23 845.6 L 1302.23 844.438 C 1312.11 842.469 1321.82 844.863 1331.22 845.187 L 1332.84 845.232 C 1335.53 846.329 1335.36 846.238 1337.45 848.267 z"/>
<path transform="translate(0,0)" fill="rgb(238,235,237)" d="M 734.881 1097.74 C 747.203 1096.16 757.714 1097.41 769.219 1101.81 C 762.052 1101.87 744.176 1102.36 737.856 1101.23 L 734.881 1097.74 z"/>
<path transform="translate(0,0)" fill="rgb(238,235,237)" d="M 1322.73 840.89 C 1317.71 840.963 1302.19 842.234 1299.4 838.415 C 1305.12 834.886 1313.16 836.326 1319.56 837.335 L 1322.73 840.89 z"/>
<path transform="translate(0,0)" fill="rgb(238,235,237)" d="M 695.175 801.766 L 699.523 805.204 C 696.086 809.55 691.672 818.134 685.862 818.792 C 685.347 812.627 691.355 806.225 695.175 801.766 z"/>
<path transform="translate(0,0)" fill="rgb(238,235,237)" d="M 1127.04 967.383 C 1130.71 968.53 1133.78 970.154 1137.1 972.02 L 1139 971.311 C 1143.01 972.511 1143.96 972.662 1147.47 974.788 L 1147.2 975.804 C 1140.61 977.266 1127.9 975.451 1125.89 968.127 L 1127.04 967.383 z"/>
<path transform="translate(0,0)" fill="rgb(238,235,237)" d="M 1313.34 833.023 C 1307.35 832.778 1302.64 833.554 1296.65 833.586 C 1294.67 831.272 1294.79 831.452 1294.24 828.445 C 1297.69 826.979 1304.93 827.872 1309.04 828.088 C 1311.72 830.09 1311.54 830.139 1313.34 833.023 z"/>
<path transform="translate(0,0)" fill="rgb(238,235,237)" d="M 824.241 1136.92 C 833.482 1136.44 838.054 1142.05 844.519 1148.1 C 835.077 1150.23 831.139 1143.02 824.241 1136.92 z"/>
<path transform="translate(0,0)" fill="rgb(238,235,237)" d="M 1107.64 982.925 C 1113.59 982.033 1127.65 983.645 1131.67 988.18 C 1123.41 989.327 1115.72 986.627 1107.85 984.328 L 1107.64 982.925 z"/>
<path transform="translate(0,0)" fill="rgb(238,235,237)" d="M 1100.93 987.794 C 1107.66 988.519 1116.96 990.346 1122.59 994.19 L 1122.62 995.343 C 1119.43 996.737 1118.85 997.274 1115.41 996.557 C 1112.49 994.607 1112.7 994.727 1110.8 991.749 C 1107.32 991.128 1102.6 990.927 1099.87 989.464 L 1100.93 987.794 z"/>
<path transform="translate(0,0)" fill="rgb(238,235,237)" d="M 1140.83 963.084 C 1145.09 964.319 1154.99 966.689 1157.65 969.401 L 1155.77 971.182 C 1150.4 969.989 1142.49 968.547 1137.93 965.951 L 1138 964.507 L 1140.83 963.084 z"/>
<path transform="translate(0,0)" fill="rgb(200,193,189)" d="M 1111.08 977.769 C 1114.1 974.961 1114.96 974.33 1118.44 972.078 C 1123.76 974.904 1128.72 977.355 1133.59 980.924 L 1111.08 977.769 z"/>
<path transform="translate(0,0)" fill="rgb(238,235,237)" d="M 1157.08 951.08 C 1162.94 951.882 1169.01 951.323 1173.78 952.146 L 1174.01 953.116 C 1171.99 954.114 1172.44 953.809 1170.62 955.237 L 1172.09 955.977 L 1172.73 958.325 L 1171.7 959.274 C 1167.19 958.283 1160.03 954.773 1157.08 951.08 z"/>
<path transform="translate(0,0)" fill="rgb(238,235,237)" d="M 688.075 795.857 L 691.269 799.348 C 689.673 803.085 686.987 808.673 682.81 809.528 L 681.888 807.577 C 682.333 803.193 685.461 799.657 688.075 795.857 z"/>
<path transform="translate(0,0)" fill="rgb(238,235,237)" d="M 600.601 1241.08 C 599.578 1234.84 599.632 1228.2 607.096 1226.74 C 608.242 1232.66 605.332 1237.59 600.601 1241.08 z"/>
<path transform="translate(0,0)" fill="rgb(154,152,150)" d="M 1368.79 709.851 C 1372.71 706.588 1395.43 706.591 1399.83 709.167 L 1399.35 709.848 C 1393.02 709.791 1374.79 709.355 1369.5 710.595 L 1368.79 709.851 z"/>
<path transform="translate(0,0)" fill="rgb(238,235,237)" d="M 1149.43 956.205 C 1154.85 956.18 1163.11 959.192 1166.15 963.829 C 1159.86 963.964 1152.3 962.309 1149.43 956.205 z"/>
<path transform="translate(0,0)" fill="rgb(200,193,189)" d="M 1167.92 942.106 L 1168.75 941.606 C 1174.35 942.718 1184.11 945.915 1189.55 947.848 L 1188.53 948.958 C 1180.89 948.016 1173.44 947.752 1167.92 942.106 z"/>
<path transform="translate(0,0)" fill="rgb(123,120,119)" d="M 1285.72 868.871 C 1296.23 870.635 1299.06 871.672 1310.42 872.327 L 1310.58 873.908 C 1304.13 874.104 1290.34 874.822 1285.43 870.984 L 1285.72 868.871 z"/>
<path transform="translate(0,0)" fill="rgb(238,235,237)" d="M 1301.8 819.322 C 1303.65 821.659 1303.51 821.674 1304.49 824.542 C 1300.42 824.551 1294.04 825.454 1292.19 821.222 L 1294.29 819.334 C 1297.74 818.919 1298.42 819.061 1301.8 819.322 z"/>
<path transform="translate(0,0)" fill="rgb(154,152,150)" d="M 982.488 993.96 C 986.727 994.15 990.419 994.176 992.342 998.447 C 989.917 1000.4 990.606 999.788 987.433 1000.85 L 987.679 999.571 L 987.433 997.831 C 984.444 996.435 982.604 997.944 978.63 999.275 C 979.185 996.672 980.333 996.258 982.488 993.96 z"/>
<path transform="translate(0,0)" fill="rgb(238,235,237)" d="M 1203.31 921.199 C 1208.93 920.299 1213.3 921.927 1216.3 926.824 C 1209.93 928.528 1206.94 925.95 1203.31 921.199 z"/>
<path transform="translate(0,0)" fill="rgb(238,235,237)" d="M 954.189 1088.04 C 958.708 1088.43 966.774 1092.45 968.505 1096.83 C 963.648 1096.26 955.748 1093.2 954.189 1088.04 z"/>
<path transform="translate(0,0)" fill="rgb(238,235,237)" d="M 1212.98 916.179 C 1218.49 916.946 1224.62 919.537 1227.52 924.366 C 1221.82 923.85 1215.56 921.533 1212.98 916.179 z"/>
<path transform="translate(0,0)" fill="rgb(238,235,237)" d="M 1251.07 892.92 C 1257.06 892.21 1261.31 894.623 1265.54 898.598 C 1258.22 899.955 1255.97 897.789 1251.07 892.92 z"/>
<path transform="translate(0,0)" fill="rgb(238,235,237)" d="M 1071.72 1014.95 C 1077.53 1015.52 1082.66 1017.27 1085.52 1022.46 C 1080.05 1021.04 1073.03 1020.64 1071.72 1014.95 z"/>
<path transform="translate(0,0)" fill="rgb(200,193,189)" d="M 852.706 1150.57 C 858.042 1152.69 864.256 1157.73 867.861 1162.21 C 860.561 1161.88 856.68 1155.83 852.706 1150.57 z"/>
<path transform="translate(0,0)" fill="rgb(238,235,237)" d="M 1097.29 993.79 C 1104.44 994.197 1108 995.004 1112.35 1000.68 C 1104.64 999.737 1102.86 999.15 1097.29 993.79 z"/>
<path transform="translate(0,0)" fill="rgb(200,193,189)" d="M 1372.15 892.009 C 1378.62 891.831 1390.73 891.002 1396.37 893.461 C 1387.78 895.216 1380.4 894.45 1372.15 892.009 z"/>
<path transform="translate(0,0)" fill="rgb(200,193,189)" d="M 945.461 1093.09 C 951.219 1094.95 958.505 1097.22 963.235 1100.96 C 957.34 1099.35 946.61 1099.61 945.461 1093.09 z"/>
<path transform="translate(0,0)" fill="rgb(238,235,237)" d="M 1080.9 999.769 L 1080.5 996.214 C 1084.99 998.195 1092.2 1000.09 1095.17 1002.51 C 1089.51 1003.27 1086.02 1001.94 1080.9 999.769 z"/>
<path transform="translate(0,0)" fill="rgb(200,193,189)" d="M 1229.23 908.391 C 1235.17 909.016 1240.39 908.228 1245.33 910.135 C 1240.73 913.022 1232.68 910.754 1227.78 909.186 L 1229.23 908.391 z"/>
<path transform="translate(0,0)" fill="rgb(200,193,189)" d="M 1093.81 1003.99 C 1098.64 1004.04 1100.16 1004.2 1104.24 1006.53 L 1104.74 1008.63 C 1101.01 1009.1 1100.82 1009.07 1097.06 1008.7 C 1093.82 1006.37 1094.88 1007.87 1093.81 1003.99 z"/>
<path transform="translate(0,0)" fill="rgb(238,235,237)" d="M 942.678 927.57 L 944.06 928.61 C 944.846 931.473 940.762 936.147 938.491 940.404 C 938.001 940 937.078 938.861 936.619 938.333 C 937.189 934.459 940.326 930.888 942.678 927.57 z"/>
<path transform="translate(0,0)" fill="rgb(238,235,237)" d="M 938.613 921.797 C 939.853 923.227 939.416 922.328 939.529 924.652 C 937.486 928.852 937.061 929.431 933.869 932.848 C 932.604 931.508 933.049 932.02 932.448 930.083 C 933.554 926.188 935.62 924.799 938.613 921.797 z"/>
<path transform="translate(0,0)" fill="rgb(238,235,237)" d="M 1185.3 938.349 C 1191.38 937.57 1194.74 937.863 1200.45 939.992 C 1193.86 941.67 1190.77 942.802 1185.3 938.349 z"/>
<path transform="translate(0,0)" fill="rgb(200,193,189)" d="M 896.496 887.954 C 900.808 884.9 900.027 884.404 904.367 884.298 L 904.851 885.829 C 903.221 888.541 900.898 889.099 897.918 890.433 L 896.496 887.954 z"/>
<path transform="translate(0,0)" fill="rgb(238,235,237)" d="M 1240.85 898.04 C 1246.69 897.793 1250.92 899.606 1254.7 903.923 C 1248.67 903.224 1245.59 901.709 1240.85 898.04 z"/>
<path transform="translate(0,0)" fill="rgb(238,235,237)" d="M 886.724 1133.76 C 890.56 1134.76 896.811 1136.67 899.478 1139.46 C 892.491 1140.65 891.053 1138.74 886.724 1133.76 z"/>
<path transform="translate(0,0)" fill="rgb(4,2,3)" d="M 1097.9 1330.57 C 1100.11 1329.27 1102.21 1328.6 1104.6 1327.7 L 1104.15 1326.37 C 1101.57 1326.05 1100.92 1325.98 1098.45 1325.24 L 1098.37 1323.82 C 1100.77 1323.68 1099.76 1323.95 1101.47 1323.27 C 1100.27 1320.27 1098.24 1316.17 1098.47 1312.96 C 1100.47 1285.19 1115.44 1258.65 1140.89 1246.12 C 1152.75 1240.29 1162.32 1241.14 1175 1241.61 C 1187.19 1241.73 1197.86 1241.41 1209.81 1244.2 L 1210.75 1242.84 C 1213.89 1243.75 1216.94 1244.76 1220.16 1245.3 C 1248.92 1264.25 1258.87 1287.26 1258.99 1321.21 C 1292.13 1326.43 1324.1 1337.26 1357.2 1342.69 C 1361.75 1343.44 1367.19 1344.25 1371.61 1345.32 C 1378.31 1338.33 1384.84 1332.91 1393.67 1328.68 C 1408.1 1321.81 1424.68 1320.95 1439.74 1326.31 C 1492.85 1344.72 1499.42 1415.45 1447.62 1438.45 C 1431.49 1445.48 1413.22 1445.79 1396.86 1439.29 C 1382.96 1433.83 1371.8 1423.05 1365.87 1409.33 C 1364.61 1406.39 1363.77 1403.29 1362.96 1400.2 C 1360.88 1392.8 1360.22 1385.65 1359.94 1378.01 C 1345.59 1374.34 1256.22 1347.78 1252.25 1348.37 C 1251.05 1352.06 1250.61 1353.58 1248.82 1356.98 C 1228.73 1392.25 1195.34 1407.99 1155.32 1399.52 C 1146.4 1396.66 1141.29 1394.24 1133.26 1389.63 C 1122.4 1381.1 1118.7 1378.33 1110.61 1367.42 C 1102.68 1357.85 1098.44 1347.22 1096.11 1335.15 L 1097.9 1330.57 z"/>
<path transform="translate(0,0)" fill="rgb(255,255,255)" d="M 1097.9 1330.57 C 1100.11 1329.27 1102.21 1328.6 1104.6 1327.7 L 1104.15 1326.37 C 1101.57 1326.05 1100.92 1325.98 1098.45 1325.24 L 1098.37 1323.82 C 1100.77 1323.68 1099.76 1323.95 1101.47 1323.27 C 1100.27 1320.27 1098.24 1316.17 1098.47 1312.96 C 1100.47 1285.19 1115.44 1258.65 1140.89 1246.12 C 1152.75 1240.29 1162.32 1241.14 1175 1241.61 C 1174.93 1242.66 1174.86 1244.54 1174.67 1245.51 L 1173.06 1246.03 C 1179.05 1253.29 1208.69 1244.55 1222.91 1252.19 C 1217.4 1255.94 1188.9 1250.9 1184.47 1252.62 C 1187.91 1261.41 1227.55 1251.39 1232.41 1261.32 C 1228.34 1263.07 1200.52 1259.76 1193.8 1261.05 L 1193.89 1262.54 C 1202.19 1268.74 1234.25 1260.57 1240.39 1268.98 C 1235.74 1272.91 1202.89 1265.59 1201.76 1271.45 C 1203.02 1272.11 1203.78 1272.62 1205.13 1273.04 L 1206.46 1277.06 C 1206.67 1278.8 1206.35 1279.64 1207.53 1280.16 C 1216.59 1284.13 1242.7 1278.74 1249.24 1284.34 L 1249.64 1286.61 C 1241.71 1290.27 1221.59 1284.82 1210.33 1286.86 L 1209.96 1288.4 C 1215.66 1294.29 1246.46 1288.49 1251.76 1291.94 L 1252.79 1294.39 L 1251.96 1296.07 C 1241.83 1297.75 1215.68 1294.13 1212.28 1297.4 L 1212.81 1298.57 C 1223.77 1300.79 1249.47 1297.24 1253.9 1301.7 C 1247.57 1309.66 1221.52 1301.82 1212.77 1306.09 L 1211.92 1307.32 L 1212.08 1313.1 L 1210.53 1315.68 L 1210.48 1320.1 L 1206.97 1324.12 L 1206.4 1326.95 L 1203.01 1332.59 L 1198.79 1337.83 L 1198.59 1340.02 C 1194.56 1342.16 1194.21 1342.42 1190.88 1345.49 L 1189.2 1347.1 L 1182.78 1351.29 L 1184.06 1352.98 L 1185.12 1353.13 C 1187.67 1353.51 1189.09 1353.45 1191.18 1354.91 C 1206.25 1355.81 1220.36 1355.69 1235.39 1355.28 C 1240.12 1355.21 1241.98 1355.53 1246.22 1353.76 L 1248.82 1356.98 C 1228.73 1392.25 1195.34 1407.99 1155.32 1399.52 C 1146.4 1396.66 1141.29 1394.24 1133.26 1389.63 C 1122.4 1381.1 1118.7 1378.33 1110.61 1367.42 C 1102.68 1357.85 1098.44 1347.22 1096.11 1335.15 L 1097.9 1330.57 z"/>
<path transform="translate(0,0)" fill="url(#Gradient1)" d="M 1096.11 1335.15 L 1097.9 1330.57 C 1100.16 1331.53 1100.63 1331.73 1103.09 1331.99 C 1110.09 1332.75 1115.28 1339.45 1120.61 1343.46 L 1121.55 1344.25 C 1125.34 1345.95 1128.6 1347.27 1132.11 1349.55 C 1132.94 1351.64 1132.74 1350.85 1132.79 1353.12 C 1152.01 1355.84 1171.73 1355.06 1191.18 1354.91 C 1206.25 1355.81 1220.36 1355.69 1235.39 1355.28 C 1240.12 1355.21 1241.98 1355.53 1246.22 1353.76 L 1248.82 1356.98 C 1228.73 1392.25 1195.34 1407.99 1155.32 1399.52 C 1146.4 1396.66 1141.29 1394.24 1133.26 1389.63 C 1122.4 1381.1 1118.7 1378.33 1110.61 1367.42 C 1102.68 1357.85 1098.44 1347.22 1096.11 1335.15 z"/>
<path transform="translate(0,0)" fill="rgb(4,2,3)" d="M 1096.11 1335.15 L 1097.9 1330.57 C 1100.16 1331.53 1100.63 1331.73 1103.09 1331.99 C 1110.09 1332.75 1115.28 1339.45 1120.61 1343.46 L 1121.55 1344.25 C 1125.34 1345.95 1128.6 1347.27 1132.11 1349.55 C 1132.94 1351.64 1132.74 1350.85 1132.79 1353.12 C 1152.01 1355.84 1171.73 1355.06 1191.18 1354.91 C 1206.25 1355.81 1220.36 1355.69 1235.39 1355.28 L 1236.15 1357.18 L 1241.9 1358.24 L 1242 1359.73 L 1239.15 1362.49 L 1238.59 1363.12 C 1237.76 1364.42 1236.92 1366.03 1235.81 1367.01 C 1219.82 1367.19 1118.48 1361.83 1113.22 1365.39 L 1110.61 1367.42 C 1102.68 1357.85 1098.44 1347.22 1096.11 1335.15 z"/>
<path transform="translate(0,0)" fill="rgb(200,193,189)" d="M 1238.59 1363.12 L 1152.45 1361.3 C 1141.98 1361.03 1127.53 1359.19 1117.8 1360.73 C 1115.57 1361.09 1115.51 1361.21 1112.97 1361.37 L 1116.18 1359.07 L 1115.39 1357.31 L 1116.19 1356.64 C 1137.99 1361.67 1228.49 1355.37 1239.15 1362.49 L 1238.59 1363.12 z"/>
<path transform="translate(0,0)" fill="rgb(238,235,237)" d="M 1132.79 1353.12 C 1128.87 1354.31 1107.35 1353.09 1104.3 1350.22 C 1109.66 1347.08 1124.21 1350.55 1132.11 1349.55 C 1132.94 1351.64 1132.74 1350.85 1132.79 1353.12 z"/>
<path transform="translate(0,0)" fill="rgb(200,193,189)" d="M 1121.55 1344.25 L 1119.98 1345.21 C 1115.61 1345 1106.46 1344.92 1103.2 1342.64 C 1110.19 1341.54 1113.55 1342.28 1120.61 1343.46 L 1121.55 1344.25 z"/>
<path transform="translate(0,0)" fill="rgb(238,235,237)" d="M 1113.22 1365.39 C 1118.48 1361.83 1219.82 1367.19 1235.81 1367.01 L 1236.12 1367.47 L 1235.53 1369.07 C 1230.57 1370.93 1117.91 1367.71 1113.22 1365.39 z"/>
<path transform="translate(0,0)" fill="rgb(25,24,23)" d="M 1133.26 1389.63 L 1135.09 1386.51 C 1142.4 1389.42 1155.86 1387.67 1164.25 1387.98 C 1159.36 1391.55 1157.68 1391.75 1153.92 1394.17 L 1151.69 1394.72 C 1153.51 1395.59 1153.71 1395.81 1155.64 1396.3 L 1155.32 1399.52 C 1146.4 1396.66 1141.29 1394.24 1133.26 1389.63 z"/>
<path transform="translate(0,0)" fill="rgb(154,152,150)" d="M 1135.09 1386.51 C 1142.56 1385.45 1208.86 1385.26 1214.4 1387.17 C 1208.73 1388.63 1172.55 1388.04 1164.25 1387.98 C 1155.86 1387.67 1142.4 1389.42 1135.09 1386.51 z"/>
<path transform="translate(0,0)" fill="rgb(200,193,189)" d="M 1153.92 1394.17 C 1166.5 1394.54 1180.32 1395.15 1192.83 1395.05 C 1174.44 1401.06 1171.49 1396 1155.64 1396.3 C 1153.71 1395.81 1153.51 1395.59 1151.69 1394.72 L 1153.92 1394.17 z"/>
<path transform="translate(0,0)" fill="rgb(238,235,237)" d="M 1117.63 1371.34 C 1136.49 1370.97 1159.12 1372.47 1178.4 1372.58 C 1189.78 1372.64 1220.98 1372.55 1230.29 1374.62 C 1220.11 1379.3 1150.16 1374 1134.65 1374.88 C 1129.96 1375.15 1121.27 1374.79 1117.63 1371.34 z"/>
<path transform="translate(0,0)" fill="rgb(238,235,237)" d="M 1128.63 1378.26 C 1139.27 1378.89 1219.84 1379.29 1222.33 1381.23 L 1220.25 1382.19 C 1210.57 1382.48 1128.93 1383.09 1126.02 1379.67 L 1128.63 1378.26 z"/>
<path transform="translate(0,0)" fill="rgb(238,235,237)" d="M 1211.92 1307.32 C 1224.06 1310.24 1241.92 1306.23 1254.39 1309.18 L 1254.72 1311.8 C 1251.33 1314.25 1218.41 1313.14 1212.08 1313.1 L 1211.92 1307.32 z"/>
<path transform="translate(0,0)" fill="rgb(200,193,189)" d="M 1191.18 1354.91 C 1189.09 1353.45 1187.67 1353.51 1185.12 1353.13 L 1184.06 1352.98 L 1182.78 1351.29 C 1194.95 1353.22 1241.14 1350.41 1246.22 1353.76 C 1241.98 1355.53 1240.12 1355.21 1235.39 1355.28 C 1220.36 1355.69 1206.25 1355.81 1191.18 1354.91 z"/>
<path transform="translate(0,0)" fill="rgb(238,235,237)" d="M 1205.13 1273.04 C 1213.88 1272.81 1236.32 1272.1 1243.71 1275.19 L 1243.88 1276.35 C 1235.57 1279.79 1215.78 1277.83 1206.46 1277.06 L 1205.13 1273.04 z"/>
<path transform="translate(0,0)" fill="rgb(238,235,237)" d="M 1206.97 1324.12 C 1215.65 1323.72 1247.96 1322.48 1254.08 1324.84 C 1251.7 1327.64 1251.48 1327.42 1246.39 1327.62 C 1233.73 1328.12 1219.04 1327.97 1206.4 1326.95 L 1206.97 1324.12 z"/>
<path transform="translate(0,0)" fill="rgb(238,235,237)" d="M 1210.48 1320.1 L 1210.53 1315.68 C 1218.7 1316.4 1249.61 1316.46 1253.97 1317.86 L 1254.48 1319.06 C 1250.49 1322.01 1217.25 1320.54 1210.48 1320.1 z"/>
<path transform="translate(0,0)" fill="rgb(200,193,189)" d="M 1189.2 1347.1 L 1190.88 1345.49 C 1202.3 1345.28 1242.81 1343.44 1251.08 1347.14 C 1246.93 1349.56 1195.41 1348.58 1189.2 1347.1 z"/>
<path transform="translate(0,0)" fill="rgb(238,235,237)" d="M 1203.01 1332.59 C 1209.58 1328.68 1223.28 1331.3 1231.48 1330.72 C 1235.55 1330.44 1249.31 1330.93 1252.6 1332.81 C 1250.95 1333.98 1251.78 1333.61 1250.17 1334.08 L 1250.04 1332.87 L 1249.06 1334.3 L 1242.69 1334.16 C 1235.37 1334.12 1207.93 1335.18 1203.01 1332.59 z"/>
<path transform="translate(0,0)" fill="rgb(238,235,237)" d="M 1175 1241.61 C 1187.19 1241.73 1197.86 1241.41 1209.81 1244.2 C 1207.31 1247.39 1179.98 1245.64 1174.67 1245.51 C 1174.86 1244.54 1174.93 1242.66 1175 1241.61 z"/>
<path transform="translate(0,0)" fill="rgb(200,193,189)" d="M 1198.59 1340.02 L 1198.79 1337.83 C 1213.72 1337.9 1230.37 1337.68 1245.24 1338.42 C 1247.45 1338.95 1247.57 1339.05 1249.85 1338.86 L 1250.5 1339.59 C 1237.16 1339.98 1211.33 1341.05 1198.59 1340.02 z"/>
<path transform="translate(0,0)" fill="rgb(255,255,255)" d="M 1392.15 1334.29 C 1402.46 1330.98 1407.64 1331.52 1417.96 1332.99 L 1418.57 1335.53 C 1420.89 1337.64 1422.09 1338.68 1424.6 1340.53 L 1426.72 1342.38 L 1430.61 1346.88 L 1432.34 1348.63 C 1432.95 1349.74 1434.4 1352.23 1434.74 1353.29 L 1436.14 1354.98 L 1438.23 1360.01 C 1438.29 1362.61 1438.01 1362.46 1438.83 1364.78 L 1438.85 1365.92 L 1439.04 1367.28 L 1439.24 1369.79 L 1438.47 1372.16 L 1438 1375.71 L 1437.57 1377.95 L 1435.54 1384.71 L 1434.53 1387.84 L 1432.28 1391.78 L 1431.08 1394.96 C 1424.79 1402.59 1421.27 1403.87 1412.14 1406.75 C 1400.74 1408.7 1394.58 1408.04 1383.93 1403.56 C 1376.47 1398.97 1374.82 1398.96 1366.31 1397.39 L 1366.76 1396.53 C 1369.39 1395.75 1370.52 1395.33 1373.04 1394.24 L 1372.57 1392.94 L 1373.43 1393.69 L 1372.78 1394.35 C 1370.77 1391.67 1368.22 1392.16 1363.98 1391.5 C 1365.53 1385.47 1365.03 1391.93 1367.93 1387.58 C 1365.75 1385.84 1365.72 1385.94 1364.2 1383.64 C 1365.83 1358.5 1370.05 1347.94 1392.15 1334.29 z"/>
<path transform="translate(0,0)" fill="rgb(255,255,255)" d="M 1256.58 1332.44 C 1257.56 1328.38 1257.14 1326.96 1259.62 1324.57 C 1297.09 1333.09 1331.63 1341.47 1369.32 1349.44 C 1367.72 1353.37 1366.44 1357.89 1363.29 1360.51 C 1361.91 1360.42 1361.18 1360.46 1359.85 1360.13 C 1359.22 1362.87 1359.96 1361.91 1358.22 1363.58 C 1352.42 1362.42 1343.89 1358.33 1337.8 1355.96 L 1343.43 1354.77 C 1339.78 1353.55 1336 1352.53 1332.29 1351.48 C 1328.32 1350.2 1326.19 1349.76 1322.07 1348.97 C 1311.23 1347.55 1312.76 1345.98 1304.79 1344.29 C 1290.17 1340.84 1275.3 1338.72 1260.64 1335.56 C 1257.26 1334.83 1257.8 1334.74 1256.58 1332.44 z"/>
<path transform="translate(0,0)" fill="rgb(25,24,23)" d="M 1343.43 1354.77 C 1347.14 1355.97 1357.13 1358.57 1359.85 1360.13 C 1359.22 1362.87 1359.96 1361.91 1358.22 1363.58 C 1352.42 1362.42 1343.89 1358.33 1337.8 1355.96 L 1343.43 1354.77 z"/>
<path transform="translate(0,0)" fill="rgb(25,24,23)" d="M 1367.29 1402.07 C 1375.16 1400.42 1377.76 1403.95 1383.93 1403.56 C 1394.58 1408.04 1400.74 1408.7 1412.14 1406.75 C 1413.82 1408.3 1413.54 1408.47 1415.48 1409.17 C 1424.38 1410.91 1432.16 1409.74 1440.02 1410.93 C 1435.13 1411.24 1417.35 1410.99 1414.64 1412.48 C 1417.12 1412.68 1418.2 1412.3 1419.72 1413.59 C 1429.14 1414.14 1461.79 1414.59 1467.04 1416.12 C 1459.75 1419.65 1390.09 1417.37 1377.49 1416 C 1374.88 1415.71 1374.08 1414.7 1372.93 1412.83 C 1372.53 1410.68 1368.69 1405.67 1367.29 1402.07 z"/>
<path transform="translate(0,0)" fill="rgb(238,235,237)" d="M 1372.93 1412.83 C 1388.92 1413.15 1403.63 1413.71 1419.72 1413.59 C 1429.14 1414.14 1461.79 1414.59 1467.04 1416.12 C 1459.75 1419.65 1390.09 1417.37 1377.49 1416 C 1374.88 1415.71 1374.08 1414.7 1372.93 1412.83 z"/>
<path transform="translate(0,0)" fill="rgb(238,235,237)" d="M 1386.18 1428.43 C 1392.38 1427.87 1412.14 1428.69 1419.51 1428.84 C 1427.64 1429 1447.95 1428.41 1454.34 1429.2 L 1454.44 1430.56 C 1446.19 1434.63 1392.19 1433.92 1386.18 1428.43 z"/>
<path transform="translate(0,0)" fill="rgb(200,193,189)" d="M 1432.28 1391.78 C 1438.44 1391.69 1474.66 1390.06 1478.91 1391.1 C 1478.48 1394.84 1479.31 1393.77 1477.41 1396.01 L 1475.64 1395.58 C 1471.14 1394.53 1438.13 1395.01 1431.08 1394.96 L 1432.28 1391.78 z"/>
<path transform="translate(0,0)" fill="rgb(200,193,189)" d="M 1415.48 1409.17 C 1425.38 1406.95 1460.86 1407.88 1471.73 1408.81 L 1471.44 1409.55 C 1460.21 1411.18 1451.4 1411.01 1440.02 1410.93 C 1432.16 1409.74 1424.38 1410.91 1415.48 1409.17 z"/>
<path transform="translate(0,0)" fill="rgb(200,193,189)" d="M 1426.69 1401.19 C 1432.47 1400.89 1473.47 1400.25 1475.7 1402.15 L 1474.03 1403.17 C 1465.99 1403.46 1432.3 1405.15 1425.85 1403.29 L 1426.69 1401.19 z"/>
<path transform="translate(0,0)" fill="rgb(200,193,189)" d="M 1435.54 1384.71 C 1443.72 1384.86 1471.87 1384.64 1478.08 1385.7 L 1478.15 1385.97 C 1466.69 1389.13 1446.94 1388.08 1434.53 1387.84 L 1435.54 1384.71 z"/>
<path transform="translate(0,0)" fill="rgb(200,193,189)" d="M 1379.7 1420.4 C 1391.49 1421.48 1432.21 1420.99 1438.94 1423.57 C 1430.95 1424.89 1384.76 1425.52 1379.7 1420.4 z"/>
<path transform="translate(0,0)" fill="rgb(238,235,237)" d="M 1430.61 1346.88 C 1438.74 1345.25 1458.44 1345.18 1466.24 1348.17 L 1466.34 1348.9 C 1460.08 1349.82 1440.04 1348.73 1432.34 1348.63 L 1430.61 1346.88 z"/>
<path transform="translate(0,0)" fill="rgb(123,120,119)" d="M 1439.24 1369.79 C 1451.47 1370.43 1466.18 1369.79 1477.75 1371.07 C 1475.32 1374.45 1444 1372.65 1438.47 1372.16 L 1439.24 1369.79 z"/>
<path transform="translate(0,0)" fill="rgb(154,152,150)" d="M 1438.23 1360.01 C 1444.5 1358.97 1468.92 1358.33 1474.08 1360.76 L 1473.75 1361.75 C 1466.03 1364.1 1445.04 1359.43 1439.35 1362.87 L 1438.83 1364.78 C 1438.01 1362.46 1438.29 1362.61 1438.23 1360.01 z"/>
<path transform="translate(0,0)" fill="rgb(200,193,189)" d="M 1434.74 1353.29 C 1441.92 1352.5 1464.56 1352.05 1470.69 1354.8 L 1471.16 1355.72 C 1460.95 1356.26 1446.44 1355.56 1436.14 1354.98 L 1434.74 1353.29 z"/>
<path transform="translate(0,0)" fill="rgb(86,86,84)" d="M 1304.79 1344.29 C 1312.76 1345.98 1311.23 1347.55 1322.07 1348.97 C 1312.92 1349.5 1291.9 1348.85 1282.89 1347.26 C 1291.95 1345.68 1295.81 1346.86 1304.01 1345.7 L 1304.79 1344.29 z"/>
<path transform="translate(0,0)" fill="rgb(200,193,189)" d="M 1438 1375.71 C 1450.81 1376.15 1465.75 1375.45 1478.05 1376.56 L 1477.79 1377.27 C 1470.61 1379.04 1446.46 1378.01 1437.57 1377.95 L 1438 1375.71 z"/>
<path transform="translate(0,0)" fill="rgb(154,152,150)" d="M 1438.85 1365.92 C 1446.09 1364.58 1468.89 1364.4 1475.18 1366.52 C 1468.39 1367.65 1445.88 1368 1439.04 1367.28 L 1438.85 1365.92 z"/>
<path transform="translate(0,0)" fill="rgb(154,152,150)" d="M 1417.96 1332.99 C 1424.59 1332.96 1443.85 1332.79 1448.89 1335.17 C 1442.1 1336.15 1425.62 1335.93 1418.57 1335.53 L 1417.96 1332.99 z"/>
<path transform="translate(0,0)" fill="rgb(238,235,237)" d="M 1424.6 1340.53 C 1433.96 1339.62 1450.37 1339.04 1459.36 1341.45 C 1454.39 1342.99 1433.58 1342.02 1426.72 1342.38 L 1424.6 1340.53 z"/>
<path transform="translate(0,0)" fill="rgb(25,24,23)" d="M 1325.68 1355.43 C 1329.24 1356.15 1328.17 1355.3 1330.48 1357.28 L 1329.24 1358.77 C 1325.19 1360.14 1317.21 1361.37 1314.5 1357.38 L 1315.67 1353.49 L 1325.68 1355.43 z"/>
<path transform="translate(0,0)" fill="rgb(123,120,119)" d="M 1332.29 1351.48 C 1336 1352.53 1339.78 1353.55 1343.43 1354.77 L 1337.8 1355.96 C 1332.25 1354.99 1331.26 1354.86 1325.68 1355.43 L 1315.67 1353.49 C 1320.7 1351.29 1325.99 1352.38 1332.29 1351.48 z"/>
<path transform="translate(0,0)" fill="rgb(200,193,189)" d="M 1436.83 1422.52 C 1442.06 1421.91 1459.57 1420.76 1463.3 1423.53 C 1457.02 1425.49 1442.33 1426.36 1436.83 1422.52 z"/>
<path transform="translate(0,0)" fill="rgb(123,120,119)" d="M 1415.02 1329.71 C 1421.52 1326.26 1431.63 1326.07 1438.18 1329.35 C 1431.7 1330.51 1421.89 1329.91 1415.02 1329.71 z"/>
<path transform="translate(0,0)" fill="rgb(154,152,150)" d="M 1408.08 1436.5 C 1415.76 1436.11 1425.29 1435.76 1432.3 1438.97 C 1426.38 1439.18 1412.17 1440.27 1408.08 1436.5 z"/>
</svg>