<svg version="1.1" xmlns="http://www.w3.org/2000/svg" style="display: block;" viewBox="0 0 2048 2048" width="1024" height="1024" preserveAspectRatio="none">
<path transform="translate(0,0)" fill="rgb(255,255,255)" d="M 0 0 L 2048 0 L 2048 2048 L 0 2048 L 0 0 z"/>
<path transform="translate(0,0)" fill="rgb(39,36,36)" d="M 923.295 724.66 C 926.476 724.763 925.116 724.203 927.672 725.719 C 929.262 743.847 927.976 783.133 927.95 802.543 L 917.068 803.122 L 917.16 832.553 C 942.042 833.707 978.751 832.216 1004.82 831.871 L 1153.5 830.31 L 1203.63 829.847 C 1224.17 829.693 1239.42 826.518 1255.04 842.327 C 1267.99 855.431 1273.69 864.561 1274.1 883.199 L 1378.97 882.942 L 1378.89 910.739 C 1396.39 910.681 1413.9 910.51 1431.4 910.224 C 1435.14 915.727 1443.08 923.674 1447.9 928.988 L 1447.9 973.079 C 1427.86 972.71 1407.81 972.483 1387.76 972.397 L 1387.71 1000.22 C 1352.14 999.692 1312.03 999.23 1276.63 1000.43 C 1276.36 1017.37 1275.38 1042.4 1276.76 1058.98 C 1256.28 1070.2 1215.13 1084.34 1191.19 1094.85 C 1160.74 1075.23 1128.81 1045.07 1093 1052.81 C 1079.8 1054.85 1059.82 1065.41 1052.42 1077.56 C 1030.98 1112.76 1021.77 1163.18 1007.57 1201.95 C 995.679 1234.38 992.149 1266.62 972.505 1294.68 C 971.441 1296.18 970.309 1297.62 969.111 1299.01 C 950.38 1321.06 927.685 1332.95 899.007 1335.17 C 899.018 1358.3 898.442 1380.62 897.473 1403.71 C 896.852 1418.53 897.197 1433.01 895.909 1447.92 C 885.893 1438.18 875.249 1429.23 864.581 1420.22 C 863.825 1393.29 864.135 1364.88 864.061 1337.88 C 834.11 1329.24 822.769 1319.59 800.254 1297.91 C 795.491 1293.33 786.697 1283.4 784.096 1277.6 C 773.7 1254.42 766.021 1229.2 758.129 1205.03 C 745.316 1166.16 732.915 1127.15 720.929 1088.01 C 717.485 1076.84 713.915 1065.72 710.22 1054.63 C 708.317 1049.08 701.48 1031.11 701.253 1026.51 C 700.381 1008.79 700.751 988.641 700.648 970.804 L 700.022 838.003 C 723.571 834.021 748.1 831.309 771.999 827.365 C 772.042 822.288 772.679 807.944 771.217 803.719 L 768.151 802.705 C 764.777 798.247 766.922 735.963 767.354 725.72 C 769.384 727.034 771.374 728.409 773.322 729.842 C 776.091 731.86 791.924 744.242 794.629 748.686 C 803.771 765.594 828.271 797.422 832.814 814.695 C 835.63 825.405 834.242 869.463 834.342 883.085 L 854.716 883.135 C 859.949 871.259 863.087 865.292 863.324 851.8 C 863.611 835.52 863.457 819.303 863.37 803.024 C 879.006 779.438 905.234 746.155 923.295 724.66 z"/>
<path transform="translate(0,0)" fill="rgb(255,255,255)" d="M 772.963 742.617 C 780.034 754.555 807.566 798.022 810.537 808.112 C 813.092 816.789 811.91 869.556 811.871 882.952 C 806.984 883.048 802.471 881.916 799.956 887.045 C 803.388 891.484 847.731 889.439 855.5 889.364 L 937.699 889.148 C 937.671 897.113 935.98 912.249 939.484 918.091 C 942.059 919.586 943.689 919.197 946.685 919.087 L 947.521 918.827 C 948.08 924.792 947.908 937.246 948.841 941.537 C 949.022 950.253 949.054 958.971 948.935 967.688 L 946.033 967.803 C 942.095 968.175 941.826 967.991 938.052 967.356 L 936.058 966.88 C 936.36 971.202 937.501 973.798 933.809 976.215 C 929.935 976.306 931.603 976.824 928.528 974.991 C 924.374 967.78 926.984 953.272 926.139 943.899 C 925.681 948.913 925.9 973.936 924.798 975.684 L 924.483 975.756 C 920.949 976.108 918.861 976.602 915.432 975.606 C 914.038 968.252 915.514 944.865 914.494 935.074 L 913.429 935.635 C 909.137 945.875 915.75 970.127 909.994 975.783 C 906 976.548 907.591 977.021 904.817 975.362 C 899.232 963.711 906.176 928.141 901.892 914.311 C 901.856 931.594 902.671 958.476 901.669 975.04 L 900.43 975.85 C 895.823 976.274 894.675 976.429 890.152 975.932 L 887.774 975.917 C 884.58 976.332 884.305 976.537 881.061 975.899 C 876.679 971.956 878.81 952.975 878.161 944.538 C 877.479 951.243 878.344 972.94 876.68 976.286 L 866.628 976.308 C 867.14 970.434 867.547 938.491 866.391 934.251 L 864.884 934.721 C 863.241 946.067 866.799 969.897 861.08 977.056 C 858.945 978.059 860.128 977.811 857.287 976.93 C 850.806 968.777 858.971 940.255 853.054 939.206 C 854.864 945.17 855.56 971.217 852.539 975.949 C 847.953 976.41 845.929 976.552 841.345 976.31 C 839.64 972.817 840.477 953.807 839.925 947.064 C 838.594 956.015 841.766 969.901 837.4 975.907 C 834.359 977.131 832.716 976.698 829.458 976.429 C 827.592 972.419 828.784 963.943 827.541 957.43 C 827.339 963.115 828.242 970.933 826.61 975.068 C 823.649 977.47 822.747 976.865 818.038 976.79 L 815.988 976.379 L 814.887 976.556 C 811.622 977.058 810.65 977.422 807.409 976.585 L 806.366 969.687 L 805.231 969.282 C 803.119 971.517 803.063 973.077 802.351 976.071 C 799.199 978.533 797.215 979.318 795.782 982.622 C 798.856 985.148 805.787 984.699 810.068 984.804 C 810.195 990.138 810.73 999.954 809.856 1004.84 L 809.747 1006.48 L 810.963 1019.62 L 810.27 1021.18 C 810.325 1024.63 810.826 1029.11 809.321 1031.98 C 803.042 1034.29 796.525 1033.84 788.969 1035.89 C 763.922 1042.69 742.647 1051.53 720.69 1065.48 C 719.274 1061.77 717.162 1058.01 718.302 1054.43 C 719.862 1053.16 720.616 1052.5 722.299 1051.4 L 720.2 1050.12 C 719.41 1050.51 717.824 1051.13 716.964 1051.49 C 714.145 1049.43 714.027 1046.85 712.682 1043 L 720.868 1037.14 L 719.396 1036.25 C 716.569 1038.13 716.304 1038.55 712.954 1039.4 C 710.329 1037.62 709.991 1034.84 708.664 1031.37 C 712.983 1027.46 718.228 1024.38 723.161 1021.24 L 721.517 1019.99 C 716.753 1022.44 712.603 1025.58 708.213 1028.66 C 707.314 1023.16 706.134 1019.42 708.772 1014.71 L 707.601 1013.31 C 707.068 1009.17 706.059 1003.39 708.323 999.894 L 707.403 998.108 C 707.002 994.898 707.214 989.739 707.291 986.421 L 707.166 983.894 C 706.585 976.218 705.303 975.016 711.016 969.913 L 709.133 969.003 L 707.439 967.621 C 702.889 951.935 727.632 950.923 732.432 941.384 L 731.651 940.866 C 723.859 945.093 713.984 951.234 707.077 956.685 L 706.981 944.594 C 714.265 939.396 728.217 932.51 733.492 927.887 L 732.569 927.37 C 726.687 928.55 712.948 938.361 706.996 942.19 C 706.602 932.099 705.094 930.609 714.059 925.154 L 712.607 923.778 C 711.041 924.721 710.004 925.213 708.368 926.019 L 706.715 924.84 C 702.787 909.998 731.791 904.105 741.591 897.04 L 741.233 895.977 C 733.379 894.965 716.349 911.13 707.878 910.832 L 706.602 909.187 C 706.613 905.129 706.715 904.024 707.404 900.03 L 707.071 898.379 C 706.642 891.145 704.725 887.772 710.935 883.728 L 709.163 882.853 L 707.824 882.086 C 702.528 874.433 709.198 870.016 715.363 867.371 L 714.022 866.038 C 710.58 867.615 711.016 868.035 707.733 867.804 L 706.275 865.593 C 706.489 861.583 706.528 860.966 707.613 857.144 L 707.349 855.949 C 705.81 853.38 706.533 846.853 706.667 843.648 C 715.158 842.149 732.294 838.854 740.114 839.583 L 743.564 841.411 C 750.245 839.108 775.281 833.499 777.593 830.017 C 778.991 823.724 779.956 801.822 777.895 796.696 C 776.183 796.151 775.079 795.836 773.327 795.448 C 771.818 791.002 772.856 750.443 772.963 742.617 z"/>
<path transform="translate(0,0)" fill="rgb(255,255,255)" d="M 809.747 1006.48 L 810.963 1019.62 L 810.27 1021.18 C 810.325 1024.63 810.826 1029.11 809.321 1031.98 C 803.042 1034.29 796.525 1033.84 788.969 1035.89 C 763.922 1042.69 742.647 1051.53 720.69 1065.48 C 719.274 1061.77 717.162 1058.01 718.302 1054.43 C 719.862 1053.16 720.616 1052.5 722.299 1051.4 L 720.2 1050.12 C 719.41 1050.51 717.824 1051.13 716.964 1051.49 C 714.145 1049.43 714.027 1046.85 712.682 1043 L 720.868 1037.14 C 753.193 1019.24 774.302 1013.15 809.747 1006.48 z"/>
<path transform="translate(0,0)" fill="rgb(255,255,255)" d="M 722.299 1051.4 C 751.343 1034.82 776.751 1024.43 810.27 1021.18 C 810.325 1024.63 810.826 1029.11 809.321 1031.98 C 803.042 1034.29 796.525 1033.84 788.969 1035.89 C 763.922 1042.69 742.647 1051.53 720.69 1065.48 C 719.274 1061.77 717.162 1058.01 718.302 1054.43 C 719.862 1053.16 720.616 1052.5 722.299 1051.4 z"/>
<path transform="translate(0,0)" fill="rgb(49,45,44)" d="M 720.2 1050.12 C 739.316 1038.04 788.839 1016.65 810.963 1019.62 L 810.27 1021.18 C 776.751 1024.43 751.343 1034.82 722.299 1051.4 L 720.2 1050.12 z"/>
<path transform="translate(0,0)" fill="rgb(255,255,255)" d="M 740.114 839.583 C 737.267 841.651 713.376 852.663 707.349 855.949 C 705.81 853.38 706.533 846.853 706.667 843.648 C 715.158 842.149 732.294 838.854 740.114 839.583 z"/>
<path transform="translate(0,0)" fill="rgb(49,45,44)" d="M 719.396 1036.25 C 739.851 1020.87 784.376 1007.57 809.856 1004.84 L 809.747 1006.48 C 774.302 1013.15 753.193 1019.24 720.868 1037.14 L 719.396 1036.25 z"/>
<path transform="translate(0,0)" fill="rgb(20,19,19)" d="M 887.774 975.917 C 887.694 968.352 886.733 925.285 888.705 921.604 C 891.262 932.042 890.133 963.279 890.152 975.932 L 887.774 975.917 z"/>
<path transform="translate(0,0)" fill="rgb(20,19,19)" d="M 946.685 919.087 L 947.521 918.827 C 948.08 924.792 947.908 937.246 948.841 941.537 C 949.022 950.253 949.054 958.971 948.935 967.688 L 946.033 967.803 C 945.98 957.117 945.245 928.342 946.685 919.087 z"/>
<path transform="translate(0,0)" fill="rgb(20,19,19)" d="M 900.43 975.85 L 900.236 974.458 C 899.472 968.573 898.472 918.71 901.892 914.311 C 901.856 931.594 902.671 958.476 901.669 975.04 L 900.43 975.85 z"/>
<path transform="translate(0,0)" fill="rgb(20,19,19)" d="M 721.517 1019.99 C 733.842 1012.87 756.245 1001.89 770.453 1000.16 L 770.709 1001.24 C 766.782 1003.01 760.855 1004.66 756.366 1006.33 C 744.519 1010.75 734.339 1015.23 723.161 1021.24 L 721.517 1019.99 z"/>
<path transform="translate(0,0)" fill="rgb(20,19,19)" d="M 707.601 1013.31 C 718.091 1006.66 743.647 991.322 755.447 991.796 C 749.907 994.624 743.878 996.525 738.157 999.131 C 728.13 1003.7 718.243 1009.09 708.772 1014.71 L 707.601 1013.31 z"/>
<path transform="translate(0,0)" fill="rgb(20,19,19)" d="M 709.163 882.853 C 720.376 876.753 746.276 862.601 758.298 863.313 C 756.628 864.46 753.669 865.484 751.712 865.982 C 738.255 869.406 722.935 879.28 710.935 883.728 L 709.163 882.853 z"/>
<path transform="translate(0,0)" fill="rgb(20,19,19)" d="M 714.022 866.038 C 726.544 860.199 750.756 848.815 763.787 846.991 C 762.445 848.388 720.662 865.039 715.363 867.371 L 714.022 866.038 z"/>
<path transform="translate(0,0)" fill="rgb(20,19,19)" d="M 876.68 976.286 C 875.303 970.006 875.236 934.053 876.886 927.08 L 877.656 927.081 C 878.732 933.005 878.328 938.526 878.161 944.538 C 877.479 951.243 878.344 972.94 876.68 976.286 z"/>
<path transform="translate(0,0)" fill="rgb(49,45,44)" d="M 707.071 898.379 C 716.317 893.495 737.315 881.837 746.599 879.428 L 747.681 879.835 C 745.461 881.885 711.57 898.579 707.404 900.03 L 707.071 898.379 z"/>
<path transform="translate(0,0)" fill="rgb(49,45,44)" d="M 707.403 998.108 C 719.386 991.414 728.363 986.242 741.381 981.602 L 742.422 981.912 C 740.137 984.274 713.888 996.736 708.323 999.894 L 707.403 998.108 z"/>
<path transform="translate(0,0)" fill="rgb(49,45,44)" d="M 707.166 983.894 C 712.683 980.489 730.988 969.577 737.107 968.657 L 738.182 969.774 C 729.088 975.72 715.238 979.908 707.291 986.421 L 707.166 983.894 z"/>
<path transform="translate(0,0)" fill="rgb(67,65,64)" d="M 740.114 839.583 L 743.564 841.411 C 731.445 846.198 718.403 853.032 707.613 857.144 L 707.349 855.949 C 713.376 852.663 737.267 841.651 740.114 839.583 z"/>
<path transform="translate(0,0)" fill="rgb(20,19,19)" d="M 853.054 939.206 C 854.864 945.17 855.56 971.217 852.539 975.949 C 851.533 969.749 851.183 945.29 853.054 939.206 z"/>
<path transform="translate(0,0)" fill="rgb(20,19,19)" d="M 936.058 966.88 C 935.287 958.496 935.889 946.108 936.638 937.849 C 938.851 941.532 938.134 961.827 938.052 967.356 L 936.058 966.88 z"/>
<path transform="translate(0,0)" fill="rgb(20,19,19)" d="M 924.483 975.756 C 923.66 971.071 923.182 941.554 925.077 938.086 C 926.907 941.157 926.188 939.511 926.139 943.899 C 925.681 948.913 925.9 973.936 924.798 975.684 L 924.483 975.756 z"/>
<path transform="translate(0,0)" fill="rgb(49,45,44)" d="M 709.133 969.003 C 713.525 965.531 728.193 956.902 733.524 955.103 L 734.724 955.857 C 732.901 958.79 716.519 965.883 711.016 969.913 L 709.133 969.003 z"/>
<path transform="translate(0,0)" fill="rgb(20,19,19)" d="M 712.607 923.778 C 721.233 918.626 725.01 916.224 734.332 912.892 C 732.753 916.111 717.83 923.261 714.059 925.154 L 712.607 923.778 z"/>
<path transform="translate(0,0)" fill="rgb(20,19,19)" d="M 839.925 947.064 L 841.62 948.053 C 842.338 953.444 842.604 971.339 841.345 976.31 C 839.64 972.817 840.477 953.807 839.925 947.064 z"/>
<path transform="translate(0,0)" fill="rgb(20,19,19)" d="M 827.541 957.43 C 827.652 956.734 827.763 956.039 827.875 955.343 L 829.094 955.348 C 830.682 960.721 830.432 970.979 829.458 976.429 C 827.592 972.419 828.784 963.943 827.541 957.43 z"/>
<path transform="translate(0,0)" fill="rgb(20,19,19)" d="M 815.988 976.379 C 815.482 971.661 814.656 968.27 816.112 963.816 L 817.268 964.075 C 818.806 968.76 818.275 971.868 818.038 976.79 L 815.988 976.379 z"/>
<path transform="translate(0,0)" fill="rgb(255,255,255)" d="M 832.035 998.11 L 935.061 998.015 C 935.223 1015.87 936.591 1043.11 933.787 1060.25 C 931.761 1072.64 921.708 1092.26 920.887 1105.82 C 920.399 1113.88 920.698 1122.68 920.674 1130.77 L 920.25 1179.2 C 919.825 1220.93 917.846 1268.17 919.578 1309.46 C 910.572 1316.17 908.954 1316.36 898.158 1317.94 C 911.004 1304.22 914.289 1296.73 910.457 1277.92 C 906.87 1269.81 901.024 1262.84 893.068 1258.71 C 885.972 1254.97 877.662 1254.24 870.026 1256.71 C 862.122 1259.26 854.369 1265.98 850.756 1273.42 C 840.465 1294.61 859.384 1306.61 862.335 1315.91 L 860.708 1316.8 C 854.828 1316.56 851.901 1315.36 846.323 1313.65 C 845.255 1301.47 845.67 1279.17 845.495 1265.77 C 845.017 1233.31 844.855 1200.83 845.011 1168.36 C 845.023 1150.19 844.966 1131.8 844.883 1113.61 C 844.807 1096.77 833.577 1080.19 832.631 1068.27 C 831.013 1047.86 831.907 1019.16 832.035 998.11 z"/>
<path transform="translate(0,0)" fill="rgb(20,19,19)" d="M 1011.23 988.856 C 1018.47 984.58 1031.83 972.674 1040.97 976.829 C 1044.12 976.798 1049.16 976.26 1051.47 977.864 C 1049.85 980.633 1046.52 982.551 1043.8 984.472 C 1043.25 985.012 1040.78 987.544 1040.34 987.84 L 1034.9 992.573 L 1037.19 994.444 C 1042.76 990.593 1042.4 989.954 1048.48 991.912 L 1048.65 991.082 L 1046.76 989.137 L 1046.96 987.06 C 1051.34 983.437 1055.54 984.571 1060.36 986.345 L 1060.96 985.568 C 1058.63 984.185 1058.08 983.894 1056.06 982.133 L 1056.38 979.827 C 1060.41 976.348 1065.86 976.807 1070.88 977.057 L 1073.91 979.425 L 1078.93 980.429 C 1089.63 982.128 1090.35 971.036 1108.5 980.386 C 1111.01 979.402 1110.21 980.263 1111.41 978.254 C 1117.26 976.746 1118.51 976.794 1124.6 976.891 C 1116.86 982.28 1115.83 984.771 1107.41 984.211 L 1106.82 984.725 C 1109.32 985.503 1109.25 985.226 1111.2 986.93 C 1109.72 992.509 1102.79 992.733 1098.04 991.635 L 1102.84 995.098 L 1103.8 994.634 C 1105.77 996.268 1104.7 996.031 1106.86 996.011 C 1109.94 996.7 1111.7 996.921 1114.62 998.142 L 1113.5 999.103 L 1114.89 1000.48 L 1117.77 1000.95 C 1120.66 998.003 1121.23 997.364 1124.64 995.155 C 1128.36 994.251 1130.32 995.61 1133.92 997.127 L 1135.41 995.392 L 1144.23 989.537 L 1146.04 991.78 L 1154.87 995.479 C 1156.54 995.996 1156.51 995.818 1157.93 996.748 C 1161.51 998.236 1162.43 997.917 1164.48 1000.57 C 1163.57 1003.22 1161.67 1004.38 1159.48 1006.24 L 1159.91 1007.33 C 1168.01 1002.03 1166.4 1001.61 1174.91 1006.06 C 1180.56 1010.09 1186.36 1013.92 1192.28 1017.54 L 1233.03 1047.29 C 1229.06 1049.4 1224.89 1052.08 1220.57 1052.69 L 1218.14 1051.31 L 1217.35 1052.36 L 1217.43 1053.33 C 1215.38 1055.87 1210.84 1057.27 1207.65 1058.61 C 1195.48 1050.04 1185.63 1043.09 1172.99 1034.94 L 1172.26 1036.89 C 1178.41 1041.85 1196.66 1053.13 1205.14 1059.27 L 1192.69 1064.68 C 1183.06 1058.83 1171.19 1050.07 1161.49 1043.6 C 1145.49 1033.13 1129.3 1022.93 1112.95 1013.01 L 1112.21 1014.79 C 1105.76 1010.54 1102.2 1008.21 1095.26 1004.92 C 1092.63 1006.76 1089.55 1008.57 1086.79 1010.28 L 1085.76 1009.58 C 1082.45 1008.88 1079.52 1007.12 1076.42 1005.58 L 1074.48 1006.44 C 1084.82 1012.63 1095.48 1019.28 1104.98 1026.68 C 1100.5 1026.87 1085.51 1027.93 1082.23 1026.67 L 1079.55 1027.95 C 1076.34 1029.28 1069.21 1030.85 1065.57 1031.76 C 1058.51 1025.79 1044.38 1016.04 1036.48 1011.26 L 1034.63 1012.44 C 1043.86 1018.68 1053.9 1025.2 1062.79 1031.83 C 1059.37 1033.48 1053.88 1036.36 1050.47 1037.44 L 1048.81 1038.55 C 1047.84 1041.47 1042.79 1044.6 1040.1 1046.33 L 1039.09 1047.91 C 1036.6 1050.82 1033.94 1054.38 1031.54 1057.43 C 1012.5 1040.96 966.701 1023.16 941.987 1014.93 L 941.87 1000.06 C 940.751 998.01 941.258 998.591 941.299 995.657 C 945.373 993.006 954.275 994.038 958.596 995.982 C 958.87 998.494 956.576 1000.5 955.208 1003.65 L 956.64 1003.77 C 964.002 996.266 963.238 996.928 973.153 998.371 L 973.556 996.934 C 970.438 996.617 970.285 996.867 967.707 995.234 L 968.461 993.531 C 972.437 990.839 975.923 990.407 980.615 989.275 C 978.973 988.108 979.23 988.387 977.858 986.903 L 981.571 984.161 C 985.308 983.89 985.084 984.644 989.066 986.869 L 990.06 985.943 C 988.054 984.466 987.808 984.128 986.124 982.257 L 986.428 980.217 C 990.201 977.288 996.39 977.498 1001.16 977.402 L 1003.38 978.719 L 1003.55 980.422 C 1001.95 981.932 1000.49 983.232 998.817 984.668 C 1003.1 986.042 1003 985.196 1004.73 988.091 C 1001.83 991.848 998.144 991.031 993.992 990.269 L 991.203 990.949 L 997.651 993.897 C 998.655 996.181 997.866 995.437 999.729 996.399 C 1003.79 997.026 1006.91 997.427 1010.88 998.572 L 1011.91 996.515 C 1009 995.772 1007.47 995.635 1005.07 993.771 C 1006.25 991.179 1008.27 990.696 1011.23 988.856 z"/>
<path transform="translate(0,0)" fill="rgb(255,255,255)" d="M 941.299 995.657 C 945.373 993.006 954.275 994.038 958.596 995.982 C 958.87 998.494 956.576 1000.5 955.208 1003.65 L 956.64 1003.77 L 969.033 1008.84 C 991.129 1018.45 1021.51 1031.03 1040.1 1046.33 L 1039.09 1047.91 C 1036.6 1050.82 1033.94 1054.38 1031.54 1057.43 C 1012.5 1040.96 966.701 1023.16 941.987 1014.93 L 941.87 1000.06 C 940.751 998.01 941.258 998.591 941.299 995.657 z"/>
<path transform="translate(0,0)" fill="rgb(20,19,19)" d="M 941.299 995.657 C 945.373 993.006 954.275 994.038 958.596 995.982 C 958.87 998.494 956.576 1000.5 955.208 1003.65 L 956.64 1003.77 L 969.033 1008.84 C 991.129 1018.45 1021.51 1031.03 1040.1 1046.33 L 1039.09 1047.91 C 1029.72 1042.56 1017.13 1032.84 1007.71 1029 C 988.494 1021.15 960.938 1005.28 941.87 1000.06 C 940.751 998.01 941.258 998.591 941.299 995.657 z"/>
<path transform="translate(0,0)" fill="rgb(255,255,255)" d="M 941.299 995.657 C 945.373 993.006 954.275 994.038 958.596 995.982 C 958.87 998.494 956.576 1000.5 955.208 1003.65 C 950.01 1001.05 945.971 999.225 941.299 995.657 z"/>
<path transform="translate(0,0)" fill="rgb(255,255,255)" d="M 1112.95 1013.01 L 1108.57 1009.48 C 1110.57 1006.37 1110.74 1006.41 1113.49 1004.15 C 1123.42 1003.32 1161.2 1029.67 1172.26 1036.89 C 1178.41 1041.85 1196.66 1053.13 1205.14 1059.27 L 1192.69 1064.68 C 1183.06 1058.83 1171.19 1050.07 1161.49 1043.6 C 1145.49 1033.13 1129.3 1022.93 1112.95 1013.01 z"/>
<path transform="translate(0,0)" fill="rgb(255,255,255)" d="M 1147.44 1004.65 C 1171.62 1019.23 1194.96 1035.16 1217.35 1052.36 L 1217.43 1053.33 C 1215.38 1055.87 1210.84 1057.27 1207.65 1058.61 C 1195.48 1050.04 1185.63 1043.09 1172.99 1034.94 C 1161.8 1027.59 1149.22 1019.6 1138.38 1011.85 L 1147.44 1004.65 z"/>
<path transform="translate(0,0)" fill="rgb(255,255,255)" d="M 1159.91 1007.33 C 1168.01 1002.03 1166.4 1001.61 1174.91 1006.06 C 1180.56 1010.09 1186.36 1013.92 1192.28 1017.54 L 1233.03 1047.29 C 1229.06 1049.4 1224.89 1052.08 1220.57 1052.69 L 1218.14 1051.31 C 1212.65 1044.36 1169.6 1015.85 1159.84 1009.31 L 1159.91 1007.33 z"/>
<path transform="translate(0,0)" fill="rgb(255,255,255)" d="M 990.818 1004.51 C 1013.14 1016.37 1027.69 1024.58 1048.81 1038.55 C 1047.84 1041.47 1042.79 1044.6 1040.1 1046.33 C 1021.51 1031.03 991.129 1018.45 969.033 1008.84 C 972.043 1007.62 970.862 1007.75 973.976 1007.82 C 981.819 1007.78 983.559 1007.29 990.818 1004.51 z"/>
<path transform="translate(0,0)" fill="rgb(255,255,255)" d="M 1011.15 1001.13 C 1014.53 1002.01 1018.21 1002.67 1021.09 1004.53 L 1018.36 1009.28 L 1018.75 1010.51 C 1021.04 1007.78 1020.78 1007.66 1024.17 1006.82 C 1028.18 1007.3 1031.24 1010.05 1034.63 1012.44 C 1043.86 1018.68 1053.9 1025.2 1062.79 1031.83 C 1059.37 1033.48 1053.88 1036.36 1050.47 1037.44 C 1038 1027.37 1015.38 1015.29 1000.78 1007.11 L 1011.15 1001.13 z"/>
<path transform="translate(0,0)" fill="rgb(255,255,255)" d="M 1056.15 1007.75 L 1064.71 1001.05 C 1068.04 1002.56 1071.3 1004.58 1074.48 1006.44 C 1084.82 1012.63 1095.48 1019.28 1104.98 1026.68 C 1100.5 1026.87 1085.51 1027.93 1082.23 1026.67 C 1073.7 1020.14 1065 1013.84 1056.15 1007.75 z"/>
<path transform="translate(0,0)" fill="rgb(255,255,255)" d="M 1033.06 1006.95 C 1039.35 1006.17 1039.75 1006.04 1045.14 1003.05 C 1056.76 1011.14 1068.23 1019.44 1079.55 1027.95 C 1076.34 1029.28 1069.21 1030.85 1065.57 1031.76 C 1058.51 1025.79 1044.38 1016.04 1036.48 1011.26 L 1032.03 1007.97 L 1033.06 1006.95 z"/>
<path transform="translate(0,0)" fill="rgb(255,255,255)" d="M 956.64 1003.77 C 964.002 996.266 963.238 996.928 973.153 998.371 C 971.729 1000.13 968.158 1003 968.691 1005.07 L 969.799 1004.29 C 975.965 999.97 978.849 998.216 986.04 1001.71 L 986.293 1003.19 C 982.097 1006.59 979.381 1007.31 973.976 1007.82 C 970.862 1007.75 972.043 1007.62 969.033 1008.84 L 956.64 1003.77 z"/>
<path transform="translate(0,0)" fill="rgb(229,227,228)" d="M 1108.5 980.386 C 1111.01 979.402 1110.21 980.263 1111.41 978.254 C 1117.26 976.746 1118.51 976.794 1124.6 976.891 C 1116.86 982.28 1115.83 984.771 1107.41 984.211 L 1106.82 984.725 C 1109.32 985.503 1109.25 985.226 1111.2 986.93 C 1109.72 992.509 1102.79 992.733 1098.04 991.635 L 1097.56 992.029 L 1097.93 989.429 C 1098.33 988.751 1107.16 981.515 1108.5 980.386 z"/>
<path transform="translate(0,0)" fill="rgb(255,255,255)" d="M 973.556 996.934 C 970.438 996.617 970.285 996.867 967.707 995.234 L 968.461 993.531 C 972.437 990.839 975.923 990.407 980.615 989.275 C 978.973 988.108 979.23 988.387 977.858 986.903 L 981.571 984.161 C 985.308 983.89 985.084 984.644 989.066 986.869 C 983.871 990.063 977.662 996.346 973.556 996.934 z"/>
<path transform="translate(0,0)" fill="rgb(255,255,255)" d="M 1084.78 999.127 L 1093.77 1003.1 L 1085.76 1009.58 C 1082.45 1008.88 1079.52 1007.12 1076.42 1005.58 L 1084.78 999.127 z"/>
<path transform="translate(0,0)" fill="rgb(229,227,228)" d="M 1146.04 991.78 L 1154.87 995.479 L 1146.85 1002.7 C 1142.87 1000.34 1141.75 1000.55 1139.76 997.116 C 1141.36 994.034 1142.64 994.009 1146.04 991.78 z"/>
<path transform="translate(0,0)" fill="rgb(255,255,255)" d="M 1114.89 1000.48 C 1111.5 1003.57 1109.54 1005.82 1105.07 1006.28 C 1101.35 1005.14 1102.71 1006.21 1100.61 1003.34 C 1101.87 996.038 1108.14 997.905 1113.5 999.103 L 1114.89 1000.48 z"/>
<path transform="translate(0,0)" fill="rgb(255,255,255)" d="M 1034.22 996.561 C 1037.33 998.014 1039.59 998.558 1041.14 1001.5 L 1040.39 1003.09 C 1036.98 1004.48 1035.78 1004.82 1032.18 1005.68 L 1033.06 1006.95 L 1032.03 1007.97 L 1025.68 1003.26 L 1034.22 996.561 z"/>
<path transform="translate(0,0)" fill="rgb(255,255,255)" d="M 1157.93 996.748 C 1161.51 998.236 1162.43 997.917 1164.48 1000.57 C 1163.57 1003.22 1161.67 1004.38 1159.48 1006.24 C 1155.59 1006.65 1155.8 1006.67 1152.09 1005.41 L 1151.15 1003.47 C 1152.25 999.917 1154.73 998.909 1157.93 996.748 z"/>
<path transform="translate(0,0)" fill="rgb(255,255,255)" d="M 1117.77 1000.95 C 1120.66 998.003 1121.23 997.364 1124.64 995.155 C 1128.36 994.251 1130.32 995.61 1133.92 997.127 C 1127.56 1005.13 1126.21 1004.39 1117.77 1000.95 z"/>
<path transform="translate(0,0)" fill="rgb(229,227,228)" d="M 1097.93 989.429 L 1097.56 992.029 L 1098.04 991.635 L 1102.84 995.098 C 1100.25 997.588 1099.59 998.146 1096.65 1000.21 C 1091.79 1000.48 1092.26 999.753 1087.19 997.322 C 1091.17 993.97 1093.66 992.274 1097.93 989.429 z"/>
<path transform="translate(0,0)" fill="rgb(255,255,255)" d="M 999.729 996.399 C 1003.79 997.026 1006.91 997.427 1010.88 998.572 C 1009.16 999.632 1007.43 1000.68 1005.7 1001.72 C 999.623 1005.45 999.845 1006.2 993.773 1002.96 L 993.785 1001.53 C 995.873 999.91 997.868 998.279 999.729 996.399 z"/>
<path transform="translate(0,0)" fill="rgb(255,255,255)" d="M 997.651 993.897 C 993.805 997.98 987.925 1001.58 983.283 996.508 L 984.05 994.337 C 987.441 992.097 987.349 992.062 991.203 990.949 L 997.651 993.897 z"/>
<path transform="translate(0,0)" fill="rgb(255,255,255)" d="M 1037.19 994.444 C 1042.76 990.593 1042.4 989.954 1048.48 991.912 L 1050.6 993.449 C 1049.91 996.617 1050.62 995.124 1047.61 997.627 C 1041.69 998.716 1041.63 998.477 1037.19 994.444 z"/>
<path transform="translate(0,0)" fill="rgb(217,219,215)" d="M 1060.96 985.568 C 1058.63 984.185 1058.08 983.894 1056.06 982.133 L 1056.38 979.827 C 1060.41 976.348 1065.86 976.807 1070.88 977.057 C 1067.75 979.676 1063.81 982.785 1060.96 985.568 z"/>
<path transform="translate(0,0)" fill="rgb(255,255,255)" d="M 1073.91 979.425 L 1078.93 980.429 L 1080.31 982.521 C 1078.72 987.599 1072.3 989.696 1069.08 985.556 C 1069.95 981.921 1070.47 982.502 1073.91 979.425 z"/>
<path transform="translate(0,0)" fill="rgb(255,255,255)" d="M 1048.65 991.082 L 1046.76 989.137 L 1046.96 987.06 C 1051.34 983.437 1055.54 984.571 1060.36 986.345 C 1055.96 990.657 1054.92 992.111 1048.65 991.082 z"/>
<path transform="translate(0,0)" fill="rgb(229,227,228)" d="M 990.06 985.943 C 988.054 984.466 987.808 984.128 986.124 982.257 L 986.428 980.217 C 990.201 977.288 996.39 977.498 1001.16 977.402 L 990.06 985.943 z"/>
<path transform="translate(0,0)" fill="rgb(255,255,255)" d="M 1011.23 988.856 C 1014.99 990.417 1015.18 989.706 1016.59 992.496 C 1014.99 995.061 1014.6 994.938 1011.91 996.515 C 1009 995.772 1007.47 995.635 1005.07 993.771 C 1006.25 991.179 1008.27 990.696 1011.23 988.856 z"/>
<path transform="translate(0,0)" fill="rgb(229,227,228)" d="M 1040.97 976.829 C 1044.12 976.798 1049.16 976.26 1051.47 977.864 C 1049.85 980.633 1046.52 982.551 1043.8 984.472 L 1043.19 984.047 C 1040.05 979.423 1040.22 981.184 1040.97 976.829 z"/>
<path transform="translate(0,0)" fill="rgb(255,255,255)" d="M 998.817 984.668 C 1003.1 986.042 1003 985.196 1004.73 988.091 C 1001.83 991.848 998.144 991.031 993.992 990.269 L 993.533 988.992 C 994.775 985.895 994.888 986.701 998.817 984.668 z"/>
<path transform="translate(0,0)" fill="rgb(217,219,215)" d="M 1034.9 992.573 C 1032.35 992.632 1030.12 991.924 1027.64 991.33 L 1026.79 989.754 L 1029.97 987.36 L 1040.34 987.84 L 1034.9 992.573 z"/>
<path transform="translate(0,0)" fill="rgb(229,227,228)" d="M 1029.97 987.36 C 1035.69 981.888 1035.63 981.653 1043.19 984.047 L 1043.8 984.472 C 1043.25 985.012 1040.78 987.544 1040.34 987.84 L 1029.97 987.36 z"/>
<path transform="translate(0,0)" fill="rgb(255,255,255)" d="M 1065.75 986.715 C 1069.73 988.155 1069.95 987.505 1072.13 990.288 C 1071.01 993.551 1066.89 995.85 1063.91 998.022 L 1056.09 993.874 L 1065.75 986.715 z"/>
<path transform="translate(0,0)" fill="rgb(255,255,255)" d="M 1136.37 999.74 C 1139.28 1000.73 1141.35 1001.04 1143.22 1003.4 C 1142.05 1007.44 1140.84 1007.45 1137.24 1010.87 C 1134.41 1009.51 1131.36 1008.58 1129.9 1006.03 C 1131.27 1002.56 1132.77 1002.42 1136.37 999.74 z"/>
<path transform="translate(0,0)" fill="rgb(255,255,255)" d="M 1054.1 995.814 C 1057.7 996.788 1059.8 997.305 1061.36 999.995 C 1060.24 1003.11 1057.68 1004.29 1054.84 1006.27 C 1051.97 1004.94 1050 1004.4 1048.14 1001.88 C 1049.3 998.257 1050.23 998.644 1054.1 995.814 z"/>
<path transform="translate(0,0)" fill="rgb(255,255,255)" d="M 1074.37 993.683 C 1077.38 993.712 1079.83 994.335 1081.77 996.532 C 1080.3 1000.6 1079.8 999.95 1075.84 1003.18 C 1073.99 1003.6 1072.36 1002.97 1070.34 1002.55 L 1068.94 1000.25 C 1070.29 995.796 1069.94 997.15 1074.37 993.683 z"/>
<path transform="translate(0,0)" fill="rgb(255,255,255)" d="M 1023.47 992.144 L 1032.47 994.7 C 1029.48 997.318 1026.51 999.446 1023.32 1001.8 L 1013.63 999.113 L 1023.47 992.144 z"/>
<path transform="translate(0,0)" fill="rgb(255,255,255)" d="M 1083.61 985.707 C 1086.92 986.687 1088.36 986.333 1091.68 988.157 C 1090.98 990.765 1088.07 992.386 1085.58 994.435 C 1083.01 994.821 1080.05 993.994 1078.5 991.863 C 1079.53 988.046 1079.85 988.835 1083.61 985.707 z"/>
<path transform="translate(0,0)" fill="rgb(255,255,255)" d="M 1260.11 890.498 C 1296.9 890.331 1335.66 889.569 1372.32 890.306 C 1372.5 908.707 1372.5 927.11 1372.3 945.511 C 1372.23 953.674 1372.52 967.464 1371.51 975.186 C 1368.83 976.775 1365.7 976.199 1362.58 975.642 L 1361.48 975.068 C 1361.47 964.483 1361.83 950.884 1360.84 940.58 L 1360.74 941.895 C 1360.15 950.979 1361.08 968.163 1359.72 975.393 C 1356.11 976.851 1353.34 976.173 1349.42 975.819 C 1348.16 972.933 1348.15 969.022 1347.85 965.711 C 1347.64 969.547 1347.84 972.575 1346.17 975.991 C 1342.3 976.685 1344.02 977.013 1340.77 975.316 C 1335.99 966.962 1340.18 948.318 1337.93 937.411 C 1337.58 944.505 1338.45 972.462 1336.72 976.319 C 1333.47 976.323 1329.86 976.846 1327.37 975.139 C 1325.14 963.373 1328.58 948.764 1326.04 937.138 C 1324.84 948.296 1325.97 964.225 1325.63 976.072 L 1324.65 976.417 L 1314.38 976.276 C 1311.54 970.452 1315.37 947.116 1312.33 942.258 C 1312.34 950.451 1313.96 969.19 1310.74 975.448 C 1307.99 977.13 1305.68 976.889 1302.48 975.964 L 1301.67 976.381 C 1300.49 965.506 1301.46 949.108 1300.88 937.119 C 1298.4 948.434 1302.84 966.898 1298.62 975.692 C 1295.59 977.414 1295.44 976.712 1291.25 976.524 L 1289 976.349 C 1285.04 977.234 1282.71 977.198 1279.02 975.828 L 1277.63 973.958 L 1275.99 976.083 C 1272.58 976.944 1269.91 976.883 1266.53 976.348 C 1265.22 972.188 1266.07 941.083 1266.15 935.104 C 1262.48 935.703 1259.07 936.99 1255.55 938.168 C 1256.04 934.93 1256 931.662 1256.08 928.381 C 1259.28 911.618 1260.42 908.538 1260.11 890.498 z"/>
<path transform="translate(0,0)" fill="rgb(20,19,19)" d="M 1289 976.349 C 1288.9 962.09 1287.59 931.98 1290 919.15 L 1290.61 918.686 C 1291.45 937.81 1291.24 957.352 1291.25 976.524 L 1289 976.349 z"/>
<path transform="translate(0,0)" fill="rgb(20,19,19)" d="M 1360.84 940.58 C 1360.54 932.615 1360.03 928.11 1362.56 920.424 C 1363.65 927.575 1363.87 969.182 1362.58 975.642 L 1361.48 975.068 C 1361.47 964.483 1361.83 950.884 1360.84 940.58 z"/>
<path transform="translate(0,0)" fill="rgb(20,19,19)" d="M 1312.33 942.258 C 1312.17 936.348 1311.17 924.133 1313.17 919.315 L 1314.2 919.957 C 1315.7 927.958 1315.68 968.786 1314.38 976.276 C 1311.54 970.452 1315.37 947.116 1312.33 942.258 z"/>
<path transform="translate(0,0)" fill="rgb(49,45,44)" d="M 1275.99 976.083 C 1276.01 967.965 1275.12 938.244 1277.78 933.346 C 1279.71 940.244 1279.04 966.767 1279.02 975.828 L 1277.63 973.958 L 1275.99 976.083 z"/>
<path transform="translate(0,0)" fill="rgb(20,19,19)" d="M 1347.85 965.711 C 1347.71 958.19 1346.8 943.232 1349 936.737 L 1349.69 936.894 C 1350.19 944.803 1350.76 968.486 1349.42 975.819 C 1348.16 972.933 1348.15 969.022 1347.85 965.711 z"/>
<path transform="translate(0,0)" fill="rgb(20,19,19)" d="M 1300.88 937.119 L 1302.54 938.06 C 1303.43 944.184 1303.28 970.245 1302.48 975.964 L 1301.67 976.381 C 1300.49 965.506 1301.46 949.108 1300.88 937.119 z"/>
<path transform="translate(0,0)" fill="rgb(20,19,19)" d="M 1324.65 976.417 C 1323.43 971.057 1322.65 940.544 1326.04 937.138 C 1324.84 948.296 1325.97 964.225 1325.63 976.072 L 1324.65 976.417 z"/>
<path transform="translate(0,0)" fill="rgb(20,19,19)" d="M 1336.72 976.319 C 1335.2 970.605 1335.83 946.78 1336.28 939.604 C 1336.37 938.09 1336.35 938.708 1337.93 937.411 C 1337.58 944.505 1338.45 972.462 1336.72 976.319 z"/>
<path transform="translate(0,0)" fill="rgb(255,255,255)" d="M 936.601 1075.85 C 966.568 1085.69 985.355 1092.31 1011.46 1111.59 L 1008.24 1122.29 L 999.911 1117.2 L 997.658 1118.4 L 1007.72 1124.39 L 1004.23 1135.6 L 993.402 1129.27 L 991.59 1130.47 C 995.597 1132.97 999.937 1135.56 1003.85 1138.13 C 1002.6 1142.48 1002.53 1145.69 999.548 1148.15 C 996.782 1147.65 996.712 1147.28 994.353 1145.62 L 993.062 1147.14 C 996.051 1149 996.054 1148.94 998.419 1151.52 C 999.623 1155.42 998.212 1158.39 997.055 1162.48 C 987.152 1156.42 976.903 1150.09 966.332 1145.34 L 965.778 1147.13 C 959.392 1144.16 953.515 1141.78 946.972 1139.16 C 942.036 1136.82 932.102 1134.7 926.591 1133.42 L 926.874 1131.92 C 926.841 1126.84 926.559 1123.11 927.665 1118.12 L 928.219 1115.79 C 926.081 1112.08 926.117 1107.46 929.137 1104.31 L 931.098 1102.39 L 929.244 1100.97 C 929.038 1096.17 929.598 1094.42 932.444 1090.54 L 934.83 1090.27 L 935.379 1088.88 L 933.541 1087.34 C 933.251 1083.26 935.089 1079.79 936.601 1075.85 z"/>
<path transform="translate(0,0)" fill="rgb(255,255,255)" d="M 929.137 1104.31 C 951.396 1109.3 972.134 1118.74 991.59 1130.47 C 995.597 1132.97 999.937 1135.56 1003.85 1138.13 C 1002.6 1142.48 1002.53 1145.69 999.548 1148.15 C 996.782 1147.65 996.712 1147.28 994.353 1145.62 L 993.062 1147.14 C 996.051 1149 996.054 1148.94 998.419 1151.52 C 999.623 1155.42 998.212 1158.39 997.055 1162.48 C 987.152 1156.42 976.903 1150.09 966.332 1145.34 L 965.778 1147.13 C 959.392 1144.16 953.515 1141.78 946.972 1139.16 C 942.036 1136.82 932.102 1134.7 926.591 1133.42 L 926.874 1131.92 C 926.841 1126.84 926.559 1123.11 927.665 1118.12 L 928.219 1115.79 C 926.081 1112.08 926.117 1107.46 929.137 1104.31 z"/>
<path transform="translate(0,0)" fill="rgb(255,255,255)" d="M 927.665 1118.12 C 952.159 1126.04 970.963 1133.27 993.062 1147.14 C 996.051 1149 996.054 1148.94 998.419 1151.52 C 999.623 1155.42 998.212 1158.39 997.055 1162.48 C 987.152 1156.42 976.903 1150.09 966.332 1145.34 L 965.778 1147.13 C 959.392 1144.16 953.515 1141.78 946.972 1139.16 C 942.036 1136.82 932.102 1134.7 926.591 1133.42 L 926.874 1131.92 C 926.841 1126.84 926.559 1123.11 927.665 1118.12 z"/>
<path transform="translate(0,0)" fill="rgb(49,45,44)" d="M 926.874 1131.92 C 936.86 1132.64 958.283 1139.97 966.332 1145.34 L 965.778 1147.13 C 959.392 1144.16 953.515 1141.78 946.972 1139.16 C 942.036 1136.82 932.102 1134.7 926.591 1133.42 L 926.874 1131.92 z"/>
<path transform="translate(0,0)" fill="rgb(20,19,19)" d="M 928.219 1115.79 C 947.81 1121.73 978.277 1133.85 994.353 1145.62 L 993.062 1147.14 C 970.963 1133.27 952.159 1126.04 927.665 1118.12 L 928.219 1115.79 z"/>
<path transform="translate(0,0)" fill="rgb(255,255,255)" d="M 931.098 1102.39 L 929.244 1100.97 C 929.038 1096.17 929.598 1094.42 932.444 1090.54 L 934.83 1090.27 L 936.562 1091 C 943.369 1093.83 952.293 1096.42 959.496 1099.18 C 974.072 1104.77 984.363 1110.35 997.658 1118.4 L 1007.72 1124.39 L 1004.23 1135.6 L 993.402 1129.27 L 991.59 1130.47 C 972.134 1118.74 951.396 1109.3 929.137 1104.31 L 931.098 1102.39 z"/>
<path transform="translate(0,0)" fill="rgb(20,19,19)" d="M 931.098 1102.39 C 951.531 1107.71 975.864 1117.21 993.402 1129.27 L 991.59 1130.47 C 972.134 1118.74 951.396 1109.3 929.137 1104.31 L 931.098 1102.39 z"/>
<path transform="translate(0,0)" fill="rgb(20,19,19)" d="M 935.379 1088.88 C 957.076 1093.51 981.128 1105.46 999.911 1117.2 L 997.658 1118.4 C 984.363 1110.35 974.072 1104.77 959.496 1099.18 C 952.293 1096.42 943.369 1093.83 936.562 1091 L 934.83 1090.27 L 935.379 1088.88 z"/>
<path transform="translate(0,0)" fill="rgb(255,255,255)" d="M 870.165 805.15 C 882.384 786.819 902.406 761.134 916.301 743.742 L 916.417 794.343 C 907.226 794.546 897.686 794.894 888.522 794.832 L 888.84 839.901 C 903.724 846.415 922.738 855.067 937.985 860.227 C 937.513 864.312 937.057 867.969 936.916 872.108 C 919.831 864.247 902.155 857.742 884.05 852.653 C 886.214 858.175 932.608 867.955 936.753 876.319 C 936.618 879.492 937.097 877.957 934.447 880.757 C 929.452 882.696 926.735 881.365 921.521 879.562 L 921.284 881.504 L 922.546 882.298 L 921.634 883.409 C 910.023 884.291 894.04 883.527 882.763 880.275 L 880.773 882.348 L 879.648 883.205 C 873.481 883.572 869.471 884.233 863.726 881.612 L 863.399 879.539 C 865.892 877.738 864.952 878.34 868.179 877.59 L 868.216 876.02 L 867.032 874.907 C 866.701 871.386 868.229 868.571 869.528 865.181 L 870.524 864.164 C 868.979 860.545 870.082 813.647 870.165 805.15 z"/>
<path transform="translate(0,0)" fill="rgb(255,255,255)" d="M 870.524 864.164 C 883.991 866.167 909.541 873.409 921.521 879.562 L 921.284 881.504 L 922.546 882.298 L 921.634 883.409 C 910.023 884.291 894.04 883.527 882.763 880.275 L 880.773 882.348 L 879.648 883.205 C 873.481 883.572 869.471 884.233 863.726 881.612 L 863.399 879.539 C 865.892 877.738 864.952 878.34 868.179 877.59 L 868.216 876.02 L 867.032 874.907 C 866.701 871.386 868.229 868.571 869.528 865.181 L 870.524 864.164 z"/>
<path transform="translate(0,0)" fill="rgb(49,45,44)" d="M 870.524 864.164 C 883.991 866.167 909.541 873.409 921.521 879.562 L 921.284 881.504 C 905.629 874.8 886.078 869.58 869.528 865.181 L 870.524 864.164 z"/>
<path transform="translate(0,0)" fill="rgb(255,255,255)" d="M 880.773 882.348 L 879.648 883.205 C 873.481 883.572 869.471 884.233 863.726 881.612 L 863.399 879.539 C 865.892 877.738 864.952 878.34 868.179 877.59 C 870.962 878.583 878.328 881.048 880.773 882.348 z"/>
<path transform="translate(0,0)" fill="rgb(49,45,44)" d="M 868.216 876.02 C 872.189 877.098 879.192 878.775 882.763 880.275 L 880.773 882.348 C 878.328 881.048 870.962 878.583 868.179 877.59 L 868.216 876.02 z"/>
<path transform="translate(0,0)" fill="rgb(255,255,255)" d="M 941.97 1016.99 C 974.007 1028.36 1002.3 1039.69 1030.46 1059.15 L 1024.84 1069.71 L 1023.6 1070.48 C 1022.86 1074.34 1022.4 1078.03 1019.38 1080.66 C 1017.45 1080.5 1017.78 1080.69 1016.05 1080.01 L 1015.07 1080.92 C 1017.3 1082.51 1016.74 1082.07 1018.55 1084.16 C 1019.14 1087.88 1017.2 1091.7 1015.85 1095.36 C 991.409 1078.47 968.363 1069.21 940.895 1059.18 C 941.057 1055.6 941.598 1051.04 941.921 1047.38 L 941.882 1046.02 L 941.967 1031.68 L 941.648 1030.74 C 941.758 1026.19 941.926 1021.53 941.97 1016.99 z"/>
<path transform="translate(0,0)" fill="rgb(255,255,255)" d="M 941.97 1016.99 C 974.007 1028.36 1002.3 1039.69 1030.46 1059.15 L 1024.84 1069.71 L 1023.6 1070.48 C 994.179 1053.39 984.515 1046.85 950.724 1035.37 L 941.967 1031.68 L 941.648 1030.74 C 941.758 1026.19 941.926 1021.53 941.97 1016.99 z"/>
<path transform="translate(0,0)" fill="rgb(20,19,19)" d="M 951.418 1033.4 C 969.844 1039.51 1012.87 1057.02 1024.84 1069.71 L 1023.6 1070.48 C 994.179 1053.39 984.515 1046.85 950.724 1035.37 L 951.418 1033.4 z"/>
<path transform="translate(0,0)" fill="rgb(102,96,99)" d="M 941.648 1030.74 C 946.302 1031.48 947.235 1031.47 951.418 1033.4 L 950.724 1035.37 L 941.967 1031.68 L 941.648 1030.74 z"/>
<path transform="translate(0,0)" fill="rgb(255,255,255)" d="M 941.921 1047.38 C 972.495 1056.71 988.087 1065.45 1015.07 1080.92 C 1017.3 1082.51 1016.74 1082.07 1018.55 1084.16 C 1019.14 1087.88 1017.2 1091.7 1015.85 1095.36 C 991.409 1078.47 968.363 1069.21 940.895 1059.18 C 941.057 1055.6 941.598 1051.04 941.921 1047.38 z"/>
<path transform="translate(0,0)" fill="rgb(49,45,44)" d="M 941.882 1046.02 C 958.392 1049.31 1005.67 1068.74 1016.05 1080.01 L 1015.07 1080.92 C 988.087 1065.45 972.495 1056.71 941.921 1047.38 L 941.882 1046.02 z"/>
<path transform="translate(0,0)" fill="rgb(20,19,19)" d="M 1245.08 976.952 L 1250.74 977.501 L 1253.02 977.889 C 1254.8 982.326 1253.59 982.703 1250.74 986.484 L 1253.88 988.257 L 1253.51 992.126 L 1252.36 992.597 L 1247.14 989.309 C 1246.82 991.602 1246.44 990.946 1247.31 992.302 C 1256.31 997.506 1254.1 1000.62 1253.64 1010.37 C 1250.34 1008.15 1244.14 1003.69 1240.84 1002.08 L 1239.82 1003.24 C 1244.16 1006.34 1249.36 1009.87 1253.45 1013.17 C 1253.51 1017.57 1254.36 1021.5 1252.43 1024.75 C 1249.66 1024.61 1248.51 1023.25 1246.29 1021.49 L 1246 1023.96 C 1250.92 1027.87 1255.7 1031.4 1252.29 1038.28 C 1247.18 1040.14 1246.05 1038.33 1241.95 1035.11 L 1240.75 1036.18 C 1243.03 1037.81 1244.02 1038.1 1245.04 1040.66 C 1243.01 1043.82 1239.48 1044.62 1235.54 1046.46 C 1221.16 1036.42 1207.92 1025.75 1193.16 1015.81 L 1192.28 1017.54 C 1186.36 1013.92 1180.56 1010.09 1174.91 1006.06 L 1175.6 1004.97 C 1173.48 1003.24 1172.13 1002.58 1171.52 999.951 C 1173.12 996.731 1175.29 996.04 1178.6 993.795 L 1179.88 992.608 L 1188.47 985.927 C 1191.34 987.377 1194.53 988.304 1195.73 990.693 L 1197.04 992.463 C 1200.9 992.996 1201.72 993.48 1205.39 995.005 L 1206.55 993.69 C 1203.16 991.804 1203.48 992.609 1201.72 989.719 L 1202.41 987.204 C 1207.26 983.724 1209.45 985.068 1214.3 986.902 L 1215.53 985.277 L 1218.58 984.919 L 1220.15 987.563 C 1223.48 985.563 1225.49 984.537 1229.01 982.886 L 1229.86 980.532 C 1234.11 975.736 1239.05 976.93 1245.08 976.952 z"/>
<path transform="translate(0,0)" fill="rgb(255,255,255)" d="M 1187.95 1000.07 C 1206.86 1011.95 1222.73 1022.99 1240.75 1036.18 C 1243.03 1037.81 1244.02 1038.1 1245.04 1040.66 C 1243.01 1043.82 1239.48 1044.62 1235.54 1046.46 C 1221.16 1036.42 1207.92 1025.75 1193.16 1015.81 L 1179.22 1006.14 C 1182.56 1004.05 1185.01 1002.67 1187.95 1000.07 z"/>
<path transform="translate(0,0)" fill="rgb(255,255,255)" d="M 1198.47 1004.12 C 1207.4 997.474 1207.03 996.062 1217 1001.47 C 1214.21 1003.12 1211.43 1004.8 1208.66 1006.49 C 1210.72 1006.88 1216.17 1004.39 1218.65 1003.48 C 1227.62 1009.87 1237.12 1017.29 1246 1023.96 C 1250.92 1027.87 1255.7 1031.4 1252.29 1038.28 C 1247.18 1040.14 1246.05 1038.33 1241.95 1035.11 C 1232.13 1027.06 1208.88 1010.12 1198.47 1004.12 z"/>
<path transform="translate(0,0)" fill="rgb(255,255,255)" d="M 1228.62 995.55 C 1232.91 998.896 1235.15 1000.48 1239.82 1003.24 C 1244.16 1006.34 1249.36 1009.87 1253.45 1013.17 C 1253.51 1017.57 1254.36 1021.5 1252.43 1024.75 C 1249.66 1024.61 1248.51 1023.25 1246.29 1021.49 C 1238.57 1014.92 1228.69 1007.95 1220.44 1001.82 C 1223.25 999.892 1225.94 997.672 1228.62 995.55 z"/>
<path transform="translate(0,0)" fill="rgb(255,255,255)" d="M 1247.31 992.302 C 1256.31 997.506 1254.1 1000.62 1253.64 1010.37 C 1250.34 1008.15 1244.14 1003.69 1240.84 1002.08 L 1239.04 1000.28 L 1239.27 998.482 C 1242.07 995.877 1244.15 994.507 1247.31 992.302 z"/>
<path transform="translate(0,0)" fill="rgb(255,255,255)" d="M 1250.74 977.501 L 1253.02 977.889 C 1254.8 982.326 1253.59 982.703 1250.74 986.484 L 1253.88 988.257 L 1253.51 992.126 L 1252.36 992.597 L 1247.14 989.309 C 1244.76 988.36 1243.54 988.192 1241.95 986.246 L 1242.69 984.318 C 1246.29 981.914 1246.88 981.409 1249.97 978.292 L 1250.74 977.501 z"/>
<path transform="translate(0,0)" fill="rgb(255,255,255)" d="M 1178.6 993.795 C 1182.49 996.056 1183.01 995.425 1184.23 998.652 C 1182.22 1001.99 1179.49 1003.24 1175.6 1004.97 C 1173.48 1003.24 1172.13 1002.58 1171.52 999.951 C 1173.12 996.731 1175.29 996.04 1178.6 993.795 z"/>
<path transform="translate(0,0)" fill="rgb(255,255,255)" d="M 1206.55 993.69 C 1203.16 991.804 1203.48 992.609 1201.72 989.719 L 1202.41 987.204 C 1207.26 983.724 1209.45 985.068 1214.3 986.902 C 1213.92 990.179 1209.38 992.262 1206.55 993.69 z"/>
<path transform="translate(0,0)" fill="rgb(255,255,255)" d="M 1188.47 985.927 C 1191.34 987.377 1194.53 988.304 1195.73 990.693 C 1187.96 995.656 1188.69 996.481 1179.88 992.608 L 1188.47 985.927 z"/>
<path transform="translate(0,0)" fill="rgb(255,255,255)" d="M 1197.04 992.463 C 1200.9 992.996 1201.72 993.48 1205.39 995.005 C 1201.46 999.125 1199.21 1001.22 1193.31 1000.58 L 1192.12 999.075 C 1192.64 995.242 1193.27 995.894 1197.04 992.463 z"/>
<path transform="translate(0,0)" fill="rgb(255,255,255)" d="M 1229.01 982.886 L 1232.87 985.08 L 1233.39 987.17 C 1229.02 992.474 1225.08 990.519 1220.15 987.563 C 1223.48 985.563 1225.49 984.537 1229.01 982.886 z"/>
<path transform="translate(0,0)" fill="rgb(229,227,228)" d="M 1229.86 980.532 C 1234.11 975.736 1239.05 976.93 1245.08 976.952 C 1242.01 979.377 1239.33 982.07 1235.56 982.702 C 1232.59 981.98 1232.42 982.095 1229.86 980.532 z"/>
<path transform="translate(0,0)" fill="rgb(229,227,228)" d="M 1218.28 989.788 C 1221.11 990.743 1223.19 991.335 1224.47 993.95 C 1223.47 996.816 1221.13 997.868 1218.52 999.673 C 1215.72 998.266 1214.91 998.106 1212.74 995.833 C 1213.58 992.564 1214.98 992.46 1218.28 989.788 z"/>
<path transform="translate(0,0)" fill="rgb(255,255,255)" d="M 1237.15 988.799 C 1239.7 988.602 1242.07 989.136 1243.91 990.854 C 1242.77 994.323 1242.21 993.77 1238.56 996.479 C 1235.95 997.486 1234.99 997.232 1232.62 996.243 L 1231.93 994.509 C 1233.21 990.579 1232.95 991.747 1237.15 988.799 z"/>
<path transform="translate(0,0)" fill="rgb(255,255,255)" d="M 770.359 1221.24 C 786.292 1211.99 807.051 1205.27 824.819 1200.03 C 825.075 1205.05 826.235 1209.35 822.582 1212.88 L 823.526 1214.58 C 825.379 1218.18 825.957 1223.78 822.889 1226.85 L 823.829 1228.65 C 825.076 1232.42 825.522 1236.68 824.032 1240.44 L 822.668 1241.49 L 823.81 1243.67 C 824.755 1248.72 824.928 1249.2 824.403 1254.22 L 823.528 1255.44 L 823.719 1257.69 C 824.667 1262.17 824.702 1263.43 824.691 1268.04 C 813.737 1272.08 805.143 1275.55 794.497 1280.34 C 792.54 1277.43 790.576 1275.24 790.19 1271.84 L 790.67 1270.14 L 789.975 1268.82 C 785.742 1266.48 785.122 1263.47 784.127 1258.98 L 783.043 1256.95 C 780.041 1251.2 778.495 1248.87 783.163 1244.23 L 781.77 1243.04 C 781.12 1243.31 779.918 1243.44 779.161 1243.57 C 776.808 1241.27 775.946 1236.85 774.942 1233.48 C 778.693 1231.36 783.285 1229.25 787.208 1227.31 L 785.636 1225.89 L 774.04 1231.5 L 770.359 1221.24 z"/>
<path transform="translate(0,0)" fill="rgb(255,255,255)" d="M 823.81 1243.67 C 824.755 1248.72 824.928 1249.2 824.403 1254.22 L 823.528 1255.44 L 823.719 1257.69 C 824.667 1262.17 824.702 1263.43 824.691 1268.04 C 813.737 1272.08 805.143 1275.55 794.497 1280.34 C 792.54 1277.43 790.576 1275.24 790.19 1271.84 L 790.67 1270.14 L 789.975 1268.82 C 785.742 1266.48 785.122 1263.47 784.127 1258.98 C 798.284 1252.52 808.655 1247.85 823.81 1243.67 z"/>
<path transform="translate(0,0)" fill="rgb(255,255,255)" d="M 823.719 1257.69 C 824.667 1262.17 824.702 1263.43 824.691 1268.04 C 813.737 1272.08 805.143 1275.55 794.497 1280.34 C 792.54 1277.43 790.576 1275.24 790.19 1271.84 L 790.67 1270.14 C 802.241 1265.06 811.678 1261.41 823.719 1257.69 z"/>
<path transform="translate(0,0)" fill="rgb(49,45,44)" d="M 789.975 1268.82 C 798.219 1263.27 813.923 1258.07 823.528 1255.44 L 823.719 1257.69 C 811.678 1261.41 802.241 1265.06 790.67 1270.14 L 789.975 1268.82 z"/>
<path transform="translate(0,0)" fill="rgb(255,255,255)" d="M 770.359 1221.24 C 786.292 1211.99 807.051 1205.27 824.819 1200.03 C 825.075 1205.05 826.235 1209.35 822.582 1212.88 L 823.526 1214.58 C 810.798 1218.63 799.649 1222.39 787.208 1227.31 L 785.636 1225.89 L 774.04 1231.5 L 770.359 1221.24 z"/>
<path transform="translate(0,0)" fill="rgb(20,19,19)" d="M 785.636 1225.89 C 795.994 1221.16 811.593 1215.24 822.582 1212.88 L 823.526 1214.58 C 810.798 1218.63 799.649 1222.39 787.208 1227.31 L 785.636 1225.89 z"/>
<path transform="translate(0,0)" fill="rgb(255,255,255)" d="M 823.829 1228.65 C 825.076 1232.42 825.522 1236.68 824.032 1240.44 L 822.668 1241.49 L 823.81 1243.67 C 808.655 1247.85 798.284 1252.52 784.127 1258.98 L 783.043 1256.95 C 780.041 1251.2 778.495 1248.87 783.163 1244.23 C 796.471 1237.82 809.901 1233.4 823.829 1228.65 z"/>
<path transform="translate(0,0)" fill="rgb(20,19,19)" d="M 783.043 1256.95 C 797.548 1250.22 807.28 1245.57 822.668 1241.49 L 823.81 1243.67 C 808.655 1247.85 798.284 1252.52 784.127 1258.98 L 783.043 1256.95 z"/>
<path transform="translate(0,0)" fill="rgb(20,19,19)" d="M 822.889 1226.85 L 823.829 1228.65 C 809.901 1233.4 796.471 1237.82 783.163 1244.23 L 781.77 1243.04 C 791.401 1236.82 811.438 1229.67 822.889 1226.85 z"/>
<path transform="translate(0,0)" fill="rgb(255,255,255)" d="M 733.28 1107.29 C 756.964 1089.16 785.445 1081.01 813.927 1074.5 C 815.447 1078.27 816.67 1081.83 817.991 1085.66 L 819.47 1087.56 C 820.686 1091.58 821.882 1095.76 823.172 1099.74 C 796.463 1102.27 763.509 1116.1 741.114 1130.67 C 739.807 1126.79 737.643 1121.9 738.348 1117.98 L 737.626 1116.86 C 734.955 1114.44 734.35 1110.84 733.28 1107.29 z"/>
<path transform="translate(0,0)" fill="rgb(255,255,255)" d="M 733.28 1107.29 C 756.964 1089.16 785.445 1081.01 813.927 1074.5 C 815.447 1078.27 816.67 1081.83 817.991 1085.66 C 786.281 1092.45 765.756 1099.87 737.626 1116.86 C 734.955 1114.44 734.35 1110.84 733.28 1107.29 z"/>
<path transform="translate(0,0)" fill="rgb(49,45,44)" d="M 737.626 1116.86 C 765.756 1099.87 786.281 1092.45 817.991 1085.66 L 819.47 1087.56 C 798.684 1092.34 781.716 1097.04 761.853 1105.72 C 756.498 1108.06 742.253 1116.85 738.348 1117.98 L 737.626 1116.86 z"/>
<path transform="translate(0,0)" fill="rgb(255,255,255)" d="M 926.591 1133.42 C 932.102 1134.7 942.036 1136.82 946.972 1139.16 C 953.515 1141.78 959.392 1144.16 965.778 1147.13 C 976.817 1152.96 985.972 1158.26 996.645 1164.74 L 993.096 1176.83 C 991.186 1175.52 986.397 1172.03 984.621 1171.07 L 982.744 1172.28 C 985.858 1174.45 989.226 1176.69 992.216 1178.99 L 988.927 1189.69 L 971.506 1178.8 L 969.937 1180.18 C 961.826 1175.88 956.704 1172.97 948.002 1170.07 L 933.16 1169.54 L 931.662 1167.59 L 932.703 1166.72 L 925.542 1165.96 C 925.443 1161.81 924.975 1158.96 926.59 1155.23 L 928.057 1153.95 L 927.69 1151.63 L 925.861 1145.78 C 926.661 1142.69 927.002 1142.65 928.692 1139.91 C 926.402 1139.14 926.804 1135.55 926.591 1133.42 z"/>
<path transform="translate(0,0)" fill="rgb(255,255,255)" d="M 928.057 1153.95 C 935.596 1154 940.341 1154.08 947.789 1155.01 C 960.348 1158.67 971.567 1165.53 982.744 1172.28 C 985.858 1174.45 989.226 1176.69 992.216 1178.99 L 988.927 1189.69 L 971.506 1178.8 L 969.937 1180.18 C 961.826 1175.88 956.704 1172.97 948.002 1170.07 L 933.16 1169.54 L 931.662 1167.59 L 932.703 1166.72 L 925.542 1165.96 C 925.443 1161.81 924.975 1158.96 926.59 1155.23 L 928.057 1153.95 z"/>
<path transform="translate(0,0)" fill="rgb(229,227,228)" d="M 928.057 1153.95 C 935.596 1154 940.341 1154.08 947.789 1155.01 L 947.045 1158.29 L 947.413 1161.67 L 947.316 1166.75 L 932.703 1166.72 L 925.542 1165.96 C 925.443 1161.81 924.975 1158.96 926.59 1155.23 L 928.057 1153.95 z"/>
<path transform="translate(0,0)" fill="rgb(229,227,228)" d="M 928.057 1153.95 C 935.596 1154 940.341 1154.08 947.789 1155.01 L 947.045 1158.29 C 941.317 1158.46 932.869 1159.16 927.748 1157.58 L 926.59 1155.23 L 928.057 1153.95 z"/>
<path transform="translate(0,0)" fill="rgb(49,45,44)" d="M 925.542 1165.96 C 925.443 1161.81 924.975 1158.96 926.59 1155.23 L 927.748 1157.58 C 932.869 1159.16 941.317 1158.46 947.045 1158.29 L 947.413 1161.67 C 940.892 1161.38 934 1160.43 927.887 1161.82 C 926.117 1163.53 926.301 1163.57 925.542 1165.96 z"/>
<path transform="translate(0,0)" fill="rgb(20,19,19)" d="M 932.703 1166.72 L 947.316 1166.75 C 955.995 1170.47 963.321 1174.01 971.506 1178.8 L 969.937 1180.18 C 961.826 1175.88 956.704 1172.97 948.002 1170.07 L 933.16 1169.54 L 931.662 1167.59 L 932.703 1166.72 z"/>
<path transform="translate(0,0)" fill="rgb(229,227,228)" d="M 926.591 1133.42 C 932.102 1134.7 942.036 1136.82 946.972 1139.16 C 947.111 1143.37 947.363 1147.96 947.359 1152.13 C 940.808 1151.79 934.25 1151.62 927.69 1151.63 L 925.861 1145.78 C 926.661 1142.69 927.002 1142.65 928.692 1139.91 C 926.402 1139.14 926.804 1135.55 926.591 1133.42 z"/>
<path transform="translate(0,0)" fill="rgb(102,96,99)" d="M 928.692 1139.91 C 933.676 1140.39 941.334 1140.92 945.606 1143.3 L 945.086 1144.43 C 939.578 1146.26 931.724 1145.98 925.861 1145.78 C 926.661 1142.69 927.002 1142.65 928.692 1139.91 z"/>
<path transform="translate(0,0)" fill="rgb(20,19,19)" d="M 927.69 1151.63 C 934.25 1151.62 940.808 1151.79 947.359 1152.13 C 958.619 1155.36 974.756 1164.31 984.621 1171.07 L 982.744 1172.28 C 971.567 1165.53 960.348 1158.67 947.789 1155.01 C 940.341 1154.08 935.596 1154 928.057 1153.95 L 927.69 1151.63 z"/>
<path transform="translate(0,0)" fill="rgb(255,255,255)" d="M 745.729 1144.84 C 756.865 1138.44 815.794 1108.86 824.492 1118.19 C 825.453 1123.83 826.246 1125.13 821.638 1128.6 L 821.837 1129.77 L 824.262 1130.56 C 825.684 1134.41 825.15 1137.58 824.959 1141.71 C 795.303 1147.16 779.336 1153.18 753.248 1167.98 C 752.181 1164.91 750.034 1160.13 750.565 1157.17 L 749.326 1155.45 C 747.691 1152.4 746.705 1148.23 745.729 1144.84 z"/>
<path transform="translate(0,0)" fill="rgb(255,255,255)" d="M 821.837 1129.77 L 824.262 1130.56 C 825.684 1134.41 825.15 1137.58 824.959 1141.71 C 795.303 1147.16 779.336 1153.18 753.248 1167.98 C 752.181 1164.91 750.034 1160.13 750.565 1157.17 C 753.672 1155.89 765.241 1148.79 770.523 1146.36 C 788.823 1137.94 802.547 1134.08 821.837 1129.77 z"/>
<path transform="translate(0,0)" fill="rgb(20,19,19)" d="M 749.326 1155.45 C 764.179 1146.83 805.216 1126.39 821.638 1128.6 L 821.837 1129.77 C 802.547 1134.08 788.823 1137.94 770.523 1146.36 C 765.241 1148.79 753.672 1155.89 750.565 1157.17 L 749.326 1155.45 z"/>
<path transform="translate(0,0)" fill="rgb(231,124,62)" d="M 877.402 1261.73 C 890.612 1261.08 901.9 1271.15 902.747 1284.35 C 903.594 1297.55 893.686 1308.98 880.502 1310.02 C 869.663 1310.87 859.587 1304.39 855.866 1294.18 C 853.237 1286.96 854.193 1278.92 858.442 1272.52 C 862.691 1266.11 869.728 1262.11 877.402 1261.73 z"/>
<path transform="translate(0,0)" fill="rgb(255,255,255)" d="M 753.76 1170.35 C 775.369 1156.87 799.538 1148.03 824.739 1144.37 C 824.761 1148.53 825.007 1152.47 825.24 1156.61 L 824.554 1158.39 L 824.904 1170.36 C 802.401 1173.7 780.748 1182.97 761.227 1194.42 C 759.94 1190.88 758.223 1187.5 758.867 1183.91 C 759.832 1182.89 760.785 1181.8 761.833 1180.89 L 759.877 1180.06 L 757.593 1180.53 C 755.275 1178.36 754.601 1173.64 753.76 1170.35 z"/>
<path transform="translate(0,0)" fill="rgb(255,255,255)" d="M 761.833 1180.89 C 782.011 1169.36 801.902 1162.71 824.554 1158.39 L 824.904 1170.36 C 802.401 1173.7 780.748 1182.97 761.227 1194.42 C 759.94 1190.88 758.223 1187.5 758.867 1183.91 C 759.832 1182.89 760.785 1181.8 761.833 1180.89 z"/>
<path transform="translate(0,0)" fill="rgb(49,45,44)" d="M 825.24 1156.61 L 824.554 1158.39 C 801.902 1162.71 782.011 1169.36 761.833 1180.89 L 759.877 1180.06 C 772.285 1170.11 808.754 1157.72 825.24 1156.61 z"/>
<path transform="translate(0,0)" fill="rgb(255,255,255)" d="M 1378.7 917.044 C 1394.44 916.784 1410.17 916.775 1425.9 917.016 C 1426.19 928.409 1426.32 939.807 1426.3 951.204 L 1378.71 951.3 L 1378.7 917.044 z"/>
<path transform="translate(0,0)" fill="rgb(255,255,255)" d="M 1236.89 930.474 C 1236.86 926.392 1236.26 921.455 1238.17 918.067 C 1241.73 916.922 1239.86 917.227 1244.18 918.169 L 1246.37 922.654 C 1247.56 918.752 1246.79 919.24 1249.39 916.861 C 1254.54 920.078 1253.31 930.711 1253.27 936.579 C 1254.34 932.055 1254.7 924.683 1255.05 919.86 L 1256.08 928.381 C 1256 931.662 1256.04 934.93 1255.55 938.168 L 1255.97 939.152 L 1260.02 939.179 C 1264.13 943.79 1259.24 959.997 1262.07 966.481 C 1262.54 967.546 1262.32 968.59 1262.24 969.834 L 1261.18 970.487 C 1259.12 969.433 1257.7 968.724 1255.71 967.495 L 1255.18 965.133 L 1253.27 967.77 C 1248.72 968.126 1248.87 968.444 1246.34 965.31 C 1245.56 966.449 1246.06 965.791 1244.78 967.217 C 1244.23 964.152 1244.09 961.896 1243.87 958.827 C 1243.64 962.164 1243.86 965.107 1242.09 967.811 C 1239.9 968.249 1239.01 968.303 1236.92 966.661 L 1234.22 966.321 C 1233.71 966.778 1232.17 967.608 1231.51 967.997 C 1228.22 967.849 1229.64 968.391 1227.1 966.349 L 1226.1 967.295 C 1224.74 963.399 1225.18 924.651 1225.62 918.918 L 1226.75 918.324 C 1230.39 917.696 1230.58 917.436 1234.27 918.333 L 1235.42 918.996 L 1236.89 930.474 z"/>
<path transform="translate(0,0)" fill="rgb(255,255,255)" d="M 1226.75 918.324 C 1230.39 917.696 1230.58 917.436 1234.27 918.333 L 1235.42 918.996 L 1236.89 930.474 C 1237.11 942.536 1237.12 954.6 1236.92 966.661 L 1234.22 966.321 C 1233.71 966.778 1232.17 967.608 1231.51 967.997 C 1228.22 967.849 1229.64 968.391 1227.1 966.349 L 1226.1 967.295 C 1224.74 963.399 1225.18 924.651 1225.62 918.918 L 1226.75 918.324 z"/>
<path transform="translate(0,0)" fill="rgb(20,19,19)" d="M 1234.27 918.333 L 1235.42 918.996 L 1236.89 930.474 C 1237.11 942.536 1237.12 954.6 1236.92 966.661 L 1234.22 966.321 C 1233.37 959.67 1233.36 924.437 1234.27 918.333 z"/>
<path transform="translate(0,0)" fill="rgb(20,19,19)" d="M 1227.1 966.349 L 1226.1 967.295 C 1224.74 963.399 1225.18 924.651 1225.62 918.918 L 1226.75 918.324 C 1227.79 928.309 1227.71 955.67 1227.1 966.349 z"/>
<path transform="translate(0,0)" fill="rgb(255,255,255)" d="M 1236.89 930.474 C 1236.86 926.392 1236.26 921.455 1238.17 918.067 C 1241.73 916.922 1239.86 917.227 1244.18 918.169 C 1243.61 925.258 1243.22 951.6 1243.87 958.827 C 1243.64 962.164 1243.86 965.107 1242.09 967.811 C 1239.9 968.249 1239.01 968.303 1236.92 966.661 C 1237.12 954.6 1237.11 942.536 1236.89 930.474 z"/>
<path transform="translate(0,0)" fill="rgb(255,255,255)" d="M 1255.97 939.152 L 1260.02 939.179 C 1264.13 943.79 1259.24 959.997 1262.07 966.481 C 1262.54 967.546 1262.32 968.59 1262.24 969.834 L 1261.18 970.487 C 1259.12 969.433 1257.7 968.724 1255.71 967.495 L 1255.18 965.133 C 1256.33 957.583 1255.98 947.014 1255.97 939.152 z"/>
<path transform="translate(0,0)" fill="rgb(20,19,19)" d="M 1244.18 918.169 L 1246.37 922.654 C 1247.58 930.013 1247.52 958.348 1246.34 965.31 C 1245.56 966.449 1246.06 965.791 1244.78 967.217 C 1244.23 964.152 1244.09 961.896 1243.87 958.827 C 1243.22 951.6 1243.61 925.258 1244.18 918.169 z"/>
<path transform="translate(0,0)" fill="rgb(20,19,19)" d="M 1253.27 936.579 C 1254.34 932.055 1254.7 924.683 1255.05 919.86 L 1256.08 928.381 C 1256 931.662 1256.04 934.93 1255.55 938.168 L 1255.97 939.152 C 1255.98 947.014 1256.33 957.583 1255.18 965.133 L 1253.27 967.77 C 1252.55 958.002 1253.03 946.486 1253.27 936.579 z"/>
<path transform="translate(0,0)" fill="rgb(255,255,255)" d="M 925.919 1221.4 C 931.867 1222.17 943.938 1223.09 946.991 1228.52 L 952.843 1231.1 C 959.507 1234.91 966.364 1238.68 972.706 1242.98 C 971.765 1246.17 971.286 1249.39 968.984 1251.58 L 966.989 1251.94 L 966.547 1253 C 968.84 1257.86 966.444 1260.34 963.809 1264.78 C 957.568 1260.92 952.374 1257.84 945.894 1254.42 C 940.552 1254.09 930.761 1254.5 926.562 1253.36 L 925.431 1251.04 L 926.147 1243.95 L 926.122 1239.2 L 926.456 1238.15 L 926.081 1235.29 C 925.927 1233.95 925.401 1231.82 925.106 1230.43 L 925.744 1226.88 L 925.919 1221.4 z"/>
<path transform="translate(0,0)" fill="rgb(134,127,125)" d="M 926.122 1239.2 L 930.36 1240.05 C 935.873 1241.05 941.161 1240.53 945.382 1242.3 L 947.165 1243.21 C 945.615 1246.38 945.312 1246.54 944.981 1250.15 L 945.894 1254.42 C 940.552 1254.09 930.761 1254.5 926.562 1253.36 L 925.431 1251.04 L 926.147 1243.95 L 926.122 1239.2 z"/>
<path transform="translate(0,0)" fill="rgb(255,255,255)" d="M 944.981 1250.15 L 945.894 1254.42 C 940.552 1254.09 930.761 1254.5 926.562 1253.36 L 925.431 1251.04 C 931.633 1249.61 938.525 1250.08 944.981 1250.15 z"/>
<path transform="translate(0,0)" fill="rgb(255,255,255)" d="M 926.122 1239.2 L 930.36 1240.05 C 935.873 1241.05 941.161 1240.53 945.382 1242.3 C 940.903 1244.97 931.584 1244.14 926.147 1243.95 L 926.122 1239.2 z"/>
<path transform="translate(0,0)" fill="rgb(255,255,255)" d="M 944.981 1250.15 C 945.312 1246.54 945.615 1246.38 947.165 1243.21 C 952.62 1245.81 961.943 1251.11 966.547 1253 C 968.84 1257.86 966.444 1260.34 963.809 1264.78 C 957.568 1260.92 952.374 1257.84 945.894 1254.42 L 944.981 1250.15 z"/>
<path transform="translate(0,0)" fill="rgb(229,227,228)" d="M 925.919 1221.4 C 931.867 1222.17 943.938 1223.09 946.991 1228.52 L 946.399 1229.94 L 946.135 1230.81 C 938.451 1230.14 932.744 1230.01 925.106 1230.43 L 925.744 1226.88 L 925.919 1221.4 z"/>
<path transform="translate(0,0)" fill="rgb(49,45,44)" d="M 925.744 1226.88 C 931.434 1226.87 942.378 1225.77 946.399 1229.94 L 946.135 1230.81 C 938.451 1230.14 932.744 1230.01 925.106 1230.43 L 925.744 1226.88 z"/>
<path transform="translate(0,0)" fill="rgb(229,227,228)" d="M 925.106 1230.43 C 932.744 1230.01 938.451 1230.14 946.135 1230.81 L 945.919 1235.29 C 939.69 1237.32 933.012 1237.57 926.456 1238.15 L 926.081 1235.29 C 925.927 1233.95 925.401 1231.82 925.106 1230.43 z"/>
<path transform="translate(0,0)" fill="rgb(49,45,44)" d="M 926.081 1235.29 C 930.819 1235.03 942.072 1233.93 945.919 1235.29 C 939.69 1237.32 933.012 1237.57 926.456 1238.15 L 926.081 1235.29 z"/>
<path transform="translate(0,0)" fill="rgb(49,45,44)" d="M 930.36 1240.05 C 943.205 1236.97 957.355 1243.52 966.989 1251.94 L 966.547 1253 C 961.943 1251.11 952.62 1245.81 947.165 1243.21 L 945.382 1242.3 C 941.161 1240.53 935.873 1241.05 930.36 1240.05 z"/>
<path transform="translate(0,0)" fill="rgb(255,255,255)" d="M 1086.79 1010.28 C 1089.55 1008.57 1092.63 1006.76 1095.26 1004.92 C 1102.2 1008.21 1105.76 1010.54 1112.21 1014.79 C 1114.66 1016.8 1119.72 1019.81 1122.53 1021.48 C 1145.94 1035.46 1167.91 1050.13 1190.11 1065.92 L 1179.32 1069.6 C 1165.73 1061.04 1152.43 1051.51 1138.63 1043.17 C 1125.74 1035.38 1096.64 1021.19 1086.79 1010.28 z"/>
<path transform="translate(0,0)" fill="rgb(255,255,255)" d="M 929.672 842.247 L 927.665 840.227 C 930.502 837.977 938.74 838.638 942.483 839.092 C 948.778 839.856 951.446 840.515 956.576 843.675 C 981.163 858.819 1005.68 874.125 1029.37 890.667 L 1010.46 890.844 C 996.179 881.372 978.156 867.452 964.289 859.328 L 964.596 862.464 L 960.87 860.329 C 956.442 859.034 944.21 852.422 940.29 849.889 C 937.693 847.431 932.21 845.116 928.756 843.39 L 929.672 842.247 z"/>
<path transform="translate(0,0)" fill="rgb(67,65,64)" d="M 929.672 842.247 C 936.732 844.601 958.642 855.183 964.289 859.328 L 964.596 862.464 L 960.87 860.329 C 956.442 859.034 944.21 852.422 940.29 849.889 C 937.693 847.431 932.21 845.116 928.756 843.39 L 929.672 842.247 z"/>
<path transform="translate(0,0)" fill="rgb(255,255,255)" d="M 1091.71 837.905 L 1109.65 837.626 C 1134.92 855.348 1163.52 873.054 1189.57 890.027 C 1184.7 890.012 1169.31 890.559 1165.81 888.85 L 1162.14 889.077 C 1155.66 883.314 1146.22 877.2 1138.92 872.161 L 1139.79 870.539 C 1124.24 860.063 1106.76 848.825 1091.71 837.905 z"/>
<path transform="translate(0,0)" fill="rgb(20,19,19)" d="M 1139.79 870.539 C 1147.48 875.562 1159.33 882.872 1165.81 888.85 L 1162.14 889.077 C 1155.66 883.314 1146.22 877.2 1138.92 872.161 L 1139.79 870.539 z"/>
<path transform="translate(0,0)" fill="rgb(255,255,255)" d="M 804.876 1035.34 L 809.078 1035.03 C 815.908 1046.31 803.314 1047.73 796.04 1048.92 C 770.882 1053.06 748.539 1064.78 726.54 1077.04 L 725.061 1077.49 C 722.984 1075.47 722.21 1071.18 721.366 1068.17 C 742.652 1051.84 778.58 1039.79 804.876 1035.34 z"/>
<path transform="translate(0,0)" fill="rgb(255,255,255)" d="M 1136.21 837.012 C 1142.13 836.69 1149.27 836.795 1155.29 836.731 L 1207.06 870.93 C 1215 876.167 1228.21 884.314 1235.37 890.052 C 1228.28 890.617 1222.57 890.568 1215.45 890.502 C 1208.27 884.075 1197.53 877.575 1189.45 872.143 C 1171.88 860.32 1153.4 849.381 1136.21 837.012 z"/>
<path transform="translate(0,0)" fill="rgb(255,255,255)" d="M 948.002 1170.07 C 956.704 1172.97 961.826 1175.88 969.937 1180.18 C 975.17 1183.52 983.34 1188.4 988.124 1191.95 C 986.903 1196.09 986.736 1199.22 983.952 1201.81 C 981.529 1201.19 982.331 1201.56 980.192 1200.15 L 978.623 1201.34 C 980.634 1202.77 981.148 1203.3 982.916 1205.05 C 984.109 1209 982.251 1212.75 980.927 1216.82 C 972.037 1210.01 964.319 1204.46 954.337 1199.37 L 953.462 1201.33 L 948.116 1199.3 L 945.466 1197.02 L 947.974 1196.59 L 946.798 1193.15 L 946.821 1191.88 C 947.043 1190.16 946.974 1188.28 946.984 1186.52 L 947.507 1184.44 L 946.329 1184.31 L 946.495 1181.14 L 946.847 1179.05 C 946.98 1175.59 946.84 1173.37 948.002 1170.07 z"/>
<path transform="translate(0,0)" fill="rgb(255,255,255)" d="M 947.507 1184.44 C 959.049 1188.28 968.688 1194.33 978.623 1201.34 C 980.634 1202.77 981.148 1203.3 982.916 1205.05 C 984.109 1209 982.251 1212.75 980.927 1216.82 C 972.037 1210.01 964.319 1204.46 954.337 1199.37 L 953.462 1201.33 L 948.116 1199.3 L 945.466 1197.02 L 947.974 1196.59 L 946.798 1193.15 L 946.821 1191.88 C 947.043 1190.16 946.974 1188.28 946.984 1186.52 L 947.507 1184.44 z"/>
<path transform="translate(0,0)" fill="rgb(49,45,44)" d="M 947.974 1196.59 C 949.602 1197.27 952.963 1198.55 954.337 1199.37 L 953.462 1201.33 L 948.116 1199.3 L 945.466 1197.02 L 947.974 1196.59 z"/>
<path transform="translate(0,0)" fill="rgb(20,19,19)" d="M 946.495 1181.14 C 957.198 1185.31 971.449 1192.82 980.192 1200.15 L 978.623 1201.34 C 968.688 1194.33 959.049 1188.28 947.507 1184.44 L 946.329 1184.31 L 946.495 1181.14 z"/>
<path transform="translate(0,0)" fill="rgb(255,255,255)" d="M 953.129 839.324 C 957.501 839.145 970.001 838.395 973.23 840.007 C 998.75 852.743 1030.25 874.879 1053.67 890.748 L 1033.42 890.951 C 1018.43 879.957 1000.97 869.095 985.246 859.071 C 974.801 852.413 963.168 846.532 953.129 839.324 z"/>
<path transform="translate(0,0)" fill="rgb(255,255,255)" d="M 1113.65 837.357 C 1118.97 836.998 1126.19 837.126 1131.67 837.083 C 1158.78 854.434 1185.7 872.074 1212.43 890.001 C 1206.48 890.607 1199.68 890.404 1193.64 890.405 C 1179.56 880.851 1165.35 871.511 1150.99 862.389 C 1141.54 856.417 1121.54 844.376 1113.65 837.357 z"/>
<path transform="translate(0,0)" fill="rgb(255,255,255)" d="M 1160.38 836.988 L 1178.2 836.754 C 1191.67 845.718 1247.13 880.541 1253.87 889.773 C 1249.47 890.354 1244.18 890.206 1239.68 890.234 C 1214.25 872.293 1185.06 855.309 1160.38 836.988 z"/>
<path transform="translate(0,0)" fill="rgb(255,255,255)" d="M 805.709 1049.36 L 808.534 1049.22 L 809.878 1050.48 C 810.885 1054.35 810.606 1054.48 809.826 1058.29 C 805.827 1060.39 801.742 1061.09 797.337 1061.99 C 772.903 1066.98 751.172 1078.18 729.68 1090.33 L 729.044 1090.41 C 726.789 1088.57 725.653 1083.57 724.657 1080.56 C 752.584 1065.12 773.008 1054.06 805.709 1049.36 z"/>
<path transform="translate(0,0)" fill="rgb(255,255,255)" d="M 808.229 1062.36 L 808.873 1062.34 C 811.559 1064 812.195 1068.48 813.418 1072.21 C 782.665 1078.56 760.074 1087.15 733.629 1104 L 733.107 1103.84 C 730.958 1101.73 729.815 1096.22 728.884 1093.08 C 755.841 1078.47 776.803 1066.98 808.229 1062.36 z"/>
<path transform="translate(0,0)" fill="rgb(255,255,255)" d="M 1047.29 838.462 C 1052.49 837.994 1060.26 838.107 1065.65 838.053 C 1087.38 854.286 1118.75 874.158 1141.72 889.793 C 1135.75 890.163 1128.27 890.036 1122.17 890.089 C 1102.95 877.291 1084.56 862.756 1064.81 850.588 C 1059.29 847.188 1052.15 842.649 1047.29 838.462 z"/>
<path transform="translate(0,0)" fill="rgb(255,255,255)" d="M 818.729 1102.22 C 821.26 1102.05 820.413 1101.99 822.831 1102.56 C 830.227 1113.82 821.435 1114.09 813.147 1115.46 C 791.187 1119.11 767.023 1130.04 748.373 1141.16 L 745.536 1141.86 C 743.303 1139.96 742.704 1135.42 741.939 1132.3 C 765.438 1117.57 791.482 1107.37 818.729 1102.22 z"/>
<path transform="translate(0,0)" fill="rgb(255,255,255)" d="M 978.166 839.254 L 997.891 839.062 C 1014.98 851.537 1037.34 863.749 1054.8 876.35 C 1060.49 880.457 1069.75 885.442 1074.5 890.212 C 1069.4 890.675 1062.02 890.589 1056.7 890.666 C 1050.91 885.967 1038.52 878.508 1031.8 873.883 C 1014.31 861.842 996.267 850.365 978.166 839.254 z"/>
<path transform="translate(0,0)" fill="rgb(255,255,255)" d="M 940.651 1061.71 C 966.475 1069.07 992.782 1083.12 1015.49 1097.21 L 1012.17 1109.07 C 1009.08 1107.4 1004.71 1104.38 1001.66 1102.29 C 981.445 1088.46 960.121 1081.45 937.101 1073.65 L 940.651 1061.71 z"/>
<path transform="translate(0,0)" fill="rgb(255,255,255)" d="M 1069.3 838.025 L 1088.26 838.007 C 1102.38 848.662 1124.01 862.49 1138.92 872.161 C 1146.22 877.2 1155.66 883.314 1162.14 889.077 C 1158.6 890.008 1149.56 889.716 1145.48 889.724 C 1121 871.961 1094.18 855.814 1069.3 838.025 z"/>
<path transform="translate(0,0)" fill="rgb(255,255,255)" d="M 1023.08 839.016 C 1027.33 838.705 1036.29 838 1039.8 839.457 C 1064.85 849.862 1096.14 874.522 1118.69 890.004 C 1112.86 890.24 1106.6 890.203 1100.73 890.266 C 1076.64 871.537 1048.02 855.959 1023.08 839.016 z"/>
<path transform="translate(0,0)" fill="rgb(255,255,255)" d="M 1000.12 839.218 C 1006.41 838.946 1013.3 838.992 1019.64 838.907 C 1044.78 855.125 1073.22 872.416 1097.22 890.031 C 1091.86 890.388 1085.39 890.366 1079.93 890.475 C 1052.75 873.18 1028.29 855.313 1000.12 839.218 z"/>
<path transform="translate(0,0)" fill="rgb(255,255,255)" d="M 870.725 1314.03 C 875.391 1314.3 880.141 1314.09 884.822 1313.99 C 884.989 1337.1 883.622 1361.76 882.808 1384.99 L 880.521 1386.48 C 875.244 1381.64 870.882 1383.22 870.825 1375.4 C 870.676 1354.97 870.788 1334.47 870.725 1314.03 z"/>
<path transform="translate(0,0)" fill="rgb(49,45,44)" d="M 960.87 860.329 L 964.596 862.464 C 974.71 867.388 995.519 883.036 1005.69 890.247 C 1000.3 890.471 986.391 891.858 982.743 889.163 L 981.838 889.793 C 975.606 890.553 952.18 891.215 945.606 889.105 C 944.366 888.706 944.505 886.924 944.156 885.083 L 944.391 882.815 L 943.838 879.475 C 943.558 878.683 944.464 874.991 944.683 873.837 L 945.228 870.701 C 948.085 870.387 961.701 874.64 965.798 875.538 C 970.687 875.951 972.046 876.33 976.694 875.225 C 974.45 873.583 971.542 873.732 968.417 873.346 C 966.867 867.83 966.227 866.578 961.596 863.358 L 960.87 860.329 z"/>
<path transform="translate(0,0)" fill="rgb(255,255,255)" d="M 960.87 860.329 L 964.596 862.464 C 974.71 867.388 995.519 883.036 1005.69 890.247 C 1000.3 890.471 986.391 891.858 982.743 889.163 C 980.344 884.711 970.164 882.541 963.154 878.279 L 963.531 876.829 L 965.798 875.538 C 970.687 875.951 972.046 876.33 976.694 875.225 C 974.45 873.583 971.542 873.732 968.417 873.346 C 966.867 867.83 966.227 866.578 961.596 863.358 L 960.87 860.329 z"/>
<path transform="translate(0,0)" fill="rgb(255,255,255)" d="M 944.156 885.083 C 953.354 884.945 975.277 884.688 981.838 889.793 C 975.606 890.553 952.18 891.215 945.606 889.105 C 944.366 888.706 944.505 886.924 944.156 885.083 z"/>
<path transform="translate(0,0)" fill="rgb(229,227,228)" d="M 944.683 873.837 L 945.228 870.701 C 948.085 870.387 961.701 874.64 965.798 875.538 L 963.531 876.829 L 963.154 878.279 C 955.884 876.047 949.153 878.438 944.683 873.837 z"/>
<path transform="translate(0,0)" fill="rgb(229,227,228)" d="M 943.838 879.475 C 951.903 878.399 959.385 878.388 966.416 882.745 C 963.453 885.114 949.516 882.469 944.391 882.815 L 943.838 879.475 z"/>
<path transform="translate(0,0)" fill="rgb(255,255,255)" d="M 1034.64 918.222 C 1037.26 917.989 1039.45 917.613 1042.03 918.093 L 1044.95 918.166 C 1048.63 917.922 1048.62 917.28 1051.15 918.876 C 1051.73 927.927 1051.75 958.188 1050.82 967.149 C 1048.13 968.672 1048.86 968.14 1044.9 967.37 L 1041.96 967.287 C 1038.62 968.589 1038.16 968.231 1034.63 967.801 L 1033.48 967.037 C 1033.14 951.01 1033.13 934.978 1033.47 918.951 L 1034.64 918.222 z"/>
<path transform="translate(0,0)" fill="rgb(255,255,255)" d="M 1034.64 918.222 C 1037.26 917.989 1039.45 917.613 1042.03 918.093 L 1041.96 967.287 C 1038.62 968.589 1038.16 968.231 1034.63 967.801 L 1033.48 967.037 C 1033.14 951.01 1033.13 934.978 1033.47 918.951 L 1034.64 918.222 z"/>
<path transform="translate(0,0)" fill="rgb(20,19,19)" d="M 1034.63 967.801 L 1033.48 967.037 C 1033.14 951.01 1033.13 934.978 1033.47 918.951 L 1034.64 918.222 C 1035.4 925.631 1035.68 960.546 1034.63 967.801 z"/>
<path transform="translate(0,0)" fill="rgb(20,19,19)" d="M 1042.03 918.093 L 1044.95 918.166 C 1044.99 933.558 1045.54 952.246 1044.9 967.37 L 1041.96 967.287 L 1042.03 918.093 z"/>
<path transform="translate(0,0)" fill="rgb(255,255,255)" d="M 1189.08 918.423 C 1193.41 917.724 1191.74 917.206 1194.89 918.645 C 1195.13 927.279 1196.64 961.629 1193.51 967.329 C 1190.26 967.999 1191.81 968.131 1188.71 966.92 L 1185.91 967.919 C 1183.56 967.916 1181.05 967.737 1178.68 967.62 L 1177.99 967.547 C 1175.56 963.846 1177.22 925.894 1177.5 918.964 L 1178.68 918.352 C 1182.33 917.799 1182.63 917.419 1186 919.034 L 1189.08 918.423 z"/>
<path transform="translate(0,0)" fill="rgb(255,255,255)" d="M 1189.08 918.423 C 1193.41 917.724 1191.74 917.206 1194.89 918.645 C 1195.13 927.279 1196.64 961.629 1193.51 967.329 C 1190.26 967.999 1191.81 968.131 1188.71 966.92 C 1189.67 953.417 1189.06 932.482 1189.08 918.423 z"/>
<path transform="translate(0,0)" fill="rgb(20,19,19)" d="M 1186 919.034 L 1189.08 918.423 C 1189.06 932.482 1189.67 953.417 1188.71 966.92 L 1185.91 967.919 C 1185.65 951.921 1185.96 935.097 1186 919.034 z"/>
<path transform="translate(0,0)" fill="rgb(20,19,19)" d="M 1178.68 967.62 L 1177.99 967.547 C 1175.56 963.846 1177.22 925.894 1177.5 918.964 L 1178.68 918.352 C 1179.53 925.405 1179.87 960.751 1178.68 967.62 z"/>
<path transform="translate(0,0)" fill="rgb(255,255,255)" d="M 1064.11 959.709 C 1063.96 963.171 1064.33 962.915 1062.88 965.997 L 1063.4 964.809 L 1062.31 963.641 C 1061.39 951.734 1061.82 933.346 1062.28 921.339 L 1063.47 920.973 L 1063.03 919.346 L 1062.73 919.073 C 1064.42 920.528 1064.05 923.4 1064.11 925.396 C 1064.41 922.186 1064.17 919.764 1066.3 917.537 C 1069.54 917.368 1067.95 917.097 1071.11 918.874 L 1074.06 918.231 C 1078.03 917.585 1076.51 917.047 1079.26 918.611 C 1081.22 923.668 1080.64 961.422 1079.85 967.03 C 1077.12 968.701 1077.67 968.093 1073.64 967.661 C 1070.15 962.573 1074.64 963.492 1071.09 959.485 C 1070.62 965.035 1071.55 964.367 1068.66 967.957 L 1066.91 968.096 C 1064.03 965.126 1064.6 964.637 1064.11 959.709 z"/>
<path transform="translate(0,0)" fill="rgb(255,255,255)" d="M 1064.11 959.709 C 1063.96 963.171 1064.33 962.915 1062.88 965.997 L 1063.4 964.809 L 1062.31 963.641 C 1061.39 951.734 1061.82 933.346 1062.28 921.339 L 1063.47 920.973 L 1063.03 919.346 L 1062.73 919.073 C 1064.42 920.528 1064.05 923.4 1064.11 925.396 C 1064.41 922.186 1064.17 919.764 1066.3 917.537 C 1069.54 917.368 1067.95 917.097 1071.11 918.874 C 1071.03 932.255 1070.77 946.154 1071.09 959.485 C 1070.62 965.035 1071.55 964.367 1068.66 967.957 L 1066.91 968.096 C 1064.03 965.126 1064.6 964.637 1064.11 959.709 z"/>
<path transform="translate(0,0)" fill="rgb(20,19,19)" d="M 1064.11 959.709 C 1063.96 963.171 1064.33 962.915 1062.88 965.997 L 1063.4 964.809 L 1062.31 963.641 C 1061.39 951.734 1061.82 933.346 1062.28 921.339 L 1063.47 920.973 L 1063.03 919.346 L 1062.73 919.073 C 1064.42 920.528 1064.05 923.4 1064.11 925.396 C 1064.54 934.719 1064.75 950.457 1064.11 959.709 z"/>
<path transform="translate(0,0)" fill="rgb(20,19,19)" d="M 1071.11 918.874 L 1074.06 918.231 C 1074.31 926.045 1074.82 961.501 1073.64 967.661 C 1070.15 962.573 1074.64 963.492 1071.09 959.485 C 1070.77 946.154 1071.03 932.255 1071.11 918.874 z"/>
<path transform="translate(0,0)" fill="rgb(49,45,44)" d="M 926.513 1259.65 L 925.808 1257.77 L 927 1256.45 C 932.946 1255.74 940.368 1256.77 946.508 1257.35 L 945.152 1259.94 C 945.04 1263.37 944.787 1267.53 945.022 1270.86 L 944.858 1272.32 C 942.897 1273.2 941.042 1274.02 939.051 1274.84 C 941.141 1274.91 943.492 1275.05 945.557 1274.98 L 945.306 1282.93 L 945.793 1285.82 L 943.783 1286.92 L 942.933 1288.12 C 940.51 1292.46 942.128 1290.8 937.976 1293.36 C 933.857 1296.38 931.173 1299.43 926.723 1299.95 C 924.467 1297.98 925 1297.48 924.092 1293.94 L 923.019 1293.59 C 922.713 1284.4 923.409 1274.96 923.875 1265.74 L 926.334 1261.81 L 926.513 1259.65 z"/>
<path transform="translate(0,0)" fill="rgb(229,227,228)" d="M 945.022 1270.86 L 944.858 1272.32 C 942.897 1273.2 941.042 1274.02 939.051 1274.84 C 941.141 1274.91 943.492 1275.05 945.557 1274.98 L 945.306 1282.93 C 938.303 1281.9 928.22 1283.33 924.175 1279.45 L 924.973 1278.28 C 927.189 1277.64 928.129 1277.4 930.265 1276.53 C 928.492 1275.52 927.594 1275.41 925.608 1274.9 C 924.385 1271.88 924.248 1273.25 925.301 1270.65 C 928.217 1269.37 940.451 1270.78 945.022 1270.86 z"/>
<path transform="translate(0,0)" fill="rgb(255,255,255)" d="M 926.334 1261.81 C 931.866 1261.83 936.557 1261.28 941.419 1263.64 L 942.709 1265.26 C 939.122 1269.03 928.674 1266.71 923.875 1265.74 L 926.334 1261.81 z"/>
<path transform="translate(0,0)" fill="rgb(229,227,228)" d="M 926.513 1259.65 L 925.808 1257.77 L 927 1256.45 C 932.946 1255.74 940.368 1256.77 946.508 1257.35 L 945.152 1259.94 C 938.642 1260.01 933.014 1259.94 926.513 1259.65 z"/>
<path transform="translate(0,0)" fill="rgb(255,255,255)" d="M 924.092 1293.94 L 925.111 1292.78 C 928.867 1291.46 934.219 1292.08 937.976 1293.36 C 933.857 1296.38 931.173 1299.43 926.723 1299.95 C 924.467 1297.98 925 1297.48 924.092 1293.94 z"/>
<path transform="translate(0,0)" fill="rgb(255,255,255)" d="M 942.933 1288.12 C 937.729 1288.47 930.592 1289.74 926.652 1286.61 L 927.868 1285.29 C 933.187 1283.79 938.876 1284.38 943.783 1286.92 L 942.933 1288.12 z"/>
<path transform="translate(0,0)" fill="rgb(255,255,255)" d="M 997.004 918.284 C 1001.01 918.052 1000.6 917.417 1003.31 919.164 C 1003.9 928.694 1004.02 957.709 1003.03 967.143 C 999.739 968.815 1001.47 968.186 997.006 967.924 L 994.309 966.023 L 992.735 968.219 C 990.173 969.021 991.427 969.039 988.917 967.754 C 986.08 961.191 987.215 927.493 987.764 918.979 C 990.354 917.437 990.368 918.068 994.017 918.32 L 997.004 918.284 z"/>
<path transform="translate(0,0)" fill="rgb(255,255,255)" d="M 994.309 966.023 L 992.735 968.219 C 990.173 969.021 991.427 969.039 988.917 967.754 C 986.08 961.191 987.215 927.493 987.764 918.979 C 990.354 917.437 990.368 918.068 994.017 918.32 C 993.977 933.734 993.602 950.754 994.309 966.023 z"/>
<path transform="translate(0,0)" fill="rgb(20,19,19)" d="M 994.017 918.32 L 997.004 918.284 C 997.013 934.633 997.272 951.632 997.006 967.924 L 994.309 966.023 C 993.602 950.754 993.977 933.734 994.017 918.32 z"/>
<path transform="translate(0,0)" fill="rgb(255,255,255)" d="M 1182.65 836.842 C 1187.56 836.324 1195.71 836.672 1200.94 836.747 C 1219.3 848.054 1236.53 860.529 1254.01 873.102 L 1254.02 884.702 C 1248.86 882.174 1229.84 868.595 1224.11 864.678 C 1210.66 855.504 1195.62 846.261 1182.65 836.842 z"/>
<path transform="translate(0,0)" fill="rgb(255,255,255)" d="M 1140.38 920.75 C 1142.61 917.697 1141.21 918.43 1144.33 917.826 C 1149.59 921.41 1147.56 960.284 1146.63 967.409 C 1143.86 968.357 1142.77 968.26 1140.36 966.071 L 1137.93 967.688 C 1134.63 967.929 1133.73 968.475 1131.52 966.315 C 1130.92 957.668 1130.99 927.509 1131.94 919.169 C 1134.29 917.475 1134.4 918.171 1138.15 918.438 L 1140.38 920.75 z"/>
<path transform="translate(0,0)" fill="rgb(255,255,255)" d="M 1140.38 920.75 C 1142.61 917.697 1141.21 918.43 1144.33 917.826 C 1149.59 921.41 1147.56 960.284 1146.63 967.409 C 1143.86 968.357 1142.77 968.26 1140.36 966.071 C 1141.69 959.061 1141.39 928.427 1140.38 920.75 z"/>
<path transform="translate(0,0)" fill="rgb(20,19,19)" d="M 1138.15 918.438 L 1140.38 920.75 C 1141.39 928.427 1141.69 959.061 1140.36 966.071 L 1137.93 967.688 C 1137.67 953.172 1137.13 932.521 1138.15 918.438 z"/>
<path transform="translate(0,0)" fill="rgb(255,255,255)" d="M 1099.89 959.632 C 1099.3 964.687 1099.96 965.651 1096.76 969.764 C 1091.64 964.82 1092.57 925.883 1093.6 918.443 C 1096.55 917.035 1096.25 917.67 1100.25 918.37 L 1101.46 918.967 L 1102.32 922.724 C 1103.5 919.356 1102.91 919.355 1105.28 917.284 C 1106.99 917.8 1107.15 917.485 1107.62 918.824 C 1109.82 925.1 1109.49 962.93 1108.41 967.564 C 1106.03 968.139 1105.21 968.423 1102.78 966.933 L 1100.79 967.308 C 1099.98 964.27 1100.03 962.716 1099.89 959.632 z"/>
<path transform="translate(0,0)" fill="rgb(255,255,255)" d="M 1099.89 959.632 C 1099.3 964.687 1099.96 965.651 1096.76 969.764 C 1091.64 964.82 1092.57 925.883 1093.6 918.443 C 1096.55 917.035 1096.25 917.67 1100.25 918.37 C 1099.53 924.346 1099.19 953.626 1099.89 959.632 z"/>
<path transform="translate(0,0)" fill="rgb(20,19,19)" d="M 1100.25 918.37 L 1101.46 918.967 L 1102.32 922.724 C 1103.79 930.446 1103.37 958.265 1102.78 966.933 L 1100.79 967.308 C 1099.98 964.27 1100.03 962.716 1099.89 959.632 C 1099.19 953.626 1099.53 924.346 1100.25 918.37 z"/>
<path transform="translate(0,0)" fill="rgb(255,255,255)" d="M 1156.7 967.609 C 1154.22 968.071 1154.21 968.329 1152.01 967.254 C 1149.85 962.06 1150.67 926.91 1151.19 919.397 C 1153.16 917.371 1153.34 918.054 1157.09 917.789 L 1159.99 918.188 C 1163.27 918.122 1163.86 917.473 1165.72 919.069 C 1166.2 927.207 1167.58 962.402 1164.43 967.81 C 1161.7 968.504 1161.02 967.806 1159.37 965.395 C 1158.66 965.955 1157.23 966.987 1156.7 967.609 z"/>
<path transform="translate(0,0)" fill="rgb(255,255,255)" d="M 1159.99 918.188 C 1163.27 918.122 1163.86 917.473 1165.72 919.069 C 1166.2 927.207 1167.58 962.402 1164.43 967.81 C 1161.7 968.504 1161.02 967.806 1159.37 965.395 C 1160.65 957.995 1160.03 927.476 1159.99 918.188 z"/>
<path transform="translate(0,0)" fill="rgb(20,19,19)" d="M 1157.09 917.789 L 1159.99 918.188 C 1160.03 927.476 1160.65 957.995 1159.37 965.395 C 1158.66 965.955 1157.23 966.987 1156.7 967.609 C 1157.43 952.239 1157.05 933.431 1157.09 917.789 z"/>
<path transform="translate(0,0)" fill="rgb(255,255,255)" d="M 821.578 1173.21 C 822.378 1173.1 823.345 1173.4 824.226 1173.58 C 825.543 1176.34 825.049 1180.86 824.973 1184.14 C 805.279 1187.18 783.607 1196.24 766.807 1206.9 C 764.581 1205.15 763.124 1199.62 762.07 1196.67 C 778.012 1185.41 802.604 1177.22 821.578 1173.21 z"/>
<path transform="translate(0,0)" fill="rgb(255,255,255)" d="M 823.788 1186.3 C 825.604 1188.93 825.001 1194.02 824.973 1197.49 C 803.648 1203.77 789.549 1208.85 769.658 1219.26 L 766.641 1209.76 C 781.5 1198.36 805.745 1190.57 823.788 1186.3 z"/>
<path transform="translate(0,0)" fill="rgb(255,255,255)" d="M 927.026 1214.86 C 933.775 1212.85 941.938 1214.86 948.843 1213.95 C 959.402 1219.24 967.024 1224.13 976.504 1231.24 C 975.013 1235.88 975.684 1236.74 972.56 1238.81 C 965.768 1238.35 960.886 1232.75 953.404 1229.34 L 952.843 1231.1 L 946.991 1228.52 C 943.938 1223.09 931.867 1222.17 925.919 1221.4 L 925.31 1218.58 L 927.026 1214.86 z"/>
<path transform="translate(0,0)" fill="rgb(49,45,44)" d="M 925.31 1218.58 L 927.026 1214.86 L 928.541 1216.21 C 933.36 1215.88 940.093 1214.99 944.577 1216.07 L 945.735 1217.86 L 945.922 1223.94 C 949.072 1227.02 949.48 1227.19 953.404 1229.34 L 952.843 1231.1 L 946.991 1228.52 C 943.938 1223.09 931.867 1222.17 925.919 1221.4 L 925.31 1218.58 z"/>
<path transform="translate(0,0)" fill="rgb(134,127,125)" d="M 925.31 1218.58 L 927.026 1214.86 L 928.541 1216.21 C 933.36 1215.88 940.093 1214.99 944.577 1216.07 L 945.735 1217.86 C 941.029 1217.92 933.859 1217.4 930.015 1219.56 L 925.31 1218.58 z"/>
<path transform="translate(0,0)" fill="rgb(229,227,228)" d="M 930.015 1219.56 C 933.859 1217.4 941.029 1217.92 945.735 1217.86 L 945.922 1223.94 C 941.467 1221.48 935.104 1220.58 930.015 1219.56 z"/>
<path transform="translate(0,0)" fill="rgb(255,255,255)" d="M 1015.67 918.32 C 1018.38 918.113 1020.93 917.783 1023.62 918.08 C 1025.45 923.158 1025.45 962.861 1024.04 967.59 L 1023.37 967.686 C 1019.83 968.325 1018.73 968.608 1015.58 966.921 L 1014.57 967.401 C 1014.21 956.504 1012.87 929.218 1014.48 918.963 L 1015.67 918.32 z"/>
<path transform="translate(0,0)" fill="rgb(20,19,19)" d="M 1015.58 966.921 L 1014.57 967.401 C 1014.21 956.504 1012.87 929.218 1014.48 918.963 L 1015.67 918.32 C 1016.42 925.142 1016.81 960.525 1015.58 966.921 z"/>
<path transform="translate(0,0)" fill="rgb(20,19,19)" d="M 1023.62 918.08 C 1025.45 923.158 1025.45 962.861 1024.04 967.59 L 1023.37 967.686 C 1022.2 960.459 1022.55 925.221 1023.62 918.08 z"/>
<path transform="translate(0,0)" fill="rgb(255,255,255)" d="M 824.332 1271.03 C 824.476 1274.85 825.16 1279.88 823.586 1283.16 L 824.939 1285.78 C 824.932 1289.61 825.4 1292.92 823.39 1296.07 C 820.39 1298.42 816.58 1298.92 812.803 1299.82 C 810.128 1297.84 806.773 1295.86 805.403 1293 L 805.79 1291.7 L 804.445 1290.96 C 800.717 1290.23 798.328 1285.74 795.947 1282.44 C 805.723 1277.43 813.954 1274.56 824.332 1271.03 z"/>
<path transform="translate(0,0)" fill="rgb(255,255,255)" d="M 805.79 1291.7 C 812.147 1290.6 817.636 1287.14 824.939 1285.78 C 824.932 1289.61 825.4 1292.92 823.39 1296.07 C 820.39 1298.42 816.58 1298.92 812.803 1299.82 C 810.128 1297.84 806.773 1295.86 805.403 1293 L 805.79 1291.7 z"/>
<path transform="translate(0,0)" fill="rgb(49,45,44)" d="M 804.445 1290.96 C 809.756 1289.21 818.181 1285.41 823.586 1283.16 L 824.939 1285.78 C 817.636 1287.14 812.147 1290.6 805.79 1291.7 L 804.445 1290.96 z"/>
<path transform="translate(0,0)" fill="rgb(255,255,255)" d="M 1216.62 836.404 C 1228.54 834.922 1253.92 855.644 1253.9 868.064 L 1252.47 868.736 L 1249.38 867.152 C 1235.53 857.187 1221.34 847.717 1207.44 837.792 C 1210.2 836.398 1213.35 836.603 1216.62 836.404 z"/>
<path transform="translate(0,0)" fill="rgb(255,255,255)" d="M 967.612 918.302 C 971.303 918.096 971.503 917.478 974.332 918.941 C 974.805 927.894 976.218 960.638 973.188 967.285 C 971.24 968.343 970.136 968.355 968.007 967.113 L 966.92 967.385 C 965.138 962.589 965.839 924.962 966.501 918.943 L 967.612 918.302 z"/>
<path transform="translate(0,0)" fill="rgb(20,19,19)" d="M 968.007 967.113 L 966.92 967.385 C 965.138 962.589 965.839 924.962 966.501 918.943 L 967.612 918.302 C 968.72 927.678 968.464 956.592 968.007 967.113 z"/>
<path transform="translate(0,0)" fill="rgb(229,227,228)" d="M 924.96 1188.56 L 927.228 1186.47 C 933.657 1185.25 940.438 1186.02 946.984 1186.52 C 946.974 1188.28 947.043 1190.16 946.821 1191.88 L 946.798 1193.15 L 947.974 1196.59 L 945.466 1197.02 L 948.116 1199.3 L 946.546 1201.79 L 945.676 1208.12 C 941.26 1205.8 931.561 1204.26 926.212 1203.19 L 926.334 1193.93 L 924.96 1188.56 z"/>
<path transform="translate(0,0)" fill="rgb(134,127,125)" d="M 926.334 1193.93 L 927.051 1194.33 C 931.391 1198.11 939.448 1196.34 945.466 1197.02 L 948.116 1199.3 L 946.546 1201.79 L 945.676 1208.12 C 941.26 1205.8 931.561 1204.26 926.212 1203.19 L 926.334 1193.93 z"/>
<path transform="translate(0,0)" fill="rgb(217,219,215)" d="M 946.546 1201.79 L 945.676 1208.12 C 941.26 1205.8 931.561 1204.26 926.212 1203.19 C 930.257 1201.26 940.954 1202.18 946.546 1201.79 z"/>
<path transform="translate(0,0)" fill="rgb(229,227,228)" d="M 927.051 1194.33 C 933.501 1193.2 940.049 1195.06 946.798 1193.15 L 947.974 1196.59 L 945.466 1197.02 C 939.448 1196.34 931.391 1198.11 927.051 1194.33 z"/>
<path transform="translate(0,0)" fill="rgb(67,65,64)" d="M 924.96 1188.56 C 930.564 1195.89 939.463 1190.2 946.821 1191.88 L 946.798 1193.15 C 940.049 1195.06 933.501 1193.2 927.051 1194.33 L 926.334 1193.93 L 924.96 1188.56 z"/>
<path transform="translate(0,0)" fill="rgb(255,255,255)" d="M 948.116 1199.3 L 953.462 1201.33 C 962.84 1206.45 971.794 1212.32 980.238 1218.87 L 977.301 1229.2 C 971.158 1224.46 947.786 1210.45 945.676 1208.12 L 946.546 1201.79 L 948.116 1199.3 z"/>
<path transform="translate(0,0)" fill="rgb(255,255,255)" d="M 892.278 839.063 C 907.013 838.79 915.595 837.184 928.756 843.39 C 932.21 845.116 937.693 847.431 940.29 849.889 C 939.155 852.744 938.642 854.415 936.852 856.973 C 928.294 855.177 901.203 842.923 892.278 839.063 z"/>
<path transform="translate(0,0)" fill="rgb(255,255,255)" d="M 948.841 941.537 C 948.863 937.076 948.111 921.25 950.221 918.586 C 953.964 918.129 952.383 917.661 955.397 919.027 C 955.719 925.043 955.58 962.672 954.497 967.461 C 951.723 968.281 951.842 968.136 948.935 967.688 C 949.054 958.971 949.022 950.253 948.841 941.537 z"/>
<path transform="translate(0,0)" fill="rgb(255,255,255)" d="M 1054.87 917.206 L 1059.55 917.892 C 1062.33 920.783 1061 961.401 1060.94 968.512 C 1058.05 968.33 1058.1 968.387 1055.39 967.393 C 1053.79 959 1054.74 927.817 1054.87 917.206 z"/>
<path transform="translate(0,0)" fill="rgb(255,255,255)" d="M 1025.98 917.449 C 1027.63 917.651 1029.43 917.979 1031.08 918.242 C 1033.15 921.384 1032.13 961.696 1032.08 968.601 C 1030.36 968.372 1028.63 968.028 1026.92 967.722 C 1024.95 964.659 1025.93 924.26 1025.98 917.449 z"/>
<path transform="translate(0,0)" fill="rgb(255,255,255)" d="M 1208.54 917.259 C 1211.28 917.494 1212.34 917.247 1214.46 918.903 C 1215.72 930.168 1214.61 956.248 1214.33 968.642 L 1209.63 967.402 C 1207.16 962.468 1208.44 925.386 1208.54 917.259 z"/>
<path transform="translate(0,0)" fill="rgb(255,255,255)" d="M 1218.03 917.323 L 1223.08 918.141 C 1225.26 921.475 1224.22 961.311 1224.17 968.402 C 1220.47 967.966 1220.81 968.591 1218.4 966.609 C 1217.04 956.128 1217.95 929.022 1218.03 917.323 z"/>
<path transform="translate(0,0)" fill="rgb(255,255,255)" d="M 1083.94 917.034 L 1088.56 917.903 C 1091.28 920.781 1090.03 961.365 1089.99 968.439 L 1085.41 967.85 C 1082.63 964.816 1083.89 924.272 1083.94 917.034 z"/>
<path transform="translate(0,0)" fill="rgb(255,255,255)" d="M 978.159 917.272 L 983.047 918.368 C 985.322 922.178 983.961 962.633 983.867 969.354 C 982.524 969.056 979.048 968.431 978.859 967.539 C 976.87 958.138 978.007 925.621 978.159 917.272 z"/>
<path transform="translate(0,0)" fill="rgb(255,255,255)" d="M 1169.98 917.509 C 1173.48 917.823 1173.11 917.331 1175.67 919.119 C 1176.87 930.698 1176.04 955.7 1175.98 968.278 L 1171.39 967.781 C 1168.63 964.974 1169.93 924.552 1169.98 917.509 z"/>
<path transform="translate(0,0)" fill="rgb(255,255,255)" d="M 959.025 917.597 C 962.459 917.874 962.105 917.404 964.689 919.103 C 965.87 930.844 965.02 955.787 964.938 968.507 L 960.428 967.884 C 957.676 964.754 958.97 924.835 959.025 917.597 z"/>
<path transform="translate(0,0)" fill="rgb(255,255,255)" d="M 1198.95 917.292 C 1200.74 917.556 1202.27 917.891 1204.04 918.257 C 1205.87 921.557 1204.75 961.188 1204.67 968.052 C 1201.05 967.831 1201.11 968.484 1199.14 966.545 C 1198 953.985 1198.84 930.66 1198.95 917.292 z"/>
<path transform="translate(0,0)" fill="rgb(255,255,255)" d="M 1007.09 917.51 C 1011.23 917.942 1009.89 917.067 1012.69 919.118 C 1013.85 931.777 1013.02 955.086 1012.92 968.55 C 1009.57 968.167 1009.16 968.744 1007.29 966.883 C 1006.14 954.549 1006.99 930.703 1007.09 917.51 z"/>
<path transform="translate(0,0)" fill="rgb(255,255,255)" d="M 1122.63 917.25 L 1127.04 918.161 C 1129.52 921.945 1128.04 961.816 1127.68 968.669 L 1123.23 967.51 C 1120.55 963.072 1122.34 925.312 1122.63 917.25 z"/>
<path transform="translate(0,0)" fill="rgb(255,255,255)" d="M 1113.01 917.341 C 1114.68 917.584 1116.38 917.943 1118.05 918.263 C 1119.89 921.479 1118.65 961.093 1118.55 967.907 C 1115.97 967.97 1116.16 967.901 1113.58 967.476 C 1111.77 961.539 1112.88 926.037 1113.01 917.341 z"/>
<path transform="translate(0,0)" fill="rgb(229,227,228)" d="M 925.752 1172.81 C 928.029 1168.93 928.949 1169.79 933.16 1169.54 L 948.002 1170.07 C 946.84 1173.37 946.98 1175.59 946.847 1179.05 L 946.495 1181.14 L 946.329 1184.31 C 939.278 1183.16 930.766 1186.28 926.316 1181.58 L 926.526 1176.54 L 925.752 1172.81 z"/>
<path transform="translate(0,0)" fill="rgb(134,127,125)" d="M 926.526 1176.54 C 929.58 1178.82 942.202 1178.81 946.847 1179.05 L 946.495 1181.14 L 946.329 1184.31 C 939.278 1183.16 930.766 1186.28 926.316 1181.58 L 926.526 1176.54 z"/>
<path transform="translate(0,0)" fill="rgb(49,45,44)" d="M 925.752 1172.81 C 932.881 1174.3 938.296 1173.36 945.641 1175.26 C 939.719 1176.05 931.18 1175.6 926.526 1176.54 L 925.752 1172.81 z"/>
<path transform="translate(0,0)" fill="rgb(229,227,228)" d="M 968.417 873.346 C 961.796 872.705 943.235 867.452 944.262 858.868 C 949.353 856.094 956.732 860.999 961.596 863.358 C 966.227 866.578 966.867 867.83 968.417 873.346 z"/>
<path transform="translate(0,0)" fill="rgb(255,255,255)" d="M 946.508 1257.35 C 951.843 1259.77 962.563 1263.02 960.031 1270.3 C 955.274 1273.81 950.728 1272.72 944.858 1272.32 L 945.022 1270.86 C 944.787 1267.53 945.04 1263.37 945.152 1259.94 L 946.508 1257.35 z"/>
<path transform="translate(0,0)" fill="rgb(255,255,255)" d="M 869.952 1398.03 C 873.625 1398.03 879.309 1398.21 882.805 1397.93 L 884.061 1401.42 L 882.529 1405.65 C 879.312 1409.11 875.738 1413.18 870.866 1413.29 C 868.859 1410.06 869.632 1410.35 869.957 1405.62 L 870.219 1401.84 L 869.952 1398.03 z"/>
<path transform="translate(0,0)" fill="rgb(49,45,44)" d="M 869.957 1405.62 C 873.954 1405.32 878.795 1404.57 882.529 1405.65 C 879.312 1409.11 875.738 1413.18 870.866 1413.29 C 868.859 1410.06 869.632 1410.35 869.957 1405.62 z"/>
<path transform="translate(0,0)" fill="rgb(49,45,44)" d="M 869.952 1398.03 C 873.625 1398.03 879.309 1398.21 882.805 1397.93 L 884.061 1401.42 C 878.361 1400.68 875.862 1401.2 870.219 1401.84 L 869.952 1398.03 z"/>
<path transform="translate(0,0)" fill="rgb(255,255,255)" d="M 1165.49 977.377 L 1174.22 977.275 C 1172.44 982.623 1162.45 988.646 1157.75 991.6 C 1154.47 993.664 1153.08 992.527 1149.31 991.607 L 1148.48 990.593 L 1149.35 988.961 C 1154.46 986.284 1154.1 987.251 1160.5 987.767 C 1157.86 986.451 1157.25 986.738 1156.09 984.627 C 1161.3 980.741 1161.33 983.201 1165.49 977.377 z"/>
<path transform="translate(0,0)" fill="rgb(229,227,228)" d="M 880.521 1386.48 L 882.808 1384.99 C 882.798 1389.12 882.665 1393.86 882.805 1397.93 C 879.309 1398.21 873.625 1398.03 869.952 1398.03 L 869.878 1394.72 L 869.845 1389.88 C 870.268 1388.25 870.714 1386.91 871.232 1385.31 L 872.888 1385.76 L 872.345 1386.22 C 876.194 1387.86 875.647 1387.17 880.521 1386.48 z"/>
<path transform="translate(0,0)" fill="rgb(49,45,44)" d="M 869.878 1394.72 L 869.845 1389.88 C 874.272 1392.41 876.105 1391.13 880.844 1394.02 L 880.516 1395.08 C 875.523 1396.25 875.054 1395.91 869.878 1394.72 z"/>
<path transform="translate(0,0)" fill="rgb(229,227,228)" d="M 973.667 978.141 C 975.683 978.133 977.811 978.211 979.838 978.25 L 980.381 979.238 C 976.978 984.616 968.949 986.828 964.139 993.707 C 960.612 993.753 960.766 993.82 957.429 992.747 L 957.023 991.323 C 961.983 984.599 970.11 983.32 973.667 978.141 z"/>
<path transform="translate(0,0)" fill="rgb(229,227,228)" d="M 1182.25 977.226 L 1192.95 977.139 C 1188.05 981.151 1183.61 985.065 1178.89 989.284 L 1177.02 989.921 C 1174.09 988.88 1173.81 989.147 1172.12 986.678 C 1173.59 983.116 1178.64 983.004 1182.25 977.226 z"/>
<path transform="translate(0,0)" fill="rgb(229,227,228)" d="M 1106.86 996.011 C 1111.28 991.13 1114.5 986.527 1121.36 990.569 C 1122.4 995.281 1118.54 996.354 1114.62 998.142 C 1111.7 996.921 1109.94 996.7 1106.86 996.011 z"/>
<path transform="translate(0,0)" fill="rgb(229,227,228)" d="M 1146.08 977.456 L 1159.34 977.175 C 1153.13 980.841 1150.84 982.763 1145.33 987.335 C 1141.84 986.348 1141.01 986.595 1138.45 984.367 C 1140.23 981.593 1140.02 982.346 1143.52 980.667 C 1146.43 981.457 1145.66 981.527 1148.52 981.405 C 1147.22 979.943 1146.74 979.301 1146.08 977.456 z"/>
<path transform="translate(0,0)" fill="rgb(255,255,255)" d="M 1168.31 988.61 C 1172.06 989.725 1172 989.074 1174.25 991.521 C 1173.29 994.765 1169.96 996.72 1167.14 998.913 C 1164.89 997.664 1162.15 996.508 1159.78 995.419 L 1168.31 988.61 z"/>
<path transform="translate(0,0)" fill="rgb(229,227,228)" d="M 1125.73 980.752 C 1129.79 981.373 1129.36 980.696 1132.13 982.911 C 1131.36 985.819 1127.43 988.162 1124.81 990.173 C 1122.46 989.64 1120.3 988.281 1118.97 986.249 C 1121.12 982.624 1121.54 983.239 1125.73 980.752 z"/>
<path transform="translate(0,0)" fill="rgb(255,255,255)" d="M 1135.41 995.392 C 1131.03 993.673 1130.89 994.499 1129.12 991.347 C 1132.25 985.079 1139.25 987.448 1144.23 989.537 L 1135.41 995.392 z"/>
<path transform="translate(0,0)" fill="rgb(229,227,228)" d="M 926.405 1206.13 C 931.816 1206.64 943.706 1207.69 947.203 1211.77 C 941.751 1212.06 930.765 1212.82 926.637 1209.54 L 926.405 1206.13 z"/>
<path transform="translate(0,0)" fill="rgb(229,227,228)" d="M 1215.53 985.277 C 1213.76 984.486 1213.42 984.227 1211.77 983.199 L 1212.33 980.984 C 1215.31 977.932 1221.32 974.724 1225.05 977.874 C 1224.23 981.156 1221.4 982.682 1218.58 984.919 L 1215.53 985.277 z"/>
<path transform="translate(0,0)" fill="rgb(229,227,228)" d="M 967.283 975.14 C 964.021 980.537 956.778 985.16 951.584 989.25 L 947.959 984.527 C 953.669 981.561 961.432 977.234 967.283 975.14 z"/>
<path transform="translate(0,0)" fill="rgb(255,255,255)" d="M 945.557 1274.98 C 948.457 1273.19 946.804 1273.8 951.071 1274.23 L 953.205 1275.84 C 953.181 1281.47 950.202 1282.46 945.793 1285.82 L 945.306 1282.93 L 945.557 1274.98 z"/>
<path transform="translate(0,0)" fill="rgb(217,219,215)" d="M 1228.63 836.264 C 1237.35 837.699 1247.14 846.056 1250.51 854.116 C 1247.18 852.462 1232.06 839.356 1228.63 836.264 z"/>
<path transform="translate(0,0)" fill="rgb(255,255,255)" d="M 1195.86 979.785 C 1198.96 980.823 1199.26 980.756 1201.97 982.753 C 1201.61 985.478 1201.09 985.033 1198.29 987.412 C 1195.57 987.038 1193.61 986.485 1191.79 984.709 C 1192.46 981.665 1192.81 982.273 1195.86 979.785 z"/>
<path transform="translate(0,0)" fill="rgb(255,255,255)" d="M 951.584 989.25 C 948.248 991.075 946.875 991.647 943.353 990.697 L 942.548 989.165 C 944.412 985.798 944.066 986.753 947.959 984.527 L 951.584 989.25 z"/>
<path transform="translate(0,0)" fill="rgb(229,227,228)" d="M 1128.7 977.416 C 1132.07 977.171 1136.67 976.397 1139.5 977.744 L 1138.73 979.822 C 1135.58 981.405 1135.66 981.592 1131.99 981.375 C 1129.01 979.362 1130.04 980.66 1128.7 977.416 z"/>
</svg>