<svg version="1.1" xmlns="http://www.w3.org/2000/svg" style="display: block;" viewBox="0 0 2048 2048" width="1024" height="1024" preserveAspectRatio="none">
<defs>
	<linearGradient id="Gradient1" gradientUnits="userSpaceOnUse" x1="1104.72" y1="1506.57" x2="1102.08" y2="1519.35">
		<stop class="stop0" offset="0" stop-opacity="1" stop-color="rgb(124,114,113)"/>
		<stop class="stop1" offset="1" stop-opacity="1" stop-color="rgb(161,154,144)"/>
	</linearGradient>
	<linearGradient id="Gradient2" gradientUnits="userSpaceOnUse" x1="1291.57" y1="606.277" x2="1306.4" y2="693.558">
		<stop class="stop0" offset="0" stop-opacity="1" stop-color="rgb(223,229,228)"/>
		<stop class="stop1" offset="1" stop-opacity="1" stop-color="rgb(255,249,252)"/>
	</linearGradient>
</defs>
<path transform="translate(0,0)" fill="rgb(255,255,255)" d="M 0 0 L 2048 0 L 2048 2048 L 0 2048 L 0 0 z"/>
<path transform="translate(0,0)" fill="rgb(3,2,2)" d="M 1560.15 638.119 C 1561.36 644.393 1562.88 649.155 1565.84 654.818 C 1574.06 652.884 1582.65 650.078 1590.87 652.163 L 1591.16 653.534 C 1585.89 659.46 1565.02 666.413 1556.63 670.081 C 1457.92 713.26 1379.54 776.154 1302.57 850.327 C 1259.93 890.624 1220.72 934.4 1185.35 981.203 C 1147.07 1032.79 1111.71 1085.19 1083.44 1143.12 C 1074.75 1160.92 1064.31 1181.76 1057.02 1200.59 C 1042.98 1236.83 1027 1281.81 982.006 1287.81 C 961.274 1289.99 931.9 1273.78 922.718 1255.36 C 916.599 1243.09 910.269 1224.23 906.329 1211.03 C 890.825 1159.07 866.574 1109.52 829.875 1068.87 C 807.476 1044.24 780.903 1023.77 751.382 1008.39 C 737.239 1000.9 723.789 994.951 708.441 990.487 C 704.456 989.328 697.012 987.873 695.169 985.05 C 702.579 975.903 772.377 974.891 786.277 975.382 C 789.577 973.573 792.618 961.36 793.974 957.106 C 823.481 956.347 840.949 955.005 869.585 963.968 C 919.543 979.604 950.578 1010.33 974.43 1055.85 C 977.564 1046.56 981.474 1037.37 986.217 1028.65 C 1045.13 920.343 1136.69 835.512 1243.51 775.239 C 1256.92 767.68 1271.6 763.15 1285.59 756.723 C 1327.29 737.573 1367.78 714.361 1408.87 694.336 C 1456.32 671.214 1509.7 653.786 1560.15 638.119 z"/>
<path transform="translate(0,0)" fill="rgb(246,114,41)" d="M 1560.15 638.119 C 1561.36 644.393 1562.88 649.155 1565.84 654.818 C 1454.46 679.762 1358.18 734.358 1262.46 794.574 C 1225.48 817.833 1190.39 841.764 1157.14 870.258 C 1110.28 910.462 1058.33 967.708 1025.31 1019.89 C 1007.3 1048.94 990.964 1079 976.371 1109.9 C 929.698 1028.37 884.668 983.682 786.277 975.382 C 789.577 973.573 792.618 961.36 793.974 957.106 C 823.481 956.347 840.949 955.005 869.585 963.968 C 919.543 979.604 950.578 1010.33 974.43 1055.85 C 977.564 1046.56 981.474 1037.37 986.217 1028.65 C 1045.13 920.343 1136.69 835.512 1243.51 775.239 C 1256.92 767.68 1271.6 763.15 1285.59 756.723 C 1327.29 737.573 1367.78 714.361 1408.87 694.336 C 1456.32 671.214 1509.7 653.786 1560.15 638.119 z"/>
<path transform="translate(0,0)" fill="rgb(255,255,255)" d="M 710.704 985.189 C 747.847 979.308 782.745 976.759 819.322 985.662 C 833.08 989.011 841.676 990.102 855.237 995.46 L 854.72 997.437 C 858.132 998.733 859.035 997.796 861.696 998.494 C 866.389 1000.62 870.509 1002.1 874.323 1005.58 L 874.912 1008.64 C 884.308 1009.39 888.74 1012.72 895.907 1018.88 C 888.328 1019.21 859.812 1020.2 854.517 1022.49 C 865.561 1021.79 897.039 1020.08 905.583 1025.46 L 905.886 1026.9 C 900.349 1029.94 883.424 1030.13 883.057 1031.35 C 894.577 1032.28 898.604 1031.84 910.052 1030.89 C 913.322 1033.5 916.926 1036.25 920.062 1038.97 C 912.075 1039.43 896.247 1040.12 888.875 1042.12 C 897.132 1045.3 920.478 1039.81 927.17 1045.49 L 927.46 1047.31 C 925.555 1048.33 865.441 1051.48 857.331 1052.58 L 858.84 1052.73 C 873.575 1054.13 929.784 1049.04 935.124 1055.01 L 934.515 1056.29 C 917.459 1058.7 884.948 1057.87 869.68 1061.93 L 870.021 1062.73 C 876.362 1061.86 935.985 1059.79 938.579 1060.64 C 940.255 1063.02 939.978 1062.26 940.891 1064.92 C 927.297 1066.09 865.692 1068.96 856.36 1072.22 C 865.86 1074.76 929.699 1068.75 944.031 1068.89 L 945.336 1070.83 C 942.138 1073.68 873.568 1077.97 862.595 1079.23 L 862.666 1080.19 C 875.548 1082.32 945.554 1073.88 949.438 1077.34 C 945.115 1081.39 898.189 1082.93 888.574 1084.42 C 881.73 1085.47 876.682 1086.57 869.604 1088.44 C 869.981 1088.34 870.359 1088.23 870.736 1088.12 L 872.044 1088.9 L 875.439 1088.9 C 873.352 1089.85 871.743 1090.47 869.806 1091.72 L 877.811 1092.14 L 875.917 1094.09 C 901.197 1094.08 925.717 1093.67 950.75 1090.38 C 953.53 1090.02 957.915 1091.5 959.851 1093.71 C 958.835 1097.81 951.753 1099.23 948.222 1099.03 C 932.623 1098.15 894.05 1107.54 880.829 1104.45 L 879.552 1105.83 C 898.996 1105.85 919.119 1104.92 938.48 1102.88 C 944.101 1102.29 959.467 1099.44 963.75 1101.16 L 965.496 1103.01 L 965.013 1104.35 C 955.59 1105.81 886.569 1113.16 883.211 1115.68 C 889.796 1119.36 944.414 1109.13 954.979 1109.31 C 959.073 1109.38 965.377 1106.54 968.635 1109.25 L 969.067 1111.72 C 966.368 1113.48 951.806 1114.22 947.619 1114.79 C 933.194 1116.76 918.559 1117.81 904.199 1120.37 C 900.497 1120.82 895.542 1121.27 892.007 1122.03 L 891.358 1123.71 L 888.948 1123.09 C 893.751 1124.82 907.896 1123.08 913.333 1122.16 C 922.718 1121.42 965.805 1115.74 970.418 1117.18 C 972.543 1119.15 972.195 1118.05 972.448 1120.27 C 967.048 1124.38 898.869 1125.24 890.67 1130.97 C 912.844 1131.67 941.023 1126.62 962.397 1125.9 C 975.376 1125.47 1052.04 1113.21 1057.81 1115.54 C 1056.37 1120.99 1049.99 1120.35 1045.22 1121.08 C 1000.74 1127.86 953.401 1129.27 909.343 1136.32 L 909.968 1137.65 L 913.413 1138.52 C 927.908 1136.81 1050.23 1124.43 1052.17 1125.07 C 1051.45 1127.99 1051.55 1127.79 1049.3 1129.8 C 1031.91 1130.97 1013.56 1134.79 996.071 1136.39 C 973.931 1138.43 951.64 1140.03 929.526 1142.15 C 921.989 1142.87 905.146 1143.86 898.434 1145.79 L 897.777 1146.93 C 906.989 1150.37 990.263 1139.49 1004.07 1139.28 C 1010.93 1139.18 1043.84 1131.57 1046.81 1136.49 C 1039.93 1144.87 917.074 1149.16 896.815 1156.04 C 927.58 1156.05 960.157 1151.83 990.81 1148.91 C 1003.15 1147.73 1030.64 1143.32 1041.4 1144.25 L 1041.72 1145.58 C 1025.57 1151.87 938.419 1158.45 916.231 1160.3 C 919.917 1162.03 921.193 1161.87 925.37 1162.21 C 956.643 1160.47 987.766 1157.8 1018.88 1154.12 C 1025.06 1153.39 1030.46 1152.71 1036.74 1152.66 L 1037.55 1153.82 C 1036.22 1155.27 1035.39 1156.68 1033.29 1156.99 C 997.604 1162.24 961.23 1164.91 925.43 1168.26 L 925.981 1169.46 L 933.131 1170.14 C 951.888 1169.48 970.616 1168.15 989.28 1166.18 C 998.278 1165.25 1023.68 1160.77 1031.15 1163.66 L 1032.03 1165.13 C 1030.53 1167.75 1027.88 1168.65 1025.08 1169.33 C 1010.05 1172.98 914.373 1176.86 912.235 1178.16 C 919.209 1182.42 982.529 1176.62 994.098 1176.33 C 999.983 1176.18 1022.16 1172.44 1026.51 1174.29 C 1023.44 1183.33 921 1181.74 914.571 1186.38 C 926.428 1190.69 1004.95 1182.47 1021.64 1182.96 C 1021.96 1183.41 1022.29 1183.86 1022.61 1184.31 C 1014.99 1195.71 935.547 1190.15 918.463 1195.77 C 925.748 1200.57 1009.92 1191.22 1016.02 1194.91 C 1000.72 1200.21 926.07 1203.16 922.41 1205.4 C 930.152 1211.09 1008.67 1199.12 1013.08 1202.51 L 1012.38 1204.37 C 1006.89 1206.56 948.168 1213.53 939.106 1214.29 L 938.913 1215.48 C 941.69 1215.75 944.472 1215.98 947.258 1216.15 C 959.942 1215.59 999.985 1210.18 1007.89 1212.64 C 1002.83 1216.83 936.944 1220.64 922.969 1224.26 L 924.456 1224.39 C 941.268 1225.85 959.309 1223.07 976.188 1222.33 C 981.194 1222.11 1001.22 1218.67 1003.9 1220.82 C 1002.72 1222.63 1001.34 1224.31 998.974 1224.55 C 979.098 1226.59 958.927 1227.48 939.158 1230.34 C 935.228 1230.54 931.114 1230.28 927.744 1231.8 C 933.489 1233.67 942.583 1233.38 948.478 1232.11 C 959.118 1231.82 991.02 1227.68 997.284 1231.14 C 994.892 1232.58 938.377 1237.58 926.261 1240.8 C 935.516 1240.97 988.279 1237.02 991.089 1238.46 C 974.862 1245.99 953.31 1240.91 934.807 1250.06 C 945.223 1247.64 975.199 1244.69 985.142 1246.37 L 985.523 1247.34 C 974.755 1253.64 958.589 1251.97 948.644 1256.7 L 949.919 1256.28 L 949.994 1257.08 L 979.331 1255.81 C 926.892 1279.56 925.722 1253.9 912.015 1209.46 C 878.029 1099.27 819.544 1027.66 710.704 985.189 z"/>
<path transform="translate(0,0)" fill="rgb(35,34,32)" d="M 874.323 1005.58 L 874.912 1008.64 C 869.022 1009.44 843.442 1009.15 837.276 1008.1 C 845.361 1006.52 865.212 1006.04 874.323 1005.58 z"/>
<path transform="translate(0,0)" fill="rgb(77,71,68)" d="M 855.237 995.46 L 854.72 997.437 C 858.132 998.733 859.035 997.796 861.696 998.494 C 853.403 999.717 826.26 998.916 817.254 998.456 C 829.554 996.381 842.671 997.16 855.237 995.46 z"/>
<path transform="translate(0,0)" fill="rgb(35,34,32)" d="M 933.131 1170.14 C 926.729 1171.09 916.885 1171.78 910.81 1169.94 L 912.651 1170.5 L 913.404 1169.07 C 916.079 1168.63 922.455 1168.44 925.43 1168.26 L 925.981 1169.46 L 933.131 1170.14 z"/>
<path transform="translate(0,0)" fill="rgb(77,71,68)" d="M 947.258 1216.15 C 941.956 1217.22 934.345 1217.46 929.134 1215.94 L 928.96 1215.15 C 932.824 1214.14 935.069 1214.33 939.106 1214.29 L 938.913 1215.48 C 941.69 1215.75 944.472 1215.98 947.258 1216.15 z"/>
<path transform="translate(0,0)" fill="rgb(3,2,2)" d="M 925.37 1162.21 C 919.963 1162.93 912.257 1163.83 907.314 1161.72 C 910.648 1160.4 912.689 1160.51 916.231 1160.3 C 919.917 1162.03 921.193 1161.87 925.37 1162.21 z"/>
<path transform="translate(0,0)" fill="rgb(77,71,68)" d="M 896.896 1138.65 C 900.864 1137.67 905.289 1137.02 909.343 1136.32 L 909.968 1137.65 L 913.413 1138.52 C 907.688 1139.34 902.665 1138.89 896.896 1138.65 z"/>
<path transform="translate(0,0)" fill="rgb(96,85,81)" d="M 869.806 1091.72 L 877.811 1092.14 L 875.917 1094.09 C 871.815 1094.15 870.659 1094.04 866.584 1093.42 L 866.458 1092.54 L 869.806 1091.72 z"/>
<path transform="translate(0,0)" fill="rgb(255,255,255)" d="M 992.618 1089.58 C 1020.6 1032.32 1036.74 1009.29 1077.14 959.561 C 1136.82 886.082 1201.12 836.932 1282.31 788.01 L 1283.14 789.202 C 1288.63 790.313 1294.69 789.061 1300.47 788.899 L 1300.3 791.946 C 1294.11 793.179 1273.72 796.706 1269.83 799.837 L 1269.14 804.814 C 1265.78 805.605 1264.2 805.343 1262.14 807.382 L 1260.83 807.336 L 1261.91 807.659 L 1261.19 807.914 C 1268.48 807.679 1305.19 802.601 1307.73 803.816 C 1301.03 813.617 1255.74 813.934 1246.8 820.336 C 1252.12 821.623 1294.05 812.534 1296.03 814.966 C 1295.2 815.885 1292.68 818.393 1291.63 818.643 C 1271.53 823.419 1251.94 824.591 1232.36 831.794 C 1241.55 830.727 1279.92 823.281 1284.63 825.969 C 1277.57 833.855 1226.75 836.78 1211.63 842.098 C 1230.55 841.866 1259.8 837.493 1278.6 834.065 C 1257.56 847.049 1228.39 845.892 1203.82 852.587 C 1215.21 852.86 1255.14 845.809 1260.95 847.553 C 1254.14 854.608 1194.17 857.693 1187.23 862.043 L 1187.97 862.742 C 1210.05 860.948 1230.71 857.523 1252.3 855.355 C 1250.93 862.467 1230.77 863.456 1224.21 864.586 C 1208.58 867.279 1192.65 867.644 1177.6 873.081 C 1200.47 870.952 1222.76 868.694 1245.44 864.853 L 1237.51 872.133 C 1217.16 876.331 1185.58 879.672 1167.97 884.759 C 1188.6 884.625 1214 879.972 1234.18 876.264 L 1226.79 884.575 C 1210.11 887.066 1193.65 890.052 1176.8 891.215 C 1171.46 891.584 1165.9 892.661 1160.66 893.79 L 1160.55 894.395 C 1182.17 894.558 1202.56 891.825 1223.89 888.803 L 1216.22 895.268 C 1203.63 897.074 1162.59 901.666 1153.45 905.364 C 1173.97 904.04 1194.41 901.688 1214.69 898.316 L 1207.08 906.081 C 1191.02 909.697 1175.97 910.373 1160.34 913.297 L 1160.95 915.295 C 1168.5 914.367 1194.8 910.289 1200.25 912.251 C 1199.03 916.705 1191.53 917.991 1187.44 918.742 C 1167.04 922.492 1145.91 924.148 1126.01 930.162 C 1143.27 928.343 1178.79 923.938 1195.19 920.693 L 1189.39 928.281 C 1169.75 930.725 1151.15 934.852 1132.08 937.299 L 1131.89 939.19 C 1138.57 938.537 1181.52 932.754 1183.84 933.542 C 1183.01 938.767 1177.12 939.96 1172.71 940.935 C 1151.73 945.566 1130.48 948.971 1109.47 953.404 L 1110.06 955.466 C 1132.6 951.603 1155.9 947.883 1178.25 943.212 L 1167.2 954.741 C 1158.13 955.33 1119.06 963.888 1108.62 966.379 L 1109.03 968.463 C 1115.07 967.096 1158.28 958.571 1161.45 960.107 L 1161.48 961.45 C 1156.62 965.818 1106.68 972.767 1096.27 974.443 L 1100.34 976.399 C 1108.76 975.2 1148.32 968.739 1153.69 970.361 C 1148.73 974.37 1094.71 982.903 1086.48 982.967 L 1081.17 984.967 C 1104.44 983.911 1126.73 979.371 1149.74 975.89 L 1141.43 987.582 C 1126.27 990.028 1097.21 995.443 1082.77 996.109 L 1081.99 998.088 C 1093.93 997.463 1128.98 991.59 1137.24 992.631 C 1136.31 995.522 1136.3 995.327 1134.24 997.613 C 1118.31 998.809 1102.86 1002.02 1086.22 1003.31 C 1088.41 1004.26 1089.57 1004.88 1091.9 1005.5 C 1098.16 1005.01 1126.03 1002.28 1130.28 1002.82 C 1130.23 1004.99 1128.29 1007.36 1126.22 1007.67 C 1101.56 1011.41 1071.79 1011.06 1047.72 1015.81 C 1070.86 1016.71 1102.86 1014.04 1125.92 1010.5 L 1117.82 1020.49 C 1099.37 1022.71 1078.76 1024.99 1060.09 1026.23 L 1060.04 1028.35 C 1066.97 1027.9 1112.32 1024.37 1114.83 1025.46 C 1110.07 1033.78 1048.19 1033.86 1041.64 1038.44 C 1057.67 1037.92 1073.85 1037.59 1089.75 1035.34 C 1095.79 1034.49 1101.9 1034.28 1107.99 1034.1 L 1108.61 1035.07 C 1103.69 1042.13 1074.22 1043.31 1064.24 1044.3 C 1067.83 1045.93 1068.01 1045.81 1071.77 1046.34 C 1077.47 1045.75 1098.49 1042.29 1102.12 1044.95 C 1100.98 1047.66 1101.65 1046.81 1099.43 1048.7 C 1098.28 1050.53 1097.8 1051 1097.07 1053 C 1096.01 1055.36 1096.44 1055.78 1094.63 1056.2 C 1087.28 1057.94 1078.18 1059.07 1070.73 1060.2 C 1054.43 1062.59 1038.15 1065.15 1021.9 1067.88 L 1022.12 1069.1 C 1033.21 1068.11 1084.78 1060.68 1090.98 1062.45 L 1090.74 1063.66 C 1080.73 1069.14 1033.83 1073.8 1019.71 1076.66 C 1013.76 1077.86 1006.19 1077.91 999.895 1080.39 C 1026.6 1078.11 1052.34 1075.77 1078.9 1071.52 C 1081.41 1071.11 1082.64 1070.94 1084.85 1071.97 L 1084.01 1073.6 C 1076.95 1078.28 1007.43 1087.43 992.618 1089.58 z"/>
<path transform="translate(0,0)" fill="rgb(3,2,2)" d="M 1097.07 1053 C 1080.86 1053.24 1050.24 1058.93 1029.97 1060.24 C 1032.9 1059.13 1046.96 1057.1 1051 1056.46 C 1067.17 1054.02 1083.31 1051.43 1099.43 1048.7 C 1098.28 1050.53 1097.8 1051 1097.07 1053 z"/>
<path transform="translate(0,0)" fill="rgb(35,34,32)" d="M 1091.9 1005.5 C 1083.43 1006.61 1062.09 1007.23 1054.41 1006.52 C 1057.25 1004.52 1081.28 1003.62 1086.22 1003.31 C 1088.41 1004.26 1089.57 1004.88 1091.9 1005.5 z"/>
<path transform="translate(0,0)" fill="rgb(35,34,32)" d="M 1071.77 1046.34 C 1065.62 1047.21 1042.94 1047.69 1036.82 1047.06 C 1046.23 1045.95 1054.76 1044.41 1064.24 1044.3 C 1067.83 1045.93 1068.01 1045.81 1071.77 1046.34 z"/>
<path transform="translate(0,0)" fill="rgb(96,85,81)" d="M 1081.99 998.088 C 1074.11 998.713 1066.26 999.322 1058.39 998.267 C 1065.75 996.817 1074.76 996.94 1082.77 996.109 L 1081.99 998.088 z"/>
<path transform="translate(0,0)" fill="rgb(77,71,68)" d="M 1110.06 955.466 C 1103.7 956.688 1095.49 958.625 1089.26 957.622 C 1094.23 955.753 1103.89 954.376 1109.47 953.404 L 1110.06 955.466 z"/>
<path transform="translate(0,0)" fill="rgb(3,2,2)" d="M 1100.34 976.399 C 1091.89 977.368 1087.39 977.814 1078.86 976.192 C 1080.4 975.129 1093.41 974.616 1096.27 974.443 L 1100.34 976.399 z"/>
<path transform="translate(0,0)" fill="rgb(178,173,165)" d="M 1081.17 984.967 C 1074.19 986.15 1071.31 986.219 1064.42 985.248 C 1069.54 983.56 1080.89 982.988 1086.48 982.967 L 1081.17 984.967 z"/>
<path transform="translate(0,0)" fill="rgb(77,71,68)" d="M 1109.03 968.463 C 1101.92 969.884 1098.16 970.653 1090.97 970.997 C 1093.71 969.413 1105.09 967.105 1108.62 966.379 L 1109.03 968.463 z"/>
<path transform="translate(0,0)" fill="rgb(216,216,215)" d="M 1022.12 1069.1 C 1019.04 1070.8 1009.34 1071.44 1005.37 1071.76 C 1010.86 1069.18 1015.94 1068.76 1021.9 1067.88 L 1022.12 1069.1 z"/>
<path transform="translate(0,0)" fill="rgb(121,116,111)" d="M 1131.89 939.19 C 1128.68 939.921 1122.28 940.529 1118.78 940.972 L 1117.74 939.467 L 1117.75 940.967 L 1116.34 940.629 L 1116.85 939.954 C 1121.64 938.276 1126.99 937.919 1132.08 937.299 L 1131.89 939.19 z"/>
<path transform="translate(0,0)" fill="rgb(77,71,68)" d="M 1160.95 915.295 C 1157.57 915.903 1149.97 917.539 1147.11 916.429 C 1151.19 914.317 1155.72 914.016 1160.34 913.297 L 1160.95 915.295 z"/>
<path transform="translate(0,0)" fill="rgb(121,116,111)" d="M 1060.04 1028.35 C 1056.82 1028.82 1050.55 1029.75 1047.9 1028.18 C 1051.03 1026.33 1056.27 1026.48 1060.09 1026.23 L 1060.04 1028.35 z"/>
<path transform="translate(0,0)" fill="rgb(255,255,255)" d="M 1077.68 1080.5 L 1078.24 1080.86 C 1078.01 1083.47 1075.52 1085.91 1073.69 1088.35 C 1053.95 1094.19 1012.81 1098.59 990.765 1101.76 C 1011.48 1102.82 1050.38 1096.2 1071.24 1092.44 C 1068.23 1098.15 1068.14 1100.63 1061.77 1101.78 C 1035.64 1107.08 1007.24 1109.05 980.723 1111.73 C 984.487 1105.13 988.168 1097.8 991.723 1091.03 C 1021.05 1088.29 1048.69 1083.75 1077.68 1080.5 z"/>
<path transform="translate(0,0)" fill="rgb(255,255,255)" d="M 1312.98 769.734 C 1318.2 769.873 1347.1 767.877 1348.9 768.839 C 1345.79 774.28 1311.91 774.094 1305.26 777.569 C 1312.86 781.085 1337.6 776.198 1339.11 777.096 C 1327.56 786.688 1296.38 783.721 1283.14 789.202 L 1282.31 788.01 C 1290.43 782.31 1304.02 774.693 1312.98 769.734 z"/>
<path transform="translate(0,0)" fill="rgb(255,255,255)" d="M 1058.56 1106.4 L 1061.57 1106.16 L 1062.79 1107.6 C 1061.08 1109.74 1059.73 1110.49 1056.57 1110.91 C 1031.6 1114.27 1006.18 1117.02 981.275 1120.55 L 978.47 1120.58 L 977.264 1119.09 L 977.626 1116.49 C 979.397 1114.71 979.654 1114.07 982.552 1114 C 1008.11 1113.33 1033.2 1109.9 1058.56 1106.4 z"/>
<path transform="translate(0,0)" fill="rgb(255,255,255)" d="M 1330.8 759.285 C 1339.21 753.581 1375.75 732.051 1388.2 729.544 C 1388.46 729.492 1392.47 730.641 1393.18 730.85 C 1391.43 731.956 1390.27 732.516 1388.25 732.919 C 1372.57 736.041 1364.39 747.534 1348.85 751.642 L 1346.3 752.179 L 1346.73 753.513 C 1349.19 754.188 1351 754.668 1353.53 755.175 C 1367.59 746.634 1378.86 739.837 1394.3 734.436 C 1374.71 750.458 1355.42 757.917 1330.8 759.285 z"/>
<path transform="translate(0,0)" fill="rgb(255,255,255)" d="M 875.439 1088.9 C 898.769 1084.2 927.167 1086.81 950.963 1082.42 C 951.573 1082.31 953.986 1083.53 954.471 1083.77 L 955.375 1085.28 C 951.27 1088.7 888.288 1091.78 877.811 1092.14 L 869.806 1091.72 C 871.743 1090.47 873.352 1089.85 875.439 1088.9 z"/>
<path transform="translate(0,0)" fill="rgb(255,255,255)" d="M 1269.83 799.837 C 1273.4 801.432 1315.66 793.912 1323.2 792.637 C 1309.79 800.701 1284.99 804.091 1269.14 804.814 L 1269.83 799.837 z"/>
<path transform="translate(0,0)" fill="rgb(255,255,255)" d="M 1071.85 1098.68 C 1076.27 1100.64 1087.26 1109.51 1090.12 1114.01 C 1091.64 1116.42 1090.93 1116.43 1090.18 1119.38 C 1086.05 1117.26 1074.59 1107.27 1071.66 1103.04 C 1070.68 1101.61 1071.36 1100.97 1071.85 1098.68 z"/>
<path transform="translate(0,0)" fill="rgb(255,255,255)" d="M 1081.34 1084.81 C 1086.97 1084.9 1098.6 1092.88 1101.37 1097.65 L 1100.21 1101.56 L 1098.09 1101.38 C 1093.25 1097.72 1082.06 1089.87 1081.34 1084.81 z"/>
<path transform="translate(0,0)" fill="rgb(255,255,255)" d="M 1408.16 729.787 C 1411.72 731.066 1418.64 738.911 1418.1 743.382 L 1415.44 744.25 C 1411.17 741.57 1402.93 738.169 1403.67 732.915 L 1408.16 729.787 z"/>
<path transform="translate(0,0)" fill="rgb(255,255,255)" d="M 1088.26 1074.45 C 1092.82 1076.66 1101.39 1083.24 1104.67 1087.19 C 1106.48 1089.37 1105.72 1089.56 1105.18 1092.69 C 1099.9 1089 1090.86 1083.13 1087.44 1077.95 L 1088.26 1074.45 z"/>
<path transform="translate(0,0)" fill="rgb(255,255,255)" d="M 1144 994.32 L 1145.24 993.77 C 1150.37 997.532 1158.71 1003.37 1160.9 1009.25 C 1154.54 1009.56 1144.17 999.78 1144 994.32 z"/>
<path transform="translate(0,0)" fill="rgb(255,255,255)" d="M 1239.81 876.46 C 1243.41 881.004 1249.12 886.324 1251.32 891.616 C 1252.09 893.459 1251.01 894.316 1249.82 896.674 C 1246.5 891.911 1239.43 884.255 1237.81 879.791 L 1239.81 876.46 z"/>
<path transform="translate(0,0)" fill="rgb(255,255,255)" d="M 1300.47 788.899 C 1305.97 788.069 1320.7 785.284 1325.58 787.555 C 1320.9 790.577 1306.52 791.37 1300.3 791.946 L 1300.47 788.899 z"/>
<path transform="translate(0,0)" fill="rgb(255,255,255)" d="M 1195.41 928.544 C 1199.33 929.22 1207.26 935.804 1209.67 939.291 C 1211.04 941.267 1210.47 940.614 1209.95 943.699 L 1208.02 943.795 C 1204.07 940.362 1199.52 936.797 1195.96 933.047 C 1194.44 931.447 1195.08 931.67 1195.41 928.544 z"/>
<path transform="translate(0,0)" fill="rgb(255,255,255)" d="M 1296.62 825.012 C 1299.93 828.293 1306.32 833.899 1306.68 838.387 L 1304.91 840.2 C 1300.07 835.599 1294.18 833.635 1293.33 827.819 L 1296.62 825.012 z"/>
<path transform="translate(0,0)" fill="rgb(255,255,255)" d="M 1330.8 759.285 C 1334.24 761.68 1334.02 761.661 1338.11 762.375 L 1340.12 764.794 C 1332.04 765.911 1323.92 766.787 1315.78 767.419 C 1320.92 764.371 1325.29 761.635 1330.8 759.285 z"/>
<path transform="translate(0,0)" fill="rgb(216,216,215)" d="M 1053.79 1132.05 C 1060.95 1136.05 1073.96 1142.56 1074.49 1151.22 C 1071.1 1149.26 1057 1137.64 1053.6 1134.59 L 1053.79 1132.05 z"/>
<path transform="translate(0,0)" fill="rgb(216,216,215)" d="M 1017.04 1207.9 C 1017.63 1208.1 1018.66 1208.4 1019.05 1208.78 C 1024.06 1213.67 1039.31 1224 1040.18 1230.47 C 1035.99 1229.05 1018.4 1212.32 1017.04 1207.9 z"/>
<path transform="translate(0,0)" fill="rgb(255,255,255)" d="M 1284.25 832.629 C 1290 833.133 1298.14 841.691 1297.29 848.098 C 1292.8 844.446 1286.83 839.692 1283.55 835.008 L 1284.25 832.629 z"/>
<path transform="translate(0,0)" fill="rgb(216,216,215)" d="M 1303.63 816.324 C 1308.3 818.526 1311.41 826.624 1313.66 831.532 L 1312.62 833.249 C 1308.06 828.558 1304.09 825.342 1301.79 819.256 L 1303.63 816.324 z"/>
<path transform="translate(0,0)" fill="rgb(255,255,255)" d="M 1256.07 857.489 C 1260.46 858.84 1271.4 869.549 1272.34 874.414 C 1265.9 870.762 1257.2 864.969 1256.07 857.489 z"/>
<path transform="translate(0,0)" fill="rgb(255,255,255)" d="M 1276.2 838.728 C 1282.02 839.623 1290.53 849.814 1290.91 855.386 C 1286.85 853.969 1277.12 843.144 1276.2 838.728 z"/>
<path transform="translate(0,0)" fill="rgb(216,216,215)" d="M 1001.24 1234.84 C 1008.49 1234.8 1013.27 1244.25 1018.22 1244.88 L 1019.56 1242.19 L 1020.78 1242.72 L 1019.75 1242.73 C 1021.67 1243.28 1020.88 1242.71 1021.97 1244.63 L 1019.66 1248.06 L 1017.99 1248.31 C 1012.33 1245.72 1004.88 1239.71 1001.24 1234.84 z"/>
<path transform="translate(0,0)" fill="rgb(216,216,215)" d="M 1118.84 1026.93 C 1123.09 1029.7 1133.92 1040 1134.52 1045.16 C 1129.34 1042.36 1118.56 1033.11 1118.84 1026.93 z"/>
<path transform="translate(0,0)" fill="rgb(255,255,255)" d="M 1181.96 944.647 C 1187.25 945.974 1196.83 952.592 1197.69 958.218 C 1192.2 956.534 1183.01 950.589 1181.96 944.647 z"/>
<path transform="translate(0,0)" fill="rgb(255,255,255)" d="M 1307.91 811.756 C 1312.61 813.818 1320.46 822.526 1320.12 828.002 C 1317.76 826.509 1311.75 821.018 1310.07 818.772 C 1306.92 814.554 1307.35 815.958 1307.91 811.756 z"/>
<path transform="translate(0,0)" fill="rgb(216,216,215)" d="M 1096.4 1060.88 C 1101.54 1062.54 1109.58 1069.17 1113.99 1072.62 L 1113.63 1074.53 L 1112.51 1075.35 C 1107.39 1071.84 1098.46 1066.48 1096.4 1060.88 z"/>
<path transform="translate(0,0)" fill="rgb(255,255,255)" d="M 1208.25 912.673 C 1213.19 912.895 1222.59 922.315 1223.27 927.29 C 1218.4 925.552 1208.87 917.989 1208.25 912.673 z"/>
<path transform="translate(0,0)" fill="rgb(255,255,255)" d="M 1130.86 1009.5 C 1134.38 1011.29 1141.45 1021.83 1141.2 1026.1 C 1137.83 1023.04 1131.24 1017.64 1129.5 1013.68 C 1128.84 1012.18 1129.78 1011.56 1130.86 1009.5 z"/>
<path transform="translate(0,0)" fill="rgb(255,255,255)" d="M 1403.41 719.897 L 1404.79 720.21 C 1401.63 727.764 1404.86 721.158 1405.13 726.73 C 1401.9 727.028 1398.67 727.277 1395.43 727.476 L 1392.19 728.088 L 1392.67 727.698 L 1390.55 727.512 L 1390.59 727.178 C 1394.69 723.809 1398.64 722.209 1403.41 719.897 z"/>
<path transform="translate(0,0)" fill="rgb(216,216,215)" d="M 1046.84 1149.17 L 1047.74 1149 C 1052.96 1152.12 1065.21 1159.87 1066.27 1165.79 L 1065.44 1165.9 C 1060.46 1162.34 1050.88 1153.76 1046.84 1149.17 z"/>
<path transform="translate(0,0)" fill="rgb(216,216,215)" d="M 1047.27 1141.9 C 1054.19 1143.6 1067.05 1154.23 1070.9 1160.34 C 1067.03 1159.33 1050.3 1145.36 1047.27 1141.9 z"/>
<path transform="translate(0,0)" fill="rgb(216,216,215)" d="M 996.281 1242.73 C 1001.09 1243.59 1017.06 1256.69 1020 1261.05 L 1018.05 1261.49 C 1013.45 1258.23 999.878 1246.83 996.281 1242.73 z"/>
<path transform="translate(0,0)" fill="rgb(255,255,255)" d="M 1419.69 720.308 C 1423.16 722.212 1429.5 727.62 1430.81 731.492 L 1429.7 733.005 C 1425.51 729.76 1419.59 727.619 1417.76 723.195 L 1419.69 720.308 z"/>
<path transform="translate(0,0)" fill="rgb(255,255,255)" d="M 1231.47 884.447 C 1236.34 887.217 1242.17 893.316 1241.99 899.174 C 1237.56 895.485 1233 892.483 1230.35 887.553 L 1231.47 884.447 z"/>
<path transform="translate(0,0)" fill="rgb(255,255,255)" d="M 1356.7 768.753 C 1360.99 770.372 1369.04 778.464 1369.87 783.244 C 1368.52 783.484 1368.33 783.361 1366.94 783.276 C 1362.98 779.584 1357.92 774.118 1356.7 768.753 z"/>
<path transform="translate(0,0)" fill="rgb(216,216,215)" d="M 1012.73 1215.92 C 1018.09 1218.03 1030.85 1229.27 1033.24 1234.43 C 1029.84 1232.33 1015.37 1220.93 1012.65 1218.46 L 1012.73 1215.92 z"/>
<path transform="translate(0,0)" fill="rgb(255,255,255)" d="M 1062.38 1117.45 C 1063.54 1118.12 1069.92 1125.17 1073.33 1127.54 L 1074.28 1128.2 L 1074.48 1130.31 C 1066.94 1128.16 1058.58 1126.23 1062.38 1117.45 z"/>
<path transform="translate(0,0)" fill="rgb(255,255,255)" d="M 1244.26 872.976 C 1249.5 873.089 1258.83 882.019 1259.23 887.582 C 1256.29 886.772 1245.13 876.123 1244.26 872.976 z"/>
<path transform="translate(0,0)" fill="rgb(216,216,215)" d="M 1009.66 1223.69 C 1014.03 1227.04 1016.75 1228.44 1020.31 1232.76 L 1019.98 1234.35 L 1018.37 1233.89 C 1014.19 1230.61 1014.41 1230.63 1009.1 1229.91 L 1007.64 1229.7 L 1007 1228.23 L 1009.66 1223.69 z"/>
<path transform="translate(0,0)" fill="rgb(255,255,255)" d="M 1334.86 787.58 C 1339.36 789.712 1347.24 796.964 1347.38 802.276 C 1342.35 800.988 1335.46 793.18 1334.86 787.58 z"/>
<path transform="translate(0,0)" fill="rgb(255,255,255)" d="M 976.55 1261.99 L 979.9 1262.46 C 984.456 1266.45 989.32 1271.57 991.444 1277.32 C 987.502 1275.06 977.503 1266.66 976.55 1261.99 z"/>
<path transform="translate(0,0)" fill="rgb(216,216,215)" d="M 1148.86 987.339 C 1150.02 986.663 1149.36 986.813 1150.9 987.138 C 1155.29 991.607 1161.64 995.88 1163.45 1000.99 C 1157.24 998.262 1152.6 993.409 1147.85 988.68 L 1148.86 987.339 z"/>
<path transform="translate(0,0)" fill="rgb(255,255,255)" d="M 1428.23 714.582 C 1432.53 715.569 1440.36 723.649 1440.34 727.999 C 1435.68 725.848 1430.64 721.042 1427.53 716.99 L 1428.23 714.582 z"/>
<path transform="translate(0,0)" fill="rgb(255,255,255)" d="M 1177.18 952.818 C 1183.23 954.511 1190.25 959.958 1191.35 966.424 C 1186.28 963.184 1178.52 958.396 1177.18 952.818 z"/>
<path transform="translate(0,0)" fill="rgb(255,255,255)" d="M 1313.31 805.515 L 1316.33 806.154 C 1321.53 810.34 1324.94 814.353 1327.75 820.414 C 1322.52 819.486 1315.75 809.95 1313.31 805.515 z"/>
<path transform="translate(0,0)" fill="rgb(255,255,255)" d="M 1454.24 698.514 C 1456.31 703.272 1460.79 707.624 1464.32 711.601 L 1463.02 713.106 C 1461.03 711.549 1459.06 709.975 1457.11 708.384 C 1454.32 706.098 1451.43 703.934 1451.04 700.122 L 1454.24 698.514 z"/>
<path transform="translate(0,0)" fill="rgb(255,255,255)" d="M 1321.45 798.518 C 1325.28 800.099 1332.21 810.675 1332.28 815.11 C 1327.46 811.292 1321.09 804.794 1321.45 798.518 z"/>
<path transform="translate(0,0)" fill="rgb(255,255,255)" d="M 1394.87 739.054 C 1398.55 740.239 1408.55 747.026 1409.72 750.995 C 1408.9 751.194 1407.58 751.261 1406.7 751.345 C 1402.86 748.771 1396.41 743.433 1394.87 739.054 z"/>
<path transform="translate(0,0)" fill="rgb(216,216,215)" d="M 1219.98 897.967 C 1224.88 899.99 1232.28 906.162 1235.65 910.48 L 1235.27 913.271 C 1232.71 912.609 1221.44 900.722 1219.98 897.967 z"/>
<path transform="translate(0,0)" fill="rgb(216,216,215)" d="M 1189.81 936.871 C 1193.37 939.984 1201.76 946.737 1202.07 950.924 C 1198.34 948.245 1190.32 943.117 1188.43 939.608 L 1189.81 936.871 z"/>
<path transform="translate(0,0)" fill="rgb(216,216,215)" d="M 1113.29 1034.7 C 1118.09 1035.8 1126.99 1047.08 1130.77 1051.36 C 1124.79 1050.43 1116.72 1039.69 1113.29 1034.7 z"/>
<path transform="translate(0,0)" fill="rgb(216,216,215)" d="M 1165.11 965.741 C 1170.15 966.82 1178.64 975.247 1181.23 979.776 L 1179.15 979.691 C 1174.65 976.722 1168.14 970.199 1165.11 965.741 z"/>
<path transform="translate(0,0)" fill="rgb(255,255,255)" d="M 1201.42 920.886 C 1205.12 921.35 1215.62 930.787 1215.63 933.926 C 1212.68 933.668 1202.19 924.673 1201.42 920.886 z"/>
<path transform="translate(0,0)" fill="rgb(255,255,255)" d="M 1457.31 696.702 C 1464.38 697.857 1468.43 702.894 1472.43 708.311 C 1466.12 707.997 1461.39 701.301 1457.31 696.702 z"/>
<path transform="translate(0,0)" fill="rgb(216,216,215)" d="M 1122.82 1019.75 C 1127.17 1020.95 1136.44 1030.86 1139.17 1034.66 C 1133.29 1033.81 1125.67 1024.83 1122.82 1019.75 z"/>
<path transform="translate(0,0)" fill="rgb(255,255,255)" d="M 1369.27 758.689 C 1375.42 759.564 1380.72 766.102 1381.2 772.25 C 1377.68 770.78 1371.62 762.021 1369.27 758.689 z"/>
<path transform="translate(0,0)" fill="rgb(255,255,255)" d="M 1171.32 959.733 C 1176.41 961.153 1184.91 967.453 1186.18 973.107 C 1181.74 971.319 1174.1 963.805 1171.32 959.733 z"/>
<path transform="translate(0,0)" fill="rgb(255,255,255)" d="M 1159.36 973.748 C 1163.47 974.611 1172.66 983.069 1174.42 987.236 C 1169.28 986.477 1162.24 978.053 1159.36 973.748 z"/>
<path transform="translate(0,0)" fill="rgb(216,216,215)" d="M 1042.32 1156.11 C 1045.79 1155.37 1059.67 1168.94 1063.06 1171.95 C 1060.53 1171.16 1045.38 1159.9 1041.85 1157.39 L 1042.32 1156.11 z"/>
<path transform="translate(0,0)" fill="rgb(255,255,255)" d="M 1083.3 1098.76 C 1088.9 1100.99 1092.17 1104.82 1094.51 1110.19 C 1088.4 1108.02 1084.73 1105.13 1083.3 1098.76 z"/>
<path transform="translate(0,0)" fill="rgb(216,216,215)" d="M 984.068 1259.19 L 985.296 1258.85 C 989.751 1262.53 994.874 1267.34 996.114 1273.11 C 992.549 1269.27 987.942 1265.07 984.102 1261.4 L 984.068 1259.19 z"/>
<path transform="translate(0,0)" fill="rgb(216,216,215)" d="M 1046.92 1173.68 C 1051.37 1174.98 1056.94 1178.81 1059.04 1183 C 1053.9 1184.08 1048.61 1178.25 1046.92 1173.68 z"/>
<path transform="translate(0,0)" fill="rgb(255,255,255)" d="M 1426.63 709.244 L 1426.44 710.448 C 1419.91 715.84 1415.86 717.007 1407.9 718.972 L 1407.88 718.283 C 1410.61 715.879 1422.55 711.045 1426.63 709.244 z"/>
<path transform="translate(0,0)" fill="rgb(216,216,215)" d="M 1214.35 905.979 C 1219.35 907.966 1227.3 913.983 1228.35 919.477 C 1224.99 917.621 1215.65 909.938 1214.35 905.979 z"/>
<path transform="translate(0,0)" fill="rgb(255,255,255)" d="M 1443.37 702.889 C 1448.22 705.185 1454.68 713.13 1456.1 718.325 C 1452.5 715.464 1444.17 707.439 1443.37 702.889 z"/>
<path transform="translate(0,0)" fill="rgb(216,216,215)" d="M 1363.78 763.804 C 1369.46 766.111 1373.45 771.624 1375.55 777.205 C 1370.05 774.79 1366.55 768.896 1363.78 763.804 z"/>
<path transform="translate(0,0)" fill="rgb(216,216,215)" d="M 1066.19 1108.91 C 1070.55 1109.48 1080.21 1119.42 1084.04 1122.97 C 1078.74 1120.16 1068.28 1114.36 1066.19 1108.91 z"/>
<path transform="translate(0,0)" fill="rgb(216,216,215)" d="M 1035.68 1164.85 C 1041.64 1167.61 1045.44 1169.99 1046.22 1176.52 C 1043.02 1173.08 1039.55 1171.34 1035.72 1167.72 L 1035.68 1164.85 z"/>
<path transform="translate(0,0)" fill="rgb(255,255,255)" d="M 1109.18 1040.68 C 1114.85 1041.22 1119.59 1048.07 1123.26 1052.43 C 1118.38 1051.1 1112 1044.93 1109.18 1040.68 z"/>
<path transform="translate(0,0)" fill="rgb(77,71,68)" d="M 1223.83 891.642 C 1230.58 892.949 1235.73 900.243 1240.31 905.473 C 1236.16 904.038 1227.26 894.999 1223.83 891.642 z"/>
<path transform="translate(0,0)" fill="rgb(216,216,215)" d="M 1027.73 1207.87 C 1034.17 1209.64 1036.27 1214.98 1043.2 1219.04 L 1041.12 1219.27 C 1035.4 1216.84 1031.78 1212.44 1027.73 1207.87 z"/>
<path transform="translate(0,0)" fill="rgb(255,255,255)" d="M 1338.11 762.375 C 1345.72 761.256 1348.38 761.105 1356.07 761.274 C 1349.83 763.065 1346.6 764.122 1340.12 764.794 L 1338.11 762.375 z"/>
<path transform="translate(0,0)" fill="rgb(255,255,255)" d="M 1474.93 687.612 C 1476.16 687.761 1477.59 688.143 1478.82 688.421 C 1482.8 691.589 1483.12 692.807 1485.69 697.396 C 1481.3 696.024 1477.64 691.088 1474.93 687.612 z"/>
<path transform="translate(0,0)" fill="rgb(255,255,255)" d="M 1498.37 682.781 L 1500.03 681.785 C 1502.39 684.655 1503.25 685.488 1506.05 687.961 C 1503.86 688.894 1504.03 688.959 1501.73 688.425 C 1499.15 686.131 1499.41 686.15 1498.37 682.781 z"/>
<path transform="translate(0,0)" fill="rgb(3,2,2)" d="M 1009.47 546.443 C 1109.82 542.239 1221.38 583.416 1303.1 640.423 C 1310.86 645.838 1355.19 681.455 1356.34 688.061 C 1352.65 691.563 1345.83 694.746 1341.18 697.095 C 1311.69 711.997 1284.58 729.874 1256.95 747.917 C 1238.36 736.799 1217.54 723.569 1198.67 713.522 C 1160.59 693.542 1119.58 679.74 1077.17 672.633 C 835.901 633.282 611.94 848.738 654.682 1092.75 C 663.474 1142.94 684.707 1200.76 714.526 1242.05 L 713.002 1242.94 C 708.598 1241.38 701.531 1227.94 698.826 1223.29 C 672.709 1177.81 655.837 1127.62 649.183 1075.6 C 635.295 964.933 671.794 876.24 735.823 793.73 C 860.351 633.256 1071.28 612.722 1233.24 727.486 C 1237.96 730.828 1256.08 742.872 1260.33 742.352 L 1260.51 740.581 C 1256.31 736.447 1235.66 722.675 1229.74 718.473 C 1170.18 676.149 1097.86 647.55 1024.06 645.34 C 928.522 643.34 836.086 679.307 767.023 745.355 C 723.937 786.098 671.496 866.246 651.592 921.718 C 618.597 1013.67 636.252 1126.7 681.751 1211.33 C 684.302 1216.07 698.183 1239.99 698.105 1243.05 C 690.689 1238.58 665.221 1184.26 660.527 1172.5 C 627.482 1089.63 619.57 991.167 653.965 907.502 C 666.469 875.287 684.961 848.781 702.919 819.962 C 805.725 654.978 1013.42 590.85 1188.38 687.643 C 1204.63 696.634 1220.44 706.389 1235.77 716.874 C 1244 722.473 1256.52 733.129 1264.8 736.638 C 1267.96 736.317 1266.57 736.892 1269.04 734.686 C 1265.09 727.756 1224.12 700.766 1214.59 694.77 C 1150.32 654.315 1078.6 630.663 1002.14 633.424 C 900.566 637.09 807.987 679.526 740.321 755.708 C 704.828 796.052 664.065 855.609 643.743 905.834 C 610.972 986.828 616.882 1087.93 648.229 1168.51 C 654.343 1184.23 661.486 1200.2 669.344 1215.16 C 672.387 1220.99 685.006 1239.58 685.239 1244.24 L 683.632 1243.68 C 630.176 1166.65 607.995 1055.96 624.166 963.727 C 628.338 940.813 635.09 918.444 644.294 897.048 C 665.355 848.46 713.416 778.57 750.487 740.815 C 767.513 723.689 786.017 708.101 805.785 694.23 C 892.556 633.369 1014.49 613.336 1116.06 644.201 C 1172.63 661.39 1224.82 692.562 1270.91 729.113 C 1272.35 730.259 1273.61 730.507 1275.36 730.811 C 1278 729.477 1277.26 730.504 1278.08 728.029 C 1262.11 711.926 1224.73 686.253 1204.79 674.776 C 1112.14 621.446 1017.39 606.216 914.047 634.692 C 790.594 668.71 715.372 748.971 653.882 857.047 C 642.764 876.588 631.995 897.51 625.595 919.108 C 601.977 998.813 605.499 1088.89 634.003 1166.39 C 639.742 1181.96 646.37 1197.2 653.855 1212.02 C 658.588 1221.21 668.118 1234.94 670.524 1243.76 C 659.74 1232.97 645.545 1202.22 639.33 1187.6 C 608.282 1114.77 599.306 1034.43 613.517 956.541 C 624.128 898.575 643.663 868.217 673.064 820.447 C 729.302 728.28 806.643 662.582 910.72 632.592 C 1033.06 597.34 1150.35 624.971 1251.62 700.111 C 1258.97 705.568 1277.12 722.528 1284.82 723.944 C 1287.16 722.531 1286.57 723.521 1287.14 721.246 C 1269.32 702.396 1228.4 674.442 1205.05 661.42 C 1112.03 609.568 1017.37 594.257 914.366 622.033 C 790.478 652.974 707.018 738.558 645.129 846.901 C 591.269 941.186 584.737 1060.02 620.741 1162.53 C 626.846 1179.4 633.803 1195.95 641.585 1212.12 C 646.445 1222.01 655.083 1235 657.616 1244.37 C 653.672 1242.76 646.217 1227.78 644.074 1223.69 C 592.76 1125.85 580.999 1013.25 613.986 907.596 C 625.357 871.176 644.103 842.741 664.123 811.12 C 709.318 739.737 762.037 685.255 838.436 646.993 C 958.758 586.211 1102.01 592.283 1216.76 663.029 C 1234.14 673.533 1251.19 685.025 1267.18 697.572 C 1271.7 701.12 1289.98 717.496 1293.55 718.678 L 1296.57 716.892 C 1296.98 711.982 1268.64 690.825 1262.79 686.336 C 1203.86 641.294 1137.79 609.164 1063.73 599.239 C 955.344 584.715 850.887 618.247 764.557 682.859 C 761.825 684.863 759.16 686.956 756.567 689.136 C 713.246 724.965 686.029 757.114 656.322 804.597 C 638.731 831.747 620.578 861.496 609.375 892.026 C 569.028 1001.97 582.18 1127.49 636.925 1230.16 C 638.76 1233.61 643.715 1241.1 643.376 1244.65 L 641.794 1244.05 C 635.715 1235.99 626.693 1216.15 622.256 1206.43 C 590.209 1137.32 577.443 1060.83 585.307 985.056 C 588.597 954.676 594.871 923.085 605.311 894.311 C 616.331 861.279 635.243 834.328 652.721 805.064 C 770.718 607.497 1022.64 526.119 1226.26 655.34 C 1246.71 668.432 1266.34 682.756 1285.05 698.232 C 1290.73 702.93 1297.68 711.539 1304.01 712.229 C 1307.07 710.67 1306.31 711.82 1307.19 709.266 C 1282.44 683.374 1224.52 643.699 1192.67 627.012 C 1100.16 578.975 992.257 569.992 893.075 602.072 C 763.026 643.001 677.068 731.291 614.488 849.96 C 564.519 944.715 561.482 1062.57 595.069 1163.39 C 600.561 1180.11 607.07 1196.48 614.559 1212.41 C 618.825 1221.63 626.885 1237.15 629.635 1245.85 C 624.259 1240.6 616.844 1224.07 613.49 1216.97 C 589.395 1165.89 575.028 1112.35 571.263 1056.24 C 565.158 965.242 584.681 885.739 634.732 809.397 C 652.669 782.038 670.14 754.508 692.25 729.433 C 769.767 641.339 879.046 587.568 996.139 579.905 C 1033.83 577.589 1054.84 581.544 1090.21 587.739 C 1171.64 601.405 1244.26 645.838 1304.63 700.644 C 1308.2 703.886 1315.1 710.064 1318.59 702.527 C 1291.48 675.018 1228.21 630.645 1194.04 613.27 C 1097.86 564.372 990.509 556.117 887.799 590.459 C 756.157 634.474 666.101 723.855 603.841 845.617 C 554.632 941.855 549.833 1061.3 581.201 1163.66 C 586.697 1181 593.046 1198.06 600.225 1214.78 C 603.976 1223.31 609.657 1233.43 612.437 1241.93 L 611.932 1242.47 C 605.983 1235.78 602.619 1227.39 598.995 1219.35 C 550.325 1111.3 544.287 985.272 587.516 874.432 C 602.576 835.819 626.969 798.906 650.503 764.322 C 718.09 664.997 830.726 591.351 949.946 571.754 C 1027.46 558.953 1107.03 569.062 1178.88 600.842 C 1232.81 625.322 1276.57 659.303 1320.8 697.548 C 1323.11 699.548 1324.84 700.033 1327.67 699.561 L 1328.55 698.136 C 1324.64 692.721 1319.24 688.032 1314.3 683.58 C 1222.87 600.585 1117.88 551.323 992.084 559.104 C 807.397 570.527 653.785 698.161 582.147 864.811 C 545.649 949.716 542.146 1050.85 562.923 1139.97 C 569.845 1169.67 581.364 1198.76 592.773 1226.99 C 594.449 1231.11 598.946 1238.6 599.172 1242.05 L 598.32 1242.6 C 588.503 1233.23 567.01 1166.86 562.878 1150.77 C 532.869 1033.93 545.374 913.533 607.128 809.085 C 677.377 690.269 775.099 604.495 910.287 569.321 C 1058.89 530.658 1198.4 572.235 1310.5 673.938 C 1315.75 678.685 1328.81 691.506 1333.77 694.426 C 1337.28 694.38 1335.56 694.763 1338.91 692.545 L 1338.55 691.096 C 1301.14 650.49 1225.81 598.076 1174.71 577.745 C 1142.59 564.962 1106.49 556.741 1072.23 552.326 C 966.816 538.741 835.58 570.578 751.038 635.974 C 591.707 759.222 503.61 937.073 550.972 1139.12 C 555.046 1156.78 560.085 1174.2 566.066 1191.31 C 569.556 1201.44 573.317 1211.48 577.346 1221.41 C 579.358 1226.26 586.42 1240.25 585.921 1244.17 C 580.898 1240.6 572.898 1217.52 570.263 1210.89 C 544.503 1146 533.448 1080.84 536.335 1011.26 C 539.91 925.061 566.055 845.92 615.809 775.427 C 641.792 737.543 659.079 715.038 692.412 681.979 C 701.801 672.668 711.646 663.828 721.91 655.491 C 728.857 649.941 738.296 643.299 744.611 637.468 C 733.241 642.268 714.964 657.728 704.783 665.667 C 653.942 705.314 623.74 755.853 587.422 807.534 C 587.518 803.069 593.911 794.863 596.449 790.418 C 679.655 644.705 842.248 553.365 1009.47 546.443 z"/>
<path transform="translate(0,0)" fill="rgb(255,255,255)" d="M 779.532 750.548 C 796.744 734.471 820.551 716.71 840.707 704.673 C 906.925 665.292 984.744 650.078 1060.92 661.619 C 1085.16 665.297 1099.21 670.086 1122.08 675.85 L 1118.13 677.408 C 1102.87 671.964 1084.08 669.272 1068 667.324 C 998.657 658.375 928.196 669.245 864.773 698.676 C 833.934 713.269 806.245 730.247 780.288 752.422 L 779.532 750.548 z"/>
<path transform="translate(0,0)" fill="url(#Gradient2)" d="M 1235.27 604.916 C 1250.1 606.62 1347.74 675.021 1349.45 688.053 L 1346.09 689.595 C 1341.5 689.277 1329.24 674.724 1324.66 670.648 C 1296.79 645.836 1266.58 625.058 1235.27 604.916 z"/>
<path transform="translate(0,0)" fill="rgb(121,116,111)" d="M 1122.08 675.85 C 1125.6 676.93 1157.2 687.529 1158.12 689.167 C 1155.1 689.05 1126.18 679.351 1118.13 677.408 L 1122.08 675.85 z"/>
<path transform="translate(0,0)" fill="rgb(178,173,165)" d="M 779.532 750.548 L 780.288 752.422 C 774.267 757.951 768.76 762.918 762.467 768.123 C 764.161 764.409 775.875 753.697 779.532 750.548 z"/>
<path transform="translate(0,0)" fill="rgb(3,2,2)" d="M 1321.55 1248.88 C 1323.9 1249.04 1323.59 1249.03 1325.86 1249.61 L 1325.82 1251.56 C 1323.36 1255.7 1312.78 1266.19 1308.71 1270.37 C 1258.7 1321.82 1191.41 1363.99 1123.76 1386.72 C 1054.75 1409.74 980.013 1408.99 911.474 1384.59 C 891.985 1377.73 875.07 1369.55 856.622 1360.39 C 839.36 1351.27 822.933 1340.66 807.53 1328.66 C 825.415 1327.32 855.598 1328.3 874.455 1328.35 C 917.531 1328.63 960.608 1328.67 1003.68 1328.48 L 1142.64 1328.24 C 1167.81 1328.13 1206.12 1326.88 1230.24 1329.2 C 1264.22 1306.75 1294.95 1279.72 1321.55 1248.88 z"/>
<path transform="translate(0,0)" fill="rgb(255,255,255)" d="M 825.995 1339.02 C 869.12 1338.16 914.89 1339.02 958.322 1339.07 L 1176.04 1339.87 C 1173.4 1340.44 1169.86 1341.1 1167.37 1341.87 C 1091.21 1342.87 1015.23 1342.8 939.142 1343.72 C 921.525 1343.94 876.726 1342.97 861.514 1344.89 L 863.212 1344.88 L 863.183 1345.46 C 877.988 1347.27 896.297 1346.87 911.36 1346.75 L 980 1346.07 L 1203.8 1346.03 C 1188.5 1353.87 1158.35 1350.97 1140.13 1350.98 L 1035.13 1350.99 C 1019.58 1350.93 993.301 1349.37 979.654 1354.27 C 1048 1355.8 1118.35 1354.71 1187.1 1355.38 C 1166.79 1366.55 1119.74 1384.71 1096.71 1390 C 991.747 1414.11 914.837 1391.8 825.995 1339.02 z"/>
<path transform="translate(0,0)" fill="rgb(3,2,2)" d="M 899.745 1351.47 C 921.181 1351.15 957.392 1350.36 979.9 1351.04 C 980.601 1351.58 981.302 1352.12 982.003 1352.66 L 981.404 1353.84 C 976.434 1355.3 961.503 1354.51 955.75 1354.42 C 942.974 1354.41 881.904 1354.96 874.081 1352.86 C 881.643 1351.57 891.88 1351.66 899.745 1351.47 z"/>
<path transform="translate(0,0)" fill="rgb(255,255,255)" d="M 815.844 1332.22 C 840.419 1330.78 879.689 1332.16 905.817 1332.13 C 973.708 1331.92 1041.6 1332.09 1109.49 1332.65 C 1135.04 1332.75 1160.66 1332.75 1186.21 1332.88 C 1192.28 1332.91 1219.88 1332.18 1223.25 1334.43 C 1217.65 1336.86 1186.99 1336.05 1179.12 1336.07 L 1079.95 1336.19 L 897.88 1336.25 C 873.537 1336.19 848.935 1336.18 824.571 1336.42 C 821.32 1336.46 818.585 1334.12 815.844 1332.22 z"/>
<path transform="translate(0,0)" fill="rgb(178,173,165)" d="M 1176.04 1339.87 C 1185.39 1338.99 1201.2 1339.79 1210.68 1340.35 L 1210.83 1340.86 C 1199.27 1342.73 1179.46 1342.28 1167.37 1341.87 C 1169.86 1341.1 1173.4 1340.44 1176.04 1339.87 z"/>
<path transform="translate(0,0)" fill="rgb(77,71,68)" d="M 539.757 1508.95 L 538.931 1504.64 C 546.744 1503.2 568.109 1503.79 577.178 1503.79 L 651.292 1503.89 L 796.356 1504.88 C 837.7 1504.9 879.156 1504.57 920.489 1505.11 C 925.806 1505.18 932.85 1505.4 937.894 1506.95 L 938.914 1507.9 L 937.219 1509.34 L 942.429 1510.91 C 952.518 1513.46 981.393 1514.76 993.075 1516.5 C 998.246 1517.27 1007.56 1516.49 1013.54 1517.82 C 1030.31 1518.3 1046.15 1517.16 1062.49 1517.43 C 1065.16 1515.39 1068.74 1513.84 1071.81 1512.3 C 1082.16 1509.68 1097.11 1510.26 1108.08 1510.34 L 1128.1 1510.99 C 1130.33 1511.9 1131.75 1512 1132.9 1513.63 C 1131.83 1515.74 1131.88 1515.01 1131.72 1517.19 C 1144.37 1516.52 1157.04 1516.22 1169.7 1516.29 L 1168.53 1516.61 C 1166.95 1517.02 1165.71 1517.26 1164.13 1517.56 C 1169.51 1520.6 1187.96 1519.15 1188.6 1519.49 L 1188.58 1521.25 L 1188.71 1519.49 L 1186.33 1520.41 L 1190.42 1521.91 C 1157.31 1523.02 1111.84 1522.47 1078.23 1521.71 C 1032.87 1522.14 987.503 1522.19 942.14 1521.85 C 921.511 1522.98 891.12 1522.03 869.886 1522.03 L 737.248 1521.91 L 590.307 1521.97 C 582.661 1522.03 543.077 1523.32 539.332 1520.57 C 538.647 1517.09 539.067 1516.26 539.873 1512.88 L 540.628 1510.02 L 539.757 1508.95 z"/>
<path transform="translate(0,0)" fill="rgb(77,71,68)" d="M 909.341 1509.7 C 920.369 1509.86 931.463 1509.81 942.429 1510.91 C 952.518 1513.46 981.393 1514.76 993.075 1516.5 C 998.246 1517.27 1007.56 1516.49 1013.54 1517.82 C 1030.31 1518.3 1046.15 1517.16 1062.49 1517.43 C 1065.16 1515.39 1068.74 1513.84 1071.81 1512.3 C 1082.16 1509.68 1097.11 1510.26 1108.08 1510.34 L 1128.1 1510.99 C 1130.33 1511.9 1131.75 1512 1132.9 1513.63 C 1131.83 1515.74 1131.88 1515.01 1131.72 1517.19 C 1144.37 1516.52 1157.04 1516.22 1169.7 1516.29 L 1168.53 1516.61 C 1166.95 1517.02 1165.71 1517.26 1164.13 1517.56 C 1169.51 1520.6 1187.96 1519.15 1188.6 1519.49 L 1188.58 1521.25 L 1188.71 1519.49 L 1186.33 1520.41 L 1190.42 1521.91 C 1157.31 1523.02 1111.84 1522.47 1078.23 1521.71 C 1032.87 1522.14 987.503 1522.19 942.14 1521.85 C 921.511 1522.98 891.12 1522.03 869.886 1522.03 L 737.248 1521.91 C 729.464 1519.89 726.649 1520.03 718.455 1519.83 C 720.885 1519.42 721.237 1519.42 723.492 1518.5 C 718.317 1518.34 713.143 1518.14 707.97 1517.92 C 696.588 1518.09 684.629 1517.84 673.202 1517.76 L 667.228 1515.87 L 667.381 1514.91 C 670.044 1513.45 673.737 1513.88 677.076 1513.84 C 692.399 1514.46 706.785 1512.52 721.997 1512.61 L 854.507 1513.88 C 859.33 1513.91 892.883 1514.99 896.306 1513.58 C 905.221 1509.92 917.972 1511.81 929.127 1511.52 C 920.341 1510.14 901.833 1511.3 891.439 1510.82 C 896.588 1509.57 903.871 1509.79 909.341 1509.7 z"/>
<path transform="translate(0,0)" fill="rgb(178,173,165)" d="M 909.341 1509.7 C 920.369 1509.86 931.463 1509.81 942.429 1510.91 C 952.518 1513.46 981.393 1514.76 993.075 1516.5 C 998.246 1517.27 1007.56 1516.49 1013.54 1517.82 C 1004.4 1518.34 995.2 1517.49 985.539 1518.09 C 957.428 1516.83 927.74 1519.42 899.958 1517.85 C 852.278 1515.17 805.113 1516.33 757.384 1515.77 C 749.395 1515.68 740.446 1515.26 732.557 1515.95 C 723.748 1517.75 716.292 1516.5 707.97 1517.92 C 696.588 1518.09 684.629 1517.84 673.202 1517.76 L 667.228 1515.87 L 667.381 1514.91 C 670.044 1513.45 673.737 1513.88 677.076 1513.84 C 692.399 1514.46 706.785 1512.52 721.997 1512.61 L 854.507 1513.88 C 859.33 1513.91 892.883 1514.99 896.306 1513.58 C 905.221 1509.92 917.972 1511.81 929.127 1511.52 C 920.341 1510.14 901.833 1511.3 891.439 1510.82 C 896.588 1509.57 903.871 1509.79 909.341 1509.7 z"/>
<path transform="translate(0,0)" fill="rgb(3,2,2)" d="M 667.228 1515.87 C 688.993 1516.34 711.181 1515.36 732.557 1515.95 C 723.748 1517.75 716.292 1516.5 707.97 1517.92 C 696.588 1518.09 684.629 1517.84 673.202 1517.76 L 667.228 1515.87 z"/>
<path transform="translate(0,0)" fill="rgb(77,71,68)" d="M 896.109 1514.45 C 901.541 1513.72 938.246 1513.01 941.029 1515.54 C 934.61 1516.88 902.624 1516.73 896.109 1514.45 z"/>
<path transform="translate(0,0)" fill="url(#Gradient1)" d="M 1108.08 1510.34 L 1128.1 1510.99 C 1130.33 1511.9 1131.75 1512 1132.9 1513.63 C 1131.83 1515.74 1131.88 1515.01 1131.72 1517.19 C 1144.37 1516.52 1157.04 1516.22 1169.7 1516.29 L 1168.53 1516.61 C 1166.95 1517.02 1165.71 1517.26 1164.13 1517.56 C 1169.51 1520.6 1187.96 1519.15 1188.6 1519.49 L 1188.58 1521.25 L 1188.71 1519.49 L 1186.33 1520.41 L 1190.42 1521.91 C 1157.31 1523.02 1111.84 1522.47 1078.23 1521.71 C 1084.06 1519.05 1111.37 1522.55 1117.2 1519.8 L 1118.81 1519.97 C 1116.26 1519.38 1095.6 1518.5 1090.98 1518.08 C 1082.79 1517.92 1073.72 1517.96 1065.65 1517.14 L 1062.49 1517.43 C 1065.16 1515.39 1068.74 1513.84 1071.81 1512.3 C 1082.16 1509.68 1097.11 1510.26 1108.08 1510.34 z"/>
<path transform="translate(0,0)" fill="rgb(77,71,68)" d="M 1131.72 1517.19 C 1144.37 1516.52 1157.04 1516.22 1169.7 1516.29 L 1168.53 1516.61 C 1166.95 1517.02 1165.71 1517.26 1164.13 1517.56 C 1169.51 1520.6 1187.96 1519.15 1188.6 1519.49 L 1188.58 1521.25 L 1188.71 1519.49 L 1186.33 1520.41 L 1190.42 1521.91 C 1157.31 1523.02 1111.84 1522.47 1078.23 1521.71 C 1084.06 1519.05 1111.37 1522.55 1117.2 1519.8 L 1118.81 1519.97 C 1116.26 1519.38 1095.6 1518.5 1090.98 1518.08 C 1100.02 1517.34 1125.09 1519.26 1131.72 1517.19 z"/>
<path transform="translate(0,0)" fill="rgb(216,216,215)" d="M 1062.49 1517.43 C 1065.16 1515.39 1068.74 1513.84 1071.81 1512.3 C 1076.63 1514.19 1080.28 1515.25 1085.2 1516.65 C 1080.49 1516.69 1069.81 1516.52 1065.65 1517.14 L 1062.49 1517.43 z"/>
<path transform="translate(0,0)" fill="rgb(3,2,2)" d="M 1062.49 1517.43 L 1065.65 1517.14 C 1073.72 1517.96 1082.79 1517.92 1090.98 1518.08 C 1095.6 1518.5 1116.26 1519.38 1118.81 1519.97 L 1117.2 1519.8 C 1111.37 1522.55 1084.06 1519.05 1078.23 1521.71 C 1032.87 1522.14 987.503 1522.19 942.14 1521.85 C 931.474 1520.53 896.183 1522.01 889.887 1519.78 C 910.492 1517.85 931.401 1519.06 952.051 1519.11 C 962.143 1519.13 975.809 1519.75 985.539 1518.09 C 995.2 1517.49 1004.4 1518.34 1013.54 1517.82 C 1030.31 1518.3 1046.15 1517.16 1062.49 1517.43 z"/>
<path transform="translate(0,0)" fill="rgb(3,2,2)" d="M 539.757 1508.95 L 538.931 1504.64 C 546.744 1503.2 568.109 1503.79 577.178 1503.79 L 651.292 1503.89 L 796.356 1504.88 C 837.7 1504.9 879.156 1504.57 920.489 1505.11 C 925.806 1505.18 932.85 1505.4 937.894 1506.95 L 938.914 1507.9 L 937.219 1509.34 L 942.429 1510.91 C 931.463 1509.81 920.369 1509.86 909.341 1509.7 C 903.871 1509.79 896.588 1509.57 891.439 1510.82 C 872.916 1512.03 703.939 1511.63 699.635 1508.48 C 687.325 1507.55 542.663 1507.61 539.757 1508.95 z"/>
<path transform="translate(0,0)" fill="rgb(255,255,255)" d="M 700.493 1506.83 C 764.671 1508.1 830.478 1506.41 893.723 1508.15 C 897.69 1508.61 906.499 1508.9 909.341 1509.7 C 903.871 1509.79 896.588 1509.57 891.439 1510.82 C 872.916 1512.03 703.939 1511.63 699.635 1508.48 L 700.493 1506.83 z"/>
<path transform="translate(0,0)" fill="rgb(216,216,215)" d="M 539.757 1508.95 L 538.931 1504.64 C 550.076 1509.77 648.722 1503.4 670.407 1505.9 C 678.198 1506.79 691.763 1504.84 700.493 1506.83 L 699.635 1508.48 C 687.325 1507.55 542.663 1507.61 539.757 1508.95 z"/>
<path transform="translate(0,0)" fill="rgb(255,255,255)" d="M 893.723 1508.15 C 908.585 1508.06 924.13 1508.23 938.914 1507.9 L 937.219 1509.34 L 942.429 1510.91 C 931.463 1509.81 920.369 1509.86 909.341 1509.7 C 906.499 1508.9 897.69 1508.61 893.723 1508.15 z"/>
<path transform="translate(0,0)" fill="rgb(96,85,81)" d="M 539.873 1512.88 C 563.249 1512.89 586.625 1513.07 609.999 1513.39 C 630.548 1513.7 649.738 1514.49 670.237 1512.64 L 677.076 1513.84 C 673.737 1513.88 670.044 1513.45 667.381 1514.91 L 667.228 1515.87 L 673.202 1517.76 C 684.629 1517.84 696.588 1518.09 707.97 1517.92 C 713.143 1518.14 718.317 1518.34 723.492 1518.5 C 721.237 1519.42 720.885 1519.42 718.455 1519.83 C 726.649 1520.03 729.464 1519.89 737.248 1521.91 L 590.307 1521.97 C 582.661 1522.03 543.077 1523.32 539.332 1520.57 C 538.647 1517.09 539.067 1516.26 539.873 1512.88 z"/>
<path transform="translate(0,0)" fill="rgb(35,34,32)" d="M 673.202 1517.76 C 684.629 1517.84 696.588 1518.09 707.97 1517.92 C 713.143 1518.14 718.317 1518.34 723.492 1518.5 C 721.237 1519.42 720.885 1519.42 718.455 1519.83 C 726.649 1520.03 729.464 1519.89 737.248 1521.91 L 590.307 1521.97 C 587.171 1521.3 587.551 1521.58 584.753 1520.26 C 597.282 1519.96 609.787 1519.32 622.321 1519.19 C 634.249 1519.07 650.047 1520.52 661.675 1519.34 C 664.507 1518.43 670.063 1518.07 673.202 1517.76 z"/>
<path transform="translate(0,0)" fill="rgb(121,116,111)" d="M 673.202 1517.76 C 684.629 1517.84 696.588 1518.09 707.97 1517.92 C 713.143 1518.14 718.317 1518.34 723.492 1518.5 C 721.237 1519.42 720.885 1519.42 718.455 1519.83 C 700.841 1519.09 678.647 1521.29 661.675 1519.34 C 664.507 1518.43 670.063 1518.07 673.202 1517.76 z"/>
<path transform="translate(0,0)" fill="rgb(216,216,215)" d="M 540.628 1510.02 C 573.624 1509.73 607.501 1510.2 640.506 1510.67 C 652.461 1510.84 685.602 1508.98 695.542 1510.81 C 687.773 1512.18 678.297 1512.23 670.237 1512.64 C 649.738 1514.49 630.548 1513.7 609.999 1513.39 C 586.625 1513.07 563.249 1512.89 539.873 1512.88 L 540.628 1510.02 z"/>
<path transform="translate(0,0)" fill="rgb(255,255,255)" d="M 1504.17 1504.69 C 1503.93 1507.52 1503.92 1507.53 1502.97 1510.21 L 1503.17 1511.08 C 1503.2 1512.28 1503.34 1514.72 1503.24 1515.8 L 1503.51 1520.03 C 1498.75 1524.13 1469.76 1521.77 1461.9 1521.78 L 1360.43 1521.92 L 1250.79 1522.09 C 1232.39 1522.11 1208.46 1523.35 1190.42 1521.91 L 1186.33 1520.41 L 1188.71 1519.49 L 1188.58 1521.25 L 1188.6 1519.49 C 1187.96 1519.15 1169.51 1520.6 1164.13 1517.56 C 1165.71 1517.26 1166.95 1517.02 1168.53 1516.61 L 1169.7 1516.29 C 1157.04 1516.22 1144.37 1516.52 1131.72 1517.19 C 1131.88 1515.01 1131.83 1515.74 1132.9 1513.63 C 1131.75 1512 1130.33 1511.9 1128.1 1510.99 L 1108.08 1510.34 L 1109.24 1506.54 L 1109.47 1505.53 C 1112.76 1504.39 1120.78 1504.19 1124.48 1504.18 C 1209.91 1503.97 1295.45 1504.14 1380.87 1504.1 L 1461.79 1503.97 C 1472.44 1503.94 1494.67 1503.31 1504.17 1504.69 z"/>
<path transform="translate(0,0)" fill="rgb(96,85,81)" d="M 1169.7 1516.29 C 1202.75 1515.99 1235.81 1515.86 1268.86 1515.9 C 1284.91 1515.87 1321.62 1513.81 1335.09 1519.14 L 1333.3 1520.69 C 1341.6 1521.21 1364.62 1521.78 1372.2 1520.69 L 1372.85 1519.81 L 1371.88 1518 C 1379.74 1515.62 1427.69 1516.64 1439.48 1516.58 L 1503.24 1515.8 L 1503.51 1520.03 C 1498.75 1524.13 1469.76 1521.77 1461.9 1521.78 L 1360.43 1521.92 L 1250.79 1522.09 C 1232.39 1522.11 1208.46 1523.35 1190.42 1521.91 L 1186.33 1520.41 L 1188.71 1519.49 L 1188.58 1521.25 L 1188.6 1519.49 C 1187.96 1519.15 1169.51 1520.6 1164.13 1517.56 C 1165.71 1517.26 1166.95 1517.02 1168.53 1516.61 L 1169.7 1516.29 z"/>
<path transform="translate(0,0)" fill="rgb(178,173,165)" d="M 1503.17 1511.08 C 1503.2 1512.28 1503.34 1514.72 1503.24 1515.8 L 1439.48 1516.58 C 1427.69 1516.64 1379.74 1515.62 1371.88 1518 L 1372.85 1519.81 L 1372.2 1520.69 C 1364.62 1521.78 1341.6 1521.21 1333.3 1520.69 L 1335.09 1519.14 C 1321.62 1513.81 1284.91 1515.87 1268.86 1515.9 C 1235.81 1515.86 1202.75 1515.99 1169.7 1516.29 C 1157.04 1516.22 1144.37 1516.52 1131.72 1517.19 C 1131.88 1515.01 1131.83 1515.74 1132.9 1513.63 C 1140.23 1514.2 1154.86 1513.63 1162.89 1513.53 C 1182.32 1513.12 1201.76 1512.93 1221.2 1512.97 L 1433.07 1512.14 C 1442.02 1512.06 1498.93 1513.06 1503.17 1511.08 z"/>
<path transform="translate(0,0)" fill="rgb(3,2,2)" d="M 1109.24 1506.54 L 1109.47 1505.53 C 1112.76 1504.39 1120.78 1504.19 1124.48 1504.18 C 1209.91 1503.97 1295.45 1504.14 1380.87 1504.1 L 1461.79 1503.97 C 1472.44 1503.94 1494.67 1503.31 1504.17 1504.69 C 1501.41 1507.21 1502.04 1506.88 1497.29 1506.89 C 1470.32 1506.98 1443.26 1506.97 1416.29 1506.98 L 1256.67 1507.06 L 1158.46 1507.01 C 1151.17 1507.02 1113.77 1508.14 1109.24 1506.54 z"/>
<path transform="translate(0,0)" fill="rgb(77,71,68)" d="M 1128.1 1510.99 C 1253.05 1509.9 1378.02 1509.64 1502.97 1510.21 L 1503.17 1511.08 C 1498.93 1513.06 1442.02 1512.06 1433.07 1512.14 L 1221.2 1512.97 C 1201.76 1512.93 1182.32 1513.12 1162.89 1513.53 C 1154.86 1513.63 1140.23 1514.2 1132.9 1513.63 C 1131.75 1512 1130.33 1511.9 1128.1 1510.99 z"/>
<path transform="translate(0,0)" fill="rgb(3,2,2)" d="M 1390.21 1335.92 C 1323.32 1406.13 1231.95 1464 1138.34 1491.43 C 1107.22 1500.55 1056.84 1506.37 1024.45 1506.99 C 896.523 1509.46 797.534 1470.99 704.869 1382.37 C 671.605 1350.56 646.993 1319.75 622.257 1280.77 C 617.792 1273.73 609.597 1262.23 606.52 1255.03 L 607.203 1253.82 C 610.644 1255.54 619.187 1270.49 621.696 1274.62 C 671.85 1357.67 757.242 1438.07 847.605 1474.72 C 940.374 1512.34 1065.99 1512.69 1159.58 1480.11 C 1266.99 1442.72 1360.4 1371.81 1431.23 1283.81 C 1435.89 1278.02 1454.55 1250.64 1458.72 1249.33 L 1459.39 1250.05 C 1456.11 1258.02 1451.3 1263.1 1447.04 1270.3 C 1388.41 1369.43 1291.61 1442.6 1185.37 1484.39 C 1181.19 1486.04 1175.07 1488.52 1170.75 1488.27 C 1173.47 1485.3 1179.2 1485.7 1183.5 1483.12 C 1191.66 1478.21 1200.61 1473.92 1209.26 1469.85 C 1275.77 1438.55 1342.74 1394.19 1391.46 1338.5 L 1390.21 1335.92 z"/>
<path transform="translate(0,0)" fill="rgb(216,216,215)" d="M 1414.29 1309.95 L 1415.13 1311.33 C 1407.55 1320.06 1399.23 1330.09 1391.46 1338.5 L 1390.21 1335.92 C 1398.32 1327.34 1406.35 1318.69 1414.29 1309.95 z"/>
<path transform="translate(0,0)" fill="rgb(121,116,111)" d="M 1414.29 1309.95 C 1416.67 1307.11 1417.24 1305.43 1420.22 1304.3 C 1419.22 1307.52 1417.46 1308.88 1415.13 1311.33 L 1414.29 1309.95 z"/>
<path transform="translate(0,0)" fill="rgb(3,2,2)" d="M 1444.24 1248.21 C 1446.86 1248.58 1445.99 1248.16 1448.01 1249.75 C 1439.58 1263.48 1425.38 1280.42 1414.9 1292.94 C 1292.91 1438.69 1111.61 1527.77 920.518 1488.03 C 892.853 1482.4 865.87 1473.83 840.027 1462.47 C 778.577 1434.72 715.081 1381.55 672.323 1329.87 C 654.245 1308.02 636.907 1281.27 621.312 1257.45 L 620.138 1254.94 L 620.757 1253.39 C 624.137 1255.05 643.167 1285.64 646.986 1291.21 C 670.253 1326.1 697.73 1355.76 728.54 1384.08 C 924.389 1564.09 1201.23 1508.47 1377.42 1327.51 C 1392.68 1311.81 1407.19 1295.4 1420.91 1278.34 C 1427 1270.66 1437.13 1255.9 1443.04 1249.49 L 1444.24 1248.21 z"/>
<path transform="translate(0,0)" fill="rgb(3,2,2)" d="M 1427.08 1249.92 C 1430.01 1249.87 1429.9 1249.81 1432.68 1250.67 C 1385.91 1313.03 1341.81 1358.03 1276.57 1402.13 C 1172.9 1472.76 1048.96 1504.09 924.897 1477.59 C 798.23 1450.53 706.006 1364.82 636.909 1259.65 C 636.281 1258.68 635.361 1256.8 634.783 1255.71 L 636.096 1255.35 C 645.31 1265.53 665.017 1295.09 675.166 1308.44 C 706.508 1349.7 744.336 1385.6 787.178 1414.74 C 1003.8 1565.15 1288.31 1450.61 1427.08 1249.92 z"/>
<path transform="translate(0,0)" fill="rgb(3,2,2)" d="M 1413.21 1249.51 L 1416.92 1250.21 L 1417.38 1251.07 C 1313.53 1400.48 1117.3 1507.59 933.734 1467.32 C 810.015 1440.17 718.35 1360.97 649.918 1257.69 L 648.307 1255.13 L 648.919 1253.89 C 653.481 1256.93 689.819 1308.1 697.872 1317.5 C 725.043 1349.06 755.971 1377.19 789.967 1401.25 C 958.078 1520.02 1172.45 1479.89 1319.83 1349.46 C 1352.17 1320.83 1388.29 1284.77 1413.21 1249.51 z"/>
<path transform="translate(0,0)" fill="rgb(3,2,2)" d="M 1399.26 1249.28 L 1402.35 1250.56 C 1401.68 1255.38 1389.04 1268.31 1385.52 1272.53 C 1278.28 1400.76 1117.5 1488.25 947.032 1457.02 C 848.221 1438.91 768.138 1384.51 703.128 1309.01 C 689.06 1292.62 676.656 1274.2 664.375 1256.46 L 662.639 1253.48 L 664.042 1252.95 C 674.517 1263.59 686.635 1283.77 696.419 1296.07 C 784.128 1406.32 909.18 1472.06 1052.24 1457.85 C 1145.11 1448.63 1229.53 1407.9 1301.81 1349.23 C 1338.72 1319.27 1368.96 1285.61 1399.26 1249.28 z"/>
<path transform="translate(0,0)" fill="rgb(3,2,2)" d="M 1381.83 1250.02 C 1385.05 1249.89 1385.13 1249.68 1388.11 1250.71 C 1352.86 1293.62 1319.4 1329.34 1273.48 1362.16 C 1180.6 1428.55 1075 1464.45 960.407 1446.51 C 864.272 1431.45 787.997 1383.55 722.678 1312.32 C 708.466 1296.82 694.199 1276.92 681.992 1259.88 C 680.358 1257.56 678.945 1256.12 678.631 1253.34 C 681.101 1253.81 686.828 1261.92 688.465 1264.23 C 727.06 1318.67 771.237 1361.69 828.869 1396.27 C 999.684 1498.74 1206.64 1436.79 1338.24 1300.19 C 1353.5 1284.35 1369.06 1268 1381.83 1250.02 z"/>
<path transform="translate(0,0)" fill="rgb(3,2,2)" d="M 1367.09 1249.8 C 1369.95 1249.8 1370.15 1249.57 1372.7 1250.7 C 1341.7 1287.2 1320.08 1311.59 1281.13 1341.31 C 1191.42 1409.75 1083.41 1450.73 969.457 1435.73 C 881.204 1424.12 804.68 1379.23 742.987 1316.08 C 726.542 1299.25 711.051 1278.25 696.792 1259.49 C 695.384 1257.67 694.418 1256.06 693.194 1254.12 L 693.639 1253.1 C 699.282 1256.89 728.093 1295.45 736.444 1304.73 C 922.672 1511.65 1201.57 1455.39 1367.09 1249.8 z"/>
<path transform="translate(0,0)" fill="rgb(3,2,2)" d="M 1350.95 1249.95 C 1353.85 1249.75 1354.26 1249.76 1357.15 1250.1 L 1357.4 1251.38 C 1354.93 1256.2 1349.8 1259.83 1346.05 1264.11 C 1323.87 1289.38 1300.52 1311.65 1273.64 1331.89 C 1185.88 1397.96 1079.51 1439.71 968.34 1423.16 C 881.621 1410.24 803.293 1365.09 744.445 1300.62 C 731.995 1286.99 721.967 1273.4 710.924 1258.66 C 708.69 1255.59 707.815 1255.6 707.995 1252.68 C 711.94 1252.33 718.772 1264.32 721.675 1268.33 C 744.509 1299.2 771.695 1326.62 802.386 1349.7 C 879.287 1407.32 972.008 1433.3 1067.53 1419.36 C 1168.89 1404.56 1289.63 1331.96 1350.95 1249.95 z"/>
<path transform="translate(0,0)" fill="rgb(3,2,2)" d="M 1337.2 1248.56 L 1340.68 1249.62 C 1339.37 1260.55 1285.9 1308.08 1273.31 1317.98 C 1216.22 1362.22 1143.95 1399.47 1072.26 1410.92 C 954.087 1429.78 840.675 1383.05 758.428 1298.76 C 744.767 1284.76 733.704 1270.72 721.728 1255.41 L 720.708 1252 L 721.61 1251.45 C 725.705 1255.12 737.792 1271.26 742.504 1276.85 C 760.976 1298.76 777.271 1313.12 798.962 1330.94 C 873.392 1392.07 963.876 1420.12 1060.06 1408.49 C 1159.58 1396.46 1275.46 1327.08 1337.2 1248.56 z"/>
<path transform="translate(0,0)" fill="rgb(3,2,2)" d="M 1428.91 778.477 C 1434.9 783.863 1446.88 808.203 1450.97 816.217 C 1487.44 886.323 1505.65 964.493 1503.91 1043.5 C 1502.35 1102.98 1488.78 1161.52 1464.01 1215.62 C 1461.06 1222.2 1453.85 1238.76 1449.18 1243.25 L 1446.74 1241.84 C 1446.61 1237.57 1462.85 1207.64 1466.08 1199.97 C 1472.67 1184.07 1478.26 1167.77 1482.82 1151.17 C 1510.6 1053.4 1503.83 949.032 1463.63 855.673 C 1453.25 831.351 1441.95 808.501 1427.93 786.06 C 1426.39 783.597 1428.03 781.038 1428.91 778.477 z"/>
<path transform="translate(0,0)" fill="rgb(3,2,2)" d="M 1319.16 1243.51 C 1317.34 1239.97 1326.66 1227.33 1329.3 1222.99 C 1352.07 1186.28 1368.83 1146.17 1378.96 1104.17 C 1395.36 1033.79 1388.67 961.506 1365.24 893.519 C 1362.54 885.684 1350.83 868.705 1356.34 862.595 L 1357.41 863.013 C 1361.64 875.697 1368.48 888.189 1372.83 902.176 C 1396.96 979.703 1398.96 1047.92 1377.96 1126.06 L 1380.84 1130.95 C 1369.25 1165.45 1355.25 1196.93 1335.19 1227.27 C 1332.95 1230.66 1326.65 1240.14 1326.09 1243.17 L 1319.16 1243.51 z"/>
<path transform="translate(0,0)" fill="rgb(255,255,255)" d="M 1377.96 1126.06 L 1380.84 1130.95 C 1369.25 1165.45 1355.25 1196.93 1335.19 1227.27 C 1332.95 1230.66 1326.65 1240.14 1326.09 1243.17 L 1319.16 1243.51 C 1319.49 1243.41 1321.91 1242.72 1322.07 1242.5 C 1345.96 1210.55 1366.15 1162.38 1377.96 1126.06 z"/>
<path transform="translate(0,0)" fill="rgb(3,2,2)" d="M 1419.04 793.955 C 1421.16 790.834 1420.53 790.58 1423.35 789.755 C 1427.52 792.847 1430.93 802.235 1433.88 807.488 C 1461.76 856.877 1480.4 910.933 1488.89 967.007 C 1503.68 1065.68 1486.65 1151.43 1439.79 1238.66 L 1437.33 1242.06 L 1437.92 1240.9 L 1434.36 1242.09 C 1433.94 1238.48 1453.21 1202.48 1456.74 1194.12 C 1499.98 1089.79 1500.2 972.583 1457.33 868.095 C 1452.61 856.267 1428.47 801.594 1420.57 795.122 C 1420.07 794.718 1419.56 794.328 1419.04 793.955 z"/>
<path transform="translate(0,0)" fill="rgb(3,2,2)" d="M 1413.56 801.246 C 1415.57 798.846 1417.22 796.487 1419.04 793.955 C 1417.66 801.356 1426.52 814.819 1430.12 821.985 C 1436.27 834.426 1442.22 846.971 1447.94 859.616 C 1461.55 889.754 1474.75 939.098 1479.34 972.008 C 1490.72 1049.46 1479.45 1128.55 1446.9 1199.74 C 1441.09 1212.51 1433.99 1228.03 1425.7 1239.32 C 1423.43 1242.42 1421.72 1241.89 1418.03 1242.32 C 1436.35 1217.47 1457.05 1167.85 1465.08 1137.41 C 1496.65 1017.81 1473.11 906.915 1413.56 801.246 z"/>
<path transform="translate(0,0)" fill="rgb(3,2,2)" d="M 1410.44 804.609 C 1413.56 813.721 1428.95 842.384 1434.03 853.744 C 1451.79 894.354 1463.46 937.36 1468.67 981.375 C 1478.07 1057.26 1465.35 1134.25 1432.03 1203.07 C 1426.3 1214.82 1418.98 1229.1 1411.19 1239.62 C 1408.87 1242.76 1407.29 1242.11 1403.43 1242.42 C 1426.69 1211.85 1444.46 1165.45 1454.4 1128.69 C 1483.14 1022.38 1461.6 904.558 1406.41 810.074 L 1410.44 804.609 z"/>
<path transform="translate(0,0)" fill="rgb(3,2,2)" d="M 1396.72 822.17 C 1395.49 828.728 1404.31 842.542 1407.59 849.403 C 1414.11 862.951 1419.88 876.846 1424.88 891.027 C 1436.89 924.061 1444.18 958.622 1446.55 993.691 C 1451.8 1068.29 1436.12 1142.88 1401.28 1209.05 C 1396.15 1218.76 1389.43 1232.56 1382.07 1241.07 C 1380.16 1243.28 1378.26 1242.59 1375.57 1242.43 C 1382.58 1234.17 1389.43 1221.3 1394.7 1211.73 C 1416.07 1172.89 1429.66 1131.84 1437.29 1088.12 C 1450.24 1012.38 1440.48 934.494 1409.25 864.283 C 1404.64 853.982 1396.66 836.463 1390.36 827.51 L 1396.72 822.17 z"/>
<path transform="translate(0,0)" fill="rgb(3,2,2)" d="M 1402.33 814.78 L 1403.59 817.091 C 1463.37 926.631 1477.64 1049.86 1433.55 1167.85 C 1428.53 1181.29 1403.75 1237.5 1392.77 1243.48 L 1391.4 1242.41 C 1391.45 1240.49 1410.86 1207.17 1413.6 1201.93 C 1428.31 1173.77 1437.8 1143.05 1445.05 1112.27 C 1463.94 1032.15 1454.17 940.633 1421.76 865.192 C 1415.48 850.583 1409.7 836.738 1401.07 823.255 C 1396.91 816.745 1402.56 825.6 1399.36 820.422 C 1398.52 819.064 1401.1 816.452 1402.33 814.78 z"/>
<path transform="translate(0,0)" fill="rgb(3,2,2)" d="M 1383.76 834.287 L 1385.79 835.063 C 1392.36 843.181 1400.34 861.012 1404.59 871.189 C 1427.88 925.993 1438.08 985.475 1434.36 1044.91 C 1430.64 1103.96 1415.75 1158.74 1386.94 1210.36 C 1381.36 1220.38 1374.14 1236.07 1365.51 1243.66 C 1364.31 1243.06 1365.06 1243.52 1363.5 1241.96 C 1364.77 1238.44 1376.44 1220.58 1379.62 1214.76 C 1395.88 1184.95 1406.33 1160.56 1415.7 1127.93 C 1443.87 1030.59 1431.92 926.02 1382.51 837.55 L 1383.76 834.287 z"/>
<path transform="translate(0,0)" fill="rgb(3,2,2)" d="M 1377.14 841.589 C 1391.13 856.99 1408.84 913.703 1413.95 935.663 C 1437.13 1035.33 1418.41 1141.11 1364.7 1227.94 C 1361.22 1233.57 1356.25 1241.63 1349.8 1243.05 C 1349.43 1240.34 1355 1233.38 1356.72 1230.76 C 1363.14 1221.18 1369.02 1211.24 1374.31 1201 C 1394.76 1162.51 1408.51 1120.83 1414.98 1077.74 C 1424.76 1012.3 1417.19 945.438 1393.04 883.839 C 1389.37 874.639 1385.01 865.761 1380.65 856.882 C 1378.54 852.597 1374.16 848.567 1373.85 844.941 L 1377.14 841.589 z"/>
<path transform="translate(0,0)" fill="rgb(3,2,2)" d="M 1369.08 848.517 C 1374.87 852.668 1388.05 886.64 1390.76 894.482 C 1412.63 956.543 1418.09 1023.2 1406.61 1088 C 1398.33 1135.79 1378.77 1182.62 1354.01 1224.13 C 1351.03 1229.12 1344.53 1241.03 1340.29 1244.03 L 1338.1 1242.48 C 1337.89 1239.22 1360.77 1203.1 1364.07 1196.37 C 1374.39 1175.34 1384 1154.04 1391.09 1131.68 C 1413.02 1060.17 1413.2 983.752 1391.6 912.142 C 1388.84 902.978 1385.46 892.266 1381.89 883.413 C 1377.84 873.395 1370.94 861.676 1367.49 851.603 L 1369.08 848.517 z"/>
<path transform="translate(0,0)" fill="rgb(3,2,2)" d="M 1380.84 1130.95 C 1406.36 1047.92 1401.18 954.557 1366.15 874.425 C 1363.7 868.825 1359.06 865.323 1360.25 858.809 L 1362.32 858.104 C 1365.47 861.718 1370.43 872.399 1372.66 877.676 C 1423.27 997.861 1406.37 1136.71 1331 1242.57 C 1330.6 1243.12 1326.65 1243.15 1326.09 1243.17 C 1326.65 1240.14 1332.95 1230.66 1335.19 1227.27 C 1355.25 1196.93 1369.25 1165.45 1380.84 1130.95 z"/>
<path transform="translate(0,0)" fill="rgb(3,2,2)" d="M 1426.94 1330.98 L 1427.49 1328.48 C 1431.8 1325.23 1483.25 1327.99 1492.27 1327.2 C 1496.32 1326.84 1499.72 1326.94 1502.45 1329.75 L 1502 1335.59 L 1501.91 1337.47 L 1500.95 1341.06 C 1500.68 1342.86 1500.96 1341.9 1499.91 1343.89 C 1474.88 1344.19 1446.2 1344.72 1421.38 1343.96 L 1420.92 1342.59 L 1422.84 1340.62 C 1424.48 1338.33 1424.03 1339.32 1424.33 1336.38 L 1426.23 1334.58 L 1426.94 1330.98 z"/>
<path transform="translate(0,0)" fill="rgb(255,255,255)" d="M 1426.94 1330.98 L 1427.49 1328.48 C 1431.8 1325.23 1483.25 1327.99 1492.27 1327.2 C 1496.32 1326.84 1499.72 1326.94 1502.45 1329.75 L 1502 1335.59 C 1496.29 1334.28 1435.75 1334.62 1426.23 1334.58 L 1426.94 1330.98 z"/>
<path transform="translate(0,0)" fill="rgb(3,2,2)" d="M 1426.94 1330.98 L 1427.49 1328.48 C 1431.8 1325.23 1483.25 1327.99 1492.27 1327.2 C 1496.32 1326.84 1499.72 1326.94 1502.45 1329.75 C 1496.1 1332.31 1438.44 1330.73 1426.94 1330.98 z"/>
<path transform="translate(0,0)" fill="rgb(3,2,2)" d="M 1426.23 1334.58 C 1435.75 1334.62 1496.29 1334.28 1502 1335.59 L 1501.91 1337.47 C 1498.68 1337.99 1489.44 1338.31 1486.51 1338.06 C 1476.04 1337.18 1429.42 1340.2 1424.33 1336.38 L 1426.23 1334.58 z"/>
<path transform="translate(0,0)" fill="rgb(216,216,215)" d="M 1422.84 1340.62 C 1424.48 1338.33 1424.03 1339.32 1424.33 1336.38 C 1429.42 1340.2 1476.04 1337.18 1486.51 1338.06 C 1489.44 1338.31 1498.68 1337.99 1501.91 1337.47 L 1500.95 1341.06 C 1476.75 1339.97 1447.24 1340.44 1422.84 1340.62 z"/>
<path transform="translate(0,0)" fill="rgb(3,2,2)" d="M 1157.56 1495.46 C 1232.88 1494.37 1311.53 1495.68 1387.21 1495.74 L 1462.54 1495.81 C 1472.8 1495.82 1492.62 1495.22 1501.97 1496.52 L 1502.32 1497.49 C 1497.67 1499.64 1494.41 1499.09 1489.25 1499 L 1246.07 1498.7 L 1175.81 1498.21 C 1168.49 1498.14 1147.68 1498.31 1141.1 1497.31 C 1146.98 1495.43 1151.47 1495.61 1157.56 1495.46 z"/>
<path transform="translate(0,0)" fill="rgb(3,2,2)" d="M 539.394 1495.48 C 599.809 1493.63 668.009 1495.21 729.069 1495.11 L 819.031 1495.03 C 836.424 1495.08 854.2 1495.06 871.569 1495.89 C 876.076 1496.11 876.631 1496.2 879.436 1498.77 C 859.739 1499.54 833.251 1498.16 812.487 1498.09 L 663.138 1498.03 L 581.027 1497.94 C 572.563 1497.96 546.769 1498.6 540.235 1497.46 L 539.394 1495.48 z"/>
<path transform="translate(0,0)" fill="rgb(255,255,255)" d="M 539.589 1336.56 L 539.877 1334.6 C 541.762 1334.06 550.878 1334.24 553.006 1334.47 C 563.264 1335.55 616.287 1331.83 622.051 1336.96 L 622.085 1342.58 L 622.134 1344.4 C 618.461 1345.13 540.901 1343.61 539.634 1343.16 L 539.589 1336.56 z"/>
<path transform="translate(0,0)" fill="rgb(3,2,2)" d="M 539.589 1336.56 L 539.877 1334.6 C 541.762 1334.06 550.878 1334.24 553.006 1334.47 C 563.264 1335.55 616.287 1331.83 622.051 1336.96 C 616.427 1338.84 545.931 1338.65 539.589 1336.56 z"/>
<path transform="translate(0,0)" fill="rgb(3,2,2)" d="M 539.634 1343.16 C 540.17 1342.6 541.314 1341.92 542.012 1341.44 C 552.514 1340.87 615.768 1339.92 622.085 1342.58 L 622.134 1344.4 C 618.461 1345.13 540.901 1343.61 539.634 1343.16 z"/>
<path transform="translate(0,0)" fill="rgb(3,2,2)" d="M 592.617 1253.58 C 597.254 1255 621.736 1296.2 626.734 1303.56 C 654.08 1344.49 688.096 1379.03 725.444 1410.83 C 736.93 1420.61 757.082 1433.04 766.409 1443.04 C 758.723 1440.81 743.087 1428.2 736.266 1423.01 C 676.782 1377.49 627.79 1319.71 592.617 1253.58 z"/>
<path transform="translate(0,0)" fill="rgb(3,2,2)" d="M 539.609 1325.47 C 556.587 1326.12 573.155 1325.82 590.103 1325.83 C 594.765 1325.83 609.412 1325.42 613.322 1326.25 L 613.683 1328.45 C 605.536 1329.75 544.904 1330.44 539.899 1327.83 L 539.609 1325.47 z"/>
</svg>