<svg version="1.1" xmlns="http://www.w3.org/2000/svg" style="display: block;" viewBox="0 0 2048 2048" width="1024" height="1024" preserveAspectRatio="none">
<defs>
	<linearGradient id="Gradient1" gradientUnits="userSpaceOnUse" x1="1062.87" y1="899.648" x2="1044.7" y2="883.847">
		<stop class="stop0" offset="0" stop-opacity="1" stop-color="rgb(235,229,231)"/>
		<stop class="stop1" offset="1" stop-opacity="1" stop-color="rgb(245,252,247)"/>
	</linearGradient>
</defs>
<path transform="translate(0,0)" fill="rgb(255,255,255)" d="M 0 0 L 2048 0 L 2048 2048 L 0 2048 L 0 0 z"/>
<path transform="translate(0,0)" fill="rgb(4,3,4)" d="M 997.845 614.611 C 1224.11 599.902 1419.48 771.363 1434.26 997.625 C 1449.05 1223.89 1277.65 1419.31 1051.39 1434.17 C 825.03 1449.04 629.493 1277.54 614.703 1051.17 C 599.912 824.805 771.471 629.326 997.845 614.611 z"/>
<path transform="translate(0,0)" fill="rgb(255,255,255)" d="M 1005.67 615.441 C 1005.73 615.43 1005.79 615.419 1005.86 615.409 C 1049.31 613.119 1101.04 621.597 1141.73 634.252 C 1196.59 651.317 1249.22 680.884 1291.58 718.71 C 1374.01 791.557 1424.09 894.193 1430.77 1003.99 C 1435.57 1110.49 1398.28 1214.6 1326.96 1293.84 C 1253.73 1376.14 1150.87 1426.06 1040.9 1432.66 C 1029.94 1433.04 1018.97 1433.03 1008 1432.63 C 938.302 1429.7 888.262 1412.09 827.263 1379.12 C 628.869 1271.9 557.418 1012.37 675.077 819.894 C 681.966 808.625 693.886 787.766 703.547 778.933 C 706.081 779.173 705.331 779.287 707.57 778.656 L 705.563 775.612 C 708.065 769.951 712.906 764.387 716.981 759.71 C 790.052 674.959 894.019 623.002 1005.67 615.441 z"/>
<path transform="translate(0,0)" fill="rgb(4,3,4)" d="M 1003.57 641.001 C 1215.67 629.603 1396.88 792.233 1408.4 1004.32 C 1419.93 1216.41 1257.41 1397.72 1045.32 1409.37 C 833.06 1421.03 651.566 1258.34 640.032 1046.07 C 628.498 833.806 791.295 652.409 1003.57 641.001 z"/>
<path transform="translate(0,0)" fill="rgb(255,255,255)" d="M 994.233 642.595 C 994.636 642.552 995.039 642.51 995.443 642.468 C 1328.79 624.816 1536.54 1006.36 1315.59 1267.91 C 1248.69 1347.1 1155.03 1400.47 1050.76 1409.21 C 1048.01 1409.51 1045.25 1409.74 1042.5 1409.92 C 947.166 1415.92 845.536 1375.62 774.619 1312.99 C 695.925 1244.63 648.309 1147.28 642.648 1043.19 C 637.658 945.915 670.701 850.51 734.79 777.159 C 800.21 703.387 894.424 648.614 994.233 642.595 z"/>
<path transform="translate(0,0)" fill="rgb(4,3,4)" d="M 999.239 648.836 C 1207.23 634.938 1387.09 792.31 1400.94 1000.3 C 1414.78 1208.3 1257.37 1388.12 1049.37 1401.92 C 841.446 1415.71 661.699 1258.36 647.858 1050.44 C 634.017 842.515 791.321 662.728 999.239 648.836 z"/>
<path transform="translate(0,0)" fill="rgb(255,255,255)" d="M 1004.98 652.736 C 1210.86 642.01 1386.42 800.273 1397.03 1006.15 C 1407.63 1212.03 1249.27 1387.5 1043.38 1397.99 C 837.663 1408.47 662.368 1250.27 651.769 1044.55 C 641.169 838.839 799.277 663.453 1004.98 652.736 z"/>
<path transform="translate(0,0)" fill="rgb(4,3,4)" d="M 1009.72 665.658 C 1208.4 657.637 1375.91 812.318 1383.71 1011.01 C 1391.51 1209.7 1236.64 1377.03 1037.94 1384.61 C 839.554 1392.17 672.542 1237.6 664.755 1039.23 C 656.969 840.853 811.351 673.667 1009.72 665.658 z"/>
<path transform="translate(0,0)" fill="rgb(255,255,255)" d="M 1004.03 669.653 C 1200.53 658.483 1368.82 808.872 1379.72 1005.39 C 1390.62 1201.91 1240 1369.98 1043.47 1380.61 C 847.316 1391.22 679.636 1240.96 668.757 1044.82 C 657.878 848.688 807.911 680.802 1004.03 669.653 z"/>
<path transform="translate(0,0)" fill="rgb(4,3,4)" d="M 1000.21 673.27 C 1194.73 660.118 1363 807.346 1375.8 1001.89 C 1388.59 1196.44 1241.05 1364.44 1046.48 1376.88 C 852.417 1389.28 684.949 1242.21 672.188 1048.17 C 659.426 854.125 806.189 686.388 1000.21 673.27 z"/>
<path transform="translate(0,0)" fill="rgb(255,255,255)" d="M 1005.57 675.595 C 1198.77 665.355 1363.61 813.843 1373.53 1007.06 C 1383.46 1200.27 1234.7 1364.87 1041.47 1374.48 C 848.684 1384.07 684.546 1235.73 674.643 1042.96 C 664.74 850.191 812.813 685.811 1005.57 675.595 z"/>
<path transform="translate(0,0)" fill="rgb(16,15,15)" d="M 999.35 680.581 C 1189.64 666.969 1354.92 810.22 1368.49 1000.51 C 1382.05 1190.81 1238.76 1356.05 1048.46 1369.57 C 858.235 1383.08 693.059 1239.85 679.499 1049.63 C 665.94 859.401 809.129 694.189 999.35 680.581 z"/>
<path transform="translate(0,0)" fill="rgb(255,255,255)" d="M 1004.57 682.632 C 1193.64 671.917 1355.6 816.482 1366.34 1005.54 C 1377.08 1194.6 1232.54 1356.58 1043.48 1367.35 C 854.379 1378.12 692.361 1233.54 681.617 1044.45 C 670.873 855.347 815.474 693.349 1004.57 682.632 z"/>
<path transform="translate(0,0)" fill="rgb(16,15,15)" d="M 1275.02 797.857 C 1399.17 934.953 1390.34 1146.3 1255.19 1272.57 C 1120.03 1398.83 908.571 1393.28 780.227 1260.1 C 651.884 1126.92 654.152 915.399 785.323 785.004 C 916.493 654.61 1128.03 653.596 1260.44 782.728 C 1265.46 787.619 1270.32 792.665 1275.02 797.857 z"/>
<path transform="translate(0,0)" fill="rgb(68,67,68)" d="M 1260.44 782.728 C 1265.46 787.619 1270.32 792.665 1275.02 797.857 C 1270.96 795.47 1263.01 786.855 1260.44 782.728 z"/>
<path transform="translate(0,0)" fill="rgb(255,255,255)" d="M 1004.11 689.536 C 1189.54 678.517 1348.76 819.983 1359.63 1005.42 C 1370.51 1190.86 1228.93 1349.97 1043.48 1360.71 C 858.23 1371.44 699.326 1230.04 688.459 1044.8 C 677.592 859.554 818.873 700.543 1004.11 689.536 z"/>
<path transform="translate(0,0)" fill="rgb(4,3,4)" d="M 789.044 1260.2 C 703.623 1174.84 671.229 1049.85 704.431 933.742 C 737.634 817.632 831.207 728.669 948.845 701.372 C 1066.48 674.074 1189.67 712.737 1270.61 802.36 C 1273.5 805.126 1274.49 805.889 1276.62 809.192 C 1390.73 942.713 1381.25 1141.97 1254.97 1264.06 C 1128.7 1386.14 929.229 1388.88 799.638 1270.33 C 795.932 1268.11 791.78 1263.58 789.044 1260.2 z"/>
<path transform="translate(0,0)" fill="rgb(161,162,160)" d="M 789.044 1260.2 C 792.501 1263.65 796.033 1267.03 799.638 1270.33 C 795.932 1268.11 791.78 1263.58 789.044 1260.2 z"/>
<path transform="translate(0,0)" fill="rgb(101,101,102)" d="M 1270.61 802.36 C 1273.5 805.126 1274.49 805.889 1276.62 809.192 C 1274.65 806.888 1272.65 804.61 1270.61 802.36 z"/>
<path transform="translate(0,0)" fill="rgb(255,255,255)" d="M 1004.83 696.475 C 1186.51 685.878 1342.34 824.666 1352.76 1006.36 C 1363.18 1188.05 1224.24 1343.74 1042.54 1353.99 C 861.088 1364.22 705.656 1225.51 695.25 1044.07 C 684.844 862.626 823.399 707.059 1004.83 696.475 z"/>
<path transform="translate(0,0)" fill="rgb(4,3,4)" d="M 1024.22 710.591 C 1034.77 720.76 1066.1 814.055 1076.14 835.086 C 1083.56 850.622 1097.96 887.219 1104.62 904.022 C 1163.1 908.33 1221.98 916.944 1280.44 921.958 C 1293.79 923.103 1307.08 923.001 1320.45 923.609 C 1301.87 941.869 1277.44 959.734 1256.93 975.577 L 1189.75 1028.11 C 1180.59 1035.19 1151.67 1056.41 1144.81 1063.7 C 1160.92 1115.09 1178.46 1166.59 1196.5 1217.36 C 1204.04 1238.57 1212.84 1259.61 1218.91 1281.33 C 1157.03 1237.62 1087.45 1200.95 1027.68 1153.86 C 1021.45 1155.5 982.842 1182.5 975.18 1187.39 C 950.051 1203.44 924.2 1220.46 898.958 1236.55 C 877.143 1250.45 854.691 1266.59 831.649 1278.17 C 836.685 1261.45 843.981 1244.3 849.424 1227.52 C 863.787 1183.23 879.479 1139.49 894.834 1095.55 C 898.747 1084.35 902.109 1072.82 906.673 1061.87 C 877.973 1037.94 843.786 1014.64 814.121 991.186 C 785.693 968.715 757.579 945.679 728.521 924.106 C 747.889 920.13 780.499 919.779 802.238 917.528 C 849.297 912.653 895.714 907.912 942.888 904.049 C 960.388 865.911 977.015 827.379 992.756 788.482 C 1001.3 766.867 1014.19 730.407 1024.22 710.591 z"/>
<path transform="translate(0,0)" fill="rgb(255,255,255)" d="M 1014.71 743.796 C 1018.17 745.056 1018.43 744.948 1021.35 747.391 C 1024.7 758.44 1024.62 805.895 1025.1 819.312 C 1027.11 875.04 1025.44 931.092 1025.03 986.884 C 1024.04 987.119 1023.05 987.362 1022.06 987.614 C 1007.72 991.274 1002.32 996.437 995.033 1008.65 C 974.332 1003.79 954.728 994.761 934.482 989.169 C 881.683 974.586 831.301 954.632 779.381 937.601 C 771.961 935.167 764.136 932.616 757.084 929.332 C 755.674 926.094 755.243 926.781 755.72 924.246 C 764.416 923.966 760.092 926.634 764.444 930.554 C 764.858 927.936 764.905 926.228 766.284 923.948 C 770.085 924.866 768.663 927.601 772.668 928.793 C 772.616 928.082 772.565 927.37 772.513 926.659 L 772.328 924.625 L 773.999 923.77 C 780.878 924.824 775.084 924.525 780.811 928.466 C 781.197 925.119 780.728 925.501 782.475 923.002 C 788.352 924.127 785.149 926.183 789.724 927.809 C 789.382 925.257 789.144 924.885 789.643 922.407 L 792.009 921.838 C 797.707 924.245 793.797 924.46 798.793 927.829 C 798.479 924.726 798.217 924.357 799.195 921.344 C 806.863 918.37 805.011 925.442 809.546 926.923 C 808.924 924.096 808.534 923.414 809.048 920.562 L 811.23 919.562 C 814.681 919.729 813.525 919.207 816.158 920.923 C 816.868 923.702 817.087 925.975 819.025 927.993 C 819.326 923.836 819.308 922.83 820.513 918.919 L 821.968 918.385 C 824.652 920.133 829.833 928.901 832.261 932.471 C 830.933 928.223 829.078 923.71 827.464 919.525 L 828.452 918.357 C 834.057 918.443 834.53 919.87 837.489 924.273 L 838.177 925.316 C 841.036 923.425 836.561 922.336 838.465 917.652 C 841.564 917.104 841.523 916.828 844.326 918.073 C 845.195 920.448 845.435 921.169 846.673 923.35 L 848.509 923.746 C 847.768 920.369 847.221 919.849 847.89 916.655 L 851.52 916.071 C 854.343 917.617 856.672 920.938 858.806 923.522 L 859.469 923.405 L 857.562 917.415 C 857.408 916.552 857.465 917.195 858.111 915.557 L 862.499 915.046 C 865.633 917.371 865.925 920.073 867.592 924.169 C 867.251 920.007 866.131 916.044 869.202 913.107 L 871.04 913.358 C 874.702 915.919 875.482 919.046 877.518 920.211 C 876.988 918.049 876.742 916.339 876.388 914.157 C 879.039 912.463 878.555 912.935 882.063 912.786 C 886.146 915.64 883.498 916.76 887.501 921.286 L 888.071 920.555 C 887.346 917.897 886.931 916.155 886.407 913.393 L 887.431 912.001 C 890.835 911.344 890.629 911.257 893.98 911.999 C 896.423 914.656 896.748 915.474 898.412 918.555 L 899.68 917.878 C 898.507 914.391 898.005 914.809 898.836 911.843 C 907.842 909.223 904.328 916.712 910.354 918.638 L 910.366 917.425 C 908.641 914.969 907.77 914.073 907.009 911.123 L 908.48 910.17 C 921.168 909.873 918.315 925.869 924.732 931.573 L 925.606 930.838 C 924.198 923.92 920.337 917.937 918.015 910.957 C 919.635 909.046 918.81 909.907 922.645 909.573 C 926.441 912.887 925.193 917.6 928.47 921.491 C 930.588 915.004 923.229 913.29 929.395 907.836 L 931.166 908.22 C 934.458 911.645 934.119 913.688 936.132 917.654 C 936.645 914.707 937.123 911.754 937.567 908.796 L 938.617 908.519 C 944.194 913.729 945.12 919.415 950.087 924.721 C 948.567 917.988 943.923 913.259 944.645 908.964 L 946.645 908.504 C 950.497 910.926 950.075 913.856 953.209 917.71 C 956.813 916.523 958.828 911.77 959.891 908.388 C 958.069 908.838 955.429 912.439 953.873 914.184 C 950.052 909.767 948.153 907.322 947.293 901.553 L 948.416 900.521 C 950.166 900.837 950.999 901.038 952.766 901.531 L 954.419 902.004 L 954.987 900.78 C 952.535 898.831 952.445 898.819 950.569 896.346 L 950.998 894.452 C 956.543 889.686 952.234 893.897 958.721 893.107 C 956.361 890.751 956.321 890.669 954.58 887.813 C 955.085 883.716 954.391 885.61 957.16 882.101 C 962 880.167 958.24 882.891 964.655 882.636 L 964.012 881.182 C 960.805 879.97 960.666 880.38 958.641 877.959 C 961.202 871.512 962.408 876.561 965.924 875.042 C 964.263 872.414 961.954 869.753 962.215 866.919 C 964.535 866.022 965.922 866.693 968.428 867.281 L 969.5 867.541 L 970.123 866.85 C 967.381 862.375 964.684 860.419 968.593 856.574 C 975.185 856.09 968.601 858.394 974.376 859.891 L 974.769 858.694 C 973.012 856.511 969.777 852.994 970.275 850.251 C 973.133 849.551 974.386 849.833 977.269 850.076 C 975.428 847.665 973.017 845.364 973.058 842.583 C 976.091 841.188 976.292 841.958 980.371 842.687 L 980.678 841.769 C 978.274 840.453 978.148 840.463 976.185 838.597 C 976.239 836.013 976.46 836.127 977.988 833.958 L 981.836 833.436 C 983.085 834.632 982.354 834.299 984.002 834.497 L 983.623 833.668 L 982.528 834.126 C 980.415 832.123 980.558 832.273 979.581 829.516 C 982.581 819.435 985.354 827.145 988.438 825.443 C 985.968 823.741 984.853 823.308 983.598 820.573 L 985.18 816.495 C 989.591 814.625 986.033 817.077 992.408 817.736 L 992.337 816.764 L 987.582 813.683 C 986.564 811.104 986.715 812.5 988.101 809.296 L 990.032 808.615 C 992.418 809.241 993.646 809.815 996.055 809.45 L 995.774 808.777 C 992.909 807.126 992.485 807.094 990.255 804.556 C 990.797 801.214 990.112 802.736 992.895 800.112 L 999.132 801.733 L 999.684 800.78 C 996.861 799.264 995.401 798.844 993.769 796.092 C 994.508 792.959 993.68 794.102 996.002 792.335 L 1000.54 793.136 L 1001.74 792.081 C 998.994 790.641 998.826 790.805 996.95 788.432 L 997.406 785.742 C 1002.98 780.861 998.421 787.388 1004.7 784.24 C 1003.2 783.026 1001.73 781.788 1000.28 780.525 C 1000.21 777.88 999.782 779.042 1001.61 777.059 C 1004.33 777.073 1004.72 777.183 1007.32 776.538 L 1007.46 774.988 L 1003.67 773.368 C 1003.02 770.33 1002.8 771.717 1004.28 769.057 C 1006.3 768.551 1008.34 768.088 1010.39 767.671 C 1008.54 764.112 1007.63 766.424 1006.69 762.69 L 1008.6 760.42 C 1010.56 760.592 1012.52 760.72 1014.48 760.806 L 1014.67 759.32 C 1012.37 758.171 1012.17 758.157 1010.25 756.492 L 1010.4 753.88 L 1012.08 752.577 C 1015.59 753.145 1018.52 754.389 1021.86 755.604 C 1016.16 751.398 1012.26 750.794 1014.71 743.796 z"/>
<path transform="translate(0,0)" fill="rgb(16,15,15)" d="M 971.801 924.017 L 972.37 925.796 C 969.143 929.628 968.592 930.062 966.659 934.557 L 965.435 930.907 C 966.798 926.846 967.715 927.253 971.801 924.017 z"/>
<path transform="translate(0,0)" fill="rgb(16,15,15)" d="M 965.227 915.739 L 966.665 916.891 C 965.91 920.208 963.657 921.801 961.119 924.637 L 959.885 922.962 C 960.657 919.542 962.378 918.775 965.227 915.739 z"/>
<path transform="translate(0,0)" fill="rgb(4,3,4)" d="M 986.839 948.028 L 987.489 949.632 C 985.329 952.45 983.567 954.475 981.192 957.122 L 980.071 954.96 C 980.864 951.859 984.119 950.076 986.839 948.028 z"/>
<path transform="translate(0,0)" fill="rgb(255,255,255)" d="M 796.96 954.803 C 796.919 951.412 796.438 952.513 797.924 949.908 L 799.351 951.53 C 804.664 953.188 806.961 954.042 811.967 956.446 L 814.508 954.981 L 816.236 956.346 C 820.707 958.052 823.602 959.318 827.885 961.451 C 830.831 959.581 829.585 959.541 831.975 960.016 L 832.922 961.577 C 849.768 967.092 861.368 975.676 875.689 985.762 L 878.303 984.661 C 872.449 980.92 864.721 976.398 859.933 971.626 C 865.674 974.046 870.82 976.623 876.776 978.686 L 879.194 977.092 C 881.789 977.673 881.675 977.803 883.854 979.415 C 906.418 986.075 931.856 1004.14 951.659 1017.4 C 955.221 1019.78 969.591 1030.82 972.565 1032.14 L 973.995 1031.77 C 969.313 1025.05 922.637 994.316 913.371 988.792 C 935.691 996.433 946.508 1005.69 966.218 1018.73 C 974.209 1024.01 982.468 1030.58 991.518 1033.58 L 992.63 1034.75 L 995.13 1034.77 C 1000.21 1042.36 1002.03 1045.29 1009.64 1050.83 C 984.643 1083.78 959.14 1116.36 933.138 1148.53 L 885.585 1207.17 C 879.613 1214.51 869.961 1225.11 864.81 1232.07 C 861.456 1232.63 859.377 1233.16 855.965 1233.16 C 854.964 1232.99 853.866 1232.6 852.87 1232.3 L 852.424 1230.07 C 855.103 1226.45 853.343 1227.58 858.061 1226.84 L 858.742 1225.57 C 856.78 1224.54 856.749 1224.54 855.11 1223.05 C 856.241 1218.52 858.41 1219.21 860.595 1215.55 L 858.274 1213.63 L 860.139 1209.44 C 861.914 1209.19 861.327 1209.38 863.403 1210.16 L 863.771 1209.04 L 861.842 1207.38 C 860.817 1204.41 860.893 1205.97 862.312 1202.56 L 866.381 1201.57 L 866.235 1200.55 L 863.986 1199 C 863.431 1196.14 863.408 1197.58 864.724 1194.68 C 867.897 1194.12 867.001 1194.73 869.293 1192.99 C 865.854 1189.85 866.144 1189.5 867.611 1185.59 C 869.52 1185.23 870.458 1185.39 872.364 1185.74 L 872.919 1183.94 C 869.818 1182.77 870.678 1183.7 868.862 1181.57 L 869.664 1178.73 C 872.527 1176.88 871.735 1177.51 876.192 1178.19 L 876.443 1176.85 L 872.075 1174 C 871.429 1170.56 871.356 1172.34 873.283 1168.57 C 875.686 1168.54 876.996 1169.17 879.358 1169.85 L 879.422 1168.45 C 876.886 1167.04 876.742 1167.12 874.802 1165.04 C 875.199 1161.67 874.633 1163.18 876.633 1160.37 C 879.558 1160.48 879.108 1160.58 881.768 1161.89 L 882.547 1160.39 C 879.969 1158.82 879.857 1158.95 878.026 1156.62 C 878.476 1153.01 877.637 1154.27 879.983 1152.33 C 881.926 1152.79 883.533 1153.13 885.498 1153.47 L 885.796 1152 C 882.331 1150.24 882.718 1151.05 880.832 1148.21 C 881.5 1144.42 880.522 1145.63 882.942 1143.78 C 885.724 1144.65 886.528 1145.23 889.359 1144.67 L 889.006 1143.58 C 886.356 1142.59 885.663 1142.52 883.445 1140.73 C 883.954 1137.16 883.126 1138.45 885.374 1136.37 C 887.556 1136.47 889.141 1136.53 891.319 1136.45 C 890.613 1132.79 889.021 1136.45 885.985 1132.54 C 887.727 1124.24 889.162 1129.02 893.483 1127.62 C 892.912 1125.76 891.486 1125.38 889.437 1123.95 C 889.597 1120.56 888.992 1121.94 890.922 1119.52 C 893.044 1119.37 894.431 1119.24 896.527 1118.89 L 896.687 1117.34 C 893.413 1116.76 894.473 1117.38 892.101 1115.43 L 892.067 1112.53 C 894.309 1110.33 894.418 1111.03 898.372 1110.6 C 898.078 1108.61 897.19 1107.94 895.872 1106.06 C 895.952 1102.99 895.326 1104.1 897.002 1102.25 L 900.933 1103.16 L 902.121 1101.96 C 899.632 1099.9 899.534 1099.94 897.738 1097.31 C 898.501 1094.69 897.804 1095.86 900.536 1094.17 L 905.433 1095.39 L 906.502 1094.56 C 903.741 1092.58 902.029 1091.76 900.523 1088.72 C 901.312 1085.38 900.523 1086.93 903.725 1084.38 C 906.56 1085.64 907.373 1086.04 910.447 1086.87 C 911.536 1083.2 906.898 1086 904.458 1080.57 C 905.226 1076.83 904.27 1077.7 906.396 1076.08 C 910.656 1077.49 914.005 1079.72 917.147 1076.17 C 913.105 1075.92 909.422 1076.3 906.975 1072.95 C 907.396 1068.83 906.456 1070.2 908.933 1068.11 C 912.151 1067.87 913.322 1068.83 916.221 1070.29 L 917.317 1070.86 L 917.363 1069.43 C 915.202 1067.73 913.604 1066.36 911.57 1064.55 L 911.42 1061.82 L 913.979 1059.95 C 920.139 1060.14 920.512 1066.55 925.704 1067.94 C 923.806 1062.45 918.153 1061.59 916.456 1056.11 L 917.762 1053.69 L 919.412 1053.29 C 923.904 1054.4 928.295 1058.46 932.527 1061.34 L 932.67 1060.58 C 929.213 1055.95 926.519 1054.29 921.949 1050.93 L 924.674 1048.67 L 926.22 1048.01 C 931.11 1049.94 938.715 1055.89 945.249 1059.11 C 932.776 1045.27 919.094 1039.09 903.537 1029.22 L 851.379 996.081 C 833.918 984.95 816.76 972.275 800.029 960.029 L 800.985 957.404 L 796.96 954.803 z"/>
<path transform="translate(0,0)" fill="rgb(255,255,255)" d="M 832.922 961.577 C 849.768 967.092 861.368 975.676 875.689 985.762 C 900.493 1002.43 924.979 1019.45 950.528 1035.03 C 952.406 1036.17 954.676 1038.22 955.696 1040.22 L 955.203 1040.6 C 935.561 1035.8 876.083 992.261 858.533 979.489 C 852.237 974.908 838.882 966.572 832.922 961.577 z"/>
<path transform="translate(0,0)" fill="rgb(255,255,255)" d="M 883.854 979.415 C 906.418 986.075 931.856 1004.14 951.659 1017.4 C 955.221 1019.78 969.591 1030.82 972.565 1032.14 L 970.987 1035.6 C 968.446 1035.65 969.428 1035.8 967.048 1034.57 C 964.15 1031.43 953.508 1024.57 949.485 1021.91 C 935.106 1012.4 920.663 1002.99 906.156 993.671 C 899.634 989.536 889.142 983.955 883.854 979.415 z"/>
<path transform="translate(0,0)" fill="rgb(16,15,15)" d="M 796.96 954.803 C 796.919 951.412 796.438 952.513 797.924 949.908 L 799.351 951.53 C 844.377 986.733 893.918 1015.17 942.79 1044.71 C 944.787 1045.92 948.049 1047.86 948.514 1050.07 C 942.221 1048.38 934.564 1043.36 928.967 1039.78 C 890.823 1015.44 851.595 992.55 814.696 966.339 C 810.146 963.106 805.869 960.14 800.985 957.404 L 796.96 954.803 z"/>
<path transform="translate(0,0)" fill="rgb(16,15,15)" d="M 827.885 961.451 C 830.831 959.581 829.585 959.541 831.975 960.016 L 832.922 961.577 C 838.882 966.572 852.237 974.908 858.533 979.489 C 876.083 992.261 935.561 1035.8 955.203 1040.6 C 953.844 1041.79 953.351 1041.72 951.542 1042.43 C 944.538 1042.37 884.703 1001.31 872.703 993.418 C 857.802 980.881 844.132 972.048 827.885 961.451 z"/>
<path transform="translate(0,0)" fill="rgb(16,15,15)" d="M 876.776 978.686 L 879.194 977.092 C 881.789 977.673 881.675 977.803 883.854 979.415 C 889.142 983.955 899.634 989.536 906.156 993.671 C 920.663 1002.99 935.106 1012.4 949.485 1021.91 C 953.508 1024.57 964.15 1031.43 967.048 1034.57 C 951.767 1031.52 910.625 996.196 893.811 988.909 C 889.972 987.246 880.293 981.074 876.776 978.686 z"/>
<path transform="translate(0,0)" fill="rgb(16,15,15)" d="M 878.303 984.661 C 887.1 990.608 956.776 1035.82 959.333 1039.49 L 958.803 1041.05 L 957.038 1041.35 L 955.696 1040.22 C 954.676 1038.22 952.406 1036.17 950.528 1035.03 C 924.979 1019.45 900.493 1002.43 875.689 985.762 L 878.303 984.661 z"/>
<path transform="translate(0,0)" fill="rgb(255,255,255)" d="M 816.236 956.346 C 820.707 958.052 823.602 959.318 827.885 961.451 C 844.132 972.048 857.802 980.881 872.703 993.418 C 868.871 994.054 867.045 994.519 864.619 991.547 C 858.208 984.053 825.639 966.103 816.236 956.346 z"/>
<path transform="translate(0,0)" fill="rgb(16,15,15)" d="M 811.967 956.446 L 814.508 954.981 L 816.236 956.346 C 825.639 966.103 858.208 984.053 864.619 991.547 C 854.588 986.893 820.527 964.002 811.967 956.446 z"/>
<path transform="translate(0,0)" fill="rgb(255,255,255)" d="M 1032.74 1054.74 L 1049.19 1047.61 C 1057.22 1056.17 1072.08 1077.23 1079.33 1087.35 C 1097.81 1113.44 1116.01 1139.74 1133.93 1166.22 C 1146.06 1184.44 1155.6 1202.57 1169.89 1219.46 C 1174.27 1224.63 1199.82 1257.85 1199.9 1261.56 C 1197.41 1260.97 1194.89 1259.02 1191.41 1257.98 C 1188.27 1252.62 1194.55 1255.95 1190.14 1252.45 C 1186.06 1254.38 1188.03 1254.24 1184.13 1253.68 C 1180.59 1250.63 1180.84 1251.09 1181.64 1246.12 C 1180.26 1244.31 1180.51 1244.47 1178.81 1242.99 L 1178.61 1247.5 L 1176.98 1248.65 L 1175.2 1248.14 C 1172.75 1243.89 1173.07 1246.09 1174.3 1241.28 C 1173.35 1239.91 1174.03 1240.57 1171.96 1239.68 C 1170.79 1241.9 1170.8 1242.23 1169.01 1243.93 C 1163.18 1240.41 1167.91 1240.58 1166.93 1236.3 C 1160.02 1234.33 1167.08 1237.96 1160.59 1238.58 L 1158.77 1236.12 C 1158.82 1232.78 1159.23 1231.3 1157.16 1228.44 C 1156.51 1231.41 1156.6 1231.29 1155.04 1233.88 L 1153.18 1234.31 C 1149.28 1230 1150.75 1228.06 1151.99 1223 C 1149.22 1224.54 1149.29 1225.93 1146.09 1228.66 L 1143.05 1227.42 C 1141.77 1224.07 1143.34 1222.03 1144.79 1217.95 L 1143.85 1217.14 C 1142.27 1219.12 1141.04 1220.49 1139.33 1222.33 C 1135.9 1222.86 1137.52 1223.15 1134.39 1221.09 C 1133.59 1216.02 1136.5 1217.85 1135.91 1213.59 C 1133.55 1213.29 1133.58 1215.73 1129.52 1218.2 L 1126.5 1217.36 C 1125.34 1214.46 1126.41 1213.86 1127.78 1209.94 L 1126.98 1208.86 C 1121.77 1208.22 1125.04 1211.46 1119.51 1212.24 C 1117.04 1210.47 1117.62 1211.62 1117.13 1209.05 L 1120.12 1205.56 L 1119.84 1204.42 L 1117.99 1204.04 L 1114.6 1207.03 C 1110.82 1207.37 1112.69 1207.64 1108.95 1205.48 C 1108.46 1200.66 1111.66 1202.88 1111.67 1198.33 L 1110.1 1198.02 C 1107.86 1200.19 1107.71 1200.37 1105.07 1201.99 C 1101.54 1201.13 1103.24 1201.79 1100.09 1198.75 L 1097.76 1196.85 C 1095.76 1196.28 1095.97 1196.25 1094.11 1195.23 C 1094.06 1191.61 1097.08 1189.31 1099.88 1185.99 C 1093.13 1190.25 1089.98 1192.25 1082.69 1195.34 C 1086.66 1189.19 1091.58 1184.46 1096.44 1178.92 C 1091.66 1182.53 1087.55 1186.54 1081.5 1186.52 L 1080.8 1185.04 C 1083.38 1178.94 1086.38 1178.08 1089.06 1173.2 C 1084.3 1174.37 1080.93 1181.64 1075.24 1183.62 L 1073.92 1182.51 C 1073.83 1177.31 1076.39 1176.65 1076.31 1174.32 C 1073.54 1176.8 1072.8 1178.19 1069.53 1178.99 C 1066.02 1177.24 1066.94 1178.51 1065.36 1175.74 C 1070.3 1171.43 1074 1168.64 1079.3 1164.78 C 1074.07 1167.43 1063.68 1173.99 1058.34 1172.03 C 1059.37 1169.24 1069.91 1159.75 1073.51 1155.23 C 1066.91 1158.53 1058.77 1169.55 1052.24 1168.59 C 1050.73 1166.38 1051.34 1167.55 1051.26 1164.35 L 1054.37 1161.46 L 1052.79 1160.75 C 1049.11 1163.03 1045.03 1163.66 1042.35 1159.54 C 1043.02 1156.96 1058 1143.58 1061.42 1140.26 C 1056.57 1141.14 1043.55 1158.16 1035.71 1155.71 C 1035.18 1148.72 1054.61 1141.96 1058.82 1133.38 L 1055.14 1131.06 L 1055.17 1130.12 C 1050.66 1130.34 1043.76 1136.95 1039.71 1138.24 C 1024.28 1143.15 1011.69 1151.52 997.546 1159.37 L 915.814 1205.8 C 904.098 1212.44 886.078 1223.62 874.244 1228.41 C 886.809 1215.17 906.369 1206.8 922.193 1197.08 C 962.817 1172.14 1004.53 1151.66 1045.66 1127.43 L 1044.21 1125.45 L 1036.38 1128.64 L 1036.52 1123.75 C 1039.13 1120.21 1043.24 1119.26 1047.17 1115.06 L 1046.46 1113.99 C 1043.03 1114.57 1037.71 1118.54 1033.94 1120.64 L 1032.47 1119.65 L 1032.66 1117.76 C 1035.47 1113.4 1037.81 1111.94 1041.82 1108.71 C 1037.35 1110.96 1035.34 1111.93 1030.56 1113.43 L 1029.48 1113.76 L 1028.97 1109.96 C 1030.61 1107.06 1042.09 1100.48 1045.68 1098.24 C 1026.25 1104.71 1013.72 1114.48 996.702 1123.88 C 974.939 1135.91 951.033 1151.17 929.113 1162.27 C 937.501 1151.8 941.393 1150.61 950.655 1144.64 C 959.364 1139.03 1037.17 1096.86 1039.32 1091.76 C 1020.22 1098.08 984.639 1121.88 965.243 1132 L 963.988 1129.39 C 968.853 1124.03 978.941 1119.46 984.927 1115.65 C 998.886 1106.77 1031.48 1090.38 1042.13 1080.22 C 1029.43 1086.14 1016.99 1092.61 1004.84 1099.61 C 997.068 1104.06 964.827 1124.9 959.473 1126.04 L 959.579 1124 C 967.913 1114.55 1034.79 1080.98 1035.46 1075.3 C 1030.61 1075.34 975.886 1108.77 966.456 1114.04 C 983.538 1095.26 1013.27 1084.15 1033.38 1069.6 L 1033.29 1068.1 L 1032.13 1063.91 C 1033.45 1061.44 1033.15 1061.9 1033.86 1059.09 L 1032.74 1054.74 z"/>
<path transform="translate(0,0)" fill="rgb(255,255,255)" d="M 1151.99 1223 C 1153.67 1224.99 1155.08 1226.88 1157.16 1228.44 C 1156.51 1231.41 1156.6 1231.29 1155.04 1233.88 L 1153.18 1234.31 C 1149.28 1230 1150.75 1228.06 1151.99 1223 z"/>
<path transform="translate(0,0)" fill="rgb(68,67,68)" d="M 1052.79 1160.75 C 1057.63 1155.93 1061.98 1151.06 1067.87 1147.63 L 1069.14 1147.67 L 1068.49 1148.88 L 1067.68 1147.74 L 1067.29 1147.95 L 1067.56 1150 C 1063.17 1154.03 1058.92 1157.63 1054.37 1161.46 L 1052.79 1160.75 z"/>
<path transform="translate(0,0)" fill="rgb(255,255,255)" d="M 1174.3 1241.28 C 1175.21 1241.64 1178.02 1242.83 1178.81 1242.99 L 1178.61 1247.5 L 1176.98 1248.65 L 1175.2 1248.14 C 1172.75 1243.89 1173.07 1246.09 1174.3 1241.28 z"/>
<path transform="translate(0,0)" fill="rgb(16,15,15)" d="M 1044.21 1125.45 C 1047.62 1123.4 1047.43 1122.76 1050.78 1122.76 C 1049.51 1125.6 1048.72 1125.37 1045.66 1127.43 L 1044.21 1125.45 z"/>
<path transform="translate(0,0)" fill="rgb(16,15,15)" d="M 1097.76 1196.85 C 1100.41 1194.22 1100.39 1193.22 1103.2 1193.04 C 1102.63 1196.09 1102.05 1196.35 1100.09 1198.75 L 1097.76 1196.85 z"/>
<path transform="translate(0,0)" fill="rgb(255,255,255)" d="M 1063.53 975.45 C 1076.82 962.466 1088.71 941.186 1098.54 925.176 C 1101.42 920.484 1104.47 910.407 1109.09 908.598 L 1110.69 909.675 C 1111.28 916.265 1091.92 945.634 1087.53 952.508 L 1089.18 954.213 C 1095.91 944.914 1113.3 913.227 1118.3 909.589 L 1120.95 910.031 C 1121.83 910.621 1122.4 911.137 1123.35 911.453 C 1127.2 909.776 1125.88 910.256 1130.78 911.276 L 1132.27 913.361 C 1133.23 912.147 1133.32 912.36 1134.8 911.529 L 1139.24 912.958 L 1142.37 911.868 L 1145.32 912.687 C 1146.14 916.4 1142.37 924.27 1141.12 929.338 C 1145.31 923.02 1148.83 914.2 1154.98 912.952 L 1157.44 913.796 C 1158.22 916.355 1156.94 918.349 1155.89 920.98 L 1156.57 923.2 L 1157.87 922.905 C 1159.63 919.718 1159.69 918.831 1160.46 915.375 C 1162.93 913.397 1161.48 914.098 1165.45 914.301 L 1166.7 915.496 L 1166.43 917.228 C 1166.09 919.522 1166.02 921.044 1165.92 923.352 L 1167.28 923.536 C 1169.76 918.395 1168.75 916.708 1172.17 914.525 C 1174.89 915.271 1175.44 915.107 1177.46 916.945 L 1180.02 917.114 C 1182.56 915.839 1182.42 915.983 1185.3 916.137 C 1187.67 918.937 1186.96 920.063 1187.42 924.584 L 1188.66 924.498 C 1190.1 920.364 1189.64 919.418 1192.46 917.07 C 1196.74 916.528 1195.1 915.941 1198.04 917.6 C 1198.46 920.898 1198.15 921.753 1197.57 924.942 L 1198.73 925.581 C 1200.95 924.118 1201.52 921.418 1202.54 918.776 C 1205.62 917.531 1203.97 917.872 1207.77 918.466 L 1208.92 920.034 C 1208.35 922.071 1207.81 923.94 1207.16 925.952 L 1208.63 926.447 C 1211.55 922.449 1214.17 913.812 1220.86 920.542 C 1221.19 922.686 1221.57 924.824 1221.99 926.953 C 1231.23 920.671 1214.8 921.201 1235.76 921.008 L 1238.18 921.752 C 1242.82 922.303 1242.46 921.445 1244.54 924.075 C 1244.07 927.151 1244.01 927.068 1242.63 929.898 L 1243.4 930.649 L 1245.21 930.269 C 1246.6 927.502 1246.84 926.807 1247.77 923.839 C 1250.26 922.372 1250.15 922.57 1253.09 922.814 C 1254.86 925.049 1254.69 926.214 1255.09 929.089 L 1256.3 929.433 L 1259.15 924.346 C 1263.02 923.902 1261.43 923.389 1264.23 925.305 L 1265.81 929.658 L 1266.84 929.829 C 1269.11 927.108 1269.39 925.789 1272.21 924.844 C 1274.27 926.006 1274.53 926.125 1274.82 928.837 C 1273.86 931.714 1273.48 931.948 1273.84 934.873 C 1227.67 952.585 1175.67 968.902 1128.73 985.346 C 1108.84 992.316 1076.36 1003.96 1056.93 1009.54 C 1052.72 1002.8 1050.91 1000.53 1045.62 994.545 C 1051.06 986.988 1055.47 980.155 1060.43 972.326 L 1062.38 975.398 L 1063.53 975.45 z"/>
<path transform="translate(0,0)" fill="rgb(16,15,15)" d="M 1120.95 910.031 C 1121.83 910.621 1122.4 911.137 1123.35 911.453 C 1121.92 922.635 1093.74 962.962 1085.53 972.675 C 1091.85 957.224 1115.59 928.425 1120.95 910.031 z"/>
<path transform="translate(0,0)" fill="rgb(16,15,15)" d="M 1130.78 911.276 L 1132.27 913.361 C 1128.99 924.475 1104.12 964.19 1095.78 973.477 C 1103.85 955.351 1122.48 931.996 1130.78 911.276 z"/>
<path transform="translate(0,0)" fill="rgb(16,15,15)" d="M 1139.24 912.958 L 1142.37 911.868 C 1140.38 918.927 1120.69 953.753 1116.26 959.36 L 1115.84 958.892 C 1121.85 943.028 1133.72 928.797 1138.73 914.46 L 1139.24 912.958 z"/>
<path transform="translate(0,0)" fill="rgb(16,15,15)" d="M 1089.18 954.213 C 1084.76 961.18 1082.19 965.805 1076.36 971.58 L 1075.83 971.273 C 1078.65 964.712 1083.41 958.426 1087.53 952.508 L 1089.18 954.213 z"/>
<path transform="translate(0,0)" fill="rgb(16,15,15)" d="M 1235.76 921.008 L 1238.18 921.752 C 1237.21 924.717 1236.81 927.041 1233.84 928.102 C 1233.4 924.485 1233.94 924.948 1235.76 921.008 z"/>
<path transform="translate(0,0)" fill="rgb(16,15,15)" d="M 1177.46 916.945 L 1180.02 917.114 C 1179.09 920.501 1179.19 921.787 1176.77 923.472 C 1175.61 920.724 1176.37 920.64 1177.46 916.945 z"/>
<path transform="translate(0,0)" fill="rgb(16,15,15)" d="M 1155.44 937.649 L 1156.54 938.831 C 1155.99 940.747 1146.48 952.393 1144.03 956.015 L 1143.17 955.268 C 1143.11 950.689 1152.24 941.334 1155.44 937.649 z"/>
<path transform="translate(0,0)" fill="rgb(197,143,72)" d="M 1010.37 1044.73 C 979.031 1026.48 1012.81 970.46 1045.11 999.523 C 1051.49 1007.86 1054.53 1011.84 1053.73 1022.81 C 1052.34 1030.56 1051.45 1038.13 1044.39 1043.01 C 1036.58 1048.4 1024.83 1046.84 1018.34 1048.13 L 1014.68 1046.09 L 1014.24 1046.13 L 1010.37 1044.73 z"/>
<path transform="translate(0,0)" fill="rgb(173,124,61)" d="M 1010.37 1044.73 C 1011.22 1035.13 1009.26 1011.35 1009.46 1000.92 C 1009.48 999.662 1015.51 995.783 1018.68 995.27 L 1019.42 996.455 C 1014.72 1004.66 1014.46 1007.28 1016.84 1017.1 L 1017.09 1018.08 L 1017.2 1019.99 L 1015.41 1019.6 C 1015.66 1025.25 1016.18 1040.98 1014.68 1046.09 L 1014.24 1046.13 L 1010.37 1044.73 z"/>
<path transform="translate(0,0)" fill="rgb(226,167,84)" d="M 1014.43 1011.35 L 1015.41 1019.6 C 1015.66 1025.25 1016.18 1040.98 1014.68 1046.09 L 1014.24 1046.13 C 1012.35 1036.4 1012.13 1022.94 1012.03 1012.95 L 1014.43 1011.35 z"/>
<path transform="translate(0,0)" fill="rgb(226,167,84)" d="M 1012.03 1012.95 C 1011.87 1008.49 1011.6 1007.37 1012.79 1003.18 C 1014.46 1005.62 1014.09 1007.93 1014.43 1011.35 L 1012.03 1012.95 z"/>
<path transform="translate(0,0)" fill="rgb(226,167,84)" d="M 1017.09 1018.08 L 1020.94 1013.4 C 1022.87 1016.43 1021.56 1044.32 1018.34 1048.13 L 1014.68 1046.09 C 1016.18 1040.98 1015.66 1025.25 1015.41 1019.6 L 1017.2 1019.99 L 1017.09 1018.08 z"/>
<path transform="translate(0,0)" fill="rgb(197,143,72)" d="M 1015.41 1019.6 L 1017.2 1019.99 C 1017.96 1029.83 1018.18 1038.31 1018.34 1048.13 L 1014.68 1046.09 C 1016.18 1040.98 1015.66 1025.25 1015.41 1019.6 z"/>
<path transform="translate(0,0)" fill="rgb(255,255,255)" d="M 765.056 942.975 L 765.01 941.068 C 781.674 947.706 824.786 982.025 841.864 992.696 C 854.743 1000.74 918.679 1039.67 924.674 1048.67 L 921.949 1050.93 C 926.519 1054.29 929.213 1055.95 932.67 1060.58 L 932.527 1061.34 C 928.295 1058.46 923.904 1054.4 919.412 1053.29 L 917.762 1053.69 L 916.456 1056.11 C 918.153 1061.59 923.806 1062.45 925.704 1067.94 C 920.512 1066.55 920.139 1060.14 913.979 1059.95 L 911.42 1061.82 L 911.494 1060.54 C 902.773 1054.86 886.343 1040.95 877.833 1034.1 C 874.718 1031.55 870.725 1028.95 867.406 1026.52 C 838.046 1004.96 809.97 981.957 780.917 959.936 C 776.981 957.117 763.179 947.516 761.512 943.758 L 763.201 944.352 L 765.056 942.975 z"/>
<path transform="translate(0,0)" fill="rgb(255,255,255)" d="M 765.056 942.975 L 765.01 941.068 C 781.674 947.706 824.786 982.025 841.864 992.696 C 854.743 1000.74 918.679 1039.67 924.674 1048.67 L 921.949 1050.93 C 891.084 1027.41 855.568 1010.08 824.464 986.757 C 804.918 972.104 785.013 956.998 765.056 942.975 z"/>
<path transform="translate(0,0)" fill="rgb(16,15,15)" d="M 765.056 942.975 C 785.013 956.998 804.918 972.104 824.464 986.757 C 855.568 1010.08 891.084 1027.41 921.949 1050.93 C 926.519 1054.29 929.213 1055.95 932.67 1060.58 L 932.527 1061.34 C 928.295 1058.46 923.904 1054.4 919.412 1053.29 L 917.762 1053.69 L 916.456 1056.11 C 918.153 1061.59 923.806 1062.45 925.704 1067.94 C 920.512 1066.55 920.139 1060.14 913.979 1059.95 L 911.42 1061.82 L 911.494 1060.54 C 902.773 1054.86 886.343 1040.95 877.833 1034.1 L 879.648 1033.16 C 886.045 1034.03 906.614 1051.65 914.027 1054.15 C 915.576 1054.67 915.609 1054.11 917.503 1053.01 C 915.79 1045.44 827.782 994.031 815.199 982.739 C 809.847 977.937 789.977 964.101 783.024 958.923 L 780.917 959.936 C 776.981 957.117 763.179 947.516 761.512 943.758 L 763.201 944.352 L 765.056 942.975 z"/>
<path transform="translate(0,0)" fill="rgb(255,255,255)" d="M 877.833 1034.1 L 879.648 1033.16 C 884.742 1038.26 912.111 1053.92 911.879 1059.23 C 911.859 1059.68 911.622 1060.1 911.494 1060.54 C 902.773 1054.86 886.343 1040.95 877.833 1034.1 z"/>
<path transform="translate(0,0)" fill="rgb(206,208,206)" d="M 780.917 959.936 C 776.981 957.117 763.179 947.516 761.512 943.758 L 763.201 944.352 L 783.024 958.923 L 780.917 959.936 z"/>
<path transform="translate(0,0)" fill="rgb(255,255,255)" d="M 1242.96 981.174 C 1238.61 984.644 1233.87 988.276 1228.72 990.462 C 1195.78 1004.46 1161.61 1015.83 1128.05 1028.26 C 1118.83 1031.67 1111.32 1034.13 1101.87 1036.67 C 1094.54 1047.7 1085.49 1069.44 1080.34 1075.81 L 1078.66 1076.01 C 1077.31 1074.6 1077.5 1073.02 1077.75 1071.31 L 1076.33 1069.42 L 1074.15 1068.87 C 1073.12 1067.12 1072.22 1066.46 1072.97 1064.28 C 1075.89 1055.77 1084.98 1041.63 1090.47 1034.85 C 1125.51 1023.81 1160.25 1011.82 1194.64 998.892 C 1210.81 992.957 1227.07 987.736 1242.96 981.174 z"/>
<path transform="translate(0,0)" fill="rgb(16,15,15)" d="M 1076.33 1069.42 C 1079.71 1062.32 1089.13 1041.37 1095.05 1038.12 L 1095.97 1038.65 C 1089.71 1048.62 1083.62 1062.97 1077.75 1071.31 L 1076.33 1069.42 z"/>
<path transform="translate(0,0)" fill="rgb(255,255,255)" d="M 1255.2 968.9 L 1256.61 969.251 C 1249.75 979.215 1110.99 1025.75 1089.43 1031.85 C 1081.78 1042.01 1076.21 1051.47 1069.61 1062.34 C 1068.26 1060.97 1065.84 1057.66 1067.58 1055.73 C 1073.19 1049.51 1079.45 1034.39 1086.29 1030.4 C 1098.22 1023.31 1112.89 1020.7 1125.41 1015.28 C 1166.48 997.521 1215.05 987.052 1255.2 968.9 z"/>
<path transform="translate(0,0)" fill="rgb(255,255,255)" d="M 1271.44 955.982 L 1272.51 956.41 C 1270.19 959.222 1257.16 965.317 1253.36 966.671 C 1206.17 983.466 1158.76 999.284 1112.01 1017.34 C 1100.73 1021.69 1087.07 1024.25 1076.14 1028.95 C 1071.78 1030.83 1060.73 1039.57 1055.88 1042.68 C 1054.1 1042.02 1054.95 1042.46 1053.62 1040.48 L 1054.22 1038.6 C 1071.37 1020.49 1235.55 971.957 1271.44 955.982 z"/>
<path transform="translate(0,0)" fill="rgb(255,255,255)" d="M 1283.01 946.318 L 1283.3 946.441 C 1280.83 948.969 1268.34 953.905 1264.44 955.313 C 1218.49 971.927 1172.17 987.375 1126.25 1004.07 C 1104.17 1012.1 1081.7 1020.86 1059.43 1028.2 L 1058.95 1027.82 L 1058.91 1026.56 C 1070.86 1015.22 1248.75 958.75 1283.01 946.318 z"/>
<path transform="translate(0,0)" fill="rgb(255,255,255)" d="M 1218.25 997.981 L 1219.39 998.354 C 1214.07 1009 1138.55 1030.02 1125.14 1038.15 C 1120.59 1040.92 1115.59 1039.16 1111.9 1042.5 C 1112.56 1044.48 1112.05 1043.54 1114.25 1044.98 C 1105.71 1058.91 1098.39 1073.14 1090.79 1087.58 C 1089.95 1088.85 1090.53 1088.24 1088.87 1089.2 L 1087.69 1087.87 C 1088.62 1074.47 1105.79 1049.7 1112.58 1037.37 C 1127.12 1030.59 1147.71 1023.93 1162.93 1018.62 C 1181.53 1012.17 1199.97 1005.29 1218.25 997.981 z"/>
<path transform="translate(0,0)" fill="rgb(255,255,255)" d="M 1036.52 1123.75 L 1036.38 1128.64 C 1031.41 1132.66 1017.55 1139.65 1011.47 1143.03 C 995.109 1152.12 978.293 1160.84 961.909 1169.91 C 937.117 1183.64 912.566 1200.55 887.166 1212.92 C 896.188 1202.01 923.747 1186.69 937.123 1179.36 C 969.67 1161.51 1003.23 1139.83 1036.52 1123.75 z"/>
<path transform="translate(0,0)" fill="rgb(255,255,255)" d="M 1113.21 1125.07 C 1109.99 1119.69 1114.65 1113 1118.06 1108.32 C 1123.6 1100.73 1136.41 1074.43 1141.94 1069.92 C 1144.69 1074.02 1144.05 1075.88 1142.76 1080.08 L 1145.77 1080.54 C 1146.59 1082.66 1147.57 1084.29 1146.31 1086.62 C 1142.87 1093 1122.3 1127.9 1118.65 1130.93 C 1117.81 1129.9 1117.24 1129.31 1116.57 1128.16 L 1115.58 1125.91 L 1113.21 1125.07 z"/>
<path transform="translate(0,0)" fill="rgb(255,255,255)" d="M 1113.21 1125.07 C 1109.99 1119.69 1114.65 1113 1118.06 1108.32 C 1123.6 1100.73 1136.41 1074.43 1141.94 1069.92 C 1144.69 1074.02 1144.05 1075.88 1142.76 1080.08 C 1137.53 1083.3 1119.77 1117.87 1113.21 1125.07 z"/>
<path transform="translate(0,0)" fill="rgb(16,15,15)" d="M 1142.76 1080.08 L 1145.77 1080.54 C 1140.73 1086.44 1118.46 1121.91 1116.57 1128.16 L 1115.58 1125.91 L 1113.21 1125.07 C 1119.77 1117.87 1137.53 1083.3 1142.76 1080.08 z"/>
<path transform="translate(0,0)" fill="rgb(255,255,255)" d="M 1023.59 1147.88 C 1024.99 1148.39 1024.18 1147.97 1025.78 1149.52 L 1024.6 1151.1 C 1000.69 1161.6 991.069 1171.14 969.863 1185 C 958.323 1191.79 944.693 1196.36 933.299 1203.27 C 910.014 1217.4 887.634 1230.83 863.441 1243.35 L 862.498 1243.29 C 871.741 1233.08 887.436 1225.7 899.91 1218.73 C 925.51 1204.41 951.604 1186.48 977.821 1173.63 C 994.196 1165.61 1008.01 1155.69 1023.59 1147.88 z"/>
<path transform="translate(0,0)" fill="rgb(255,255,255)" d="M 1283.85 939.856 L 1285.1 941.066 C 1264.88 949.146 1243.26 955.794 1222.77 963.531 C 1181.11 979.267 1138 991.466 1096.05 1006.42 C 1085.29 1010.26 1072.6 1016.93 1061.22 1018.51 L 1060.75 1017.76 C 1072 1008.6 1183.68 974.847 1204.81 967.087 C 1223.95 960.061 1263 947.215 1283.85 939.856 z"/>
<path transform="translate(0,0)" fill="rgb(255,255,255)" d="M 1197.39 1013.98 C 1198.78 1013.75 1198.03 1013.71 1199.63 1014.34 C 1186.33 1027.81 1134.85 1036.29 1121.46 1050.1 C 1115.77 1055.96 1099.84 1086.21 1094.87 1095.1 L 1092.77 1094.56 C 1091.71 1091.49 1092.19 1090.87 1093.38 1087.69 C 1114.84 1030.28 1144.51 1034.97 1197.39 1013.98 z"/>
<path transform="translate(0,0)" fill="rgb(255,255,255)" d="M 1029.5 1118.11 L 1030.68 1120.54 C 1028.71 1125.67 981.441 1150.52 973.004 1155.15 C 950.492 1167.49 927.844 1181.33 905.319 1193.51 L 904.468 1192.63 L 904.722 1190.87 C 907.996 1187.43 925.013 1178.1 930.169 1175.03 C 962.846 1155.31 995.965 1136.33 1029.5 1118.11 z"/>
<path transform="translate(0,0)" fill="rgb(255,255,255)" d="M 1131.51 1153.04 C 1131.17 1151.67 1130.72 1149.24 1131.35 1148.11 C 1135.16 1141.26 1149.84 1116.28 1155.5 1113.48 C 1157.19 1115.91 1156.51 1115.6 1155.87 1119.57 L 1158.81 1121.01 C 1161.4 1129.13 1144.57 1155.36 1136.5 1157.71 C 1134.7 1155.33 1135.42 1156.65 1135.57 1152.73 L 1131.51 1153.04 z"/>
<path transform="translate(0,0)" fill="rgb(255,255,255)" d="M 1158.81 1121.01 C 1161.4 1129.13 1144.57 1155.36 1136.5 1157.71 C 1134.7 1155.33 1135.42 1156.65 1135.57 1152.73 C 1142.56 1146.68 1151.81 1128.99 1158.81 1121.01 z"/>
<path transform="translate(0,0)" fill="rgb(16,15,15)" d="M 1155.87 1119.57 L 1158.81 1121.01 C 1151.81 1128.99 1142.56 1146.68 1135.57 1152.73 L 1131.51 1153.04 C 1138.49 1148.49 1149.61 1127.6 1155.87 1119.57 z"/>
<path transform="translate(0,0)" fill="rgb(255,255,255)" d="M 1028.97 1109.96 L 1029.48 1113.76 C 1024.61 1116.14 1018.55 1120.05 1013.78 1122.93 C 992.617 1135.71 970.71 1147.1 949.432 1159.67 C 937.809 1166.53 926.231 1174.38 914 1180 C 932.815 1161.59 961.489 1148.19 984.53 1135.06 C 998.813 1126.92 1014.53 1117.45 1028.97 1109.96 z"/>
<path transform="translate(0,0)" fill="rgb(255,255,255)" d="M 1181.07 1028.2 L 1181.43 1028.54 L 1181.13 1029.8 C 1167.17 1039.13 1146.58 1044.97 1130.47 1050.4 C 1122.53 1059.49 1106.18 1091.2 1099.11 1103.71 C 1096.69 1098.98 1096.66 1097.93 1098.81 1092.97 C 1119.93 1044.26 1135.52 1044.49 1181.07 1028.2 z"/>
<path transform="translate(0,0)" fill="rgb(255,255,255)" d="M 1096.37 896.58 C 1096.77 897.59 1096.74 897.451 1097.06 898.857 C 1099.77 910.853 1051.34 978.475 1041.85 992.438 C 1041.51 990.31 1040.95 989.272 1042.22 987.277 C 1060.89 957.875 1077.12 925.488 1096.37 896.58 z"/>
<path transform="translate(0,0)" fill="rgb(255,255,255)" d="M 1036.23 968.918 C 1040.72 958.544 1082.88 882.896 1088.39 879.002 L 1089.66 879.743 C 1089.74 880.803 1089.81 881.864 1089.89 882.925 C 1076.25 909.501 1054.01 945.897 1039.08 969.923 L 1036.23 968.918 z"/>
<path transform="translate(0,0)" fill="rgb(255,255,255)" d="M 1092.47 886.712 C 1093.52 887.818 1093.42 888.272 1094.01 889.887 C 1092.06 899.951 1045.72 974.903 1037.08 988.078 C 1036.05 987.264 1036.61 987.841 1035.74 986.078 C 1039.68 974.719 1055 950.65 1061.64 939.25 C 1071.66 922.076 1081.99 903.431 1092.47 886.712 z"/>
<path transform="translate(0,0)" fill="rgb(255,255,255)" d="M 1084.47 866.725 C 1086.24 868.906 1086.47 871.885 1085.26 874.33 C 1069.94 905.279 1050.05 935.799 1033.19 965.705 L 1032.51 965.064 C 1034.62 951.575 1074.2 885.344 1084.47 866.725 z"/>
<path transform="translate(0,0)" fill="rgb(255,255,255)" d="M 1033.42 946.852 C 1039.78 925.263 1058.28 897.262 1069.45 877.196 C 1072.73 871.314 1076.29 862.708 1080 857.941 L 1081.41 858.29 C 1082.08 860.141 1083.27 862.604 1082.32 864.325 C 1079.53 869.377 1076.37 874.581 1073.51 879.574 L 1049.84 920.947 C 1045.91 927.779 1037.82 941.151 1035.24 948.136 L 1033.42 946.852 z"/>
<path transform="translate(0,0)" fill="url(#Gradient1)" d="M 1075.49 847.496 C 1076.42 848.304 1076.75 849.036 1077.47 850.103 C 1078.02 857.406 1060.18 886.475 1055.27 895.041 C 1047.27 909.001 1040.18 922.623 1033.03 937.117 L 1032.74 937.389 L 1032.15 936.131 C 1034.33 918.835 1066.02 865.198 1075.49 847.496 z"/>
<path transform="translate(0,0)" fill="rgb(255,255,255)" d="M 1072.52 836.622 C 1076.51 844.276 1049.74 887.751 1044.55 897.72 C 1040.24 905.962 1036.29 914.388 1032.71 922.975 L 1032.19 922.974 C 1029.63 907.053 1062.77 853.124 1072.52 836.622 z"/>
<path transform="translate(0,0)" fill="rgb(255,255,255)" d="M 1063.48 815.789 C 1064.83 817.372 1066.27 821.31 1065.42 823.179 C 1056.1 843.857 1043.86 865.226 1033.57 885.494 L 1032.84 885.723 L 1032.02 884.579 C 1034.37 869.417 1055.67 832.283 1063.48 815.789 z"/>
<path transform="translate(0,0)" fill="rgb(255,255,255)" d="M 1032.63 896.14 C 1035.04 886.063 1060.29 840.787 1066.51 829.348 L 1068.56 828.133 C 1069.63 829.225 1070.26 829.445 1069.82 830.587 C 1062.79 849.004 1045.39 878.805 1035.9 895.559 L 1032.63 896.14 z"/>
<path transform="translate(0,0)" fill="rgb(255,255,255)" d="M 1132.94 1053.45 C 1133.96 1053.88 1134.89 1054.79 1135.81 1055.54 C 1135.9 1056.24 1135.98 1056.95 1136.06 1057.65 C 1126.42 1072.14 1114.46 1095.21 1104.85 1108.51 L 1103.81 1108.69 C 1098.13 1104.75 1127.93 1059.21 1132.94 1053.45 z"/>
<path transform="translate(0,0)" fill="rgb(255,255,255)" d="M 1058.73 806.439 C 1060.37 807.389 1060.26 806.907 1060.78 808.615 C 1063.01 815.993 1038.44 858.138 1033.99 867.804 L 1033.24 868.165 C 1030.14 855.02 1051.92 821.52 1058.73 806.439 z"/>
<path transform="translate(0,0)" fill="rgb(255,255,255)" d="M 1135.08 1125.98 C 1138.43 1121.19 1148.39 1104.86 1151.76 1102.5 L 1153.07 1102.47 C 1155.99 1108.42 1133.06 1141.71 1127.98 1144.45 L 1126.43 1143.53 L 1125.79 1140.76 L 1123.91 1137.95 C 1126.65 1134.72 1130.82 1128.37 1133.4 1124.66 L 1135.08 1125.98 z"/>
<path transform="translate(0,0)" fill="rgb(16,15,15)" d="M 1133.4 1124.66 L 1135.08 1125.98 C 1132.45 1130.22 1128.57 1136.88 1125.79 1140.76 L 1123.91 1137.95 C 1126.65 1134.72 1130.82 1128.37 1133.4 1124.66 z"/>
<path transform="translate(0,0)" fill="rgb(255,255,255)" d="M 1152.3 1145.6 C 1154.34 1142.5 1159.77 1132.24 1161.56 1130.69 C 1163.38 1139.21 1153.04 1164.08 1146.8 1170.19 C 1144.6 1169.98 1145.57 1170.32 1143.85 1169.29 C 1144.21 1165.62 1144.49 1167.37 1142.71 1163.9 L 1140.7 1162.68 C 1140.69 1156.81 1145.98 1152.89 1150.33 1148.39 L 1152.3 1145.6 z"/>
<path transform="translate(0,0)" fill="rgb(255,255,255)" d="M 1150.33 1148.39 C 1150.15 1154.65 1146.35 1158.97 1142.71 1163.9 L 1140.7 1162.68 C 1140.69 1156.81 1145.98 1152.89 1150.33 1148.39 z"/>
<path transform="translate(0,0)" fill="rgb(16,15,15)" d="M 1150.33 1148.39 L 1152.3 1145.6 C 1150.76 1160.03 1147.08 1159.25 1143.85 1169.29 C 1144.21 1165.62 1144.49 1167.37 1142.71 1163.9 C 1146.35 1158.97 1150.15 1154.65 1150.33 1148.39 z"/>
<path transform="translate(0,0)" fill="rgb(255,255,255)" d="M 1138.49 1061.72 L 1139.47 1063.96 C 1136.76 1072.89 1114.72 1108.75 1108.89 1117.37 C 1107.03 1115.47 1107.84 1116.49 1107.05 1113.54 C 1108.78 1106.26 1132.15 1067.66 1138.49 1061.72 z"/>
<path transform="translate(0,0)" fill="rgb(255,255,255)" d="M 1123.91 1137.95 L 1122.77 1137.59 L 1122.07 1135.56 C 1123.58 1128.43 1143.12 1097.14 1148.26 1090.92 L 1149.43 1091.03 C 1152.14 1099.08 1138.4 1116.65 1133.4 1124.66 C 1130.82 1128.37 1126.65 1134.72 1123.91 1137.95 z"/>
<path transform="translate(0,0)" fill="rgb(255,255,255)" d="M 1060.43 972.326 C 1069.89 959.022 1077.99 944.7 1086.65 930.882 C 1090.26 925.119 1095.19 915.486 1099.51 910.762 L 1100.4 911.02 C 1098.34 927.541 1063.7 969.236 1063.53 975.45 L 1062.38 975.398 L 1060.43 972.326 z"/>
<path transform="translate(0,0)" fill="rgb(255,255,255)" d="M 1055.51 795.784 C 1056.13 796.657 1056.5 797.884 1056.92 798.947 C 1056.58 807.356 1038.82 838.693 1033.87 848.065 L 1032.98 847.87 C 1031.45 836.022 1048.94 807.84 1055.51 795.784 z"/>
<path transform="translate(0,0)" fill="rgb(255,255,255)" d="M 934.318 1206.79 L 935.648 1207.08 C 934.234 1212.03 863.434 1251.17 852.715 1257.2 C 851.889 1257.06 852.366 1257.23 851.451 1256.36 C 855.243 1250.75 886.811 1235.49 894.922 1230.53 C 907.301 1222.96 921.685 1214.17 934.318 1206.79 z"/>
<path transform="translate(0,0)" fill="rgb(255,255,255)" d="M 1108.54 1036.76 L 1110.12 1038.09 C 1108.27 1041.46 1105.34 1045.15 1103.19 1048.52 C 1095.89 1059.99 1091.41 1073.41 1084.47 1084.96 L 1082.8 1081.52 C 1083.87 1071.72 1098.59 1040.92 1108.54 1036.76 z"/>
<path transform="translate(0,0)" fill="rgb(255,255,255)" d="M 942.139 999.684 C 953.864 1003.4 993.362 1023.4 995.13 1034.77 L 992.63 1034.75 L 991.518 1033.58 C 975.846 1021.21 959.079 1010.21 942.139 999.684 z"/>
<path transform="translate(0,0)" fill="rgb(255,255,255)" d="M 1050.74 786.507 C 1053.13 788.011 1052.05 787.072 1053.32 790.357 C 1052.18 799.072 1038.81 820.583 1033.82 829.546 L 1032.86 830.78 L 1032.09 830.001 C 1032.46 822.426 1046.64 795.995 1050.74 786.507 z"/>
<path transform="translate(0,0)" fill="rgb(255,255,255)" d="M 1032.13 1063.91 L 1033.29 1068.1 C 1022.17 1069.8 997.316 1089.53 984.891 1093.33 C 988.992 1086.8 1024.1 1066.54 1032.13 1063.91 z"/>
<path transform="translate(0,0)" fill="rgb(255,255,255)" d="M 989.274 1083.91 C 1000.38 1070.1 1017.04 1063.02 1032.74 1054.74 L 1033.86 1059.09 C 1027.89 1060.89 996.685 1079.68 989.274 1083.91 z"/>
<path transform="translate(0,0)" fill="rgb(255,255,255)" d="M 1046.46 775.527 C 1048.85 777.638 1048 776.709 1049.24 779.999 C 1048.91 786.587 1036.83 808.048 1033.14 815.56 L 1032.37 815.961 L 1031.54 814.896 C 1034.1 801.596 1041.46 788.766 1046.46 775.527 z"/>
<path transform="translate(0,0)" fill="rgb(255,255,255)" d="M 1164.39 1140.53 C 1164.88 1140.96 1165.81 1142.38 1166.24 1142.98 C 1167.82 1152.35 1156.62 1169.46 1151.74 1178.09 C 1151.45 1177.69 1149.4 1174.6 1149.64 1174.02 C 1154.35 1162.63 1159.97 1152.18 1164.39 1140.53 z"/>
<path transform="translate(0,0)" fill="rgb(255,255,255)" d="M 1168.88 1152.5 C 1173.39 1161.73 1162.52 1178.26 1156.68 1185.26 C 1154.76 1181.83 1153.64 1181.38 1154.16 1178.4 C 1160.13 1173.19 1165.3 1160.06 1168.88 1152.5 z"/>
<path transform="translate(0,0)" fill="rgb(255,255,255)" d="M 1077.81 1030.51 L 1079.73 1031.07 L 1080.33 1032.38 C 1078.82 1035.69 1067.95 1050.52 1065.04 1054.9 C 1064.16 1054.7 1063.46 1054.13 1062.61 1053.62 L 1062.18 1051.56 C 1065.71 1042.62 1070.24 1036.3 1077.81 1030.51 z"/>
<path transform="translate(0,0)" fill="rgb(255,255,255)" d="M 1058.82 1133.38 C 1053.78 1136.89 1037.45 1149.84 1031.95 1149.45 L 1031.54 1149.91 C 1036.62 1142.04 1047.53 1136.42 1055.14 1131.06 L 1058.82 1133.38 z"/>
<path transform="translate(0,0)" fill="rgb(255,255,255)" d="M 1172.45 1163.63 C 1174.28 1165.37 1173.68 1164.91 1174.75 1167.5 C 1173.92 1175.32 1166.69 1184.4 1162.06 1191.11 L 1160.62 1190.01 C 1159.66 1185.3 1169.41 1169.71 1172.45 1163.63 z"/>
<path transform="translate(0,0)" fill="rgb(255,255,255)" d="M 1175.79 1174.64 C 1176.59 1175.39 1177.21 1176.52 1177.85 1177.5 C 1178.48 1183.23 1170.62 1192.93 1167.22 1199.13 C 1165.75 1196.9 1165.61 1196.93 1164.96 1194.4 C 1167.25 1187.7 1172.03 1180.86 1175.79 1174.64 z"/>
<path transform="translate(0,0)" fill="rgb(255,255,255)" d="M 864.81 1232.07 L 845.489 1255.56 C 845.734 1251.87 846.795 1249.73 848.091 1246.31 C 850.283 1244.5 850.117 1244.55 852.801 1243.66 C 851.905 1237.98 849.775 1245.37 850.098 1238.52 C 851.996 1236.1 853.782 1236.06 856.824 1235.31 L 857.208 1234.18 L 855.965 1233.16 C 859.377 1233.16 861.456 1232.63 864.81 1232.07 z"/>
<path transform="translate(0,0)" fill="rgb(255,255,255)" d="M 1043.23 766.629 C 1047.08 773.052 1037.08 789.291 1033.68 796.011 L 1032.78 795.557 C 1032.3 786.653 1038.67 774.335 1043.23 766.629 z"/>
<path transform="translate(0,0)" fill="rgb(206,208,206)" d="M 962.878 1004.93 C 972.587 1005.33 988.85 1017.67 993.888 1025.27 C 989.18 1024.61 970.415 1009.28 962.878 1004.93 z"/>
<path transform="translate(0,0)" fill="rgb(255,255,255)" d="M 1179.33 1184.6 L 1180.55 1185.83 C 1182.09 1191.53 1176.17 1199.86 1173.16 1206.8 C 1168.21 1199.45 1175.33 1191.29 1179.33 1184.6 z"/>
<path transform="translate(0,0)" fill="rgb(255,255,255)" d="M 1182.54 1194.62 C 1184.08 1196.04 1183.72 1195.96 1184.72 1198 C 1184.59 1202.36 1180.34 1210.47 1178.31 1215.01 C 1173.11 1206.97 1178.18 1201.97 1182.54 1194.62 z"/>
<path transform="translate(0,0)" fill="rgb(255,255,255)" d="M 1039.52 756.772 C 1042.85 763.561 1036.49 773.509 1033.38 780.244 L 1032.42 779.151 C 1031.79 771.59 1036.32 763.861 1039.52 756.772 z"/>
<path transform="translate(0,0)" fill="rgb(255,255,255)" d="M 1274.82 928.837 L 1276.6 930.693 C 1278.21 928.7 1277.87 928.968 1278.95 926.534 C 1282.22 925.585 1289.63 927.524 1293.06 928.46 C 1286.64 930.555 1280.23 932.692 1273.84 934.873 C 1273.48 931.948 1273.86 931.714 1274.82 928.837 z"/>
<path transform="translate(0,0)" fill="rgb(255,255,255)" d="M 1157.87 1045.08 L 1159.26 1045.69 C 1154.99 1050.22 1146.16 1052.93 1140.21 1055.08 L 1138.51 1053.63 C 1140.58 1049.87 1152.91 1046.72 1157.87 1045.08 z"/>
<path transform="translate(0,0)" fill="rgb(255,255,255)" d="M 963.988 1129.39 L 965.243 1132 C 958.127 1137.07 950.56 1141.47 942.638 1145.14 C 951.001 1136.68 954.453 1135.72 963.988 1129.39 z"/>
<path transform="translate(0,0)" fill="rgb(255,255,255)" d="M 1186.97 1204.47 C 1188.6 1207.07 1188.45 1206.97 1189.01 1210.03 C 1188.11 1214.72 1185.55 1217.54 1182.76 1221.51 C 1180.81 1218.33 1180.94 1219.77 1180.8 1216.61 C 1184.19 1211.85 1185.14 1210.02 1186.97 1204.47 z"/>
<path transform="translate(0,0)" fill="rgb(255,255,255)" d="M 1034.87 747.458 L 1036.55 749.158 C 1038.48 755.322 1035.04 760.166 1032.19 765.954 C 1029.25 763.132 1033.7 751.161 1034.87 747.458 z"/>
<path transform="translate(0,0)" fill="rgb(206,208,206)" d="M 773.564 943.028 C 781.791 945.881 789.04 950.733 796.96 954.803 L 800.985 957.404 L 800.029 960.029 L 773.564 943.028 z"/>
<path transform="translate(0,0)" fill="rgb(255,255,255)" d="M 1190.58 1215.71 L 1192.08 1217.52 C 1192.49 1221.28 1189.64 1224.45 1187.34 1228.17 L 1185.46 1225.05 C 1185.73 1221.44 1188.34 1218.72 1190.58 1215.71 z"/>
<path transform="translate(0,0)" fill="rgb(255,255,255)" d="M 1064.8 1039.68 L 1065.91 1040.86 C 1064.97 1044.5 1062.44 1046.25 1059.66 1048.94 C 1058.54 1047.53 1058.84 1047.78 1058.2 1046 C 1059.21 1043.02 1062.08 1041.62 1064.8 1039.68 z"/>
<path transform="translate(0,0)" fill="rgb(161,162,160)" d="M 977.174 1008.99 C 984.73 1009.63 988.305 1011.45 994.105 1016.19 C 989.313 1015.74 981.861 1011.37 977.174 1008.99 z"/>
<path transform="translate(0,0)" fill="rgb(255,255,255)" d="M 1193.38 1224.51 C 1194.76 1225.67 1194.57 1225.8 1195.54 1227.46 C 1194.94 1231.32 1194.71 1230.55 1191.99 1234.1 L 1191.65 1234.47 C 1190.24 1230.33 1191.58 1228.34 1193.38 1224.51 z"/>
<path transform="translate(0,0)" fill="rgb(255,255,255)" d="M 1031.63 982.725 C 1033 977.167 1033.48 973.995 1036.23 968.918 L 1039.08 969.923 L 1031.63 982.725 z"/>
<path transform="translate(0,0)" fill="rgb(101,101,102)" d="M 1283.85 939.856 C 1287.72 938.352 1291.75 936.196 1295.63 936.583 C 1291.63 939.159 1289.7 939.551 1285.1 941.066 L 1283.85 939.856 z"/>
<path transform="translate(0,0)" fill="rgb(255,255,255)" d="M 1032.63 896.14 L 1035.9 895.559 C 1034.81 899.537 1033.84 902.222 1032.39 906.097 C 1031.73 903.975 1032.73 899.035 1032.63 896.14 z"/>
<path transform="translate(0,0)" fill="rgb(161,162,160)" d="M 1033.42 946.852 L 1035.24 948.136 C 1033.92 951.64 1033.23 953.048 1031.44 956.354 L 1030.71 956.064 C 1031.52 951.948 1031.92 950.805 1033.42 946.852 z"/>
<path transform="translate(0,0)" fill="rgb(255,255,255)" d="M 744.794 925.397 C 751.284 924.451 751.066 924.531 754.976 929.185 C 750.497 928.577 748.435 927.868 744.794 925.397 z"/>
<path transform="translate(0,0)" fill="rgb(4,3,4)" d="M 1000.54 631.423 C 1044.61 628.531 1087.32 634.743 1129.62 646.728 C 1208.21 669.377 1278.13 715.224 1330.23 778.267 C 1389.47 851.407 1420.27 942.851 1418.05 1036.7 C 1417.87 1044.34 1416.57 1083.45 1411.55 1086.15 C 1410.92 1075.38 1414.8 1054.53 1415.31 1042.21 C 1423.67 838.839 1272.03 662.955 1071 636.98 C 1010.89 629.214 956.382 633.727 899.082 654.553 C 822.716 682.265 756.449 732.3 708.886 798.158 C 591.993 956.717 613.844 1169.82 754.547 1305.46 C 798.237 1347.58 831.812 1365.81 886.378 1390.98 C 941.354 1414.44 1001.51 1423.1 1060.87 1416.11 C 1219.08 1399.01 1362.24 1274.48 1403.02 1122.5 C 1404.62 1116.56 1407.2 1098.21 1409.96 1094.78 L 1410.71 1095.68 C 1410.33 1101.83 1407.26 1114.98 1405.7 1121.47 C 1391.05 1182.35 1360.72 1231.4 1320.95 1278.63 C 1253.87 1358.28 1150.83 1411.92 1047.12 1420.04 C 977.226 1425.51 915.328 1410.13 853.458 1378.11 C 824.712 1363.87 796.691 1346.59 772.237 1325.92 C 600.655 1181.07 581.933 923.449 736.596 759.019 C 806.619 684.574 898.194 637.674 1000.54 631.423 z"/>
<path transform="translate(0,0)" fill="rgb(4,3,4)" d="M 710.646 777.687 L 711.739 779.094 C 691.19 804.874 668.949 842.295 655.938 872.454 C 641.943 904.896 633.567 938.767 628.65 973.597 C 612.35 1089.05 650.792 1204.71 728.398 1290.92 C 778.025 1346.04 838.692 1383.4 908.409 1407.91 C 1064.99 1463.08 1241.86 1392.34 1340.26 1264.43 C 1343.31 1260.46 1355.92 1242.52 1358.36 1241.3 L 1358.84 1242.58 C 1345.71 1267.67 1302.02 1313.63 1279.96 1331.96 C 1124.76 1460.92 924.007 1461.32 768.049 1333.1 C 602.206 1196.74 570.847 943.73 710.646 777.687 z"/>
<path transform="translate(0,0)" fill="rgb(4,3,4)" d="M 1001.36 622.351 C 1033.63 620.443 1066.01 622.71 1097.7 629.096 C 1202.97 651.064 1293.96 707.333 1355.02 797.65 C 1418.82 892.027 1441.27 996.367 1417.52 1108.82 C 1409.59 1146.9 1395.64 1183.47 1376.19 1217.15 C 1372.42 1223.6 1366.07 1234.56 1359.91 1238.59 C 1361.44 1233.24 1380.85 1203.36 1385.08 1194.71 C 1500.99 957.504 1345.41 671.015 1086.65 630.19 C 1069.69 627.514 1054.62 624.932 1037.15 624.748 C 1032.38 624.698 1002.44 624.938 1000.15 623.885 L 1001.36 622.351 z"/>
<path transform="translate(0,0)" fill="rgb(4,3,4)" d="M 980.678 621.373 L 982.726 623.688 C 987.639 626.064 990.173 622.982 994.63 624.658 C 975.295 628.378 957.263 628.823 937.126 633.969 C 875.316 649.762 808.831 683.244 761.772 726.277 C 759.319 728.698 757.504 730.463 754.112 730.573 L 754.316 729.145 C 767.694 714.276 795.152 696.069 812.111 685.323 C 853.392 659.165 900.583 637.262 949.049 629.402 C 948.225 629.536 953.868 624.631 954.382 624.293 C 955.816 625.286 955.876 625.604 956.829 627.054 C 962.152 627.7 976.688 625.32 980.678 621.373 z"/>
<path transform="translate(0,0)" fill="rgb(16,15,15)" d="M 746.664 735.942 L 747.403 736.744 C 746.309 739.466 724.06 764.251 719.87 769.419 L 718.597 767.506 C 720.865 760.879 740.659 741.296 746.664 735.942 z"/>
</svg>